<svg width="284" height="107" viewBox="0 0 284 107" fill="none" xmlns="http://www.w3.org/2000/svg">
<path d="M27.1069 4.72V22H23.2669V13.744L19.4269 18.16L15.5869 13.744V22H11.7469V4.72L19.4269 12.976L27.1069 4.72ZM34.0088 22H30.1688V5.104H34.0088V22ZM48.6029 22H44.3789L42.0269 17.2H40.9229V22H37.0829V5.104H41.6429C46.2029 5.104 48.2189 7.936 48.2189 11.056C48.2189 13.096 47.2829 15.112 45.5069 16.24L48.6029 22ZM40.9229 8.56V13.744H41.6189C43.2749 13.744 44.3789 12.616 44.3789 11.152C44.3789 9.52 43.2749 8.56 41.6189 8.56H40.9229ZM61.279 22L60.487 20.08H54.391L53.599 22H49.375L57.439 4.72L65.503 22H61.279ZM55.783 16.624H59.095L57.439 12.592L55.783 16.624ZM83.9251 8.56H78.1651V12.784H82.3891V16.24H78.1651V18.544H83.9251V22H74.3251V5.104H83.9251V8.56ZM86.6063 5.104H90.4463V18.544H96.2063V22H86.6063V5.104ZM116.17 22L115.378 20.08H109.282L108.49 22H104.266L112.33 4.72L120.394 22H116.17ZM110.674 16.624H113.986L112.33 12.592L110.674 16.624ZM129.037 5.104H133.261L125.197 22.384L117.133 5.104H121.357L125.197 14.128L129.037 5.104ZM141.904 22L141.112 20.08H135.016L134.224 22H130L138.064 4.72L146.128 22H141.904ZM136.408 16.624H139.72L138.064 12.592L136.408 16.624ZM156.493 5.104H160.333V22.384L151.501 13.744V22H147.661V4.72L156.493 13.36V5.104ZM171.72 18.928C173.064 18.928 174.24 18.424 175.128 17.68L177.048 20.608C175.608 21.76 173.448 22.384 171.696 22.384C166.608 22.384 162.456 18.424 162.456 13.552C162.456 8.68 166.608 4.72 171.696 4.72C173.448 4.72 175.608 5.344 177.048 6.496L175.128 9.424C174.24 8.68 173.064 8.176 171.72 8.176C168.743 8.176 166.296 10.552 166.296 13.552C166.296 16.552 168.743 18.928 171.72 18.928ZM188.386 8.56H182.626V12.784H186.85V16.24H182.626V18.544H188.386V22H178.786V5.104H188.386V8.56ZM202.556 5.104C208.484 5.104 211.412 9.088 211.412 13.552C211.412 18.016 208.34 22 202.556 22H198.356V5.104H202.556ZM202.82 18.544C205.844 18.544 207.572 16.096 207.572 13.552C207.572 11.008 205.844 8.56 202.82 8.56H202.196V18.544H202.82ZM223.12 8.56H217.36V12.784H221.584V16.24H217.36V18.544H223.12V22H213.52V5.104H223.12V8.56ZM233.091 5.104H236.931V18.544H242.691V22H233.091V5.104ZM256.138 22L255.346 20.08H249.25L248.458 22H244.234L252.298 4.72L260.362 22H256.138ZM250.642 16.624H253.954L252.298 12.592L250.642 16.624ZM267.463 10.888C270.343 11.992 273.031 12.928 273.031 16.768C273.031 19.744 270.679 22.384 267.079 22.384C263.719 22.384 261.535 19.984 261.127 19.312L263.263 16.624C264.463 18.184 265.735 18.928 267.079 18.928C268.447 18.928 269.191 17.896 269.191 17.008C269.191 15.856 268.591 15.28 267.271 14.776C263.815 13.456 262.087 12.16 262.087 9.376C262.087 6.544 264.463 4.72 267.511 4.72C268.039 4.72 270.079 4.624 272.215 6.592L270.151 9.424C269.671 8.92 268.663 8.176 267.463 8.176C266.527 8.176 265.927 8.776 265.927 9.304C265.927 9.952 266.263 10.432 267.463 10.888ZM73.3219 33.104C79.2499 33.104 82.1779 37.088 82.1779 41.552C82.1779 46.016 79.1059 50 73.3219 50H69.1219V33.104H73.3219ZM73.5859 46.544C76.6099 46.544 78.3379 44.096 78.3379 41.552C78.3379 39.008 76.6099 36.56 73.5859 36.56H72.9619V46.544H73.5859ZM92.7295 32.72C97.7215 32.72 101.754 36.68 101.754 41.552C101.754 46.424 97.7215 50.384 92.7295 50.384C87.7375 50.384 83.7055 46.424 83.7055 41.552C83.7055 36.68 87.7375 32.72 92.7295 32.72ZM92.7295 46.928C95.5855 46.928 97.9135 44.528 97.9135 41.552C97.9135 38.576 95.5855 36.176 92.7295 36.176C89.8735 36.176 87.5455 38.576 87.5455 41.552C87.5455 44.528 89.8735 46.928 92.7295 46.928ZM112.712 33.104H116.552V50.384L107.72 41.744V50H103.88V32.72L112.712 41.36V33.104ZM130.185 50L129.393 48.08H123.297L122.505 50H118.281L126.345 32.72L134.409 50H130.185ZM124.689 44.624H128.001L126.345 40.592L124.689 44.624ZM143.29 46.928C144.634 46.928 145.81 46.424 146.698 45.68L148.618 48.608C147.178 49.76 145.018 50.384 143.266 50.384C138.178 50.384 134.026 46.424 134.026 41.552C134.026 36.68 138.178 32.72 143.266 32.72C145.018 32.72 147.178 33.344 148.618 34.496L146.698 37.424C145.81 36.68 144.634 36.176 143.29 36.176C140.314 36.176 137.866 38.552 137.866 41.552C137.866 44.552 140.314 46.928 143.29 46.928ZM154.196 50H150.356V33.104H154.196V50ZM165.339 32.72C170.331 32.72 174.363 36.68 174.363 41.552C174.363 46.424 170.331 50.384 165.339 50.384C160.347 50.384 156.315 46.424 156.315 41.552C156.315 36.68 160.347 32.72 165.339 32.72ZM165.339 46.928C168.195 46.928 170.523 44.528 170.523 41.552C170.523 38.576 168.195 36.176 165.339 36.176C162.483 36.176 160.155 38.576 160.155 41.552C160.155 44.528 162.483 46.928 165.339 46.928ZM185.321 33.104H189.161V50.384L180.329 41.744V50H176.489V32.72L185.321 41.36V33.104ZM201.839 36.56H196.079V40.784H200.303V44.24H196.079V46.544H201.839V50H192.239V33.104H201.839V36.56ZM210.088 38.888C212.968 39.992 215.656 40.928 215.656 44.768C215.656 47.744 213.304 50.384 209.704 50.384C206.344 50.384 204.16 47.984 203.752 47.312L205.888 44.624C207.088 46.184 208.36 46.928 209.704 46.928C211.072 46.928 211.816 45.896 211.816 45.008C211.816 43.856 211.216 43.28 209.896 42.776C206.44 41.456 204.712 40.16 204.712 37.376C204.712 34.544 207.088 32.72 210.136 32.72C210.664 32.72 212.704 32.624 214.84 34.592L212.776 37.424C212.296 36.92 211.288 36.176 210.088 36.176C209.152 36.176 208.552 36.776 208.552 37.304C208.552 37.952 208.888 38.432 210.088 38.888Z" fill="#523621"/>
<path d="M41.9582 70.736V82.256L35.5582 74.64V82H34.0222V70.48L40.4222 78.096V70.736H41.9582ZM47.1142 82.128C46.1969 82.128 45.4929 81.824 45.0022 81.216C44.5116 80.608 44.2662 79.7387 44.2662 78.608V74.832H45.8022V78.736C45.8022 80.0587 46.3356 80.72 47.4022 80.72C47.8929 80.72 48.3036 80.5067 48.6342 80.08C48.9649 79.6533 49.1302 79.0987 49.1302 78.416V74.832H50.6662V82H49.1302V81.104C48.9809 81.3813 48.7249 81.6213 48.3622 81.824C47.9996 82.0267 47.5836 82.128 47.1142 82.128ZM56.1754 80.72C56.8047 80.72 57.3967 80.4427 57.9514 79.888L58.8314 81.008C58.1167 81.7547 57.2314 82.128 56.1754 82.128C55.1514 82.128 54.2767 81.7653 53.5514 81.04C52.826 80.3147 52.4634 79.44 52.4634 78.416C52.4634 77.392 52.826 76.5173 53.5514 75.792C54.2767 75.0667 55.1514 74.704 56.1754 74.704C56.9754 74.704 57.658 74.9333 58.2234 75.392C58.7887 75.84 59.1727 76.4533 59.3754 77.232L54.6234 79.984C54.7727 80.1973 54.9914 80.3733 55.2794 80.512C55.578 80.6507 55.8767 80.72 56.1754 80.72ZM56.1754 76.112C55.5994 76.112 55.0927 76.3467 54.6554 76.816C54.218 77.2853 53.9994 77.8187 53.9994 78.416C53.9994 78.4373 54.01 78.576 54.0314 78.832L57.5834 76.784C57.242 76.336 56.7727 76.112 56.1754 76.112ZM63.7389 77.52C65.2642 77.872 66.0269 78.6507 66.0269 79.856C66.0269 80.528 65.7762 81.072 65.2749 81.488C64.7735 81.9147 64.1762 82.128 63.4829 82.128C62.4055 82.128 61.4615 81.7227 60.6509 80.912L61.4189 79.792C62.0375 80.3893 62.6935 80.6987 63.3869 80.72C63.7175 80.7307 63.9842 80.656 64.1869 80.496C64.3895 80.336 64.4909 80.1493 64.4909 79.936C64.4909 79.5307 64.1602 79.2373 63.4989 79.056C62.5709 78.8 61.9255 78.5067 61.5629 78.176C61.2109 77.8453 61.0349 77.376 61.0349 76.768C61.0349 76.192 61.2535 75.7067 61.6909 75.312C62.1389 74.9067 62.7309 74.704 63.4669 74.704C64.2242 74.704 64.9122 74.9493 65.5309 75.44L64.8109 76.56C64.4162 76.2613 63.9682 76.112 63.4669 76.112C63.1895 76.112 62.9709 76.1707 62.8109 76.288C62.6509 76.4053 62.5709 76.5493 62.5709 76.72C62.5709 76.9227 62.6509 77.0827 62.8109 77.2C62.9815 77.3067 63.2909 77.4133 63.7389 77.52ZM70.3731 82H68.8371V76.24H67.5571V74.832H68.8371V72.016L70.3731 71.504V74.832H72.4211V76.24H70.3731V82ZM76.0114 74.832V75.968C76.4914 75.1253 77.3447 74.704 78.5714 74.704V76.336C78.102 76.24 77.6754 76.2613 77.2914 76.4C76.438 76.7093 76.0114 77.504 76.0114 78.784V82H74.4754V74.832H76.0114ZM79.5884 78.416C79.5884 77.392 79.951 76.5173 80.6764 75.792C81.4017 75.0667 82.2764 74.704 83.3004 74.704C84.3244 74.704 85.199 75.0667 85.9244 75.792C86.6497 76.5173 87.0124 77.392 87.0124 78.416C87.0124 79.44 86.6497 80.3147 85.9244 81.04C85.199 81.7653 84.3244 82.128 83.3004 82.128C82.2764 82.128 81.4017 81.7653 80.6764 81.04C79.951 80.3147 79.5884 79.44 79.5884 78.416ZM81.7804 80.032C82.207 80.4907 82.7137 80.72 83.3004 80.72C83.8977 80.72 84.4097 80.4907 84.8364 80.032C85.263 79.5947 85.4764 79.056 85.4764 78.416C85.4764 77.7867 85.263 77.2427 84.8364 76.784C84.4097 76.336 83.8977 76.112 83.3004 76.112C82.7244 76.112 82.2177 76.336 81.7804 76.784C81.343 77.2533 81.1244 77.7973 81.1244 78.416C81.1244 79.0347 81.343 79.5733 81.7804 80.032ZM93.9165 78.416C93.9165 77.392 94.2791 76.5173 95.0045 75.792C95.7298 75.0667 96.6045 74.704 97.6285 74.704C98.6525 74.704 99.5272 75.0667 100.252 75.792C100.978 76.5173 101.34 77.392 101.34 78.416C101.34 79.44 100.978 80.3147 100.252 81.04C99.5272 81.7653 98.6525 82.128 97.6285 82.128C96.6045 82.128 95.7298 81.7653 95.0045 81.04C94.2791 80.3147 93.9165 79.44 93.9165 78.416ZM96.1085 80.032C96.5352 80.4907 97.0418 80.72 97.6285 80.72C98.2258 80.72 98.7378 80.4907 99.1645 80.032C99.5912 79.5947 99.8045 79.056 99.8045 78.416C99.8045 77.7867 99.5912 77.2427 99.1645 76.784C98.7378 76.336 98.2258 76.112 97.6285 76.112C97.0525 76.112 96.5458 76.336 96.1085 76.784C95.6712 77.2533 95.4525 77.7973 95.4525 78.416C95.4525 79.0347 95.6712 79.5733 96.1085 80.032ZM103.132 70.224H104.668V75.728C105.254 75.0453 106.022 74.704 106.972 74.704C107.964 74.704 108.812 75.0667 109.516 75.792C110.209 76.5173 110.556 77.392 110.556 78.416C110.556 79.44 110.209 80.3147 109.516 81.04C108.812 81.7653 107.964 82.128 106.972 82.128C106.022 82.128 105.254 81.7867 104.668 81.104V82H103.132V70.224ZM105.308 80.048C105.724 80.496 106.236 80.72 106.844 80.72C107.441 80.72 107.958 80.496 108.396 80.048C108.812 79.6 109.02 79.056 109.02 78.416C109.02 77.776 108.812 77.232 108.396 76.784C107.958 76.336 107.441 76.112 106.844 76.112C106.236 76.112 105.724 76.336 105.308 76.784C104.881 77.2213 104.668 77.7653 104.668 78.416C104.668 79.0667 104.881 79.6107 105.308 80.048ZM114.395 72.4C114.395 72.72 114.283 72.992 114.059 73.216C113.835 73.44 113.563 73.552 113.243 73.552C112.923 73.552 112.651 73.44 112.427 73.216C112.203 72.992 112.091 72.72 112.091 72.4C112.091 72.08 112.203 71.808 112.427 71.584C112.651 71.36 112.923 71.248 113.243 71.248C113.563 71.248 113.835 71.36 114.059 71.584C114.283 71.808 114.395 72.08 114.395 72.4ZM114.011 85.584L112.475 86.096V74.832H114.011V85.584ZM119.519 80.72C120.148 80.72 120.74 80.4427 121.295 79.888L122.175 81.008C121.46 81.7547 120.575 82.128 119.519 82.128C118.495 82.128 117.62 81.7653 116.895 81.04C116.17 80.3147 115.807 79.44 115.807 78.416C115.807 77.392 116.17 76.5173 116.895 75.792C117.62 75.0667 118.495 74.704 119.519 74.704C120.319 74.704 121.002 74.9333 121.567 75.392C122.132 75.84 122.516 76.4533 122.719 77.232L117.967 79.984C118.116 80.1973 118.335 80.3733 118.623 80.512C118.922 80.6507 119.22 80.72 119.519 80.72ZM119.519 76.112C118.943 76.112 118.436 76.3467 117.999 76.816C117.562 77.2853 117.343 77.8187 117.343 78.416C117.343 78.4373 117.354 78.576 117.375 78.832L120.927 76.784C120.586 76.336 120.116 76.112 119.519 76.112ZM126.561 82H125.025V76.24H123.745V74.832H125.025V72.016L126.561 71.504V74.832H128.609V76.24H126.561V82ZM132.583 72.4C132.583 72.72 132.471 72.992 132.247 73.216C132.023 73.44 131.751 73.552 131.431 73.552C131.111 73.552 130.839 73.44 130.615 73.216C130.391 72.992 130.279 72.72 130.279 72.4C130.279 72.08 130.391 71.808 130.615 71.584C130.839 71.36 131.111 71.248 131.431 71.248C131.751 71.248 132.023 71.36 132.247 71.584C132.471 71.808 132.583 72.08 132.583 72.4ZM132.199 82H130.663V74.832H132.199V82ZM140.52 74.832L137.064 82.256L133.608 74.832H135.272L137.064 78.8L138.856 74.832H140.52ZM141.291 78.416C141.291 77.392 141.654 76.5173 142.379 75.792C143.105 75.0667 143.979 74.704 145.003 74.704C146.027 74.704 146.902 75.0667 147.627 75.792C148.353 76.5173 148.715 77.392 148.715 78.416C148.715 79.44 148.353 80.3147 147.627 81.04C146.902 81.7653 146.027 82.128 145.003 82.128C143.979 82.128 143.105 81.7653 142.379 81.04C141.654 80.3147 141.291 79.44 141.291 78.416ZM143.483 80.032C143.91 80.4907 144.417 80.72 145.003 80.72C145.601 80.72 146.113 80.4907 146.539 80.032C146.966 79.5947 147.179 79.056 147.179 78.416C147.179 77.7867 146.966 77.2427 146.539 76.784C146.113 76.336 145.601 76.112 145.003 76.112C144.427 76.112 143.921 76.336 143.483 76.784C143.046 77.2533 142.827 77.7973 142.827 78.416C142.827 79.0347 143.046 79.5733 143.483 80.032ZM158.708 77.52C160.233 77.872 160.996 78.6507 160.996 79.856C160.996 80.528 160.745 81.072 160.244 81.488C159.742 81.9147 159.145 82.128 158.452 82.128C157.374 82.128 156.43 81.7227 155.62 80.912L156.388 79.792C157.006 80.3893 157.662 80.6987 158.356 80.72C158.686 80.7307 158.953 80.656 159.156 80.496C159.358 80.336 159.46 80.1493 159.46 79.936C159.46 79.5307 159.129 79.2373 158.468 79.056C157.54 78.8 156.894 78.5067 156.532 78.176C156.18 77.8453 156.004 77.376 156.004 76.768C156.004 76.192 156.222 75.7067 156.66 75.312C157.108 74.9067 157.7 74.704 158.436 74.704C159.193 74.704 159.881 74.9493 160.5 75.44L159.78 76.56C159.385 76.2613 158.937 76.112 158.436 76.112C158.158 76.112 157.94 76.1707 157.78 76.288C157.62 76.4053 157.54 76.5493 157.54 76.72C157.54 76.9227 157.62 77.0827 157.78 77.2C157.95 77.3067 158.26 77.4133 158.708 77.52ZM162.401 78.416C162.401 77.392 162.764 76.5173 163.489 75.792C164.214 75.0667 165.089 74.704 166.113 74.704C167.137 74.704 168.012 75.0667 168.737 75.792C169.462 76.5173 169.825 77.392 169.825 78.416C169.825 79.44 169.462 80.3147 168.737 81.04C168.012 81.7653 167.137 82.128 166.113 82.128C165.089 82.128 164.214 81.7653 163.489 81.04C162.764 80.3147 162.401 79.44 162.401 78.416ZM164.593 80.032C165.02 80.4907 165.526 80.72 166.113 80.72C166.71 80.72 167.222 80.4907 167.649 80.032C168.076 79.5947 168.289 79.056 168.289 78.416C168.289 77.7867 168.076 77.2427 167.649 76.784C167.222 76.336 166.71 76.112 166.113 76.112C165.537 76.112 165.03 76.336 164.593 76.784C164.156 77.2533 163.937 77.7973 163.937 78.416C163.937 79.0347 164.156 79.5733 164.593 80.032ZM175.168 74.704C176.085 74.704 176.789 75.008 177.28 75.616C177.771 76.224 178.016 77.0933 178.016 78.224V82H176.48V78.224C176.48 77.5093 176.352 76.9813 176.096 76.64C175.851 76.288 175.445 76.112 174.88 76.112C174.389 76.112 173.979 76.32 173.648 76.736C173.317 77.1413 173.152 77.6587 173.152 78.288V82H171.616V74.832H173.152V75.728C173.301 75.4507 173.557 75.2107 173.92 75.008C174.283 74.8053 174.699 74.704 175.168 74.704ZM185.182 73.424V71.888L188.51 70.48V82H186.974V72.672L185.182 73.424ZM193.873 72.144L193.409 75.184C193.963 74.8747 194.555 74.72 195.185 74.72C195.825 74.7093 196.406 74.832 196.929 75.088C197.451 75.344 197.883 75.7547 198.225 76.32C198.577 76.8853 198.753 77.552 198.753 78.32C198.753 79.3547 198.406 80.2507 197.713 81.008C197.03 81.7547 196.139 82.128 195.041 82.128C194.465 82.128 193.931 82.0213 193.441 81.808C192.961 81.584 192.577 81.3013 192.289 80.96C192.001 80.6187 191.771 80.2613 191.601 79.888C191.441 79.5147 191.35 79.152 191.329 78.8L192.753 78.368C192.849 79.0933 193.099 79.6693 193.505 80.096C193.921 80.512 194.433 80.72 195.041 80.72C195.659 80.72 196.177 80.5013 196.593 80.064C197.009 79.616 197.217 79.04 197.217 78.336C197.238 77.8347 197.115 77.3973 196.849 77.024C196.582 76.6507 196.246 76.3893 195.841 76.24C195.435 76.0907 194.977 76.0693 194.465 76.176C193.963 76.272 193.499 76.5013 193.073 76.864L191.745 76.368L192.609 70.736H197.489V72.144H193.873ZM202.157 72.272C203.075 71.1627 204.243 70.608 205.661 70.608C207.08 70.608 208.248 71.1627 209.165 72.272C210.072 73.3707 210.525 74.736 210.525 76.368C210.525 78 210.072 79.3653 209.165 80.464C208.248 81.5733 207.08 82.128 205.661 82.128C204.221 82.128 203.053 81.5733 202.157 80.464C201.251 79.3653 200.797 78 200.797 76.368C200.797 74.736 201.251 73.3707 202.157 72.272ZM203.309 79.44C203.971 80.2933 204.755 80.72 205.661 80.72C206.568 80.72 207.352 80.2933 208.013 79.44C208.664 78.5973 208.989 77.5733 208.989 76.368C208.989 75.152 208.664 74.1227 208.013 73.28C207.363 72.4373 206.579 72.016 205.661 72.016C204.744 72.016 203.96 72.4373 203.309 73.28C202.659 74.1227 202.333 75.152 202.333 76.368C202.333 77.5733 202.659 78.5973 203.309 79.44ZM213.731 82.128C213.411 82.128 213.139 82.016 212.915 81.792C212.691 81.568 212.579 81.296 212.579 80.976C212.579 80.6453 212.691 80.3733 212.915 80.16C213.139 79.936 213.411 79.824 213.731 79.824C214.061 79.824 214.333 79.936 214.547 80.16C214.771 80.3733 214.883 80.6453 214.883 80.976C214.883 81.296 214.771 81.568 214.547 81.792C214.333 82.016 214.061 82.128 213.731 82.128ZM218.298 72.272C219.215 71.1627 220.383 70.608 221.802 70.608C223.221 70.608 224.389 71.1627 225.306 72.272C226.213 73.3707 226.666 74.736 226.666 76.368C226.666 78 226.213 79.3653 225.306 80.464C224.389 81.5733 223.221 82.128 221.802 82.128C220.362 82.128 219.194 81.5733 218.298 80.464C217.391 79.3653 216.938 78 216.938 76.368C216.938 74.736 217.391 73.3707 218.298 72.272ZM219.45 79.44C220.111 80.2933 220.895 80.72 221.802 80.72C222.709 80.72 223.493 80.2933 224.154 79.44C224.805 78.5973 225.13 77.5733 225.13 76.368C225.13 75.152 224.805 74.1227 224.154 73.28C223.503 72.4373 222.719 72.016 221.802 72.016C220.885 72.016 220.101 72.4373 219.45 73.28C218.799 74.1227 218.474 75.152 218.474 76.368C218.474 77.5733 218.799 78.5973 219.45 79.44ZM230.079 72.272C230.997 71.1627 232.165 70.608 233.583 70.608C235.002 70.608 236.17 71.1627 237.087 72.272C237.994 73.3707 238.447 74.736 238.447 76.368C238.447 78 237.994 79.3653 237.087 80.464C236.17 81.5733 235.002 82.128 233.583 82.128C232.143 82.128 230.975 81.5733 230.079 80.464C229.173 79.3653 228.719 78 228.719 76.368C228.719 74.736 229.173 73.3707 230.079 72.272ZM231.231 79.44C231.893 80.2933 232.677 80.72 233.583 80.72C234.49 80.72 235.274 80.2933 235.935 79.44C236.586 78.5973 236.911 77.5733 236.911 76.368C236.911 75.152 236.586 74.1227 235.935 73.28C235.285 72.4373 234.501 72.016 233.583 72.016C232.666 72.016 231.882 72.4373 231.231 73.28C230.581 74.1227 230.255 75.152 230.255 76.368C230.255 77.5733 230.581 78.5973 231.231 79.44ZM241.861 72.272C242.778 71.1627 243.946 70.608 245.365 70.608C246.783 70.608 247.951 71.1627 248.869 72.272C249.775 73.3707 250.229 74.736 250.229 76.368C250.229 78 249.775 79.3653 248.869 80.464C247.951 81.5733 246.783 82.128 245.365 82.128C243.925 82.128 242.757 81.5733 241.861 80.464C240.954 79.3653 240.501 78 240.501 76.368C240.501 74.736 240.954 73.3707 241.861 72.272ZM243.013 79.44C243.674 80.2933 244.458 80.72 245.365 80.72C246.271 80.72 247.055 80.2933 247.717 79.44C248.367 78.5973 248.693 77.5733 248.693 76.368C248.693 75.152 248.367 74.1227 247.717 73.28C247.066 72.4373 246.282 72.016 245.365 72.016C244.447 72.016 243.663 72.4373 243.013 73.28C242.362 74.1227 242.037 75.152 242.037 76.368C242.037 77.5733 242.362 78.5973 243.013 79.44ZM71.6676 91.832V92.968C72.1476 92.1253 73.0009 91.704 74.2276 91.704V93.336C73.7583 93.24 73.3316 93.2613 72.9476 93.4C72.0943 93.7093 71.6676 94.504 71.6676 95.784V99H70.1316V91.832H71.6676ZM81.6446 95.64V99H80.1086V98.072C79.5113 98.776 78.7699 99.128 77.8846 99.128C77.1166 99.128 76.4873 98.8987 75.9966 98.44C75.4953 97.992 75.2446 97.416 75.2446 96.712C75.2446 96.04 75.4899 95.4907 75.9806 95.064C76.4819 94.6373 77.0846 94.408 77.7886 94.376C78.5033 94.344 79.2606 94.488 80.0606 94.808C79.9966 93.6773 79.4579 93.112 78.4446 93.112C77.8366 93.112 77.2819 93.2667 76.7806 93.576L76.1406 92.472C76.8126 91.96 77.6019 91.704 78.5086 91.704C80.5993 91.704 81.6446 93.016 81.6446 95.64ZM80.1086 96.072C79.7459 95.8587 79.2979 95.736 78.7646 95.704C78.2313 95.672 77.7619 95.752 77.3566 95.944C76.9619 96.1253 76.7699 96.3973 76.7806 96.76C76.7806 97.0373 76.8926 97.2667 77.1166 97.448C77.3513 97.6293 77.6553 97.72 78.0286 97.72C78.5193 97.72 78.9726 97.56 79.3886 97.24C79.8046 96.92 80.0446 96.5307 80.1086 96.072ZM87.1441 97.72C87.8161 97.72 88.3494 97.5067 88.7441 97.08L89.5761 98.232C88.8828 98.8293 88.0721 99.128 87.1441 99.128C86.1201 99.128 85.2454 98.7653 84.5201 98.04C83.7948 97.3147 83.4321 96.44 83.4321 95.416C83.4321 94.392 83.7948 93.5173 84.5201 92.792C85.2454 92.0667 86.1201 91.704 87.1441 91.704C88.0721 91.704 88.8828 92.0027 89.5761 92.6L88.7441 93.752C88.3494 93.3253 87.8161 93.112 87.1441 93.112C86.5681 93.112 86.0614 93.336 85.6241 93.784C85.1868 94.2533 84.9681 94.7973 84.9681 95.416C84.9681 96.0347 85.1868 96.5733 85.6241 97.032C86.0508 97.4907 86.5574 97.72 87.1441 97.72ZM93.4266 89.4C93.4266 89.72 93.3146 89.992 93.0906 90.216C92.8666 90.44 92.5946 90.552 92.2746 90.552C91.9546 90.552 91.6826 90.44 91.4586 90.216C91.2346 89.992 91.1226 89.72 91.1226 89.4C91.1226 89.08 91.2346 88.808 91.4586 88.584C91.6826 88.36 91.9546 88.248 92.2746 88.248C92.5946 88.248 92.8666 88.36 93.0906 88.584C93.3146 88.808 93.4266 89.08 93.4266 89.4ZM93.0426 99H91.5066V91.832H93.0426V99ZM94.8384 95.416C94.8384 94.392 95.201 93.5173 95.9264 92.792C96.6517 92.0667 97.5264 91.704 98.5504 91.704C99.5744 91.704 100.449 92.0667 101.174 92.792C101.9 93.5173 102.262 94.392 102.262 95.416C102.262 96.44 101.9 97.3147 101.174 98.04C100.449 98.7653 99.5744 99.128 98.5504 99.128C97.5264 99.128 96.6517 98.7653 95.9264 98.04C95.201 97.3147 94.8384 96.44 94.8384 95.416ZM97.0304 97.032C97.457 97.4907 97.9637 97.72 98.5504 97.72C99.1477 97.72 99.6597 97.4907 100.086 97.032C100.513 96.5947 100.726 96.056 100.726 95.416C100.726 94.7867 100.513 94.2427 100.086 93.784C99.6597 93.336 99.1477 93.112 98.5504 93.112C97.9744 93.112 97.4677 93.336 97.0304 93.784C96.593 94.2533 96.3744 94.7973 96.3744 95.416C96.3744 96.0347 96.593 96.5733 97.0304 97.032ZM107.605 91.704C108.523 91.704 109.227 92.008 109.717 92.616C110.208 93.224 110.453 94.0933 110.453 95.224V99H108.917V95.224C108.917 94.5093 108.789 93.9813 108.533 93.64C108.288 93.288 107.883 93.112 107.317 93.112C106.827 93.112 106.416 93.32 106.085 93.736C105.755 94.1413 105.589 94.6587 105.589 95.288V99H104.053V91.832H105.589V92.728C105.739 92.4507 105.995 92.2107 106.357 92.008C106.72 91.8053 107.136 91.704 107.605 91.704ZM115.957 97.72C116.586 97.72 117.178 97.4427 117.733 96.888L118.613 98.008C117.898 98.7547 117.013 99.128 115.957 99.128C114.933 99.128 114.058 98.7653 113.333 98.04C112.607 97.3147 112.245 96.44 112.245 95.416C112.245 94.392 112.607 93.5173 113.333 92.792C114.058 92.0667 114.933 91.704 115.957 91.704C116.757 91.704 117.439 91.9333 118.005 92.392C118.57 92.84 118.954 93.4533 119.157 94.232L114.405 96.984C114.554 97.1973 114.773 97.3733 115.061 97.512C115.359 97.6507 115.658 97.72 115.957 97.72ZM115.957 93.112C115.381 93.112 114.874 93.3467 114.437 93.816C113.999 94.2853 113.781 94.8187 113.781 95.416C113.781 95.4373 113.791 95.576 113.813 95.832L117.365 93.784C117.023 93.336 116.554 93.112 115.957 93.112ZM123.52 94.52C125.045 94.872 125.808 95.6507 125.808 96.856C125.808 97.528 125.557 98.072 125.056 98.488C124.555 98.9147 123.957 99.128 123.264 99.128C122.187 99.128 121.243 98.7227 120.432 97.912L121.2 96.792C121.819 97.3893 122.475 97.6987 123.168 97.72C123.499 97.7307 123.765 97.656 123.968 97.496C124.171 97.336 124.272 97.1493 124.272 96.936C124.272 96.5307 123.941 96.2373 123.28 96.056C122.352 95.8 121.707 95.5067 121.344 95.176C120.992 94.8453 120.816 94.376 120.816 93.768C120.816 93.192 121.035 92.7067 121.472 92.312C121.92 91.9067 122.512 91.704 123.248 91.704C124.005 91.704 124.693 91.9493 125.312 92.44L124.592 93.56C124.197 93.2613 123.749 93.112 123.248 93.112C122.971 93.112 122.752 93.1707 122.592 93.288C122.432 93.4053 122.352 93.5493 122.352 93.72C122.352 93.9227 122.432 94.0827 122.592 94.2C122.763 94.3067 123.072 94.4133 123.52 94.52ZM138.601 92.728V87.224H140.137V99H138.601V98.104C138.015 98.7867 137.247 99.128 136.297 99.128C135.305 99.128 134.463 98.7653 133.769 98.04C133.065 97.3147 132.713 96.44 132.713 95.416C132.713 94.392 133.065 93.5173 133.769 92.792C134.463 92.0667 135.305 91.704 136.297 91.704C137.247 91.704 138.015 92.0453 138.601 92.728ZM134.889 97.048C135.305 97.496 135.817 97.72 136.425 97.72C137.023 97.72 137.54 97.496 137.977 97.048C138.393 96.6 138.601 96.056 138.601 95.416C138.601 94.776 138.393 94.232 137.977 93.784C137.54 93.336 137.023 93.112 136.425 93.112C135.817 93.112 135.305 93.336 134.889 93.784C134.463 94.2213 134.249 94.7653 134.249 95.416C134.249 96.0667 134.463 96.6107 134.889 97.048ZM145.644 97.72C146.273 97.72 146.865 97.4427 147.42 96.888L148.3 98.008C147.585 98.7547 146.7 99.128 145.644 99.128C144.62 99.128 143.745 98.7653 143.02 98.04C142.295 97.3147 141.932 96.44 141.932 95.416C141.932 94.392 142.295 93.5173 143.02 92.792C143.745 92.0667 144.62 91.704 145.644 91.704C146.444 91.704 147.127 91.9333 147.692 92.392C148.257 92.84 148.641 93.4533 148.844 94.232L144.092 96.984C144.241 97.1973 144.46 97.3733 144.748 97.512C145.047 97.6507 145.345 97.72 145.644 97.72ZM145.644 93.112C145.068 93.112 144.561 93.3467 144.124 93.816C143.687 94.2853 143.468 94.8187 143.468 95.416C143.468 95.4373 143.479 95.576 143.5 95.832L147.052 93.784C146.711 93.336 146.241 93.112 145.644 93.112ZM161.895 95.64V99H160.359V98.072C159.761 98.776 159.02 99.128 158.135 99.128C157.367 99.128 156.737 98.8987 156.247 98.44C155.745 97.992 155.495 97.416 155.495 96.712C155.495 96.04 155.74 95.4907 156.231 95.064C156.732 94.6373 157.335 94.408 158.039 94.376C158.753 94.344 159.511 94.488 160.311 94.808C160.247 93.6773 159.708 93.112 158.695 93.112C158.087 93.112 157.532 93.2667 157.031 93.576L156.391 92.472C157.063 91.96 157.852 91.704 158.759 91.704C160.849 91.704 161.895 93.016 161.895 95.64ZM160.359 96.072C159.996 95.8587 159.548 95.736 159.015 95.704C158.481 95.672 158.012 95.752 157.607 95.944C157.212 96.1253 157.02 96.3973 157.031 96.76C157.031 97.0373 157.143 97.2667 157.367 97.448C157.601 97.6293 157.905 97.72 158.279 97.72C158.769 97.72 159.223 97.56 159.639 97.24C160.055 96.92 160.295 96.5307 160.359 96.072ZM164.069 99V87.224H165.605V99H164.069ZM169.958 89.4C169.958 89.72 169.846 89.992 169.622 90.216C169.398 90.44 169.126 90.552 168.806 90.552C168.486 90.552 168.214 90.44 167.99 90.216C167.766 89.992 167.654 89.72 167.654 89.4C167.654 89.08 167.766 88.808 167.99 88.584C168.214 88.36 168.486 88.248 168.806 88.248C169.126 88.248 169.398 88.36 169.622 88.584C169.846 88.808 169.958 89.08 169.958 89.4ZM169.574 99H168.038V91.832H169.574V99ZM180.039 91.704C180.903 91.704 181.569 92.0133 182.039 92.632C182.519 93.24 182.759 94.104 182.759 95.224V99H181.223V95.224C181.223 93.816 180.732 93.112 179.751 93.112C179.281 93.112 178.897 93.3147 178.599 93.72C178.3 94.1147 178.151 94.6373 178.151 95.288V99H176.615V95.224C176.615 93.816 176.124 93.112 175.143 93.112C174.673 93.112 174.289 93.3147 173.991 93.72C173.692 94.1147 173.543 94.6373 173.543 95.288V99H172.007V91.832H173.543V92.728C173.713 92.4933 173.863 92.3173 173.991 92.2C174.119 92.0827 174.305 91.9707 174.551 91.864C174.796 91.7573 175.089 91.704 175.431 91.704C176.444 91.704 177.18 92.1093 177.639 92.92C177.991 92.472 178.343 92.1573 178.695 91.976C179.057 91.7947 179.505 91.704 180.039 91.704ZM188.269 97.72C188.898 97.72 189.49 97.4427 190.045 96.888L190.925 98.008C190.21 98.7547 189.325 99.128 188.269 99.128C187.245 99.128 186.37 98.7653 185.645 98.04C184.92 97.3147 184.557 96.44 184.557 95.416C184.557 94.392 184.92 93.5173 185.645 92.792C186.37 92.0667 187.245 91.704 188.269 91.704C189.069 91.704 189.752 91.9333 190.317 92.392C190.882 92.84 191.266 93.4533 191.469 94.232L186.717 96.984C186.866 97.1973 187.085 97.3733 187.373 97.512C187.672 97.6507 187.97 97.72 188.269 97.72ZM188.269 93.112C187.693 93.112 187.186 93.3467 186.749 93.816C186.312 94.2853 186.093 94.8187 186.093 95.416C186.093 95.4373 186.104 95.576 186.125 95.832L189.677 93.784C189.336 93.336 188.866 93.112 188.269 93.112ZM196.559 91.704C197.476 91.704 198.18 92.008 198.671 92.616C199.161 93.224 199.407 94.0933 199.407 95.224V99H197.871V95.224C197.871 94.5093 197.743 93.9813 197.487 93.64C197.241 93.288 196.836 93.112 196.271 93.112C195.78 93.112 195.369 93.32 195.039 93.736C194.708 94.1413 194.543 94.6587 194.543 95.288V99H193.007V91.832H194.543V92.728C194.692 92.4507 194.948 92.2107 195.311 92.008C195.673 91.8053 196.089 91.704 196.559 91.704ZM203.889 99H202.353V93.24H201.073V91.832H202.353V89.016L203.889 88.504V91.832H205.937V93.24H203.889V99ZM206.963 95.416C206.963 94.392 207.326 93.5173 208.051 92.792C208.777 92.0667 209.651 91.704 210.675 91.704C211.699 91.704 212.574 92.0667 213.299 92.792C214.025 93.5173 214.387 94.392 214.387 95.416C214.387 96.44 214.025 97.3147 213.299 98.04C212.574 98.7653 211.699 99.128 210.675 99.128C209.651 99.128 208.777 98.7653 208.051 98.04C207.326 97.3147 206.963 96.44 206.963 95.416ZM209.155 97.032C209.582 97.4907 210.089 97.72 210.675 97.72C211.273 97.72 211.785 97.4907 212.211 97.032C212.638 96.5947 212.851 96.056 212.851 95.416C212.851 94.7867 212.638 94.2427 212.211 93.784C211.785 93.336 211.273 93.112 210.675 93.112C210.099 93.112 209.593 93.336 209.155 93.784C208.718 94.2533 208.499 94.7973 208.499 95.416C208.499 96.0347 208.718 96.5733 209.155 97.032Z" fill="#523621"/>
</svg>
