<svg width="847" height="99" viewBox="0 0 847 99" fill="none" xmlns="http://www.w3.org/2000/svg">
<path d="M101.914 9.44103V38.241H95.5139V24.481L89.1139 31.841L82.7139 24.481V38.241H76.3139V9.44103L89.1139 23.201L101.914 9.44103ZM113.417 38.241H107.017V10.081H113.417V38.241ZM137.74 38.241H130.7L126.78 30.241H124.94V38.241H118.54V10.081H126.14C133.74 10.081 137.1 14.801 137.1 20.001C137.1 23.401 135.54 26.761 132.58 28.641L137.74 38.241ZM124.94 15.841V24.481H126.1C128.86 24.481 130.7 22.601 130.7 20.161C130.7 17.441 128.86 15.841 126.1 15.841H124.94ZM158.867 38.241L157.547 35.041H147.387L146.067 38.241H139.027L152.467 9.44103L165.907 38.241H158.867ZM149.707 29.281H155.227L152.467 22.561L149.707 29.281ZM196.611 15.841H187.011V22.881H194.051V28.641H187.011V32.481H196.611V38.241H180.611V10.081H196.611V15.841ZM201.08 10.081H207.48V32.481H217.08V38.241H201.08V10.081ZM250.352 38.241L249.032 35.041H238.872L237.552 38.241H230.512L243.952 9.44103L257.392 38.241H250.352ZM241.192 29.281H246.712L243.952 22.561L241.192 29.281ZM271.797 10.081H278.837L265.397 38.881L251.957 10.081H258.997L265.397 25.121L271.797 10.081ZM293.242 38.241L291.922 35.041H281.762L280.442 38.241H273.402L286.842 9.44103L300.282 38.241H293.242ZM284.082 29.281H289.602L286.842 22.561L284.082 29.281ZM317.557 10.081H323.957V38.881L309.237 24.481V38.241H302.837V9.44103L317.557 23.841V10.081ZM342.935 33.121C345.175 33.121 347.135 32.281 348.615 31.041L351.815 35.921C349.415 37.841 345.815 38.881 342.895 38.881C334.415 38.881 327.495 32.281 327.495 24.161C327.495 16.041 334.415 9.44103 342.895 9.44103C345.815 9.44103 349.415 10.481 351.815 12.401L348.615 17.281C347.135 16.041 345.175 15.201 342.935 15.201C337.975 15.201 333.895 19.161 333.895 24.161C333.895 29.161 337.975 33.121 342.935 33.121ZM370.712 15.841H361.112V22.881H368.152V28.641H361.112V32.481H370.712V38.241H354.712V10.081H370.712V15.841ZM394.33 10.081C404.21 10.081 409.09 16.721 409.09 24.161C409.09 31.601 403.97 38.241 394.33 38.241H387.33V10.081H394.33ZM394.77 32.481C399.81 32.481 402.69 28.401 402.69 24.161C402.69 19.921 399.81 15.841 394.77 15.841H393.73V32.481H394.77ZM428.603 15.841H419.003V22.881H426.043V28.641H419.003V32.481H428.603V38.241H412.603V10.081H428.603V15.841ZM445.22 10.081H451.62V32.481H461.22V38.241H445.22V10.081ZM483.633 38.241L482.313 35.041H472.153L470.833 38.241H463.793L477.233 9.44103L490.673 38.241H483.633ZM474.473 29.281H479.993L477.233 22.561L474.473 29.281ZM502.508 19.721C507.308 21.561 511.788 23.121 511.788 29.521C511.788 34.481 507.868 38.881 501.868 38.881C496.268 38.881 492.628 34.881 491.948 33.761L495.508 29.281C497.508 31.881 499.628 33.121 501.868 33.121C504.148 33.121 505.388 31.401 505.388 29.921C505.388 28.001 504.388 27.041 502.188 26.201C496.428 24.001 493.548 21.841 493.548 17.201C493.548 12.481 497.508 9.44103 502.588 9.44103C503.468 9.44103 506.868 9.28103 510.428 12.561L506.988 17.281C506.188 16.441 504.508 15.201 502.508 15.201C500.948 15.201 499.948 16.201 499.948 17.081C499.948 18.161 500.508 18.961 502.508 19.721ZM534.759 10.081C544.639 10.081 549.519 16.721 549.519 24.161C549.519 31.601 544.399 38.241 534.759 38.241H527.759V10.081H534.759ZM535.199 32.481C540.239 32.481 543.119 28.401 543.119 24.161C543.119 19.921 540.239 15.841 535.199 15.841H534.159V32.481H535.199ZM567.105 9.44103C575.425 9.44103 582.145 16.041 582.145 24.161C582.145 32.281 575.425 38.881 567.105 38.881C558.785 38.881 552.065 32.281 552.065 24.161C552.065 16.041 558.785 9.44103 567.105 9.44103ZM567.105 33.121C571.865 33.121 575.745 29.121 575.745 24.161C575.745 19.201 571.865 15.201 567.105 15.201C562.345 15.201 558.465 19.201 558.465 24.161C558.465 29.121 562.345 33.121 567.105 33.121ZM600.409 10.081H606.809V38.881L592.089 24.481V38.241H585.689V9.44103L600.409 23.841V10.081ZM629.531 38.241L628.211 35.041H618.051L616.731 38.241H609.691L623.131 9.44103L636.571 38.241H629.531ZM620.371 29.281H625.891L623.131 22.561L620.371 29.281ZM651.372 33.121C653.612 33.121 655.572 32.281 657.052 31.041L660.252 35.921C657.852 37.841 654.252 38.881 651.332 38.881C642.852 38.881 635.932 32.281 635.932 24.161C635.932 16.041 642.852 9.44103 651.332 9.44103C654.252 9.44103 657.852 10.481 660.252 12.401L657.052 17.281C655.572 16.041 653.612 15.201 651.372 15.201C646.412 15.201 642.332 19.161 642.332 24.161C642.332 29.161 646.412 33.121 651.372 33.121ZM669.55 38.241H663.15V10.081H669.55V38.241ZM688.121 9.44103C696.441 9.44103 703.161 16.041 703.161 24.161C703.161 32.281 696.441 38.881 688.121 38.881C679.801 38.881 673.081 32.281 673.081 24.161C673.081 16.041 679.801 9.44103 688.121 9.44103ZM688.121 33.121C692.881 33.121 696.761 29.121 696.761 24.161C696.761 19.201 692.881 15.201 688.121 15.201C683.361 15.201 679.481 19.201 679.481 24.161C679.481 29.121 683.361 33.121 688.121 33.121ZM721.425 10.081H727.825V38.881L713.105 24.481V38.241H706.705V9.44103L721.425 23.841V10.081ZM748.955 15.841H739.355V22.881H746.395V28.641H739.355V32.481H748.955V38.241H732.955V10.081H748.955V15.841ZM762.703 19.721C767.503 21.561 771.983 23.121 771.983 29.521C771.983 34.481 768.063 38.881 762.063 38.881C756.463 38.881 752.823 34.881 752.143 33.761L755.703 29.281C757.703 31.881 759.823 33.121 762.063 33.121C764.343 33.121 765.583 31.401 765.583 29.921C765.583 28.001 764.583 27.041 762.383 26.201C756.623 24.001 753.743 21.841 753.743 17.201C753.743 12.481 757.703 9.44103 762.783 9.44103C763.663 9.44103 767.063 9.28103 770.623 12.561L767.183 17.281C766.383 16.441 764.703 15.201 762.703 15.201C761.143 15.201 760.143 16.201 760.143 17.081C760.143 18.161 760.703 18.961 762.703 19.721Z" fill="#523621"/>
<path d="M89.6423 58.121V79.721L77.6423 65.441V79.241H74.7623V57.641L86.7623 71.921V58.121H89.6423ZM99.3098 79.481C97.5898 79.481 96.2698 78.911 95.3498 77.771C94.4298 76.631 93.9698 75.001 93.9698 72.881V65.801H96.8498V73.121C96.8498 75.601 97.8498 76.841 99.8498 76.841C100.77 76.841 101.54 76.441 102.16 75.641C102.78 74.841 103.09 73.801 103.09 72.521V65.801H105.97V79.241H103.09V77.561C102.81 78.081 102.33 78.531 101.65 78.911C100.97 79.291 100.19 79.481 99.3098 79.481ZM116.299 76.841C117.479 76.841 118.589 76.321 119.629 75.281L121.279 77.381C119.939 78.781 118.279 79.481 116.299 79.481C114.379 79.481 112.739 78.801 111.379 77.441C110.019 76.081 109.339 74.441 109.339 72.521C109.339 70.601 110.019 68.961 111.379 67.601C112.739 66.241 114.379 65.561 116.299 65.561C117.799 65.561 119.079 65.991 120.139 66.851C121.199 67.691 121.919 68.841 122.299 70.301L113.389 75.461C113.669 75.861 114.079 76.191 114.619 76.451C115.179 76.711 115.739 76.841 116.299 76.841ZM116.299 68.201C115.219 68.201 114.269 68.641 113.449 69.521C112.629 70.401 112.219 71.401 112.219 72.521C112.219 72.561 112.239 72.821 112.279 73.301L118.939 69.461C118.299 68.621 117.419 68.201 116.299 68.201ZM130.481 70.841C133.341 71.501 134.771 72.961 134.771 75.221C134.771 76.481 134.301 77.501 133.361 78.281C132.421 79.081 131.301 79.481 130.001 79.481C127.981 79.481 126.211 78.721 124.691 77.201L126.131 75.101C127.291 76.221 128.521 76.801 129.821 76.841C130.441 76.861 130.941 76.721 131.321 76.421C131.701 76.121 131.891 75.771 131.891 75.371C131.891 74.611 131.271 74.061 130.031 73.721C128.291 73.241 127.081 72.691 126.401 72.071C125.741 71.451 125.411 70.571 125.411 69.431C125.411 68.351 125.821 67.441 126.641 66.701C127.481 65.941 128.591 65.561 129.971 65.561C131.391 65.561 132.681 66.021 133.841 66.941L132.491 69.041C131.751 68.481 130.911 68.201 129.971 68.201C129.451 68.201 129.041 68.311 128.741 68.531C128.441 68.751 128.291 69.021 128.291 69.341C128.291 69.721 128.441 70.021 128.741 70.241C129.061 70.441 129.641 70.641 130.481 70.841ZM142.92 79.241H140.04V68.441H137.64V65.801H140.04V60.521L142.92 59.561V65.801H146.76V68.441H142.92V79.241ZM153.492 65.801V67.931C154.392 66.351 155.992 65.561 158.292 65.561V68.621C157.412 68.441 156.612 68.481 155.892 68.741C154.292 69.321 153.492 70.811 153.492 73.211V79.241H150.612V65.801H153.492ZM160.199 72.521C160.199 70.601 160.879 68.961 162.239 67.601C163.599 66.241 165.239 65.561 167.159 65.561C169.079 65.561 170.719 66.241 172.079 67.601C173.439 68.961 174.119 70.601 174.119 72.521C174.119 74.441 173.439 76.081 172.079 77.441C170.719 78.801 169.079 79.481 167.159 79.481C165.239 79.481 163.599 78.801 162.239 77.441C160.879 76.081 160.199 74.441 160.199 72.521ZM164.309 75.551C165.109 76.411 166.059 76.841 167.159 76.841C168.279 76.841 169.239 76.411 170.039 75.551C170.839 74.731 171.239 73.721 171.239 72.521C171.239 71.341 170.839 70.321 170.039 69.461C169.239 68.621 168.279 68.201 167.159 68.201C166.079 68.201 165.129 68.621 164.309 69.461C163.489 70.341 163.079 71.361 163.079 72.521C163.079 73.681 163.489 74.691 164.309 75.551ZM187.064 72.521C187.064 70.601 187.744 68.961 189.104 67.601C190.464 66.241 192.104 65.561 194.024 65.561C195.944 65.561 197.584 66.241 198.944 67.601C200.304 68.961 200.984 70.601 200.984 72.521C200.984 74.441 200.304 76.081 198.944 77.441C197.584 78.801 195.944 79.481 194.024 79.481C192.104 79.481 190.464 78.801 189.104 77.441C187.744 76.081 187.064 74.441 187.064 72.521ZM191.174 75.551C191.974 76.411 192.924 76.841 194.024 76.841C195.144 76.841 196.104 76.411 196.904 75.551C197.704 74.731 198.104 73.721 198.104 72.521C198.104 71.341 197.704 70.321 196.904 69.461C196.104 68.621 195.144 68.201 194.024 68.201C192.944 68.201 191.994 68.621 191.174 69.461C190.354 70.341 189.944 71.361 189.944 72.521C189.944 73.681 190.354 74.691 191.174 75.551ZM204.342 57.161H207.222V67.481C208.322 66.201 209.762 65.561 211.542 65.561C213.402 65.561 214.992 66.241 216.312 67.601C217.612 68.961 218.262 70.601 218.262 72.521C218.262 74.441 217.612 76.081 216.312 77.441C214.992 78.801 213.402 79.481 211.542 79.481C209.762 79.481 208.322 78.841 207.222 77.561V79.241H204.342V57.161ZM208.422 75.581C209.202 76.421 210.162 76.841 211.302 76.841C212.422 76.841 213.392 76.421 214.212 75.581C214.992 74.741 215.382 73.721 215.382 72.521C215.382 71.321 214.992 70.301 214.212 69.461C213.392 68.621 212.422 68.201 211.302 68.201C210.162 68.201 209.202 68.621 208.422 69.461C207.622 70.281 207.222 71.301 207.222 72.521C207.222 73.741 207.622 74.761 208.422 75.581ZM225.462 61.241C225.462 61.841 225.252 62.351 224.832 62.771C224.412 63.191 223.902 63.401 223.302 63.401C222.702 63.401 222.192 63.191 221.772 62.771C221.352 62.351 221.142 61.841 221.142 61.241C221.142 60.641 221.352 60.131 221.772 59.711C222.192 59.291 222.702 59.081 223.302 59.081C223.902 59.081 224.412 59.291 224.832 59.711C225.252 60.131 225.462 60.641 225.462 61.241ZM224.742 85.961L221.862 86.921V65.801H224.742V85.961ZM235.069 76.841C236.249 76.841 237.359 76.321 238.399 75.281L240.049 77.381C238.709 78.781 237.049 79.481 235.069 79.481C233.149 79.481 231.509 78.801 230.149 77.441C228.789 76.081 228.109 74.441 228.109 72.521C228.109 70.601 228.789 68.961 230.149 67.601C231.509 66.241 233.149 65.561 235.069 65.561C236.569 65.561 237.849 65.991 238.909 66.851C239.969 67.691 240.689 68.841 241.069 70.301L232.159 75.461C232.439 75.861 232.849 76.191 233.389 76.451C233.949 76.711 234.509 76.841 235.069 76.841ZM235.069 68.201C233.989 68.201 233.039 68.641 232.219 69.521C231.399 70.401 230.989 71.401 230.989 72.521C230.989 72.561 231.009 72.821 231.049 73.301L237.709 69.461C237.069 68.621 236.189 68.201 235.069 68.201ZM248.272 79.241H245.392V68.441H242.992V65.801H245.392V60.521L248.272 59.561V65.801H252.112V68.441H248.272V79.241ZM259.563 61.241C259.563 61.841 259.353 62.351 258.933 62.771C258.513 63.191 258.003 63.401 257.403 63.401C256.803 63.401 256.293 63.191 255.873 62.771C255.453 62.351 255.243 61.841 255.243 61.241C255.243 60.641 255.453 60.131 255.873 59.711C256.293 59.291 256.803 59.081 257.403 59.081C258.003 59.081 258.513 59.291 258.933 59.711C259.353 60.131 259.563 60.641 259.563 61.241ZM258.843 79.241H255.963V65.801H258.843V79.241ZM274.445 65.801L267.965 79.721L261.485 65.801H264.605L267.965 73.241L271.325 65.801H274.445ZM275.892 72.521C275.892 70.601 276.572 68.961 277.932 67.601C279.292 66.241 280.932 65.561 282.852 65.561C284.772 65.561 286.412 66.241 287.772 67.601C289.132 68.961 289.812 70.601 289.812 72.521C289.812 74.441 289.132 76.081 287.772 77.441C286.412 78.801 284.772 79.481 282.852 79.481C280.932 79.481 279.292 78.801 277.932 77.441C276.572 76.081 275.892 74.441 275.892 72.521ZM280.002 75.551C280.802 76.411 281.752 76.841 282.852 76.841C283.972 76.841 284.932 76.411 285.732 75.551C286.532 74.731 286.932 73.721 286.932 72.521C286.932 71.341 286.532 70.321 285.732 69.461C284.932 68.621 283.972 68.201 282.852 68.201C281.772 68.201 280.822 68.621 280.002 69.461C279.182 70.341 278.772 71.361 278.772 72.521C278.772 73.681 279.182 74.691 280.002 75.551ZM308.547 70.841C311.407 71.501 312.837 72.961 312.837 75.221C312.837 76.481 312.367 77.501 311.427 78.281C310.487 79.081 309.367 79.481 308.067 79.481C306.047 79.481 304.277 78.721 302.757 77.201L304.197 75.101C305.357 76.221 306.587 76.801 307.887 76.841C308.507 76.861 309.007 76.721 309.387 76.421C309.767 76.121 309.957 75.771 309.957 75.371C309.957 74.611 309.337 74.061 308.097 73.721C306.357 73.241 305.147 72.691 304.467 72.071C303.807 71.451 303.477 70.571 303.477 69.431C303.477 68.351 303.887 67.441 304.707 66.701C305.547 65.941 306.657 65.561 308.037 65.561C309.457 65.561 310.747 66.021 311.907 66.941L310.557 69.041C309.817 68.481 308.977 68.201 308.037 68.201C307.517 68.201 307.107 68.311 306.807 68.531C306.507 68.751 306.357 69.021 306.357 69.341C306.357 69.721 306.507 70.021 306.807 70.241C307.127 70.441 307.707 70.641 308.547 70.841ZM315.472 72.521C315.472 70.601 316.152 68.961 317.512 67.601C318.872 66.241 320.512 65.561 322.432 65.561C324.352 65.561 325.992 66.241 327.352 67.601C328.712 68.961 329.392 70.601 329.392 72.521C329.392 74.441 328.712 76.081 327.352 77.441C325.992 78.801 324.352 79.481 322.432 79.481C320.512 79.481 318.872 78.801 317.512 77.441C316.152 76.081 315.472 74.441 315.472 72.521ZM319.582 75.551C320.382 76.411 321.332 76.841 322.432 76.841C323.552 76.841 324.512 76.411 325.312 75.551C326.112 74.731 326.512 73.721 326.512 72.521C326.512 71.341 326.112 70.321 325.312 69.461C324.512 68.621 323.552 68.201 322.432 68.201C321.352 68.201 320.402 68.621 319.582 69.461C318.762 70.341 318.352 71.361 318.352 72.521C318.352 73.681 318.762 74.691 319.582 75.551ZM339.411 65.561C341.131 65.561 342.451 66.131 343.371 67.271C344.291 68.411 344.751 70.041 344.751 72.161V79.241H341.871V72.161C341.871 70.821 341.631 69.831 341.151 69.191C340.691 68.531 339.931 68.201 338.871 68.201C337.951 68.201 337.181 68.591 336.561 69.371C335.941 70.131 335.631 71.101 335.631 72.281V79.241H332.751V65.801H335.631V67.481C335.911 66.961 336.391 66.511 337.071 66.131C337.751 65.751 338.531 65.561 339.411 65.561ZM358.187 63.161V60.281L364.427 57.641V79.241H361.547V61.751L358.187 63.161ZM374.482 60.761L373.612 66.461C374.652 65.881 375.762 65.591 376.942 65.591C378.142 65.571 379.232 65.801 380.212 66.281C381.192 66.761 382.002 67.531 382.642 68.591C383.302 69.651 383.632 70.901 383.632 72.341C383.632 74.281 382.982 75.961 381.682 77.381C380.402 78.781 378.732 79.481 376.672 79.481C375.592 79.481 374.592 79.281 373.672 78.881C372.772 78.461 372.052 77.931 371.512 77.291C370.972 76.651 370.542 75.981 370.222 75.281C369.922 74.581 369.752 73.901 369.712 73.241L372.382 72.431C372.562 73.791 373.032 74.871 373.792 75.671C374.572 76.451 375.532 76.841 376.672 76.841C377.832 76.841 378.802 76.431 379.582 75.611C380.362 74.771 380.752 73.691 380.752 72.371C380.792 71.431 380.562 70.611 380.062 69.911C379.562 69.211 378.932 68.721 378.172 68.441C377.412 68.161 376.552 68.121 375.592 68.321C374.652 68.501 373.782 68.931 372.982 69.611L370.492 68.681L372.112 58.121H381.262V60.761H374.482ZM390.016 61.001C391.736 58.921 393.926 57.881 396.586 57.881C399.246 57.881 401.436 58.921 403.156 61.001C404.856 63.061 405.706 65.621 405.706 68.681C405.706 71.741 404.856 74.301 403.156 76.361C401.436 78.441 399.246 79.481 396.586 79.481C393.886 79.481 391.696 78.441 390.016 76.361C388.316 74.301 387.466 71.741 387.466 68.681C387.466 65.621 388.316 63.061 390.016 61.001ZM392.176 74.441C393.416 76.041 394.886 76.841 396.586 76.841C398.286 76.841 399.756 76.041 400.996 74.441C402.216 72.861 402.826 70.941 402.826 68.681C402.826 66.401 402.216 64.471 400.996 62.891C399.776 61.311 398.306 60.521 396.586 60.521C394.866 60.521 393.396 61.311 392.176 62.891C390.956 64.471 390.346 66.401 390.346 68.681C390.346 70.941 390.956 72.861 392.176 74.441ZM411.716 79.481C411.116 79.481 410.606 79.271 410.186 78.851C409.766 78.431 409.556 77.921 409.556 77.321C409.556 76.701 409.766 76.191 410.186 75.791C410.606 75.371 411.116 75.161 411.716 75.161C412.336 75.161 412.846 75.371 413.246 75.791C413.666 76.191 413.876 76.701 413.876 77.321C413.876 77.921 413.666 78.431 413.246 78.851C412.846 79.271 412.336 79.481 411.716 79.481ZM420.28 61.001C422 58.921 424.19 57.881 426.85 57.881C429.51 57.881 431.7 58.921 433.42 61.001C435.12 63.061 435.97 65.621 435.97 68.681C435.97 71.741 435.12 74.301 433.42 76.361C431.7 78.441 429.51 79.481 426.85 79.481C424.15 79.481 421.96 78.441 420.28 76.361C418.58 74.301 417.73 71.741 417.73 68.681C417.73 65.621 418.58 63.061 420.28 61.001ZM422.44 74.441C423.68 76.041 425.15 76.841 426.85 76.841C428.55 76.841 430.02 76.041 431.26 74.441C432.48 72.861 433.09 70.941 433.09 68.681C433.09 66.401 432.48 64.471 431.26 62.891C430.04 61.311 428.57 60.521 426.85 60.521C425.13 60.521 423.66 61.311 422.44 62.891C421.22 64.471 420.61 66.401 420.61 68.681C420.61 70.941 421.22 72.861 422.44 74.441ZM442.369 61.001C444.089 58.921 446.279 57.881 448.939 57.881C451.599 57.881 453.789 58.921 455.509 61.001C457.209 63.061 458.059 65.621 458.059 68.681C458.059 71.741 457.209 74.301 455.509 76.361C453.789 78.441 451.599 79.481 448.939 79.481C446.239 79.481 444.049 78.441 442.369 76.361C440.669 74.301 439.819 71.741 439.819 68.681C439.819 65.621 440.669 63.061 442.369 61.001ZM444.529 74.441C445.769 76.041 447.239 76.841 448.939 76.841C450.639 76.841 452.109 76.041 453.349 74.441C454.569 72.861 455.179 70.941 455.179 68.681C455.179 66.401 454.569 64.471 453.349 62.891C452.129 61.311 450.659 60.521 448.939 60.521C447.219 60.521 445.749 61.311 444.529 62.891C443.309 64.471 442.699 66.401 442.699 68.681C442.699 70.941 443.309 72.861 444.529 74.441ZM464.459 61.001C466.179 58.921 468.369 57.881 471.029 57.881C473.689 57.881 475.879 58.921 477.599 61.001C479.299 63.061 480.149 65.621 480.149 68.681C480.149 71.741 479.299 74.301 477.599 76.361C475.879 78.441 473.689 79.481 471.029 79.481C468.329 79.481 466.139 78.441 464.459 76.361C462.759 74.301 461.909 71.741 461.909 68.681C461.909 65.621 462.759 63.061 464.459 61.001ZM466.619 74.441C467.859 76.041 469.329 76.841 471.029 76.841C472.729 76.841 474.199 76.041 475.439 74.441C476.659 72.861 477.269 70.941 477.269 68.681C477.269 66.401 476.659 64.471 475.439 62.891C474.219 61.311 472.749 60.521 471.029 60.521C469.309 60.521 467.839 61.311 466.619 62.891C465.399 64.471 464.789 66.401 464.789 68.681C464.789 70.941 465.399 72.861 466.619 74.441ZM497.437 65.801V67.931C498.337 66.351 499.937 65.561 502.237 65.561V68.621C501.357 68.441 500.557 68.481 499.837 68.741C498.237 69.321 497.437 70.811 497.437 73.211V79.241H494.557V65.801H497.437ZM516.144 72.941V79.241H513.264V77.501C512.144 78.821 510.754 79.481 509.094 79.481C507.654 79.481 506.474 79.051 505.554 78.191C504.614 77.351 504.144 76.271 504.144 74.951C504.144 73.691 504.604 72.661 505.524 71.861C506.464 71.061 507.594 70.631 508.914 70.571C510.254 70.511 511.674 70.781 513.174 71.381C513.054 69.261 512.044 68.201 510.144 68.201C509.004 68.201 507.964 68.491 507.024 69.071L505.824 67.001C507.084 66.041 508.564 65.561 510.264 65.561C514.184 65.561 516.144 68.021 516.144 72.941ZM513.264 73.751C512.584 73.351 511.744 73.121 510.744 73.061C509.744 73.001 508.864 73.151 508.104 73.511C507.364 73.851 507.004 74.361 507.024 75.041C507.024 75.561 507.234 75.991 507.654 76.331C508.094 76.671 508.664 76.841 509.364 76.841C510.284 76.841 511.134 76.541 511.914 75.941C512.694 75.341 513.144 74.611 513.264 73.751ZM526.456 76.841C527.716 76.841 528.716 76.441 529.456 75.641L531.016 77.801C529.716 78.921 528.196 79.481 526.456 79.481C524.536 79.481 522.896 78.801 521.536 77.441C520.176 76.081 519.496 74.441 519.496 72.521C519.496 70.601 520.176 68.961 521.536 67.601C522.896 66.241 524.536 65.561 526.456 65.561C528.196 65.561 529.716 66.121 531.016 67.241L529.456 69.401C528.716 68.601 527.716 68.201 526.456 68.201C525.376 68.201 524.426 68.621 523.606 69.461C522.786 70.341 522.376 71.361 522.376 72.521C522.376 73.681 522.786 74.691 523.606 75.551C524.406 76.411 525.356 76.841 526.456 76.841ZM538.235 61.241C538.235 61.841 538.025 62.351 537.605 62.771C537.185 63.191 536.675 63.401 536.075 63.401C535.475 63.401 534.965 63.191 534.545 62.771C534.125 62.351 533.915 61.841 533.915 61.241C533.915 60.641 534.125 60.131 534.545 59.711C534.965 59.291 535.475 59.081 536.075 59.081C536.675 59.081 537.185 59.291 537.605 59.711C538.025 60.131 538.235 60.641 538.235 61.241ZM537.515 79.241H534.635V65.801H537.515V79.241ZM540.882 72.521C540.882 70.601 541.562 68.961 542.922 67.601C544.282 66.241 545.922 65.561 547.842 65.561C549.762 65.561 551.402 66.241 552.762 67.601C554.122 68.961 554.802 70.601 554.802 72.521C554.802 74.441 554.122 76.081 552.762 77.441C551.402 78.801 549.762 79.481 547.842 79.481C545.922 79.481 544.282 78.801 542.922 77.441C541.562 76.081 540.882 74.441 540.882 72.521ZM544.992 75.551C545.792 76.411 546.742 76.841 547.842 76.841C548.962 76.841 549.922 76.411 550.722 75.551C551.522 74.731 551.922 73.721 551.922 72.521C551.922 71.341 551.522 70.321 550.722 69.461C549.922 68.621 548.962 68.201 547.842 68.201C546.762 68.201 545.812 68.621 544.992 69.461C544.172 70.341 543.762 71.361 543.762 72.521C543.762 73.681 544.172 74.691 544.992 75.551ZM564.821 65.561C566.541 65.561 567.861 66.131 568.781 67.271C569.701 68.411 570.161 70.041 570.161 72.161V79.241H567.281V72.161C567.281 70.821 567.041 69.831 566.561 69.191C566.101 68.531 565.341 68.201 564.281 68.201C563.361 68.201 562.591 68.591 561.971 69.371C561.351 70.131 561.041 71.101 561.041 72.281V79.241H558.161V65.801H561.041V67.481C561.321 66.961 561.801 66.511 562.481 66.131C563.161 65.751 563.941 65.561 564.821 65.561ZM580.479 76.841C581.659 76.841 582.769 76.321 583.809 75.281L585.459 77.381C584.119 78.781 582.459 79.481 580.479 79.481C578.559 79.481 576.919 78.801 575.559 77.441C574.199 76.081 573.519 74.441 573.519 72.521C573.519 70.601 574.199 68.961 575.559 67.601C576.919 66.241 578.559 65.561 580.479 65.561C581.979 65.561 583.259 65.991 584.319 66.851C585.379 67.691 586.099 68.841 586.479 70.301L577.569 75.461C577.849 75.861 578.259 76.191 578.799 76.451C579.359 76.711 579.919 76.841 580.479 76.841ZM580.479 68.201C579.399 68.201 578.449 68.641 577.629 69.521C576.809 70.401 576.399 71.401 576.399 72.521C576.399 72.561 576.419 72.821 576.459 73.301L583.119 69.461C582.479 68.621 581.599 68.201 580.479 68.201ZM594.661 70.841C597.521 71.501 598.951 72.961 598.951 75.221C598.951 76.481 598.481 77.501 597.541 78.281C596.601 79.081 595.481 79.481 594.181 79.481C592.161 79.481 590.391 78.721 588.871 77.201L590.311 75.101C591.471 76.221 592.701 76.801 594.001 76.841C594.621 76.861 595.121 76.721 595.501 76.421C595.881 76.121 596.071 75.771 596.071 75.371C596.071 74.611 595.451 74.061 594.211 73.721C592.471 73.241 591.261 72.691 590.581 72.071C589.921 71.451 589.591 70.571 589.591 69.431C589.591 68.351 590.001 67.441 590.821 66.701C591.661 65.941 592.771 65.561 594.151 65.561C595.571 65.561 596.861 66.021 598.021 66.941L596.671 69.041C595.931 68.481 595.091 68.201 594.151 68.201C593.631 68.201 593.221 68.311 592.921 68.531C592.621 68.751 592.471 69.021 592.471 69.341C592.471 69.721 592.621 70.021 592.921 70.241C593.241 70.441 593.821 70.641 594.661 70.841ZM622.938 67.481V57.161H625.818V79.241H622.938V77.561C621.838 78.841 620.398 79.481 618.618 79.481C616.758 79.481 615.178 78.801 613.878 77.441C612.558 76.081 611.898 74.441 611.898 72.521C611.898 70.601 612.558 68.961 613.878 67.601C615.178 66.241 616.758 65.561 618.618 65.561C620.398 65.561 621.838 66.201 622.938 67.481ZM615.978 75.581C616.758 76.421 617.718 76.841 618.858 76.841C619.978 76.841 620.948 76.421 621.768 75.581C622.548 74.741 622.938 73.721 622.938 72.521C622.938 71.321 622.548 70.301 621.768 69.461C620.948 68.621 619.978 68.201 618.858 68.201C617.718 68.201 616.758 68.621 615.978 69.461C615.178 70.281 614.778 71.301 614.778 72.521C614.778 73.741 615.178 74.761 615.978 75.581ZM636.143 76.841C637.323 76.841 638.433 76.321 639.473 75.281L641.123 77.381C639.783 78.781 638.123 79.481 636.143 79.481C634.223 79.481 632.583 78.801 631.223 77.441C629.863 76.081 629.183 74.441 629.183 72.521C629.183 70.601 629.863 68.961 631.223 67.601C632.583 66.241 634.223 65.561 636.143 65.561C637.643 65.561 638.923 65.991 639.983 66.851C641.043 67.691 641.763 68.841 642.143 70.301L633.233 75.461C633.513 75.861 633.923 76.191 634.463 76.451C635.023 76.711 635.583 76.841 636.143 76.841ZM636.143 68.201C635.063 68.201 634.113 68.641 633.293 69.521C632.473 70.401 632.063 71.401 632.063 72.521C632.063 72.561 632.083 72.821 632.123 73.301L638.783 69.461C638.143 68.621 637.263 68.201 636.143 68.201ZM666.613 72.941V79.241H663.733V77.501C662.613 78.821 661.223 79.481 659.563 79.481C658.123 79.481 656.943 79.051 656.023 78.191C655.083 77.351 654.613 76.271 654.613 74.951C654.613 73.691 655.073 72.661 655.993 71.861C656.933 71.061 658.063 70.631 659.383 70.571C660.723 70.511 662.143 70.781 663.643 71.381C663.523 69.261 662.513 68.201 660.613 68.201C659.473 68.201 658.433 68.491 657.493 69.071L656.293 67.001C657.553 66.041 659.033 65.561 660.733 65.561C664.653 65.561 666.613 68.021 666.613 72.941ZM663.733 73.751C663.053 73.351 662.213 73.121 661.213 73.061C660.213 73.001 659.333 73.151 658.573 73.511C657.833 73.851 657.473 74.361 657.493 75.041C657.493 75.561 657.703 75.991 658.123 76.331C658.563 76.671 659.133 76.841 659.833 76.841C660.753 76.841 661.603 76.541 662.383 75.941C663.163 75.341 663.613 74.611 663.733 73.751ZM670.69 79.241V57.161H673.57V79.241H670.69ZM681.731 61.241C681.731 61.841 681.521 62.351 681.101 62.771C680.681 63.191 680.171 63.401 679.571 63.401C678.971 63.401 678.461 63.191 678.041 62.771C677.621 62.351 677.411 61.841 677.411 61.241C677.411 60.641 677.621 60.131 678.041 59.711C678.461 59.291 678.971 59.081 679.571 59.081C680.171 59.081 680.681 59.291 681.101 59.711C681.521 60.131 681.731 60.641 681.731 61.241ZM681.011 79.241H678.131V65.801H681.011V79.241ZM700.633 65.561C702.253 65.561 703.503 66.141 704.383 67.301C705.283 68.441 705.733 70.061 705.733 72.161V79.241H702.853V72.161C702.853 69.521 701.933 68.201 700.093 68.201C699.213 68.201 698.493 68.581 697.933 69.341C697.373 70.081 697.093 71.061 697.093 72.281V79.241H694.213V72.161C694.213 69.521 693.293 68.201 691.453 68.201C690.573 68.201 689.853 68.581 689.293 69.341C688.733 70.081 688.453 71.061 688.453 72.281V79.241H685.573V65.801H688.453V67.481C688.773 67.041 689.053 66.711 689.293 66.491C689.533 66.271 689.883 66.061 690.343 65.861C690.803 65.661 691.353 65.561 691.993 65.561C693.893 65.561 695.273 66.321 696.133 67.841C696.793 67.001 697.453 66.411 698.113 66.071C698.793 65.731 699.633 65.561 700.633 65.561ZM716.065 76.841C717.245 76.841 718.355 76.321 719.395 75.281L721.045 77.381C719.705 78.781 718.045 79.481 716.065 79.481C714.145 79.481 712.505 78.801 711.145 77.441C709.785 76.081 709.105 74.441 709.105 72.521C709.105 70.601 709.785 68.961 711.145 67.601C712.505 66.241 714.145 65.561 716.065 65.561C717.565 65.561 718.845 65.991 719.905 66.851C720.965 67.691 721.685 68.841 722.065 70.301L713.155 75.461C713.435 75.861 713.845 76.191 714.385 76.451C714.945 76.711 715.505 76.841 716.065 76.841ZM716.065 68.201C714.985 68.201 714.035 68.641 713.215 69.521C712.395 70.401 711.985 71.401 711.985 72.521C711.985 72.561 712.005 72.821 712.045 73.301L718.705 69.461C718.065 68.621 717.185 68.201 716.065 68.201ZM731.608 65.561C733.328 65.561 734.648 66.131 735.568 67.271C736.488 68.411 736.948 70.041 736.948 72.161V79.241H734.068V72.161C734.068 70.821 733.828 69.831 733.348 69.191C732.888 68.531 732.128 68.201 731.068 68.201C730.148 68.201 729.378 68.591 728.758 69.371C728.138 70.131 727.828 71.101 727.828 72.281V79.241H724.948V65.801H727.828V67.481C728.108 66.961 728.588 66.511 729.268 66.131C729.948 65.751 730.728 65.561 731.608 65.561ZM745.352 79.241H742.472V68.441H740.072V65.801H742.472V60.521L745.352 59.561V65.801H749.192V68.441H745.352V79.241ZM751.117 72.521C751.117 70.601 751.797 68.961 753.157 67.601C754.517 66.241 756.157 65.561 758.077 65.561C759.997 65.561 761.637 66.241 762.997 67.601C764.357 68.961 765.037 70.601 765.037 72.521C765.037 74.441 764.357 76.081 762.997 77.441C761.637 78.801 759.997 79.481 758.077 79.481C756.157 79.481 754.517 78.801 753.157 77.441C751.797 76.081 751.117 74.441 751.117 72.521ZM755.227 75.551C756.027 76.411 756.977 76.841 758.077 76.841C759.197 76.841 760.157 76.411 760.957 75.551C761.757 74.731 762.157 73.721 762.157 72.521C762.157 71.341 761.757 70.321 760.957 69.461C760.157 68.621 759.197 68.201 758.077 68.201C756.997 68.201 756.047 68.621 755.227 69.461C754.407 70.341 753.997 71.361 753.997 72.521C753.997 73.681 754.407 74.691 755.227 75.551ZM770.544 79.481C769.944 79.481 769.434 79.271 769.014 78.851C768.594 78.431 768.384 77.921 768.384 77.321C768.384 76.701 768.594 76.191 769.014 75.791C769.434 75.371 769.944 75.161 770.544 75.161C771.164 75.161 771.674 75.371 772.074 75.791C772.494 76.191 772.704 76.701 772.704 77.321C772.704 77.921 772.494 78.431 772.074 78.851C771.674 79.271 771.164 79.481 770.544 79.481Z" fill="#523621"/>
</svg>
