<svg width="217" height="30" viewBox="0 0 217 30" fill="none" xmlns="http://www.w3.org/2000/svg">
<path d="M8.45819 0.735999V12.256L2.05819 4.64V12H0.522188V0.48L6.92219 8.096V0.735999H8.45819ZM13.6142 12.128C12.6969 12.128 11.9929 11.824 11.5022 11.216C11.0115 10.608 10.7662 9.73867 10.7662 8.608V4.832H12.3022V8.736C12.3022 10.0587 12.8355 10.72 13.9022 10.72C14.3929 10.72 14.8035 10.5067 15.1342 10.08C15.4649 9.65333 15.6302 9.09867 15.6302 8.416V4.832H17.1662V12H15.6302V11.104C15.4809 11.3813 15.2249 11.6213 14.8622 11.824C14.4995 12.0267 14.0835 12.128 13.6142 12.128ZM22.6753 10.72C23.3046 10.72 23.8966 10.4427 24.4513 9.888L25.3313 11.008C24.6166 11.7547 23.7313 12.128 22.6753 12.128C21.6513 12.128 20.7766 11.7653 20.0513 11.04C19.326 10.3147 18.9633 9.44 18.9633 8.416C18.9633 7.392 19.326 6.51733 20.0513 5.792C20.7766 5.06667 21.6513 4.704 22.6753 4.704C23.4753 4.704 24.158 4.93333 24.7233 5.392C25.2886 5.84 25.6726 6.45333 25.8753 7.232L21.1233 9.984C21.2726 10.1973 21.4913 10.3733 21.7793 10.512C22.078 10.6507 22.3766 10.72 22.6753 10.72ZM22.6753 6.112C22.0993 6.112 21.5926 6.34667 21.1553 6.816C20.718 7.28533 20.4993 7.81867 20.4993 8.416C20.4993 8.43733 20.51 8.576 20.5313 8.832L24.0833 6.784C23.742 6.336 23.2726 6.112 22.6753 6.112ZM30.2388 7.52C31.7641 7.872 32.5268 8.65067 32.5268 9.856C32.5268 10.528 32.2761 11.072 31.7748 11.488C31.2735 11.9147 30.6761 12.128 29.9828 12.128C28.9055 12.128 27.9615 11.7227 27.1508 10.912L27.9188 9.792C28.5375 10.3893 29.1935 10.6987 29.8868 10.72C30.2175 10.7307 30.4841 10.656 30.6868 10.496C30.8895 10.336 30.9908 10.1493 30.9908 9.936C30.9908 9.53067 30.6601 9.23733 29.9988 9.056C29.0708 8.8 28.4255 8.50667 28.0628 8.176C27.7108 7.84533 27.5348 7.376 27.5348 6.768C27.5348 6.192 27.7535 5.70667 28.1908 5.312C28.6388 4.90667 29.2308 4.704 29.9668 4.704C30.7241 4.704 31.4121 4.94933 32.0308 5.44L31.3108 6.56C30.9161 6.26133 30.4681 6.112 29.9668 6.112C29.6895 6.112 29.4708 6.17067 29.3108 6.288C29.1508 6.40533 29.0708 6.54933 29.0708 6.72C29.0708 6.92267 29.1508 7.08267 29.3108 7.2C29.4815 7.30667 29.7908 7.41333 30.2388 7.52ZM36.8731 12H35.3371V6.24H34.0571V4.832H35.3371V2.016L36.8731 1.504V4.832H38.9211V6.24H36.8731V12ZM42.5113 4.832V5.968C42.9913 5.12533 43.8446 4.704 45.0713 4.704V6.336C44.602 6.24 44.1753 6.26133 43.7913 6.4C42.938 6.70933 42.5113 7.504 42.5113 8.784V12H40.9753V4.832H42.5113ZM46.0883 8.416C46.0883 7.392 46.451 6.51733 47.1763 5.792C47.9016 5.06667 48.7763 4.704 49.8003 4.704C50.8243 4.704 51.699 5.06667 52.4243 5.792C53.1496 6.51733 53.5123 7.392 53.5123 8.416C53.5123 9.44 53.1496 10.3147 52.4243 11.04C51.699 11.7653 50.8243 12.128 49.8003 12.128C48.7763 12.128 47.9016 11.7653 47.1763 11.04C46.451 10.3147 46.0883 9.44 46.0883 8.416ZM48.2803 10.032C48.707 10.4907 49.2136 10.72 49.8003 10.72C50.3976 10.72 50.9096 10.4907 51.3363 10.032C51.763 9.59467 51.9763 9.056 51.9763 8.416C51.9763 7.78667 51.763 7.24267 51.3363 6.784C50.9096 6.336 50.3976 6.112 49.8003 6.112C49.2243 6.112 48.7176 6.336 48.2803 6.784C47.843 7.25333 47.6243 7.79733 47.6243 8.416C47.6243 9.03467 47.843 9.57333 48.2803 10.032ZM60.4164 8.416C60.4164 7.392 60.7791 6.51733 61.5044 5.792C62.2298 5.06667 63.1044 4.704 64.1284 4.704C65.1524 4.704 66.0271 5.06667 66.7524 5.792C67.4778 6.51733 67.8404 7.392 67.8404 8.416C67.8404 9.44 67.4778 10.3147 66.7524 11.04C66.0271 11.7653 65.1524 12.128 64.1284 12.128C63.1044 12.128 62.2298 11.7653 61.5044 11.04C60.7791 10.3147 60.4164 9.44 60.4164 8.416ZM62.6084 10.032C63.0351 10.4907 63.5418 10.72 64.1284 10.72C64.7258 10.72 65.2378 10.4907 65.6644 10.032C66.0911 9.59467 66.3044 9.056 66.3044 8.416C66.3044 7.78667 66.0911 7.24267 65.6644 6.784C65.2378 6.336 64.7258 6.112 64.1284 6.112C63.5524 6.112 63.0458 6.336 62.6084 6.784C62.1711 7.25333 61.9524 7.79733 61.9524 8.416C61.9524 9.03467 62.1711 9.57333 62.6084 10.032ZM69.6316 0.223999H71.1676V5.728C71.7542 5.04533 72.5222 4.704 73.4716 4.704C74.4636 4.704 75.3116 5.06667 76.0156 5.792C76.7089 6.51733 77.0556 7.392 77.0556 8.416C77.0556 9.44 76.7089 10.3147 76.0156 11.04C75.3116 11.7653 74.4636 12.128 73.4716 12.128C72.5222 12.128 71.7542 11.7867 71.1676 11.104V12H69.6316V0.223999ZM71.8076 10.048C72.2236 10.496 72.7356 10.72 73.3436 10.72C73.9409 10.72 74.4582 10.496 74.8956 10.048C75.3116 9.6 75.5196 9.056 75.5196 8.416C75.5196 7.776 75.3116 7.232 74.8956 6.784C74.4582 6.336 73.9409 6.112 73.3436 6.112C72.7356 6.112 72.2236 6.336 71.8076 6.784C71.3809 7.22133 71.1676 7.76533 71.1676 8.416C71.1676 9.06667 71.3809 9.61067 71.8076 10.048ZM80.8953 2.4C80.8953 2.72 80.7833 2.992 80.5593 3.216C80.3353 3.44 80.0633 3.552 79.7433 3.552C79.4233 3.552 79.1513 3.44 78.9273 3.216C78.7033 2.992 78.5913 2.72 78.5913 2.4C78.5913 2.08 78.7033 1.808 78.9273 1.584C79.1513 1.36 79.4233 1.248 79.7433 1.248C80.0633 1.248 80.3353 1.36 80.5593 1.584C80.7833 1.808 80.8953 2.08 80.8953 2.4ZM80.5113 15.584L78.9753 16.096V4.832H80.5113V15.584ZM86.0191 10.72C86.6484 10.72 87.2404 10.4427 87.7951 9.888L88.6751 11.008C87.9604 11.7547 87.0751 12.128 86.0191 12.128C84.9951 12.128 84.1204 11.7653 83.3951 11.04C82.6697 10.3147 82.3071 9.44 82.3071 8.416C82.3071 7.392 82.6697 6.51733 83.3951 5.792C84.1204 5.06667 84.9951 4.704 86.0191 4.704C86.8191 4.704 87.5017 4.93333 88.0671 5.392C88.6324 5.84 89.0164 6.45333 89.2191 7.232L84.4671 9.984C84.6164 10.1973 84.8351 10.3733 85.1231 10.512C85.4217 10.6507 85.7204 10.72 86.0191 10.72ZM86.0191 6.112C85.4431 6.112 84.9364 6.34667 84.4991 6.816C84.0617 7.28533 83.8431 7.81867 83.8431 8.416C83.8431 8.43733 83.8537 8.576 83.8751 8.832L87.4271 6.784C87.0857 6.336 86.6164 6.112 86.0191 6.112ZM93.0606 12H91.5246V6.24H90.2446V4.832H91.5246V2.016L93.0606 1.504V4.832H95.1086V6.24H93.0606V12ZM99.0828 2.4C99.0828 2.72 98.9708 2.992 98.7468 3.216C98.5228 3.44 98.2508 3.552 97.9308 3.552C97.6108 3.552 97.3388 3.44 97.1148 3.216C96.8908 2.992 96.7788 2.72 96.7788 2.4C96.7788 2.08 96.8908 1.808 97.1148 1.584C97.3388 1.36 97.6108 1.248 97.9308 1.248C98.2508 1.248 98.5228 1.36 98.7468 1.584C98.9708 1.808 99.0828 2.08 99.0828 2.4ZM98.6988 12H97.1628V4.832H98.6988V12ZM107.02 4.832L103.564 12.256L100.108 4.832H101.772L103.564 8.8L105.356 4.832H107.02ZM107.791 8.416C107.791 7.392 108.154 6.51733 108.879 5.792C109.605 5.06667 110.479 4.704 111.503 4.704C112.527 4.704 113.402 5.06667 114.127 5.792C114.853 6.51733 115.215 7.392 115.215 8.416C115.215 9.44 114.853 10.3147 114.127 11.04C113.402 11.7653 112.527 12.128 111.503 12.128C110.479 12.128 109.605 11.7653 108.879 11.04C108.154 10.3147 107.791 9.44 107.791 8.416ZM109.983 10.032C110.41 10.4907 110.917 10.72 111.503 10.72C112.101 10.72 112.613 10.4907 113.039 10.032C113.466 9.59467 113.679 9.056 113.679 8.416C113.679 7.78667 113.466 7.24267 113.039 6.784C112.613 6.336 112.101 6.112 111.503 6.112C110.927 6.112 110.421 6.336 109.983 6.784C109.546 7.25333 109.327 7.79733 109.327 8.416C109.327 9.03467 109.546 9.57333 109.983 10.032ZM125.208 7.52C126.733 7.872 127.496 8.65067 127.496 9.856C127.496 10.528 127.245 11.072 126.744 11.488C126.242 11.9147 125.645 12.128 124.952 12.128C123.874 12.128 122.93 11.7227 122.12 10.912L122.888 9.792C123.506 10.3893 124.162 10.6987 124.856 10.72C125.186 10.7307 125.453 10.656 125.656 10.496C125.858 10.336 125.96 10.1493 125.96 9.936C125.96 9.53067 125.629 9.23733 124.968 9.056C124.04 8.8 123.394 8.50667 123.032 8.176C122.68 7.84533 122.504 7.376 122.504 6.768C122.504 6.192 122.722 5.70667 123.16 5.312C123.608 4.90667 124.2 4.704 124.936 4.704C125.693 4.704 126.381 4.94933 127 5.44L126.28 6.56C125.885 6.26133 125.437 6.112 124.936 6.112C124.658 6.112 124.44 6.17067 124.28 6.288C124.12 6.40533 124.04 6.54933 124.04 6.72C124.04 6.92267 124.12 7.08267 124.28 7.2C124.45 7.30667 124.76 7.41333 125.208 7.52ZM128.901 8.416C128.901 7.392 129.263 6.51733 129.989 5.792C130.714 5.06667 131.589 4.704 132.613 4.704C133.637 4.704 134.511 5.06667 135.237 5.792C135.962 6.51733 136.325 7.392 136.325 8.416C136.325 9.44 135.962 10.3147 135.237 11.04C134.511 11.7653 133.637 12.128 132.613 12.128C131.589 12.128 130.714 11.7653 129.989 11.04C129.263 10.3147 128.901 9.44 128.901 8.416ZM131.093 10.032C131.519 10.4907 132.026 10.72 132.613 10.72C133.21 10.72 133.722 10.4907 134.149 10.032C134.575 9.59467 134.789 9.056 134.789 8.416C134.789 7.78667 134.575 7.24267 134.149 6.784C133.722 6.336 133.21 6.112 132.613 6.112C132.037 6.112 131.53 6.336 131.093 6.784C130.655 7.25333 130.437 7.79733 130.437 8.416C130.437 9.03467 130.655 9.57333 131.093 10.032ZM141.668 4.704C142.585 4.704 143.289 5.008 143.78 5.616C144.271 6.224 144.516 7.09333 144.516 8.224V12H142.98V8.224C142.98 7.50933 142.852 6.98133 142.596 6.64C142.351 6.288 141.945 6.112 141.38 6.112C140.889 6.112 140.479 6.32 140.148 6.736C139.817 7.14133 139.652 7.65867 139.652 8.288V12H138.116V4.832H139.652V5.728C139.801 5.45067 140.057 5.21067 140.42 5.008C140.783 4.80533 141.199 4.704 141.668 4.704ZM151.682 3.424V1.888L155.01 0.48V12H153.474V2.672L151.682 3.424ZM160.373 2.144L159.909 5.184C160.463 4.87467 161.055 4.72 161.685 4.72C162.325 4.70933 162.906 4.832 163.429 5.088C163.951 5.344 164.383 5.75467 164.725 6.32C165.077 6.88533 165.253 7.552 165.253 8.32C165.253 9.35467 164.906 10.2507 164.213 11.008C163.53 11.7547 162.639 12.128 161.541 12.128C160.965 12.128 160.431 12.0213 159.941 11.808C159.461 11.584 159.077 11.3013 158.789 10.96C158.501 10.6187 158.271 10.2613 158.101 9.888C157.941 9.51467 157.85 9.152 157.829 8.8L159.253 8.368C159.349 9.09333 159.599 9.66933 160.005 10.096C160.421 10.512 160.933 10.72 161.541 10.72C162.159 10.72 162.677 10.5013 163.093 10.064C163.509 9.616 163.717 9.04 163.717 8.336C163.738 7.83467 163.615 7.39733 163.349 7.024C163.082 6.65067 162.746 6.38933 162.341 6.24C161.935 6.09067 161.477 6.06933 160.965 6.176C160.463 6.272 159.999 6.50133 159.573 6.864L158.245 6.368L159.109 0.735999H163.989V2.144H160.373ZM168.657 2.272C169.575 1.16267 170.743 0.608 172.161 0.608C173.58 0.608 174.748 1.16267 175.665 2.272C176.572 3.37067 177.025 4.736 177.025 6.368C177.025 8 176.572 9.36533 175.665 10.464C174.748 11.5733 173.58 12.128 172.161 12.128C170.721 12.128 169.553 11.5733 168.657 10.464C167.751 9.36533 167.297 8 167.297 6.368C167.297 4.736 167.751 3.37067 168.657 2.272ZM169.809 9.44C170.471 10.2933 171.255 10.72 172.161 10.72C173.068 10.72 173.852 10.2933 174.513 9.44C175.164 8.59733 175.489 7.57333 175.489 6.368C175.489 5.152 175.164 4.12267 174.513 3.28C173.863 2.43733 173.079 2.016 172.161 2.016C171.244 2.016 170.46 2.43733 169.809 3.28C169.159 4.12267 168.833 5.152 168.833 6.368C168.833 7.57333 169.159 8.59733 169.809 9.44ZM180.231 12.128C179.911 12.128 179.639 12.016 179.415 11.792C179.191 11.568 179.079 11.296 179.079 10.976C179.079 10.6453 179.191 10.3733 179.415 10.16C179.639 9.936 179.911 9.824 180.231 9.824C180.561 9.824 180.833 9.936 181.047 10.16C181.271 10.3733 181.383 10.6453 181.383 10.976C181.383 11.296 181.271 11.568 181.047 11.792C180.833 12.016 180.561 12.128 180.231 12.128ZM184.798 2.272C185.715 1.16267 186.883 0.608 188.302 0.608C189.721 0.608 190.889 1.16267 191.806 2.272C192.713 3.37067 193.166 4.736 193.166 6.368C193.166 8 192.713 9.36533 191.806 10.464C190.889 11.5733 189.721 12.128 188.302 12.128C186.862 12.128 185.694 11.5733 184.798 10.464C183.891 9.36533 183.438 8 183.438 6.368C183.438 4.736 183.891 3.37067 184.798 2.272ZM185.95 9.44C186.611 10.2933 187.395 10.72 188.302 10.72C189.209 10.72 189.993 10.2933 190.654 9.44C191.305 8.59733 191.63 7.57333 191.63 6.368C191.63 5.152 191.305 4.12267 190.654 3.28C190.003 2.43733 189.219 2.016 188.302 2.016C187.385 2.016 186.601 2.43733 185.95 3.28C185.299 4.12267 184.974 5.152 184.974 6.368C184.974 7.57333 185.299 8.59733 185.95 9.44ZM196.579 2.272C197.497 1.16267 198.665 0.608 200.083 0.608C201.502 0.608 202.67 1.16267 203.587 2.272C204.494 3.37067 204.947 4.736 204.947 6.368C204.947 8 204.494 9.36533 203.587 10.464C202.67 11.5733 201.502 12.128 200.083 12.128C198.643 12.128 197.475 11.5733 196.579 10.464C195.673 9.36533 195.219 8 195.219 6.368C195.219 4.736 195.673 3.37067 196.579 2.272ZM197.731 9.44C198.393 10.2933 199.177 10.72 200.083 10.72C200.99 10.72 201.774 10.2933 202.435 9.44C203.086 8.59733 203.411 7.57333 203.411 6.368C203.411 5.152 203.086 4.12267 202.435 3.28C201.785 2.43733 201.001 2.016 200.083 2.016C199.166 2.016 198.382 2.43733 197.731 3.28C197.081 4.12267 196.755 5.152 196.755 6.368C196.755 7.57333 197.081 8.59733 197.731 9.44ZM208.361 2.272C209.278 1.16267 210.446 0.608 211.865 0.608C213.283 0.608 214.451 1.16267 215.369 2.272C216.275 3.37067 216.729 4.736 216.729 6.368C216.729 8 216.275 9.36533 215.369 10.464C214.451 11.5733 213.283 12.128 211.865 12.128C210.425 12.128 209.257 11.5733 208.361 10.464C207.454 9.36533 207.001 8 207.001 6.368C207.001 4.736 207.454 3.37067 208.361 2.272ZM209.513 9.44C210.174 10.2933 210.958 10.72 211.865 10.72C212.771 10.72 213.555 10.2933 214.217 9.44C214.867 8.59733 215.193 7.57333 215.193 6.368C215.193 5.152 214.867 4.12267 214.217 3.28C213.566 2.43733 212.782 2.016 211.865 2.016C210.947 2.016 210.163 2.43733 209.513 3.28C208.862 4.12267 208.537 5.152 208.537 6.368C208.537 7.57333 208.862 8.59733 209.513 9.44ZM38.1676 21.832V22.968C38.6476 22.1253 39.5009 21.704 40.7276 21.704V23.336C40.2582 23.24 39.8316 23.2613 39.4476 23.4C38.5942 23.7093 38.1676 24.504 38.1676 25.784V29H36.6316V21.832H38.1676ZM48.1446 25.64V29H46.6086V28.072C46.0112 28.776 45.2699 29.128 44.3846 29.128C43.6166 29.128 42.9872 28.8987 42.4966 28.44C41.9952 27.992 41.7446 27.416 41.7446 26.712C41.7446 26.04 41.9899 25.4907 42.4806 25.064C42.9819 24.6373 43.5846 24.408 44.2886 24.376C45.0032 24.344 45.7606 24.488 46.5606 24.808C46.4966 23.6773 45.9579 23.112 44.9446 23.112C44.3366 23.112 43.7819 23.2667 43.2806 23.576L42.6406 22.472C43.3126 21.96 44.1019 21.704 45.0086 21.704C47.0992 21.704 48.1446 23.016 48.1446 25.64ZM46.6086 26.072C46.2459 25.8587 45.7979 25.736 45.2646 25.704C44.7312 25.672 44.2619 25.752 43.8566 25.944C43.4619 26.1253 43.2699 26.3973 43.2806 26.76C43.2806 27.0373 43.3926 27.2667 43.6166 27.448C43.8512 27.6293 44.1552 27.72 44.5286 27.72C45.0192 27.72 45.4726 27.56 45.8886 27.24C46.3046 26.92 46.5446 26.5307 46.6086 26.072ZM53.6441 27.72C54.3161 27.72 54.8494 27.5067 55.2441 27.08L56.0761 28.232C55.3827 28.8293 54.5721 29.128 53.6441 29.128C52.6201 29.128 51.7454 28.7653 51.0201 28.04C50.2947 27.3147 49.9321 26.44 49.9321 25.416C49.9321 24.392 50.2947 23.5173 51.0201 22.792C51.7454 22.0667 52.6201 21.704 53.6441 21.704C54.5721 21.704 55.3827 22.0027 56.0761 22.6L55.2441 23.752C54.8494 23.3253 54.3161 23.112 53.6441 23.112C53.0681 23.112 52.5614 23.336 52.1241 23.784C51.6867 24.2533 51.4681 24.7973 51.4681 25.416C51.4681 26.0347 51.6867 26.5733 52.1241 27.032C52.5507 27.4907 53.0574 27.72 53.6441 27.72ZM59.9266 19.4C59.9266 19.72 59.8146 19.992 59.5906 20.216C59.3666 20.44 59.0946 20.552 58.7746 20.552C58.4546 20.552 58.1826 20.44 57.9586 20.216C57.7346 19.992 57.6226 19.72 57.6226 19.4C57.6226 19.08 57.7346 18.808 57.9586 18.584C58.1826 18.36 58.4546 18.248 58.7746 18.248C59.0946 18.248 59.3666 18.36 59.5906 18.584C59.8146 18.808 59.9266 19.08 59.9266 19.4ZM59.5426 29H58.0066V21.832H59.5426V29ZM61.3383 25.416C61.3383 24.392 61.701 23.5173 62.4263 22.792C63.1516 22.0667 64.0263 21.704 65.0503 21.704C66.0743 21.704 66.949 22.0667 67.6743 22.792C68.3996 23.5173 68.7623 24.392 68.7623 25.416C68.7623 26.44 68.3996 27.3147 67.6743 28.04C66.949 28.7653 66.0743 29.128 65.0503 29.128C64.0263 29.128 63.1516 28.7653 62.4263 28.04C61.701 27.3147 61.3383 26.44 61.3383 25.416ZM63.5303 27.032C63.957 27.4907 64.4636 27.72 65.0503 27.72C65.6476 27.72 66.1596 27.4907 66.5863 27.032C67.013 26.5947 67.2263 26.056 67.2263 25.416C67.2263 24.7867 67.013 24.2427 66.5863 23.784C66.1596 23.336 65.6476 23.112 65.0503 23.112C64.4743 23.112 63.9676 23.336 63.5303 23.784C63.093 24.2533 62.8743 24.7973 62.8743 25.416C62.8743 26.0347 63.093 26.5733 63.5303 27.032ZM74.1054 21.704C75.0228 21.704 75.7268 22.008 76.2174 22.616C76.7081 23.224 76.9534 24.0933 76.9534 25.224V29H75.4174V25.224C75.4174 24.5093 75.2894 23.9813 75.0334 23.64C74.7881 23.288 74.3828 23.112 73.8174 23.112C73.3268 23.112 72.9161 23.32 72.5854 23.736C72.2548 24.1413 72.0894 24.6587 72.0894 25.288V29H70.5534V21.832H72.0894V22.728C72.2388 22.4507 72.4948 22.2107 72.8574 22.008C73.2201 21.8053 73.6361 21.704 74.1054 21.704ZM82.4566 27.72C83.0859 27.72 83.6779 27.4427 84.2326 26.888L85.1126 28.008C84.3979 28.7547 83.5126 29.128 82.4566 29.128C81.4326 29.128 80.5579 28.7653 79.8326 28.04C79.1072 27.3147 78.7446 26.44 78.7446 25.416C78.7446 24.392 79.1072 23.5173 79.8326 22.792C80.5579 22.0667 81.4326 21.704 82.4566 21.704C83.2566 21.704 83.9392 21.9333 84.5046 22.392C85.0699 22.84 85.4539 23.4533 85.6566 24.232L80.9046 26.984C81.0539 27.1973 81.2726 27.3733 81.5606 27.512C81.8592 27.6507 82.1579 27.72 82.4566 27.72ZM82.4566 23.112C81.8806 23.112 81.3739 23.3467 80.9366 23.816C80.4992 24.2853 80.2806 24.8187 80.2806 25.416C80.2806 25.4373 80.2912 25.576 80.3126 25.832L83.8646 23.784C83.5232 23.336 83.0539 23.112 82.4566 23.112ZM90.0201 24.52C91.5454 24.872 92.3081 25.6507 92.3081 26.856C92.3081 27.528 92.0574 28.072 91.5561 28.488C91.0547 28.9147 90.4574 29.128 89.7641 29.128C88.6867 29.128 87.7427 28.7227 86.9321 27.912L87.7001 26.792C88.3187 27.3893 88.9747 27.6987 89.6681 27.72C89.9987 27.7307 90.2654 27.656 90.4681 27.496C90.6707 27.336 90.7721 27.1493 90.7721 26.936C90.7721 26.5307 90.4414 26.2373 89.7801 26.056C88.8521 25.8 88.2067 25.5067 87.8441 25.176C87.4921 24.8453 87.3161 24.376 87.3161 23.768C87.3161 23.192 87.5347 22.7067 87.9721 22.312C88.4201 21.9067 89.0121 21.704 89.7481 21.704C90.5054 21.704 91.1934 21.9493 91.8121 22.44L91.0921 23.56C90.6974 23.2613 90.2494 23.112 89.7481 23.112C89.4707 23.112 89.2521 23.1707 89.0921 23.288C88.9321 23.4053 88.8521 23.5493 88.8521 23.72C88.8521 23.9227 88.9321 24.0827 89.0921 24.2C89.2627 24.3067 89.5721 24.4133 90.0201 24.52ZM105.101 22.728V17.224H106.637V29H105.101V28.104C104.515 28.7867 103.747 29.128 102.797 29.128C101.805 29.128 100.963 28.7653 100.269 28.04C99.5653 27.3147 99.2133 26.44 99.2133 25.416C99.2133 24.392 99.5653 23.5173 100.269 22.792C100.963 22.0667 101.805 21.704 102.797 21.704C103.747 21.704 104.515 22.0453 105.101 22.728ZM101.389 27.048C101.805 27.496 102.317 27.72 102.925 27.72C103.523 27.72 104.04 27.496 104.477 27.048C104.893 26.6 105.101 26.056 105.101 25.416C105.101 24.776 104.893 24.232 104.477 23.784C104.04 23.336 103.523 23.112 102.925 23.112C102.317 23.112 101.805 23.336 101.389 23.784C100.963 24.2213 100.749 24.7653 100.749 25.416C100.749 26.0667 100.963 26.6107 101.389 27.048ZM112.144 27.72C112.773 27.72 113.365 27.4427 113.92 26.888L114.8 28.008C114.085 28.7547 113.2 29.128 112.144 29.128C111.12 29.128 110.245 28.7653 109.52 28.04C108.795 27.3147 108.432 26.44 108.432 25.416C108.432 24.392 108.795 23.5173 109.52 22.792C110.245 22.0667 111.12 21.704 112.144 21.704C112.944 21.704 113.627 21.9333 114.192 22.392C114.757 22.84 115.141 23.4533 115.344 24.232L110.592 26.984C110.741 27.1973 110.96 27.3733 111.248 27.512C111.547 27.6507 111.845 27.72 112.144 27.72ZM112.144 23.112C111.568 23.112 111.061 23.3467 110.624 23.816C110.187 24.2853 109.968 24.8187 109.968 25.416C109.968 25.4373 109.979 25.576 110 25.832L113.552 23.784C113.211 23.336 112.741 23.112 112.144 23.112ZM128.395 25.64V29H126.859V28.072C126.261 28.776 125.52 29.128 124.635 29.128C123.867 29.128 123.237 28.8987 122.747 28.44C122.245 27.992 121.995 27.416 121.995 26.712C121.995 26.04 122.24 25.4907 122.731 25.064C123.232 24.6373 123.835 24.408 124.539 24.376C125.253 24.344 126.011 24.488 126.811 24.808C126.747 23.6773 126.208 23.112 125.195 23.112C124.587 23.112 124.032 23.2667 123.531 23.576L122.891 22.472C123.563 21.96 124.352 21.704 125.259 21.704C127.349 21.704 128.395 23.016 128.395 25.64ZM126.859 26.072C126.496 25.8587 126.048 25.736 125.515 25.704C124.981 25.672 124.512 25.752 124.107 25.944C123.712 26.1253 123.52 26.3973 123.531 26.76C123.531 27.0373 123.643 27.2667 123.867 27.448C124.101 27.6293 124.405 27.72 124.779 27.72C125.269 27.72 125.723 27.56 126.139 27.24C126.555 26.92 126.795 26.5307 126.859 26.072ZM130.569 29V17.224H132.105V29H130.569ZM136.458 19.4C136.458 19.72 136.346 19.992 136.122 20.216C135.898 20.44 135.626 20.552 135.306 20.552C134.986 20.552 134.714 20.44 134.49 20.216C134.266 19.992 134.154 19.72 134.154 19.4C134.154 19.08 134.266 18.808 134.49 18.584C134.714 18.36 134.986 18.248 135.306 18.248C135.626 18.248 135.898 18.36 136.122 18.584C136.346 18.808 136.458 19.08 136.458 19.4ZM136.074 29H134.538V21.832H136.074V29ZM146.539 21.704C147.403 21.704 148.069 22.0133 148.539 22.632C149.019 23.24 149.259 24.104 149.259 25.224V29H147.723V25.224C147.723 23.816 147.232 23.112 146.251 23.112C145.781 23.112 145.397 23.3147 145.099 23.72C144.8 24.1147 144.651 24.6373 144.651 25.288V29H143.115V25.224C143.115 23.816 142.624 23.112 141.643 23.112C141.173 23.112 140.789 23.3147 140.491 23.72C140.192 24.1147 140.043 24.6373 140.043 25.288V29H138.507V21.832H140.043V22.728C140.213 22.4933 140.363 22.3173 140.491 22.2C140.619 22.0827 140.805 21.9707 141.051 21.864C141.296 21.7573 141.589 21.704 141.931 21.704C142.944 21.704 143.68 22.1093 144.139 22.92C144.491 22.472 144.843 22.1573 145.195 21.976C145.557 21.7947 146.005 21.704 146.539 21.704ZM154.769 27.72C155.398 27.72 155.99 27.4427 156.545 26.888L157.425 28.008C156.71 28.7547 155.825 29.128 154.769 29.128C153.745 29.128 152.87 28.7653 152.145 28.04C151.42 27.3147 151.057 26.44 151.057 25.416C151.057 24.392 151.42 23.5173 152.145 22.792C152.87 22.0667 153.745 21.704 154.769 21.704C155.569 21.704 156.252 21.9333 156.817 22.392C157.382 22.84 157.766 23.4533 157.969 24.232L153.217 26.984C153.366 27.1973 153.585 27.3733 153.873 27.512C154.172 27.6507 154.47 27.72 154.769 27.72ZM154.769 23.112C154.193 23.112 153.686 23.3467 153.249 23.816C152.812 24.2853 152.593 24.8187 152.593 25.416C152.593 25.4373 152.604 25.576 152.625 25.832L156.177 23.784C155.836 23.336 155.366 23.112 154.769 23.112ZM163.059 21.704C163.976 21.704 164.68 22.008 165.171 22.616C165.661 23.224 165.907 24.0933 165.907 25.224V29H164.371V25.224C164.371 24.5093 164.243 23.9813 163.987 23.64C163.741 23.288 163.336 23.112 162.771 23.112C162.28 23.112 161.869 23.32 161.539 23.736C161.208 24.1413 161.043 24.6587 161.043 25.288V29H159.507V21.832H161.043V22.728C161.192 22.4507 161.448 22.2107 161.811 22.008C162.173 21.8053 162.589 21.704 163.059 21.704ZM170.389 29H168.853V23.24H167.573V21.832H168.853V19.016L170.389 18.504V21.832H172.437V23.24H170.389V29ZM173.463 25.416C173.463 24.392 173.826 23.5173 174.551 22.792C175.277 22.0667 176.151 21.704 177.175 21.704C178.199 21.704 179.074 22.0667 179.799 22.792C180.525 23.5173 180.887 24.392 180.887 25.416C180.887 26.44 180.525 27.3147 179.799 28.04C179.074 28.7653 178.199 29.128 177.175 29.128C176.151 29.128 175.277 28.7653 174.551 28.04C173.826 27.3147 173.463 26.44 173.463 25.416ZM175.655 27.032C176.082 27.4907 176.589 27.72 177.175 27.72C177.773 27.72 178.285 27.4907 178.711 27.032C179.138 26.5947 179.351 26.056 179.351 25.416C179.351 24.7867 179.138 24.2427 178.711 23.784C178.285 23.336 177.773 23.112 177.175 23.112C176.599 23.112 176.093 23.336 175.655 23.784C175.218 24.2533 174.999 24.7973 174.999 25.416C174.999 26.0347 175.218 26.5733 175.655 27.032Z" fill="#523621"/>
</svg>
