<svg width="2141" height="1031" viewBox="0 0 2141 1031" fill="none" xmlns="http://www.w3.org/2000/svg">
<path d="M156.272 0.296021C156.272 0.296021 164.539 55.7477 300.23 115.77C445.699 180.159 692.08 214.486 1250.57 83.5752C2610.91 -235.425 2007.76 1030.42 2007.76 1030.42C2007.76 1030.42 1834.47 584.266 853.075 836.845C-489.823 1182.35 156.272 0.296021 156.272 0.296021Z" fill="url(#paint0_linear_181_109)"/>
<path d="M157.482 32.9983C157.482 32.9983 172.805 88.7547 301.238 145.831C444.288 209.306 716.476 212.048 1265.69 83.2705C2603.45 -230.347 2007.76 978.724 2007.76 978.724C2007.76 978.724 1840.21 562.126 875.052 810.44C-445.466 1150.16 157.482 32.9983 157.482 32.9983Z" fill="url(#paint1_linear_181_109)"/>
<path d="M162.522 82.0517C162.522 82.0517 189.136 121.559 322.005 175.69C461.224 232.462 734.219 243.532 1260.35 109.879C2541.85 -215.519 1999.69 924.187 1999.69 924.187C1999.69 924.187 1828.01 531.048 904.085 786.167C-360.08 1135.43 162.522 82.0517 162.522 82.0517Z" fill="url(#paint2_linear_181_109)"/>
<path d="M158.389 638.702V277.148C159.599 276.133 160.809 275.117 162.018 274.102C192.362 278.773 217.565 281.719 237.525 283.851C257.587 285.984 272.809 287.304 283.193 288.32C302.347 290.148 319.888 294.109 335.715 300.406C351.542 306.702 365.051 315.233 376.14 326.303C387.33 337.373 395.899 350.678 402.048 366.521C408.097 382.364 411.222 400.442 411.222 420.957C411.222 441.472 408.097 459.347 401.847 474.886C395.496 490.424 386.826 503.221 375.636 513.377C364.446 523.431 350.937 530.845 335.009 535.314C319.081 539.782 301.742 541.204 282.89 539.376C269.079 538.056 255.268 536.532 241.558 534.907V651.194C213.835 647.842 186.112 643.678 158.49 638.803L158.389 638.702ZM241.457 348.24V471.331C251.236 472.143 258.998 472.753 264.845 473.159C270.591 473.565 274.422 473.87 276.136 474.073C285.612 474.987 293.475 474.073 299.826 471.229C306.077 468.386 311.218 464.425 315.049 459.245C318.88 454.066 321.702 447.871 323.517 440.558C325.231 433.246 326.138 425.629 326.138 417.504C326.138 409.379 325.331 402.169 323.517 394.552C321.702 387.036 318.98 380.333 315.351 374.443C311.722 368.552 306.883 363.677 300.935 359.818C294.987 355.959 287.931 353.725 279.866 352.912C271.801 352.1 264.543 351.389 258.292 350.678C252.042 349.967 246.397 349.154 241.558 348.24H241.457Z" fill="white"/>
<path d="M872.229 324.78C901.766 350.982 916.585 391.809 916.585 447.363C916.585 472.245 913.46 495.299 907.009 516.423C900.657 537.548 891.383 556.133 879.286 571.977C867.188 587.82 852.369 600.718 834.627 610.468C816.985 620.218 796.621 626.413 773.636 628.952C750.651 631.491 730.489 629.561 713.049 623.366C695.609 617.069 680.89 607.32 668.692 594.015C656.595 580.711 647.421 564.055 641.272 544.149C635.122 524.244 631.997 502.104 631.997 477.628C631.997 453.152 635.122 429.996 641.272 409.379C647.421 388.763 656.494 370.787 668.289 355.248C680.185 339.811 695.004 327.319 712.646 317.772C730.288 308.226 750.551 302.234 773.535 299.695C814.162 295.226 847.026 303.452 872.128 324.78H872.229ZM774.039 372.513C764.966 373.529 757.607 376.474 752.063 381.349C746.518 386.325 741.982 392.622 738.655 400.442C735.429 408.262 733.11 417.098 731.8 426.949C730.59 436.902 729.985 447.363 729.985 458.636C729.985 476.104 730.489 491.034 731.497 503.627C732.606 516.22 734.622 526.579 737.748 534.806C740.772 543.032 745.208 548.923 750.752 552.477C756.297 556.032 763.656 557.352 772.729 556.337C790.875 554.305 802.871 544.962 808.718 528.306C814.464 511.65 817.388 488.596 817.388 459.144C817.388 429.691 814.565 406.84 808.718 392.013C802.972 377.083 791.379 370.685 773.939 372.615L774.039 372.513Z" fill="white"/>
<path d="M530.582 375.865V330.061C498.524 338.186 466.466 345.6 434.408 352.404V648.553C466.466 648.858 498.524 648.553 530.582 647.436V488.799C530.582 457.214 575.644 438.426 575.644 438.222C628.973 407.754 628.973 324.882 628.973 324.983C571.41 328.944 543.082 357.279 530.582 375.966V375.865Z" fill="white"/>
<path d="M1267.61 405.317V397.192C1267.61 373.935 1265.09 357.381 1260.25 347.428C1255.31 337.475 1246.14 333.413 1232.53 335.241C1218.11 337.17 1208.13 345.701 1202.38 360.834C1196.64 375.966 1193.81 400.036 1193.81 433.246C1193.81 449.902 1194.92 463.612 1197.14 474.479C1199.46 485.346 1202.69 493.979 1207.02 500.276C1211.36 506.572 1216.8 510.838 1223.35 512.971C1229.9 515.205 1237.77 515.713 1246.74 514.494C1256.22 513.275 1266.7 509.721 1278.19 504.135C1289.69 498.447 1301.98 490.221 1315.19 479.354C1318.82 480.979 1322.65 483.518 1326.48 486.971C1330.41 490.424 1334.04 494.385 1337.27 499.057C1340.59 503.627 1343.42 508.502 1345.84 513.885C1348.36 519.166 1350.17 524.244 1351.38 529.119C1337.87 545.368 1320.13 559.18 1298.46 570.758C1276.68 582.336 1254.5 589.547 1231.92 592.695C1188.07 598.586 1154.4 588.633 1131.01 562.735C1107.52 536.837 1095.93 497.026 1095.93 443.504C1095.93 416.184 1099.76 391.81 1107.32 370.38C1114.98 349.053 1124.96 330.874 1137.46 315.843C1149.96 300.913 1164.38 288.929 1180.51 280.094C1196.74 271.258 1213.67 265.672 1231.32 263.235C1249.36 260.797 1265.89 261.102 1280.91 264.149C1295.83 267.196 1308.84 272.578 1319.73 280.297C1330.51 288.015 1338.98 297.867 1344.93 309.749C1350.88 321.733 1353.8 335.342 1353.9 350.678C1353.9 368.146 1348.76 380.943 1338.78 389.271C1328.7 397.598 1316.3 402.676 1301.48 404.606C1289.18 406.231 1277.89 406.434 1267.61 405.317Z" fill="white"/>
<path d="M1561.67 272.375C1541.91 255.719 1517.72 246.985 1491.61 249.524C1424.87 256.024 1370.94 332.6 1370.94 418.621C1370.94 504.643 1424.97 567.711 1491.61 561.313C1517.72 558.774 1541.91 545.978 1561.67 526.275V555.219C1591.41 552.884 1621.25 551.055 1651.09 549.735V221.392C1576.59 231.142 1561.67 272.68 1561.67 272.375ZM1555.72 470.722C1549.17 473.667 1542.32 475.495 1535.06 476.104C1498.87 479.151 1469.43 449.902 1469.43 409.887C1469.43 369.873 1498.87 334.428 1535.06 331.381C1542.22 330.772 1549.17 331.584 1555.72 333.413V470.62V470.722Z" fill="white"/>
<path d="M947.937 437.816C947.836 430.098 953.482 422.988 960.539 421.871C996.125 416.387 1013.97 413.34 1049.55 407.45C1056.51 406.333 1062.36 411.512 1062.36 419.231C1062.56 437.816 1062.56 447.058 1062.66 465.542C1062.66 473.159 1057.12 480.37 1050.06 481.588C1014.47 487.479 996.629 490.526 961.043 496.01C953.986 497.127 948.24 491.744 948.139 484.127C948.139 465.542 947.937 456.3 947.836 437.816H947.937Z" fill="white"/>
<path d="M1993.44 592.898C1953.42 607.117 1906.14 592.289 1879.33 553.696C1871.77 542.829 1866.52 531.15 1863.5 519.166C1861.99 507.791 1861.08 496.315 1860.68 484.737C1859.97 466.761 1860.17 448.785 1860.17 431.316V364.185C1860.17 349.256 1858.16 338.186 1854.32 330.975C1850.49 323.764 1842.83 319.905 1831.54 319.499C1825.09 319.296 1817.63 320.819 1809.46 324.171C1801.2 327.522 1792.73 333.108 1784.06 340.826V564.868C1750.19 564.461 1716.32 564.868 1682.44 565.985V233.173C1683.96 231.65 1685.47 230.025 1686.98 228.4C1699.78 227.993 1712.59 227.79 1725.39 227.587C1751.9 227.181 1769.64 240.485 1778.82 266.891C1809.16 239.977 1839.41 227.282 1869.35 228.907C1899.79 230.532 1922.88 243.126 1938.7 265.977C1954.53 288.828 1962.49 318.077 1962.49 353.725V488.799C1962.49 511.549 1967.23 534.704 1975.8 556.743C1980.64 569.133 1986.59 581.32 1993.65 592.898H1993.44Z" fill="white"/>
<defs>
<linearGradient id="paint0_linear_181_109" x1="2179.48" y1="141.485" x2="-57.1173" y2="803.03" gradientUnits="userSpaceOnUse">
<stop stop-color="#919496"/>
<stop offset="0.21" stop-color="#F4F4F5"/>
<stop offset="0.37" stop-color="#919496"/>
<stop offset="0.52" stop-color="#F4F4F5"/>
<stop offset="0.68" stop-color="#919496"/>
<stop offset="0.84" stop-color="#F4F4F5"/>
<stop offset="0.97" stop-color="#919496"/>
</linearGradient>
<linearGradient id="paint1_linear_181_109" x1="2111.19" y1="812.065" x2="110.213" y2="141.107" gradientUnits="userSpaceOnUse">
<stop stop-color="#919496"/>
<stop offset="0.21" stop-color="#F4F4F5"/>
<stop offset="0.37" stop-color="#919496"/>
<stop offset="0.52" stop-color="#F4F4F5"/>
<stop offset="0.68" stop-color="#919496"/>
<stop offset="0.84" stop-color="#F4F4F5"/>
</linearGradient>
<linearGradient id="paint2_linear_181_109" x1="2192.34" y1="120.949" x2="80.2451" y2="836.724" gradientUnits="userSpaceOnUse">
<stop stop-color="#AF1F24"/>
<stop offset="0.52" stop-color="#EA2128"/>
<stop offset="0.64" stop-color="#E12027"/>
<stop offset="0.82" stop-color="#CB1F25"/>
<stop offset="1" stop-color="#AF1F24"/>
</linearGradient>
</defs>
</svg>
