<svg width="602" height="77" viewBox="0 0 602 77" fill="none" xmlns="http://www.w3.org/2000/svg">
<path d="M0.313625 32.052C0.313625 31.2626 0.590958 30.6013 1.14563 30.068C1.70029 29.5346 2.37229 29.268 3.16163 29.268C3.95096 29.268 4.61229 29.5346 5.14563 30.068C5.67896 30.6013 5.94563 31.2626 5.94563 32.052C5.94563 32.8413 5.67896 33.5133 5.14563 34.068C4.61229 34.6226 3.95096 34.9 3.16163 34.9C2.37229 34.9 1.70029 34.6226 1.14563 34.068C0.590958 33.5133 0.313625 32.8413 0.313625 32.052ZM0.569625 52.308L1.08163 36.948H5.17763L5.68963 52.308H0.569625ZM17.4564 30.324C18.3097 30.6653 18.8644 30.8786 19.1204 30.964C19.291 31.0066 19.7817 31.22 20.5924 31.604C21.2964 31.9453 21.7764 32.212 22.0324 32.404C22.1177 32.468 22.491 32.788 23.1524 33.364C23.7497 33.9186 24.1657 34.5586 24.4004 35.284C24.635 36.0093 24.795 36.9693 24.8804 38.164C24.8804 40.212 24.1444 41.972 22.6724 43.444C21.1577 44.916 19.2484 45.652 16.9444 45.652C14.811 45.652 12.987 45.076 11.4724 43.924C10.2564 43.0066 9.43504 42.2173 9.00838 41.556L11.8564 37.972C13.4137 40.02 15.1097 41.044 16.9444 41.044C17.755 41.044 18.427 40.788 18.9604 40.276C19.4937 39.7426 19.7604 39.1453 19.7604 38.484C19.7604 37.7373 19.5577 37.14 19.1524 36.692C18.7684 36.244 18.1177 35.8493 17.2004 35.508C14.7257 34.5906 12.9657 33.5986 11.9204 32.532C10.8324 31.4653 10.2884 30.0573 10.2884 28.308C10.2884 26.452 10.9817 24.948 12.3684 23.796C13.755 22.6653 15.4724 22.1 17.5204 22.1C19.867 22.1 21.9577 22.932 23.7924 24.596L21.0404 28.372C19.995 27.2626 18.8004 26.708 17.4564 26.708C16.8804 26.708 16.3897 26.8573 15.9844 27.156C15.6004 27.4546 15.4084 27.8066 15.4084 28.212C15.4084 29.108 16.091 29.812 17.4564 30.324ZM36.1306 27.732H33.0586L35.1066 22.612H39.2026L36.1306 27.732ZM33.5706 45.652C31.864 45.652 30.4133 45.0226 29.2186 43.764C28.024 42.5053 27.4266 40.7453 27.4266 38.484V29.78H32.5466V37.972C32.5466 40.02 33.4 41.044 35.1066 41.044C35.8106 41.044 36.408 40.7346 36.8986 40.116C37.4106 39.476 37.6666 38.5906 37.6666 37.46V29.78H42.7866V45.14H37.6666V43.604C36.7706 44.9693 35.4053 45.652 33.5706 45.652ZM64.6741 29.268C66.3808 29.268 67.8101 29.8866 68.9621 31.124C70.1141 32.3613 70.6901 34.132 70.6901 36.436V45.14H65.5701V36.948C65.5701 35.8386 65.3995 35.0493 65.0581 34.58C64.7168 34.1106 64.2048 33.876 63.5221 33.876C62.8395 33.876 62.2848 34.164 61.8581 34.74C61.4315 35.316 61.2181 36.2226 61.2181 37.46V45.14H56.0981V36.948C56.0981 35.8386 55.9275 35.0493 55.5861 34.58C55.2448 34.1106 54.7328 33.876 54.0501 33.876C53.3675 33.876 52.8128 34.164 52.3861 34.74C51.9595 35.316 51.7461 36.2226 51.7461 37.46V45.14H46.6261V29.78H51.7461V31.316C52.3648 30.5906 52.9621 30.068 53.5381 29.748C54.1355 29.428 54.8608 29.268 55.7141 29.268C57.4635 29.268 58.8395 29.9613 59.8421 31.348C61.0581 29.9613 62.6688 29.268 64.6741 29.268ZM88.1064 37.14V45.14H82.9864V43.86C81.9197 45.0546 80.533 45.652 78.8264 45.652C77.0984 45.652 75.7437 45.1293 74.7624 44.084C73.7597 43.0386 73.2584 41.78 73.2584 40.308C73.2584 38.964 73.7597 37.8546 74.7624 36.98C75.765 36.1053 76.981 35.5933 78.4104 35.444C79.8824 35.316 81.3864 35.4546 82.9224 35.86C82.8797 35.1346 82.613 34.5586 82.1224 34.132C81.653 33.7053 81.0024 33.492 80.1704 33.492C78.9117 33.492 77.717 33.8226 76.5864 34.484L75.0504 30.804C76.629 29.78 78.5917 29.268 80.9384 29.268C82.9864 29.268 84.7037 29.908 86.0904 31.188C87.4344 32.468 88.1064 34.452 88.1064 37.14ZM82.9864 39.06C81.8344 38.6546 80.7677 38.5693 79.7864 38.804C78.8477 39.0386 78.3784 39.572 78.3784 40.404C78.3784 40.8946 78.549 41.3 78.8904 41.62C79.253 41.9186 79.6904 42.068 80.2024 42.068C80.885 42.068 81.493 41.8013 82.0264 41.268C82.5597 40.7133 82.8797 39.9773 82.9864 39.06ZM98.0946 45.14H92.9746V34.388H90.4146V29.78H92.9746V25.172L98.0946 23.636V29.78H102.191V34.388H98.0946V45.14ZM112.111 41.172C113.626 41.172 114.906 40.6813 115.951 39.7L118.575 43.124C116.826 44.8093 114.735 45.652 112.303 45.652C109.7 45.652 107.62 44.8733 106.063 43.316C104.506 41.7586 103.727 39.8066 103.727 37.46C103.727 35.1133 104.506 33.1613 106.063 31.604C107.62 30.0466 109.7 29.268 112.303 29.268C112.943 29.268 113.583 29.3533 114.223 29.524C114.884 29.6946 115.578 29.9933 116.303 30.42C117.028 30.8253 117.69 31.4653 118.287 32.34C118.884 33.1933 119.322 34.2173 119.599 35.412L110.511 40.852C110.852 41.0653 111.386 41.172 112.111 41.172ZM112.303 33.748C111.151 33.748 110.212 34.132 109.487 34.9C108.783 35.6466 108.506 36.596 108.655 37.748L113.967 34.58C113.604 34.0253 113.05 33.748 112.303 33.748ZM138.532 38.292L141.604 29.78H147.236L137.508 53.332H131.876L136.004 44.18L129.828 29.78H135.46L138.532 38.292ZM172.825 37.14V45.14H167.705V43.86C166.638 45.0546 165.252 45.652 163.545 45.652C161.817 45.652 160.462 45.1293 159.481 44.084C158.478 43.0386 157.977 41.78 157.977 40.308C157.977 38.964 158.478 37.8546 159.481 36.98C160.484 36.1053 161.7 35.5933 163.129 35.444C164.601 35.316 166.105 35.4546 167.641 35.86C167.598 35.1346 167.332 34.5586 166.841 34.132C166.372 33.7053 165.721 33.492 164.889 33.492C163.63 33.492 162.436 33.8226 161.305 34.484L159.769 30.804C161.348 29.78 163.31 29.268 165.657 29.268C167.705 29.268 169.422 29.908 170.809 31.188C172.153 32.468 172.825 34.452 172.825 37.14ZM167.705 39.06C166.553 38.6546 165.486 38.5693 164.505 38.804C163.566 39.0386 163.097 39.572 163.097 40.404C163.097 40.8946 163.268 41.3 163.609 41.62C163.972 41.9186 164.409 42.068 164.921 42.068C165.604 42.068 166.212 41.8013 166.745 41.268C167.278 40.7133 167.598 39.9773 167.705 39.06ZM182.563 38.292L185.635 29.78H191.267L181.539 53.332H175.907L180.035 44.18L173.859 29.78H179.491L182.563 38.292ZM201.506 27.732H198.434L200.482 22.612H204.578L201.506 27.732ZM198.946 45.652C197.239 45.652 195.788 45.0226 194.594 43.764C193.399 42.5053 192.802 40.7453 192.802 38.484V29.78H197.922V37.972C197.922 40.02 198.775 41.044 200.482 41.044C201.186 41.044 201.783 40.7346 202.274 40.116C202.786 39.476 203.042 38.5906 203.042 37.46V29.78H208.162V45.14H203.042V43.604C202.146 44.9693 200.78 45.652 198.946 45.652ZM223.015 31.316V21.588H228.135V45.14H223.015V43.604C221.863 44.9693 220.338 45.652 218.439 45.652C216.263 45.652 214.439 44.852 212.967 43.252C211.474 41.6946 210.727 39.764 210.727 37.46C210.727 35.156 211.474 33.2146 212.967 31.636C214.439 30.0573 216.263 29.268 218.439 29.268C220.338 29.268 221.863 29.9506 223.015 31.316ZM215.847 37.46C215.847 38.4413 216.199 39.284 216.903 39.988C217.607 40.692 218.45 41.044 219.431 41.044C220.412 41.044 221.255 40.692 221.959 39.988C222.663 39.284 223.015 38.4413 223.015 37.46C223.015 36.4786 222.663 35.636 221.959 34.932C221.255 34.228 220.412 33.876 219.431 33.876C218.45 33.876 217.607 34.228 216.903 34.932C216.199 35.636 215.847 36.4786 215.847 37.46ZM245.794 37.14V45.14H240.674V43.86C239.607 45.0546 238.221 45.652 236.514 45.652C234.786 45.652 233.431 45.1293 232.45 44.084C231.447 43.0386 230.946 41.78 230.946 40.308C230.946 38.964 231.447 37.8546 232.45 36.98C233.453 36.1053 234.669 35.5933 236.098 35.444C237.57 35.316 239.074 35.4546 240.61 35.86C240.567 35.1346 240.301 34.5586 239.81 34.132C239.341 33.7053 238.69 33.492 237.858 33.492C236.599 33.492 235.405 33.8226 234.274 34.484L232.738 30.804C234.317 29.78 236.279 29.268 238.626 29.268C240.674 29.268 242.391 29.908 243.778 31.188C245.122 32.468 245.794 34.452 245.794 37.14ZM240.674 39.06C239.522 38.6546 238.455 38.5693 237.474 38.804C236.535 39.0386 236.066 39.572 236.066 40.404C236.066 40.8946 236.237 41.3 236.578 41.62C236.941 41.9186 237.378 42.068 237.89 42.068C238.573 42.068 239.181 41.8013 239.714 41.268C240.247 40.7133 240.567 39.9773 240.674 39.06ZM258.342 29.268C260.091 29.268 261.553 29.8866 262.726 31.124C263.899 32.3613 264.486 34.132 264.486 36.436V45.14H259.366V36.948C259.366 34.9 258.513 33.876 256.806 33.876C256.102 33.876 255.494 34.196 254.982 34.836C254.491 35.4546 254.246 36.3293 254.246 37.46V45.14H249.126V29.78H254.246V31.316C255.142 29.9506 256.507 29.268 258.342 29.268ZM275.744 29.268C278.154 29.268 280.213 30.0573 281.92 31.636C283.605 33.236 284.448 35.1773 284.448 37.46C284.448 39.764 283.616 41.6946 281.952 43.252C280.245 44.852 278.176 45.652 275.744 45.652C273.226 45.652 271.146 44.8626 269.504 43.284C267.861 41.7053 267.04 39.764 267.04 37.46C267.04 35.1133 267.85 33.1613 269.472 31.604C271.093 30.0466 273.184 29.268 275.744 29.268ZM272.16 37.46C272.16 38.4413 272.512 39.284 273.216 39.988C273.92 40.692 274.762 41.044 275.744 41.044C276.725 41.044 277.568 40.692 278.272 39.988C278.976 39.284 279.328 38.4413 279.328 37.46C279.328 36.4786 278.976 35.636 278.272 34.932C277.568 34.228 276.725 33.876 275.744 33.876C274.762 33.876 273.92 34.228 273.216 34.932C272.512 35.636 272.16 36.4786 272.16 37.46ZM293.996 34.996C298.22 35.7 300.332 37.46 300.332 40.276C300.332 41.876 299.703 43.1773 298.444 44.18C297.207 45.1613 295.468 45.652 293.228 45.652C291.799 45.652 290.476 45.4173 289.26 44.948C288.066 44.4786 287.148 43.924 286.508 43.284L288.556 39.444C289.879 40.5106 291.191 41.108 292.492 41.236C294.306 41.428 295.212 41.1826 295.212 40.5C295.212 40.18 295.063 39.956 294.764 39.828C294.466 39.7 293.954 39.572 293.228 39.444C293.186 39.444 293.122 39.4333 293.036 39.412C292.972 39.3906 292.919 39.38 292.876 39.38C290.466 38.8893 288.898 38.1213 288.172 37.076C287.575 36.2013 287.276 35.2626 287.276 34.26C287.276 32.8946 287.852 31.7106 289.004 30.708C290.114 29.748 291.703 29.268 293.772 29.268C294.498 29.268 295.447 29.428 296.62 29.748C297.623 30.068 298.444 30.4413 299.084 30.868L297.132 34.676C296.279 34.0146 295.276 33.6306 294.124 33.524C292.972 33.4173 292.396 33.6093 292.396 34.1C292.396 34.356 292.503 34.548 292.716 34.676C292.93 34.7826 293.356 34.8893 293.996 34.996ZM326.95 37.14V45.14H321.83V43.86C320.763 45.0546 319.377 45.652 317.67 45.652C315.942 45.652 314.587 45.1293 313.606 44.084C312.603 43.0386 312.102 41.78 312.102 40.308C312.102 38.964 312.603 37.8546 313.606 36.98C314.609 36.1053 315.825 35.5933 317.254 35.444C318.726 35.316 320.23 35.4546 321.766 35.86C321.723 35.1346 321.457 34.5586 320.966 34.132C320.497 33.7053 319.846 33.492 319.014 33.492C317.755 33.492 316.561 33.8226 315.43 34.484L313.894 30.804C315.473 29.78 317.435 29.268 319.782 29.268C321.83 29.268 323.547 29.908 324.934 31.188C326.278 32.468 326.95 34.452 326.95 37.14ZM321.83 39.06C320.678 38.6546 319.611 38.5693 318.63 38.804C317.691 39.0386 317.222 39.572 317.222 40.404C317.222 40.8946 317.393 41.3 317.734 41.62C318.097 41.9186 318.534 42.068 319.046 42.068C319.729 42.068 320.337 41.8013 320.87 41.268C321.403 40.7133 321.723 39.9773 321.83 39.06ZM340.251 45.14V21.588H345.371V45.14H340.251ZM349.22 45.14V21.588H354.34V45.14H349.22ZM365.299 41.172C366.813 41.172 368.093 40.6813 369.139 39.7L371.763 43.124C370.013 44.8093 367.923 45.652 365.491 45.652C362.888 45.652 360.808 44.8733 359.251 43.316C357.693 41.7586 356.915 39.8066 356.915 37.46C356.915 35.1133 357.693 33.1613 359.251 31.604C360.808 30.0466 362.888 29.268 365.491 29.268C366.131 29.268 366.771 29.3533 367.411 29.524C368.072 29.6946 368.765 29.9933 369.491 30.42C370.216 30.8253 370.877 31.4653 371.475 32.34C372.072 33.1933 372.509 34.2173 372.787 35.412L363.699 40.852C364.04 41.0653 364.573 41.172 365.299 41.172ZM365.491 33.748C364.339 33.748 363.4 34.132 362.675 34.9C361.971 35.6466 361.693 36.596 361.843 37.748L367.155 34.58C366.792 34.0253 366.237 33.748 365.491 33.748ZM386.609 31.316V29.78H391.729V43.86C391.729 47.0813 390.918 49.5453 389.297 51.252C387.676 52.98 385.414 53.844 382.513 53.844C379.974 53.844 377.926 53.1613 376.369 51.796L378.417 47.956C379.654 48.8093 380.924 49.236 382.225 49.236C383.569 49.236 384.636 48.7986 385.425 47.924C386.214 47.0493 386.609 45.8973 386.609 44.468V43.604C385.457 44.9693 383.932 45.652 382.033 45.652C379.857 45.652 378.033 44.852 376.561 43.252C375.068 41.6946 374.321 39.764 374.321 37.46C374.321 35.156 375.068 33.2146 376.561 31.636C378.033 30.0573 379.857 29.268 382.033 29.268C383.932 29.268 385.457 29.9506 386.609 31.316ZM379.441 37.46C379.441 38.4413 379.793 39.284 380.497 39.988C381.201 40.692 382.044 41.044 383.025 41.044C384.006 41.044 384.849 40.692 385.553 39.988C386.257 39.284 386.609 38.4413 386.609 37.46C386.609 36.4786 386.257 35.636 385.553 34.932C384.849 34.228 384.006 33.876 383.025 33.876C382.044 33.876 381.201 34.228 380.497 34.932C379.793 35.636 379.441 36.4786 379.441 37.46ZM409.138 37.14V45.14H404.018V43.86C402.951 45.0546 401.564 45.652 399.858 45.652C398.13 45.652 396.775 45.1293 395.794 44.084C394.791 43.0386 394.29 41.78 394.29 40.308C394.29 38.964 394.791 37.8546 395.794 36.98C396.796 36.1053 398.012 35.5933 399.442 35.444C400.914 35.316 402.418 35.4546 403.954 35.86C403.911 35.1346 403.644 34.5586 403.154 34.132C402.684 33.7053 402.034 33.492 401.202 33.492C399.943 33.492 398.748 33.8226 397.618 34.484L396.082 30.804C397.66 29.78 399.623 29.268 401.97 29.268C404.018 29.268 405.735 29.908 407.122 31.188C408.466 32.468 409.138 34.452 409.138 37.14ZM404.018 39.06C402.866 38.6546 401.799 38.5693 400.818 38.804C399.879 39.0386 399.41 39.572 399.41 40.404C399.41 40.8946 399.58 41.3 399.922 41.62C400.284 41.9186 400.722 42.068 401.234 42.068C401.916 42.068 402.524 41.8013 403.058 41.268C403.591 40.7133 403.911 39.9773 404.018 39.06ZM417.59 29.78V32.628C418.123 31.54 418.827 30.74 419.702 30.228C420.577 29.6946 421.75 29.3746 423.222 29.268V34.9C422.326 34.6226 421.387 34.6226 420.406 34.9C419.595 35.1133 418.923 35.636 418.39 36.468C417.857 37.3 417.59 38.3026 417.59 39.476V45.14H412.47V29.78H417.59ZM449.825 37.14V45.14H444.705V43.86C443.638 45.0546 442.252 45.652 440.545 45.652C438.817 45.652 437.462 45.1293 436.481 44.084C435.478 43.0386 434.977 41.78 434.977 40.308C434.977 38.964 435.478 37.8546 436.481 36.98C437.484 36.1053 438.7 35.5933 440.129 35.444C441.601 35.316 443.105 35.4546 444.641 35.86C444.598 35.1346 444.332 34.5586 443.841 34.132C443.372 33.7053 442.721 33.492 441.889 33.492C440.63 33.492 439.436 33.8226 438.305 34.484L436.769 30.804C438.348 29.78 440.31 29.268 442.657 29.268C444.705 29.268 446.422 29.908 447.809 31.188C449.153 32.468 449.825 34.452 449.825 37.14ZM444.705 39.06C443.553 38.6546 442.486 38.5693 441.505 38.804C440.566 39.0386 440.097 39.572 440.097 40.404C440.097 40.8946 440.268 41.3 440.609 41.62C440.972 41.9186 441.409 42.068 441.921 42.068C442.604 42.068 443.212 41.8013 443.745 41.268C444.278 40.7133 444.598 39.9773 444.705 39.06ZM453.157 45.14V21.588H458.277V45.14H453.157ZM479.775 29.268C482.186 29.268 484.244 30.0573 485.951 31.636C487.636 33.236 488.479 35.1773 488.479 37.46C488.479 39.764 487.647 41.6946 485.983 43.252C484.276 44.852 482.207 45.652 479.775 45.652C477.258 45.652 475.178 44.8626 473.535 43.284C471.892 41.7053 471.071 39.764 471.071 37.46C471.071 35.1133 471.882 33.1613 473.503 31.604C475.124 30.0466 477.215 29.268 479.775 29.268ZM476.191 37.46C476.191 38.4413 476.543 39.284 477.247 39.988C477.951 40.692 478.794 41.044 479.775 41.044C480.756 41.044 481.599 40.692 482.303 39.988C483.007 39.284 483.359 38.4413 483.359 37.46C483.359 36.4786 483.007 35.636 482.303 34.932C481.599 34.228 480.756 33.876 479.775 33.876C478.794 33.876 477.951 34.228 477.247 34.932C476.543 35.636 476.191 36.4786 476.191 37.46ZM491.064 21.588H496.184V31.316C497.336 29.9506 498.861 29.268 500.76 29.268C502.914 29.268 504.749 30.0573 506.264 31.636C507.736 33.236 508.472 35.1773 508.472 37.46C508.472 39.764 507.736 41.6946 506.264 43.252C504.749 44.852 502.914 45.652 500.76 45.652C498.861 45.652 497.336 44.9693 496.184 43.604V45.14H491.064V21.588ZM496.184 37.46C496.184 38.4413 496.536 39.284 497.24 39.988C497.944 40.692 498.786 41.044 499.768 41.044C500.749 41.044 501.592 40.692 502.296 39.988C503 39.284 503.352 38.4413 503.352 37.46C503.352 36.4786 503 35.636 502.296 34.932C501.592 34.228 500.749 33.876 499.768 33.876C498.786 33.876 497.944 34.228 497.24 34.932C496.536 35.636 496.184 36.4786 496.184 37.46ZM516.914 24.66C516.914 25.5133 516.616 26.2386 516.018 26.836C515.421 27.4333 514.696 27.732 513.842 27.732C512.989 27.732 512.264 27.4333 511.666 26.836C511.069 26.2386 510.77 25.5133 510.77 24.66C510.77 23.8066 511.069 23.0813 511.666 22.484C512.264 21.8866 512.989 21.588 513.842 21.588C514.696 21.588 515.421 21.8866 516.018 22.484C516.616 23.0813 516.914 23.8066 516.914 24.66ZM516.402 52.308L511.282 53.844V29.78H516.402V52.308ZM527.361 41.172C528.876 41.172 530.156 40.6813 531.201 39.7L533.825 43.124C532.076 44.8093 529.985 45.652 527.553 45.652C524.95 45.652 522.87 44.8733 521.313 43.316C519.756 41.7586 518.977 39.8066 518.977 37.46C518.977 35.1133 519.756 33.1613 521.313 31.604C522.87 30.0466 524.95 29.268 527.553 29.268C528.193 29.268 528.833 29.3533 529.473 29.524C530.134 29.6946 530.828 29.9933 531.553 30.42C532.278 30.8253 532.94 31.4653 533.537 32.34C534.134 33.1933 534.572 34.2173 534.849 35.412L525.761 40.852C526.102 41.0653 526.636 41.172 527.361 41.172ZM527.553 33.748C526.401 33.748 525.462 34.132 524.737 34.9C524.033 35.6466 523.756 36.596 523.905 37.748L529.217 34.58C528.854 34.0253 528.3 33.748 527.553 33.748ZM543.563 45.14H538.443V34.388H535.883V29.78H538.443V25.172L543.563 23.636V29.78H547.659V34.388H543.563V45.14ZM556.352 24.66C556.352 25.5133 556.053 26.2386 555.456 26.836C554.859 27.4333 554.133 27.732 553.28 27.732C552.427 27.732 551.701 27.4333 551.104 26.836C550.507 26.2386 550.208 25.5133 550.208 24.66C550.208 23.8066 550.507 23.0813 551.104 22.484C551.701 21.8866 552.427 21.588 553.28 21.588C554.133 21.588 554.859 21.8866 555.456 22.484C556.053 23.0813 556.352 23.8066 556.352 24.66ZM555.84 45.14H550.72V29.78H555.84V45.14ZM566.345 45.652L557.641 29.78H563.273L566.345 36.244L569.417 29.78H575.049L566.345 45.652ZM584.275 29.268C586.686 29.268 588.744 30.0573 590.451 31.636C592.136 33.236 592.979 35.1773 592.979 37.46C592.979 39.764 592.147 41.6946 590.483 43.252C588.776 44.852 586.707 45.652 584.275 45.652C581.758 45.652 579.678 44.8626 578.035 43.284C576.392 41.7053 575.571 39.764 575.571 37.46C575.571 35.1133 576.382 33.1613 578.003 31.604C579.624 30.0466 581.715 29.268 584.275 29.268ZM580.691 37.46C580.691 38.4413 581.043 39.284 581.747 39.988C582.451 40.692 583.294 41.044 584.275 41.044C585.256 41.044 586.099 40.692 586.803 39.988C587.507 39.284 587.859 38.4413 587.859 37.46C587.859 36.4786 587.507 35.636 586.803 34.932C586.099 34.228 585.256 33.876 584.275 33.876C583.294 33.876 582.451 34.228 581.747 34.932C581.043 35.636 580.691 36.4786 580.691 37.46ZM600.928 37.972H596.832L596.32 22.612H601.44L600.928 37.972ZM601.696 42.804C601.696 43.5933 601.429 44.2653 600.896 44.82C600.362 45.3746 599.701 45.652 598.912 45.652C598.122 45.652 597.45 45.3746 596.896 44.82C596.341 44.2653 596.064 43.5933 596.064 42.804C596.064 42.0146 596.341 41.3533 596.896 40.82C597.45 40.2866 598.122 40.02 598.912 40.02C599.701 40.02 600.362 40.2866 600.896 40.82C601.429 41.3533 601.696 42.0146 601.696 42.804Z" fill="#E91D24"/>
</svg>
