<svg width="576" height="308" viewBox="0 0 576 308" fill="none" xmlns="http://www.w3.org/2000/svg">
<path d="M14.95 11.8C27.3 11.8 33.4 20.1 33.4 29.4C33.4 38.7 27 47 14.95 47H6.2V11.8H14.95ZM15.5 39.8C21.8 39.8 25.4 34.7 25.4 29.4C25.4 24.1 21.8 19 15.5 19H14.2V39.8H15.5ZM57.7918 19H45.7918V27.8H54.5918V35H45.7918V39.8H57.7918V47H37.7918V11.8H57.7918V19ZM74.9777 23.85C80.9777 26.15 86.5777 28.1 86.5777 36.1C86.5777 42.3 81.6777 47.8 74.1777 47.8C67.1777 47.8 62.6277 42.8 61.7777 41.4L66.2277 35.8C68.7277 39.05 71.3777 40.6 74.1777 40.6C77.0277 40.6 78.5777 38.45 78.5777 36.6C78.5777 34.2 77.3277 33 74.5777 31.95C67.3777 29.2 63.7777 26.5 63.7777 20.7C63.7777 14.8 68.7277 11 75.0777 11C76.1777 11 80.4277 10.8 84.8777 14.9L80.5777 20.8C79.5777 19.75 77.4777 18.2 74.9777 18.2C73.0277 18.2 71.7777 19.45 71.7777 20.55C71.7777 21.9 72.4777 22.9 74.9777 23.85ZM109.056 40.6C111.856 40.6 114.306 39.55 116.156 38L120.156 44.1C117.156 46.5 112.656 47.8 109.006 47.8C98.4063 47.8 89.7563 39.55 89.7563 29.4C89.7563 19.25 98.4063 11 109.006 11C112.656 11 117.156 12.3 120.156 14.7L116.156 20.8C114.306 19.25 111.856 18.2 109.056 18.2C102.856 18.2 97.7563 23.15 97.7563 29.4C97.7563 35.65 102.856 40.6 109.056 40.6ZM141.769 11.8H149.769V33.8C149.769 42.9 144.469 47.8 136.969 47.8C129.269 47.8 124.169 42.9 124.169 33.8V11.8H132.169V34.6C132.169 39.05 134.569 40.6 136.969 40.6C139.169 40.6 141.769 39 141.769 34.6V11.8ZM173.301 28.55C177.201 29.8 179.351 33.15 179.351 36.9C179.351 42.7 175.451 47 168.251 47H156.151V11.8H165.351C173.051 11.8 177.751 15.1 177.751 21.4C177.751 24.65 175.651 27.45 173.301 28.55ZM164.151 19V25.4H165.351C168.401 25.4 169.751 24.05 169.751 22C169.751 19.95 168.401 19 165.351 19H164.151ZM166.151 39.8C169.551 39.8 171.351 38.5 171.351 36.2C171.351 34 169.551 32.6 166.151 32.6H164.151V39.8H166.151ZM208.569 47H199.769L194.869 37H192.569V47H184.569V11.8H194.069C203.569 11.8 207.769 17.7 207.769 24.2C207.769 28.45 205.819 32.65 202.119 35L208.569 47ZM192.569 19V29.8H194.019C197.469 29.8 199.769 27.45 199.769 24.4C199.769 21 197.469 19 194.019 19H192.569ZM232.987 19H220.987V27.8H229.787V35H220.987V39.8H232.987V47H212.987V11.8H232.987V19ZM253.759 11.8H261.759V39.8H273.759V47H253.759V11.8ZM301.775 47L300.125 43H287.425L285.775 47H276.975L293.775 11L310.575 47H301.775ZM290.325 35.8H297.225L293.775 27.4L290.325 35.8ZM345.754 11.8H353.754V47H345.754V35H336.954V47H328.954V11.8H336.954V27.8H345.754V11.8ZM377.755 11.8H385.755V33.8C385.755 42.9 380.455 47.8 372.955 47.8C365.255 47.8 360.155 42.9 360.155 33.8V11.8H368.155V34.6C368.155 39.05 370.555 40.6 372.955 40.6C375.155 40.6 377.755 39 377.755 34.6V11.8ZM412.138 19H400.138V27.8H408.938V35H400.138V39.8H412.138V47H392.138V11.8H412.138V19ZM417.723 11.8H425.723V39.8H437.723V47H417.723V11.8ZM442.919 11.8H450.919V39.8H462.919V47H442.919V11.8ZM490.935 47L489.285 43H476.585L474.935 47H466.135L482.935 11L499.735 47H490.935ZM479.485 35.8H486.385L482.935 27.4L479.485 35.8ZM526.864 11.8C539.214 11.8 545.314 20.1 545.314 29.4C545.314 38.7 538.914 47 526.864 47H518.114V11.8H526.864ZM527.414 39.8C533.714 39.8 537.314 34.7 537.314 29.4C537.314 24.1 533.714 19 527.414 19H526.114V39.8H527.414ZM569.706 19H557.706V27.8H566.506V35H557.706V39.8H569.706V47H549.706V11.8H569.706V19Z" fill="#523621"/>
<path d="M79.36 216L74.08 203.2H33.44L28.16 216H0L53.76 100.8L107.52 216H79.36ZM42.72 180.16H64.8L53.76 153.28L42.72 180.16ZM194.54 216H166.38L150.7 184H143.34V216H117.74V103.36H148.14C178.54 103.36 191.98 122.24 191.98 143.04C191.98 156.64 185.74 170.08 173.9 177.6L194.54 216ZM143.34 126.4V160.96H147.98C159.02 160.96 166.38 153.44 166.38 143.68C166.38 132.8 159.02 126.4 147.98 126.4H143.34ZM204.808 103.36H276.488V126.4H253.448V216H227.848V126.4H204.808V103.36ZM345.563 103.36H371.163V216H345.563V177.6H317.403V216H291.803V103.36H317.403V154.56H345.563V103.36ZM447.966 103.36H473.566V173.76C473.566 202.88 456.606 218.56 432.606 218.56C407.966 218.56 391.646 202.88 391.646 173.76V103.36H417.246V176.32C417.246 190.56 424.926 195.52 432.606 195.52C439.646 195.52 447.966 190.4 447.966 176.32V103.36ZM570.79 216H542.63L526.95 184H519.59V216H493.99V103.36H524.39C554.79 103.36 568.23 122.24 568.23 143.04C568.23 156.64 561.99 170.08 550.15 177.6L570.79 216ZM519.59 126.4V160.96H524.23C535.27 160.96 542.63 153.44 542.63 143.68C542.63 132.8 535.27 126.4 524.23 126.4H519.59Z" fill="#523621"/>
<path d="M2.048 269.472H7.168V287.392H14.848V292H2.048V269.472ZM32.7783 292L31.7223 289.44H23.5943L22.5383 292H16.9062L27.6583 268.96L38.4103 292H32.7783ZM25.4503 284.832H29.8663L27.6583 279.456L25.4503 284.832ZM60.925 269.472H66.045V292H60.925V284.32H55.293V292H50.173V269.472H55.293V279.712H60.925V269.472ZM81.4058 269.472H86.5258V283.552C86.5258 289.376 83.1338 292.512 78.3338 292.512C73.4058 292.512 70.1418 289.376 70.1418 283.552V269.472H75.2618V284.064C75.2618 286.912 76.7978 287.904 78.3338 287.904C79.7418 287.904 81.4058 286.88 81.4058 284.064V269.472ZM103.411 274.08H95.7305V279.712H101.363V284.32H95.7305V287.392H103.411V292H90.6105V269.472H103.411V274.08ZM106.986 269.472H112.106V287.392H119.786V292H106.986V269.472ZM123.111 269.472H128.231V287.392H135.911V292H123.111V269.472ZM153.841 292L152.785 289.44H144.657L143.601 292H137.969L148.721 268.96L159.473 292H153.841ZM146.513 284.832H150.929L148.721 279.456L146.513 284.832ZM176.836 269.472C184.74 269.472 188.644 274.784 188.644 280.736C188.644 286.688 184.548 292 176.836 292H171.236V269.472H176.836ZM177.188 287.392C181.22 287.392 183.524 284.128 183.524 280.736C183.524 277.344 181.22 274.08 177.188 274.08H176.356V287.392H177.188ZM204.254 274.08H196.574V279.712H202.206V284.32H196.574V287.392H204.254V292H191.454V269.472H204.254V274.08ZM207.829 269.472H212.949V287.392H220.629V292H207.829V269.472ZM247.247 292L246.191 289.44H238.063L237.007 292H231.375L242.127 268.96L252.879 292H247.247ZM239.919 284.832H244.335L242.127 279.456L239.919 284.832ZM275.403 268.96V292H270.283V280.992L265.163 286.88L260.043 280.992V292H254.923V268.96L265.163 279.968L275.403 268.96ZM290.244 268.96C296.9 268.96 302.276 274.24 302.276 280.736C302.276 287.232 296.9 292.512 290.244 292.512C283.588 292.512 278.212 287.232 278.212 280.736C278.212 274.24 283.588 268.96 290.244 268.96ZM290.244 287.904C294.052 287.904 297.156 284.704 297.156 280.736C297.156 276.768 294.052 273.568 290.244 273.568C286.436 273.568 283.332 276.768 283.332 280.736C283.332 284.704 286.436 287.904 290.244 287.904ZM320.471 292H314.839L311.703 285.6H310.231V292H305.111V269.472H311.191C317.271 269.472 319.958 273.248 319.958 277.408C319.958 280.128 318.711 282.816 316.343 284.32L320.471 292ZM310.231 274.08V280.992H311.159C313.367 280.992 314.839 279.488 314.839 277.536C314.839 275.36 313.367 274.08 311.159 274.08H310.231ZM338.387 292H333.267V269.472H338.387V292ZM354.262 269.472H359.382V292.512L347.606 280.992V292H342.486V268.96L354.262 280.48V269.472ZM374.564 287.904C376.356 287.904 377.924 287.232 379.108 286.24L381.668 290.144C379.748 291.68 376.868 292.512 374.532 292.512C367.748 292.512 362.212 287.232 362.212 280.736C362.212 274.24 367.748 268.96 374.532 268.96C376.868 268.96 379.748 269.792 381.668 271.328L379.108 275.232C377.924 274.24 376.356 273.568 374.564 273.568C370.595 273.568 367.332 276.736 367.332 280.736C367.332 284.736 370.595 287.904 374.564 287.904ZM394.744 268.96C401.4 268.96 406.776 274.24 406.776 280.736C406.776 287.232 401.4 292.512 394.744 292.512C388.088 292.512 382.712 287.232 382.712 280.736C382.712 274.24 388.088 268.96 394.744 268.96ZM394.744 287.904C398.552 287.904 401.656 284.704 401.656 280.736C401.656 276.768 398.552 273.568 394.744 273.568C390.936 273.568 387.832 276.768 387.832 280.736C387.832 284.704 390.936 287.904 394.744 287.904ZM421.387 269.472H426.507V292.512L414.731 280.992V292H409.611V268.96L421.387 280.48V269.472ZM436.211 269.472C444.115 269.472 448.019 274.784 448.019 280.736C448.019 286.688 443.923 292 436.211 292H430.611V269.472H436.211ZM436.562 287.392C440.595 287.392 442.899 284.128 442.899 280.736C442.899 277.344 440.595 274.08 436.562 274.08H435.731V287.392H436.562ZM455.949 292H450.829V269.472H455.949V292ZM471.126 287.904C472.918 287.904 474.486 287.232 475.67 286.24L478.23 290.144C476.31 291.68 473.43 292.512 471.094 292.512C464.31 292.512 458.774 287.232 458.774 280.736C458.774 274.24 464.31 268.96 471.094 268.96C473.43 268.96 476.31 269.792 478.23 271.328L475.67 275.232C474.486 274.24 472.918 273.568 471.126 273.568C467.158 273.568 463.894 276.736 463.894 280.736C463.894 284.736 467.158 287.904 471.126 287.904ZM485.668 292H480.548V269.472H485.668V292ZM500.525 268.96C507.181 268.96 512.557 274.24 512.557 280.736C512.557 287.232 507.181 292.512 500.525 292.512C493.869 292.512 488.493 287.232 488.493 280.736C488.493 274.24 493.869 268.96 500.525 268.96ZM500.525 287.904C504.333 287.904 507.437 284.704 507.437 280.736C507.437 276.768 504.333 273.568 500.525 273.568C496.717 273.568 493.613 276.768 493.613 280.736C493.613 284.704 496.717 287.904 500.525 287.904ZM527.168 269.472H532.288V292.512L520.512 280.992V292H515.392V268.96L527.168 280.48V269.472ZM550.466 292L549.41 289.44H541.282L540.226 292H534.594L545.346 268.96L556.098 292H550.466ZM543.138 284.832H547.554L545.346 279.456L543.138 284.832ZM558.142 269.472H563.262V287.392H570.942V292H558.142V269.472Z" fill="#523621"/>
</svg>
