<svg width="827" height="79" viewBox="0 0 827 79" fill="none" xmlns="http://www.w3.org/2000/svg">
<path d="M41.056 16.448V14.512H49.504V16.448H46.336V30H44.224V16.448H41.056ZM54.8416 30.176C53.5802 30.176 52.6122 29.758 51.9376 28.922C51.2629 28.086 50.9256 26.8907 50.9256 25.336V20.144H53.0376V25.512C53.0376 27.3307 53.7709 28.24 55.2376 28.24C55.9122 28.24 56.4769 27.9467 56.9316 27.36C57.3862 26.7733 57.6136 26.0107 57.6136 25.072V20.144H59.7256V30H57.6136V28.768C57.4082 29.1493 57.0562 29.4793 56.5576 29.758C56.0589 30.0367 55.4869 30.176 54.8416 30.176ZM66.6145 23.84C68.7118 24.324 69.7605 25.3947 69.7605 27.052C69.7605 27.976 69.4158 28.724 68.7265 29.296C68.0372 29.8827 67.2158 30.176 66.2625 30.176C64.7812 30.176 63.4832 29.6187 62.3685 28.504L63.4245 26.964C64.2752 27.7853 65.1772 28.2107 66.1305 28.24C66.5852 28.2547 66.9518 28.152 67.2305 27.932C67.5092 27.712 67.6485 27.4553 67.6485 27.162C67.6485 26.6047 67.1938 26.2013 66.2845 25.952C65.0085 25.6 64.1212 25.1967 63.6225 24.742C63.1385 24.2873 62.8965 23.642 62.8965 22.806C62.8965 22.014 63.1972 21.3467 63.7985 20.804C64.4145 20.2467 65.2285 19.968 66.2405 19.968C67.2818 19.968 68.2278 20.3053 69.0785 20.98L68.0885 22.52C67.5458 22.1093 66.9298 21.904 66.2405 21.904C65.8592 21.904 65.5585 21.9847 65.3385 22.146C65.1185 22.3073 65.0085 22.5053 65.0085 22.74C65.0085 23.0187 65.1185 23.2387 65.3385 23.4C65.5732 23.5467 65.9985 23.6933 66.6145 23.84ZM84.3592 28.24C85.2832 28.24 86.0166 27.9467 86.5592 27.36L87.7032 28.944C86.7499 29.7653 85.6352 30.176 84.3592 30.176C82.9512 30.176 81.7486 29.6773 80.7512 28.68C79.7539 27.6827 79.2552 26.48 79.2552 25.072C79.2552 23.664 79.7539 22.4613 80.7512 21.464C81.7486 20.4667 82.9512 19.968 84.3592 19.968C85.6352 19.968 86.7499 20.3787 87.7032 21.2L86.5592 22.784C86.0166 22.1973 85.2832 21.904 84.3592 21.904C83.5672 21.904 82.8706 22.212 82.2692 22.828C81.6679 23.4733 81.3672 24.2213 81.3672 25.072C81.3672 25.9227 81.6679 26.6633 82.2692 27.294C82.8559 27.9247 83.5526 28.24 84.3592 28.24ZM89.4818 25.072C89.4818 23.664 89.9804 22.4613 90.9778 21.464C91.9751 20.4667 93.1778 19.968 94.5858 19.968C95.9938 19.968 97.1964 20.4667 98.1938 21.464C99.1911 22.4613 99.6898 23.664 99.6898 25.072C99.6898 26.48 99.1911 27.6827 98.1938 28.68C97.1964 29.6773 95.9938 30.176 94.5858 30.176C93.1778 30.176 91.9751 29.6773 90.9778 28.68C89.9804 27.6827 89.4818 26.48 89.4818 25.072ZM92.4958 27.294C93.0824 27.9247 93.7791 28.24 94.5858 28.24C95.4071 28.24 96.1111 27.9247 96.6978 27.294C97.2844 26.6927 97.5778 25.952 97.5778 25.072C97.5778 24.2067 97.2844 23.4587 96.6978 22.828C96.1111 22.212 95.4071 21.904 94.5858 21.904C93.7938 21.904 93.0971 22.212 92.4958 22.828C91.8944 23.4733 91.5938 24.2213 91.5938 25.072C91.5938 25.9227 91.8944 26.6633 92.4958 27.294ZM113.197 19.968C114.385 19.968 115.301 20.3933 115.947 21.244C116.607 22.08 116.937 23.268 116.937 24.808V30H114.825V24.808C114.825 22.872 114.15 21.904 112.801 21.904C112.155 21.904 111.627 22.1827 111.217 22.74C110.806 23.2827 110.601 24.0013 110.601 24.896V30H108.489V24.808C108.489 22.872 107.814 21.904 106.465 21.904C105.819 21.904 105.291 22.1827 104.881 22.74C104.47 23.2827 104.265 24.0013 104.265 24.896V30H102.153V20.144H104.265V21.376C104.499 21.0533 104.705 20.8113 104.881 20.65C105.057 20.4887 105.313 20.3347 105.651 20.188C105.988 20.0413 106.391 19.968 106.861 19.968C108.254 19.968 109.266 20.5253 109.897 21.64C110.381 21.024 110.865 20.5913 111.349 20.342C111.847 20.0927 112.463 19.968 113.197 19.968ZM122.054 28.768V35.28H119.942V20.144H122.054V21.376C122.86 20.4373 123.916 19.968 125.222 19.968C126.586 19.968 127.752 20.4667 128.72 21.464C129.673 22.4613 130.15 23.664 130.15 25.072C130.15 26.48 129.673 27.6827 128.72 28.68C127.752 29.6773 126.586 30.176 125.222 30.176C123.916 30.176 122.86 29.7067 122.054 28.768ZM127.18 22.828C126.578 22.212 125.867 21.904 125.046 21.904C124.21 21.904 123.506 22.212 122.934 22.828C122.347 23.4293 122.054 24.1773 122.054 25.072C122.054 25.9667 122.347 26.7147 122.934 27.316C123.506 27.932 124.21 28.24 125.046 28.24C125.867 28.24 126.578 27.932 127.18 27.316C127.752 26.7 128.038 25.952 128.038 25.072C128.038 24.192 127.752 23.444 127.18 22.828ZM134.901 20.144V21.706C135.561 20.5473 136.735 19.968 138.421 19.968V22.212C137.776 22.08 137.189 22.1093 136.661 22.3C135.488 22.7253 134.901 23.818 134.901 25.578V30H132.789V20.144H134.901ZM148.62 25.38V30H146.508V28.724C145.686 29.692 144.667 30.176 143.45 30.176C142.394 30.176 141.528 29.8607 140.854 29.23C140.164 28.614 139.82 27.822 139.82 26.854C139.82 25.93 140.157 25.1747 140.832 24.588C141.521 24.0013 142.35 23.686 143.318 23.642C144.3 23.598 145.342 23.796 146.442 24.236C146.354 22.6813 145.613 21.904 144.22 21.904C143.384 21.904 142.621 22.1167 141.932 22.542L141.052 21.024C141.976 20.32 143.061 19.968 144.308 19.968C147.182 19.968 148.62 21.772 148.62 25.38ZM146.508 25.974C146.009 25.6807 145.393 25.512 144.66 25.468C143.926 25.424 143.281 25.534 142.724 25.798C142.181 26.0473 141.917 26.4213 141.932 26.92C141.932 27.3013 142.086 27.6167 142.394 27.866C142.716 28.1153 143.134 28.24 143.648 28.24C144.322 28.24 144.946 28.02 145.518 27.58C146.09 27.14 146.42 26.6047 146.508 25.974ZM155.323 23.84C157.421 24.324 158.469 25.3947 158.469 27.052C158.469 27.976 158.125 28.724 157.435 29.296C156.746 29.8827 155.925 30.176 154.971 30.176C153.49 30.176 152.192 29.6187 151.077 28.504L152.133 26.964C152.984 27.7853 153.886 28.2107 154.839 28.24C155.294 28.2547 155.661 28.152 155.939 27.932C156.218 27.712 156.357 27.4553 156.357 27.162C156.357 26.6047 155.903 26.2013 154.993 25.952C153.717 25.6 152.83 25.1967 152.331 24.742C151.847 24.2873 151.605 23.642 151.605 22.806C151.605 22.014 151.906 21.3467 152.507 20.804C153.123 20.2467 153.937 19.968 154.949 19.968C155.991 19.968 156.937 20.3053 157.787 20.98L156.797 22.52C156.255 22.1093 155.639 21.904 154.949 21.904C154.568 21.904 154.267 21.9847 154.047 22.146C153.827 22.3073 153.717 22.5053 153.717 22.74C153.717 23.0187 153.827 23.2387 154.047 23.4C154.282 23.5467 154.707 23.6933 155.323 23.84ZM176.06 21.376V13.808H178.172V30H176.06V28.768C175.254 29.7067 174.198 30.176 172.892 30.176C171.528 30.176 170.37 29.6773 169.416 28.68C168.448 27.6827 167.964 26.48 167.964 25.072C167.964 23.664 168.448 22.4613 169.416 21.464C170.37 20.4667 171.528 19.968 172.892 19.968C174.198 19.968 175.254 20.4373 176.06 21.376ZM170.956 27.316C171.528 27.932 172.232 28.24 173.068 28.24C173.89 28.24 174.601 27.932 175.202 27.316C175.774 26.7 176.06 25.952 176.06 25.072C176.06 24.192 175.774 23.444 175.202 22.828C174.601 22.212 173.89 21.904 173.068 21.904C172.232 21.904 171.528 22.212 170.956 22.828C170.37 23.4293 170.076 24.1773 170.076 25.072C170.076 25.9667 170.37 26.7147 170.956 27.316ZM185.744 28.24C186.609 28.24 187.423 27.8587 188.186 27.096L189.396 28.636C188.413 29.6627 187.196 30.176 185.744 30.176C184.336 30.176 183.133 29.6773 182.136 28.68C181.139 27.6827 180.64 26.48 180.64 25.072C180.64 23.664 181.139 22.4613 182.136 21.464C183.133 20.4667 184.336 19.968 185.744 19.968C186.844 19.968 187.783 20.2833 188.56 20.914C189.337 21.53 189.865 22.3733 190.144 23.444L183.61 27.228C183.815 27.5213 184.116 27.7633 184.512 27.954C184.923 28.1447 185.333 28.24 185.744 28.24ZM185.744 21.904C184.952 21.904 184.255 22.2267 183.654 22.872C183.053 23.5173 182.752 24.2507 182.752 25.072C182.752 25.1013 182.767 25.292 182.796 25.644L187.68 22.828C187.211 22.212 186.565 21.904 185.744 21.904ZM192.258 30V13.808H194.37V30H192.258ZM204.574 18.208V16.096L209.15 14.16V30H207.038V17.174L204.574 18.208ZM216.523 16.448L215.885 20.628C216.648 20.2027 217.462 19.99 218.327 19.99C219.207 19.9753 220.007 20.144 220.725 20.496C221.444 20.848 222.038 21.4127 222.507 22.19C222.991 22.9673 223.233 23.884 223.233 24.94C223.233 26.3627 222.757 27.5947 221.803 28.636C220.865 29.6627 219.64 30.176 218.129 30.176C217.337 30.176 216.604 30.0293 215.929 29.736C215.269 29.428 214.741 29.0393 214.345 28.57C213.949 28.1007 213.634 27.6093 213.399 27.096C213.179 26.5827 213.055 26.084 213.025 25.6L214.983 25.006C215.115 26.0033 215.46 26.7953 216.017 27.382C216.589 27.954 217.293 28.24 218.129 28.24C218.98 28.24 219.691 27.9393 220.263 27.338C220.835 26.722 221.121 25.93 221.121 24.962C221.151 24.2727 220.982 23.6713 220.615 23.158C220.249 22.6447 219.787 22.2853 219.229 22.08C218.672 21.8747 218.041 21.8453 217.337 21.992C216.648 22.124 216.01 22.4393 215.423 22.938L213.597 22.256L214.785 14.512H221.495V16.448H216.523ZM241.179 21.376V13.808H243.291V30H241.179V28.768C240.373 29.7067 239.317 30.176 238.011 30.176C236.647 30.176 235.489 29.6773 234.535 28.68C233.567 27.6827 233.083 26.48 233.083 25.072C233.083 23.664 233.567 22.4613 234.535 21.464C235.489 20.4667 236.647 19.968 238.011 19.968C239.317 19.968 240.373 20.4373 241.179 21.376ZM236.075 27.316C236.647 27.932 237.351 28.24 238.187 28.24C239.009 28.24 239.72 27.932 240.321 27.316C240.893 26.7 241.179 25.952 241.179 25.072C241.179 24.192 240.893 23.444 240.321 22.828C239.72 22.212 239.009 21.904 238.187 21.904C237.351 21.904 236.647 22.212 236.075 22.828C235.489 23.4293 235.195 24.1773 235.195 25.072C235.195 25.9667 235.489 26.7147 236.075 27.316ZM250.863 28.24C251.728 28.24 252.542 27.8587 253.305 27.096L254.515 28.636C253.532 29.6627 252.315 30.176 250.863 30.176C249.455 30.176 248.252 29.6773 247.255 28.68C246.258 27.6827 245.759 26.48 245.759 25.072C245.759 23.664 246.258 22.4613 247.255 21.464C248.252 20.4667 249.455 19.968 250.863 19.968C251.963 19.968 252.902 20.2833 253.679 20.914C254.456 21.53 254.984 22.3733 255.263 23.444L248.729 27.228C248.934 27.5213 249.235 27.7633 249.631 27.954C250.042 28.1447 250.452 28.24 250.863 28.24ZM250.863 21.904C250.071 21.904 249.374 22.2267 248.773 22.872C248.172 23.5173 247.871 24.2507 247.871 25.072C247.871 25.1013 247.886 25.292 247.915 25.644L252.799 22.828C252.33 22.212 251.684 21.904 250.863 21.904ZM276.156 19.968C277.344 19.968 278.26 20.3933 278.906 21.244C279.566 22.08 279.896 23.268 279.896 24.808V30H277.784V24.808C277.784 22.872 277.109 21.904 275.76 21.904C275.114 21.904 274.586 22.1827 274.176 22.74C273.765 23.2827 273.56 24.0013 273.56 24.896V30H271.448V24.808C271.448 22.872 270.773 21.904 269.424 21.904C268.778 21.904 268.25 22.1827 267.84 22.74C267.429 23.2827 267.224 24.0013 267.224 24.896V30H265.112V20.144H267.224V21.376C267.458 21.0533 267.664 20.8113 267.84 20.65C268.016 20.4887 268.272 20.3347 268.61 20.188C268.947 20.0413 269.35 19.968 269.82 19.968C271.213 19.968 272.225 20.5253 272.856 21.64C273.34 21.024 273.824 20.5913 274.308 20.342C274.806 20.0927 275.422 19.968 276.156 19.968ZM291.169 25.38V30H289.057V28.724C288.235 29.692 287.216 30.176 285.999 30.176C284.943 30.176 284.077 29.8607 283.403 29.23C282.713 28.614 282.369 27.822 282.369 26.854C282.369 25.93 282.706 25.1747 283.381 24.588C284.07 24.0013 284.899 23.686 285.867 23.642C286.849 23.598 287.891 23.796 288.991 24.236C288.903 22.6813 288.162 21.904 286.769 21.904C285.933 21.904 285.17 22.1167 284.481 22.542L283.601 21.024C284.525 20.32 285.61 19.968 286.857 19.968C289.731 19.968 291.169 21.772 291.169 25.38ZM289.057 25.974C288.558 25.6807 287.942 25.512 287.209 25.468C286.475 25.424 285.83 25.534 285.273 25.798C284.73 26.0473 284.466 26.4213 284.481 26.92C284.481 27.3013 284.635 27.6167 284.943 27.866C285.265 28.1153 285.683 28.24 286.197 28.24C286.871 28.24 287.495 28.02 288.067 27.58C288.639 27.14 288.969 26.6047 289.057 25.974ZM296.27 20.144V21.706C296.93 20.5473 298.104 19.968 299.79 19.968V22.212C299.145 22.08 298.558 22.1093 298.03 22.3C296.857 22.7253 296.27 23.818 296.27 25.578V30H294.158V20.144H296.27ZM308.933 28.064V30H301.189L305.765 22.08H301.541V20.144H309.285L304.665 28.064H308.933ZM311.394 25.072C311.394 23.664 311.893 22.4613 312.89 21.464C313.887 20.4667 315.09 19.968 316.498 19.968C317.906 19.968 319.109 20.4667 320.106 21.464C321.103 22.4613 321.602 23.664 321.602 25.072C321.602 26.48 321.103 27.6827 320.106 28.68C319.109 29.6773 317.906 30.176 316.498 30.176C315.09 30.176 313.887 29.6773 312.89 28.68C311.893 27.6827 311.394 26.48 311.394 25.072ZM314.408 27.294C314.995 27.9247 315.691 28.24 316.498 28.24C317.319 28.24 318.023 27.9247 318.61 27.294C319.197 26.6927 319.49 25.952 319.49 25.072C319.49 24.2067 319.197 23.4587 318.61 22.828C318.023 22.212 317.319 21.904 316.498 21.904C315.706 21.904 315.009 22.212 314.408 22.828C313.807 23.4733 313.506 24.2213 313.506 25.072C313.506 25.9227 313.807 26.6633 314.408 27.294ZM339.895 25.38V30H337.783V28.724C336.962 29.692 335.942 30.176 334.725 30.176C333.669 30.176 332.804 29.8607 332.129 29.23C331.44 28.614 331.095 27.822 331.095 26.854C331.095 25.93 331.432 25.1747 332.107 24.588C332.796 24.0013 333.625 23.686 334.593 23.642C335.576 23.598 336.617 23.796 337.717 24.236C337.629 22.6813 336.888 21.904 335.495 21.904C334.659 21.904 333.896 22.1167 333.207 22.542L332.327 21.024C333.251 20.32 334.336 19.968 335.583 19.968C338.458 19.968 339.895 21.772 339.895 25.38ZM337.783 25.974C337.284 25.6807 336.668 25.512 335.935 25.468C335.202 25.424 334.556 25.534 333.999 25.798C333.456 26.0473 333.192 26.4213 333.207 26.92C333.207 27.3013 333.361 27.6167 333.669 27.866C333.992 28.1153 334.41 28.24 334.923 28.24C335.598 28.24 336.221 28.02 336.793 27.58C337.365 27.14 337.695 26.6047 337.783 25.974ZM342.885 30V13.808H344.997V30H342.885ZM365.761 14.512L361.273 20.1C362.593 20.1 363.722 20.518 364.661 21.354C365.614 22.1753 366.098 23.356 366.113 24.896C366.113 26.348 365.621 27.5873 364.639 28.614C363.641 29.6553 362.373 30.176 360.833 30.176C359.997 30.176 359.234 30.0293 358.545 29.736C357.87 29.428 357.327 29.0393 356.917 28.57C356.506 28.1007 356.183 27.6093 355.949 27.096C355.714 26.5827 355.582 26.084 355.553 25.6L357.511 25.006C357.643 26.0033 358.009 26.7953 358.611 27.382C359.212 27.954 359.953 28.24 360.833 28.24C361.713 28.24 362.461 27.932 363.077 27.316C363.693 26.7 364.001 25.9007 364.001 24.918C364.001 24.3167 363.847 23.796 363.539 23.356C363.231 22.916 362.849 22.6007 362.395 22.41C361.94 22.2193 361.441 22.1387 360.899 22.168C360.356 22.1827 359.857 22.322 359.403 22.586L358.105 20.848L361.669 16.448H356.257V14.512H365.761ZM368.585 18.208V16.096L373.161 14.16V30H371.049V17.174L368.585 18.208ZM392.172 21.376V13.808H394.284V30H392.172V28.768C391.365 29.7067 390.309 30.176 389.004 30.176C387.64 30.176 386.481 29.6773 385.528 28.68C384.56 27.6827 384.076 26.48 384.076 25.072C384.076 23.664 384.56 22.4613 385.528 21.464C386.481 20.4667 387.64 19.968 389.004 19.968C390.309 19.968 391.365 20.4373 392.172 21.376ZM387.068 27.316C387.64 27.932 388.344 28.24 389.18 28.24C390.001 28.24 390.712 27.932 391.314 27.316C391.886 26.7 392.172 25.952 392.172 25.072C392.172 24.192 391.886 23.444 391.314 22.828C390.712 22.212 390.001 21.904 389.18 21.904C388.344 21.904 387.64 22.212 387.068 22.828C386.481 23.4293 386.188 24.1773 386.188 25.072C386.188 25.9667 386.481 26.7147 387.068 27.316ZM401.855 28.24C402.721 28.24 403.535 27.8587 404.297 27.096L405.507 28.636C404.525 29.6627 403.307 30.176 401.855 30.176C400.447 30.176 399.245 29.6773 398.247 28.68C397.25 27.6827 396.751 26.48 396.751 25.072C396.751 23.664 397.25 22.4613 398.247 21.464C399.245 20.4667 400.447 19.968 401.855 19.968C402.955 19.968 403.894 20.2833 404.671 20.914C405.449 21.53 405.977 22.3733 406.255 23.444L399.721 27.228C399.927 27.5213 400.227 27.7633 400.623 27.954C401.034 28.1447 401.445 28.24 401.855 28.24ZM401.855 21.904C401.063 21.904 400.367 22.2267 399.765 22.872C399.164 23.5173 398.863 24.2507 398.863 25.072C398.863 25.1013 398.878 25.292 398.907 25.644L403.791 22.828C403.322 22.212 402.677 21.904 401.855 21.904ZM427.148 19.968C428.336 19.968 429.252 20.3933 429.898 21.244C430.558 22.08 430.888 23.268 430.888 24.808V30H428.776V24.808C428.776 22.872 428.101 21.904 426.752 21.904C426.106 21.904 425.578 22.1827 425.168 22.74C424.757 23.2827 424.552 24.0013 424.552 24.896V30H422.44V24.808C422.44 22.872 421.765 21.904 420.416 21.904C419.77 21.904 419.242 22.1827 418.832 22.74C418.421 23.2827 418.216 24.0013 418.216 24.896V30H416.104V20.144H418.216V21.376C418.45 21.0533 418.656 20.8113 418.832 20.65C419.008 20.4887 419.264 20.3347 419.602 20.188C419.939 20.0413 420.342 19.968 420.812 19.968C422.205 19.968 423.217 20.5253 423.848 21.64C424.332 21.024 424.816 20.5913 425.3 20.342C425.798 20.0927 426.414 19.968 427.148 19.968ZM442.161 25.38V30H440.049V28.724C439.227 29.692 438.208 30.176 436.991 30.176C435.935 30.176 435.069 29.8607 434.395 29.23C433.705 28.614 433.361 27.822 433.361 26.854C433.361 25.93 433.698 25.1747 434.373 24.588C435.062 24.0013 435.891 23.686 436.859 23.642C437.841 23.598 438.883 23.796 439.983 24.236C439.895 22.6813 439.154 21.904 437.761 21.904C436.925 21.904 436.162 22.1167 435.473 22.542L434.593 21.024C435.517 20.32 436.602 19.968 437.849 19.968C440.723 19.968 442.161 21.772 442.161 25.38ZM440.049 25.974C439.55 25.6807 438.934 25.512 438.201 25.468C437.467 25.424 436.822 25.534 436.265 25.798C435.722 26.0473 435.458 26.4213 435.473 26.92C435.473 27.3013 435.627 27.6167 435.935 27.866C436.257 28.1153 436.675 28.24 437.189 28.24C437.863 28.24 438.487 28.02 439.059 27.58C439.631 27.14 439.961 26.6047 440.049 25.974ZM448.865 26.81L451.483 20.144H453.771L447.633 35.28H445.389L447.787 29.428L443.915 20.144H446.203L448.865 26.81ZM454.845 25.072C454.845 23.664 455.344 22.4613 456.341 21.464C457.338 20.4667 458.541 19.968 459.949 19.968C461.357 19.968 462.56 20.4667 463.557 21.464C464.554 22.4613 465.053 23.664 465.053 25.072C465.053 26.48 464.554 27.6827 463.557 28.68C462.56 29.6773 461.357 30.176 459.949 30.176C458.541 30.176 457.338 29.6773 456.341 28.68C455.344 27.6827 454.845 26.48 454.845 25.072ZM457.859 27.294C458.446 27.9247 459.142 28.24 459.949 28.24C460.77 28.24 461.474 27.9247 462.061 27.294C462.648 26.6927 462.941 25.952 462.941 25.072C462.941 24.2067 462.648 23.4587 462.061 22.828C461.474 22.212 460.77 21.904 459.949 21.904C459.157 21.904 458.46 22.212 457.859 22.828C457.258 23.4733 456.957 24.2213 456.957 25.072C456.957 25.9227 457.258 26.6633 457.859 27.294ZM480.134 19.968C481.396 19.968 482.364 20.386 483.038 21.222C483.713 22.058 484.05 23.2533 484.05 24.808V30H481.938V24.808C481.938 23.8253 481.762 23.0993 481.41 22.63C481.073 22.146 480.516 21.904 479.738 21.904C479.064 21.904 478.499 22.19 478.044 22.762C477.59 23.3193 477.362 24.0307 477.362 24.896V30H475.25V20.144H477.362V21.376C477.568 20.9947 477.92 20.6647 478.418 20.386C478.917 20.1073 479.489 19.968 480.134 19.968ZM486.513 25.072C486.513 23.664 487.012 22.4613 488.009 21.464C489.006 20.4667 490.209 19.968 491.617 19.968C493.025 19.968 494.228 20.4667 495.225 21.464C496.222 22.4613 496.721 23.664 496.721 25.072C496.721 26.48 496.222 27.6827 495.225 28.68C494.228 29.6773 493.025 30.176 491.617 30.176C490.209 30.176 489.006 29.6773 488.009 28.68C487.012 27.6827 486.513 26.48 486.513 25.072ZM489.527 27.294C490.114 27.9247 490.81 28.24 491.617 28.24C492.438 28.24 493.142 27.9247 493.729 27.294C494.316 26.6927 494.609 25.952 494.609 25.072C494.609 24.2067 494.316 23.4587 493.729 22.828C493.142 22.212 492.438 21.904 491.617 21.904C490.825 21.904 490.128 22.212 489.527 22.828C488.926 23.4733 488.625 24.2213 488.625 25.072C488.625 25.9227 488.926 26.6633 489.527 27.294ZM503.07 23.84C505.167 24.324 506.216 25.3947 506.216 27.052C506.216 27.976 505.871 28.724 505.182 29.296C504.492 29.8827 503.671 30.176 502.718 30.176C501.236 30.176 499.938 29.6187 498.824 28.504L499.88 26.964C500.73 27.7853 501.632 28.2107 502.586 28.24C503.04 28.2547 503.407 28.152 503.686 27.932C503.964 27.712 504.104 27.4553 504.104 27.162C504.104 26.6047 503.649 26.2013 502.74 25.952C501.464 25.6 500.576 25.1967 500.078 24.742C499.594 24.2873 499.352 23.642 499.352 22.806C499.352 22.014 499.652 21.3467 500.254 20.804C500.87 20.2467 501.684 19.968 502.696 19.968C503.737 19.968 504.683 20.3053 505.534 20.98L504.544 22.52C504.001 22.1093 503.385 21.904 502.696 21.904C502.314 21.904 502.014 21.9847 501.794 22.146C501.574 22.3073 501.464 22.5053 501.464 22.74C501.464 23.0187 501.574 23.2387 501.794 23.4C502.028 23.5467 502.454 23.6933 503.07 23.84ZM518.526 28.768V35.28H516.414V20.144H518.526V21.376C519.333 20.4373 520.389 19.968 521.694 19.968C523.058 19.968 524.224 20.4667 525.192 21.464C526.146 22.4613 526.622 23.664 526.622 25.072C526.622 26.48 526.146 27.6827 525.192 28.68C524.224 29.6773 523.058 30.176 521.694 30.176C520.389 30.176 519.333 29.7067 518.526 28.768ZM523.652 22.828C523.051 22.212 522.34 21.904 521.518 21.904C520.682 21.904 519.978 22.212 519.406 22.828C518.82 23.4293 518.526 24.1773 518.526 25.072C518.526 25.9667 518.82 26.7147 519.406 27.316C519.978 27.932 520.682 28.24 521.518 28.24C522.34 28.24 523.051 27.932 523.652 27.316C524.224 26.7 524.51 25.952 524.51 25.072C524.51 24.192 524.224 23.444 523.652 22.828ZM533.834 28.24C534.699 28.24 535.513 27.8587 536.276 27.096L537.486 28.636C536.503 29.6627 535.286 30.176 533.834 30.176C532.426 30.176 531.223 29.6773 530.226 28.68C529.228 27.6827 528.73 26.48 528.73 25.072C528.73 23.664 529.228 22.4613 530.226 21.464C531.223 20.4667 532.426 19.968 533.834 19.968C534.934 19.968 535.872 20.2833 536.65 20.914C537.427 21.53 537.955 22.3733 538.234 23.444L531.7 27.228C531.905 27.5213 532.206 27.7633 532.602 27.954C533.012 28.1447 533.423 28.24 533.834 28.24ZM533.834 21.904C533.042 21.904 532.345 22.2267 531.744 22.872C531.142 23.5173 530.842 24.2507 530.842 25.072C530.842 25.1013 530.856 25.292 530.886 25.644L535.77 22.828C535.3 22.212 534.655 21.904 533.834 21.904ZM542.46 20.144V21.706C543.12 20.5473 544.293 19.968 545.98 19.968V22.212C545.335 22.08 544.748 22.1093 544.22 22.3C543.047 22.7253 542.46 23.818 542.46 25.578V30H540.348V20.144H542.46ZM559.835 19.968C561.023 19.968 561.94 20.3933 562.585 21.244C563.245 22.08 563.575 23.268 563.575 24.808V30H561.463V24.808C561.463 22.872 560.789 21.904 559.439 21.904C558.794 21.904 558.266 22.1827 557.855 22.74C557.445 23.2827 557.239 24.0013 557.239 24.896V30H555.127V24.808C555.127 22.872 554.453 21.904 553.103 21.904C552.458 21.904 551.93 22.1827 551.519 22.74C551.109 23.2827 550.903 24.0013 550.903 24.896V30H548.791V20.144H550.903V21.376C551.138 21.0533 551.343 20.8113 551.519 20.65C551.695 20.4887 551.952 20.3347 552.289 20.188C552.627 20.0413 553.03 19.968 553.499 19.968C554.893 19.968 555.905 20.5253 556.535 21.64C557.019 21.024 557.503 20.5913 557.987 20.342C558.486 20.0927 559.102 19.968 559.835 19.968ZM569.22 16.8C569.22 17.24 569.066 17.614 568.758 17.922C568.45 18.23 568.076 18.384 567.636 18.384C567.196 18.384 566.822 18.23 566.514 17.922C566.206 17.614 566.052 17.24 566.052 16.8C566.052 16.36 566.206 15.986 566.514 15.678C566.822 15.37 567.196 15.216 567.636 15.216C568.076 15.216 568.45 15.37 568.758 15.678C569.066 15.986 569.22 16.36 569.22 16.8ZM568.692 30H566.58V20.144H568.692V30ZM575.377 30H573.265V22.08H571.505V20.144H573.265V16.272L575.377 15.568V20.144H578.193V22.08H575.377V30ZM583.658 16.8C583.658 17.24 583.504 17.614 583.196 17.922C582.888 18.23 582.514 18.384 582.074 18.384C581.634 18.384 581.26 18.23 580.952 17.922C580.644 17.614 580.49 17.24 580.49 16.8C580.49 16.36 580.644 15.986 580.952 15.678C581.26 15.37 581.634 15.216 582.074 15.216C582.514 15.216 582.888 15.37 583.196 15.678C583.504 15.986 583.658 16.36 583.658 16.8ZM583.13 30H581.018V20.144H583.13V30ZM588.587 20.144V21.706C589.247 20.5473 590.42 19.968 592.107 19.968V22.212C591.462 22.08 590.875 22.1093 590.347 22.3C589.174 22.7253 588.587 23.818 588.587 25.578V30H586.475V20.144H588.587ZM598.433 18.736H597.025L598.433 15.216H600.545L598.433 18.736ZM602.305 25.38V30H600.193V28.724C599.372 29.692 598.353 30.176 597.135 30.176C596.079 30.176 595.214 29.8607 594.539 29.23C593.85 28.614 593.505 27.822 593.505 26.854C593.505 25.93 593.843 25.1747 594.517 24.588C595.207 24.0013 596.035 23.686 597.003 23.642C597.986 23.598 599.027 23.796 600.127 24.236C600.039 22.6813 599.299 21.904 597.905 21.904C597.069 21.904 596.307 22.1167 595.617 22.542L594.737 21.024C595.661 20.32 596.747 19.968 597.993 19.968C600.868 19.968 602.305 21.772 602.305 25.38ZM600.193 25.974C599.695 25.6807 599.079 25.512 598.345 25.468C597.612 25.424 596.967 25.534 596.409 25.798C595.867 26.0473 595.603 26.4213 595.617 26.92C595.617 27.3013 595.771 27.6167 596.079 27.866C596.402 28.1153 596.82 28.24 597.333 28.24C598.008 28.24 598.631 28.02 599.203 27.58C599.775 27.14 600.105 26.6047 600.193 25.974ZM610.179 19.968C611.44 19.968 612.408 20.386 613.083 21.222C613.758 22.058 614.095 23.2533 614.095 24.808V30H611.983V24.808C611.983 23.8253 611.807 23.0993 611.455 22.63C611.118 22.146 610.56 21.904 609.783 21.904C609.108 21.904 608.544 22.19 608.089 22.762C607.634 23.3193 607.407 24.0307 607.407 24.896V30H605.295V20.144H607.407V21.376C607.612 20.9947 607.964 20.6647 608.463 20.386C608.962 20.1073 609.534 19.968 610.179 19.968ZM632.045 21.376V13.808H634.157V30H632.045V28.768C631.238 29.7067 630.182 30.176 628.877 30.176C627.513 30.176 626.354 29.6773 625.401 28.68C624.433 27.6827 623.949 26.48 623.949 25.072C623.949 23.664 624.433 22.4613 625.401 21.464C626.354 20.4667 627.513 19.968 628.877 19.968C630.182 19.968 631.238 20.4373 632.045 21.376ZM626.941 27.316C627.513 27.932 628.217 28.24 629.053 28.24C629.874 28.24 630.585 27.932 631.187 27.316C631.759 26.7 632.045 25.952 632.045 25.072C632.045 24.192 631.759 23.444 631.187 22.828C630.585 22.212 629.874 21.904 629.053 21.904C628.217 21.904 627.513 22.212 626.941 22.828C626.354 23.4293 626.061 24.1773 626.061 25.072C626.061 25.9667 626.354 26.7147 626.941 27.316ZM636.624 25.072C636.624 23.664 637.123 22.4613 638.12 21.464C639.118 20.4667 640.32 19.968 641.728 19.968C643.136 19.968 644.339 20.4667 645.336 21.464C646.334 22.4613 646.832 23.664 646.832 25.072C646.832 26.48 646.334 27.6827 645.336 28.68C644.339 29.6773 643.136 30.176 641.728 30.176C640.32 30.176 639.118 29.6773 638.12 28.68C637.123 27.6827 636.624 26.48 636.624 25.072ZM639.638 27.294C640.225 27.9247 640.922 28.24 641.728 28.24C642.55 28.24 643.254 27.9247 643.84 27.294C644.427 26.6927 644.72 25.952 644.72 25.072C644.72 24.2067 644.427 23.4587 643.84 22.828C643.254 22.212 642.55 21.904 641.728 21.904C640.936 21.904 640.24 22.212 639.638 22.828C639.037 23.4733 638.736 24.2213 638.736 25.072C638.736 25.9227 639.037 26.6633 639.638 27.294ZM654.179 19.968C655.44 19.968 656.408 20.386 657.083 21.222C657.758 22.058 658.095 23.2533 658.095 24.808V30H655.983V24.808C655.983 23.8253 655.807 23.0993 655.455 22.63C655.118 22.146 654.56 21.904 653.783 21.904C653.108 21.904 652.544 22.19 652.089 22.762C651.634 23.3193 651.407 24.0307 651.407 24.896V30H649.295V20.144H651.407V21.376C651.612 20.9947 651.964 20.6647 652.463 20.386C652.962 20.1073 653.534 19.968 654.179 19.968ZM669.358 25.38V30H667.246V28.724C666.425 29.692 665.405 30.176 664.188 30.176C663.132 30.176 662.267 29.8607 661.592 29.23C660.903 28.614 660.558 27.822 660.558 26.854C660.558 25.93 660.895 25.1747 661.57 24.588C662.259 24.0013 663.088 23.686 664.056 23.642C665.039 23.598 666.08 23.796 667.18 24.236C667.092 22.6813 666.351 21.904 664.958 21.904C664.122 21.904 663.359 22.1167 662.67 22.542L661.79 21.024C662.714 20.32 663.799 19.968 665.046 19.968C667.921 19.968 669.358 21.772 669.358 25.38ZM667.246 25.974C666.747 25.6807 666.131 25.512 665.398 25.468C664.665 25.424 664.019 25.534 663.462 25.798C662.919 26.0473 662.655 26.4213 662.67 26.92C662.67 27.3013 662.824 27.6167 663.132 27.866C663.455 28.1153 663.873 28.24 664.386 28.24C665.061 28.24 665.684 28.02 666.256 27.58C666.828 27.14 667.158 26.6047 667.246 25.974ZM674.46 20.144V21.706C675.12 20.5473 676.293 19.968 677.98 19.968V22.212C677.335 22.08 676.748 22.1093 676.22 22.3C675.047 22.7253 674.46 23.818 674.46 25.578V30H672.348V20.144H674.46ZM40.704 48.088V44.92L46.688 43.16V59H43.168V47.362L40.704 48.088ZM54.3746 46.68L54.0886 48.726C54.6459 48.5353 55.2326 48.4327 55.8486 48.418C56.4793 48.4033 57.1099 48.4987 57.7406 48.704C58.3713 48.9093 58.9359 49.2173 59.4346 49.628C59.9333 50.024 60.3366 50.596 60.6446 51.344C60.9673 52.0773 61.1286 52.928 61.1286 53.896C61.1286 55.392 60.5713 56.6753 59.4566 57.746C58.3419 58.8167 56.9633 59.352 55.3206 59.352C53.7219 59.352 52.4313 58.8753 51.4486 57.922C50.4659 56.9833 49.9379 55.9347 49.8646 54.776L53.0326 54.072C53.1059 54.6733 53.3553 55.1793 53.7806 55.59C54.2206 55.986 54.7339 56.184 55.3206 56.184C55.9659 56.184 56.5086 55.9713 56.9486 55.546C57.3886 55.1207 57.6086 54.5707 57.6086 53.896C57.6086 52.796 57.1759 52.0553 56.3106 51.674C55.4159 51.2927 54.4773 51.4613 53.4946 52.18L50.3926 51.432L51.6246 43.512H59.3906V46.68H54.3746ZM65.4054 45.47C66.8427 43.93 68.588 43.16 70.6414 43.16C72.724 43.16 74.4767 43.93 75.8994 45.47C77.322 47.0247 78.0334 48.9533 78.0334 51.256C78.0334 53.5733 77.322 55.4947 75.8994 57.02C74.4767 58.5747 72.724 59.352 70.6414 59.352C68.5734 59.352 66.828 58.5747 65.4054 57.02C63.968 55.4653 63.2494 53.544 63.2494 51.256C63.2494 48.968 63.968 47.0393 65.4054 45.47ZM66.7694 51.256C66.7694 52.6933 67.1434 53.874 67.8914 54.798C68.6394 55.722 69.556 56.184 70.6414 56.184C71.7267 56.184 72.6434 55.722 73.3914 54.798C74.1394 53.874 74.5134 52.6933 74.5134 51.256C74.5134 49.8187 74.1394 48.638 73.3914 47.714C72.6434 46.79 71.7267 46.328 70.6414 46.328C69.556 46.328 68.6394 46.79 67.8914 47.714C67.1434 48.638 66.7694 49.8187 66.7694 51.256ZM84.0081 57.394C84.0081 57.9367 83.8247 58.3987 83.4581 58.78C83.0914 59.1613 82.6367 59.352 82.0941 59.352C81.5514 59.352 81.0894 59.1613 80.7081 58.78C80.3267 58.3987 80.1361 57.9367 80.1361 57.394C80.1361 56.8513 80.3267 56.3967 80.7081 56.03C81.0894 55.6633 81.5514 55.48 82.0941 55.48C82.6367 55.48 83.0914 55.6633 83.4581 56.03C83.8247 56.3967 84.0081 56.8513 84.0081 57.394ZM88.2862 45.47C89.7236 43.93 91.4689 43.16 93.5222 43.16C95.6049 43.16 97.3576 43.93 98.7802 45.47C100.203 47.0247 100.914 48.9533 100.914 51.256C100.914 53.5733 100.203 55.4947 98.7802 57.02C97.3576 58.5747 95.6049 59.352 93.5222 59.352C91.4542 59.352 89.7089 58.5747 88.2862 57.02C86.8489 55.4653 86.1302 53.544 86.1302 51.256C86.1302 48.968 86.8489 47.0393 88.2862 45.47ZM89.6502 51.256C89.6502 52.6933 90.0242 53.874 90.7722 54.798C91.5202 55.722 92.4369 56.184 93.5222 56.184C94.6076 56.184 95.5242 55.722 96.2722 54.798C97.0202 53.874 97.3942 52.6933 97.3942 51.256C97.3942 49.8187 97.0202 48.638 96.2722 47.714C95.5242 46.79 94.6076 46.328 93.5222 46.328C92.4369 46.328 91.5202 46.79 90.7722 47.714C90.0242 48.638 89.6502 49.8187 89.6502 51.256ZM105.173 45.47C106.61 43.93 108.356 43.16 110.409 43.16C112.492 43.16 114.244 43.93 115.667 45.47C117.09 47.0247 117.801 48.9533 117.801 51.256C117.801 53.5733 117.09 55.4947 115.667 57.02C114.244 58.5747 112.492 59.352 110.409 59.352C108.341 59.352 106.596 58.5747 105.173 57.02C103.736 55.4653 103.017 53.544 103.017 51.256C103.017 48.968 103.736 47.0393 105.173 45.47ZM106.537 51.256C106.537 52.6933 106.911 53.874 107.659 54.798C108.407 55.722 109.324 56.184 110.409 56.184C111.494 56.184 112.411 55.722 113.159 54.798C113.907 53.874 114.281 52.6933 114.281 51.256C114.281 49.8187 113.907 48.638 113.159 47.714C112.411 46.79 111.494 46.328 110.409 46.328C109.324 46.328 108.407 46.79 107.659 47.714C106.911 48.638 106.537 49.8187 106.537 51.256ZM122.06 45.47C123.497 43.93 125.242 43.16 127.296 43.16C129.378 43.16 131.131 43.93 132.554 45.47C133.976 47.0247 134.688 48.9533 134.688 51.256C134.688 53.5733 133.976 55.4947 132.554 57.02C131.131 58.5747 129.378 59.352 127.296 59.352C125.228 59.352 123.482 58.5747 122.06 57.02C120.622 55.4653 119.904 53.544 119.904 51.256C119.904 48.968 120.622 47.0393 122.06 45.47ZM123.424 51.256C123.424 52.6933 123.798 53.874 124.546 54.798C125.294 55.722 126.21 56.184 127.296 56.184C128.381 56.184 129.298 55.722 130.046 54.798C130.794 53.874 131.168 52.6933 131.168 51.256C131.168 49.8187 130.794 48.638 130.046 47.714C129.298 46.79 128.381 46.328 127.296 46.328C126.21 46.328 125.294 46.79 124.546 47.714C123.798 48.638 123.424 49.8187 123.424 51.256ZM147.344 48.44V50.398C147.711 49.65 148.195 49.1 148.796 48.748C149.397 48.3813 150.204 48.1613 151.216 48.088V51.96C150.6 51.7693 149.955 51.7693 149.28 51.96C148.723 52.1067 148.261 52.466 147.894 53.038C147.527 53.61 147.344 54.2993 147.344 55.106V59H143.824V48.44H147.344ZM162.824 53.5V59H159.304V58.12C158.571 58.9413 157.617 59.352 156.444 59.352C155.256 59.352 154.325 58.9927 153.65 58.274C152.961 57.5553 152.616 56.69 152.616 55.678C152.616 54.754 152.961 53.9913 153.65 53.39C154.339 52.7887 155.175 52.4367 156.158 52.334C157.17 52.246 158.204 52.3413 159.26 52.62C159.231 52.1213 159.047 51.7253 158.71 51.432C158.387 51.1387 157.94 50.992 157.368 50.992C156.503 50.992 155.681 51.2193 154.904 51.674L153.848 49.144C154.933 48.44 156.283 48.088 157.896 48.088C159.304 48.088 160.485 48.528 161.438 49.408C162.362 50.288 162.824 51.652 162.824 53.5ZM159.304 54.82C158.512 54.5413 157.779 54.4827 157.104 54.644C156.459 54.8053 156.136 55.172 156.136 55.744C156.136 56.0813 156.253 56.36 156.488 56.58C156.737 56.7853 157.038 56.888 157.39 56.888C157.859 56.888 158.277 56.7047 158.644 56.338C159.011 55.9567 159.231 55.4507 159.304 54.82ZM170.655 56.184C171.447 56.184 172.107 55.876 172.635 55.26L174.439 57.614C173.368 58.7727 172.048 59.352 170.479 59.352C168.69 59.352 167.26 58.8167 166.189 57.746C165.118 56.6753 164.583 55.3333 164.583 53.72C164.583 52.1067 165.118 50.7647 166.189 49.694C167.26 48.6233 168.69 48.088 170.479 48.088C172.048 48.088 173.368 48.6673 174.439 49.826L172.635 52.18C172.107 51.564 171.447 51.256 170.655 51.256C169.936 51.256 169.328 51.498 168.829 51.982C168.345 52.4513 168.103 53.0307 168.103 53.72C168.103 54.4093 168.345 54.996 168.829 55.48C169.328 55.9493 169.936 56.184 170.655 56.184ZM180.245 44.92C180.245 45.5067 180.04 46.0053 179.629 46.416C179.218 46.8267 178.72 47.032 178.133 47.032C177.546 47.032 177.048 46.8267 176.637 46.416C176.226 46.0053 176.021 45.5067 176.021 44.92C176.021 44.3333 176.226 43.8347 176.637 43.424C177.048 43.0133 177.546 42.808 178.133 42.808C178.72 42.808 179.218 43.0133 179.629 43.424C180.04 43.8347 180.245 44.3333 180.245 44.92ZM179.893 59H176.373V48.44H179.893V59ZM187.647 48.088C189.304 48.088 190.72 48.6307 191.893 49.716C193.052 50.816 193.631 52.1507 193.631 53.72C193.631 55.304 193.059 56.6313 191.915 57.702C190.742 58.802 189.319 59.352 187.647 59.352C185.916 59.352 184.486 58.8093 183.357 57.724C182.228 56.6387 181.663 55.304 181.663 53.72C181.663 52.1067 182.22 50.7647 183.335 49.694C184.45 48.6233 185.887 48.088 187.647 48.088ZM185.183 53.72C185.183 54.3947 185.425 54.974 185.909 55.458C186.393 55.942 186.972 56.184 187.647 56.184C188.322 56.184 188.901 55.942 189.385 55.458C189.869 54.974 190.111 54.3947 190.111 53.72C190.111 53.0453 189.869 52.466 189.385 51.982C188.901 51.498 188.322 51.256 187.647 51.256C186.972 51.256 186.393 51.498 185.909 51.982C185.425 52.466 185.183 53.0453 185.183 53.72ZM201.744 48.088C202.947 48.088 203.951 48.5133 204.758 49.364C205.565 50.2147 205.968 51.432 205.968 53.016V59H202.448V53.368C202.448 51.96 201.861 51.256 200.688 51.256C200.204 51.256 199.786 51.476 199.434 51.916C199.097 52.3413 198.928 52.9427 198.928 53.72V59H195.408V48.44H198.928V49.496C199.544 48.5573 200.483 48.088 201.744 48.088ZM213.488 56.272C214.529 56.272 215.409 55.9347 216.128 55.26L217.932 57.614C216.729 58.7727 215.292 59.352 213.62 59.352C211.83 59.352 210.4 58.8167 209.33 57.746C208.259 56.6753 207.724 55.3333 207.724 53.72C207.724 52.1067 208.259 50.7647 209.33 49.694C210.4 48.6233 211.83 48.088 213.62 48.088C214.06 48.088 214.5 48.1467 214.94 48.264C215.394 48.3813 215.871 48.5867 216.37 48.88C216.868 49.1587 217.323 49.5987 217.734 50.2C218.144 50.7867 218.445 51.4907 218.636 52.312L212.388 56.052C212.622 56.1987 212.989 56.272 213.488 56.272ZM213.62 51.168C212.828 51.168 212.182 51.432 211.684 51.96C211.2 52.4733 211.009 53.126 211.112 53.918L214.764 51.74C214.514 51.3587 214.133 51.168 213.62 51.168ZM224.838 52.026C227.742 52.51 229.194 53.72 229.194 55.656C229.194 56.756 228.762 57.6507 227.896 58.34C227.046 59.0147 225.85 59.352 224.31 59.352C223.328 59.352 222.418 59.1907 221.582 58.868C220.761 58.5453 220.13 58.164 219.69 57.724L221.098 55.084C222.008 55.8173 222.91 56.228 223.804 56.316C225.051 56.448 225.674 56.2793 225.674 55.81C225.674 55.59 225.572 55.436 225.366 55.348C225.161 55.26 224.809 55.172 224.31 55.084C224.281 55.084 224.237 55.0767 224.178 55.062C224.134 55.0473 224.098 55.04 224.068 55.04C222.411 54.7027 221.333 54.1747 220.834 53.456C220.424 52.8547 220.218 52.2093 220.218 51.52C220.218 50.5813 220.614 49.7673 221.406 49.078C222.169 48.418 223.262 48.088 224.684 48.088C225.183 48.088 225.836 48.198 226.642 48.418C227.332 48.638 227.896 48.8947 228.336 49.188L226.994 51.806C226.408 51.3513 225.718 51.0873 224.926 51.014C224.134 50.9407 223.738 51.0727 223.738 51.41C223.738 51.586 223.812 51.718 223.958 51.806C224.105 51.8793 224.398 51.9527 224.838 52.026ZM245.734 49.496V42.808H249.254V59H245.734V57.944C244.942 58.8827 243.893 59.352 242.588 59.352C241.092 59.352 239.838 58.802 238.826 57.702C237.799 56.6313 237.286 55.304 237.286 53.72C237.286 52.136 237.799 50.8013 238.826 49.716C239.838 48.6307 241.092 48.088 242.588 48.088C243.893 48.088 244.942 48.5573 245.734 49.496ZM240.806 53.72C240.806 54.3947 241.048 54.974 241.532 55.458C242.016 55.942 242.595 56.184 243.27 56.184C243.945 56.184 244.524 55.942 245.008 55.458C245.492 54.974 245.734 54.3947 245.734 53.72C245.734 53.0453 245.492 52.466 245.008 51.982C244.524 51.498 243.945 51.256 243.27 51.256C242.595 51.256 242.016 51.498 241.532 51.982C241.048 52.466 240.806 53.0453 240.806 53.72ZM256.779 56.272C257.82 56.272 258.7 55.9347 259.419 55.26L261.223 57.614C260.02 58.7727 258.583 59.352 256.911 59.352C255.121 59.352 253.691 58.8167 252.621 57.746C251.55 56.6753 251.015 55.3333 251.015 53.72C251.015 52.1067 251.55 50.7647 252.621 49.694C253.691 48.6233 255.121 48.088 256.911 48.088C257.351 48.088 257.791 48.1467 258.231 48.264C258.685 48.3813 259.162 48.5867 259.661 48.88C260.159 49.1587 260.614 49.5987 261.025 50.2C261.435 50.7867 261.736 51.4907 261.927 52.312L255.679 56.052C255.913 56.1987 256.28 56.272 256.779 56.272ZM256.911 51.168C256.119 51.168 255.473 51.432 254.975 51.96C254.491 52.4733 254.3 53.126 254.403 53.918L258.055 51.74C257.805 51.3587 257.424 51.168 256.911 51.168ZM279.871 53.5V59H276.351V58.12C275.618 58.9413 274.664 59.352 273.491 59.352C272.303 59.352 271.372 58.9927 270.697 58.274C270.008 57.5553 269.663 56.69 269.663 55.678C269.663 54.754 270.008 53.9913 270.697 53.39C271.386 52.7887 272.222 52.4367 273.205 52.334C274.217 52.246 275.251 52.3413 276.307 52.62C276.278 52.1213 276.094 51.7253 275.757 51.432C275.434 51.1387 274.987 50.992 274.415 50.992C273.55 50.992 272.728 51.2193 271.951 51.674L270.895 49.144C271.98 48.44 273.33 48.088 274.943 48.088C276.351 48.088 277.532 48.528 278.485 49.408C279.409 50.288 279.871 51.652 279.871 53.5ZM276.351 54.82C275.559 54.5413 274.826 54.4827 274.151 54.644C273.506 54.8053 273.183 55.172 273.183 55.744C273.183 56.0813 273.3 56.36 273.535 56.58C273.784 56.7853 274.085 56.888 274.437 56.888C274.906 56.888 275.324 56.7047 275.691 56.338C276.058 55.9567 276.278 55.4507 276.351 54.82ZM282.162 59V42.808H285.682V59H282.162ZM292.2 44.92C292.2 45.5067 291.995 46.0053 291.584 46.416C291.173 46.8267 290.675 47.032 290.088 47.032C289.501 47.032 289.003 46.8267 288.592 46.416C288.181 46.0053 287.976 45.5067 287.976 44.92C287.976 44.3333 288.181 43.8347 288.592 43.424C289.003 43.0133 289.501 42.808 290.088 42.808C290.675 42.808 291.173 43.0133 291.584 43.424C291.995 43.8347 292.2 44.3333 292.2 44.92ZM291.848 59H288.328V48.44H291.848V59ZM306.902 48.088C308.075 48.088 309.058 48.5133 309.85 49.364C310.642 50.2147 311.038 51.432 311.038 53.016V59H307.518V53.368C307.518 52.6053 307.401 52.0627 307.166 51.74C306.931 51.4173 306.579 51.256 306.11 51.256C305.641 51.256 305.259 51.454 304.966 51.85C304.673 52.246 304.526 52.8693 304.526 53.72V59H301.006V53.368C301.006 52.6053 300.889 52.0627 300.654 51.74C300.419 51.4173 300.067 51.256 299.598 51.256C299.129 51.256 298.747 51.454 298.454 51.85C298.161 52.246 298.014 52.8693 298.014 53.72V59H294.494V48.44H298.014V49.496C298.439 48.9973 298.85 48.638 299.246 48.418C299.657 48.198 300.155 48.088 300.742 48.088C301.945 48.088 302.891 48.5647 303.58 49.518C304.416 48.5647 305.523 48.088 306.902 48.088ZM318.568 56.272C319.609 56.272 320.489 55.9347 321.208 55.26L323.012 57.614C321.809 58.7727 320.372 59.352 318.7 59.352C316.91 59.352 315.48 58.8167 314.41 57.746C313.339 56.6753 312.804 55.3333 312.804 53.72C312.804 52.1067 313.339 50.7647 314.41 49.694C315.48 48.6233 316.91 48.088 318.7 48.088C319.14 48.088 319.58 48.1467 320.02 48.264C320.474 48.3813 320.951 48.5867 321.45 48.88C321.948 49.1587 322.403 49.5987 322.814 50.2C323.224 50.7867 323.525 51.4907 323.716 52.312L317.468 56.052C317.702 56.1987 318.069 56.272 318.568 56.272ZM318.7 51.168C317.908 51.168 317.262 51.432 316.764 51.96C316.28 52.4733 316.089 53.126 316.192 53.918L319.844 51.74C319.594 51.3587 319.213 51.168 318.7 51.168ZM331.467 48.088C332.669 48.088 333.674 48.5133 334.481 49.364C335.287 50.2147 335.691 51.432 335.691 53.016V59H332.171V53.368C332.171 51.96 331.584 51.256 330.411 51.256C329.927 51.256 329.509 51.476 329.157 51.916C328.819 52.3413 328.651 52.9427 328.651 53.72V59H325.131V48.44H328.651V49.496C329.267 48.5573 330.205 48.088 331.467 48.088ZM342.554 59H339.034V51.608H337.274V48.44H339.034V45.272L342.554 44.216V48.44H345.37V51.608H342.554V59ZM352.411 48.088C354.068 48.088 355.483 48.6307 356.657 49.716C357.815 50.816 358.395 52.1507 358.395 53.72C358.395 55.304 357.823 56.6313 356.679 57.702C355.505 58.802 354.083 59.352 352.411 59.352C350.68 59.352 349.25 58.8093 348.121 57.724C346.991 56.6387 346.427 55.304 346.427 53.72C346.427 52.1067 346.984 50.7647 348.099 49.694C349.213 48.6233 350.651 48.088 352.411 48.088ZM349.947 53.72C349.947 54.3947 350.189 54.974 350.673 55.458C351.157 55.942 351.736 56.184 352.411 56.184C353.085 56.184 353.665 55.942 354.149 55.458C354.633 54.974 354.875 54.3947 354.875 53.72C354.875 53.0453 354.633 52.466 354.149 51.982C353.665 51.498 353.085 51.256 352.411 51.256C351.736 51.256 351.157 51.498 350.673 51.982C350.189 52.466 349.947 53.0453 349.947 53.72ZM370.37 57.768V64.28H368.258V49.144H370.37V50.376C371.177 49.4373 372.233 48.968 373.538 48.968C374.902 48.968 376.068 49.4667 377.036 50.464C377.989 51.4613 378.466 52.664 378.466 54.072C378.466 55.48 377.989 56.6827 377.036 57.68C376.068 58.6773 374.902 59.176 373.538 59.176C372.233 59.176 371.177 58.7067 370.37 57.768ZM375.496 51.828C374.895 51.212 374.183 50.904 373.362 50.904C372.526 50.904 371.822 51.212 371.25 51.828C370.663 52.4293 370.37 53.1773 370.37 54.072C370.37 54.9667 370.663 55.7147 371.25 56.316C371.822 56.932 372.526 57.24 373.362 57.24C374.183 57.24 374.895 56.932 375.496 56.316C376.068 55.7 376.354 54.952 376.354 54.072C376.354 53.192 376.068 52.444 375.496 51.828ZM389.374 54.38V59H387.262V57.724C386.44 58.692 385.421 59.176 384.204 59.176C383.148 59.176 382.282 58.8607 381.608 58.23C380.918 57.614 380.574 56.822 380.574 55.854C380.574 54.93 380.911 54.1747 381.586 53.588C382.275 53.0013 383.104 52.686 384.072 52.642C385.054 52.598 386.096 52.796 387.196 53.236C387.108 51.6813 386.367 50.904 384.974 50.904C384.138 50.904 383.375 51.1167 382.686 51.542L381.806 50.024C382.73 49.32 383.815 48.968 385.062 48.968C387.936 48.968 389.374 50.772 389.374 54.38ZM387.262 54.974C386.763 54.6807 386.147 54.512 385.414 54.468C384.68 54.424 384.035 54.534 383.478 54.798C382.935 55.0473 382.671 55.4213 382.686 55.92C382.686 56.3013 382.84 56.6167 383.148 56.866C383.47 57.1153 383.888 57.24 384.402 57.24C385.076 57.24 385.7 57.02 386.272 56.58C386.844 56.14 387.174 55.6047 387.262 54.974ZM394.476 49.144V50.706C395.136 49.5473 396.309 48.968 397.996 48.968V51.212C397.35 51.08 396.764 51.1093 396.236 51.3C395.062 51.7253 394.476 52.818 394.476 54.578V59H392.364V49.144H394.476ZM408.194 54.38V59H406.082V57.724C405.261 58.692 404.241 59.176 403.024 59.176C401.968 59.176 401.103 58.8607 400.428 58.23C399.739 57.614 399.394 56.822 399.394 55.854C399.394 54.93 399.731 54.1747 400.406 53.588C401.095 53.0013 401.924 52.686 402.892 52.642C403.875 52.598 404.916 52.796 406.016 53.236C405.928 51.6813 405.187 50.904 403.794 50.904C402.958 50.904 402.195 51.1167 401.506 51.542L400.626 50.024C401.55 49.32 402.635 48.968 403.882 48.968C406.757 48.968 408.194 50.772 408.194 54.38ZM406.082 54.974C405.583 54.6807 404.967 54.512 404.234 54.468C403.501 54.424 402.855 54.534 402.298 54.798C401.755 55.0473 401.491 55.4213 401.506 55.92C401.506 56.3013 401.66 56.6167 401.968 56.866C402.291 57.1153 402.709 57.24 403.222 57.24C403.897 57.24 404.52 57.02 405.092 56.58C405.664 56.14 405.994 55.6047 406.082 54.974ZM418.746 59V42.808H420.858V59H418.746ZM423.327 54.072C423.327 52.664 423.826 51.4613 424.823 50.464C425.821 49.4667 427.023 48.968 428.431 48.968C429.839 48.968 431.042 49.4667 432.039 50.464C433.037 51.4613 433.535 52.664 433.535 54.072C433.535 55.48 433.037 56.6827 432.039 57.68C431.042 58.6773 429.839 59.176 428.431 59.176C427.023 59.176 425.821 58.6773 424.823 57.68C423.826 56.6827 423.327 55.48 423.327 54.072ZM426.341 56.294C426.928 56.9247 427.625 57.24 428.431 57.24C429.253 57.24 429.957 56.9247 430.543 56.294C431.13 55.6927 431.423 54.952 431.423 54.072C431.423 53.2067 431.13 52.4587 430.543 51.828C429.957 51.212 429.253 50.904 428.431 50.904C427.639 50.904 426.943 51.212 426.341 51.828C425.74 52.4733 425.439 53.2213 425.439 54.072C425.439 54.9227 425.74 55.6633 426.341 56.294ZM439.884 52.84C441.981 53.324 443.03 54.3947 443.03 56.052C443.03 56.976 442.685 57.724 441.996 58.296C441.307 58.8827 440.485 59.176 439.532 59.176C438.051 59.176 436.753 58.6187 435.638 57.504L436.694 55.964C437.545 56.7853 438.447 57.2107 439.4 57.24C439.855 57.2547 440.221 57.152 440.5 56.932C440.779 56.712 440.918 56.4553 440.918 56.162C440.918 55.6047 440.463 55.2013 439.554 54.952C438.278 54.6 437.391 54.1967 436.892 53.742C436.408 53.2873 436.166 52.642 436.166 51.806C436.166 51.014 436.467 50.3467 437.068 49.804C437.684 49.2467 438.498 48.968 439.51 48.968C440.551 48.968 441.497 49.3053 442.348 49.98L441.358 51.52C440.815 51.1093 440.199 50.904 439.51 50.904C439.129 50.904 438.828 50.9847 438.608 51.146C438.388 51.3073 438.278 51.5053 438.278 51.74C438.278 52.0187 438.388 52.2387 438.608 52.4C438.843 52.5467 439.268 52.6933 439.884 52.84ZM455.341 57.768V64.28H453.229V49.144H455.341V50.376C456.147 49.4373 457.203 48.968 458.509 48.968C459.873 48.968 461.039 49.4667 462.007 50.464C462.96 51.4613 463.437 52.664 463.437 54.072C463.437 55.48 462.96 56.6827 462.007 57.68C461.039 58.6773 459.873 59.176 458.509 59.176C457.203 59.176 456.147 58.7067 455.341 57.768ZM460.467 51.828C459.865 51.212 459.154 50.904 458.333 50.904C457.497 50.904 456.793 51.212 456.221 51.828C455.634 52.4293 455.341 53.1773 455.341 54.072C455.341 54.9667 455.634 55.7147 456.221 56.316C456.793 56.932 457.497 57.24 458.333 57.24C459.154 57.24 459.865 56.932 460.467 56.316C461.039 55.7 461.325 54.952 461.325 54.072C461.325 53.192 461.039 52.444 460.467 51.828ZM470.648 57.24C471.514 57.24 472.328 56.8587 473.09 56.096L474.3 57.636C473.318 58.6627 472.1 59.176 470.648 59.176C469.24 59.176 468.038 58.6773 467.04 57.68C466.043 56.6827 465.544 55.48 465.544 54.072C465.544 52.664 466.043 51.4613 467.04 50.464C468.038 49.4667 469.24 48.968 470.648 48.968C471.748 48.968 472.687 49.2833 473.464 49.914C474.242 50.53 474.77 51.3733 475.048 52.444L468.514 56.228C468.72 56.5213 469.02 56.7633 469.416 56.954C469.827 57.1447 470.238 57.24 470.648 57.24ZM470.648 50.904C469.856 50.904 469.16 51.2267 468.558 51.872C467.957 52.5173 467.656 53.2507 467.656 54.072C467.656 54.1013 467.671 54.292 467.7 54.644L472.584 51.828C472.115 51.212 471.47 50.904 470.648 50.904ZM479.274 49.144V50.706C479.934 49.5473 481.108 48.968 482.794 48.968V51.212C482.149 51.08 481.562 51.1093 481.034 51.3C479.861 51.7253 479.274 52.818 479.274 54.578V59H477.162V49.144H479.274ZM487.718 49.144V50.706C488.378 49.5473 489.551 48.968 491.238 48.968V51.212C490.592 51.08 490.006 51.1093 489.478 51.3C488.304 51.7253 487.718 52.818 487.718 54.578V59H485.606V49.144H487.718ZM496.517 45.8C496.517 46.24 496.363 46.614 496.055 46.922C495.747 47.23 495.373 47.384 494.933 47.384C494.493 47.384 494.119 47.23 493.811 46.922C493.503 46.614 493.349 46.24 493.349 45.8C493.349 45.36 493.503 44.986 493.811 44.678C494.119 44.37 494.493 44.216 494.933 44.216C495.373 44.216 495.747 44.37 496.055 44.678C496.363 44.986 496.517 45.36 496.517 45.8ZM495.989 59H493.877V49.144H495.989V59ZM502.674 59H500.562V51.08H498.802V49.144H500.562V45.272L502.674 44.568V49.144H505.49V51.08H502.674V59ZM506.902 54.072C506.902 52.664 507.4 51.4613 508.398 50.464C509.395 49.4667 510.598 48.968 512.006 48.968C513.414 48.968 514.616 49.4667 515.614 50.464C516.611 51.4613 517.11 52.664 517.11 54.072C517.11 55.48 516.611 56.6827 515.614 57.68C514.616 58.6773 513.414 59.176 512.006 59.176C510.598 59.176 509.395 58.6773 508.398 57.68C507.4 56.6827 506.902 55.48 506.902 54.072ZM509.916 56.294C510.502 56.9247 511.199 57.24 512.006 57.24C512.827 57.24 513.531 56.9247 514.118 56.294C514.704 55.6927 514.998 54.952 514.998 54.072C514.998 53.2067 514.704 52.4587 514.118 51.828C513.531 51.212 512.827 50.904 512.006 50.904C511.214 50.904 510.517 51.212 509.916 51.828C509.314 52.4733 509.014 53.2213 509.014 54.072C509.014 54.9227 509.314 55.6633 509.916 56.294ZM523.458 52.84C525.556 53.324 526.604 54.3947 526.604 56.052C526.604 56.976 526.26 57.724 525.57 58.296C524.881 58.8827 524.06 59.176 523.106 59.176C521.625 59.176 520.327 58.6187 519.212 57.504L520.268 55.964C521.119 56.7853 522.021 57.2107 522.974 57.24C523.429 57.2547 523.796 57.152 524.074 56.932C524.353 56.712 524.492 56.4553 524.492 56.162C524.492 55.6047 524.038 55.2013 523.128 54.952C521.852 54.6 520.965 54.1967 520.466 53.742C519.982 53.2873 519.74 52.642 519.74 51.806C519.74 51.014 520.041 50.3467 520.642 49.804C521.258 49.2467 522.072 48.968 523.084 48.968C524.126 48.968 525.072 49.3053 525.922 49.98L524.932 51.52C524.39 51.1093 523.774 50.904 523.084 50.904C522.703 50.904 522.402 50.9847 522.182 51.146C521.962 51.3073 521.852 51.5053 521.852 51.74C521.852 52.0187 521.962 52.2387 522.182 52.4C522.417 52.5467 522.842 52.6933 523.458 52.84ZM547.847 48.968C549.035 48.968 549.952 49.3933 550.597 50.244C551.257 51.08 551.587 52.268 551.587 53.808V59H549.475V53.808C549.475 51.872 548.8 50.904 547.451 50.904C546.806 50.904 546.278 51.1827 545.867 51.74C545.456 52.2827 545.251 53.0013 545.251 53.896V59H543.139V53.808C543.139 51.872 542.464 50.904 541.115 50.904C540.47 50.904 539.942 51.1827 539.531 51.74C539.12 52.2827 538.915 53.0013 538.915 53.896V59H536.803V49.144H538.915V50.376C539.15 50.0533 539.355 49.8113 539.531 49.65C539.707 49.4887 539.964 49.3347 540.301 49.188C540.638 49.0413 541.042 48.968 541.511 48.968C542.904 48.968 543.916 49.5253 544.547 50.64C545.031 50.024 545.515 49.5913 545.999 49.342C546.498 49.0927 547.114 48.968 547.847 48.968ZM558.988 47.736H557.58L558.988 44.216H561.1L558.988 47.736ZM562.86 54.38V59H560.748V57.724C559.927 58.692 558.907 59.176 557.69 59.176C556.634 59.176 555.769 58.8607 555.094 58.23C554.405 57.614 554.06 56.822 554.06 55.854C554.06 54.93 554.397 54.1747 555.072 53.588C555.761 53.0013 556.59 52.686 557.558 52.642C558.541 52.598 559.582 52.796 560.682 53.236C560.594 51.6813 559.853 50.904 558.46 50.904C557.624 50.904 556.861 51.1167 556.172 51.542L555.292 50.024C556.216 49.32 557.301 48.968 558.548 48.968C561.423 48.968 562.86 50.772 562.86 54.38ZM560.748 54.974C560.249 54.6807 559.633 54.512 558.9 54.468C558.167 54.424 557.521 54.534 556.964 54.798C556.421 55.0473 556.157 55.4213 556.172 55.92C556.172 56.3013 556.326 56.6167 556.634 56.866C556.957 57.1153 557.375 57.24 557.888 57.24C558.563 57.24 559.186 57.02 559.758 56.58C560.33 56.14 560.66 55.6047 560.748 54.974ZM569.564 52.84C571.661 53.324 572.71 54.3947 572.71 56.052C572.71 56.976 572.365 57.724 571.676 58.296C570.986 58.8827 570.165 59.176 569.212 59.176C567.73 59.176 566.432 58.6187 565.318 57.504L566.374 55.964C567.224 56.7853 568.126 57.2107 569.08 57.24C569.534 57.2547 569.901 57.152 570.18 56.932C570.458 56.712 570.598 56.4553 570.598 56.162C570.598 55.6047 570.143 55.2013 569.234 54.952C567.958 54.6 567.07 54.1967 566.572 53.742C566.088 53.2873 565.846 52.642 565.846 51.806C565.846 51.014 566.146 50.3467 566.748 49.804C567.364 49.2467 568.178 48.968 569.19 48.968C570.231 48.968 571.177 49.3053 572.028 49.98L571.038 51.52C570.495 51.1093 569.879 50.904 569.19 50.904C568.808 50.904 568.508 50.9847 568.288 51.146C568.068 51.3073 567.958 51.5053 567.958 51.74C567.958 52.0187 568.068 52.2387 568.288 52.4C568.522 52.5467 568.948 52.6933 569.564 52.84ZM587.792 48.968C589.054 48.968 590.022 49.386 590.696 50.222C591.371 51.058 591.708 52.2533 591.708 53.808V59H589.596V53.808C589.596 52.8253 589.42 52.0993 589.068 51.63C588.731 51.146 588.174 50.904 587.396 50.904C586.722 50.904 586.157 51.19 585.702 51.762C585.248 52.3193 585.02 53.0307 585.02 53.896V59H582.908V49.144H585.02V50.376C585.226 49.9947 585.578 49.6647 586.076 49.386C586.575 49.1073 587.147 48.968 587.792 48.968ZM599.275 57.24C600.141 57.24 600.955 56.8587 601.717 56.096L602.927 57.636C601.945 58.6627 600.727 59.176 599.275 59.176C597.867 59.176 596.665 58.6773 595.667 57.68C594.67 56.6827 594.171 55.48 594.171 54.072C594.171 52.664 594.67 51.4613 595.667 50.464C596.665 49.4667 597.867 48.968 599.275 48.968C600.375 48.968 601.314 49.2833 602.091 49.914C602.869 50.53 603.397 51.3733 603.675 52.444L597.141 56.228C597.347 56.5213 597.647 56.7633 598.043 56.954C598.454 57.1447 598.865 57.24 599.275 57.24ZM599.275 50.904C598.483 50.904 597.787 51.2267 597.185 51.872C596.584 52.5173 596.283 53.2507 596.283 54.072C596.283 54.1013 596.298 54.292 596.327 54.644L601.211 51.828C600.742 51.212 600.097 50.904 599.275 50.904ZM610.533 57.24C611.457 57.24 612.19 56.9467 612.733 56.36L613.877 57.944C612.924 58.7653 611.809 59.176 610.533 59.176C609.125 59.176 607.922 58.6773 606.925 57.68C605.928 56.6827 605.429 55.48 605.429 54.072C605.429 52.664 605.928 51.4613 606.925 50.464C607.922 49.4667 609.125 48.968 610.533 48.968C611.809 48.968 612.924 49.3787 613.877 50.2L612.733 51.784C612.19 51.1973 611.457 50.904 610.533 50.904C609.741 50.904 609.044 51.212 608.443 51.828C607.842 52.4733 607.541 53.2213 607.541 54.072C607.541 54.9227 607.842 55.6633 608.443 56.294C609.03 56.9247 609.726 57.24 610.533 57.24ZM620.76 57.24C621.625 57.24 622.439 56.8587 623.202 56.096L624.412 57.636C623.429 58.6627 622.212 59.176 620.76 59.176C619.352 59.176 618.149 58.6773 617.152 57.68C616.154 56.6827 615.656 55.48 615.656 54.072C615.656 52.664 616.154 51.4613 617.152 50.464C618.149 49.4667 619.352 48.968 620.76 48.968C621.86 48.968 622.798 49.2833 623.576 49.914C624.353 50.53 624.881 51.3733 625.16 52.444L618.626 56.228C618.831 56.5213 619.132 56.7633 619.528 56.954C619.938 57.1447 620.349 57.24 620.76 57.24ZM620.76 50.904C619.968 50.904 619.271 51.2267 618.67 51.872C618.068 52.5173 617.768 53.2507 617.768 54.072C617.768 54.1013 617.782 54.292 617.812 54.644L622.696 51.828C622.226 51.212 621.581 50.904 620.76 50.904ZM631.159 52.84C633.257 53.324 634.305 54.3947 634.305 56.052C634.305 56.976 633.961 57.724 633.271 58.296C632.582 58.8827 631.761 59.176 630.807 59.176C629.326 59.176 628.028 58.6187 626.913 57.504L627.969 55.964C628.82 56.7853 629.722 57.2107 630.675 57.24C631.13 57.2547 631.497 57.152 631.775 56.932C632.054 56.712 632.193 56.4553 632.193 56.162C632.193 55.6047 631.739 55.2013 630.829 54.952C629.553 54.6 628.666 54.1967 628.167 53.742C627.683 53.2873 627.441 52.642 627.441 51.806C627.441 51.014 627.742 50.3467 628.343 49.804C628.959 49.2467 629.773 48.968 630.785 48.968C631.827 48.968 632.773 49.3053 633.623 49.98L632.633 51.52C632.091 51.1093 631.475 50.904 630.785 50.904C630.404 50.904 630.103 50.9847 629.883 51.146C629.663 51.3073 629.553 51.5053 629.553 51.74C629.553 52.0187 629.663 52.2387 629.883 52.4C630.118 52.5467 630.543 52.6933 631.159 52.84ZM639.582 45.8C639.582 46.24 639.428 46.614 639.12 46.922C638.812 47.23 638.438 47.384 637.998 47.384C637.558 47.384 637.184 47.23 636.876 46.922C636.568 46.614 636.414 46.24 636.414 45.8C636.414 45.36 636.568 44.986 636.876 44.678C637.184 44.37 637.558 44.216 637.998 44.216C638.438 44.216 638.812 44.37 639.12 44.678C639.428 44.986 639.582 45.36 639.582 45.8ZM639.054 59H636.942V49.144H639.054V59ZM645.739 59H643.627V51.08H641.867V49.144H643.627V45.272L645.739 44.568V49.144H648.555V51.08H645.739V59ZM658.766 54.38V59H656.654V57.724C655.833 58.692 654.813 59.176 653.596 59.176C652.54 59.176 651.675 58.8607 651 58.23C650.311 57.614 649.966 56.822 649.966 55.854C649.966 54.93 650.303 54.1747 650.978 53.588C651.667 53.0013 652.496 52.686 653.464 52.642C654.447 52.598 655.488 52.796 656.588 53.236C656.5 51.6813 655.759 50.904 654.366 50.904C653.53 50.904 652.767 51.1167 652.078 51.542L651.198 50.024C652.122 49.32 653.207 48.968 654.454 48.968C657.329 48.968 658.766 50.772 658.766 54.38ZM656.654 54.974C656.155 54.6807 655.539 54.512 654.806 54.468C654.073 54.424 653.427 54.534 652.87 54.798C652.327 55.0473 652.063 55.4213 652.078 55.92C652.078 56.3013 652.232 56.6167 652.54 56.866C652.863 57.1153 653.281 57.24 653.794 57.24C654.469 57.24 655.092 57.02 655.664 56.58C656.236 56.14 656.566 55.6047 656.654 54.974ZM669.32 50.376V42.808H671.432V59H669.32V57.768C668.513 58.7067 667.457 59.176 666.152 59.176C664.788 59.176 663.629 58.6773 662.676 57.68C661.708 56.6827 661.224 55.48 661.224 54.072C661.224 52.664 661.708 51.4613 662.676 50.464C663.629 49.4667 664.788 48.968 666.152 48.968C667.457 48.968 668.513 49.4373 669.32 50.376ZM664.216 56.316C664.788 56.932 665.492 57.24 666.328 57.24C667.149 57.24 667.861 56.932 668.462 56.316C669.034 55.7 669.32 54.952 669.32 54.072C669.32 53.192 669.034 52.444 668.462 51.828C667.861 51.212 667.149 50.904 666.328 50.904C665.492 50.904 664.788 51.212 664.216 51.828C663.629 52.4293 663.336 53.1773 663.336 54.072C663.336 54.9667 663.629 55.7147 664.216 56.316ZM673.9 54.072C673.9 52.664 674.398 51.4613 675.396 50.464C676.393 49.4667 677.596 48.968 679.004 48.968C680.412 48.968 681.614 49.4667 682.612 50.464C683.609 51.4613 684.108 52.664 684.108 54.072C684.108 55.48 683.609 56.6827 682.612 57.68C681.614 58.6773 680.412 59.176 679.004 59.176C677.596 59.176 676.393 58.6773 675.396 57.68C674.398 56.6827 673.9 55.48 673.9 54.072ZM676.914 56.294C677.5 56.9247 678.197 57.24 679.004 57.24C679.825 57.24 680.529 56.9247 681.116 56.294C681.702 55.6927 681.996 54.952 681.996 54.072C681.996 53.2067 681.702 52.4587 681.116 51.828C680.529 51.212 679.825 50.904 679.004 50.904C678.212 50.904 677.515 51.212 676.914 51.828C676.312 52.4733 676.012 53.2213 676.012 54.072C676.012 54.9227 676.312 55.6633 676.914 56.294ZM690.456 52.84C692.554 53.324 693.602 54.3947 693.602 56.052C693.602 56.976 693.258 57.724 692.568 58.296C691.879 58.8827 691.058 59.176 690.104 59.176C688.623 59.176 687.325 58.6187 686.21 57.504L687.266 55.964C688.117 56.7853 689.019 57.2107 689.972 57.24C690.427 57.2547 690.794 57.152 691.072 56.932C691.351 56.712 691.49 56.4553 691.49 56.162C691.49 55.6047 691.036 55.2013 690.126 54.952C688.85 54.6 687.963 54.1967 687.464 53.742C686.98 53.2873 686.738 52.642 686.738 51.806C686.738 51.014 687.039 50.3467 687.64 49.804C688.256 49.2467 689.07 48.968 690.082 48.968C691.124 48.968 692.07 49.3053 692.92 49.98L691.93 51.52C691.388 51.1093 690.772 50.904 690.082 50.904C689.701 50.904 689.4 50.9847 689.18 51.146C688.96 51.3073 688.85 51.5053 688.85 51.74C688.85 52.0187 688.96 52.2387 689.18 52.4C689.415 52.5467 689.84 52.6933 690.456 52.84ZM697.642 59.176C697.202 59.176 696.828 59.022 696.52 58.714C696.212 58.406 696.058 58.032 696.058 57.592C696.058 57.1373 696.212 56.7633 696.52 56.47C696.828 56.162 697.202 56.008 697.642 56.008C698.097 56.008 698.471 56.162 698.764 56.47C699.072 56.7633 699.226 57.1373 699.226 57.592C699.226 58.032 699.072 58.406 698.764 58.714C698.471 59.022 698.097 59.176 697.642 59.176Z" fill="black"/>
</svg>
