<svg width="279" height="115" viewBox="0 0 279 115" fill="none" xmlns="http://www.w3.org/2000/svg">
<path d="M22.528 6.96V30H17.408V18.992L12.288 24.88L7.168 18.992V30H2.048V6.96L12.288 17.968L22.528 6.96ZM29.1705 12.592C27.4745 12.592 26.0985 11.216 26.0985 9.52C26.0985 7.824 27.4745 6.448 29.1705 6.448C30.8665 6.448 32.2425 7.824 32.2425 9.52C32.2425 11.216 30.8665 12.592 29.1705 12.592ZM26.6105 30V14.64H31.7305V30H26.6105ZM40.6993 17.488C41.7552 15.28 43.4513 14.32 46.3313 14.128V19.76C45.3713 19.472 44.4433 19.504 43.5153 19.76C42.0433 20.176 40.6993 21.84 40.6993 24.336V30H35.5793V14.64H40.6993V17.488ZM63.2158 30H58.0958V28.72C57.1358 29.808 55.7278 30.512 53.9358 30.512C50.3518 30.512 48.3678 28.016 48.3678 25.168C48.3678 20.976 53.5198 19.344 58.0318 20.72C57.9678 19.376 57.0718 18.352 55.2798 18.352C54.0638 18.352 52.5918 18.832 51.6958 19.344L50.1598 15.664C51.3438 14.896 53.5518 14.128 56.0478 14.128C59.7918 14.128 63.2158 16.24 63.2158 22V30ZM58.0958 23.92C55.6958 23.184 53.4878 23.536 53.4878 25.264C53.4878 26.256 54.3198 26.928 55.3118 26.928C56.4638 26.928 57.8718 25.968 58.0958 23.92ZM83.8767 26.032C85.4128 26.032 86.7888 25.424 87.7168 24.56L90.3408 27.984C88.6448 29.616 86.5328 30.512 84.0688 30.512C78.7248 30.512 75.4928 26.864 75.4928 22.32C75.4928 17.776 78.7248 14.128 84.0688 14.128C86.2768 14.128 90.1808 15.184 91.3647 20.272L82.2768 25.712C82.6608 25.936 83.2688 26.032 83.8767 26.032ZM84.0688 18.608C81.8928 18.608 80.1008 20.208 80.4208 22.608L85.7328 19.44C85.4768 19.024 84.9008 18.608 84.0688 18.608ZM93.423 6.448H98.543V30H93.423V6.448ZM113.897 30V19.248H111.337V14.64H113.897V10.032L119.017 8.496V14.64H123.113V19.248H119.017V30H113.897ZM131.293 17.488C132.349 15.28 134.045 14.32 136.925 14.128V19.76C135.965 19.472 135.037 19.504 134.109 19.76C132.637 20.176 131.293 21.84 131.293 24.336V30H126.173V14.64H131.293V17.488ZM153.81 30H148.69V28.72C147.73 29.808 146.322 30.512 144.53 30.512C140.946 30.512 138.962 28.016 138.962 25.168C138.962 20.976 144.114 19.344 148.626 20.72C148.562 19.376 147.666 18.352 145.874 18.352C144.658 18.352 143.186 18.832 142.29 19.344L140.754 15.664C141.938 14.896 144.146 14.128 146.642 14.128C150.386 14.128 153.81 16.24 153.81 22V30ZM148.69 23.92C146.29 23.184 144.082 23.536 144.082 25.264C144.082 26.256 144.914 26.928 145.906 26.928C147.058 26.928 148.466 25.968 148.69 23.92ZM159.702 12.592C158.006 12.592 156.63 11.216 156.63 9.52C156.63 7.824 158.006 6.448 159.702 6.448C161.398 6.448 162.774 7.824 162.774 9.52C162.774 11.216 161.398 12.592 159.702 12.592ZM157.142 30V14.64H162.262V30H157.142ZM166.111 6.448H171.231V30H166.111V6.448ZM182.189 26.032C183.725 26.032 185.101 25.424 186.029 24.56L188.653 27.984C186.957 29.616 184.845 30.512 182.381 30.512C177.037 30.512 173.805 26.864 173.805 22.32C173.805 17.776 177.037 14.128 182.381 14.128C184.589 14.128 188.493 15.184 189.677 20.272L180.589 25.712C180.973 25.936 181.581 26.032 182.189 26.032ZM182.381 18.608C180.205 18.608 178.413 20.208 178.733 22.608L184.045 19.44C183.789 19.024 183.213 18.608 182.381 18.608ZM196.856 17.488C197.911 15.28 199.608 14.32 202.488 14.128V19.76C201.528 19.472 200.6 19.504 199.672 19.76C198.2 20.176 196.856 21.84 196.856 24.336V30H191.736V14.64H196.856V17.488ZM229.091 30H223.971V28.72C223.011 29.808 221.603 30.512 219.811 30.512C216.227 30.512 214.243 28.016 214.243 25.168C214.243 20.976 219.395 19.344 223.907 20.72C223.843 19.376 222.947 18.352 221.155 18.352C219.939 18.352 218.467 18.832 217.571 19.344L216.035 15.664C217.219 14.896 219.427 14.128 221.923 14.128C225.667 14.128 229.091 16.24 229.091 22V30ZM223.971 23.92C221.571 23.184 219.363 23.536 219.363 25.264C219.363 26.256 220.195 26.928 221.187 26.928C222.339 26.928 223.747 25.968 223.971 23.92ZM243.937 14.64H249.057V38.192H243.937V28.464C242.785 29.84 241.121 30.512 239.361 30.512C234.977 30.512 231.649 26.864 231.649 22.32C231.649 17.776 234.977 14.128 239.361 14.128C241.121 14.128 242.785 14.8 243.937 16.176V14.64ZM240.353 25.904C242.337 25.904 243.937 24.304 243.937 22.32C243.937 20.336 242.337 18.736 240.353 18.736C238.369 18.736 236.769 20.336 236.769 22.32C236.769 24.304 238.369 25.904 240.353 25.904ZM258.524 30.512C255.292 30.512 252.38 28.144 252.38 23.344V14.64H257.5V22.832C257.5 25.392 258.94 25.904 260.06 25.904C261.116 25.904 262.62 24.944 262.62 22.32V14.64H267.74V30H262.62V28.464C261.852 29.648 260.38 30.512 258.524 30.512ZM271.579 12.592L273.627 7.472H277.723L274.651 12.592H271.579ZM271.579 30V14.64H276.699V30H271.579Z" fill="#523621"/>
<path fill-rule="evenodd" clip-rule="evenodd" d="M250.75 112.672C250.385 113.086 250.424 113.718 250.838 114.083C251.253 114.449 251.884 114.409 252.25 113.995L269.574 94.3607C269.832 94.1798 270 93.8805 270 93.5419C270 93.5348 270 93.5278 270 93.5208C270.005 93.2769 269.921 93.0316 269.748 92.8368L252.248 73.087C251.882 72.6736 251.25 72.6354 250.837 73.0017C250.423 73.368 250.385 74 250.752 74.4133L266.815 92.5419H241C222.334 92.5419 207 75.3873 207 53.9585L207 50.0002C207 49.4479 206.552 49.0002 206 49.0002C205.448 49.0002 205 49.4479 205 50.0002V53.9585C205 76.2535 221.005 94.5419 241 94.5419H266.747L250.75 112.672Z" fill="#E91D24"/>
</svg>
