<svg width="279" height="63" viewBox="0 0 279 63" fill="none" xmlns="http://www.w3.org/2000/svg">
<path d="M22.528 19.3306V42.3706H17.408V31.3626L12.288 37.2506L7.168 31.3626V42.3706H2.048V19.3306L12.288 30.3386L22.528 19.3306ZM29.1705 24.9626C27.4745 24.9626 26.0985 23.5866 26.0985 21.8906C26.0985 20.1946 27.4745 18.8186 29.1705 18.8186C30.8665 18.8186 32.2425 20.1946 32.2425 21.8906C32.2425 23.5866 30.8665 24.9626 29.1705 24.9626ZM26.6105 42.3706V27.0106H31.7305V42.3706H26.6105ZM40.6993 29.8586C41.7552 27.6506 43.4513 26.6906 46.3313 26.4986V32.1306C45.3713 31.8426 44.4433 31.8746 43.5153 32.1306C42.0433 32.5466 40.6993 34.2106 40.6993 36.7066V42.3706H35.5793V27.0106H40.6993V29.8586ZM63.2158 42.3706H58.0958V41.0906C57.1358 42.1786 55.7278 42.8826 53.9358 42.8826C50.3518 42.8826 48.3678 40.3866 48.3678 37.5386C48.3678 33.3466 53.5198 31.7146 58.0318 33.0906C57.9678 31.7466 57.0718 30.7226 55.2798 30.7226C54.0638 30.7226 52.5918 31.2026 51.6958 31.7146L50.1598 28.0346C51.3438 27.2666 53.5518 26.4986 56.0478 26.4986C59.7918 26.4986 63.2158 28.6106 63.2158 34.3706V42.3706ZM58.0958 36.2906C55.6958 35.5546 53.4878 35.9066 53.4878 37.6346C53.4878 38.6266 54.3198 39.2986 55.3118 39.2986C56.4638 39.2986 57.8718 38.3386 58.0958 36.2906ZM83.8767 38.4026C85.4128 38.4026 86.7888 37.7946 87.7168 36.9306L90.3408 40.3546C88.6448 41.9866 86.5328 42.8826 84.0688 42.8826C78.7248 42.8826 75.4928 39.2346 75.4928 34.6906C75.4928 30.1466 78.7248 26.4986 84.0688 26.4986C86.2768 26.4986 90.1808 27.5546 91.3647 32.6426L82.2768 38.0826C82.6608 38.3066 83.2688 38.4026 83.8767 38.4026ZM84.0688 30.9786C81.8928 30.9786 80.1008 32.5786 80.4208 34.9786L85.7328 31.8106C85.4768 31.3946 84.9008 30.9786 84.0688 30.9786ZM93.423 18.8186H98.543V42.3706H93.423V18.8186ZM113.897 42.3706V31.6186H111.337V27.0106H113.897V22.4026L119.017 20.8666V27.0106H123.113V31.6186H119.017V42.3706H113.897ZM131.293 29.8586C132.349 27.6506 134.045 26.6906 136.925 26.4986V32.1306C135.965 31.8426 135.037 31.8746 134.109 32.1306C132.637 32.5466 131.293 34.2106 131.293 36.7066V42.3706H126.173V27.0106H131.293V29.8586ZM153.81 42.3706H148.69V41.0906C147.73 42.1786 146.322 42.8826 144.53 42.8826C140.946 42.8826 138.962 40.3866 138.962 37.5386C138.962 33.3466 144.114 31.7146 148.626 33.0906C148.562 31.7466 147.666 30.7226 145.874 30.7226C144.658 30.7226 143.186 31.2026 142.29 31.7146L140.754 28.0346C141.938 27.2666 144.146 26.4986 146.642 26.4986C150.386 26.4986 153.81 28.6106 153.81 34.3706V42.3706ZM148.69 36.2906C146.29 35.5546 144.082 35.9066 144.082 37.6346C144.082 38.6266 144.914 39.2986 145.906 39.2986C147.058 39.2986 148.466 38.3386 148.69 36.2906ZM159.702 24.9626C158.006 24.9626 156.63 23.5866 156.63 21.8906C156.63 20.1946 158.006 18.8186 159.702 18.8186C161.398 18.8186 162.774 20.1946 162.774 21.8906C162.774 23.5866 161.398 24.9626 159.702 24.9626ZM157.142 42.3706V27.0106H162.262V42.3706H157.142ZM166.111 18.8186H171.231V42.3706H166.111V18.8186ZM182.189 38.4026C183.725 38.4026 185.101 37.7946 186.029 36.9306L188.653 40.3546C186.957 41.9866 184.845 42.8826 182.381 42.8826C177.037 42.8826 173.805 39.2346 173.805 34.6906C173.805 30.1466 177.037 26.4986 182.381 26.4986C184.589 26.4986 188.493 27.5546 189.677 32.6426L180.589 38.0826C180.973 38.3066 181.581 38.4026 182.189 38.4026ZM182.381 30.9786C180.205 30.9786 178.413 32.5786 178.733 34.9786L184.045 31.8106C183.789 31.3946 183.213 30.9786 182.381 30.9786ZM196.856 29.8586C197.911 27.6506 199.608 26.6906 202.488 26.4986V32.1306C201.528 31.8426 200.6 31.8746 199.672 32.1306C198.2 32.5466 196.856 34.2106 196.856 36.7066V42.3706H191.736V27.0106H196.856V29.8586ZM229.091 42.3706H223.971V41.0906C223.011 42.1786 221.603 42.8826 219.811 42.8826C216.227 42.8826 214.243 40.3866 214.243 37.5386C214.243 33.3466 219.395 31.7146 223.907 33.0906C223.843 31.7466 222.947 30.7226 221.155 30.7226C219.939 30.7226 218.467 31.2026 217.571 31.7146L216.035 28.0346C217.219 27.2666 219.427 26.4986 221.923 26.4986C225.667 26.4986 229.091 28.6106 229.091 34.3706V42.3706ZM223.971 36.2906C221.571 35.5546 219.363 35.9066 219.363 37.6346C219.363 38.6266 220.195 39.2986 221.187 39.2986C222.339 39.2986 223.747 38.3386 223.971 36.2906ZM243.937 27.0106H249.057V50.5626H243.937V40.8346C242.785 42.2106 241.121 42.8826 239.361 42.8826C234.977 42.8826 231.649 39.2346 231.649 34.6906C231.649 30.1466 234.977 26.4986 239.361 26.4986C241.121 26.4986 242.785 27.1706 243.937 28.5466V27.0106ZM240.353 38.2746C242.337 38.2746 243.937 36.6746 243.937 34.6906C243.937 32.7066 242.337 31.1066 240.353 31.1066C238.369 31.1066 236.769 32.7066 236.769 34.6906C236.769 36.6746 238.369 38.2746 240.353 38.2746ZM258.524 42.8826C255.292 42.8826 252.38 40.5146 252.38 35.7146V27.0106H257.5V35.2026C257.5 37.7626 258.94 38.2746 260.06 38.2746C261.116 38.2746 262.62 37.3146 262.62 34.6906V27.0106H267.74V42.3706H262.62V40.8346C261.852 42.0186 260.38 42.8826 258.524 42.8826ZM271.579 24.9626L273.627 19.8426H277.723L274.651 24.9626H271.579ZM271.579 42.3706V27.0106H276.699V42.3706H271.579Z" fill="#523621"/>
</svg>
