<svg width="456" height="171" viewBox="0 0 456 171" fill="none" xmlns="http://www.w3.org/2000/svg">
<rect width="456" height="171" rx="23" fill="#676767" fill-opacity="0.61"/>
<path d="M220.708 68.4534V47.5467C220.709 47.2851 220.78 47.0285 220.913 46.8037C221.047 46.5789 221.239 46.3941 221.468 46.2689C221.698 46.1436 221.957 46.0824 222.218 46.0917C222.48 46.101 222.734 46.1805 222.954 46.3217L239.217 56.7721C239.423 56.9041 239.593 57.0857 239.71 57.3003C239.828 57.5148 239.889 57.7555 239.889 58.0001C239.889 58.2446 239.828 58.4853 239.71 58.6999C239.593 58.9144 239.423 59.096 239.217 59.228L222.954 69.6813C222.734 69.8226 222.48 69.902 222.218 69.9113C221.957 69.9206 221.698 69.8594 221.468 69.7341C221.239 69.6089 221.047 69.4242 220.913 69.1994C220.78 68.9745 220.709 68.7179 220.708 68.4563V68.4534Z" fill="white"/>
<path d="M195.917 58.0001C195.917 40.2813 210.281 25.9167 228 25.9167C245.719 25.9167 260.083 40.2813 260.083 58.0001C260.083 75.7188 245.719 90.0834 228 90.0834C210.281 90.0834 195.917 75.7188 195.917 58.0001ZM228 30.2917C220.651 30.2917 213.604 33.211 208.407 38.4073C203.211 43.6037 200.292 50.6514 200.292 58.0001C200.292 65.3488 203.211 72.3965 208.407 77.5928C213.604 82.7891 220.651 85.7084 228 85.7084C235.349 85.7084 242.396 82.7891 247.593 77.5928C252.789 72.3965 255.708 65.3488 255.708 58.0001C255.708 50.6514 252.789 43.6037 247.593 38.4073C242.396 33.211 235.349 30.2917 228 30.2917Z" fill="white"/>
<path d="M91.216 116.704C89.232 120.736 88.144 125.728 88.144 129.76C88.144 133.792 89.232 138.784 91.216 142.816L87.376 145.12C84.464 140 83.536 134.144 83.536 129.76C83.536 125.376 84.464 119.52 87.376 114.4L91.216 116.704ZM100.378 117.472C106.458 117.472 109.146 121.248 109.146 125.408C109.146 129.568 106.202 133.6 100.89 133.6H99.418V140H94.298V117.472H100.378ZM100.346 128.992C102.554 128.992 104.026 127.488 104.026 125.536C104.026 123.36 102.554 122.08 100.346 122.08H99.418V128.992H100.346ZM112.204 116.448H117.324V140H112.204V116.448ZM134.997 140H129.877V138.72C128.917 139.808 127.509 140.512 125.717 140.512C122.133 140.512 120.149 138.016 120.149 135.168C120.149 130.976 125.301 129.344 129.813 130.72C129.749 129.376 128.853 128.352 127.061 128.352C125.845 128.352 124.373 128.832 123.477 129.344L121.941 125.664C123.125 124.896 125.333 124.128 127.829 124.128C131.573 124.128 134.997 126.24 134.997 132V140ZM129.877 133.92C127.477 133.184 125.269 133.536 125.269 135.264C125.269 136.256 126.101 136.928 127.093 136.928C128.245 136.928 129.653 135.968 129.877 133.92ZM146.387 135.904C147.539 135.904 148.563 135.392 149.267 134.56L151.891 137.984C150.387 139.616 148.339 140.512 146.131 140.512C140.787 140.512 137.555 136.864 137.555 132.32C137.555 127.776 140.787 124.128 146.131 124.128C148.339 124.128 150.387 125.024 151.891 126.656L149.267 130.08C148.563 129.248 147.539 128.736 146.387 128.736C144.275 128.736 142.675 130.336 142.675 132.32C142.675 134.304 144.275 135.904 146.387 135.904ZM161.814 136.032C163.35 136.032 164.726 135.424 165.654 134.56L168.278 137.984C166.582 139.616 164.47 140.512 162.006 140.512C156.662 140.512 153.43 136.864 153.43 132.32C153.43 127.776 156.662 124.128 162.006 124.128C164.214 124.128 168.118 125.184 169.302 130.272L160.214 135.712C160.598 135.936 161.206 136.032 161.814 136.032ZM162.006 128.608C159.83 128.608 158.038 130.208 158.358 132.608L163.67 129.44C163.414 129.024 162.838 128.608 162.006 128.608ZM180.577 124.128C183.809 124.128 186.721 126.496 186.721 131.296V140H181.601V131.808C181.601 129.248 180.161 128.736 179.041 128.736C177.985 128.736 176.481 129.696 176.481 132.32V140H171.361V116.448H176.481V126.176C177.249 124.992 178.72 124.128 180.577 124.128ZM197.978 124.128C202.842 124.128 206.682 127.776 206.682 132.32C206.682 136.864 202.906 140.512 197.978 140.512C192.826 140.512 189.274 136.864 189.274 132.32C189.274 127.776 192.762 124.128 197.978 124.128ZM197.978 135.904C199.962 135.904 201.562 134.304 201.562 132.32C201.562 130.336 199.962 128.736 197.978 128.736C195.994 128.736 194.394 130.336 194.394 132.32C194.394 134.304 195.994 135.904 197.978 135.904ZM209.267 116.448H214.387V140H209.267V116.448ZM229.5 116.448H234.62V140H229.5V138.464C228.348 139.84 226.684 140.512 224.924 140.512C220.54 140.512 217.212 136.864 217.212 132.32C217.212 127.776 220.54 124.128 224.924 124.128C226.684 124.128 228.348 124.8 229.5 126.176V116.448ZM225.916 135.904C227.9 135.904 229.5 134.304 229.5 132.32C229.5 130.336 227.9 128.736 225.916 128.736C223.932 128.736 222.332 130.336 222.332 132.32C222.332 134.304 223.932 135.904 225.916 135.904ZM245.564 136.032C247.1 136.032 248.476 135.424 249.404 134.56L252.028 137.984C250.332 139.616 248.22 140.512 245.756 140.512C240.412 140.512 237.18 136.864 237.18 132.32C237.18 127.776 240.412 124.128 245.756 124.128C247.964 124.128 251.868 125.184 253.052 130.272L243.964 135.712C244.348 135.936 244.956 136.032 245.564 136.032ZM245.756 128.608C243.58 128.608 241.788 130.208 242.108 132.608L247.42 129.44C247.164 129.024 246.588 128.608 245.756 128.608ZM260.231 127.488C261.286 125.28 262.983 124.32 265.863 124.128V129.76C264.903 129.472 263.975 129.504 263.047 129.76C261.575 130.176 260.231 131.84 260.231 134.336V140H255.111V124.64H260.231V127.488ZM292.466 117.472H298.098L287.346 140.512L276.594 117.472H282.226L287.346 129.504L292.466 117.472ZM302.452 122.592C300.756 122.592 299.38 121.216 299.38 119.52C299.38 117.824 300.756 116.448 302.452 116.448C304.148 116.448 305.524 117.824 305.524 119.52C305.524 121.216 304.148 122.592 302.452 122.592ZM299.892 140V124.64H305.012V140H299.892ZM320.125 116.448H325.245V140H320.125V138.464C318.973 139.84 317.309 140.512 315.549 140.512C311.165 140.512 307.837 136.864 307.837 132.32C307.837 127.776 311.165 124.128 315.549 124.128C317.309 124.128 318.973 124.8 320.125 126.176V116.448ZM316.541 135.904C318.525 135.904 320.125 134.304 320.125 132.32C320.125 130.336 318.525 128.736 316.541 128.736C314.557 128.736 312.957 130.336 312.957 132.32C312.957 134.304 314.557 135.904 316.541 135.904ZM336.189 136.032C337.725 136.032 339.101 135.424 340.029 134.56L342.653 137.984C340.957 139.616 338.845 140.512 336.381 140.512C331.037 140.512 327.805 136.864 327.805 132.32C327.805 127.776 331.037 124.128 336.381 124.128C338.589 124.128 342.493 125.184 343.677 130.272L334.589 135.712C334.973 135.936 335.581 136.032 336.189 136.032ZM336.381 128.608C334.205 128.608 332.413 130.208 332.733 132.608L338.045 129.44C337.789 129.024 337.213 128.608 336.381 128.608ZM353.916 124.128C358.78 124.128 362.62 127.776 362.62 132.32C362.62 136.864 358.844 140.512 353.916 140.512C348.764 140.512 345.212 136.864 345.212 132.32C345.212 127.776 348.7 124.128 353.916 124.128ZM353.916 135.904C355.9 135.904 357.5 134.304 357.5 132.32C357.5 130.336 355.9 128.736 353.916 128.736C351.932 128.736 350.332 130.336 350.332 132.32C350.332 134.304 351.932 135.904 353.916 135.904ZM364.68 116.704L368.52 114.4C371.432 119.52 372.36 125.376 372.36 129.76C372.36 134.144 371.432 140 368.52 145.12L364.68 142.816C366.664 138.784 367.752 133.792 367.752 129.76C367.752 125.728 366.664 120.736 364.68 116.704Z" fill="white"/>
</svg>
