<svg width="761" height="123" viewBox="0 0 761 123" fill="none" xmlns="http://www.w3.org/2000/svg">
<path d="M33.8149 63.48C29.6009 63.48 26.2469 60.126 26.2469 55.912C26.2469 51.698 29.6009 48.344 33.8149 48.344C38.0289 48.344 41.3829 51.698 41.3829 55.912C41.3829 60.126 38.0289 63.48 33.8149 63.48ZM34.5029 111.64C20.8289 111.64 14.5509 102.782 14.5509 94.44C14.5509 86.528 19.3669 82.228 24.0109 77.928C26.5049 75.606 28.2249 73.37 28.3109 68.984H39.3189C39.4909 72.424 39.0609 76.38 36.5669 80.25C33.2129 85.41 28.3109 87.646 28.3109 93.236C28.3109 96.418 31.3209 99.256 35.1049 99.256C38.6309 99.256 40.9529 97.364 42.4149 95.3L50.3269 103.814C47.9189 107.34 42.4149 111.64 34.5029 111.64ZM121.855 60.728C121.855 67.436 119.705 73.714 116.007 78.874C118.243 82.4 120.221 86.442 121.855 91H108.439C108.009 89.71 107.579 88.506 106.977 87.388C101.989 90.57 95.9687 92.376 89.5187 92.376C71.6307 92.376 57.1827 78.186 57.1827 60.728C57.1827 43.27 71.6307 29.08 89.5187 29.08C107.407 29.08 121.855 43.27 121.855 60.728ZM89.5187 41.464C79.4567 41.464 71.2007 49.806 70.9427 60.212C84.5307 57.288 97.0007 59.696 106.719 67.952C107.579 65.716 108.095 63.308 108.095 60.728C108.095 50.064 99.7527 41.464 89.5187 41.464ZM73.7807 70.876C77.0487 76.38 82.8967 79.992 89.5187 79.992C93.1307 79.992 96.5707 78.874 99.4087 76.982C93.1307 71.392 84.2727 68.64 73.7807 70.876ZM145.282 92.376C136.596 92.376 128.77 86.012 128.77 73.112V49.72H142.53V71.736C142.53 78.616 146.4 79.992 149.41 79.992C152.248 79.992 156.29 77.412 156.29 70.36V49.72H170.05V91H156.29V86.872C154.226 90.054 150.27 92.376 145.282 92.376ZM187.248 44.216C182.69 44.216 178.992 40.518 178.992 35.96C178.992 31.402 182.69 27.704 187.248 27.704C191.806 27.704 195.504 31.402 195.504 35.96C195.504 40.518 191.806 44.216 187.248 44.216ZM180.368 91V49.72H194.128V91H180.368ZM216.184 44.216L221.688 30.456H232.696L224.44 44.216H216.184ZM223.58 80.336C227.708 80.336 231.406 78.702 233.9 76.38L240.952 85.582C236.394 89.968 230.718 92.376 224.096 92.376C209.734 92.376 201.048 82.572 201.048 70.36C201.048 58.148 209.734 48.344 224.096 48.344C230.03 48.344 240.522 51.182 243.704 64.856L219.28 79.476C220.312 80.078 221.946 80.336 223.58 80.336ZM224.096 60.384C218.248 60.384 213.432 64.684 214.292 71.134L228.568 62.62C227.88 61.502 226.332 60.384 224.096 60.384ZM274.003 48.344C282.689 48.344 290.515 54.708 290.515 67.608V91H276.755V68.984C276.755 62.104 272.885 60.728 269.875 60.728C267.037 60.728 262.995 63.308 262.995 70.36V91H249.235V49.72H262.995V53.848C265.059 50.666 269.015 48.344 274.003 48.344ZM346.029 80.336C350.157 80.336 353.855 78.702 356.349 76.38L363.401 85.582C358.843 89.968 353.167 92.376 346.545 92.376C332.183 92.376 323.497 82.572 323.497 70.36C323.497 58.148 332.183 48.344 346.545 48.344C352.479 48.344 362.971 51.182 366.153 64.856L341.729 79.476C342.761 80.078 344.395 80.336 346.029 80.336ZM346.545 60.384C340.697 60.384 335.881 64.684 336.741 71.134L351.017 62.62C350.329 61.502 348.781 60.384 346.545 60.384ZM390.4 63.738C400.118 65.372 407.428 69.5 407.428 77.928C407.428 85.926 401.15 92.376 388.336 92.376C378.876 92.376 372.34 88.076 370.276 86.012L375.78 75.692C379.908 79.046 383.778 80.25 386.358 80.508C391.26 81.024 393.668 80.164 393.668 78.53C393.668 76.552 391.346 76.294 387.39 75.52C373.716 72.854 372.34 66.49 372.34 61.76C372.34 54.794 378.274 48.344 389.798 48.344C389.798 48.344 397.624 48.344 404.074 52.644L398.828 62.878C396.936 61.416 394.184 60.04 390.744 59.782C387.82 59.524 386.1 60.212 386.1 61.33C386.1 62.706 386.96 63.136 390.4 63.738ZM478.964 91L476.126 84.12H454.282L451.444 91H436.308L465.204 29.08L494.1 91H478.964ZM459.27 71.736H471.138L465.204 57.288L459.27 71.736ZM513.353 57.374C516.191 51.44 520.749 48.86 528.489 48.344V63.48C525.909 62.706 523.415 62.792 520.921 63.48C516.965 64.598 513.353 69.07 513.353 75.778V91H499.593V49.72H513.353V57.374ZM541.514 91V62.104H534.634V49.72H541.514V37.336L555.274 33.208V49.72H566.282V62.104H555.274V91H541.514ZM599.275 48.344C607.961 48.344 615.787 54.708 615.787 67.608V91H602.027V68.984C602.027 62.104 598.157 60.728 595.147 60.728C592.309 60.728 588.267 63.308 588.267 70.36V91H574.507V27.704H588.267V53.848C590.331 50.666 594.287 48.344 599.275 48.344ZM639.866 92.376C631.18 92.376 623.354 86.012 623.354 73.112V49.72H637.114V71.736C637.114 78.616 640.984 79.992 643.994 79.992C646.832 79.992 650.874 77.412 650.874 70.36V49.72H664.634V91H650.874V86.872C648.81 90.054 644.854 92.376 639.866 92.376ZM688.712 57.374C691.55 51.44 696.108 48.86 703.848 48.344V63.48C701.268 62.706 698.774 62.792 696.28 63.48C692.324 64.598 688.712 69.07 688.712 75.778V91H674.952V49.72H688.712V57.374ZM726.521 29.08C740.195 29.08 746.473 37.938 746.473 46.28C746.473 54.192 741.657 58.492 737.013 62.792C734.519 65.114 732.799 67.35 732.713 71.736H721.705C721.533 68.296 721.963 64.34 724.457 60.47C727.811 55.31 732.713 53.074 732.713 47.484C732.713 44.302 729.703 41.464 725.919 41.464C722.393 41.464 720.071 43.356 718.609 45.42L710.697 36.906C713.105 33.38 718.609 29.08 726.521 29.08ZM727.209 77.24C731.423 77.24 734.777 80.594 734.777 84.808C734.777 89.022 731.423 92.376 727.209 92.376C722.995 92.376 719.641 89.022 719.641 84.808C719.641 80.594 722.995 77.24 727.209 77.24Z" fill="#523621"/>
</svg>
