<svg width="304" height="92" viewBox="0 0 304 92" fill="none" xmlns="http://www.w3.org/2000/svg">
<rect width="304" height="92" rx="8" fill="#E91D24"/>
<path d="M30.8191 12.144V13.376H27.4591V16.904H29.9231V18.136H27.4591V20.768H30.8191V22H26.1151V12.144H30.8191ZM35.9497 15.616C36.7523 15.616 37.3683 15.882 37.7977 16.414C38.227 16.946 38.4417 17.7067 38.4417 18.696V22H37.0977V18.696C37.0977 18.0707 36.9857 17.6087 36.7617 17.31C36.547 17.002 36.1923 16.848 35.6977 16.848C35.2683 16.848 34.909 17.03 34.6197 17.394C34.3303 17.7487 34.1857 18.2013 34.1857 18.752V22H32.8417V15.728H34.1857V16.512C34.3163 16.2693 34.5403 16.0593 34.8577 15.882C35.175 15.7047 35.539 15.616 35.9497 15.616ZM49.528 18.416L47.624 20.768H51.208V22H44.936L47.708 18.584C48.5667 17.548 49.1407 16.792 49.43 16.316C49.7194 15.8493 49.864 15.4153 49.864 15.014C49.864 14.51 49.696 14.0947 49.36 13.768C49.0334 13.432 48.604 13.264 48.072 13.264C47.5494 13.264 47.12 13.432 46.784 13.768C46.448 14.104 46.28 14.5287 46.28 15.042C46.28 15.2287 46.3174 15.4387 46.392 15.672C46.476 15.9053 46.574 16.078 46.686 16.19L45.58 16.82C45.1507 16.3253 44.936 15.7327 44.936 15.042C44.936 14.202 45.2347 13.488 45.832 12.9C46.4294 12.3213 47.176 12.032 48.072 12.032C48.968 12.032 49.7194 12.312 50.326 12.872C50.914 13.4413 51.208 14.1647 51.208 15.042C51.208 15.6767 51.0027 16.316 50.592 16.96C50.5267 17.0533 50.4567 17.156 50.382 17.268C50.3167 17.38 50.2607 17.4687 50.214 17.534C50.1674 17.5993 50.13 17.6507 50.102 17.688C49.906 17.94 49.7147 18.1827 49.528 18.416ZM54.1924 13.488C54.9951 12.5173 56.0171 12.032 57.2584 12.032C58.4998 12.032 59.5218 12.5173 60.3244 13.488C61.1178 14.4493 61.5144 15.644 61.5144 17.072C61.5144 18.5 61.1178 19.6947 60.3244 20.656C59.5218 21.6267 58.4998 22.112 57.2584 22.112C55.9984 22.112 54.9764 21.6267 54.1924 20.656C53.3991 19.6947 53.0024 18.5 53.0024 17.072C53.0024 15.644 53.3991 14.4493 54.1924 13.488ZM55.2004 19.76C55.7791 20.5067 56.4651 20.88 57.2584 20.88C58.0518 20.88 58.7378 20.5067 59.3164 19.76C59.8858 19.0227 60.1704 18.1267 60.1704 17.072C60.1704 16.008 59.8858 15.1073 59.3164 14.37C58.7471 13.6327 58.0611 13.264 57.2584 13.264C56.4558 13.264 55.7698 13.6327 55.2004 14.37C54.6311 15.1073 54.3464 16.008 54.3464 17.072C54.3464 18.1267 54.6311 19.0227 55.2004 19.76ZM63.087 14.496V13.152L65.999 11.92V22H64.655V13.838L63.087 14.496ZM72.2733 19.928H68.2413L71.4333 12.144H72.8613L70.2433 18.696H72.2733V16.4H73.6173V18.696H74.9613V19.928H73.6173V22H72.2733V19.928ZM77.9825 23.568H76.9745V20.432H78.5425L77.9825 23.568ZM89.9636 16.512V11.696H91.3076V22H89.9636V21.216C89.4503 21.8133 88.7783 22.112 87.9476 22.112C87.0796 22.112 86.3423 21.7947 85.7356 21.16C85.1196 20.5253 84.8116 19.76 84.8116 18.864C84.8116 17.968 85.1196 17.2027 85.7356 16.568C86.3423 15.9333 87.0796 15.616 87.9476 15.616C88.7783 15.616 89.4503 15.9147 89.9636 16.512ZM86.7156 20.292C87.0796 20.684 87.5276 20.88 88.0596 20.88C88.5823 20.88 89.035 20.684 89.4176 20.292C89.7816 19.9 89.9636 19.424 89.9636 18.864C89.9636 18.304 89.7816 17.828 89.4176 17.436C89.035 17.044 88.5823 16.848 88.0596 16.848C87.5276 16.848 87.0796 17.044 86.7156 17.436C86.3423 17.8187 86.1556 18.2947 86.1556 18.864C86.1556 19.4333 86.3423 19.9093 86.7156 20.292ZM95.7034 22.112C94.9008 22.112 94.2848 21.846 93.8554 21.314C93.4261 20.782 93.2114 20.0213 93.2114 19.032V15.728H94.5554V19.144C94.5554 20.3013 95.0221 20.88 95.9554 20.88C96.3848 20.88 96.7441 20.6933 97.0334 20.32C97.3228 19.9467 97.4674 19.4613 97.4674 18.864V15.728H98.8114V22H97.4674V21.216C97.3368 21.4587 97.1128 21.6687 96.7954 21.846C96.4781 22.0233 96.1141 22.112 95.7034 22.112ZM102.285 15.728V16.722C102.705 15.9847 103.452 15.616 104.525 15.616V17.044C104.115 16.96 103.741 16.9787 103.405 17.1C102.659 17.3707 102.285 18.066 102.285 19.186V22H100.941V15.728H102.285ZM111.015 19.06V22H109.671V21.188C109.148 21.804 108.5 22.112 107.725 22.112C107.053 22.112 106.502 21.9113 106.073 21.51C105.634 21.118 105.415 20.614 105.415 19.998C105.415 19.41 105.63 18.9293 106.059 18.556C106.498 18.1827 107.025 17.982 107.641 17.954C108.266 17.926 108.929 18.052 109.629 18.332C109.573 17.3427 109.102 16.848 108.215 16.848C107.683 16.848 107.198 16.9833 106.759 17.254L106.199 16.288C106.787 15.84 107.478 15.616 108.271 15.616C110.1 15.616 111.015 16.764 111.015 19.06ZM109.671 19.438C109.354 19.2513 108.962 19.144 108.495 19.116C108.028 19.088 107.618 19.158 107.263 19.326C106.918 19.4847 106.75 19.7227 106.759 20.04C106.759 20.2827 106.857 20.4833 107.053 20.642C107.258 20.8007 107.524 20.88 107.851 20.88C108.28 20.88 108.677 20.74 109.041 20.46C109.405 20.18 109.615 19.8393 109.671 19.438ZM116.026 15.616C116.829 15.616 117.445 15.882 117.874 16.414C118.303 16.946 118.518 17.7067 118.518 18.696V22H117.174V18.696C117.174 18.0707 117.062 17.6087 116.838 17.31C116.623 17.002 116.269 16.848 115.774 16.848C115.345 16.848 114.985 17.03 114.696 17.394C114.407 17.7487 114.262 18.2013 114.262 18.752V22H112.918V15.728H114.262V16.512C114.393 16.2693 114.617 16.0593 114.934 15.882C115.251 15.7047 115.615 15.616 116.026 15.616ZM122.44 22H121.096V16.96H119.976V15.728H121.096V13.264L122.44 12.816V15.728H124.232V16.96H122.44V22ZM128.378 20.88C128.929 20.88 129.447 20.6373 129.932 20.152L130.702 21.132C130.077 21.7853 129.302 22.112 128.378 22.112C127.482 22.112 126.717 21.7947 126.082 21.16C125.447 20.5253 125.13 19.76 125.13 18.864C125.13 17.968 125.447 17.2027 126.082 16.568C126.717 15.9333 127.482 15.616 128.378 15.616C129.078 15.616 129.675 15.8167 130.17 16.218C130.665 16.61 131.001 17.1467 131.178 17.828L127.02 20.236C127.151 20.4227 127.342 20.5767 127.594 20.698C127.855 20.8193 128.117 20.88 128.378 20.88ZM128.378 16.848C127.874 16.848 127.431 17.0533 127.048 17.464C126.665 17.8747 126.474 18.3413 126.474 18.864C126.474 18.8827 126.483 19.004 126.502 19.228L129.61 17.436C129.311 17.044 128.901 16.848 128.378 16.848ZM140.245 20.88C140.796 20.88 141.314 20.6373 141.799 20.152L142.569 21.132C141.944 21.7853 141.169 22.112 140.245 22.112C139.349 22.112 138.584 21.7947 137.949 21.16C137.315 20.5253 136.997 19.76 136.997 18.864C136.997 17.968 137.315 17.2027 137.949 16.568C138.584 15.9333 139.349 15.616 140.245 15.616C140.945 15.616 141.543 15.8167 142.037 16.218C142.532 16.61 142.868 17.1467 143.045 17.828L138.887 20.236C139.018 20.4227 139.209 20.5767 139.461 20.698C139.723 20.8193 139.984 20.88 140.245 20.88ZM140.245 16.848C139.741 16.848 139.298 17.0533 138.915 17.464C138.533 17.8747 138.341 18.3413 138.341 18.864C138.341 18.8827 138.351 19.004 138.369 19.228L141.477 17.436C141.179 17.044 140.768 16.848 140.245 16.848ZM144.391 22V11.696H145.735V22H144.391ZM152.676 11.92L156.932 17.072L161.188 11.92V22H159.844V15.588L156.932 19.088L154.02 15.588V22H152.676V11.92ZM165.69 22.112C164.887 22.112 164.271 21.846 163.842 21.314C163.412 20.782 163.198 20.0213 163.198 19.032V15.728H164.542V19.144C164.542 20.3013 165.008 20.88 165.942 20.88C166.371 20.88 166.73 20.6933 167.02 20.32C167.309 19.9467 167.454 19.4613 167.454 18.864V15.728H168.798V22H167.454V21.216C167.323 21.4587 167.099 21.6687 166.782 21.846C166.464 22.0233 166.1 22.112 165.69 22.112ZM174.036 15.616C174.838 15.616 175.454 15.882 175.884 16.414C176.313 16.946 176.528 17.7067 176.528 18.696V22H175.184V18.696C175.184 18.0707 175.072 17.6087 174.848 17.31C174.633 17.002 174.278 16.848 173.784 16.848C173.354 16.848 172.995 17.03 172.706 17.394C172.416 17.7487 172.272 18.2013 172.272 18.752V22H170.928V15.728H172.272V16.512C172.402 16.2693 172.626 16.0593 172.944 15.882C173.261 15.7047 173.625 15.616 174.036 15.616ZM183.247 16.512V11.696H184.591V22H183.247V21.216C182.734 21.8133 182.062 22.112 181.231 22.112C180.363 22.112 179.626 21.7947 179.019 21.16C178.403 20.5253 178.095 19.76 178.095 18.864C178.095 17.968 178.403 17.2027 179.019 16.568C179.626 15.9333 180.363 15.616 181.231 15.616C182.062 15.616 182.734 15.9147 183.247 16.512ZM179.999 20.292C180.363 20.684 180.811 20.88 181.343 20.88C181.866 20.88 182.318 20.684 182.701 20.292C183.065 19.9 183.247 19.424 183.247 18.864C183.247 18.304 183.065 17.828 182.701 17.436C182.318 17.044 181.866 16.848 181.343 16.848C180.811 16.848 180.363 17.044 179.999 17.436C179.626 17.8187 179.439 18.2947 179.439 18.864C179.439 19.4333 179.626 19.9093 179.999 20.292ZM188.399 13.6C188.399 13.88 188.301 14.118 188.105 14.314C187.909 14.51 187.671 14.608 187.391 14.608C187.111 14.608 186.873 14.51 186.677 14.314C186.481 14.118 186.383 13.88 186.383 13.6C186.383 13.32 186.481 13.082 186.677 12.886C186.873 12.69 187.111 12.592 187.391 12.592C187.671 12.592 187.909 12.69 188.105 12.886C188.301 13.082 188.399 13.32 188.399 13.6ZM188.063 22H186.719V15.728H188.063V22ZM195.343 19.06V22H193.999V21.188C193.477 21.804 192.828 22.112 192.053 22.112C191.381 22.112 190.831 21.9113 190.401 21.51C189.963 21.118 189.743 20.614 189.743 19.998C189.743 19.41 189.958 18.9293 190.387 18.556C190.826 18.1827 191.353 17.982 191.969 17.954C192.595 17.926 193.257 18.052 193.957 18.332C193.901 17.3427 193.43 16.848 192.543 16.848C192.011 16.848 191.526 16.9833 191.087 17.254L190.527 16.288C191.115 15.84 191.806 15.616 192.599 15.616C194.429 15.616 195.343 16.764 195.343 19.06ZM193.999 19.438C193.682 19.2513 193.29 19.144 192.823 19.116C192.357 19.088 191.946 19.158 191.591 19.326C191.246 19.4847 191.078 19.7227 191.087 20.04C191.087 20.2827 191.185 20.4833 191.381 20.642C191.587 20.8007 191.853 20.88 192.179 20.88C192.609 20.88 193.005 20.74 193.369 20.46C193.733 20.18 193.943 19.8393 193.999 19.438ZM197.246 22V11.696H198.59V22H197.246ZM210.235 16.512V11.696H211.579V22H210.235V21.216C209.722 21.8133 209.05 22.112 208.219 22.112C207.351 22.112 206.614 21.7947 206.007 21.16C205.391 20.5253 205.083 19.76 205.083 18.864C205.083 17.968 205.391 17.2027 206.007 16.568C206.614 15.9333 207.351 15.616 208.219 15.616C209.05 15.616 209.722 15.9147 210.235 16.512ZM206.987 20.292C207.351 20.684 207.799 20.88 208.331 20.88C208.854 20.88 209.306 20.684 209.689 20.292C210.053 19.9 210.235 19.424 210.235 18.864C210.235 18.304 210.053 17.828 209.689 17.436C209.306 17.044 208.854 16.848 208.331 16.848C207.799 16.848 207.351 17.044 206.987 17.436C206.614 17.8187 206.427 18.2947 206.427 18.864C206.427 19.4333 206.614 19.9093 206.987 20.292ZM216.398 20.88C216.948 20.88 217.466 20.6373 217.952 20.152L218.722 21.132C218.096 21.7853 217.322 22.112 216.398 22.112C215.502 22.112 214.736 21.7947 214.102 21.16C213.467 20.5253 213.15 19.76 213.15 18.864C213.15 17.968 213.467 17.2027 214.102 16.568C214.736 15.9333 215.502 15.616 216.398 15.616C217.098 15.616 217.695 15.8167 218.19 16.218C218.684 16.61 219.02 17.1467 219.198 17.828L215.04 20.236C215.17 20.4227 215.362 20.5767 215.614 20.698C215.875 20.8193 216.136 20.88 216.398 20.88ZM216.398 16.848C215.894 16.848 215.45 17.0533 215.068 17.464C214.685 17.8747 214.494 18.3413 214.494 18.864C214.494 18.8827 214.503 19.004 214.522 19.228L217.63 17.436C217.331 17.044 216.92 16.848 216.398 16.848ZM233.529 22H232.073L231.457 20.6H226.641L226.025 22H224.569L229.049 11.92L233.529 22ZM229.049 15.056L227.173 19.368H230.925L229.049 15.056ZM239.353 15.728L236.329 22.224L233.305 15.728H234.761L236.329 19.2L237.897 15.728H239.353ZM243.276 20.88C243.827 20.88 244.345 20.6373 244.83 20.152L245.6 21.132C244.975 21.7853 244.2 22.112 243.276 22.112C242.38 22.112 241.615 21.7947 240.98 21.16C240.346 20.5253 240.028 19.76 240.028 18.864C240.028 17.968 240.346 17.2027 240.98 16.568C241.615 15.9333 242.38 15.616 243.276 15.616C243.976 15.616 244.574 15.8167 245.068 16.218C245.563 16.61 245.899 17.1467 246.076 17.828L241.918 20.236C242.049 20.4227 242.24 20.5767 242.492 20.698C242.754 20.8193 243.015 20.88 243.276 20.88ZM243.276 16.848C242.772 16.848 242.329 17.0533 241.946 17.464C241.564 17.8747 241.372 18.3413 241.372 18.864C241.372 18.8827 241.382 19.004 241.4 19.228L244.508 17.436C244.21 17.044 243.799 16.848 243.276 16.848ZM250.53 15.616C251.332 15.616 251.948 15.882 252.378 16.414C252.807 16.946 253.022 17.7067 253.022 18.696V22H251.678V18.696C251.678 18.0707 251.566 17.6087 251.342 17.31C251.127 17.002 250.772 16.848 250.278 16.848C249.848 16.848 249.489 17.03 249.2 17.394C248.91 17.7487 248.766 18.2013 248.766 18.752V22H247.422V15.728H248.766V16.512C248.896 16.2693 249.12 16.0593 249.438 15.882C249.755 15.7047 250.119 15.616 250.53 15.616ZM256.944 22H255.6V16.96H254.48V15.728H255.6V13.264L256.944 12.816V15.728H258.736V16.96H256.944V22ZM262.801 22.112C261.998 22.112 261.382 21.846 260.953 21.314C260.524 20.782 260.309 20.0213 260.309 19.032V15.728H261.653V19.144C261.653 20.3013 262.12 20.88 263.053 20.88C263.482 20.88 263.842 20.6933 264.131 20.32C264.42 19.9467 264.565 19.4613 264.565 18.864V15.728H265.909V22H264.565V21.216C264.434 21.4587 264.21 21.6687 263.893 21.846C263.576 22.0233 263.212 22.112 262.801 22.112ZM269.383 15.728V16.722C269.803 15.9847 270.55 15.616 271.623 15.616V17.044C271.212 16.96 270.839 16.9787 270.503 17.1C269.756 17.3707 269.383 18.066 269.383 19.186V22H268.039V15.728H269.383ZM278.113 19.06V22H276.769V21.188C276.246 21.804 275.597 22.112 274.823 22.112C274.151 22.112 273.6 21.9113 273.171 21.51C272.732 21.118 272.513 20.614 272.513 19.998C272.513 19.41 272.727 18.9293 273.157 18.556C273.595 18.1827 274.123 17.982 274.739 17.954C275.364 17.926 276.027 18.052 276.727 18.332C276.671 17.3427 276.199 16.848 275.313 16.848C274.781 16.848 274.295 16.9833 273.857 17.254L273.297 16.288C273.885 15.84 274.575 15.616 275.369 15.616C277.198 15.616 278.113 16.764 278.113 19.06ZM276.769 19.438C276.451 19.2513 276.059 19.144 275.593 19.116C275.126 19.088 274.715 19.158 274.361 19.326C274.015 19.4847 273.847 19.7227 273.857 20.04C273.857 20.2827 273.955 20.4833 274.151 20.642C274.356 20.8007 274.622 20.88 274.949 20.88C275.378 20.88 275.775 20.74 276.139 20.46C276.503 20.18 276.713 19.8393 276.769 19.438ZM26.2816 34.904V30.144H27.6256V40H26.2816V36.136H23.1456V40H21.8016V30.144H23.1456V34.904H26.2816ZM32.136 40.112C31.3334 40.112 30.7174 39.846 30.288 39.314C29.8587 38.782 29.644 38.0213 29.644 37.032V33.728H30.988V37.144C30.988 38.3013 31.4547 38.88 32.388 38.88C32.8174 38.88 33.1767 38.6933 33.466 38.32C33.7554 37.9467 33.9 37.4613 33.9 36.864V33.728H35.244V40H33.9V39.216C33.7694 39.4587 33.5454 39.6687 33.228 39.846C32.9107 40.0233 32.5467 40.112 32.136 40.112ZM42.4165 37.06V40H41.0725V39.188C40.5499 39.804 39.9012 40.112 39.1265 40.112C38.4545 40.112 37.9039 39.9113 37.4745 39.51C37.0359 39.118 36.8165 38.614 36.8165 37.998C36.8165 37.41 37.0312 36.9293 37.4605 36.556C37.8992 36.1827 38.4265 35.982 39.0425 35.954C39.6679 35.926 40.3305 36.052 41.0305 36.332C40.9745 35.3427 40.5032 34.848 39.6165 34.848C39.0845 34.848 38.5992 34.9833 38.1605 35.254L37.6005 34.288C38.1885 33.84 38.8792 33.616 39.6725 33.616C41.5019 33.616 42.4165 34.764 42.4165 37.06ZM41.0725 37.438C40.7552 37.2513 40.3632 37.144 39.8965 37.116C39.4299 37.088 39.0192 37.158 38.6645 37.326C38.3192 37.4847 38.1512 37.7227 38.1605 38.04C38.1605 38.2827 38.2585 38.4833 38.4545 38.642C38.6599 38.8007 38.9259 38.88 39.2525 38.88C39.6819 38.88 40.0785 38.74 40.4425 38.46C40.8065 38.18 41.0165 37.8393 41.0725 37.438ZM45.9992 31.6C45.9992 31.88 45.9012 32.118 45.7052 32.314C45.5092 32.51 45.2712 32.608 44.9912 32.608C44.7112 32.608 44.4732 32.51 44.2772 32.314C44.0812 32.118 43.9832 31.88 43.9832 31.6C43.9832 31.32 44.0812 31.082 44.2772 30.886C44.4732 30.69 44.7112 30.592 44.9912 30.592C45.2712 30.592 45.5092 30.69 45.7052 30.886C45.9012 31.082 45.9992 31.32 45.9992 31.6ZM45.6632 40H44.3192V33.728H45.6632V40ZM49.1359 33.728V34.722C49.5559 33.9847 50.3025 33.616 51.3759 33.616V35.044C50.9652 34.96 50.5919 34.9787 50.2559 35.1C49.5092 35.3707 49.1359 36.066 49.1359 37.186V40H47.7919V33.728H49.1359ZM57.8658 37.06V40H56.5218V39.188C55.9991 39.804 55.3504 40.112 54.5758 40.112C53.9038 40.112 53.3531 39.9113 52.9238 39.51C52.4851 39.118 52.2658 38.614 52.2658 37.998C52.2658 37.41 52.4804 36.9293 52.9098 36.556C53.3484 36.1827 53.8758 35.982 54.4918 35.954C55.1171 35.926 55.7798 36.052 56.4798 36.332C56.4238 35.3427 55.9524 34.848 55.0658 34.848C54.5338 34.848 54.0484 34.9833 53.6098 35.254L53.0498 34.288C53.6378 33.84 54.3284 33.616 55.1218 33.616C56.9511 33.616 57.8658 34.764 57.8658 37.06ZM56.5218 37.438C56.2044 37.2513 55.8124 37.144 55.3458 37.116C54.8791 37.088 54.4684 37.158 54.1138 37.326C53.7684 37.4847 53.6004 37.7227 53.6098 38.04C53.6098 38.2827 53.7078 38.4833 53.9038 38.642C54.1091 38.8007 54.3751 38.88 54.7018 38.88C55.1311 38.88 55.5278 38.74 55.8918 38.46C56.2558 38.18 56.4658 37.8393 56.5218 37.438ZM62.1318 36.08C63.4665 36.388 64.1338 37.0693 64.1338 38.124C64.1338 38.712 63.9145 39.188 63.4758 39.552C63.0371 39.9253 62.5145 40.112 61.9078 40.112C60.9651 40.112 60.1391 39.7573 59.4298 39.048L60.1018 38.068C60.6431 38.5907 61.2171 38.8613 61.8238 38.88C62.1131 38.8893 62.3465 38.824 62.5238 38.684C62.7011 38.544 62.7898 38.3807 62.7898 38.194C62.7898 37.8393 62.5005 37.5827 61.9218 37.424C61.1098 37.2 60.5451 36.9433 60.2278 36.654C59.9198 36.3647 59.7658 35.954 59.7658 35.422C59.7658 34.918 59.9571 34.4933 60.3398 34.148C60.7318 33.7933 61.2498 33.616 61.8938 33.616C62.5565 33.616 63.1585 33.8307 63.6998 34.26L63.0698 35.24C62.7245 34.9787 62.3325 34.848 61.8938 34.848C61.6511 34.848 61.4598 34.8993 61.3198 35.002C61.1798 35.1047 61.1098 35.2307 61.1098 35.38C61.1098 35.5573 61.1798 35.6973 61.3198 35.8C61.4691 35.8933 61.7398 35.9867 62.1318 36.08ZM67.4914 31.6C67.4914 31.88 67.3934 32.118 67.1974 32.314C67.0014 32.51 66.7634 32.608 66.4834 32.608C66.2034 32.608 65.9654 32.51 65.7694 32.314C65.5734 32.118 65.4754 31.88 65.4754 31.6C65.4754 31.32 65.5734 31.082 65.7694 30.886C65.9654 30.69 66.2034 30.592 66.4834 30.592C66.7634 30.592 67.0014 30.69 67.1974 30.886C67.3934 31.082 67.4914 31.32 67.4914 31.6ZM67.1554 40H65.8114V33.728H67.1554V40ZM72.3921 33.616C73.1947 33.616 73.8107 33.882 74.2401 34.414C74.6694 34.946 74.8841 35.7067 74.8841 36.696V40H73.5401V36.696C73.5401 36.0707 73.4281 35.6087 73.2041 35.31C72.9894 35.002 72.6347 34.848 72.1401 34.848C71.7107 34.848 71.3514 35.03 71.0621 35.394C70.7727 35.7487 70.6281 36.2013 70.6281 36.752V40H69.2841V33.728H70.6281V34.512C70.7587 34.2693 70.9827 34.0593 71.3001 33.882C71.6174 33.7047 71.9814 33.616 72.3921 33.616ZM79.6993 38.88C80.2873 38.88 80.754 38.6933 81.0993 38.32L81.8273 39.328C81.2206 39.8507 80.5113 40.112 79.6993 40.112C78.8033 40.112 78.038 39.7947 77.4033 39.16C76.7686 38.5253 76.4513 37.76 76.4513 36.864C76.4513 35.968 76.7686 35.2027 77.4033 34.568C78.038 33.9333 78.8033 33.616 79.6993 33.616C80.5113 33.616 81.2206 33.8773 81.8273 34.4L81.0993 35.408C80.754 35.0347 80.2873 34.848 79.6993 34.848C79.1953 34.848 78.752 35.044 78.3693 35.436C77.9866 35.8467 77.7953 36.3227 77.7953 36.864C77.7953 37.4053 77.9866 37.8767 78.3693 38.278C78.7426 38.6793 79.186 38.88 79.6993 38.88ZM86.6245 33.616C87.4272 33.616 88.0432 33.882 88.4725 34.414C88.9018 34.946 89.1165 35.7067 89.1165 36.696V40H87.7725V36.696C87.7725 36.0707 87.6605 35.6087 87.4365 35.31C87.2218 35.002 86.8672 34.848 86.3725 34.848C85.9432 34.848 85.5838 35.03 85.2945 35.394C85.0052 35.7487 84.8605 36.2013 84.8605 36.752V40H83.5165V29.696H84.8605V34.512C84.9912 34.2693 85.2152 34.0593 85.5325 33.882C85.8498 33.7047 86.2138 33.616 86.6245 33.616ZM92.7023 31.6C92.7023 31.88 92.6043 32.118 92.4083 32.314C92.2123 32.51 91.9743 32.608 91.6943 32.608C91.4143 32.608 91.1763 32.51 90.9803 32.314C90.7843 32.118 90.6863 31.88 90.6863 31.6C90.6863 31.32 90.7843 31.082 90.9803 30.886C91.1763 30.69 91.4143 30.592 91.6943 30.592C91.9743 30.592 92.2123 30.69 92.4083 30.886C92.6043 31.082 92.7023 31.32 92.7023 31.6ZM92.3663 40H91.0223V33.728H92.3663V40ZM102.108 38.88C102.658 38.88 103.176 38.6373 103.662 38.152L104.432 39.132C103.806 39.7853 103.032 40.112 102.108 40.112C101.212 40.112 100.446 39.7947 99.8115 39.16C99.1768 38.5253 98.8595 37.76 98.8595 36.864C98.8595 35.968 99.1768 35.2027 99.8115 34.568C100.446 33.9333 101.212 33.616 102.108 33.616C102.808 33.616 103.405 33.8167 103.9 34.218C104.394 34.61 104.73 35.1467 104.908 35.828L100.75 38.236C100.88 38.4227 101.072 38.5767 101.324 38.698C101.585 38.8193 101.846 38.88 102.108 38.88ZM102.108 34.848C101.604 34.848 101.16 35.0533 100.778 35.464C100.395 35.8747 100.204 36.3413 100.204 36.864C100.204 36.8827 100.213 37.004 100.232 37.228L103.34 35.436C103.041 35.044 102.63 34.848 102.108 34.848ZM109.361 33.616C110.163 33.616 110.779 33.882 111.209 34.414C111.638 34.946 111.853 35.7067 111.853 36.696V40H110.509V36.696C110.509 36.0707 110.397 35.6087 110.173 35.31C109.958 35.002 109.603 34.848 109.109 34.848C108.679 34.848 108.32 35.03 108.031 35.394C107.741 35.7487 107.597 36.2013 107.597 36.752V40H106.253V33.728H107.597V34.512C107.727 34.2693 107.951 34.0593 108.269 33.882C108.586 33.7047 108.95 33.616 109.361 33.616ZM123.275 30.144V31.376H119.915V34.904H122.379V36.136H119.915V38.768H123.275V40H118.571V30.144H123.275ZM128.098 38.88C128.686 38.88 129.152 38.6933 129.498 38.32L130.226 39.328C129.619 39.8507 128.91 40.112 128.098 40.112C127.202 40.112 126.436 39.7947 125.802 39.16C125.167 38.5253 124.85 37.76 124.85 36.864C124.85 35.968 125.167 35.2027 125.802 34.568C126.436 33.9333 127.202 33.616 128.098 33.616C128.91 33.616 129.619 33.8773 130.226 34.4L129.498 35.408C129.152 35.0347 128.686 34.848 128.098 34.848C127.594 34.848 127.15 35.044 126.768 35.436C126.385 35.8467 126.194 36.3227 126.194 36.864C126.194 37.4053 126.385 37.8767 126.768 38.278C127.141 38.6793 127.584 38.88 128.098 38.88ZM134.183 40.112C133.38 40.112 132.764 39.846 132.335 39.314C131.906 38.782 131.691 38.0213 131.691 37.032V33.728H133.035V37.144C133.035 38.3013 133.502 38.88 134.435 38.88C134.864 38.88 135.224 38.6933 135.513 38.32C135.802 37.9467 135.947 37.4613 135.947 36.864V33.728H137.291V40H135.947V39.216C135.816 39.4587 135.592 39.6687 135.275 39.846C134.958 40.0233 134.594 40.112 134.183 40.112ZM144.463 37.06V40H143.119V39.188C142.597 39.804 141.948 40.112 141.173 40.112C140.501 40.112 139.951 39.9113 139.521 39.51C139.083 39.118 138.863 38.614 138.863 37.998C138.863 37.41 139.078 36.9293 139.507 36.556C139.946 36.1827 140.473 35.982 141.089 35.954C141.715 35.926 142.377 36.052 143.077 36.332C143.021 35.3427 142.55 34.848 141.663 34.848C141.131 34.848 140.646 34.9833 140.207 35.254L139.647 34.288C140.235 33.84 140.926 33.616 141.719 33.616C143.549 33.616 144.463 34.764 144.463 37.06ZM143.119 37.438C142.802 37.2513 142.41 37.144 141.943 37.116C141.477 37.088 141.066 37.158 140.711 37.326C140.366 37.4847 140.198 37.7227 140.207 38.04C140.207 38.2827 140.305 38.4833 140.501 38.642C140.707 38.8007 140.973 38.88 141.299 38.88C141.729 38.88 142.125 38.74 142.489 38.46C142.853 38.18 143.063 37.8393 143.119 37.438ZM151.179 34.512V29.696H152.523V40H151.179V39.216C150.666 39.8133 149.994 40.112 149.163 40.112C148.295 40.112 147.558 39.7947 146.951 39.16C146.335 38.5253 146.027 37.76 146.027 36.864C146.027 35.968 146.335 35.2027 146.951 34.568C147.558 33.9333 148.295 33.616 149.163 33.616C149.994 33.616 150.666 33.9147 151.179 34.512ZM147.931 38.292C148.295 38.684 148.743 38.88 149.275 38.88C149.798 38.88 150.251 38.684 150.633 38.292C150.997 37.9 151.179 37.424 151.179 36.864C151.179 36.304 150.997 35.828 150.633 35.436C150.251 35.044 149.798 34.848 149.275 34.848C148.743 34.848 148.295 35.044 147.931 35.436C147.558 35.8187 147.371 36.2947 147.371 36.864C147.371 37.4333 147.558 37.9093 147.931 38.292ZM154.094 36.864C154.094 35.968 154.411 35.2027 155.046 34.568C155.681 33.9333 156.446 33.616 157.342 33.616C158.238 33.616 159.003 33.9333 159.638 34.568C160.273 35.2027 160.59 35.968 160.59 36.864C160.59 37.76 160.273 38.5253 159.638 39.16C159.003 39.7947 158.238 40.112 157.342 40.112C156.446 40.112 155.681 39.7947 155.046 39.16C154.411 38.5253 154.094 37.76 154.094 36.864ZM156.012 38.278C156.385 38.6793 156.829 38.88 157.342 38.88C157.865 38.88 158.313 38.6793 158.686 38.278C159.059 37.8953 159.246 37.424 159.246 36.864C159.246 36.3133 159.059 35.8373 158.686 35.436C158.313 35.044 157.865 34.848 157.342 34.848C156.838 34.848 156.395 35.044 156.012 35.436C155.629 35.8467 155.438 36.3227 155.438 36.864C155.438 37.4053 155.629 37.8767 156.012 38.278ZM163.501 33.728V34.722C163.921 33.9847 164.668 33.616 165.741 33.616V35.044C165.33 34.96 164.957 34.9787 164.621 35.1C163.874 35.3707 163.501 36.066 163.501 37.186V40H162.157V33.728H163.501ZM168.538 41.568H167.53V38.432H169.098L168.538 41.568ZM184.551 29.92V40H182.311V35.184L180.071 37.76L177.831 35.184V40H175.591V29.92L180.071 34.736L184.551 29.92ZM187.457 32.384C186.715 32.384 186.113 31.782 186.113 31.04C186.113 30.298 186.715 29.696 187.457 29.696C188.199 29.696 188.801 30.298 188.801 31.04C188.801 31.782 188.199 32.384 187.457 32.384ZM186.337 40V33.28H188.577V40H186.337ZM197.205 40H194.517L193.047 37.872L192.501 38.516V40H190.261V29.696H192.501V35.576L194.293 33.28H196.981L194.433 36.262L197.205 40ZM203.801 40H201.561V39.44C201.141 39.916 200.525 40.224 199.741 40.224C198.173 40.224 197.305 39.132 197.305 37.886C197.305 36.052 199.559 35.338 201.533 35.94C201.505 35.352 201.113 34.904 200.329 34.904C199.797 34.904 199.153 35.114 198.761 35.338L198.089 33.728C198.607 33.392 199.573 33.056 200.665 33.056C202.303 33.056 203.801 33.98 203.801 36.5V40ZM201.561 37.34C200.511 37.018 199.545 37.172 199.545 37.928C199.545 38.362 199.909 38.656 200.343 38.656C200.847 38.656 201.463 38.236 201.561 37.34ZM208.589 38.264C209.261 38.264 209.863 37.998 210.269 37.62L211.417 39.118C210.675 39.832 209.751 40.224 208.673 40.224C206.335 40.224 204.921 38.628 204.921 36.64C204.921 34.652 206.335 33.056 208.673 33.056C209.639 33.056 211.347 33.518 211.865 35.744L207.889 38.124C208.057 38.222 208.323 38.264 208.589 38.264ZM208.673 35.016C207.721 35.016 206.937 35.716 207.077 36.766L209.401 35.38C209.289 35.198 209.037 35.016 208.673 35.016ZM212.765 29.696H215.005V40H212.765V29.696ZM221.05 30.144H223.29V37.984H226.65V40H221.05V30.144ZM229.116 32.384C228.374 32.384 227.772 31.782 227.772 31.04C227.772 30.298 228.374 29.696 229.116 29.696C229.858 29.696 230.46 30.298 230.46 31.04C230.46 31.782 229.858 32.384 229.116 32.384ZM227.996 40V33.28H230.236V40H227.996ZM235.951 33.056C237.365 33.056 238.639 34.092 238.639 36.192V40H236.399V36.416C236.399 35.296 235.769 35.072 235.279 35.072C234.817 35.072 234.159 35.492 234.159 36.64V40H231.919V33.28H234.159V33.952C234.495 33.434 235.139 33.056 235.951 33.056ZM245.133 29.696H247.373V40H245.133V39.328C244.629 39.93 243.901 40.224 243.131 40.224C241.213 40.224 239.757 38.628 239.757 36.64C239.757 34.652 241.213 33.056 243.131 33.056C243.901 33.056 244.629 33.35 245.133 33.952V29.696ZM243.565 38.208C244.433 38.208 245.133 37.508 245.133 36.64C245.133 35.772 244.433 35.072 243.565 35.072C242.697 35.072 241.997 35.772 241.997 36.64C241.997 37.508 242.697 38.208 243.565 38.208ZM253.082 33.056C254.496 33.056 255.77 34.092 255.77 36.192V40H253.53V36.416C253.53 35.296 252.9 35.072 252.41 35.072C251.948 35.072 251.29 35.492 251.29 36.64V40H249.05V33.28H251.29V33.952C251.626 33.434 252.27 33.056 253.082 33.056ZM260.695 33.056C262.823 33.056 264.503 34.652 264.503 36.64C264.503 38.628 262.851 40.224 260.695 40.224C258.441 40.224 256.887 38.628 256.887 36.64C256.887 34.652 258.413 33.056 260.695 33.056ZM260.695 38.208C261.563 38.208 262.263 37.508 262.263 36.64C262.263 35.772 261.563 35.072 260.695 35.072C259.827 35.072 259.127 35.772 259.127 36.64C259.127 37.508 259.827 38.208 260.695 38.208ZM267.874 34.526C268.336 33.56 269.078 33.14 270.338 33.056V35.52C269.918 35.394 269.512 35.408 269.106 35.52C268.462 35.702 267.874 36.43 267.874 37.522V40H265.634V33.28H267.874V34.526ZM276.605 29.696H278.845V40H276.605V39.328C276.101 39.93 275.373 40.224 274.603 40.224C272.685 40.224 271.229 38.628 271.229 36.64C271.229 34.652 272.685 33.056 274.603 33.056C275.373 33.056 276.101 33.35 276.605 33.952V29.696ZM275.037 38.208C275.905 38.208 276.605 37.508 276.605 36.64C276.605 35.772 275.905 35.072 275.037 35.072C274.169 35.072 273.469 35.772 273.469 36.64C273.469 37.508 274.169 38.208 275.037 38.208ZM281.864 41.568H280.856V38.432H282.424L281.864 41.568ZM29.4237 58V47.696H30.7677V58H29.4237ZM33.7924 50.832H32.8964L33.7924 48.592H35.1364L33.7924 50.832ZM34.2404 58H32.8964V51.728H34.2404V58ZM41.073 52.512V47.696H42.417V58H41.073V57.216C40.5597 57.8133 39.8877 58.112 39.057 58.112C38.189 58.112 37.4517 57.7947 36.845 57.16C36.229 56.5253 35.921 55.76 35.921 54.864C35.921 53.968 36.229 53.2027 36.845 52.568C37.4517 51.9333 38.189 51.616 39.057 51.616C39.8877 51.616 40.5597 51.9147 41.073 52.512ZM37.825 56.292C38.189 56.684 38.637 56.88 39.169 56.88C39.6917 56.88 40.1444 56.684 40.527 56.292C40.891 55.9 41.073 55.424 41.073 54.864C41.073 54.304 40.891 53.828 40.527 53.436C40.1444 53.044 39.6917 52.848 39.169 52.848C38.637 52.848 38.189 53.044 37.825 53.436C37.4517 53.8187 37.265 54.2947 37.265 54.864C37.265 55.4333 37.4517 55.9093 37.825 56.292ZM47.2354 56.88C47.7861 56.88 48.3041 56.6373 48.7894 56.152L49.5594 57.132C48.9341 57.7853 48.1594 58.112 47.2354 58.112C46.3394 58.112 45.5741 57.7947 44.9394 57.16C44.3048 56.5253 43.9874 55.76 43.9874 54.864C43.9874 53.968 44.3048 53.2027 44.9394 52.568C45.5741 51.9333 46.3394 51.616 47.2354 51.616C47.9354 51.616 48.5328 51.8167 49.0274 52.218C49.5221 52.61 49.8581 53.1467 50.0354 53.828L45.8774 56.236C46.0081 56.4227 46.1994 56.5767 46.4514 56.698C46.7128 56.8193 46.9741 56.88 47.2354 56.88ZM47.2354 52.848C46.7314 52.848 46.2881 53.0533 45.9054 53.464C45.5228 53.8747 45.3314 54.3413 45.3314 54.864C45.3314 54.8827 45.3408 55.004 45.3594 55.228L48.4674 53.436C48.1688 53.044 47.7581 52.848 47.2354 52.848ZM52.7247 51.728V52.722C53.1447 51.9847 53.8914 51.616 54.9647 51.616V53.044C54.5541 52.96 54.1807 52.9787 53.8447 53.1C53.0981 53.3707 52.7247 54.066 52.7247 55.186V58H51.3807V51.728H52.7247ZM66.1609 52.512V47.696H67.5049V58H66.1609V57.216C65.6476 57.8133 64.9756 58.112 64.1449 58.112C63.2769 58.112 62.5396 57.7947 61.9329 57.16C61.3169 56.5253 61.0089 55.76 61.0089 54.864C61.0089 53.968 61.3169 53.2027 61.9329 52.568C62.5396 51.9333 63.2769 51.616 64.1449 51.616C64.9756 51.616 65.6476 51.9147 66.1609 52.512ZM62.9129 56.292C63.2769 56.684 63.7249 56.88 64.2569 56.88C64.7796 56.88 65.2322 56.684 65.6149 56.292C65.9789 55.9 66.1609 55.424 66.1609 54.864C66.1609 54.304 65.9789 53.828 65.6149 53.436C65.2322 53.044 64.7796 52.848 64.2569 52.848C63.7249 52.848 63.2769 53.044 62.9129 53.436C62.5396 53.8187 62.3529 54.2947 62.3529 54.864C62.3529 55.4333 62.5396 55.9093 62.9129 56.292ZM72.3233 56.88C72.874 56.88 73.392 56.6373 73.8773 56.152L74.6473 57.132C74.022 57.7853 73.2473 58.112 72.3233 58.112C71.4273 58.112 70.662 57.7947 70.0273 57.16C69.3927 56.5253 69.0753 55.76 69.0753 54.864C69.0753 53.968 69.3927 53.2027 70.0273 52.568C70.662 51.9333 71.4273 51.616 72.3233 51.616C73.0233 51.616 73.6207 51.8167 74.1153 52.218C74.61 52.61 74.946 53.1467 75.1233 53.828L70.9653 56.236C71.096 56.4227 71.2873 56.5767 71.5393 56.698C71.8007 56.8193 72.062 56.88 72.3233 56.88ZM72.3233 52.848C71.8193 52.848 71.376 53.0533 70.9933 53.464C70.6107 53.8747 70.4193 54.3413 70.4193 54.864C70.4193 54.8827 70.4287 55.004 70.4473 55.228L73.5553 53.436C73.2567 53.044 72.846 52.848 72.3233 52.848ZM83.6585 58.112C82.8558 58.112 82.2398 57.846 81.8105 57.314C81.3812 56.782 81.1665 56.0213 81.1665 55.032V51.728H82.5105V55.144C82.5105 56.3013 82.9772 56.88 83.9105 56.88C84.3398 56.88 84.6992 56.6933 84.9885 56.32C85.2778 55.9467 85.4225 55.4613 85.4225 54.864V51.728H86.7665V58H85.4225V57.216C85.2918 57.4587 85.0678 57.6687 84.7505 57.846C84.4332 58.0233 84.0692 58.112 83.6585 58.112ZM92.0044 51.616C92.807 51.616 93.423 51.882 93.8524 52.414C94.2817 52.946 94.4964 53.7067 94.4964 54.696V58H93.1524V54.696C93.1524 54.0707 93.0404 53.6087 92.8164 53.31C92.6017 53.002 92.247 52.848 91.7524 52.848C91.323 52.848 90.9637 53.03 90.6744 53.394C90.385 53.7487 90.2404 54.2013 90.2404 54.752V58H88.8964V51.728H90.2404V52.512C90.371 52.2693 90.595 52.0593 90.9124 51.882C91.2297 51.7047 91.5937 51.616 92.0044 51.616ZM104.015 56.88C104.565 56.88 105.083 56.6373 105.569 56.152L106.339 57.132C105.713 57.7853 104.939 58.112 104.015 58.112C103.119 58.112 102.353 57.7947 101.719 57.16C101.084 56.5253 100.767 55.76 100.767 54.864C100.767 53.968 101.084 53.2027 101.719 52.568C102.353 51.9333 103.119 51.616 104.015 51.616C104.715 51.616 105.312 51.8167 105.807 52.218C106.301 52.61 106.637 53.1467 106.815 53.828L102.657 56.236C102.787 56.4227 102.979 56.5767 103.231 56.698C103.492 56.8193 103.753 56.88 104.015 56.88ZM104.015 52.848C103.511 52.848 103.067 53.0533 102.685 53.464C102.302 53.8747 102.111 54.3413 102.111 54.864C102.111 54.8827 102.12 55.004 102.139 55.228L105.247 53.436C104.948 53.044 104.537 52.848 104.015 52.848ZM114.427 61.36H113.083V57.216C112.569 57.8133 111.897 58.112 111.067 58.112C110.199 58.112 109.461 57.7947 108.855 57.16C108.239 56.5253 107.931 55.76 107.931 54.864C107.931 53.968 108.239 53.2027 108.855 52.568C109.461 51.9333 110.199 51.616 111.067 51.616C111.897 51.616 112.569 51.9147 113.083 52.512V51.728H114.427V61.36ZM112.537 53.436C112.154 53.044 111.701 52.848 111.179 52.848C110.647 52.848 110.199 53.044 109.835 53.436C109.461 53.8187 109.275 54.2947 109.275 54.864C109.275 55.4333 109.461 55.9093 109.835 56.292C110.199 56.684 110.647 56.88 111.179 56.88C111.701 56.88 112.154 56.684 112.537 56.292C112.901 55.9 113.083 55.424 113.083 54.864C113.083 54.304 112.901 53.828 112.537 53.436ZM118.823 58.112C118.02 58.112 117.404 57.846 116.975 57.314C116.545 56.782 116.331 56.0213 116.331 55.032V51.728H117.675V55.144C117.675 56.3013 118.141 56.88 119.075 56.88C119.504 56.88 119.863 56.6933 120.153 56.32C120.442 55.9467 120.587 55.4613 120.587 54.864V51.728H121.931V58H120.587V57.216C120.456 57.4587 120.232 57.6687 119.915 57.846C119.597 58.0233 119.233 58.112 118.823 58.112ZM125.74 49.6C125.74 49.88 125.642 50.118 125.446 50.314C125.25 50.51 125.012 50.608 124.732 50.608C124.452 50.608 124.214 50.51 124.018 50.314C123.822 50.118 123.724 49.88 123.724 49.6C123.724 49.32 123.822 49.082 124.018 48.886C124.214 48.69 124.452 48.592 124.732 48.592C125.012 48.592 125.25 48.69 125.446 48.886C125.642 49.082 125.74 49.32 125.74 49.6ZM125.404 58H124.06V51.728H125.404V58ZM128.877 57.216V61.36H127.533V51.728H128.877V52.512C129.39 51.9147 130.062 51.616 130.893 51.616C131.761 51.616 132.503 51.9333 133.119 52.568C133.726 53.2027 134.029 53.968 134.029 54.864C134.029 55.76 133.726 56.5253 133.119 57.16C132.503 57.7947 131.761 58.112 130.893 58.112C130.062 58.112 129.39 57.8133 128.877 57.216ZM132.139 53.436C131.756 53.044 131.304 52.848 130.781 52.848C130.249 52.848 129.801 53.044 129.437 53.436C129.064 53.8187 128.877 54.2947 128.877 54.864C128.877 55.4333 129.064 55.9093 129.437 56.292C129.801 56.684 130.249 56.88 130.781 56.88C131.304 56.88 131.756 56.684 132.139 56.292C132.503 55.9 132.685 55.424 132.685 54.864C132.685 54.304 132.503 53.828 132.139 53.436ZM135.37 54.864C135.37 53.968 135.688 53.2027 136.322 52.568C136.957 51.9333 137.722 51.616 138.618 51.616C139.514 51.616 140.28 51.9333 140.914 52.568C141.549 53.2027 141.866 53.968 141.866 54.864C141.866 55.76 141.549 56.5253 140.914 57.16C140.28 57.7947 139.514 58.112 138.618 58.112C137.722 58.112 136.957 57.7947 136.322 57.16C135.688 56.5253 135.37 55.76 135.37 54.864ZM137.288 56.278C137.662 56.6793 138.105 56.88 138.618 56.88C139.141 56.88 139.589 56.6793 139.962 56.278C140.336 55.8953 140.522 55.424 140.522 54.864C140.522 54.3133 140.336 53.8373 139.962 53.436C139.589 53.044 139.141 52.848 138.618 52.848C138.114 52.848 137.671 53.044 137.288 53.436C136.906 53.8467 136.714 54.3227 136.714 54.864C136.714 55.4053 136.906 55.8767 137.288 56.278ZM150.609 54.08C151.944 54.388 152.611 55.0693 152.611 56.124C152.611 56.712 152.392 57.188 151.953 57.552C151.515 57.9253 150.992 58.112 150.385 58.112C149.443 58.112 148.617 57.7573 147.907 57.048L148.579 56.068C149.121 56.5907 149.695 56.8613 150.301 56.88C150.591 56.8893 150.824 56.824 151.001 56.684C151.179 56.544 151.267 56.3807 151.267 56.194C151.267 55.8393 150.978 55.5827 150.399 55.424C149.587 55.2 149.023 54.9433 148.705 54.654C148.397 54.3647 148.243 53.954 148.243 53.422C148.243 52.918 148.435 52.4933 148.817 52.148C149.209 51.7933 149.727 51.616 150.371 51.616C151.034 51.616 151.636 51.8307 152.177 52.26L151.547 53.24C151.202 52.9787 150.81 52.848 150.371 52.848C150.129 52.848 149.937 52.8993 149.797 53.002C149.657 53.1047 149.587 53.2307 149.587 53.38C149.587 53.5573 149.657 53.6973 149.797 53.8C149.947 53.8933 150.217 53.9867 150.609 54.08ZM156.557 58.112C155.754 58.112 155.138 57.846 154.709 57.314C154.28 56.782 154.065 56.0213 154.065 55.032V51.728H155.409V55.144C155.409 56.3013 155.876 56.88 156.809 56.88C157.238 56.88 157.598 56.6933 157.887 56.32C158.176 55.9467 158.321 55.4613 158.321 54.864V51.728H159.665V58H158.321V57.216C158.19 57.4587 157.966 57.6687 157.649 57.846C157.332 58.0233 156.968 58.112 156.557 58.112ZM164.485 56.88C165.036 56.88 165.554 56.6373 166.039 56.152L166.809 57.132C166.184 57.7853 165.409 58.112 164.485 58.112C163.589 58.112 162.824 57.7947 162.189 57.16C161.555 56.5253 161.237 55.76 161.237 54.864C161.237 53.968 161.555 53.2027 162.189 52.568C162.824 51.9333 163.589 51.616 164.485 51.616C165.185 51.616 165.783 51.8167 166.277 52.218C166.772 52.61 167.108 53.1467 167.285 53.828L163.127 56.236C163.258 56.4227 163.449 56.5767 163.701 56.698C163.963 56.8193 164.224 56.88 164.485 56.88ZM164.485 52.848C163.981 52.848 163.538 53.0533 163.155 53.464C162.773 53.8747 162.581 54.3413 162.581 54.864C162.581 54.8827 162.591 55.004 162.609 55.228L165.717 53.436C165.419 53.044 165.008 52.848 164.485 52.848ZM171.649 56.88C172.237 56.88 172.704 56.6933 173.049 56.32L173.777 57.328C173.171 57.8507 172.461 58.112 171.649 58.112C170.753 58.112 169.988 57.7947 169.353 57.16C168.719 56.5253 168.401 55.76 168.401 54.864C168.401 53.968 168.719 53.2027 169.353 52.568C169.988 51.9333 170.753 51.616 171.649 51.616C172.461 51.616 173.171 51.8773 173.777 52.4L173.049 53.408C172.704 53.0347 172.237 52.848 171.649 52.848C171.145 52.848 170.702 53.044 170.319 53.436C169.937 53.8467 169.745 54.3227 169.745 54.864C169.745 55.4053 169.937 55.8767 170.319 56.278C170.693 56.6793 171.136 56.88 171.649 56.88ZM174.909 54.864C174.909 53.968 175.227 53.2027 175.861 52.568C176.496 51.9333 177.261 51.616 178.157 51.616C179.053 51.616 179.819 51.9333 180.453 52.568C181.088 53.2027 181.405 53.968 181.405 54.864C181.405 55.76 181.088 56.5253 180.453 57.16C179.819 57.7947 179.053 58.112 178.157 58.112C177.261 58.112 176.496 57.7947 175.861 57.16C175.227 56.5253 174.909 55.76 174.909 54.864ZM176.827 56.278C177.201 56.6793 177.644 56.88 178.157 56.88C178.68 56.88 179.128 56.6793 179.501 56.278C179.875 55.8953 180.061 55.424 180.061 54.864C180.061 54.3133 179.875 53.8373 179.501 53.436C179.128 53.044 178.68 52.848 178.157 52.848C177.653 52.848 177.21 53.044 176.827 53.436C176.445 53.8467 176.253 54.3227 176.253 54.864C176.253 55.4053 176.445 55.8767 176.827 56.278ZM184.199 59.568H183.191V56.432H184.759L184.199 59.568ZM191.476 58V47.696H192.82V58H191.476ZM197.64 56.88C198.19 56.88 198.708 56.6373 199.194 56.152L199.964 57.132C199.338 57.7853 198.564 58.112 197.64 58.112C196.744 58.112 195.978 57.7947 195.344 57.16C194.709 56.5253 194.392 55.76 194.392 54.864C194.392 53.968 194.709 53.2027 195.344 52.568C195.978 51.9333 196.744 51.616 197.64 51.616C198.34 51.616 198.937 51.8167 199.432 52.218C199.926 52.61 200.262 53.1467 200.44 53.828L196.282 56.236C196.412 56.4227 196.604 56.5767 196.856 56.698C197.117 56.8193 197.378 56.88 197.64 56.88ZM197.64 52.848C197.136 52.848 196.692 53.0533 196.31 53.464C195.927 53.8747 195.736 54.3413 195.736 54.864C195.736 54.8827 195.745 55.004 195.764 55.228L198.872 53.436C198.573 53.044 198.162 52.848 197.64 52.848ZM206.259 54.864C206.259 53.968 206.576 53.2027 207.211 52.568C207.846 51.9333 208.611 51.616 209.507 51.616C210.403 51.616 211.168 51.9333 211.803 52.568C212.438 53.2027 212.755 53.968 212.755 54.864C212.755 55.76 212.438 56.5253 211.803 57.16C211.168 57.7947 210.403 58.112 209.507 58.112C208.611 58.112 207.846 57.7947 207.211 57.16C206.576 56.5253 206.259 55.76 206.259 54.864ZM208.177 56.278C208.55 56.6793 208.994 56.88 209.507 56.88C210.03 56.88 210.478 56.6793 210.851 56.278C211.224 55.8953 211.411 55.424 211.411 54.864C211.411 54.3133 211.224 53.8373 210.851 53.436C210.478 53.044 210.03 52.848 209.507 52.848C209.003 52.848 208.56 53.044 208.177 53.436C207.794 53.8467 207.603 54.3227 207.603 54.864C207.603 55.4053 207.794 55.8767 208.177 56.278ZM213.874 52.96V51.728H214.77V50.02C214.77 49.236 214.947 48.634 215.302 48.214C215.666 47.794 216.161 47.584 216.786 47.584C217.253 47.584 217.701 47.7333 218.13 48.032L217.514 49.04C217.327 48.8907 217.117 48.816 216.884 48.816C216.371 48.816 216.114 49.2173 216.114 50.02V51.728H218.13V52.96H216.114V58H214.77V52.96H213.874ZM221.272 51.728V52.722C221.692 51.9847 222.438 51.616 223.512 51.616V53.044C223.101 52.96 222.728 52.9787 222.392 53.1C221.645 53.3707 221.272 54.066 221.272 55.186V58H219.928V51.728H221.272ZM227.649 56.88C228.2 56.88 228.718 56.6373 229.203 56.152L229.973 57.132C229.348 57.7853 228.573 58.112 227.649 58.112C226.753 58.112 225.988 57.7947 225.353 57.16C224.719 56.5253 224.401 55.76 224.401 54.864C224.401 53.968 224.719 53.2027 225.353 52.568C225.988 51.9333 226.753 51.616 227.649 51.616C228.349 51.616 228.947 51.8167 229.441 52.218C229.936 52.61 230.272 53.1467 230.449 53.828L226.291 56.236C226.422 56.4227 226.613 56.5767 226.865 56.698C227.127 56.8193 227.388 56.88 227.649 56.88ZM227.649 52.848C227.145 52.848 226.702 53.0533 226.319 53.464C225.937 53.8747 225.745 54.3413 225.745 54.864C225.745 54.8827 225.755 55.004 225.773 55.228L228.881 53.436C228.583 53.044 228.172 52.848 227.649 52.848ZM234.814 56.88C235.402 56.88 235.868 56.6933 236.214 56.32L236.942 57.328C236.335 57.8507 235.626 58.112 234.814 58.112C233.918 58.112 233.152 57.7947 232.518 57.16C231.883 56.5253 231.566 55.76 231.566 54.864C231.566 53.968 231.883 53.2027 232.518 52.568C233.152 51.9333 233.918 51.616 234.814 51.616C235.626 51.616 236.335 51.8773 236.942 52.4L236.214 53.408C235.868 53.0347 235.402 52.848 234.814 52.848C234.31 52.848 233.866 53.044 233.484 53.436C233.101 53.8467 232.91 54.3227 232.91 54.864C232.91 55.4053 233.101 55.8767 233.484 56.278C233.857 56.6793 234.3 56.88 234.814 56.88ZM240.311 49.6C240.311 49.88 240.213 50.118 240.017 50.314C239.821 50.51 239.583 50.608 239.303 50.608C239.023 50.608 238.785 50.51 238.589 50.314C238.393 50.118 238.295 49.88 238.295 49.6C238.295 49.32 238.393 49.082 238.589 48.886C238.785 48.69 239.023 48.592 239.303 48.592C239.583 48.592 239.821 48.69 240.017 48.886C240.213 49.082 240.311 49.32 240.311 49.6ZM239.975 58H238.631V51.728H239.975V58ZM245.018 50.832H244.122L245.018 48.592H246.362L245.018 50.832ZM241.546 54.864C241.546 53.968 241.863 53.2027 242.498 52.568C243.133 51.9333 243.898 51.616 244.794 51.616C245.69 51.616 246.455 51.9333 247.09 52.568C247.725 53.2027 248.042 53.968 248.042 54.864C248.042 55.76 247.725 56.5253 247.09 57.16C246.455 57.7947 245.69 58.112 244.794 58.112C243.898 58.112 243.133 57.7947 242.498 57.16C241.863 56.5253 241.546 55.76 241.546 54.864ZM243.464 56.278C243.837 56.6793 244.281 56.88 244.794 56.88C245.317 56.88 245.765 56.6793 246.138 56.278C246.511 55.8953 246.698 55.424 246.698 54.864C246.698 54.3133 246.511 53.8373 246.138 53.436C245.765 53.044 245.317 52.848 244.794 52.848C244.29 52.848 243.847 53.044 243.464 53.436C243.081 53.8467 242.89 54.3227 242.89 54.864C242.89 55.4053 243.081 55.8767 243.464 56.278ZM256.799 58.112C255.996 58.112 255.38 57.846 254.951 57.314C254.522 56.782 254.307 56.0213 254.307 55.032V51.728H255.651V55.144C255.651 56.3013 256.118 56.88 257.051 56.88C257.48 56.88 257.84 56.6933 258.129 56.32C258.418 55.9467 258.563 55.4613 258.563 54.864V51.728H259.907V58H258.563V57.216C258.432 57.4587 258.208 57.6687 257.891 57.846C257.574 58.0233 257.21 58.112 256.799 58.112ZM265.145 51.616C265.948 51.616 266.564 51.882 266.993 52.414C267.422 52.946 267.637 53.7067 267.637 54.696V58H266.293V54.696C266.293 54.0707 266.181 53.6087 265.957 53.31C265.742 53.002 265.388 52.848 264.893 52.848C264.464 52.848 264.104 53.03 263.815 53.394C263.526 53.7487 263.381 54.2013 263.381 54.752V58H262.037V51.728H263.381V52.512C263.512 52.2693 263.736 52.0593 264.053 51.882C264.37 51.7047 264.734 51.616 265.145 51.616ZM274.804 55.06V58H273.46V57.188C272.938 57.804 272.289 58.112 271.514 58.112C270.842 58.112 270.292 57.9113 269.862 57.51C269.424 57.118 269.204 56.614 269.204 55.998C269.204 55.41 269.419 54.9293 269.848 54.556C270.287 54.1827 270.814 53.982 271.43 53.954C272.056 53.926 272.718 54.052 273.418 54.332C273.362 53.3427 272.891 52.848 272.004 52.848C271.472 52.848 270.987 52.9833 270.548 53.254L269.988 52.288C270.576 51.84 271.267 51.616 272.06 51.616C273.89 51.616 274.804 52.764 274.804 55.06ZM273.46 55.438C273.143 55.2513 272.751 55.144 272.284 55.116C271.818 55.088 271.407 55.158 271.052 55.326C270.707 55.4847 270.539 55.7227 270.548 56.04C270.548 56.2827 270.646 56.4833 270.842 56.642C271.048 56.8007 271.314 56.88 271.64 56.88C272.07 56.88 272.466 56.74 272.83 56.46C273.194 56.18 273.404 55.8393 273.46 55.438ZM40.065 73.06V76H38.721V75.188C38.1983 75.804 37.5496 76.112 36.775 76.112C36.103 76.112 35.5523 75.9113 35.123 75.51C34.6843 75.118 34.465 74.614 34.465 73.998C34.465 73.41 34.6796 72.9293 35.109 72.556C35.5476 72.1827 36.075 71.982 36.691 71.954C37.3163 71.926 37.979 72.052 38.679 72.332C38.623 71.3427 38.1516 70.848 37.265 70.848C36.733 70.848 36.2476 70.9833 35.809 71.254L35.249 70.288C35.837 69.84 36.5276 69.616 37.321 69.616C39.1503 69.616 40.065 70.764 40.065 73.06ZM38.721 73.438C38.4036 73.2513 38.0116 73.144 37.545 73.116C37.0783 73.088 36.6676 73.158 36.313 73.326C35.9676 73.4847 35.7996 73.7227 35.809 74.04C35.809 74.2827 35.907 74.4833 36.103 74.642C36.3083 74.8007 36.5743 74.88 36.901 74.88C37.3303 74.88 37.727 74.74 38.091 74.46C38.455 74.18 38.665 73.8393 38.721 73.438ZM41.9677 76V65.696H43.3117V76H41.9677ZM45.4403 65.696H46.7843V70.512C47.2976 69.9147 47.9696 69.616 48.8003 69.616C49.6683 69.616 50.4103 69.9333 51.0263 70.568C51.633 71.2027 51.9363 71.968 51.9363 72.864C51.9363 73.76 51.633 74.5253 51.0263 75.16C50.4103 75.7947 49.6683 76.112 48.8003 76.112C47.9696 76.112 47.2976 75.8133 46.7843 75.216V76H45.4403V65.696ZM47.3443 74.292C47.7083 74.684 48.1563 74.88 48.6883 74.88C49.211 74.88 49.6636 74.684 50.0463 74.292C50.4103 73.9 50.5923 73.424 50.5923 72.864C50.5923 72.304 50.4103 71.828 50.0463 71.436C49.6636 71.044 49.211 70.848 48.6883 70.848C48.1563 70.848 47.7083 71.044 47.3443 71.436C46.971 71.8187 46.7843 72.2947 46.7843 72.864C46.7843 73.4333 46.971 73.9093 47.3443 74.292ZM56.7495 68.832H55.8535L56.7495 66.592H58.0935L56.7495 68.832ZM53.2775 72.864C53.2775 71.968 53.5948 71.2027 54.2295 70.568C54.8641 69.9333 55.6295 69.616 56.5255 69.616C57.4215 69.616 58.1868 69.9333 58.8215 70.568C59.4561 71.2027 59.7735 71.968 59.7735 72.864C59.7735 73.76 59.4561 74.5253 58.8215 75.16C58.1868 75.7947 57.4215 76.112 56.5255 76.112C55.6295 76.112 54.8641 75.7947 54.2295 75.16C53.5948 74.5253 53.2775 73.76 53.2775 72.864ZM55.1955 74.278C55.5688 74.6793 56.0121 74.88 56.5255 74.88C57.0481 74.88 57.4961 74.6793 57.8695 74.278C58.2428 73.8953 58.4295 73.424 58.4295 72.864C58.4295 72.3133 58.2428 71.8373 57.8695 71.436C57.4961 71.044 57.0481 70.848 56.5255 70.848C56.0215 70.848 55.5781 71.044 55.1955 71.436C54.8128 71.8467 54.6215 72.3227 54.6215 72.864C54.6215 73.4053 54.8128 73.8767 55.1955 74.278ZM64.4487 69.616C65.2514 69.616 65.8674 69.882 66.2967 70.414C66.726 70.946 66.9407 71.7067 66.9407 72.696V76H65.5967V72.696C65.5967 72.0707 65.4847 71.6087 65.2607 71.31C65.046 71.002 64.6914 70.848 64.1967 70.848C63.7674 70.848 63.408 71.03 63.1187 71.394C62.8294 71.7487 62.6847 72.2013 62.6847 72.752V76H61.3407V69.728H62.6847V70.512C62.8154 70.2693 63.0394 70.0593 63.3567 69.882C63.674 69.7047 64.038 69.616 64.4487 69.616ZM73.6599 70.512V65.696H75.0039V76H73.6599V75.216C73.1466 75.8133 72.4746 76.112 71.6439 76.112C70.7759 76.112 70.0386 75.7947 69.4319 75.16C68.8159 74.5253 68.5079 73.76 68.5079 72.864C68.5079 71.968 68.8159 71.2027 69.4319 70.568C70.0386 69.9333 70.7759 69.616 71.6439 69.616C72.4746 69.616 73.1466 69.9147 73.6599 70.512ZM70.4119 74.292C70.7759 74.684 71.2239 74.88 71.7559 74.88C72.2786 74.88 72.7313 74.684 73.1139 74.292C73.4779 73.9 73.6599 73.424 73.6599 72.864C73.6599 72.304 73.4779 71.828 73.1139 71.436C72.7313 71.044 72.2786 70.848 71.7559 70.848C71.2239 70.848 70.7759 71.044 70.4119 71.436C70.0386 71.8187 69.8519 72.2947 69.8519 72.864C69.8519 73.4333 70.0386 73.9093 70.4119 74.292ZM78.8117 67.6C78.8117 67.88 78.7137 68.118 78.5177 68.314C78.3217 68.51 78.0837 68.608 77.8037 68.608C77.5237 68.608 77.2857 68.51 77.0897 68.314C76.8937 68.118 76.7957 67.88 76.7957 67.6C76.7957 67.32 76.8937 67.082 77.0897 66.886C77.2857 66.69 77.5237 66.592 77.8037 66.592C78.0837 66.592 78.3217 66.69 78.5177 66.886C78.7137 67.082 78.8117 67.32 78.8117 67.6ZM78.4757 76H77.1317V69.728H78.4757V76ZM85.3084 70.512V69.728H86.6524V75.636C86.6524 76.9427 86.3304 77.9133 85.6864 78.548C85.0424 79.164 84.207 79.472 83.1804 79.472C82.7604 79.472 82.3124 79.3927 81.8364 79.234C81.3884 79.0847 81.0524 78.898 80.8284 78.674L81.4304 77.582C81.925 78.0207 82.5084 78.24 83.1804 78.24C83.8617 78.24 84.3844 78.03 84.7484 77.61C85.1217 77.19 85.3084 76.5973 85.3084 75.832V75.216C84.795 75.8133 84.123 76.112 83.2924 76.112C82.4244 76.112 81.687 75.7947 81.0804 75.16C80.4644 74.5253 80.1564 73.76 80.1564 72.864C80.1564 71.968 80.4644 71.2027 81.0804 70.568C81.687 69.9333 82.4244 69.616 83.2924 69.616C84.123 69.616 84.795 69.9147 85.3084 70.512ZM82.0604 74.292C82.4244 74.684 82.8724 74.88 83.4044 74.88C83.927 74.88 84.3797 74.684 84.7624 74.292C85.1264 73.9 85.3084 73.424 85.3084 72.864C85.3084 72.304 85.1264 71.828 84.7624 71.436C84.3797 71.044 83.927 70.848 83.4044 70.848C82.8724 70.848 82.4244 71.044 82.0604 71.436C81.687 71.8187 81.5004 72.2947 81.5004 72.864C81.5004 73.4333 81.687 73.9093 82.0604 74.292ZM93.8228 73.06V76H92.4788V75.188C91.9561 75.804 91.3074 76.112 90.5328 76.112C89.8608 76.112 89.3101 75.9113 88.8808 75.51C88.4421 75.118 88.2228 74.614 88.2228 73.998C88.2228 73.41 88.4374 72.9293 88.8668 72.556C89.3054 72.1827 89.8328 71.982 90.4488 71.954C91.0741 71.926 91.7368 72.052 92.4368 72.332C92.3808 71.3427 91.9094 70.848 91.0228 70.848C90.4908 70.848 90.0054 70.9833 89.5668 71.254L89.0068 70.288C89.5948 69.84 90.2854 69.616 91.0788 69.616C92.9081 69.616 93.8228 70.764 93.8228 73.06ZM92.4788 73.438C92.1614 73.2513 91.7694 73.144 91.3028 73.116C90.8361 73.088 90.4254 73.158 90.0708 73.326C89.7254 73.4847 89.5574 73.7227 89.5668 74.04C89.5668 74.2827 89.6648 74.4833 89.8608 74.642C90.0661 74.8007 90.3321 74.88 90.6588 74.88C91.0881 74.88 91.4848 74.74 91.8488 74.46C92.2128 74.18 92.4228 73.8393 92.4788 73.438ZM103.338 74.88C103.889 74.88 104.407 74.6373 104.892 74.152L105.662 75.132C105.037 75.7853 104.262 76.112 103.338 76.112C102.442 76.112 101.677 75.7947 101.042 75.16C100.407 74.5253 100.09 73.76 100.09 72.864C100.09 71.968 100.407 71.2027 101.042 70.568C101.677 69.9333 102.442 69.616 103.338 69.616C104.038 69.616 104.635 69.8167 105.13 70.218C105.625 70.61 105.961 71.1467 106.138 71.828L101.98 74.236C102.111 74.4227 102.302 74.5767 102.554 74.698C102.815 74.8193 103.077 74.88 103.338 74.88ZM103.338 70.848C102.834 70.848 102.391 71.0533 102.008 71.464C101.625 71.8747 101.434 72.3413 101.434 72.864C101.434 72.8827 101.443 73.004 101.462 73.228L104.57 71.436C104.271 71.044 103.861 70.848 103.338 70.848ZM110.591 69.616C111.394 69.616 112.01 69.882 112.439 70.414C112.869 70.946 113.083 71.7067 113.083 72.696V76H111.739V72.696C111.739 72.0707 111.627 71.6087 111.403 71.31C111.189 71.002 110.834 70.848 110.339 70.848C109.91 70.848 109.551 71.03 109.261 71.394C108.972 71.7487 108.827 72.2013 108.827 72.752V76H107.483V69.728H108.827V70.512C108.958 70.2693 109.182 70.0593 109.499 69.882C109.817 69.7047 110.181 69.616 110.591 69.616ZM119.802 76V65.696H121.146V76H119.802ZM128.426 73.06V76H127.082V75.188C126.56 75.804 125.911 76.112 125.136 76.112C124.464 76.112 123.914 75.9113 123.484 75.51C123.046 75.118 122.826 74.614 122.826 73.998C122.826 73.41 123.041 72.9293 123.47 72.556C123.909 72.1827 124.436 71.982 125.052 71.954C125.678 71.926 126.34 72.052 127.04 72.332C126.984 71.3427 126.513 70.848 125.626 70.848C125.094 70.848 124.609 70.9833 124.17 71.254L123.61 70.288C124.198 69.84 124.889 69.616 125.682 69.616C127.512 69.616 128.426 70.764 128.426 73.06ZM127.082 73.438C126.765 73.2513 126.373 73.144 125.906 73.116C125.44 73.088 125.029 73.158 124.674 73.326C124.329 73.4847 124.161 73.7227 124.17 74.04C124.17 74.2827 124.268 74.4833 124.464 74.642C124.67 74.8007 124.936 74.88 125.262 74.88C125.692 74.88 126.088 74.74 126.452 74.46C126.816 74.18 127.026 73.8393 127.082 73.438ZM132.345 76H131.001V70.96H129.881V69.728H131.001V67.264L132.345 66.816V69.728H134.137V70.96H132.345V76ZM140.635 73.06V76H139.291V75.188C138.769 75.804 138.12 76.112 137.345 76.112C136.673 76.112 136.123 75.9113 135.693 75.51C135.255 75.118 135.035 74.614 135.035 73.998C135.035 73.41 135.25 72.9293 135.679 72.556C136.118 72.1827 136.645 71.982 137.261 71.954C137.887 71.926 138.549 72.052 139.249 72.332C139.193 71.3427 138.722 70.848 137.835 70.848C137.303 70.848 136.818 70.9833 136.379 71.254L135.819 70.288C136.407 69.84 137.098 69.616 137.891 69.616C139.721 69.616 140.635 70.764 140.635 73.06ZM139.291 73.438C138.974 73.2513 138.582 73.144 138.115 73.116C137.649 73.088 137.238 73.158 136.883 73.326C136.538 73.4847 136.37 73.7227 136.379 74.04C136.379 74.2827 136.477 74.4833 136.673 74.642C136.879 74.8007 137.145 74.88 137.471 74.88C137.901 74.88 138.297 74.74 138.661 74.46C139.025 74.18 139.235 73.8393 139.291 73.438ZM152.502 73.06V76H151.158V75.188C150.636 75.804 149.987 76.112 149.212 76.112C148.54 76.112 147.99 75.9113 147.56 75.51C147.122 75.118 146.902 74.614 146.902 73.998C146.902 73.41 147.117 72.9293 147.546 72.556C147.985 72.1827 148.512 71.982 149.128 71.954C149.754 71.926 150.416 72.052 151.116 72.332C151.06 71.3427 150.589 70.848 149.702 70.848C149.17 70.848 148.685 70.9833 148.246 71.254L147.686 70.288C148.274 69.84 148.965 69.616 149.758 69.616C151.588 69.616 152.502 70.764 152.502 73.06ZM151.158 73.438C150.841 73.2513 150.449 73.144 149.982 73.116C149.516 73.088 149.105 73.158 148.75 73.326C148.405 73.4847 148.237 73.7227 148.246 74.04C148.246 74.2827 148.344 74.4833 148.54 74.642C148.746 74.8007 149.012 74.88 149.338 74.88C149.768 74.88 150.164 74.74 150.528 74.46C150.892 74.18 151.102 73.8393 151.158 73.438ZM161.486 76.112C160.683 76.112 160.067 75.846 159.638 75.314C159.208 74.782 158.994 74.0213 158.994 73.032V69.728H160.338V73.144C160.338 74.3013 160.804 74.88 161.738 74.88C162.167 74.88 162.526 74.6933 162.816 74.32C163.105 73.9467 163.25 73.4613 163.25 72.864V69.728H164.594V76H163.25V75.216C163.119 75.4587 162.895 75.6687 162.578 75.846C162.26 76.0233 161.896 76.112 161.486 76.112ZM169.832 69.616C170.634 69.616 171.25 69.882 171.68 70.414C172.109 70.946 172.324 71.7067 172.324 72.696V76H170.98V72.696C170.98 72.0707 170.868 71.6087 170.644 71.31C170.429 71.002 170.074 70.848 169.58 70.848C169.15 70.848 168.791 71.03 168.502 71.394C168.212 71.7487 168.068 72.2013 168.068 72.752V76H166.724V69.728H168.068V70.512C168.198 70.2693 168.422 70.0593 168.74 69.882C169.057 69.7047 169.421 69.616 169.832 69.616ZM180.386 75.216V79.36H179.042V69.728H180.386V70.512C180.899 69.9147 181.571 69.616 182.402 69.616C183.27 69.616 184.012 69.9333 184.628 70.568C185.235 71.2027 185.538 71.968 185.538 72.864C185.538 73.76 185.235 74.5253 184.628 75.16C184.012 75.7947 183.27 76.112 182.402 76.112C181.571 76.112 180.899 75.8133 180.386 75.216ZM183.648 71.436C183.265 71.044 182.813 70.848 182.29 70.848C181.758 70.848 181.31 71.044 180.946 71.436C180.573 71.8187 180.386 72.2947 180.386 72.864C180.386 73.4333 180.573 73.9093 180.946 74.292C181.31 74.684 181.758 74.88 182.29 74.88C182.813 74.88 183.265 74.684 183.648 74.292C184.012 73.9 184.194 73.424 184.194 72.864C184.194 72.304 184.012 71.828 183.648 71.436ZM190.127 74.88C190.678 74.88 191.196 74.6373 191.681 74.152L192.451 75.132C191.826 75.7853 191.051 76.112 190.127 76.112C189.231 76.112 188.466 75.7947 187.831 75.16C187.196 74.5253 186.879 73.76 186.879 72.864C186.879 71.968 187.196 71.2027 187.831 70.568C188.466 69.9333 189.231 69.616 190.127 69.616C190.827 69.616 191.424 69.8167 191.919 70.218C192.414 70.61 192.75 71.1467 192.927 71.828L188.769 74.236C188.9 74.4227 189.091 74.5767 189.343 74.698C189.604 74.8193 189.866 74.88 190.127 74.88ZM190.127 70.848C189.623 70.848 189.18 71.0533 188.797 71.464C188.414 71.8747 188.223 72.3413 188.223 72.864C188.223 72.8827 188.232 73.004 188.251 73.228L191.359 71.436C191.06 71.044 190.65 70.848 190.127 70.848ZM195.616 69.728V70.722C196.036 69.9847 196.783 69.616 197.856 69.616V71.044C197.446 70.96 197.072 70.9787 196.736 71.1C195.99 71.3707 195.616 72.066 195.616 73.186V76H194.272V69.728H195.616ZM200.989 69.728V70.722C201.409 69.9847 202.156 69.616 203.229 69.616V71.044C202.819 70.96 202.445 70.9787 202.109 71.1C201.363 71.3707 200.989 72.066 200.989 73.186V76H199.645V69.728H200.989ZM204.119 72.864C204.119 71.968 204.437 71.2027 205.071 70.568C205.706 69.9333 206.471 69.616 207.367 69.616C208.263 69.616 209.029 69.9333 209.663 70.568C210.298 71.2027 210.615 71.968 210.615 72.864C210.615 73.76 210.298 74.5253 209.663 75.16C209.029 75.7947 208.263 76.112 207.367 76.112C206.471 76.112 205.706 75.7947 205.071 75.16C204.437 74.5253 204.119 73.76 204.119 72.864ZM206.037 74.278C206.411 74.6793 206.854 74.88 207.367 74.88C207.89 74.88 208.338 74.6793 208.711 74.278C209.085 73.8953 209.271 73.424 209.271 72.864C209.271 72.3133 209.085 71.8373 208.711 71.436C208.338 71.044 207.89 70.848 207.367 70.848C206.863 70.848 206.42 71.044 206.037 71.436C205.655 71.8467 205.463 72.3227 205.463 72.864C205.463 73.4053 205.655 73.8767 206.037 74.278ZM219.904 74.88C220.492 74.88 220.959 74.6933 221.304 74.32L222.032 75.328C221.426 75.8507 220.716 76.112 219.904 76.112C219.008 76.112 218.243 75.7947 217.608 75.16C216.974 74.5253 216.656 73.76 216.656 72.864C216.656 71.968 216.974 71.2027 217.608 70.568C218.243 69.9333 219.008 69.616 219.904 69.616C220.716 69.616 221.426 69.8773 222.032 70.4L221.304 71.408C220.959 71.0347 220.492 70.848 219.904 70.848C219.4 70.848 218.957 71.044 218.574 71.436C218.192 71.8467 218 72.3227 218 72.864C218 73.4053 218.192 73.8767 218.574 74.278C218.948 74.6793 219.391 74.88 219.904 74.88ZM228.764 73.06V76H227.42V75.188C226.898 75.804 226.249 76.112 225.474 76.112C224.802 76.112 224.252 75.9113 223.822 75.51C223.384 75.118 223.164 74.614 223.164 73.998C223.164 73.41 223.379 72.9293 223.808 72.556C224.247 72.1827 224.774 71.982 225.39 71.954C226.016 71.926 226.678 72.052 227.378 72.332C227.322 71.3427 226.851 70.848 225.964 70.848C225.432 70.848 224.947 70.9833 224.508 71.254L223.948 70.288C224.536 69.84 225.227 69.616 226.02 69.616C227.85 69.616 228.764 70.764 228.764 73.06ZM227.42 73.438C227.103 73.2513 226.711 73.144 226.244 73.116C225.778 73.088 225.367 73.158 225.012 73.326C224.667 73.4847 224.499 73.7227 224.508 74.04C224.508 74.2827 224.606 74.4833 224.802 74.642C225.008 74.8007 225.274 74.88 225.6 74.88C226.03 74.88 226.426 74.74 226.79 74.46C227.154 74.18 227.364 73.8393 227.42 73.438ZM230.667 76V65.696H232.011V76H230.667ZM234.14 76V65.696H235.484V76H234.14ZM240.303 74.88C240.853 74.88 241.371 74.6373 241.857 74.152L242.627 75.132C242.001 75.7853 241.227 76.112 240.303 76.112C239.407 76.112 238.641 75.7947 238.007 75.16C237.372 74.5253 237.055 73.76 237.055 72.864C237.055 71.968 237.372 71.2027 238.007 70.568C238.641 69.9333 239.407 69.616 240.303 69.616C241.003 69.616 241.6 69.8167 242.095 70.218C242.589 70.61 242.925 71.1467 243.103 71.828L238.945 74.236C239.075 74.4227 239.267 74.5767 239.519 74.698C239.78 74.8193 240.041 74.88 240.303 74.88ZM240.303 70.848C239.799 70.848 239.355 71.0533 238.973 71.464C238.59 71.8747 238.399 72.3413 238.399 72.864C238.399 72.8827 238.408 73.004 238.427 73.228L241.535 71.436C241.236 71.044 240.825 70.848 240.303 70.848ZM246.128 67.6C246.128 67.88 246.03 68.118 245.834 68.314C245.638 68.51 245.4 68.608 245.12 68.608C244.84 68.608 244.602 68.51 244.406 68.314C244.21 68.118 244.112 67.88 244.112 67.6C244.112 67.32 244.21 67.082 244.406 66.886C244.602 66.69 244.84 66.592 245.12 66.592C245.4 66.592 245.638 66.69 245.834 66.886C246.03 67.082 246.128 67.32 246.128 67.6ZM245.792 79.136L244.448 79.584V69.728H245.792V79.136ZM250.611 74.88C251.162 74.88 251.68 74.6373 252.165 74.152L252.935 75.132C252.31 75.7853 251.535 76.112 250.611 76.112C249.715 76.112 248.95 75.7947 248.315 75.16C247.681 74.5253 247.363 73.76 247.363 72.864C247.363 71.968 247.681 71.2027 248.315 70.568C248.95 69.9333 249.715 69.616 250.611 69.616C251.311 69.616 251.909 69.8167 252.403 70.218C252.898 70.61 253.234 71.1467 253.411 71.828L249.253 74.236C249.384 74.4227 249.575 74.5767 249.827 74.698C250.089 74.8193 250.35 74.88 250.611 74.88ZM250.611 70.848C250.107 70.848 249.664 71.0533 249.281 71.464C248.899 71.8747 248.707 72.3413 248.707 72.864C248.707 72.8827 248.717 73.004 248.735 73.228L251.843 71.436C251.545 71.044 251.134 70.848 250.611 70.848ZM256.101 69.728V70.722C256.521 69.9847 257.267 69.616 258.341 69.616V71.044C257.93 70.96 257.557 70.9787 257.221 71.1C256.474 71.3707 256.101 72.066 256.101 73.186V76H254.757V69.728H256.101ZM259.231 72.864C259.231 71.968 259.548 71.2027 260.183 70.568C260.817 69.9333 261.583 69.616 262.479 69.616C263.375 69.616 264.14 69.9333 264.775 70.568C265.409 71.2027 265.727 71.968 265.727 72.864C265.727 73.76 265.409 74.5253 264.775 75.16C264.14 75.7947 263.375 76.112 262.479 76.112C261.583 76.112 260.817 75.7947 260.183 75.16C259.548 74.5253 259.231 73.76 259.231 72.864ZM261.149 74.278C261.522 74.6793 261.965 74.88 262.479 74.88C263.001 74.88 263.449 74.6793 263.823 74.278C264.196 73.8953 264.383 73.424 264.383 72.864C264.383 72.3133 264.196 71.8373 263.823 71.436C263.449 71.044 263.001 70.848 262.479 70.848C261.975 70.848 261.531 71.044 261.149 71.436C260.766 71.8467 260.575 72.3227 260.575 72.864C260.575 73.4053 260.766 73.8767 261.149 74.278ZM268.297 76.112C268.017 76.112 267.779 76.014 267.583 75.818C267.387 75.622 267.289 75.384 267.289 75.104C267.289 74.8147 267.387 74.5767 267.583 74.39C267.779 74.194 268.017 74.096 268.297 74.096C268.586 74.096 268.824 74.194 269.011 74.39C269.207 74.5767 269.305 74.8147 269.305 75.104C269.305 75.384 269.207 75.622 269.011 75.818C268.824 76.014 268.586 76.112 268.297 76.112Z" fill="white"/>
</svg>
