<svg width="236" height="227" viewBox="0 0 236 227" fill="none" xmlns="http://www.w3.org/2000/svg">
<rect width="236" height="227" rx="12" fill="#E91D24"/>
<path d="M21.6996 26.42H24.4396C26.6929 26.42 28.4529 27.08 29.7196 28.4C30.9863 29.7467 31.6196 31.4333 31.6196 33.46C31.6196 35.4867 30.9796 37.1667 29.6996 38.5C28.4196 39.8333 26.6663 40.5 24.4396 40.5H21.6996V26.42ZM23.6196 38.74H24.7396C26.1529 38.74 27.3329 38.2267 28.2796 37.2C29.2263 36.1733 29.6996 34.9267 29.6996 33.46C29.6996 31.9933 29.2263 30.7467 28.2796 29.72C27.3329 28.6933 26.1529 28.18 24.7396 28.18H23.6196V38.74ZM38.1801 38.9C38.9667 38.9 39.7067 38.5533 40.4001 37.86L41.5001 39.26C40.6067 40.1933 39.5001 40.66 38.1801 40.66C36.9001 40.66 35.8067 40.2067 34.9001 39.3C33.9934 38.3933 33.5401 37.3 33.5401 36.02C33.5401 34.74 33.9934 33.6467 34.9001 32.74C35.8067 31.8333 36.9001 31.38 38.1801 31.38C39.1801 31.38 40.0334 31.6667 40.7401 32.24C41.4467 32.8 41.9267 33.5667 42.1801 34.54L36.2401 37.98C36.4267 38.2467 36.7001 38.4667 37.0601 38.64C37.4334 38.8133 37.8067 38.9 38.1801 38.9ZM38.1801 33.14C37.4601 33.14 36.8267 33.4333 36.2801 34.02C35.7334 34.6067 35.4601 35.2733 35.4601 36.02C35.4601 36.0467 35.4734 36.22 35.5001 36.54L39.9401 33.98C39.5134 33.42 38.9267 33.14 38.1801 33.14ZM47.6345 34.9C49.5411 35.34 50.4945 36.3133 50.4945 37.82C50.4945 38.66 50.1811 39.34 49.5545 39.86C48.9278 40.3933 48.1811 40.66 47.3145 40.66C45.9678 40.66 44.7878 40.1533 43.7745 39.14L44.7345 37.74C45.5078 38.4867 46.3278 38.8733 47.1945 38.9C47.6078 38.9133 47.9411 38.82 48.1945 38.62C48.4478 38.42 48.5745 38.1867 48.5745 37.92C48.5745 37.4133 48.1611 37.0467 47.3345 36.82C46.1745 36.5 45.3678 36.1333 44.9145 35.72C44.4745 35.3067 44.2545 34.72 44.2545 33.96C44.2545 33.24 44.5278 32.6333 45.0745 32.14C45.6345 31.6333 46.3745 31.38 47.2945 31.38C48.2411 31.38 49.1011 31.6867 49.8745 32.3L48.9745 33.7C48.4811 33.3267 47.9211 33.14 47.2945 33.14C46.9478 33.14 46.6745 33.2133 46.4745 33.36C46.2745 33.5067 46.1745 33.6867 46.1745 33.9C46.1745 34.1533 46.2745 34.3533 46.4745 34.5C46.6878 34.6333 47.0745 34.7667 47.6345 34.9ZM54.811 39.38V45.3H52.891V31.54H54.811V32.66C55.5443 31.8067 56.5043 31.38 57.691 31.38C58.931 31.38 59.991 31.8333 60.871 32.74C61.7377 33.6467 62.171 34.74 62.171 36.02C62.171 37.3 61.7377 38.3933 60.871 39.3C59.991 40.2067 58.931 40.66 57.691 40.66C56.5043 40.66 55.5443 40.2333 54.811 39.38ZM59.471 33.98C58.9243 33.42 58.2777 33.14 57.531 33.14C56.771 33.14 56.131 33.42 55.611 33.98C55.0777 34.5267 54.811 35.2067 54.811 36.02C54.811 36.8333 55.0777 37.5133 55.611 38.06C56.131 38.62 56.771 38.9 57.531 38.9C58.2777 38.9 58.9243 38.62 59.471 38.06C59.991 37.5 60.251 36.82 60.251 36.02C60.251 35.22 59.991 34.54 59.471 33.98ZM67.8107 40.66C66.664 40.66 65.784 40.28 65.1707 39.52C64.5574 38.76 64.2507 37.6733 64.2507 36.26V31.54H66.1707V36.42C66.1707 38.0733 66.8374 38.9 68.1707 38.9C68.784 38.9 69.2974 38.6333 69.7107 38.1C70.124 37.5667 70.3307 36.8733 70.3307 36.02V31.54H72.2507V40.5H70.3307V39.38C70.144 39.7267 69.824 40.0267 69.3707 40.28C68.9174 40.5333 68.3974 40.66 67.8107 40.66ZM79.1371 30.26H77.8571L79.1371 27.06H81.0571L79.1371 30.26ZM79.1371 38.9C79.9238 38.9 80.6638 38.5533 81.3571 37.86L82.4571 39.26C81.5638 40.1933 80.4571 40.66 79.1371 40.66C77.8571 40.66 76.7638 40.2067 75.8571 39.3C74.9504 38.3933 74.4971 37.3 74.4971 36.02C74.4971 34.74 74.9504 33.6467 75.8571 32.74C76.7638 31.8333 77.8571 31.38 79.1371 31.38C80.1371 31.38 80.9904 31.6667 81.6971 32.24C82.4038 32.8 82.8838 33.5667 83.1371 34.54L77.1971 37.98C77.3838 38.2467 77.6571 38.4667 78.0171 38.64C78.3904 38.8133 78.7638 38.9 79.1371 38.9ZM79.1371 33.14C78.4171 33.14 77.7838 33.4333 77.2371 34.02C76.6904 34.6067 76.4171 35.2733 76.4171 36.02C76.4171 36.0467 76.4304 36.22 76.4571 36.54L80.8971 33.98C80.4704 33.42 79.8838 33.14 79.1371 33.14ZM88.5915 34.9C90.4982 35.34 91.4515 36.3133 91.4515 37.82C91.4515 38.66 91.1382 39.34 90.5115 39.86C89.8848 40.3933 89.1382 40.66 88.2715 40.66C86.9248 40.66 85.7448 40.1533 84.7315 39.14L85.6915 37.74C86.4648 38.4867 87.2848 38.8733 88.1515 38.9C88.5648 38.9133 88.8982 38.82 89.1515 38.62C89.4048 38.42 89.5315 38.1867 89.5315 37.92C89.5315 37.4133 89.1182 37.0467 88.2915 36.82C87.1315 36.5 86.3248 36.1333 85.8715 35.72C85.4315 35.3067 85.2115 34.72 85.2115 33.96C85.2115 33.24 85.4848 32.6333 86.0315 32.14C86.5915 31.6333 87.3315 31.38 88.2515 31.38C89.1982 31.38 90.0582 31.6867 90.8315 32.3L89.9315 33.7C89.4382 33.3267 88.8782 33.14 88.2515 33.14C87.9048 33.14 87.6315 33.2133 87.4315 33.36C87.2315 33.5067 87.1315 33.6867 87.1315 33.9C87.1315 34.1533 87.2315 34.3533 87.4315 34.5C87.6448 34.6333 88.0315 34.7667 88.5915 34.9ZM107.443 32.66V25.78H109.363V40.5H107.443V39.38C106.71 40.2333 105.75 40.66 104.563 40.66C103.323 40.66 102.27 40.2067 101.403 39.3C100.523 38.3933 100.083 37.3 100.083 36.02C100.083 34.74 100.523 33.6467 101.403 32.74C102.27 31.8333 103.323 31.38 104.563 31.38C105.75 31.38 106.71 31.8067 107.443 32.66ZM102.803 38.06C103.323 38.62 103.963 38.9 104.723 38.9C105.47 38.9 106.116 38.62 106.663 38.06C107.183 37.5 107.443 36.82 107.443 36.02C107.443 35.22 107.183 34.54 106.663 33.98C106.116 33.42 105.47 33.14 104.723 33.14C103.963 33.14 103.323 33.42 102.803 33.98C102.27 34.5267 102.003 35.2067 102.003 36.02C102.003 36.8333 102.27 37.5133 102.803 38.06ZM116.246 38.9C117.033 38.9 117.773 38.5533 118.466 37.86L119.566 39.26C118.673 40.1933 117.566 40.66 116.246 40.66C114.966 40.66 113.873 40.2067 112.966 39.3C112.06 38.3933 111.606 37.3 111.606 36.02C111.606 34.74 112.06 33.6467 112.966 32.74C113.873 31.8333 114.966 31.38 116.246 31.38C117.246 31.38 118.1 31.6667 118.806 32.24C119.513 32.8 119.993 33.5667 120.246 34.54L114.306 37.98C114.493 38.2467 114.766 38.4667 115.126 38.64C115.5 38.8133 115.873 38.9 116.246 38.9ZM116.246 33.14C115.526 33.14 114.893 33.4333 114.346 34.02C113.8 34.6067 113.526 35.2733 113.526 36.02C113.526 36.0467 113.54 36.22 113.566 36.54L118.006 33.98C117.58 33.42 116.993 33.14 116.246 33.14ZM129.2 40.5V25.78H131.12V40.5H129.2ZM141.521 36.3V40.5H139.601V39.34C138.854 40.22 137.927 40.66 136.821 40.66C135.861 40.66 135.074 40.3733 134.461 39.8C133.834 39.24 133.521 38.52 133.521 37.64C133.521 36.8 133.827 36.1133 134.441 35.58C135.067 35.0467 135.821 34.76 136.701 34.72C137.594 34.68 138.541 34.86 139.541 35.26C139.461 33.8467 138.787 33.14 137.521 33.14C136.761 33.14 136.067 33.3333 135.441 33.72L134.641 32.34C135.481 31.7 136.467 31.38 137.601 31.38C140.214 31.38 141.521 33.02 141.521 36.3ZM139.601 36.84C139.147 36.5733 138.587 36.42 137.921 36.38C137.254 36.34 136.667 36.44 136.161 36.68C135.667 36.9067 135.427 37.2467 135.441 37.7C135.441 38.0467 135.581 38.3333 135.861 38.56C136.154 38.7867 136.534 38.9 137.001 38.9C137.614 38.9 138.181 38.7 138.701 38.3C139.221 37.9 139.521 37.4133 139.601 36.84ZM155.114 38.9C155.954 38.9 156.62 38.6333 157.114 38.1L158.154 39.54C157.287 40.2867 156.274 40.66 155.114 40.66C153.834 40.66 152.74 40.2067 151.834 39.3C150.927 38.3933 150.474 37.3 150.474 36.02C150.474 34.74 150.927 33.6467 151.834 32.74C152.74 31.8333 153.834 31.38 155.114 31.38C156.274 31.38 157.287 31.7533 158.154 32.5L157.114 33.94C156.62 33.4067 155.954 33.14 155.114 33.14C154.394 33.14 153.76 33.42 153.214 33.98C152.667 34.5667 152.394 35.2467 152.394 36.02C152.394 36.7933 152.667 37.4667 153.214 38.04C153.747 38.6133 154.38 38.9 155.114 38.9ZM167.771 36.3V40.5H165.851V39.34C165.104 40.22 164.177 40.66 163.071 40.66C162.111 40.66 161.324 40.3733 160.711 39.8C160.084 39.24 159.771 38.52 159.771 37.64C159.771 36.8 160.077 36.1133 160.691 35.58C161.317 35.0467 162.071 34.76 162.951 34.72C163.844 34.68 164.791 34.86 165.791 35.26C165.711 33.8467 165.037 33.14 163.771 33.14C163.011 33.14 162.317 33.3333 161.691 33.72L160.891 32.34C161.731 31.7 162.717 31.38 163.851 31.38C166.464 31.38 167.771 33.02 167.771 36.3ZM165.851 36.84C165.397 36.5733 164.837 36.42 164.171 36.38C163.504 36.34 162.917 36.44 162.411 36.68C161.917 36.9067 161.677 37.2467 161.691 37.7C161.691 38.0467 161.831 38.3333 162.111 38.56C162.404 38.7867 162.784 38.9 163.251 38.9C163.864 38.9 164.431 38.7 164.951 38.3C165.471 37.9 165.771 37.4133 165.851 36.84ZM172.409 31.54V32.96C173.009 31.9067 174.075 31.38 175.609 31.38V33.42C175.022 33.3 174.489 33.3267 174.009 33.5C172.942 33.8867 172.409 34.88 172.409 36.48V40.5H170.489V31.54H172.409ZM180.084 31.54V32.96C180.684 31.9067 181.751 31.38 183.284 31.38V33.42C182.698 33.3 182.164 33.3267 181.684 33.5C180.618 33.8867 180.084 34.88 180.084 36.48V40.5H178.164V31.54H180.084ZM189.196 38.9C189.982 38.9 190.722 38.5533 191.416 37.86L192.516 39.26C191.622 40.1933 190.516 40.66 189.196 40.66C187.916 40.66 186.822 40.2067 185.916 39.3C185.009 38.3933 184.556 37.3 184.556 36.02C184.556 34.74 185.009 33.6467 185.916 32.74C186.822 31.8333 187.916 31.38 189.196 31.38C190.196 31.38 191.049 31.6667 191.756 32.24C192.462 32.8 192.942 33.5667 193.196 34.54L187.256 37.98C187.442 38.2467 187.716 38.4667 188.076 38.64C188.449 38.8133 188.822 38.9 189.196 38.9ZM189.196 33.14C188.476 33.14 187.842 33.4333 187.296 34.02C186.749 34.6067 186.476 35.2733 186.476 36.02C186.476 36.0467 186.489 36.22 186.516 36.54L190.956 33.98C190.529 33.42 189.942 33.14 189.196 33.14ZM197.038 31.54V32.96C197.638 31.9067 198.704 31.38 200.238 31.38V33.42C199.651 33.3 199.118 33.3267 198.638 33.5C197.571 33.8867 197.038 34.88 197.038 36.48V40.5H195.118V31.54H197.038ZM209.509 36.3V40.5H207.589V39.34C206.842 40.22 205.915 40.66 204.809 40.66C203.849 40.66 203.062 40.3733 202.449 39.8C201.822 39.24 201.509 38.52 201.509 37.64C201.509 36.8 201.815 36.1133 202.429 35.58C203.055 35.0467 203.809 34.76 204.689 34.72C205.582 34.68 206.529 34.86 207.529 35.26C207.449 33.8467 206.775 33.14 205.509 33.14C204.749 33.14 204.055 33.3333 203.429 33.72L202.629 32.34C203.469 31.7 204.455 31.38 205.589 31.38C208.202 31.38 209.509 33.02 209.509 36.3ZM207.589 36.84C207.135 36.5733 206.575 36.42 205.909 36.38C205.242 36.34 204.655 36.44 204.149 36.68C203.655 36.9067 203.415 37.2467 203.429 37.7C203.429 38.0467 203.569 38.3333 203.849 38.56C204.142 38.7867 204.522 38.9 204.989 38.9C205.602 38.9 206.169 38.7 206.689 38.3C207.209 37.9 207.509 37.4133 207.589 36.84ZM213.823 42.74H212.383V38.26H214.623L213.823 42.74ZM25.5337 52.42V64.74H30.0137V66.5H23.6137V52.42H25.5337ZM34.9785 54.5C34.9785 54.9 34.8385 55.24 34.5585 55.52C34.2785 55.8 33.9385 55.94 33.5385 55.94C33.1385 55.94 32.7985 55.8 32.5185 55.52C32.2385 55.24 32.0985 54.9 32.0985 54.5C32.0985 54.1 32.2385 53.76 32.5185 53.48C32.7985 53.2 33.1385 53.06 33.5385 53.06C33.9385 53.06 34.2785 53.2 34.5585 53.48C34.8385 53.76 34.9785 54.1 34.9785 54.5ZM34.4985 66.5H32.5785V57.54H34.4985V66.5ZM41.9795 57.38C43.1261 57.38 44.0061 57.76 44.6195 58.52C45.2328 59.28 45.5395 60.3667 45.5395 61.78V66.5H43.6195V61.78C43.6195 60.8867 43.4595 60.2267 43.1395 59.8C42.8328 59.36 42.3261 59.14 41.6195 59.14C41.0061 59.14 40.4928 59.4 40.0795 59.92C39.6661 60.4267 39.4595 61.0733 39.4595 61.86V66.5H37.5395V57.54H39.4595V58.66C39.6461 58.3133 39.9661 58.0133 40.4195 57.76C40.8728 57.5067 41.3928 57.38 41.9795 57.38ZM55.1384 58.66V51.78H57.0584V66.5H55.1384V65.38C54.405 66.2333 53.445 66.66 52.2584 66.66C51.0184 66.66 49.965 66.2067 49.0984 65.3C48.2184 64.3933 47.7784 63.3 47.7784 62.02C47.7784 60.74 48.2184 59.6467 49.0984 58.74C49.965 57.8333 51.0184 57.38 52.2584 57.38C53.445 57.38 54.405 57.8067 55.1384 58.66ZM50.4984 64.06C51.0184 64.62 51.6584 64.9 52.4184 64.9C53.165 64.9 53.8117 64.62 54.3584 64.06C54.8784 63.5 55.1384 62.82 55.1384 62.02C55.1384 61.22 54.8784 60.54 54.3584 59.98C53.8117 59.42 53.165 59.14 52.4184 59.14C51.6584 59.14 51.0184 59.42 50.4984 59.98C49.965 60.5267 49.6984 61.2067 49.6984 62.02C49.6984 62.8333 49.965 63.5133 50.4984 64.06ZM64.538 57.38C65.6847 57.38 66.5647 57.76 67.178 58.52C67.7914 59.28 68.098 60.3667 68.098 61.78V66.5H66.178V61.78C66.178 60.8867 66.018 60.2267 65.698 59.8C65.3914 59.36 64.8847 59.14 64.178 59.14C63.5647 59.14 63.0514 59.4 62.638 59.92C62.2247 60.4267 62.018 61.0733 62.018 61.86V66.5H60.098V57.54H62.018V58.66C62.2047 58.3133 62.5247 58.0133 62.978 57.76C63.4314 57.5067 63.9514 57.38 64.538 57.38ZM70.337 62.02C70.337 60.74 70.7903 59.6467 71.697 58.74C72.6036 57.8333 73.697 57.38 74.977 57.38C76.257 57.38 77.3503 57.8333 78.257 58.74C79.1636 59.6467 79.617 60.74 79.617 62.02C79.617 63.3 79.1636 64.3933 78.257 65.3C77.3503 66.2067 76.257 66.66 74.977 66.66C73.697 66.66 72.6036 66.2067 71.697 65.3C70.7903 64.3933 70.337 63.3 70.337 62.02ZM73.077 64.04C73.6103 64.6133 74.2436 64.9 74.977 64.9C75.7236 64.9 76.3636 64.6133 76.897 64.04C77.4303 63.4933 77.697 62.82 77.697 62.02C77.697 61.2333 77.4303 60.5533 76.897 59.98C76.3636 59.42 75.7236 59.14 74.977 59.14C74.257 59.14 73.6236 59.42 73.077 59.98C72.5303 60.5667 72.257 61.2467 72.257 62.02C72.257 62.7933 72.5303 63.4667 73.077 64.04ZM83.7759 57.54V58.96C84.3759 57.9067 85.4425 57.38 86.9759 57.38V59.42C86.3892 59.3 85.8559 59.3267 85.3759 59.5C84.3092 59.8867 83.7759 60.88 83.7759 62.48V66.5H81.8559V57.54H83.7759ZM95.6071 58.66V51.78H97.5271V66.5H95.6071V65.38C94.8738 66.2333 93.9138 66.66 92.7271 66.66C91.4871 66.66 90.4338 66.2067 89.5671 65.3C88.6871 64.3933 88.2471 63.3 88.2471 62.02C88.2471 60.74 88.6871 59.6467 89.5671 58.74C90.4338 57.8333 91.4871 57.38 92.7271 57.38C93.9138 57.38 94.8738 57.8067 95.6071 58.66ZM90.9671 64.06C91.4871 64.62 92.1271 64.9 92.8871 64.9C93.6338 64.9 94.2804 64.62 94.8271 64.06C95.3471 63.5 95.6071 62.82 95.6071 62.02C95.6071 61.22 95.3471 60.54 94.8271 59.98C94.2804 59.42 93.6338 59.14 92.8871 59.14C92.1271 59.14 91.4871 59.42 90.9671 59.98C90.4338 60.5267 90.1671 61.2067 90.1671 62.02C90.1671 62.8333 90.4338 63.5133 90.9671 64.06ZM110.662 63.6L113.042 57.54H115.122L109.542 71.3H107.502L109.682 65.98L106.162 57.54H108.242L110.662 63.6ZM126.99 60.9C128.897 61.34 129.85 62.3133 129.85 63.82C129.85 64.66 129.537 65.34 128.91 65.86C128.283 66.3933 127.537 66.66 126.67 66.66C125.323 66.66 124.143 66.1533 123.13 65.14L124.09 63.74C124.863 64.4867 125.683 64.8733 126.55 64.9C126.963 64.9133 127.297 64.82 127.55 64.62C127.803 64.42 127.93 64.1867 127.93 63.92C127.93 63.4133 127.517 63.0467 126.69 62.82C125.53 62.5 124.723 62.1333 124.27 61.72C123.83 61.3067 123.61 60.72 123.61 59.96C123.61 59.24 123.883 58.6333 124.43 58.14C124.99 57.6333 125.73 57.38 126.65 57.38C127.597 57.38 128.457 57.6867 129.23 58.3L128.33 59.7C127.837 59.3267 127.277 59.14 126.65 59.14C126.303 59.14 126.03 59.2133 125.83 59.36C125.63 59.5067 125.53 59.6867 125.53 59.9C125.53 60.1533 125.63 60.3533 125.83 60.5C126.043 60.6333 126.43 60.7667 126.99 60.9ZM135.486 66.66C134.34 66.66 133.46 66.28 132.846 65.52C132.233 64.76 131.926 63.6733 131.926 62.26V57.54H133.846V62.42C133.846 64.0733 134.513 64.9 135.846 64.9C136.46 64.9 136.973 64.6333 137.386 64.1C137.8 63.5667 138.006 62.8733 138.006 62.02V57.54H139.926V66.5H138.006V65.38C137.82 65.7267 137.5 66.0267 137.046 66.28C136.593 66.5333 136.073 66.66 135.486 66.66ZM153.844 64.9C154.631 64.9 155.371 64.5533 156.064 63.86L157.164 65.26C156.271 66.1933 155.164 66.66 153.844 66.66C152.564 66.66 151.471 66.2067 150.564 65.3C149.657 64.3933 149.204 63.3 149.204 62.02C149.204 60.74 149.657 59.6467 150.564 58.74C151.471 57.8333 152.564 57.38 153.844 57.38C154.844 57.38 155.697 57.6667 156.404 58.24C157.111 58.8 157.591 59.5667 157.844 60.54L151.904 63.98C152.091 64.2467 152.364 64.4667 152.724 64.64C153.097 64.8133 153.471 64.9 153.844 64.9ZM153.844 59.14C153.124 59.14 152.491 59.4333 151.944 60.02C151.397 60.6067 151.124 61.2733 151.124 62.02C151.124 62.0467 151.137 62.22 151.164 62.54L155.604 59.98C155.177 59.42 154.591 59.14 153.844 59.14ZM168.719 71.3H166.799V65.38C166.065 66.2333 165.105 66.66 163.919 66.66C162.679 66.66 161.625 66.2067 160.759 65.3C159.879 64.3933 159.439 63.3 159.439 62.02C159.439 60.74 159.879 59.6467 160.759 58.74C161.625 57.8333 162.679 57.38 163.919 57.38C165.105 57.38 166.065 57.8067 166.799 58.66V57.54H168.719V71.3ZM166.019 59.98C165.472 59.42 164.825 59.14 164.079 59.14C163.319 59.14 162.679 59.42 162.159 59.98C161.625 60.5267 161.359 61.2067 161.359 62.02C161.359 62.8333 161.625 63.5133 162.159 64.06C162.679 64.62 163.319 64.9 164.079 64.9C164.825 64.9 165.472 64.62 166.019 64.06C166.539 63.5 166.799 62.82 166.799 62.02C166.799 61.22 166.539 60.54 166.019 59.98ZM174.998 66.66C173.852 66.66 172.972 66.28 172.358 65.52C171.745 64.76 171.438 63.6733 171.438 62.26V57.54H173.358V62.42C173.358 64.0733 174.025 64.9 175.358 64.9C175.972 64.9 176.485 64.6333 176.898 64.1C177.312 63.5667 177.518 62.8733 177.518 62.02V57.54H179.438V66.5H177.518V65.38C177.332 65.7267 177.012 66.0267 176.558 66.28C176.105 66.5333 175.585 66.66 174.998 66.66ZM184.881 54.5C184.881 54.9 184.741 55.24 184.461 55.52C184.181 55.8 183.841 55.94 183.441 55.94C183.041 55.94 182.701 55.8 182.421 55.52C182.141 55.24 182.001 54.9 182.001 54.5C182.001 54.1 182.141 53.76 182.421 53.48C182.701 53.2 183.041 53.06 183.441 53.06C183.841 53.06 184.181 53.2 184.461 53.48C184.741 53.76 184.881 54.1 184.881 54.5ZM184.401 66.5H182.481V57.54H184.401V66.5ZM189.362 65.38V71.3H187.442V57.54H189.362V58.66C190.095 57.8067 191.055 57.38 192.242 57.38C193.482 57.38 194.542 57.8333 195.422 58.74C196.288 59.6467 196.722 60.74 196.722 62.02C196.722 63.3 196.288 64.3933 195.422 65.3C194.542 66.2067 193.482 66.66 192.242 66.66C191.055 66.66 190.095 66.2333 189.362 65.38ZM194.022 59.98C193.475 59.42 192.828 59.14 192.082 59.14C191.322 59.14 190.682 59.42 190.162 59.98C189.628 60.5267 189.362 61.2067 189.362 62.02C189.362 62.8333 189.628 63.5133 190.162 64.06C190.682 64.62 191.322 64.9 192.082 64.9C192.828 64.9 193.475 64.62 194.022 64.06C194.542 63.5 194.802 62.82 194.802 62.02C194.802 61.22 194.542 60.54 194.022 59.98ZM198.638 62.02C198.638 60.74 199.091 59.6467 199.998 58.74C200.904 57.8333 201.998 57.38 203.278 57.38C204.558 57.38 205.651 57.8333 206.558 58.74C207.464 59.6467 207.918 60.74 207.918 62.02C207.918 63.3 207.464 64.3933 206.558 65.3C205.651 66.2067 204.558 66.66 203.278 66.66C201.998 66.66 200.904 66.2067 199.998 65.3C199.091 64.3933 198.638 63.3 198.638 62.02ZM201.378 64.04C201.911 64.6133 202.544 64.9 203.278 64.9C204.024 64.9 204.664 64.6133 205.198 64.04C205.731 63.4933 205.998 62.82 205.998 62.02C205.998 61.2333 205.731 60.5533 205.198 59.98C204.664 59.42 204.024 59.14 203.278 59.14C202.558 59.14 201.924 59.42 201.378 59.98C200.831 60.5667 200.558 61.2467 200.558 62.02C200.558 62.7933 200.831 63.4667 201.378 64.04ZM211.909 68.74H210.469V64.26H212.709L211.909 68.74ZM39.1176 90.9C39.9042 90.9 40.6442 90.5533 41.3376 89.86L42.4376 91.26C41.5442 92.1933 40.4376 92.66 39.1176 92.66C37.8376 92.66 36.7442 92.2067 35.8376 91.3C34.9309 90.3933 34.4776 89.3 34.4776 88.02C34.4776 86.74 34.9309 85.6467 35.8376 84.74C36.7442 83.8333 37.8376 83.38 39.1176 83.38C40.1176 83.38 40.9709 83.6667 41.6776 84.24C42.3842 84.8 42.8642 85.5667 43.1176 86.54L37.1776 89.98C37.3642 90.2467 37.6376 90.4667 37.9976 90.64C38.3709 90.8133 38.7442 90.9 39.1176 90.9ZM39.1176 85.14C38.3976 85.14 37.7642 85.4333 37.2176 86.02C36.6709 86.6067 36.3976 87.2733 36.3976 88.02C36.3976 88.0467 36.4109 88.22 36.4376 88.54L40.8776 85.98C40.4509 85.42 39.8642 85.14 39.1176 85.14ZM49.4795 83.38C50.6261 83.38 51.5061 83.76 52.1195 84.52C52.7328 85.28 53.0395 86.3667 53.0395 87.78V92.5H51.1195V87.78C51.1195 86.8867 50.9595 86.2267 50.6395 85.8C50.3328 85.36 49.8261 85.14 49.1195 85.14C48.5061 85.14 47.9928 85.4 47.5795 85.92C47.1661 86.4267 46.9595 87.0733 46.9595 87.86V92.5H45.0395V83.54H46.9595V84.66C47.1461 84.3133 47.4661 84.0133 47.9195 83.76C48.3728 83.5067 48.8928 83.38 49.4795 83.38ZM59.9184 90.9C60.7584 90.9 61.425 90.6333 61.9184 90.1L62.9584 91.54C62.0917 92.2867 61.0784 92.66 59.9184 92.66C58.6384 92.66 57.545 92.2067 56.6384 91.3C55.7317 90.3933 55.2784 89.3 55.2784 88.02C55.2784 86.74 55.7317 85.6467 56.6384 84.74C57.545 83.8333 58.6384 83.38 59.9184 83.38C61.0784 83.38 62.0917 83.7533 62.9584 84.5L61.9184 85.94C61.425 85.4067 60.7584 85.14 59.9184 85.14C59.1984 85.14 58.565 85.42 58.0184 85.98C57.4717 86.5667 57.1984 87.2467 57.1984 88.02C57.1984 88.7933 57.4717 89.4667 58.0184 90.04C58.5517 90.6133 59.185 90.9 59.9184 90.9ZM72.5752 88.3V92.5H70.6552V91.34C69.9086 92.22 68.9819 92.66 67.8752 92.66C66.9152 92.66 66.1286 92.3733 65.5152 91.8C64.8886 91.24 64.5752 90.52 64.5752 89.64C64.5752 88.8 64.8819 88.1133 65.4952 87.58C66.1219 87.0467 66.8752 86.76 67.7552 86.72C68.6486 86.68 69.5952 86.86 70.5952 87.26C70.5152 85.8467 69.8419 85.14 68.5752 85.14C67.8152 85.14 67.1219 85.3333 66.4952 85.72L65.6952 84.34C66.5352 83.7 67.5219 83.38 68.6552 83.38C71.2686 83.38 72.5752 85.02 72.5752 88.3ZM70.6552 88.84C70.2019 88.5733 69.6419 88.42 68.9752 88.38C68.3086 88.34 67.7219 88.44 67.2152 88.68C66.7219 88.9067 66.4819 89.2467 66.4952 89.7C66.4952 90.0467 66.6352 90.3333 66.9152 90.56C67.2086 90.7867 67.5886 90.9 68.0552 90.9C68.6686 90.9 69.2352 90.7 69.7552 90.3C70.2752 89.9 70.5752 89.4133 70.6552 88.84ZM77.2134 83.54V84.96C77.8134 83.9067 78.88 83.38 80.4134 83.38V85.42C79.8267 85.3 79.2934 85.3267 78.8134 85.5C77.7467 85.8867 77.2134 86.88 77.2134 88.48V92.5H75.2934V83.54H77.2134ZM85.2129 80.5C85.2129 80.9 85.0729 81.24 84.7929 81.52C84.5129 81.8 84.1729 81.94 83.7729 81.94C83.3729 81.94 83.0329 81.8 82.7529 81.52C82.4729 81.24 82.3329 80.9 82.3329 80.5C82.3329 80.1 82.4729 79.76 82.7529 79.48C83.0329 79.2 83.3729 79.06 83.7729 79.06C84.1729 79.06 84.5129 79.2 84.7929 79.48C85.0729 79.76 85.2129 80.1 85.2129 80.5ZM84.7329 92.5H82.8129V83.54H84.7329V92.5ZM94.0738 80.34L94.9738 81.14C94.4938 81.8867 93.8672 82.26 93.0938 82.26C92.6272 82.26 92.1738 82.1667 91.7338 81.98C90.4405 81.3667 89.5805 81.46 89.1538 82.26L88.2538 81.46C88.7338 80.7133 89.3605 80.34 90.1338 80.34C90.6538 80.34 91.1072 80.4267 91.4938 80.6C92.7872 81.24 93.6472 81.1533 94.0738 80.34ZM92.2138 83.38C93.3605 83.38 94.2405 83.76 94.8538 84.52C95.4672 85.28 95.7738 86.3667 95.7738 87.78V92.5H93.8538V87.78C93.8538 86.8867 93.6938 86.2267 93.3738 85.8C93.0672 85.36 92.5605 85.14 91.8538 85.14C91.2405 85.14 90.7272 85.4 90.3138 85.92C89.9005 86.4267 89.6938 87.0733 89.6938 87.86V92.5H87.7738V83.54H89.6938V84.66C89.8805 84.3133 90.2005 84.0133 90.6538 83.76C91.1072 83.5067 91.6272 83.38 92.2138 83.38ZM106.013 88.3V92.5H104.093V91.34C103.346 92.22 102.419 92.66 101.313 92.66C100.353 92.66 99.5661 92.3733 98.9527 91.8C98.3261 91.24 98.0127 90.52 98.0127 89.64C98.0127 88.8 98.3194 88.1133 98.9327 87.58C99.5594 87.0467 100.313 86.76 101.193 86.72C102.086 86.68 103.033 86.86 104.033 87.26C103.953 85.8467 103.279 85.14 102.013 85.14C101.253 85.14 100.559 85.3333 99.9327 85.72L99.1327 84.34C99.9727 83.7 100.959 83.38 102.093 83.38C104.706 83.38 106.013 85.02 106.013 88.3ZM104.093 88.84C103.639 88.5733 103.079 88.42 102.413 88.38C101.746 88.34 101.159 88.44 100.653 88.68C100.159 88.9067 99.9194 89.2467 99.9327 89.7C99.9327 90.0467 100.073 90.3333 100.353 90.56C100.646 90.7867 101.026 90.9 101.493 90.9C102.106 90.9 102.673 90.7 103.193 90.3C103.713 89.9 104.013 89.4133 104.093 88.84ZM115.607 84.66V77.78H117.527V92.5H115.607V91.38C114.874 92.2333 113.914 92.66 112.727 92.66C111.487 92.66 110.434 92.2067 109.567 91.3C108.687 90.3933 108.247 89.3 108.247 88.02C108.247 86.74 108.687 85.6467 109.567 84.74C110.434 83.8333 111.487 83.38 112.727 83.38C113.914 83.38 114.874 83.8067 115.607 84.66ZM110.967 90.06C111.487 90.62 112.127 90.9 112.887 90.9C113.634 90.9 114.28 90.62 114.827 90.06C115.347 89.5 115.607 88.82 115.607 88.02C115.607 87.22 115.347 86.54 114.827 85.98C114.28 85.42 113.634 85.14 112.887 85.14C112.127 85.14 111.487 85.42 110.967 85.98C110.434 86.5267 110.167 87.2067 110.167 88.02C110.167 88.8333 110.434 89.5133 110.967 90.06ZM119.771 88.02C119.771 86.74 120.224 85.6467 121.131 84.74C122.037 83.8333 123.131 83.38 124.411 83.38C125.691 83.38 126.784 83.8333 127.691 84.74C128.597 85.6467 129.051 86.74 129.051 88.02C129.051 89.3 128.597 90.3933 127.691 91.3C126.784 92.2067 125.691 92.66 124.411 92.66C123.131 92.66 122.037 92.2067 121.131 91.3C120.224 90.3933 119.771 89.3 119.771 88.02ZM122.511 90.04C123.044 90.6133 123.677 90.9 124.411 90.9C125.157 90.9 125.797 90.6133 126.331 90.04C126.864 89.4933 127.131 88.82 127.131 88.02C127.131 87.2333 126.864 86.5533 126.331 85.98C125.797 85.42 125.157 85.14 124.411 85.14C123.691 85.14 123.057 85.42 122.511 85.98C121.964 86.5667 121.691 87.2467 121.691 88.02C121.691 88.7933 121.964 89.4667 122.511 90.04ZM134.822 86.9C136.729 87.34 137.682 88.3133 137.682 89.82C137.682 90.66 137.369 91.34 136.742 91.86C136.115 92.3933 135.369 92.66 134.502 92.66C133.155 92.66 131.975 92.1533 130.962 91.14L131.922 89.74C132.695 90.4867 133.515 90.8733 134.382 90.9C134.795 90.9133 135.129 90.82 135.382 90.62C135.635 90.42 135.762 90.1867 135.762 89.92C135.762 89.4133 135.349 89.0467 134.522 88.82C133.362 88.5 132.555 88.1333 132.102 87.72C131.662 87.3067 131.442 86.72 131.442 85.96C131.442 85.24 131.715 84.6333 132.262 84.14C132.822 83.6333 133.562 83.38 134.482 83.38C135.429 83.38 136.289 83.6867 137.062 84.3L136.162 85.7C135.669 85.3267 135.109 85.14 134.482 85.14C134.135 85.14 133.862 85.2133 133.662 85.36C133.462 85.5067 133.362 85.6867 133.362 85.9C133.362 86.1533 133.462 86.3533 133.662 86.5C133.875 86.6333 134.262 86.7667 134.822 86.9ZM150.954 90.9C151.794 90.9 152.46 90.6333 152.954 90.1L153.994 91.54C153.127 92.2867 152.114 92.66 150.954 92.66C149.674 92.66 148.58 92.2067 147.674 91.3C146.767 90.3933 146.314 89.3 146.314 88.02C146.314 86.74 146.767 85.6467 147.674 84.74C148.58 83.8333 149.674 83.38 150.954 83.38C152.114 83.38 153.127 83.7533 153.994 84.5L152.954 85.94C152.46 85.4067 151.794 85.14 150.954 85.14C150.234 85.14 149.6 85.42 149.054 85.98C148.507 86.5667 148.234 87.2467 148.234 88.02C148.234 88.7933 148.507 89.4667 149.054 90.04C149.587 90.6133 150.22 90.9 150.954 90.9ZM155.61 88.02C155.61 86.74 156.064 85.6467 156.97 84.74C157.877 83.8333 158.97 83.38 160.25 83.38C161.53 83.38 162.624 83.8333 163.53 84.74C164.437 85.6467 164.89 86.74 164.89 88.02C164.89 89.3 164.437 90.3933 163.53 91.3C162.624 92.2067 161.53 92.66 160.25 92.66C158.97 92.66 157.877 92.2067 156.97 91.3C156.064 90.3933 155.61 89.3 155.61 88.02ZM158.35 90.04C158.884 90.6133 159.517 90.9 160.25 90.9C160.997 90.9 161.637 90.6133 162.17 90.04C162.704 89.4933 162.97 88.82 162.97 88.02C162.97 87.2333 162.704 86.5533 162.17 85.98C161.637 85.42 160.997 85.14 160.25 85.14C159.53 85.14 158.897 85.42 158.35 85.98C157.804 86.5667 157.53 87.2467 157.53 88.02C157.53 88.7933 157.804 89.4667 158.35 90.04ZM171.569 83.38C172.716 83.38 173.596 83.76 174.209 84.52C174.823 85.28 175.129 86.3667 175.129 87.78V92.5H173.209V87.78C173.209 86.8867 173.049 86.2267 172.729 85.8C172.423 85.36 171.916 85.14 171.209 85.14C170.596 85.14 170.083 85.4 169.669 85.92C169.256 86.4267 169.049 87.0733 169.049 87.86V92.5H167.129V83.54H169.049V84.66C169.236 84.3133 169.556 84.0133 170.009 83.76C170.463 83.5067 170.983 83.38 171.569 83.38ZM187.947 86.9C189.854 87.34 190.807 88.3133 190.807 89.82C190.807 90.66 190.494 91.34 189.867 91.86C189.24 92.3933 188.494 92.66 187.627 92.66C186.28 92.66 185.1 92.1533 184.087 91.14L185.047 89.74C185.82 90.4867 186.64 90.8733 187.507 90.9C187.92 90.9133 188.254 90.82 188.507 90.62C188.76 90.42 188.887 90.1867 188.887 89.92C188.887 89.4133 188.474 89.0467 187.647 88.82C186.487 88.5 185.68 88.1333 185.227 87.72C184.787 87.3067 184.567 86.72 184.567 85.96C184.567 85.24 184.84 84.6333 185.387 84.14C185.947 83.6333 186.687 83.38 187.607 83.38C188.554 83.38 189.414 83.6867 190.187 84.3L189.287 85.7C188.794 85.3267 188.234 85.14 187.607 85.14C187.26 85.14 186.987 85.2133 186.787 85.36C186.587 85.5067 186.487 85.6867 186.487 85.9C186.487 86.1533 186.587 86.3533 186.787 86.5C187 86.6333 187.387 86.7667 187.947 86.9ZM196.444 92.66C195.297 92.66 194.417 92.28 193.804 91.52C193.19 90.76 192.884 89.6733 192.884 88.26V83.54H194.804V88.42C194.804 90.0733 195.47 90.9 196.804 90.9C197.417 90.9 197.93 90.6333 198.344 90.1C198.757 89.5667 198.964 88.8733 198.964 88.02V83.54H200.884V92.5H198.964V91.38C198.777 91.7267 198.457 92.0267 198.004 92.28C197.55 92.5333 197.03 92.66 196.444 92.66ZM43.7959 109.38C44.9425 109.38 45.8225 109.76 46.4359 110.52C47.0492 111.28 47.3559 112.367 47.3559 113.78V118.5H45.4359V113.78C45.4359 112.887 45.2759 112.227 44.9559 111.8C44.6492 111.36 44.1425 111.14 43.4359 111.14C42.8225 111.14 42.3092 111.4 41.8959 111.92C41.4825 112.427 41.2759 113.073 41.2759 113.86V118.5H39.3559V109.54H41.2759V110.66C41.4625 110.313 41.7825 110.013 42.2359 109.76C42.6892 109.507 43.2092 109.38 43.7959 109.38ZM53.3185 118.66C52.1718 118.66 51.2918 118.28 50.6785 117.52C50.0652 116.76 49.7585 115.673 49.7585 114.26V109.54H51.6785V114.42C51.6785 116.073 52.3452 116.9 53.6785 116.9C54.2918 116.9 54.8052 116.633 55.2185 116.1C55.6318 115.567 55.8385 114.873 55.8385 114.02V109.54H57.7585V118.5H55.8385V117.38C55.6518 117.727 55.3318 118.027 54.8785 118.28C54.4252 118.533 53.9052 118.66 53.3185 118.66ZM64.6449 116.9C65.4316 116.9 66.1716 116.553 66.8649 115.86L67.9649 117.26C67.0716 118.193 65.9649 118.66 64.6449 118.66C63.3649 118.66 62.2716 118.207 61.3649 117.3C60.4583 116.393 60.0049 115.3 60.0049 114.02C60.0049 112.74 60.4583 111.647 61.3649 110.74C62.2716 109.833 63.3649 109.38 64.6449 109.38C65.6449 109.38 66.4983 109.667 67.2049 110.24C67.9116 110.8 68.3916 111.567 68.6449 112.54L62.7049 115.98C62.8916 116.247 63.1649 116.467 63.5249 116.64C63.8983 116.813 64.2716 116.9 64.6449 116.9ZM64.6449 111.14C63.9249 111.14 63.2916 111.433 62.7449 112.02C62.1983 112.607 61.9249 113.273 61.9249 114.02C61.9249 114.047 61.9383 114.22 61.9649 114.54L66.4049 111.98C65.9783 111.42 65.3916 111.14 64.6449 111.14ZM77.9268 109.54L73.6068 118.82L69.2868 109.54H71.3668L73.6068 114.5L75.8468 109.54H77.9268ZM78.8916 114.02C78.8916 112.74 79.345 111.647 80.2516 110.74C81.1583 109.833 82.2516 109.38 83.5316 109.38C84.8116 109.38 85.905 109.833 86.8116 110.74C87.7183 111.647 88.1716 112.74 88.1716 114.02C88.1716 115.3 87.7183 116.393 86.8116 117.3C85.905 118.207 84.8116 118.66 83.5316 118.66C82.2516 118.66 81.1583 118.207 80.2516 117.3C79.345 116.393 78.8916 115.3 78.8916 114.02ZM81.6316 116.04C82.165 116.613 82.7983 116.9 83.5316 116.9C84.2783 116.9 84.9183 116.613 85.4516 116.04C85.985 115.493 86.2516 114.82 86.2516 114.02C86.2516 113.233 85.985 112.553 85.4516 111.98C84.9183 111.42 84.2783 111.14 83.5316 111.14C82.8116 111.14 82.1783 111.42 81.6316 111.98C81.085 112.567 80.8116 113.247 80.8116 114.02C80.8116 114.793 81.085 115.467 81.6316 116.04ZM101.442 116.9C102.282 116.9 102.948 116.633 103.442 116.1L104.482 117.54C103.615 118.287 102.602 118.66 101.442 118.66C100.162 118.66 99.0685 118.207 98.1618 117.3C97.2551 116.393 96.8018 115.3 96.8018 114.02C96.8018 112.74 97.2551 111.647 98.1618 110.74C99.0685 109.833 100.162 109.38 101.442 109.38C102.602 109.38 103.615 109.753 104.482 110.5L103.442 111.94C102.948 111.407 102.282 111.14 101.442 111.14C100.722 111.14 100.088 111.42 99.5418 111.98C98.9951 112.567 98.7218 113.247 98.7218 114.02C98.7218 114.793 98.9951 115.467 99.5418 116.04C100.075 116.613 100.708 116.9 101.442 116.9ZM106.099 114.02C106.099 112.74 106.552 111.647 107.459 110.74C108.365 109.833 109.459 109.38 110.739 109.38C112.019 109.38 113.112 109.833 114.019 110.74C114.925 111.647 115.379 112.74 115.379 114.02C115.379 115.3 114.925 116.393 114.019 117.3C113.112 118.207 112.019 118.66 110.739 118.66C109.459 118.66 108.365 118.207 107.459 117.3C106.552 116.393 106.099 115.3 106.099 114.02ZM108.839 116.04C109.372 116.613 110.005 116.9 110.739 116.9C111.485 116.9 112.125 116.613 112.659 116.04C113.192 115.493 113.459 114.82 113.459 114.02C113.459 113.233 113.192 112.553 112.659 111.98C112.125 111.42 111.485 111.14 110.739 111.14C110.019 111.14 109.385 111.42 108.839 111.98C108.292 112.567 108.019 113.247 108.019 114.02C108.019 114.793 108.292 115.467 108.839 116.04ZM127.658 109.38C128.738 109.38 129.571 109.767 130.158 110.54C130.758 111.3 131.058 112.38 131.058 113.78V118.5H129.138V113.78C129.138 112.02 128.524 111.14 127.298 111.14C126.711 111.14 126.231 111.393 125.858 111.9C125.484 112.393 125.298 113.047 125.298 113.86V118.5H123.378V113.78C123.378 112.02 122.764 111.14 121.538 111.14C120.951 111.14 120.471 111.393 120.098 111.9C119.724 112.393 119.538 113.047 119.538 113.86V118.5H117.618V109.54H119.538V110.66C119.751 110.367 119.938 110.147 120.098 110C120.258 109.853 120.491 109.713 120.798 109.58C121.104 109.447 121.471 109.38 121.898 109.38C123.164 109.38 124.084 109.887 124.658 110.9C125.098 110.34 125.538 109.947 125.978 109.72C126.431 109.493 126.991 109.38 127.658 109.38ZM135.709 117.38V123.3H133.789V109.54H135.709V110.66C136.443 109.807 137.403 109.38 138.589 109.38C139.829 109.38 140.889 109.833 141.769 110.74C142.636 111.647 143.069 112.74 143.069 114.02C143.069 115.3 142.636 116.393 141.769 117.3C140.889 118.207 139.829 118.66 138.589 118.66C137.403 118.66 136.443 118.233 135.709 117.38ZM140.369 111.98C139.823 111.42 139.176 111.14 138.429 111.14C137.669 111.14 137.029 111.42 136.509 111.98C135.976 112.527 135.709 113.207 135.709 114.02C135.709 114.833 135.976 115.513 136.509 116.06C137.029 116.62 137.669 116.9 138.429 116.9C139.176 116.9 139.823 116.62 140.369 116.06C140.889 115.5 141.149 114.82 141.149 114.02C141.149 113.22 140.889 112.54 140.369 111.98ZM152.985 114.3V118.5H151.065V117.34C150.319 118.22 149.392 118.66 148.285 118.66C147.325 118.66 146.539 118.373 145.925 117.8C145.299 117.24 144.985 116.52 144.985 115.64C144.985 114.8 145.292 114.113 145.905 113.58C146.532 113.047 147.285 112.76 148.165 112.72C149.059 112.68 150.005 112.86 151.005 113.26C150.925 111.847 150.252 111.14 148.985 111.14C148.225 111.14 147.532 111.333 146.905 111.72L146.105 110.34C146.945 109.7 147.932 109.38 149.065 109.38C151.679 109.38 152.985 111.02 152.985 114.3ZM151.065 114.84C150.612 114.573 150.052 114.42 149.385 114.38C148.719 114.34 148.132 114.44 147.625 114.68C147.132 114.907 146.892 115.247 146.905 115.7C146.905 116.047 147.045 116.333 147.325 116.56C147.619 116.787 147.999 116.9 148.465 116.9C149.079 116.9 149.645 116.7 150.165 116.3C150.685 115.9 150.985 115.413 151.065 114.84ZM162.004 106.34L162.904 107.14C162.424 107.887 161.797 108.26 161.024 108.26C160.557 108.26 160.104 108.167 159.664 107.98C158.37 107.367 157.51 107.46 157.084 108.26L156.184 107.46C156.664 106.713 157.29 106.34 158.064 106.34C158.584 106.34 159.037 106.427 159.424 106.6C160.717 107.24 161.577 107.153 162.004 106.34ZM160.144 109.38C161.29 109.38 162.17 109.76 162.784 110.52C163.397 111.28 163.704 112.367 163.704 113.78V118.5H161.784V113.78C161.784 112.887 161.624 112.227 161.304 111.8C160.997 111.36 160.49 111.14 159.784 111.14C159.17 111.14 158.657 111.4 158.244 111.92C157.83 112.427 157.624 113.073 157.624 113.86V118.5H155.704V109.54H157.624V110.66C157.81 110.313 158.13 110.013 158.584 109.76C159.037 109.507 159.557 109.38 160.144 109.38ZM170.582 116.9C171.369 116.9 172.109 116.553 172.802 115.86L173.902 117.26C173.009 118.193 171.902 118.66 170.582 118.66C169.302 118.66 168.209 118.207 167.302 117.3C166.396 116.393 165.942 115.3 165.942 114.02C165.942 112.74 166.396 111.647 167.302 110.74C168.209 109.833 169.302 109.38 170.582 109.38C171.582 109.38 172.436 109.667 173.142 110.24C173.849 110.8 174.329 111.567 174.582 112.54L168.642 115.98C168.829 116.247 169.102 116.467 169.462 116.64C169.836 116.813 170.209 116.9 170.582 116.9ZM170.582 111.14C169.862 111.14 169.229 111.433 168.682 112.02C168.136 112.607 167.862 113.273 167.862 114.02C167.862 114.047 167.876 114.22 167.902 114.54L172.342 111.98C171.916 111.42 171.329 111.14 170.582 111.14ZM178.424 109.54V110.96C179.024 109.907 180.091 109.38 181.624 109.38V111.42C181.038 111.3 180.504 111.327 180.024 111.5C178.958 111.887 178.424 112.88 178.424 114.48V118.5H176.504V109.54H178.424ZM182.896 114.02C182.896 112.74 183.349 111.647 184.256 110.74C185.162 109.833 186.256 109.38 187.536 109.38C188.816 109.38 189.909 109.833 190.816 110.74C191.722 111.647 192.176 112.74 192.176 114.02C192.176 115.3 191.722 116.393 190.816 117.3C189.909 118.207 188.816 118.66 187.536 118.66C186.256 118.66 185.162 118.207 184.256 117.3C183.349 116.393 182.896 115.3 182.896 114.02ZM185.636 116.04C186.169 116.613 186.802 116.9 187.536 116.9C188.282 116.9 188.922 116.613 189.456 116.04C189.989 115.493 190.256 114.82 190.256 114.02C190.256 113.233 189.989 112.553 189.456 111.98C188.922 111.42 188.282 111.14 187.536 111.14C186.816 111.14 186.182 111.42 185.636 111.98C185.089 112.567 184.816 113.247 184.816 114.02C184.816 114.793 185.089 115.467 185.636 116.04ZM196.167 120.74H194.727V116.26H196.967L196.167 120.74ZM41.4516 135.54V136.96C42.0516 135.907 43.1183 135.38 44.6516 135.38V137.42C44.065 137.3 43.5316 137.327 43.0516 137.5C41.985 137.887 41.4516 138.88 41.4516 140.48V144.5H39.5316V135.54H41.4516ZM50.5629 142.9C51.3496 142.9 52.0896 142.553 52.7829 141.86L53.8829 143.26C52.9896 144.193 51.8829 144.66 50.5629 144.66C49.2829 144.66 48.1896 144.207 47.2829 143.3C46.3762 142.393 45.9229 141.3 45.9229 140.02C45.9229 138.74 46.3762 137.647 47.2829 136.74C48.1896 135.833 49.2829 135.38 50.5629 135.38C51.5629 135.38 52.4162 135.667 53.1229 136.24C53.8296 136.8 54.3096 137.567 54.5629 138.54L48.6229 141.98C48.8096 142.247 49.0829 142.467 49.4429 142.64C49.8162 142.813 50.1896 142.9 50.5629 142.9ZM50.5629 137.14C49.8429 137.14 49.2096 137.433 48.6629 138.02C48.1162 138.607 47.8429 139.273 47.8429 140.02C47.8429 140.047 47.8562 140.22 47.8829 140.54L52.3229 137.98C51.8962 137.42 51.3096 137.14 50.5629 137.14ZM60.7973 142.9C61.6373 142.9 62.3039 142.633 62.7973 142.1L63.8373 143.54C62.9706 144.287 61.9573 144.66 60.7973 144.66C59.5173 144.66 58.4239 144.207 57.5173 143.3C56.6106 142.393 56.1573 141.3 56.1573 140.02C56.1573 138.74 56.6106 137.647 57.5173 136.74C58.4239 135.833 59.5173 135.38 60.7973 135.38C61.9573 135.38 62.9706 135.753 63.8373 136.5L62.7973 137.94C62.3039 137.407 61.6373 137.14 60.7973 137.14C60.0773 137.14 59.4439 137.42 58.8973 137.98C58.3506 138.567 58.0773 139.247 58.0773 140.02C58.0773 140.793 58.3506 141.467 58.8973 142.04C59.4306 142.613 60.0639 142.9 60.7973 142.9ZM73.4541 140.3V144.5H71.5341V143.34C70.7875 144.22 69.8608 144.66 68.7541 144.66C67.7941 144.66 67.0075 144.373 66.3941 143.8C65.7675 143.24 65.4541 142.52 65.4541 141.64C65.4541 140.8 65.7608 140.113 66.3741 139.58C67.0008 139.047 67.7541 138.76 68.6341 138.72C69.5275 138.68 70.4741 138.86 71.4741 139.26C71.3941 137.847 70.7208 137.14 69.4541 137.14C68.6941 137.14 68.0008 137.333 67.3741 137.72L66.5741 136.34C67.4141 135.7 68.4008 135.38 69.5341 135.38C72.1475 135.38 73.4541 137.02 73.4541 140.3ZM71.5341 140.84C71.0808 140.573 70.5208 140.42 69.8541 140.38C69.1875 140.34 68.6008 140.44 68.0941 140.68C67.6008 140.907 67.3608 141.247 67.3741 141.7C67.3741 142.047 67.5141 142.333 67.7941 142.56C68.0875 142.787 68.4675 142.9 68.9341 142.9C69.5475 142.9 70.1141 142.7 70.6341 142.3C71.1541 141.9 71.4541 141.413 71.5341 140.84ZM79.4123 144.66C78.2656 144.66 77.3856 144.28 76.7723 143.52C76.1589 142.76 75.8523 141.673 75.8523 140.26V135.54H77.7723V140.42C77.7723 142.073 78.4389 142.9 79.7723 142.9C80.3856 142.9 80.8989 142.633 81.3123 142.1C81.7256 141.567 81.9323 140.873 81.9323 140.02V135.54H83.8523V144.5H81.9323V143.38C81.7456 143.727 81.4256 144.027 80.9723 144.28C80.5189 144.533 79.9989 144.66 79.4123 144.66ZM93.4587 136.66V129.78H95.3787V144.5H93.4587V143.38C92.7253 144.233 91.7653 144.66 90.5787 144.66C89.3387 144.66 88.2853 144.207 87.4187 143.3C86.5387 142.393 86.0987 141.3 86.0987 140.02C86.0987 138.74 86.5387 137.647 87.4187 136.74C88.2853 135.833 89.3387 135.38 90.5787 135.38C91.7653 135.38 92.7253 135.807 93.4587 136.66ZM88.8187 142.06C89.3387 142.62 89.9787 142.9 90.7387 142.9C91.4853 142.9 92.132 142.62 92.6787 142.06C93.1987 141.5 93.4587 140.82 93.4587 140.02C93.4587 139.22 93.1987 138.54 92.6787 137.98C92.132 137.42 91.4853 137.14 90.7387 137.14C89.9787 137.14 89.3387 137.42 88.8187 137.98C88.2853 138.527 88.0187 139.207 88.0187 140.02C88.0187 140.833 88.2853 141.513 88.8187 142.06ZM105.778 140.3V144.5H103.858V143.34C103.112 144.22 102.185 144.66 101.078 144.66C100.118 144.66 99.3317 144.373 98.7184 143.8C98.0917 143.24 97.7784 142.52 97.7784 141.64C97.7784 140.8 98.085 140.113 98.6984 139.58C99.325 139.047 100.078 138.76 100.958 138.72C101.852 138.68 102.798 138.86 103.798 139.26C103.718 137.847 103.045 137.14 101.778 137.14C101.018 137.14 100.325 137.333 99.6984 137.72L98.8984 136.34C99.7384 135.7 100.725 135.38 101.858 135.38C104.472 135.38 105.778 137.02 105.778 140.3ZM103.858 140.84C103.405 140.573 102.845 140.42 102.178 140.38C101.512 140.34 100.925 140.44 100.418 140.68C99.925 140.907 99.685 141.247 99.6984 141.7C99.6984 142.047 99.8384 142.333 100.118 142.56C100.412 142.787 100.792 142.9 101.258 142.9C101.872 142.9 102.438 142.7 102.958 142.3C103.478 141.9 103.778 141.413 103.858 140.84ZM110.416 135.54V136.96C111.016 135.907 112.083 135.38 113.616 135.38V137.42C113.03 137.3 112.496 137.327 112.016 137.5C110.95 137.887 110.416 138.88 110.416 140.48V144.5H108.496V135.54H110.416ZM114.888 140.02C114.888 138.74 115.341 137.647 116.248 136.74C117.154 135.833 118.248 135.38 119.528 135.38C120.808 135.38 121.901 135.833 122.808 136.74C123.714 137.647 124.168 138.74 124.168 140.02C124.168 141.3 123.714 142.393 122.808 143.3C121.901 144.207 120.808 144.66 119.528 144.66C118.248 144.66 117.154 144.207 116.248 143.3C115.341 142.393 114.888 141.3 114.888 140.02ZM117.628 142.04C118.161 142.613 118.794 142.9 119.528 142.9C120.274 142.9 120.914 142.613 121.448 142.04C121.981 141.493 122.248 140.82 122.248 140.02C122.248 139.233 121.981 138.553 121.448 137.98C120.914 137.42 120.274 137.14 119.528 137.14C118.808 137.14 118.174 137.42 117.628 137.98C117.081 138.567 116.808 139.247 116.808 140.02C116.808 140.793 117.081 141.467 117.628 142.04ZM130.847 135.38C131.993 135.38 132.873 135.76 133.487 136.52C134.1 137.28 134.407 138.367 134.407 139.78V144.5H132.487V139.78C132.487 138.887 132.327 138.227 132.007 137.8C131.7 137.36 131.193 137.14 130.487 137.14C129.873 137.14 129.36 137.4 128.947 137.92C128.533 138.427 128.327 139.073 128.327 139.86V144.5H126.407V135.54H128.327V136.66C128.513 136.313 128.833 136.013 129.287 135.76C129.74 135.507 130.26 135.38 130.847 135.38ZM150.724 136.66V129.78H152.644V144.5H150.724V143.38C149.991 144.233 149.031 144.66 147.844 144.66C146.604 144.66 145.551 144.207 144.684 143.3C143.804 142.393 143.364 141.3 143.364 140.02C143.364 138.74 143.804 137.647 144.684 136.74C145.551 135.833 146.604 135.38 147.844 135.38C149.031 135.38 149.991 135.807 150.724 136.66ZM146.084 142.06C146.604 142.62 147.244 142.9 148.004 142.9C148.751 142.9 149.398 142.62 149.944 142.06C150.464 141.5 150.724 140.82 150.724 140.02C150.724 139.22 150.464 138.54 149.944 137.98C149.398 137.42 148.751 137.14 148.004 137.14C147.244 137.14 146.604 137.42 146.084 137.98C145.551 138.527 145.284 139.207 145.284 140.02C145.284 140.833 145.551 141.513 146.084 142.06ZM158.084 132.5C158.084 132.9 157.944 133.24 157.664 133.52C157.384 133.8 157.044 133.94 156.644 133.94C156.244 133.94 155.904 133.8 155.624 133.52C155.344 133.24 155.204 132.9 155.204 132.5C155.204 132.1 155.344 131.76 155.624 131.48C155.904 131.2 156.244 131.06 156.644 131.06C157.044 131.06 157.384 131.2 157.664 131.48C157.944 131.76 158.084 132.1 158.084 132.5ZM157.604 144.5H155.684V135.54H157.604V144.5ZM165.085 135.38C166.232 135.38 167.112 135.76 167.725 136.52C168.338 137.28 168.645 138.367 168.645 139.78V144.5H166.725V139.78C166.725 138.887 166.565 138.227 166.245 137.8C165.938 137.36 165.432 137.14 164.725 137.14C164.112 137.14 163.598 137.4 163.185 137.92C162.772 138.427 162.565 139.073 162.565 139.86V144.5H160.645V135.54H162.565V136.66C162.752 136.313 163.072 136.013 163.525 135.76C163.978 135.507 164.498 135.38 165.085 135.38ZM175.524 142.9C176.31 142.9 177.05 142.553 177.744 141.86L178.844 143.26C177.95 144.193 176.844 144.66 175.524 144.66C174.244 144.66 173.15 144.207 172.244 143.3C171.337 142.393 170.884 141.3 170.884 140.02C170.884 138.74 171.337 137.647 172.244 136.74C173.15 135.833 174.244 135.38 175.524 135.38C176.524 135.38 177.377 135.667 178.084 136.24C178.79 136.8 179.27 137.567 179.524 138.54L173.584 141.98C173.77 142.247 174.044 142.467 174.404 142.64C174.777 142.813 175.15 142.9 175.524 142.9ZM175.524 137.14C174.804 137.14 174.17 137.433 173.624 138.02C173.077 138.607 172.804 139.273 172.804 140.02C172.804 140.047 172.817 140.22 172.844 140.54L177.284 137.98C176.857 137.42 176.27 137.14 175.524 137.14ZM183.366 135.54V136.96C183.966 135.907 185.032 135.38 186.566 135.38V137.42C185.979 137.3 185.446 137.327 184.966 137.5C183.899 137.887 183.366 138.88 183.366 140.48V144.5H181.446V135.54H183.366ZM187.837 140.02C187.837 138.74 188.29 137.647 189.197 136.74C190.104 135.833 191.197 135.38 192.477 135.38C193.757 135.38 194.85 135.833 195.757 136.74C196.664 137.647 197.117 138.74 197.117 140.02C197.117 141.3 196.664 142.393 195.757 143.3C194.85 144.207 193.757 144.66 192.477 144.66C191.197 144.66 190.104 144.207 189.197 143.3C188.29 142.393 187.837 141.3 187.837 140.02ZM190.577 142.04C191.11 142.613 191.744 142.9 192.477 142.9C193.224 142.9 193.864 142.613 194.397 142.04C194.93 141.493 195.197 140.82 195.197 140.02C195.197 139.233 194.93 138.553 194.397 137.98C193.864 137.42 193.224 137.14 192.477 137.14C191.757 137.14 191.124 137.42 190.577 137.98C190.03 138.567 189.757 139.247 189.757 140.02C189.757 140.793 190.03 141.467 190.577 142.04ZM25.7778 169.38V175.3H23.8578V161.54H25.7778V162.66C26.5111 161.807 27.4711 161.38 28.6578 161.38C29.8978 161.38 30.9578 161.833 31.8378 162.74C32.7045 163.647 33.1378 164.74 33.1378 166.02C33.1378 167.3 32.7045 168.393 31.8378 169.3C30.9578 170.207 29.8978 170.66 28.6578 170.66C27.4711 170.66 26.5111 170.233 25.7778 169.38ZM30.4378 163.98C29.8911 163.42 29.2445 163.14 28.4978 163.14C27.7378 163.14 27.0978 163.42 26.5778 163.98C26.0445 164.527 25.7778 165.207 25.7778 166.02C25.7778 166.833 26.0445 167.513 26.5778 168.06C27.0978 168.62 27.7378 168.9 28.4978 168.9C29.2445 168.9 29.8911 168.62 30.4378 168.06C30.9578 167.5 31.2178 166.82 31.2178 166.02C31.2178 165.22 30.9578 164.54 30.4378 163.98ZM43.0538 166.3V170.5H41.1338V169.34C40.3871 170.22 39.4604 170.66 38.3538 170.66C37.3938 170.66 36.6071 170.373 35.9938 169.8C35.3671 169.24 35.0538 168.52 35.0538 167.64C35.0538 166.8 35.3604 166.113 35.9738 165.58C36.6004 165.047 37.3538 164.76 38.2338 164.72C39.1271 164.68 40.0738 164.86 41.0738 165.26C40.9938 163.847 40.3204 163.14 39.0538 163.14C38.2938 163.14 37.6004 163.333 36.9738 163.72L36.1738 162.34C37.0138 161.7 38.0004 161.38 39.1338 161.38C41.7471 161.38 43.0538 163.02 43.0538 166.3ZM41.1338 166.84C40.6804 166.573 40.1204 166.42 39.4538 166.38C38.7871 166.34 38.2004 166.44 37.6938 166.68C37.2004 166.907 36.9604 167.247 36.9738 167.7C36.9738 168.047 37.1138 168.333 37.3938 168.56C37.6871 168.787 38.0671 168.9 38.5338 168.9C39.1471 168.9 39.7138 168.7 40.2338 168.3C40.7538 167.9 41.0538 167.413 41.1338 166.84ZM47.6919 161.54V162.96C48.2919 161.907 49.3585 161.38 50.8919 161.38V163.42C50.3052 163.3 49.7719 163.327 49.2919 163.5C48.2252 163.887 47.6919 164.88 47.6919 166.48V170.5H45.7719V161.54H47.6919ZM60.1631 166.3V170.5H58.2431V169.34C57.4965 170.22 56.5698 170.66 55.4631 170.66C54.5031 170.66 53.7165 170.373 53.1031 169.8C52.4765 169.24 52.1631 168.52 52.1631 167.64C52.1631 166.8 52.4698 166.113 53.0831 165.58C53.7098 165.047 54.4631 164.76 55.3431 164.72C56.2365 164.68 57.1831 164.86 58.1831 165.26C58.1031 163.847 57.4298 163.14 56.1631 163.14C55.4031 163.14 54.7098 163.333 54.0831 163.72L53.2831 162.34C54.1231 161.7 55.1098 161.38 56.2431 161.38C58.8565 161.38 60.1631 163.02 60.1631 166.3ZM58.2431 166.84C57.7898 166.573 57.2298 166.42 56.5631 166.38C55.8965 166.34 55.3098 166.44 54.8031 166.68C54.3098 166.907 54.0698 167.247 54.0831 167.7C54.0831 168.047 54.2231 168.333 54.5031 168.56C54.7965 168.787 55.1765 168.9 55.6431 168.9C56.2565 168.9 56.8231 168.7 57.3431 168.3C57.8631 167.9 58.1631 167.413 58.2431 166.84ZM69.7563 170.5V155.78H71.6763V170.5H69.7563ZM74.7172 170.5V155.78H76.6372V170.5H74.7172ZM83.5219 168.9C84.3085 168.9 85.0485 168.553 85.7419 167.86L86.8419 169.26C85.9485 170.193 84.8419 170.66 83.5219 170.66C82.2419 170.66 81.1485 170.207 80.2419 169.3C79.3352 168.393 78.8819 167.3 78.8819 166.02C78.8819 164.74 79.3352 163.647 80.2419 162.74C81.1485 161.833 82.2419 161.38 83.5219 161.38C84.5219 161.38 85.3752 161.667 86.0819 162.24C86.7885 162.8 87.2685 163.567 87.5219 164.54L81.5819 167.98C81.7685 168.247 82.0419 168.467 82.4019 168.64C82.7752 168.813 83.1485 168.9 83.5219 168.9ZM83.5219 163.14C82.8019 163.14 82.1685 163.433 81.6219 164.02C81.0752 164.607 80.8019 165.273 80.8019 166.02C80.8019 166.047 80.8152 166.22 80.8419 166.54L85.2819 163.98C84.8552 163.42 84.2685 163.14 83.5219 163.14ZM96.8038 161.54L92.4838 170.82L88.1638 161.54H90.2438L92.4838 166.5L94.7238 161.54H96.8038ZM105.925 166.3V170.5H104.005V169.34C103.258 170.22 102.332 170.66 101.225 170.66C100.265 170.66 99.4782 170.373 98.8648 169.8C98.2382 169.24 97.9248 168.52 97.9248 167.64C97.9248 166.8 98.2315 166.113 98.8448 165.58C99.4715 165.047 100.225 164.76 101.105 164.72C101.998 164.68 102.945 164.86 103.945 165.26C103.865 163.847 103.192 163.14 101.925 163.14C101.165 163.14 100.472 163.333 99.8448 163.72L99.0448 162.34C99.8848 161.7 100.872 161.38 102.005 161.38C104.618 161.38 105.925 163.02 105.925 166.3ZM104.005 166.84C103.552 166.573 102.992 166.42 102.325 166.38C101.658 166.34 101.072 166.44 100.565 166.68C100.072 166.907 99.8315 167.247 99.8448 167.7C99.8448 168.047 99.9848 168.333 100.265 168.56C100.558 168.787 100.938 168.9 101.405 168.9C102.018 168.9 102.585 168.7 103.105 168.3C103.625 167.9 103.925 167.413 104.005 166.84ZM110.563 161.54V162.96C111.163 161.907 112.23 161.38 113.763 161.38V163.42C113.176 163.3 112.643 163.327 112.163 163.5C111.096 163.887 110.563 164.88 110.563 166.48V170.5H108.643V161.54H110.563ZM130.398 166.3V170.5H128.478V169.34C127.731 170.22 126.804 170.66 125.698 170.66C124.738 170.66 123.951 170.373 123.338 169.8C122.711 169.24 122.398 168.52 122.398 167.64C122.398 166.8 122.704 166.113 123.318 165.58C123.944 165.047 124.698 164.76 125.578 164.72C126.471 164.68 127.418 164.86 128.418 165.26C128.338 163.847 127.664 163.14 126.398 163.14C125.638 163.14 124.944 163.333 124.318 163.72L123.518 162.34C124.358 161.7 125.344 161.38 126.478 161.38C129.091 161.38 130.398 163.02 130.398 166.3ZM128.478 166.84C128.024 166.573 127.464 166.42 126.798 166.38C126.131 166.34 125.544 166.44 125.038 166.68C124.544 166.907 124.304 167.247 124.318 167.7C124.318 168.047 124.458 168.333 124.738 168.56C125.031 168.787 125.411 168.9 125.878 168.9C126.491 168.9 127.058 168.7 127.578 168.3C128.098 167.9 128.398 167.413 128.478 166.84ZM151.511 170.5H149.431L148.551 168.5H141.671L140.791 170.5H138.711L145.111 156.1L151.511 170.5ZM145.111 160.58L142.431 166.74H147.791L145.111 160.58ZM155.348 161.54V162.96C155.948 161.907 157.015 161.38 158.548 161.38V163.42C157.961 163.3 157.428 163.327 156.948 163.5C155.881 163.887 155.348 164.88 155.348 166.48V170.5H153.428V161.54H155.348ZM164.14 170.5H162.22V163.3H160.62V161.54H162.22V158.02L164.14 157.38V161.54H166.7V163.3H164.14V170.5ZM173.708 161.38C174.855 161.38 175.735 161.76 176.348 162.52C176.961 163.28 177.268 164.367 177.268 165.78V170.5H175.348V165.78C175.348 164.887 175.188 164.227 174.868 163.8C174.561 163.36 174.055 163.14 173.348 163.14C172.735 163.14 172.221 163.4 171.808 163.92C171.395 164.427 171.188 165.073 171.188 165.86V170.5H169.268V155.78H171.188V162.66C171.375 162.313 171.695 162.013 172.148 161.76C172.601 161.507 173.121 161.38 173.708 161.38ZM183.231 170.66C182.084 170.66 181.204 170.28 180.591 169.52C179.977 168.76 179.671 167.673 179.671 166.26V161.54H181.591V166.42C181.591 168.073 182.257 168.9 183.591 168.9C184.204 168.9 184.717 168.633 185.131 168.1C185.544 167.567 185.751 166.873 185.751 166.02V161.54H187.671V170.5H185.751V169.38C185.564 169.727 185.244 170.027 184.791 170.28C184.337 170.533 183.817 170.66 183.231 170.66ZM192.633 161.54V162.96C193.233 161.907 194.3 161.38 195.833 161.38V163.42C195.247 163.3 194.713 163.327 194.233 163.5C193.167 163.887 192.633 164.88 192.633 166.48V170.5H190.713V161.54H192.633ZM212.468 166.3V170.5H210.548V169.34C209.801 170.22 208.874 170.66 207.768 170.66C206.808 170.66 206.021 170.373 205.408 169.8C204.781 169.24 204.468 168.52 204.468 167.64C204.468 166.8 204.774 166.113 205.388 165.58C206.014 165.047 206.768 164.76 207.648 164.72C208.541 164.68 209.488 164.86 210.488 165.26C210.408 163.847 209.734 163.14 208.468 163.14C207.708 163.14 207.014 163.333 206.388 163.72L205.588 162.34C206.428 161.7 207.414 161.38 208.548 161.38C211.161 161.38 212.468 163.02 212.468 166.3ZM210.548 166.84C210.094 166.573 209.534 166.42 208.868 166.38C208.201 166.34 207.614 166.44 207.108 166.68C206.614 166.907 206.374 167.247 206.388 167.7C206.388 168.047 206.528 168.333 206.808 168.56C207.101 168.787 207.481 168.9 207.948 168.9C208.561 168.9 209.128 168.7 209.648 168.3C210.168 167.9 210.468 167.413 210.548 166.84ZM92.8913 187.62C94.2247 188.18 95.258 188.807 95.9913 189.5C96.6847 190.18 97.0313 191.107 97.0313 192.28C97.0313 193.413 96.6313 194.427 95.8313 195.32C95.018 196.213 93.9513 196.66 92.6313 196.66C91.338 196.66 90.2913 196.293 89.4913 195.56C88.8647 195.027 88.3913 194.487 88.0713 193.94L89.1913 192.48C90.1913 194.093 91.3513 194.9 92.6713 194.9C93.378 194.9 93.9647 194.647 94.4313 194.14C94.8847 193.647 95.1113 193.053 95.1113 192.36C95.1113 191.733 94.9113 191.22 94.5113 190.82C94.1247 190.407 93.518 190.007 92.6913 189.62C91.278 188.993 90.318 188.38 89.8113 187.78C89.2913 187.167 89.0313 186.393 89.0313 185.46C89.0313 184.607 89.398 183.86 90.1313 183.22C90.8513 182.58 91.7313 182.26 92.7713 182.26C93.518 182.26 94.1313 182.373 94.6113 182.6C95.0913 182.813 95.578 183.18 96.0713 183.7L94.9513 185.12C94.298 184.387 93.558 184.02 92.7313 184.02C92.2647 184.02 91.8513 184.167 91.4913 184.46C91.1313 184.753 90.9513 185.1 90.9513 185.5C90.9513 186.38 91.598 187.087 92.8913 187.62ZM102.83 196.66C101.684 196.66 100.804 196.28 100.19 195.52C99.5769 194.76 99.2702 193.673 99.2702 192.26V187.54H101.19V192.42C101.19 194.073 101.857 194.9 103.19 194.9C103.804 194.9 104.317 194.633 104.73 194.1C105.144 193.567 105.35 192.873 105.35 192.02V187.54H107.27V196.5H105.35V195.38C105.164 195.727 104.844 196.027 104.39 196.28C103.937 196.533 103.417 196.66 102.83 196.66ZM114.157 194.9C114.943 194.9 115.683 194.553 116.377 193.86L117.477 195.26C116.583 196.193 115.477 196.66 114.157 196.66C112.877 196.66 111.783 196.207 110.877 195.3C109.97 194.393 109.517 193.3 109.517 192.02C109.517 190.74 109.97 189.647 110.877 188.74C111.783 187.833 112.877 187.38 114.157 187.38C115.157 187.38 116.01 187.667 116.717 188.24C117.423 188.8 117.903 189.567 118.157 190.54L112.217 193.98C112.403 194.247 112.677 194.467 113.037 194.64C113.41 194.813 113.783 194.9 114.157 194.9ZM114.157 189.14C113.437 189.14 112.803 189.433 112.257 190.02C111.71 190.607 111.437 191.273 111.437 192.02C111.437 192.047 111.45 192.22 111.477 192.54L115.917 189.98C115.49 189.42 114.903 189.14 114.157 189.14ZM124.391 194.9C125.231 194.9 125.898 194.633 126.391 194.1L127.431 195.54C126.564 196.287 125.551 196.66 124.391 196.66C123.111 196.66 122.018 196.207 121.111 195.3C120.204 194.393 119.751 193.3 119.751 192.02C119.751 190.74 120.204 189.647 121.111 188.74C122.018 187.833 123.111 187.38 124.391 187.38C125.551 187.38 126.564 187.753 127.431 188.5L126.391 189.94C125.898 189.407 125.231 189.14 124.391 189.14C123.671 189.14 123.038 189.42 122.491 189.98C121.944 190.567 121.671 191.247 121.671 192.02C121.671 192.793 121.944 193.467 122.491 194.04C123.024 194.613 123.658 194.9 124.391 194.9ZM132.244 184.5C132.244 184.9 132.104 185.24 131.824 185.52C131.544 185.8 131.204 185.94 130.804 185.94C130.404 185.94 130.064 185.8 129.784 185.52C129.504 185.24 129.364 184.9 129.364 184.5C129.364 184.1 129.504 183.76 129.784 183.48C130.064 183.2 130.404 183.06 130.804 183.06C131.204 183.06 131.544 183.2 131.824 183.48C132.104 183.76 132.244 184.1 132.244 184.5ZM131.764 196.5H129.844V187.54H131.764V196.5ZM142.165 192.3V196.5H140.245V195.34C139.498 196.22 138.572 196.66 137.465 196.66C136.505 196.66 135.718 196.373 135.105 195.8C134.478 195.24 134.165 194.52 134.165 193.64C134.165 192.8 134.472 192.113 135.085 191.58C135.712 191.047 136.465 190.76 137.345 190.72C138.238 190.68 139.185 190.86 140.185 191.26C140.105 189.847 139.432 189.14 138.165 189.14C137.405 189.14 136.712 189.333 136.085 189.72L135.285 188.34C136.125 187.7 137.112 187.38 138.245 187.38C140.858 187.38 142.165 189.02 142.165 192.3ZM140.245 192.84C139.792 192.573 139.232 192.42 138.565 192.38C137.898 192.34 137.312 192.44 136.805 192.68C136.312 192.907 136.072 193.247 136.085 193.7C136.085 194.047 136.225 194.333 136.505 194.56C136.798 194.787 137.178 194.9 137.645 194.9C138.258 194.9 138.825 194.7 139.345 194.3C139.865 193.9 140.165 193.413 140.245 192.84ZM146.159 196.66C145.759 196.66 145.419 196.52 145.139 196.24C144.859 195.96 144.719 195.62 144.719 195.22C144.719 194.807 144.859 194.467 145.139 194.2C145.419 193.92 145.759 193.78 146.159 193.78C146.573 193.78 146.913 193.92 147.179 194.2C147.459 194.467 147.599 194.807 147.599 195.22C147.599 195.62 147.459 195.96 147.179 196.24C146.913 196.52 146.573 196.66 146.159 196.66Z" fill="white"/>
</svg>
