<svg width="308" height="90" viewBox="0 0 308 90" fill="none" xmlns="http://www.w3.org/2000/svg">
<rect width="308" height="90" rx="8" fill="#E91D24"/>
<path d="M42.4091 11.144H44.3271C45.9044 11.144 47.1364 11.606 48.0231 12.53C48.9097 13.4727 49.3531 14.6533 49.3531 16.072C49.3531 17.4907 48.9051 18.6667 48.0091 19.6C47.1131 20.5333 45.8857 21 44.3271 21H42.4091V11.144ZM43.7531 19.768H44.5371C45.5264 19.768 46.3524 19.4087 47.0151 18.69C47.6777 17.9713 48.0091 17.0987 48.0091 16.072C48.0091 15.0453 47.6777 14.1727 47.0151 13.454C46.3524 12.7353 45.5264 12.376 44.5371 12.376H43.7531V19.768ZM53.9454 19.88C54.4961 19.88 55.0141 19.6373 55.4994 19.152L56.2694 20.132C55.6441 20.7853 54.8694 21.112 53.9454 21.112C53.0494 21.112 52.2841 20.7947 51.6494 20.16C51.0147 19.5253 50.6974 18.76 50.6974 17.864C50.6974 16.968 51.0147 16.2027 51.6494 15.568C52.2841 14.9333 53.0494 14.616 53.9454 14.616C54.6454 14.616 55.2427 14.8167 55.7374 15.218C56.2321 15.61 56.5681 16.1467 56.7454 16.828L52.5874 19.236C52.7181 19.4227 52.9094 19.5767 53.1614 19.698C53.4227 19.8193 53.6841 19.88 53.9454 19.88ZM53.9454 15.848C53.4414 15.848 52.9981 16.0533 52.6154 16.464C52.2327 16.8747 52.0414 17.3413 52.0414 17.864C52.0414 17.8827 52.0507 18.004 52.0694 18.228L55.1774 16.436C54.8787 16.044 54.4681 15.848 53.9454 15.848ZM60.5635 17.08C61.8981 17.388 62.5655 18.0693 62.5655 19.124C62.5655 19.712 62.3461 20.188 61.9075 20.552C61.4688 20.9253 60.9461 21.112 60.3395 21.112C59.3968 21.112 58.5708 20.7573 57.8615 20.048L58.5335 19.068C59.0748 19.5907 59.6488 19.8613 60.2555 19.88C60.5448 19.8893 60.7781 19.824 60.9555 19.684C61.1328 19.544 61.2215 19.3807 61.2215 19.194C61.2215 18.8393 60.9321 18.5827 60.3535 18.424C59.5415 18.2 58.9768 17.9433 58.6595 17.654C58.3515 17.3647 58.1975 16.954 58.1975 16.422C58.1975 15.918 58.3888 15.4933 58.7715 15.148C59.1635 14.7933 59.6815 14.616 60.3255 14.616C60.9881 14.616 61.5901 14.8307 62.1315 15.26L61.5015 16.24C61.1561 15.9787 60.7641 15.848 60.3255 15.848C60.0828 15.848 59.8915 15.8993 59.7515 16.002C59.6115 16.1047 59.5415 16.2307 59.5415 16.38C59.5415 16.5573 59.6115 16.6973 59.7515 16.8C59.9008 16.8933 60.1715 16.9867 60.5635 17.08ZM65.587 20.216V24.36H64.243V14.728H65.587V15.512C66.1004 14.9147 66.7724 14.616 67.603 14.616C68.471 14.616 69.213 14.9333 69.829 15.568C70.4357 16.2027 70.739 16.968 70.739 17.864C70.739 18.76 70.4357 19.5253 69.829 20.16C69.213 20.7947 68.471 21.112 67.603 21.112C66.7724 21.112 66.1004 20.8133 65.587 20.216ZM68.849 16.436C68.4664 16.044 68.0137 15.848 67.491 15.848C66.959 15.848 66.511 16.044 66.147 16.436C65.7737 16.8187 65.587 17.2947 65.587 17.864C65.587 18.4333 65.7737 18.9093 66.147 19.292C66.511 19.684 66.959 19.88 67.491 19.88C68.0137 19.88 68.4664 19.684 68.849 19.292C69.213 18.9 69.395 18.424 69.395 17.864C69.395 17.304 69.213 16.828 68.849 16.436ZM74.6868 21.112C73.8842 21.112 73.2682 20.846 72.8388 20.314C72.4095 19.782 72.1948 19.0213 72.1948 18.032V14.728H73.5388V18.144C73.5388 19.3013 74.0055 19.88 74.9388 19.88C75.3682 19.88 75.7275 19.6933 76.0168 19.32C76.3062 18.9467 76.4508 18.4613 76.4508 17.864V14.728H77.7948V21H76.4508V20.216C76.3202 20.4587 76.0962 20.6687 75.7788 20.846C75.4615 21.0233 75.0975 21.112 74.6868 21.112ZM82.6153 13.832H81.7193L82.6153 11.592H83.9593L82.6153 13.832ZM82.6153 19.88C83.166 19.88 83.684 19.6373 84.1693 19.152L84.9393 20.132C84.314 20.7853 83.5393 21.112 82.6153 21.112C81.7193 21.112 80.954 20.7947 80.3193 20.16C79.6846 19.5253 79.3673 18.76 79.3673 17.864C79.3673 16.968 79.6846 16.2027 80.3193 15.568C80.954 14.9333 81.7193 14.616 82.6153 14.616C83.3153 14.616 83.9126 14.8167 84.4073 15.218C84.902 15.61 85.238 16.1467 85.4153 16.828L81.2573 19.236C81.388 19.4227 81.5793 19.5767 81.8313 19.698C82.0926 19.8193 82.354 19.88 82.6153 19.88ZM82.6153 15.848C82.1113 15.848 81.668 16.0533 81.2853 16.464C80.9026 16.8747 80.7113 17.3413 80.7113 17.864C80.7113 17.8827 80.7206 18.004 80.7393 18.228L83.8473 16.436C83.5486 16.044 83.138 15.848 82.6153 15.848ZM89.2334 17.08C90.568 17.388 91.2354 18.0693 91.2354 19.124C91.2354 19.712 91.016 20.188 90.5774 20.552C90.1387 20.9253 89.616 21.112 89.0094 21.112C88.0667 21.112 87.2407 20.7573 86.5314 20.048L87.2034 19.068C87.7447 19.5907 88.3187 19.8613 88.9254 19.88C89.2147 19.8893 89.448 19.824 89.6254 19.684C89.8027 19.544 89.8914 19.3807 89.8914 19.194C89.8914 18.8393 89.602 18.5827 89.0234 18.424C88.2114 18.2 87.6467 17.9433 87.3294 17.654C87.0214 17.3647 86.8674 16.954 86.8674 16.422C86.8674 15.918 87.0587 15.4933 87.4414 15.148C87.8334 14.7933 88.3514 14.616 88.9954 14.616C89.658 14.616 90.26 14.8307 90.8014 15.26L90.1714 16.24C89.826 15.9787 89.434 15.848 88.9954 15.848C88.7527 15.848 88.5614 15.8993 88.4214 16.002C88.2814 16.1047 88.2114 16.2307 88.2114 16.38C88.2114 16.5573 88.2814 16.6973 88.4214 16.8C88.5707 16.8933 88.8414 16.9867 89.2334 17.08ZM102.429 15.512V10.696H103.773V21H102.429V20.216C101.916 20.8133 101.244 21.112 100.413 21.112C99.5455 21.112 98.8081 20.7947 98.2015 20.16C97.5855 19.5253 97.2775 18.76 97.2775 17.864C97.2775 16.968 97.5855 16.2027 98.2015 15.568C98.8081 14.9333 99.5455 14.616 100.413 14.616C101.244 14.616 101.916 14.9147 102.429 15.512ZM99.1815 19.292C99.5455 19.684 99.9935 19.88 100.525 19.88C101.048 19.88 101.501 19.684 101.883 19.292C102.247 18.9 102.429 18.424 102.429 17.864C102.429 17.304 102.247 16.828 101.883 16.436C101.501 16.044 101.048 15.848 100.525 15.848C99.9935 15.848 99.5455 16.044 99.1815 16.436C98.8081 16.8187 98.6215 17.2947 98.6215 17.864C98.6215 18.4333 98.8081 18.9093 99.1815 19.292ZM108.592 19.88C109.143 19.88 109.661 19.6373 110.146 19.152L110.916 20.132C110.291 20.7853 109.516 21.112 108.592 21.112C107.696 21.112 106.931 20.7947 106.296 20.16C105.661 19.5253 105.344 18.76 105.344 17.864C105.344 16.968 105.661 16.2027 106.296 15.568C106.931 14.9333 107.696 14.616 108.592 14.616C109.292 14.616 109.889 14.8167 110.384 15.218C110.879 15.61 111.215 16.1467 111.392 16.828L107.234 19.236C107.365 19.4227 107.556 19.5767 107.808 19.698C108.069 19.8193 108.331 19.88 108.592 19.88ZM108.592 15.848C108.088 15.848 107.645 16.0533 107.262 16.464C106.879 16.8747 106.688 17.3413 106.688 17.864C106.688 17.8827 106.697 18.004 106.716 18.228L109.824 16.436C109.525 16.044 109.115 15.848 108.592 15.848ZM117.659 21V10.696H119.003V21H117.659ZM126.284 18.06V21H124.94V20.188C124.417 20.804 123.768 21.112 122.994 21.112C122.322 21.112 121.771 20.9113 121.342 20.51C120.903 20.118 120.684 19.614 120.684 18.998C120.684 18.41 120.898 17.9293 121.328 17.556C121.766 17.1827 122.294 16.982 122.91 16.954C123.535 16.926 124.198 17.052 124.898 17.332C124.842 16.3427 124.37 15.848 123.484 15.848C122.952 15.848 122.466 15.9833 122.028 16.254L121.468 15.288C122.056 14.84 122.746 14.616 123.54 14.616C125.369 14.616 126.284 15.764 126.284 18.06ZM124.94 18.438C124.622 18.2513 124.23 18.144 123.764 18.116C123.297 18.088 122.886 18.158 122.532 18.326C122.186 18.4847 122.018 18.7227 122.028 19.04C122.028 19.2827 122.126 19.4833 122.322 19.642C122.527 19.8007 122.793 19.88 123.12 19.88C123.549 19.88 123.946 19.74 124.31 19.46C124.674 19.18 124.884 18.8393 124.94 18.438ZM135.799 19.88C136.387 19.88 136.854 19.6933 137.199 19.32L137.927 20.328C137.32 20.8507 136.611 21.112 135.799 21.112C134.903 21.112 134.138 20.7947 133.503 20.16C132.868 19.5253 132.551 18.76 132.551 17.864C132.551 16.968 132.868 16.2027 133.503 15.568C134.138 14.9333 134.903 14.616 135.799 14.616C136.611 14.616 137.32 14.8773 137.927 15.4L137.199 16.408C136.854 16.0347 136.387 15.848 135.799 15.848C135.295 15.848 134.852 16.044 134.469 16.436C134.086 16.8467 133.895 17.3227 133.895 17.864C133.895 18.4053 134.086 18.8767 134.469 19.278C134.842 19.6793 135.286 19.88 135.799 19.88ZM144.659 18.06V21H143.315V20.188C142.792 20.804 142.143 21.112 141.369 21.112C140.697 21.112 140.146 20.9113 139.717 20.51C139.278 20.118 139.059 19.614 139.059 18.998C139.059 18.41 139.273 17.9293 139.703 17.556C140.141 17.1827 140.669 16.982 141.285 16.954C141.91 16.926 142.573 17.052 143.273 17.332C143.217 16.3427 142.745 15.848 141.859 15.848C141.327 15.848 140.841 15.9833 140.403 16.254L139.843 15.288C140.431 14.84 141.121 14.616 141.915 14.616C143.744 14.616 144.659 15.764 144.659 18.06ZM143.315 18.438C142.997 18.2513 142.605 18.144 142.139 18.116C141.672 18.088 141.261 18.158 140.907 18.326C140.561 18.4847 140.393 18.7227 140.403 19.04C140.403 19.2827 140.501 19.4833 140.697 19.642C140.902 19.8007 141.168 19.88 141.495 19.88C141.924 19.88 142.321 19.74 142.685 19.46C143.049 19.18 143.259 18.8393 143.315 18.438ZM147.905 14.728V15.722C148.325 14.9847 149.072 14.616 150.145 14.616V16.044C149.735 15.96 149.361 15.9787 149.025 16.1C148.279 16.3707 147.905 17.066 147.905 18.186V21H146.561V14.728H147.905ZM153.278 14.728V15.722C153.698 14.9847 154.445 14.616 155.518 14.616V16.044C155.108 15.96 154.734 15.9787 154.398 16.1C153.652 16.3707 153.278 17.066 153.278 18.186V21H151.934V14.728H153.278ZM159.656 19.88C160.207 19.88 160.725 19.6373 161.21 19.152L161.98 20.132C161.355 20.7853 160.58 21.112 159.656 21.112C158.76 21.112 157.995 20.7947 157.36 20.16C156.726 19.5253 156.408 18.76 156.408 17.864C156.408 16.968 156.726 16.2027 157.36 15.568C157.995 14.9333 158.76 14.616 159.656 14.616C160.356 14.616 160.954 14.8167 161.448 15.218C161.943 15.61 162.279 16.1467 162.456 16.828L158.298 19.236C158.429 19.4227 158.62 19.5767 158.872 19.698C159.134 19.8193 159.395 19.88 159.656 19.88ZM159.656 15.848C159.152 15.848 158.709 16.0533 158.326 16.464C157.944 16.8747 157.752 17.3413 157.752 17.864C157.752 17.8827 157.762 18.004 157.78 18.228L160.888 16.436C160.59 16.044 160.179 15.848 159.656 15.848ZM165.146 14.728V15.722C165.566 14.9847 166.312 14.616 167.386 14.616V16.044C166.975 15.96 166.602 15.9787 166.266 16.1C165.519 16.3707 165.146 17.066 165.146 18.186V21H163.802V14.728H165.146ZM173.876 18.06V21H172.532V20.188C172.009 20.804 171.36 21.112 170.586 21.112C169.914 21.112 169.363 20.9113 168.934 20.51C168.495 20.118 168.276 19.614 168.276 18.998C168.276 18.41 168.49 17.9293 168.92 17.556C169.358 17.1827 169.886 16.982 170.502 16.954C171.127 16.926 171.79 17.052 172.49 17.332C172.434 16.3427 171.962 15.848 171.076 15.848C170.544 15.848 170.058 15.9833 169.62 16.254L169.06 15.288C169.648 14.84 170.338 14.616 171.132 14.616C172.961 14.616 173.876 15.764 173.876 18.06ZM172.532 18.438C172.214 18.2513 171.822 18.144 171.356 18.116C170.889 18.088 170.478 18.158 170.124 18.326C169.778 18.4847 169.61 18.7227 169.62 19.04C169.62 19.2827 169.718 19.4833 169.914 19.642C170.119 19.8007 170.385 19.88 170.712 19.88C171.141 19.88 171.538 19.74 171.902 19.46C172.266 19.18 172.476 18.8393 172.532 18.438ZM176.896 22.568H175.888V19.432H177.456L176.896 22.568ZM185.517 11.144V19.768H188.653V21H184.173V11.144H185.517ZM192.128 12.6C192.128 12.88 192.03 13.118 191.834 13.314C191.638 13.51 191.4 13.608 191.12 13.608C190.84 13.608 190.602 13.51 190.406 13.314C190.21 13.118 190.112 12.88 190.112 12.6C190.112 12.32 190.21 12.082 190.406 11.886C190.602 11.69 190.84 11.592 191.12 11.592C191.4 11.592 191.638 11.69 191.834 11.886C192.03 12.082 192.128 12.32 192.128 12.6ZM191.792 21H190.448V14.728H191.792V21ZM197.029 14.616C197.831 14.616 198.447 14.882 198.877 15.414C199.306 15.946 199.521 16.7067 199.521 17.696V21H198.177V17.696C198.177 17.0707 198.065 16.6087 197.841 16.31C197.626 16.002 197.271 15.848 196.777 15.848C196.347 15.848 195.988 16.03 195.699 16.394C195.409 16.7487 195.265 17.2013 195.265 17.752V21H193.921V14.728H195.265V15.512C195.395 15.2693 195.619 15.0593 195.937 14.882C196.254 14.7047 196.618 14.616 197.029 14.616ZM206.24 15.512V10.696H207.584V21H206.24V20.216C205.727 20.8133 205.055 21.112 204.224 21.112C203.356 21.112 202.619 20.7947 202.012 20.16C201.396 19.5253 201.088 18.76 201.088 17.864C201.088 16.968 201.396 16.2027 202.012 15.568C202.619 14.9333 203.356 14.616 204.224 14.616C205.055 14.616 205.727 14.9147 206.24 15.512ZM202.992 19.292C203.356 19.684 203.804 19.88 204.336 19.88C204.859 19.88 205.311 19.684 205.694 19.292C206.058 18.9 206.24 18.424 206.24 17.864C206.24 17.304 206.058 16.828 205.694 16.436C205.311 16.044 204.859 15.848 204.336 15.848C203.804 15.848 203.356 16.044 202.992 16.436C202.619 16.8187 202.432 17.2947 202.432 17.864C202.432 18.4333 202.619 18.9093 202.992 19.292ZM212.82 14.616C213.622 14.616 214.238 14.882 214.668 15.414C215.097 15.946 215.312 16.7067 215.312 17.696V21H213.968V17.696C213.968 17.0707 213.856 16.6087 213.632 16.31C213.417 16.002 213.062 15.848 212.568 15.848C212.138 15.848 211.779 16.03 211.49 16.394C211.2 16.7487 211.056 17.2013 211.056 17.752V21H209.712V14.728H211.056V15.512C211.186 15.2693 211.41 15.0593 211.728 14.882C212.045 14.7047 212.409 14.616 212.82 14.616ZM216.879 17.864C216.879 16.968 217.196 16.2027 217.831 15.568C218.466 14.9333 219.231 14.616 220.127 14.616C221.023 14.616 221.788 14.9333 222.423 15.568C223.058 16.2027 223.375 16.968 223.375 17.864C223.375 18.76 223.058 19.5253 222.423 20.16C221.788 20.7947 221.023 21.112 220.127 21.112C219.231 21.112 218.466 20.7947 217.831 20.16C217.196 19.5253 216.879 18.76 216.879 17.864ZM218.797 19.278C219.17 19.6793 219.614 19.88 220.127 19.88C220.65 19.88 221.098 19.6793 221.471 19.278C221.844 18.8953 222.031 18.424 222.031 17.864C222.031 17.3133 221.844 16.8373 221.471 16.436C221.098 16.044 220.65 15.848 220.127 15.848C219.623 15.848 219.18 16.044 218.797 16.436C218.414 16.8467 218.223 17.3227 218.223 17.864C218.223 18.4053 218.414 18.8767 218.797 19.278ZM226.286 14.728V15.722C226.706 14.9847 227.453 14.616 228.526 14.616V16.044C228.116 15.96 227.742 15.9787 227.406 16.1C226.66 16.3707 226.286 17.066 226.286 18.186V21H224.942V14.728H226.286ZM234.568 15.512V10.696H235.912V21H234.568V20.216C234.055 20.8133 233.383 21.112 232.552 21.112C231.684 21.112 230.947 20.7947 230.34 20.16C229.724 19.5253 229.416 18.76 229.416 17.864C229.416 16.968 229.724 16.2027 230.34 15.568C230.947 14.9333 231.684 14.616 232.552 14.616C233.383 14.616 234.055 14.9147 234.568 15.512ZM231.32 19.292C231.684 19.684 232.132 19.88 232.664 19.88C233.187 19.88 233.639 19.684 234.022 19.292C234.386 18.9 234.568 18.424 234.568 17.864C234.568 17.304 234.386 16.828 234.022 16.436C233.639 16.044 233.187 15.848 232.664 15.848C232.132 15.848 231.684 16.044 231.32 16.436C230.947 16.8187 230.76 17.2947 230.76 17.864C230.76 18.4333 230.947 18.9093 231.32 19.292ZM245.106 18.97L246.772 14.728H248.228L244.322 24.36H242.894L244.42 20.636L241.956 14.728H243.412L245.106 18.97ZM256.536 17.08C257.871 17.388 258.538 18.0693 258.538 19.124C258.538 19.712 258.319 20.188 257.88 20.552C257.441 20.9253 256.919 21.112 256.312 21.112C255.369 21.112 254.543 20.7573 253.834 20.048L254.506 19.068C255.047 19.5907 255.621 19.8613 256.228 19.88C256.517 19.8893 256.751 19.824 256.928 19.684C257.105 19.544 257.194 19.3807 257.194 19.194C257.194 18.8393 256.905 18.5827 256.326 18.424C255.514 18.2 254.949 17.9433 254.632 17.654C254.324 17.3647 254.17 16.954 254.17 16.422C254.17 15.918 254.361 15.4933 254.744 15.148C255.136 14.7933 255.654 14.616 256.298 14.616C256.961 14.616 257.563 14.8307 258.104 15.26L257.474 16.24C257.129 15.9787 256.737 15.848 256.298 15.848C256.055 15.848 255.864 15.8993 255.724 16.002C255.584 16.1047 255.514 16.2307 255.514 16.38C255.514 16.5573 255.584 16.6973 255.724 16.8C255.873 16.8933 256.144 16.9867 256.536 17.08ZM262.484 21.112C261.681 21.112 261.065 20.846 260.636 20.314C260.206 19.782 259.992 19.0213 259.992 18.032V14.728H261.336V18.144C261.336 19.3013 261.802 19.88 262.736 19.88C263.165 19.88 263.524 19.6933 263.814 19.32C264.103 18.9467 264.248 18.4613 264.248 17.864V14.728H265.592V21H264.248V20.216C264.117 20.4587 263.893 20.6687 263.576 20.846C263.258 21.0233 262.894 21.112 262.484 21.112ZM53.0909 37.88C53.6416 37.88 54.1596 37.6373 54.6449 37.152L55.4149 38.132C54.7896 38.7853 54.0149 39.112 53.0909 39.112C52.1949 39.112 51.4296 38.7947 50.7949 38.16C50.1602 37.5253 49.8429 36.76 49.8429 35.864C49.8429 34.968 50.1602 34.2027 50.7949 33.568C51.4296 32.9333 52.1949 32.616 53.0909 32.616C53.7909 32.616 54.3882 32.8167 54.8829 33.218C55.3776 33.61 55.7136 34.1467 55.8909 34.828L51.7329 37.236C51.8636 37.4227 52.0549 37.5767 52.3069 37.698C52.5682 37.8193 52.8296 37.88 53.0909 37.88ZM53.0909 33.848C52.5869 33.848 52.1436 34.0533 51.7609 34.464C51.3782 34.8747 51.1869 35.3413 51.1869 35.864C51.1869 35.8827 51.1962 36.004 51.2149 36.228L54.3229 34.436C54.0242 34.044 53.6136 33.848 53.0909 33.848ZM63.503 42.36H62.159V38.216C61.6456 38.8133 60.9736 39.112 60.143 39.112C59.275 39.112 58.5376 38.7947 57.931 38.16C57.315 37.5253 57.007 36.76 57.007 35.864C57.007 34.968 57.315 34.2027 57.931 33.568C58.5376 32.9333 59.275 32.616 60.143 32.616C60.9736 32.616 61.6456 32.9147 62.159 33.512V32.728H63.503V42.36ZM61.613 34.436C61.2303 34.044 60.7776 33.848 60.255 33.848C59.723 33.848 59.275 34.044 58.911 34.436C58.5376 34.8187 58.351 35.2947 58.351 35.864C58.351 36.4333 58.5376 36.9093 58.911 37.292C59.275 37.684 59.723 37.88 60.255 37.88C60.7776 37.88 61.2303 37.684 61.613 37.292C61.977 36.9 62.159 36.424 62.159 35.864C62.159 35.304 61.977 34.828 61.613 34.436ZM67.8987 39.112C67.0961 39.112 66.4801 38.846 66.0507 38.314C65.6214 37.782 65.4067 37.0213 65.4067 36.032V32.728H66.7507V36.144C66.7507 37.3013 67.2174 37.88 68.1507 37.88C68.5801 37.88 68.9394 37.6933 69.2287 37.32C69.5181 36.9467 69.6627 36.4613 69.6627 35.864V32.728H71.0067V39H69.6627V38.216C69.5321 38.4587 69.3081 38.6687 68.9907 38.846C68.6734 39.0233 68.3094 39.112 67.8987 39.112ZM74.8166 30.6C74.8166 30.88 74.7186 31.118 74.5226 31.314C74.3266 31.51 74.0886 31.608 73.8086 31.608C73.5286 31.608 73.2906 31.51 73.0946 31.314C72.8986 31.118 72.8006 30.88 72.8006 30.6C72.8006 30.32 72.8986 30.082 73.0946 29.886C73.2906 29.69 73.5286 29.592 73.8086 29.592C74.0886 29.592 74.3266 29.69 74.5226 29.886C74.7186 30.082 74.8166 30.32 74.8166 30.6ZM74.4806 39H73.1366V32.728H74.4806V39ZM77.9533 38.216V42.36H76.6093V32.728H77.9533V33.512C78.4666 32.9147 79.1386 32.616 79.9693 32.616C80.8373 32.616 81.5793 32.9333 82.1953 33.568C82.8019 34.2027 83.1053 34.968 83.1053 35.864C83.1053 36.76 82.8019 37.5253 82.1953 38.16C81.5793 38.7947 80.8373 39.112 79.9693 39.112C79.1386 39.112 78.4666 38.8133 77.9533 38.216ZM81.2153 34.436C80.8326 34.044 80.3799 33.848 79.8573 33.848C79.3253 33.848 78.8773 34.044 78.5133 34.436C78.1399 34.8187 77.9533 35.2947 77.9533 35.864C77.9533 36.4333 78.1399 36.9093 78.5133 37.292C78.8773 37.684 79.3253 37.88 79.8573 37.88C80.3799 37.88 80.8326 37.684 81.2153 37.292C81.5793 36.9 81.7613 36.424 81.7613 35.864C81.7613 35.304 81.5793 34.828 81.2153 34.436ZM84.4464 35.864C84.4464 34.968 84.7637 34.2027 85.3984 33.568C86.0331 32.9333 86.7984 32.616 87.6944 32.616C88.5904 32.616 89.3557 32.9333 89.9904 33.568C90.6251 34.2027 90.9424 34.968 90.9424 35.864C90.9424 36.76 90.6251 37.5253 89.9904 38.16C89.3557 38.7947 88.5904 39.112 87.6944 39.112C86.7984 39.112 86.0331 38.7947 85.3984 38.16C84.7637 37.5253 84.4464 36.76 84.4464 35.864ZM86.3644 37.278C86.7377 37.6793 87.1811 37.88 87.6944 37.88C88.2171 37.88 88.6651 37.6793 89.0384 37.278C89.4117 36.8953 89.5984 36.424 89.5984 35.864C89.5984 35.3133 89.4117 34.8373 89.0384 34.436C88.6651 34.044 88.2171 33.848 87.6944 33.848C87.1904 33.848 86.7471 34.044 86.3644 34.436C85.9817 34.8467 85.7904 35.3227 85.7904 35.864C85.7904 36.4053 85.9817 36.8767 86.3644 37.278ZM93.7364 40.568H92.7284V37.432H94.2964L93.7364 40.568ZM103.814 37.88C104.364 37.88 104.882 37.6373 105.368 37.152L106.138 38.132C105.512 38.7853 104.738 39.112 103.814 39.112C102.918 39.112 102.152 38.7947 101.518 38.16C100.883 37.5253 100.566 36.76 100.566 35.864C100.566 34.968 100.883 34.2027 101.518 33.568C102.152 32.9333 102.918 32.616 103.814 32.616C104.514 32.616 105.111 32.8167 105.606 33.218C106.1 33.61 106.436 34.1467 106.614 34.828L102.456 37.236C102.586 37.4227 102.778 37.5767 103.03 37.698C103.291 37.8193 103.552 37.88 103.814 37.88ZM103.814 33.848C103.31 33.848 102.866 34.0533 102.484 34.464C102.101 34.8747 101.91 35.3413 101.91 35.864C101.91 35.8827 101.919 36.004 101.938 36.228L105.046 34.436C104.747 34.044 104.336 33.848 103.814 33.848ZM111.067 32.616C111.87 32.616 112.486 32.882 112.915 33.414C113.344 33.946 113.559 34.7067 113.559 35.696V39H112.215V35.696C112.215 35.0707 112.103 34.6087 111.879 34.31C111.664 34.002 111.31 33.848 110.815 33.848C110.386 33.848 110.026 34.03 109.737 34.394C109.448 34.7487 109.303 35.2013 109.303 35.752V39H107.959V32.728H109.303V33.512C109.434 33.2693 109.658 33.0593 109.975 32.882C110.292 32.7047 110.656 32.616 111.067 32.616ZM118.374 37.88C118.962 37.88 119.429 37.6933 119.774 37.32L120.502 38.328C119.895 38.8507 119.186 39.112 118.374 39.112C117.478 39.112 116.713 38.7947 116.078 38.16C115.443 37.5253 115.126 36.76 115.126 35.864C115.126 34.968 115.443 34.2027 116.078 33.568C116.713 32.9333 117.478 32.616 118.374 32.616C119.186 32.616 119.895 32.8773 120.502 33.4L119.774 34.408C119.429 34.0347 118.962 33.848 118.374 33.848C117.87 33.848 117.427 34.044 117.044 34.436C116.661 34.8467 116.47 35.3227 116.47 35.864C116.47 36.4053 116.661 36.8767 117.044 37.278C117.417 37.6793 117.861 37.88 118.374 37.88ZM127.234 36.06V39H125.89V38.188C125.367 38.804 124.719 39.112 123.944 39.112C123.272 39.112 122.721 38.9113 122.292 38.51C121.853 38.118 121.634 37.614 121.634 36.998C121.634 36.41 121.849 35.9293 122.278 35.556C122.717 35.1827 123.244 34.982 123.86 34.954C124.485 34.926 125.148 35.052 125.848 35.332C125.792 34.3427 125.321 33.848 124.434 33.848C123.902 33.848 123.417 33.9833 122.978 34.254L122.418 33.288C123.006 32.84 123.697 32.616 124.49 32.616C126.319 32.616 127.234 33.764 127.234 36.06ZM125.89 36.438C125.573 36.2513 125.181 36.144 124.714 36.116C124.247 36.088 123.837 36.158 123.482 36.326C123.137 36.4847 122.969 36.7227 122.978 37.04C122.978 37.2827 123.076 37.4833 123.272 37.642C123.477 37.8007 123.743 37.88 124.07 37.88C124.499 37.88 124.896 37.74 125.26 37.46C125.624 37.18 125.834 36.8393 125.89 36.438ZM130.481 32.728V33.722C130.901 32.9847 131.647 32.616 132.721 32.616V34.044C132.31 33.96 131.937 33.9787 131.601 34.1C130.854 34.3707 130.481 35.066 130.481 36.186V39H129.137V32.728H130.481ZM136.08 30.6C136.08 30.88 135.982 31.118 135.786 31.314C135.59 31.51 135.352 31.608 135.072 31.608C134.792 31.608 134.554 31.51 134.358 31.314C134.162 31.118 134.064 30.88 134.064 30.6C134.064 30.32 134.162 30.082 134.358 29.886C134.554 29.69 134.792 29.592 135.072 29.592C135.352 29.592 135.59 29.69 135.786 29.886C135.982 30.082 136.08 30.32 136.08 30.6ZM135.744 39H134.4V32.728H135.744V39ZM142.283 30.488L142.913 31.048C142.577 31.5707 142.138 31.832 141.597 31.832C141.27 31.832 140.953 31.7667 140.645 31.636C139.74 31.2067 139.138 31.272 138.839 31.832L138.209 31.272C138.545 30.7493 138.984 30.488 139.525 30.488C139.889 30.488 140.206 30.5487 140.477 30.67C141.382 31.118 141.984 31.0573 142.283 30.488ZM140.981 32.616C141.784 32.616 142.4 32.882 142.829 33.414C143.258 33.946 143.473 34.7067 143.473 35.696V39H142.129V35.696C142.129 35.0707 142.017 34.6087 141.793 34.31C141.578 34.002 141.224 33.848 140.729 33.848C140.3 33.848 139.94 34.03 139.651 34.394C139.362 34.7487 139.217 35.2013 139.217 35.752V39H137.873V32.728H139.217V33.512C139.348 33.2693 139.572 33.0593 139.889 32.882C140.206 32.7047 140.57 32.616 140.981 32.616ZM150.64 36.06V39H149.296V38.188C148.773 38.804 148.125 39.112 147.35 39.112C146.678 39.112 146.127 38.9113 145.698 38.51C145.259 38.118 145.04 37.614 145.04 36.998C145.04 36.41 145.255 35.9293 145.684 35.556C146.123 35.1827 146.65 34.982 147.266 34.954C147.891 34.926 148.554 35.052 149.254 35.332C149.198 34.3427 148.727 33.848 147.84 33.848C147.308 33.848 146.823 33.9833 146.384 34.254L145.824 33.288C146.412 32.84 147.103 32.616 147.896 32.616C149.725 32.616 150.64 33.764 150.64 36.06ZM149.296 36.438C148.979 36.2513 148.587 36.144 148.12 36.116C147.653 36.088 147.243 36.158 146.888 36.326C146.543 36.4847 146.375 36.7227 146.384 37.04C146.384 37.2827 146.482 37.4833 146.678 37.642C146.883 37.8007 147.149 37.88 147.476 37.88C147.905 37.88 148.302 37.74 148.666 37.46C149.03 37.18 149.24 36.8393 149.296 36.438ZM157.356 33.512V28.696H158.7V39H157.356V38.216C156.843 38.8133 156.171 39.112 155.34 39.112C154.472 39.112 153.735 38.7947 153.128 38.16C152.512 37.5253 152.204 36.76 152.204 35.864C152.204 34.968 152.512 34.2027 153.128 33.568C153.735 32.9333 154.472 32.616 155.34 32.616C156.171 32.616 156.843 32.9147 157.356 33.512ZM154.108 37.292C154.472 37.684 154.92 37.88 155.452 37.88C155.975 37.88 156.428 37.684 156.81 37.292C157.174 36.9 157.356 36.424 157.356 35.864C157.356 35.304 157.174 34.828 156.81 34.436C156.428 34.044 155.975 33.848 155.452 33.848C154.92 33.848 154.472 34.044 154.108 34.436C153.735 34.8187 153.548 35.2947 153.548 35.864C153.548 36.4333 153.735 36.9093 154.108 37.292ZM160.271 35.864C160.271 34.968 160.588 34.2027 161.223 33.568C161.857 32.9333 162.623 32.616 163.519 32.616C164.415 32.616 165.18 32.9333 165.815 33.568C166.449 34.2027 166.767 34.968 166.767 35.864C166.767 36.76 166.449 37.5253 165.815 38.16C165.18 38.7947 164.415 39.112 163.519 39.112C162.623 39.112 161.857 38.7947 161.223 38.16C160.588 37.5253 160.271 36.76 160.271 35.864ZM162.189 37.278C162.562 37.6793 163.005 37.88 163.519 37.88C164.041 37.88 164.489 37.6793 164.863 37.278C165.236 36.8953 165.423 36.424 165.423 35.864C165.423 35.3133 165.236 34.8373 164.863 34.436C164.489 34.044 164.041 33.848 163.519 33.848C163.015 33.848 162.571 34.044 162.189 34.436C161.806 34.8467 161.615 35.3227 161.615 35.864C161.615 36.4053 161.806 36.8767 162.189 37.278ZM170.807 35.08C172.141 35.388 172.809 36.0693 172.809 37.124C172.809 37.712 172.589 38.188 172.151 38.552C171.712 38.9253 171.189 39.112 170.583 39.112C169.64 39.112 168.814 38.7573 168.105 38.048L168.777 37.068C169.318 37.5907 169.892 37.8613 170.499 37.88C170.788 37.8893 171.021 37.824 171.199 37.684C171.376 37.544 171.465 37.3807 171.465 37.194C171.465 36.8393 171.175 36.5827 170.597 36.424C169.785 36.2 169.22 35.9433 168.903 35.654C168.595 35.3647 168.441 34.954 168.441 34.422C168.441 33.918 168.632 33.4933 169.015 33.148C169.407 32.7933 169.925 32.616 170.569 32.616C171.231 32.616 171.833 32.8307 172.375 33.26L171.745 34.24C171.399 33.9787 171.007 33.848 170.569 33.848C170.326 33.848 170.135 33.8993 169.995 34.002C169.855 34.1047 169.785 34.2307 169.785 34.38C169.785 34.5573 169.855 34.6973 169.995 34.8C170.144 34.8933 170.415 34.9867 170.807 35.08ZM182.099 37.88C182.687 37.88 183.153 37.6933 183.499 37.32L184.227 38.328C183.62 38.8507 182.911 39.112 182.099 39.112C181.203 39.112 180.437 38.7947 179.803 38.16C179.168 37.5253 178.851 36.76 178.851 35.864C178.851 34.968 179.168 34.2027 179.803 33.568C180.437 32.9333 181.203 32.616 182.099 32.616C182.911 32.616 183.62 32.8773 184.227 33.4L183.499 34.408C183.153 34.0347 182.687 33.848 182.099 33.848C181.595 33.848 181.151 34.044 180.769 34.436C180.386 34.8467 180.195 35.3227 180.195 35.864C180.195 36.4053 180.386 36.8767 180.769 37.278C181.142 37.6793 181.585 37.88 182.099 37.88ZM185.359 35.864C185.359 34.968 185.676 34.2027 186.311 33.568C186.945 32.9333 187.711 32.616 188.607 32.616C189.503 32.616 190.268 32.9333 190.903 33.568C191.537 34.2027 191.855 34.968 191.855 35.864C191.855 36.76 191.537 37.5253 190.903 38.16C190.268 38.7947 189.503 39.112 188.607 39.112C187.711 39.112 186.945 38.7947 186.311 38.16C185.676 37.5253 185.359 36.76 185.359 35.864ZM187.277 37.278C187.65 37.6793 188.093 37.88 188.607 37.88C189.129 37.88 189.577 37.6793 189.951 37.278C190.324 36.8953 190.511 36.424 190.511 35.864C190.511 35.3133 190.324 34.8373 189.951 34.436C189.577 34.044 189.129 33.848 188.607 33.848C188.103 33.848 187.659 34.044 187.277 34.436C186.894 34.8467 186.703 35.3227 186.703 35.864C186.703 36.4053 186.894 36.8767 187.277 37.278ZM196.53 32.616C197.332 32.616 197.948 32.882 198.378 33.414C198.807 33.946 199.022 34.7067 199.022 35.696V39H197.678V35.696C197.678 35.0707 197.566 34.6087 197.342 34.31C197.127 34.002 196.772 33.848 196.278 33.848C195.848 33.848 195.489 34.03 195.2 34.394C194.91 34.7487 194.766 35.2013 194.766 35.752V39H193.422V32.728H194.766V33.512C194.896 33.2693 195.12 33.0593 195.438 32.882C195.755 32.7047 196.119 32.616 196.53 32.616ZM207.994 35.08C209.329 35.388 209.996 36.0693 209.996 37.124C209.996 37.712 209.777 38.188 209.338 38.552C208.899 38.9253 208.377 39.112 207.77 39.112C206.827 39.112 206.001 38.7573 205.292 38.048L205.964 37.068C206.505 37.5907 207.079 37.8613 207.686 37.88C207.975 37.8893 208.209 37.824 208.386 37.684C208.563 37.544 208.652 37.3807 208.652 37.194C208.652 36.8393 208.363 36.5827 207.784 36.424C206.972 36.2 206.407 35.9433 206.09 35.654C205.782 35.3647 205.628 34.954 205.628 34.422C205.628 33.918 205.819 33.4933 206.202 33.148C206.594 32.7933 207.112 32.616 207.756 32.616C208.419 32.616 209.021 32.8307 209.562 33.26L208.932 34.24C208.587 33.9787 208.195 33.848 207.756 33.848C207.513 33.848 207.322 33.8993 207.182 34.002C207.042 34.1047 206.972 34.2307 206.972 34.38C206.972 34.5573 207.042 34.6973 207.182 34.8C207.331 34.8933 207.602 34.9867 207.994 35.08ZM213.942 39.112C213.139 39.112 212.523 38.846 212.094 38.314C211.664 37.782 211.45 37.0213 211.45 36.032V32.728H212.794V36.144C212.794 37.3013 213.26 37.88 214.194 37.88C214.623 37.88 214.982 37.6933 215.272 37.32C215.561 36.9467 215.706 36.4613 215.706 35.864V32.728H217.05V39H215.706V38.216C215.575 38.4587 215.351 38.6687 215.034 38.846C214.716 39.0233 214.352 39.112 213.942 39.112ZM227.1 32.616C227.903 32.616 228.519 32.882 228.948 33.414C229.377 33.946 229.592 34.7067 229.592 35.696V39H228.248V35.696C228.248 35.0707 228.136 34.6087 227.912 34.31C227.697 34.002 227.343 33.848 226.848 33.848C226.419 33.848 226.059 34.03 225.77 34.394C225.481 34.7487 225.336 35.2013 225.336 35.752V39H223.992V32.728H225.336V33.512C225.467 33.2693 225.691 33.0593 226.008 32.882C226.325 32.7047 226.689 32.616 227.1 32.616ZM233.766 39.112C232.963 39.112 232.347 38.846 231.918 38.314C231.489 37.782 231.274 37.0213 231.274 36.032V32.728H232.618V36.144C232.618 37.3013 233.085 37.88 234.018 37.88C234.447 37.88 234.807 37.6933 235.096 37.32C235.385 36.9467 235.53 36.4613 235.53 35.864V32.728H236.874V39H235.53V38.216C235.399 38.4587 235.175 38.6687 234.858 38.846C234.541 39.0233 234.177 39.112 233.766 39.112ZM241.694 37.88C242.245 37.88 242.763 37.6373 243.248 37.152L244.018 38.132C243.393 38.7853 242.618 39.112 241.694 39.112C240.798 39.112 240.033 38.7947 239.398 38.16C238.764 37.5253 238.446 36.76 238.446 35.864C238.446 34.968 238.764 34.2027 239.398 33.568C240.033 32.9333 240.798 32.616 241.694 32.616C242.394 32.616 242.992 32.8167 243.486 33.218C243.981 33.61 244.317 34.1467 244.494 34.828L240.336 37.236C240.467 37.4227 240.658 37.5767 240.91 37.698C241.172 37.8193 241.433 37.88 241.694 37.88ZM241.694 33.848C241.19 33.848 240.747 34.0533 240.364 34.464C239.982 34.8747 239.79 35.3413 239.79 35.864C239.79 35.8827 239.8 36.004 239.818 36.228L242.926 34.436C242.628 34.044 242.217 33.848 241.694 33.848ZM250.992 32.728L247.968 39.224L244.944 32.728H246.4L247.968 36.2L249.536 32.728H250.992ZM251.667 35.864C251.667 34.968 251.984 34.2027 252.619 33.568C253.254 32.9333 254.019 32.616 254.915 32.616C255.811 32.616 256.576 32.9333 257.211 33.568C257.846 34.2027 258.163 34.968 258.163 35.864C258.163 36.76 257.846 37.5253 257.211 38.16C256.576 38.7947 255.811 39.112 254.915 39.112C254.019 39.112 253.254 38.7947 252.619 38.16C251.984 37.5253 251.667 36.76 251.667 35.864ZM253.585 37.278C253.958 37.6793 254.402 37.88 254.915 37.88C255.438 37.88 255.886 37.6793 256.259 37.278C256.632 36.8953 256.819 36.424 256.819 35.864C256.819 35.3133 256.632 34.8373 256.259 34.436C255.886 34.044 255.438 33.848 254.915 33.848C254.411 33.848 253.968 34.044 253.585 34.436C253.202 34.8467 253.011 35.3227 253.011 35.864C253.011 36.4053 253.202 36.8767 253.585 37.278ZM23.0333 55.88C23.6213 55.88 24.0879 55.6933 24.4333 55.32L25.1613 56.328C24.5546 56.8507 23.8453 57.112 23.0333 57.112C22.1373 57.112 21.3719 56.7947 20.7373 56.16C20.1026 55.5253 19.7853 54.76 19.7853 53.864C19.7853 52.968 20.1026 52.2027 20.7373 51.568C21.3719 50.9333 22.1373 50.616 23.0333 50.616C23.8453 50.616 24.5546 50.8773 25.1613 51.4L24.4333 52.408C24.0879 52.0347 23.6213 51.848 23.0333 51.848C22.5293 51.848 22.0859 52.044 21.7033 52.436C21.3206 52.8467 21.1293 53.3227 21.1293 53.864C21.1293 54.4053 21.3206 54.8767 21.7033 55.278C22.0766 55.6793 22.5199 55.88 23.0333 55.88ZM26.2931 53.864C26.2931 52.968 26.6104 52.2027 27.2451 51.568C27.8798 50.9333 28.6451 50.616 29.5411 50.616C30.4371 50.616 31.2024 50.9333 31.8371 51.568C32.4718 52.2027 32.7891 52.968 32.7891 53.864C32.7891 54.76 32.4718 55.5253 31.8371 56.16C31.2024 56.7947 30.4371 57.112 29.5411 57.112C28.6451 57.112 27.8798 56.7947 27.2451 56.16C26.6104 55.5253 26.2931 54.76 26.2931 53.864ZM28.2111 55.278C28.5844 55.6793 29.0278 55.88 29.5411 55.88C30.0638 55.88 30.5118 55.6793 30.8851 55.278C31.2584 54.8953 31.4451 54.424 31.4451 53.864C31.4451 53.3133 31.2584 52.8373 30.8851 52.436C30.5118 52.044 30.0638 51.848 29.5411 51.848C29.0371 51.848 28.5938 52.044 28.2111 52.436C27.8284 52.8467 27.6371 53.3227 27.6371 53.864C27.6371 54.4053 27.8284 54.8767 28.2111 55.278ZM41.3843 50.616C42.1403 50.616 42.7237 50.8867 43.1343 51.428C43.5543 51.96 43.7643 52.716 43.7643 53.696V57H42.4203V53.696C42.4203 52.464 41.991 51.848 41.1323 51.848C40.7217 51.848 40.3857 52.0253 40.1243 52.38C39.863 52.7253 39.7323 53.1827 39.7323 53.752V57H38.3883V53.696C38.3883 52.464 37.959 51.848 37.1003 51.848C36.6897 51.848 36.3537 52.0253 36.0923 52.38C35.831 52.7253 35.7003 53.1827 35.7003 53.752V57H34.3563V50.728H35.7003V51.512C35.8497 51.3067 35.9803 51.1527 36.0923 51.05C36.2043 50.9473 36.3677 50.8493 36.5823 50.756C36.797 50.6627 37.0537 50.616 37.3523 50.616C38.239 50.616 38.883 50.9707 39.2843 51.68C39.5923 51.288 39.9003 51.0127 40.2083 50.854C40.5257 50.6953 40.9177 50.616 41.3843 50.616ZM47.0206 56.216V60.36H45.6766V50.728H47.0206V51.512C47.534 50.9147 48.206 50.616 49.0366 50.616C49.9046 50.616 50.6466 50.9333 51.2626 51.568C51.8693 52.2027 52.1726 52.968 52.1726 53.864C52.1726 54.76 51.8693 55.5253 51.2626 56.16C50.6466 56.7947 49.9046 57.112 49.0366 57.112C48.206 57.112 47.534 56.8133 47.0206 56.216ZM50.2826 52.436C49.9 52.044 49.4473 51.848 48.9246 51.848C48.3926 51.848 47.9446 52.044 47.5806 52.436C47.2073 52.8187 47.0206 53.2947 47.0206 53.864C47.0206 54.4333 47.2073 54.9093 47.5806 55.292C47.9446 55.684 48.3926 55.88 48.9246 55.88C49.4473 55.88 49.9 55.684 50.2826 55.292C50.6466 54.9 50.8286 54.424 50.8286 53.864C50.8286 53.304 50.6466 52.828 50.2826 52.436ZM59.1138 54.06V57H57.7698V56.188C57.2471 56.804 56.5985 57.112 55.8238 57.112C55.1518 57.112 54.6011 56.9113 54.1718 56.51C53.7331 56.118 53.5138 55.614 53.5138 54.998C53.5138 54.41 53.7285 53.9293 54.1578 53.556C54.5965 53.1827 55.1238 52.982 55.7398 52.954C56.3651 52.926 57.0278 53.052 57.7278 53.332C57.6718 52.3427 57.2005 51.848 56.3138 51.848C55.7818 51.848 55.2965 51.9833 54.8578 52.254L54.2978 51.288C54.8858 50.84 55.5765 50.616 56.3698 50.616C58.1991 50.616 59.1138 51.764 59.1138 54.06ZM57.7698 54.438C57.4525 54.2513 57.0605 54.144 56.5938 54.116C56.1271 54.088 55.7165 54.158 55.3618 54.326C55.0165 54.4847 54.8485 54.7227 54.8578 55.04C54.8578 55.2827 54.9558 55.4833 55.1518 55.642C55.3571 55.8007 55.6231 55.88 55.9498 55.88C56.3791 55.88 56.7758 55.74 57.1398 55.46C57.5038 55.18 57.7138 54.8393 57.7698 54.438ZM65.4265 48.488L66.0565 49.048C65.7205 49.5707 65.2818 49.832 64.7405 49.832C64.4138 49.832 64.0965 49.7667 63.7885 49.636C62.8832 49.2067 62.2812 49.272 61.9825 49.832L61.3525 49.272C61.6885 48.7493 62.1272 48.488 62.6685 48.488C63.0325 48.488 63.3498 48.5487 63.6205 48.67C64.5258 49.118 65.1278 49.0573 65.4265 48.488ZM64.1245 50.616C64.9272 50.616 65.5432 50.882 65.9725 51.414C66.4018 51.946 66.6165 52.7067 66.6165 53.696V57H65.2725V53.696C65.2725 53.0707 65.1605 52.6087 64.9365 52.31C64.7218 52.002 64.3672 51.848 63.8725 51.848C63.4432 51.848 63.0838 52.03 62.7945 52.394C62.5052 52.7487 62.3605 53.2013 62.3605 53.752V57H61.0165V50.728H62.3605V51.512C62.4912 51.2693 62.7152 51.0593 63.0325 50.882C63.3498 50.7047 63.7138 50.616 64.1245 50.616ZM71.4317 55.88C71.9824 55.88 72.5004 55.6373 72.9857 55.152L73.7557 56.132C73.1304 56.7853 72.3557 57.112 71.4317 57.112C70.5357 57.112 69.7704 56.7947 69.1357 56.16C68.5011 55.5253 68.1837 54.76 68.1837 53.864C68.1837 52.968 68.5011 52.2027 69.1357 51.568C69.7704 50.9333 70.5357 50.616 71.4317 50.616C72.1317 50.616 72.7291 50.8167 73.2237 51.218C73.7184 51.61 74.0544 52.1467 74.2317 52.828L70.0737 55.236C70.2044 55.4227 70.3957 55.5767 70.6477 55.698C70.9091 55.8193 71.1704 55.88 71.4317 55.88ZM71.4317 51.848C70.9277 51.848 70.4844 52.0533 70.1017 52.464C69.7191 52.8747 69.5277 53.3413 69.5277 53.864C69.5277 53.8827 69.5371 54.004 69.5557 54.228L72.6637 52.436C72.3651 52.044 71.9544 51.848 71.4317 51.848ZM76.921 50.728V51.722C77.341 50.9847 78.0877 50.616 79.161 50.616V52.044C78.7504 51.96 78.377 51.9787 78.041 52.1C77.2944 52.3707 76.921 53.066 76.921 54.186V57H75.577V50.728H76.921ZM80.0509 53.864C80.0509 52.968 80.3682 52.2027 81.0029 51.568C81.6376 50.9333 82.4029 50.616 83.2989 50.616C84.1949 50.616 84.9602 50.9333 85.5949 51.568C86.2296 52.2027 86.5469 52.968 86.5469 53.864C86.5469 54.76 86.2296 55.5253 85.5949 56.16C84.9602 56.7947 84.1949 57.112 83.2989 57.112C82.4029 57.112 81.6376 56.7947 81.0029 56.16C80.3682 55.5253 80.0509 54.76 80.0509 53.864ZM81.9689 55.278C82.3422 55.6793 82.7856 55.88 83.2989 55.88C83.8216 55.88 84.2696 55.6793 84.6429 55.278C85.0162 54.8953 85.2029 54.424 85.2029 53.864C85.2029 53.3133 85.0162 52.8373 84.6429 52.436C84.2696 52.044 83.8216 51.848 83.2989 51.848C82.7949 51.848 82.3516 52.044 81.9689 52.436C81.5862 52.8467 81.3949 53.3227 81.3949 53.864C81.3949 54.4053 81.5862 54.8767 81.9689 55.278ZM89.3409 58.568H88.3329V55.432H89.9009L89.3409 58.568ZM97.962 50.728V51.722C98.382 50.9847 99.1287 50.616 100.202 50.616V52.044C99.7914 51.96 99.418 51.9787 99.082 52.1C98.3354 52.3707 97.962 53.066 97.962 54.186V57H96.618V50.728H97.962ZM104.34 55.88C104.891 55.88 105.409 55.6373 105.894 55.152L106.664 56.132C106.039 56.7853 105.264 57.112 104.34 57.112C103.444 57.112 102.679 56.7947 102.044 56.16C101.409 55.5253 101.092 54.76 101.092 53.864C101.092 52.968 101.409 52.2027 102.044 51.568C102.679 50.9333 103.444 50.616 104.34 50.616C105.04 50.616 105.637 50.8167 106.132 51.218C106.627 51.61 106.963 52.1467 107.14 52.828L102.982 55.236C103.113 55.4227 103.304 55.5767 103.556 55.698C103.817 55.8193 104.079 55.88 104.34 55.88ZM104.34 51.848C103.836 51.848 103.393 52.0533 103.01 52.464C102.627 52.8747 102.436 53.3413 102.436 53.864C102.436 53.8827 102.445 54.004 102.464 54.228L105.572 52.436C105.273 52.044 104.863 51.848 104.34 51.848ZM111.504 55.88C112.092 55.88 112.559 55.6933 112.904 55.32L113.632 56.328C113.025 56.8507 112.316 57.112 111.504 57.112C110.608 57.112 109.843 56.7947 109.208 56.16C108.573 55.5253 108.256 54.76 108.256 53.864C108.256 52.968 108.573 52.2027 109.208 51.568C109.843 50.9333 110.608 50.616 111.504 50.616C112.316 50.616 113.025 50.8773 113.632 51.4L112.904 52.408C112.559 52.0347 112.092 51.848 111.504 51.848C111 51.848 110.557 52.044 110.174 52.436C109.791 52.8467 109.6 53.3227 109.6 53.864C109.6 54.4053 109.791 54.8767 110.174 55.278C110.547 55.6793 110.991 55.88 111.504 55.88ZM120.364 54.06V57H119.02V56.188C118.497 56.804 117.848 57.112 117.074 57.112C116.402 57.112 115.851 56.9113 115.422 56.51C114.983 56.118 114.764 55.614 114.764 54.998C114.764 54.41 114.978 53.9293 115.408 53.556C115.846 53.1827 116.374 52.982 116.99 52.954C117.615 52.926 118.278 53.052 118.978 53.332C118.922 52.3427 118.45 51.848 117.564 51.848C117.032 51.848 116.546 51.9833 116.108 52.254L115.548 51.288C116.136 50.84 116.826 50.616 117.62 50.616C119.449 50.616 120.364 51.764 120.364 54.06ZM119.02 54.438C118.702 54.2513 118.31 54.144 117.844 54.116C117.377 54.088 116.966 54.158 116.612 54.326C116.266 54.4847 116.098 54.7227 116.108 55.04C116.108 55.2827 116.206 55.4833 116.402 55.642C116.607 55.8007 116.873 55.88 117.2 55.88C117.629 55.88 118.026 55.74 118.39 55.46C118.754 55.18 118.964 54.8393 119.02 54.438ZM124.534 57.112C123.732 57.112 123.116 56.846 122.686 56.314C122.257 55.782 122.042 55.0213 122.042 54.032V50.728H123.386V54.144C123.386 55.3013 123.853 55.88 124.786 55.88C125.216 55.88 125.575 55.6933 125.864 55.32C126.154 54.9467 126.298 54.4613 126.298 53.864V50.728H127.642V57H126.298V56.216C126.168 56.4587 125.944 56.6687 125.626 56.846C125.309 57.0233 124.945 57.112 124.534 57.112ZM134.367 51.512V46.696H135.711V57H134.367V56.216C133.854 56.8133 133.182 57.112 132.351 57.112C131.483 57.112 130.746 56.7947 130.139 56.16C129.523 55.5253 129.215 54.76 129.215 53.864C129.215 52.968 129.523 52.2027 130.139 51.568C130.746 50.9333 131.483 50.616 132.351 50.616C133.182 50.616 133.854 50.9147 134.367 51.512ZM131.119 55.292C131.483 55.684 131.931 55.88 132.463 55.88C132.986 55.88 133.438 55.684 133.821 55.292C134.185 54.9 134.367 54.424 134.367 53.864C134.367 53.304 134.185 52.828 133.821 52.436C133.438 52.044 132.986 51.848 132.463 51.848C131.931 51.848 131.483 52.044 131.119 52.436C130.746 52.8187 130.559 53.2947 130.559 53.864C130.559 54.4333 130.746 54.9093 131.119 55.292ZM142.991 54.06V57H141.647V56.188C141.124 56.804 140.475 57.112 139.701 57.112C139.029 57.112 138.478 56.9113 138.049 56.51C137.61 56.118 137.391 55.614 137.391 54.998C137.391 54.41 137.605 53.9293 138.035 53.556C138.473 53.1827 139.001 52.982 139.617 52.954C140.242 52.926 140.905 53.052 141.605 53.332C141.549 52.3427 141.077 51.848 140.191 51.848C139.659 51.848 139.173 51.9833 138.735 52.254L138.175 51.288C138.763 50.84 139.453 50.616 140.247 50.616C142.076 50.616 142.991 51.764 142.991 54.06ZM141.647 54.438C141.329 54.2513 140.937 54.144 140.471 54.116C140.004 54.088 139.593 54.158 139.239 54.326C138.893 54.4847 138.725 54.7227 138.735 55.04C138.735 55.2827 138.833 55.4833 139.029 55.642C139.234 55.8007 139.5 55.88 139.827 55.88C140.256 55.88 140.653 55.74 141.017 55.46C141.381 55.18 141.591 54.8393 141.647 54.438ZM146.237 50.728V51.722C146.657 50.9847 147.404 50.616 148.477 50.616V52.044C148.067 51.96 147.693 51.9787 147.357 52.1C146.611 52.3707 146.237 53.066 146.237 54.186V57H144.893V50.728H146.237ZM149.367 53.864C149.367 52.968 149.685 52.2027 150.319 51.568C150.954 50.9333 151.719 50.616 152.615 50.616C153.511 50.616 154.277 50.9333 154.911 51.568C155.546 52.2027 155.863 52.968 155.863 53.864C155.863 54.76 155.546 55.5253 154.911 56.16C154.277 56.7947 153.511 57.112 152.615 57.112C151.719 57.112 150.954 56.7947 150.319 56.16C149.685 55.5253 149.367 54.76 149.367 53.864ZM151.285 55.278C151.659 55.6793 152.102 55.88 152.615 55.88C153.138 55.88 153.586 55.6793 153.959 55.278C154.333 54.8953 154.519 54.424 154.519 53.864C154.519 53.3133 154.333 52.8373 153.959 52.436C153.586 52.044 153.138 51.848 152.615 51.848C152.111 51.848 151.668 52.044 151.285 52.436C150.903 52.8467 150.711 53.3227 150.711 53.864C150.711 54.4053 150.903 54.8767 151.285 55.278ZM160.539 50.616C161.341 50.616 161.957 50.882 162.387 51.414C162.816 51.946 163.031 52.7067 163.031 53.696V57H161.687V53.696C161.687 53.0707 161.575 52.6087 161.351 52.31C161.136 52.002 160.781 51.848 160.287 51.848C159.857 51.848 159.498 52.03 159.209 52.394C158.919 52.7487 158.775 53.2013 158.775 53.752V57H157.431V50.728H158.775V51.512C158.905 51.2693 159.129 51.0593 159.447 50.882C159.764 50.7047 160.128 50.616 160.539 50.616ZM174.453 51.512V46.696H175.797V57H174.453V56.216C173.94 56.8133 173.268 57.112 172.437 57.112C171.569 57.112 170.832 56.7947 170.225 56.16C169.609 55.5253 169.301 54.76 169.301 53.864C169.301 52.968 169.609 52.2027 170.225 51.568C170.832 50.9333 171.569 50.616 172.437 50.616C173.268 50.616 173.94 50.9147 174.453 51.512ZM171.205 55.292C171.569 55.684 172.017 55.88 172.549 55.88C173.072 55.88 173.524 55.684 173.907 55.292C174.271 54.9 174.453 54.424 174.453 53.864C174.453 53.304 174.271 52.828 173.907 52.436C173.524 52.044 173.072 51.848 172.549 51.848C172.017 51.848 171.569 52.044 171.205 52.436C170.832 52.8187 170.645 53.2947 170.645 53.864C170.645 54.4333 170.832 54.9093 171.205 55.292ZM179.605 48.6C179.605 48.88 179.507 49.118 179.311 49.314C179.115 49.51 178.877 49.608 178.597 49.608C178.317 49.608 178.079 49.51 177.883 49.314C177.687 49.118 177.589 48.88 177.589 48.6C177.589 48.32 177.687 48.082 177.883 47.886C178.079 47.69 178.317 47.592 178.597 47.592C178.877 47.592 179.115 47.69 179.311 47.886C179.507 48.082 179.605 48.32 179.605 48.6ZM179.269 57H177.925V50.728H179.269V57ZM184.505 50.616C185.308 50.616 185.924 50.882 186.353 51.414C186.783 51.946 186.997 52.7067 186.997 53.696V57H185.653V53.696C185.653 53.0707 185.541 52.6087 185.317 52.31C185.103 52.002 184.748 51.848 184.253 51.848C183.824 51.848 183.465 52.03 183.175 52.394C182.886 52.7487 182.741 53.2013 182.741 53.752V57H181.397V50.728H182.741V51.512C182.872 51.2693 183.096 51.0593 183.413 50.882C183.731 50.7047 184.095 50.616 184.505 50.616ZM191.813 55.88C192.363 55.88 192.881 55.6373 193.367 55.152L194.137 56.132C193.511 56.7853 192.737 57.112 191.813 57.112C190.917 57.112 190.151 56.7947 189.517 56.16C188.882 55.5253 188.565 54.76 188.565 53.864C188.565 52.968 188.882 52.2027 189.517 51.568C190.151 50.9333 190.917 50.616 191.813 50.616C192.513 50.616 193.11 50.8167 193.605 51.218C194.099 51.61 194.435 52.1467 194.613 52.828L190.455 55.236C190.585 55.4227 190.777 55.5767 191.029 55.698C191.29 55.8193 191.551 55.88 191.813 55.88ZM191.813 51.848C191.309 51.848 190.865 52.0533 190.483 52.464C190.1 52.8747 189.909 53.3413 189.909 53.864C189.909 53.8827 189.918 54.004 189.937 54.228L193.045 52.436C192.746 52.044 192.335 51.848 191.813 51.848ZM197.302 50.728V51.722C197.722 50.9847 198.469 50.616 199.542 50.616V52.044C199.131 51.96 198.758 51.9787 198.422 52.1C197.675 52.3707 197.302 53.066 197.302 54.186V57H195.958V50.728H197.302ZM200.432 53.864C200.432 52.968 200.749 52.2027 201.384 51.568C202.018 50.9333 202.784 50.616 203.68 50.616C204.576 50.616 205.341 50.9333 205.976 51.568C206.61 52.2027 206.928 52.968 206.928 53.864C206.928 54.76 206.61 55.5253 205.976 56.16C205.341 56.7947 204.576 57.112 203.68 57.112C202.784 57.112 202.018 56.7947 201.384 56.16C200.749 55.5253 200.432 54.76 200.432 53.864ZM202.35 55.278C202.723 55.6793 203.166 55.88 203.68 55.88C204.202 55.88 204.65 55.6793 205.024 55.278C205.397 54.8953 205.584 54.424 205.584 53.864C205.584 53.3133 205.397 52.8373 205.024 52.436C204.65 52.044 204.202 51.848 203.68 51.848C203.176 51.848 202.732 52.044 202.35 52.436C201.967 52.8467 201.776 53.3227 201.776 53.864C201.776 54.4053 201.967 54.8767 202.35 55.278ZM214.761 56.216V60.36H213.417V50.728H214.761V51.512C215.274 50.9147 215.946 50.616 216.777 50.616C217.645 50.616 218.387 50.9333 219.003 51.568C219.61 52.2027 219.913 52.968 219.913 53.864C219.913 54.76 219.61 55.5253 219.003 56.16C218.387 56.7947 217.645 57.112 216.777 57.112C215.946 57.112 215.274 56.8133 214.761 56.216ZM218.023 52.436C217.64 52.044 217.188 51.848 216.665 51.848C216.133 51.848 215.685 52.044 215.321 52.436C214.948 52.8187 214.761 53.2947 214.761 53.864C214.761 54.4333 214.948 54.9093 215.321 55.292C215.685 55.684 216.133 55.88 216.665 55.88C217.188 55.88 217.64 55.684 218.023 55.292C218.387 54.9 218.569 54.424 218.569 53.864C218.569 53.304 218.387 52.828 218.023 52.436ZM226.854 54.06V57H225.51V56.188C224.987 56.804 224.339 57.112 223.564 57.112C222.892 57.112 222.341 56.9113 221.912 56.51C221.473 56.118 221.254 55.614 221.254 54.998C221.254 54.41 221.469 53.9293 221.898 53.556C222.337 53.1827 222.864 52.982 223.48 52.954C224.105 52.926 224.768 53.052 225.468 53.332C225.412 52.3427 224.941 51.848 224.054 51.848C223.522 51.848 223.037 51.9833 222.598 52.254L222.038 51.288C222.626 50.84 223.317 50.616 224.11 50.616C225.939 50.616 226.854 51.764 226.854 54.06ZM225.51 54.438C225.193 54.2513 224.801 54.144 224.334 54.116C223.867 54.088 223.457 54.158 223.102 54.326C222.757 54.4847 222.589 54.7227 222.598 55.04C222.598 55.2827 222.696 55.4833 222.892 55.642C223.097 55.8007 223.363 55.88 223.69 55.88C224.119 55.88 224.516 55.74 224.88 55.46C225.244 55.18 225.454 54.8393 225.51 54.438ZM230.101 50.728V51.722C230.521 50.9847 231.267 50.616 232.341 50.616V52.044C231.93 51.96 231.557 51.9787 231.221 52.1C230.474 52.3707 230.101 53.066 230.101 54.186V57H228.757V50.728H230.101ZM238.831 54.06V57H237.487V56.188C236.964 56.804 236.315 57.112 235.541 57.112C234.869 57.112 234.318 56.9113 233.889 56.51C233.45 56.118 233.231 55.614 233.231 54.998C233.231 54.41 233.445 53.9293 233.875 53.556C234.313 53.1827 234.841 52.982 235.457 52.954C236.082 52.926 236.745 53.052 237.445 53.332C237.389 52.3427 236.917 51.848 236.031 51.848C235.499 51.848 235.013 51.9833 234.575 52.254L234.015 51.288C234.603 50.84 235.293 50.616 236.087 50.616C237.916 50.616 238.831 51.764 238.831 54.06ZM237.487 54.438C237.169 54.2513 236.777 54.144 236.311 54.116C235.844 54.088 235.433 54.158 235.079 54.326C234.733 54.4847 234.565 54.7227 234.575 55.04C234.575 55.2827 234.673 55.4833 234.869 55.642C235.074 55.8007 235.34 55.88 235.667 55.88C236.096 55.88 236.493 55.74 236.857 55.46C237.221 55.18 237.431 54.8393 237.487 54.438ZM245.546 57V46.696H246.89V57H245.546ZM249.018 57V46.696H250.362V57H249.018ZM255.182 55.88C255.732 55.88 256.25 55.6373 256.736 55.152L257.506 56.132C256.88 56.7853 256.106 57.112 255.182 57.112C254.286 57.112 253.52 56.7947 252.886 56.16C252.251 55.5253 251.934 54.76 251.934 53.864C251.934 52.968 252.251 52.2027 252.886 51.568C253.52 50.9333 254.286 50.616 255.182 50.616C255.882 50.616 256.479 50.8167 256.974 51.218C257.468 51.61 257.804 52.1467 257.982 52.828L253.824 55.236C253.954 55.4227 254.146 55.5767 254.398 55.698C254.659 55.8193 254.92 55.88 255.182 55.88ZM255.182 51.848C254.678 51.848 254.234 52.0533 253.852 52.464C253.469 52.8747 253.278 53.3413 253.278 53.864C253.278 53.8827 253.287 54.004 253.306 54.228L256.414 52.436C256.115 52.044 255.704 51.848 255.182 51.848ZM264.479 50.728L261.455 57.224L258.431 50.728H259.887L261.455 54.2L263.023 50.728H264.479ZM270.864 54.06V57H269.52V56.188C268.997 56.804 268.348 57.112 267.574 57.112C266.902 57.112 266.351 56.9113 265.922 56.51C265.483 56.118 265.264 55.614 265.264 54.998C265.264 54.41 265.478 53.9293 265.908 53.556C266.346 53.1827 266.874 52.982 267.49 52.954C268.115 52.926 268.778 53.052 269.478 53.332C269.422 52.3427 268.95 51.848 268.064 51.848C267.532 51.848 267.046 51.9833 266.608 52.254L266.048 51.288C266.636 50.84 267.326 50.616 268.12 50.616C269.949 50.616 270.864 51.764 270.864 54.06ZM269.52 54.438C269.202 54.2513 268.81 54.144 268.344 54.116C267.877 54.088 267.466 54.158 267.112 54.326C266.766 54.4847 266.598 54.7227 266.608 55.04C266.608 55.2827 266.706 55.4833 266.902 55.642C267.107 55.8007 267.373 55.88 267.7 55.88C268.129 55.88 268.526 55.74 268.89 55.46C269.254 55.18 269.464 54.8393 269.52 54.438ZM274.11 50.728V51.722C274.53 50.9847 275.277 50.616 276.35 50.616V52.044C275.94 51.96 275.566 51.9787 275.23 52.1C274.484 52.3707 274.11 53.066 274.11 54.186V57H272.766V50.728H274.11ZM287.995 54.06V57H286.651V56.188C286.128 56.804 285.479 57.112 284.705 57.112C284.033 57.112 283.482 56.9113 283.053 56.51C282.614 56.118 282.395 55.614 282.395 54.998C282.395 54.41 282.609 53.9293 283.039 53.556C283.477 53.1827 284.005 52.982 284.621 52.954C285.246 52.926 285.909 53.052 286.609 53.332C286.553 52.3427 286.081 51.848 285.195 51.848C284.663 51.848 284.177 51.9833 283.739 52.254L283.179 51.288C283.767 50.84 284.457 50.616 285.251 50.616C287.08 50.616 287.995 51.764 287.995 54.06ZM286.651 54.438C286.333 54.2513 285.941 54.144 285.475 54.116C285.008 54.088 284.597 54.158 284.243 54.326C283.897 54.4847 283.729 54.7227 283.739 55.04C283.739 55.2827 283.837 55.4833 284.033 55.642C284.238 55.8007 284.504 55.88 284.831 55.88C285.26 55.88 285.657 55.74 286.021 55.46C286.385 55.18 286.595 54.8393 286.651 54.438ZM112.837 75H111.381L110.765 73.6H105.949L105.333 75H103.877L108.357 64.92L112.837 75ZM108.357 68.056L106.481 72.368H110.233L108.357 68.056ZM115.524 68.728V69.722C115.944 68.9847 116.69 68.616 117.764 68.616V70.044C117.353 69.96 116.98 69.9787 116.644 70.1C115.897 70.3707 115.524 71.066 115.524 72.186V75H114.18V68.728H115.524ZM121.678 75H120.334V69.96H119.214V68.728H120.334V66.264L121.678 65.816V68.728H123.47V69.96H121.678V75ZM128.375 68.616C129.178 68.616 129.794 68.882 130.223 69.414C130.653 69.946 130.867 70.7067 130.867 71.696V75H129.523V71.696C129.523 71.0707 129.411 70.6087 129.187 70.31C128.973 70.002 128.618 69.848 128.123 69.848C127.694 69.848 127.335 70.03 127.045 70.394C126.756 70.7487 126.611 71.2013 126.611 71.752V75H125.267V64.696H126.611V69.512C126.742 69.2693 126.966 69.0593 127.283 68.882C127.601 68.7047 127.965 68.616 128.375 68.616ZM135.041 75.112C134.239 75.112 133.623 74.846 133.193 74.314C132.764 73.782 132.549 73.0213 132.549 72.032V68.728H133.893V72.144C133.893 73.3013 134.36 73.88 135.293 73.88C135.723 73.88 136.082 73.6933 136.371 73.32C136.661 72.9467 136.805 72.4613 136.805 71.864V68.728H138.149V75H136.805V74.216C136.675 74.4587 136.451 74.6687 136.133 74.846C135.816 75.0233 135.452 75.112 135.041 75.112ZM141.623 68.728V69.722C142.043 68.9847 142.79 68.616 143.863 68.616V70.044C143.453 69.96 143.079 69.9787 142.743 70.1C141.997 70.3707 141.623 71.066 141.623 72.186V75H140.279V68.728H141.623ZM155.507 72.06V75H154.163V74.188C153.641 74.804 152.992 75.112 152.217 75.112C151.545 75.112 150.995 74.9113 150.565 74.51C150.127 74.118 149.907 73.614 149.907 72.998C149.907 72.41 150.122 71.9293 150.551 71.556C150.99 71.1827 151.517 70.982 152.133 70.954C152.759 70.926 153.421 71.052 154.121 71.332C154.065 70.3427 153.594 69.848 152.707 69.848C152.175 69.848 151.69 69.9833 151.251 70.254L150.691 69.288C151.279 68.84 151.97 68.616 152.763 68.616C154.593 68.616 155.507 69.764 155.507 72.06ZM154.163 72.438C153.846 72.2513 153.454 72.144 152.987 72.116C152.521 72.088 152.11 72.158 151.755 72.326C151.41 72.4847 151.242 72.7227 151.251 73.04C151.251 73.2827 151.349 73.4833 151.545 73.642C151.751 73.8007 152.017 73.88 152.343 73.88C152.773 73.88 153.169 73.74 153.533 73.46C153.897 73.18 154.107 72.8393 154.163 72.438ZM165.149 68.784C166.082 69.176 166.805 69.6147 167.319 70.1C167.804 70.576 168.047 71.2247 168.047 72.046C168.047 72.8393 167.767 73.5487 167.207 74.174C166.637 74.7993 165.891 75.112 164.967 75.112C164.061 75.112 163.329 74.8553 162.769 74.342C162.33 73.9687 161.999 73.5907 161.775 73.208L162.559 72.186C163.259 73.3153 164.071 73.88 164.995 73.88C165.489 73.88 165.9 73.7027 166.227 73.348C166.544 73.0027 166.703 72.5873 166.703 72.102C166.703 71.6633 166.563 71.304 166.283 71.024C166.012 70.7347 165.587 70.4547 165.009 70.184C164.019 69.7453 163.347 69.316 162.993 68.896C162.629 68.4667 162.447 67.9253 162.447 67.272C162.447 66.6747 162.703 66.152 163.217 65.704C163.721 65.256 164.337 65.032 165.065 65.032C165.587 65.032 166.017 65.1113 166.353 65.27C166.689 65.4193 167.029 65.676 167.375 66.04L166.591 67.034C166.133 66.5207 165.615 66.264 165.037 66.264C164.71 66.264 164.421 66.3667 164.169 66.572C163.917 66.7773 163.791 67.02 163.791 67.3C163.791 67.916 164.243 68.4107 165.149 68.784ZM172.106 75.112C171.303 75.112 170.687 74.846 170.258 74.314C169.828 73.782 169.614 73.0213 169.614 72.032V68.728H170.958V72.144C170.958 73.3013 171.424 73.88 172.358 73.88C172.787 73.88 173.146 73.6933 173.436 73.32C173.725 72.9467 173.87 72.4613 173.87 71.864V68.728H175.214V75H173.87V74.216C173.739 74.4587 173.515 74.6687 173.198 74.846C172.88 75.0233 172.516 75.112 172.106 75.112ZM180.034 73.88C180.585 73.88 181.103 73.6373 181.588 73.152L182.358 74.132C181.733 74.7853 180.958 75.112 180.034 75.112C179.138 75.112 178.373 74.7947 177.738 74.16C177.104 73.5253 176.786 72.76 176.786 71.864C176.786 70.968 177.104 70.2027 177.738 69.568C178.373 68.9333 179.138 68.616 180.034 68.616C180.734 68.616 181.332 68.8167 181.826 69.218C182.321 69.61 182.657 70.1467 182.834 70.828L178.676 73.236C178.807 73.4227 178.998 73.5767 179.25 73.698C179.512 73.8193 179.773 73.88 180.034 73.88ZM180.034 69.848C179.53 69.848 179.087 70.0533 178.704 70.464C178.322 70.8747 178.13 71.3413 178.13 71.864C178.13 71.8827 178.14 72.004 178.158 72.228L181.266 70.436C180.968 70.044 180.557 69.848 180.034 69.848ZM187.198 73.88C187.786 73.88 188.253 73.6933 188.598 73.32L189.326 74.328C188.72 74.8507 188.01 75.112 187.198 75.112C186.302 75.112 185.537 74.7947 184.902 74.16C184.268 73.5253 183.95 72.76 183.95 71.864C183.95 70.968 184.268 70.2027 184.902 69.568C185.537 68.9333 186.302 68.616 187.198 68.616C188.01 68.616 188.72 68.8773 189.326 69.4L188.598 70.408C188.253 70.0347 187.786 69.848 187.198 69.848C186.694 69.848 186.251 70.044 185.868 70.436C185.486 70.8467 185.294 71.3227 185.294 71.864C185.294 72.4053 185.486 72.8767 185.868 73.278C186.242 73.6793 186.685 73.88 187.198 73.88ZM192.696 66.6C192.696 66.88 192.598 67.118 192.402 67.314C192.206 67.51 191.968 67.608 191.688 67.608C191.408 67.608 191.17 67.51 190.974 67.314C190.778 67.118 190.68 66.88 190.68 66.6C190.68 66.32 190.778 66.082 190.974 65.886C191.17 65.69 191.408 65.592 191.688 65.592C191.968 65.592 192.206 65.69 192.402 65.886C192.598 66.082 192.696 66.32 192.696 66.6ZM192.36 75H191.016V68.728H192.36V75ZM199.64 72.06V75H198.296V74.188C197.773 74.804 197.125 75.112 196.35 75.112C195.678 75.112 195.127 74.9113 194.698 74.51C194.259 74.118 194.04 73.614 194.04 72.998C194.04 72.41 194.255 71.9293 194.684 71.556C195.123 71.1827 195.65 70.982 196.266 70.954C196.891 70.926 197.554 71.052 198.254 71.332C198.198 70.3427 197.727 69.848 196.84 69.848C196.308 69.848 195.823 69.9833 195.384 70.254L194.824 69.288C195.412 68.84 196.103 68.616 196.896 68.616C198.725 68.616 199.64 69.764 199.64 72.06ZM198.296 72.438C197.979 72.2513 197.587 72.144 197.12 72.116C196.653 72.088 196.243 72.158 195.888 72.326C195.543 72.4847 195.375 72.7227 195.384 73.04C195.384 73.2827 195.482 73.4833 195.678 73.642C195.883 73.8007 196.149 73.88 196.476 73.88C196.905 73.88 197.302 73.74 197.666 73.46C198.03 73.18 198.24 72.8393 198.296 72.438ZM202.436 75.112C202.156 75.112 201.918 75.014 201.722 74.818C201.526 74.622 201.428 74.384 201.428 74.104C201.428 73.8147 201.526 73.5767 201.722 73.39C201.918 73.194 202.156 73.096 202.436 73.096C202.726 73.096 202.964 73.194 203.15 73.39C203.346 73.5767 203.444 73.8147 203.444 74.104C203.444 74.384 203.346 74.622 203.15 74.818C202.964 75.014 202.726 75.112 202.436 75.112Z" fill="white"/>
</svg>
