<svg width="256" height="227" viewBox="0 0 256 227" fill="none" xmlns="http://www.w3.org/2000/svg">
<rect width="256" height="227" rx="12" fill="#E91D24"/>
<path d="M49.279 25.92V27.68H44.479V32.72H47.999V34.48H44.479V38.24H49.279V40H42.559V25.92H49.279ZM56.6084 30.88C57.755 30.88 58.635 31.26 59.2484 32.02C59.8617 32.78 60.1684 33.8667 60.1684 35.28V40H58.2484V35.28C58.2484 34.3867 58.0884 33.7267 57.7684 33.3C57.4617 32.86 56.955 32.64 56.2484 32.64C55.635 32.64 55.1217 32.9 54.7084 33.42C54.295 33.9267 54.0884 34.5733 54.0884 35.36V40H52.1684V31.04H54.0884V32.16C54.275 31.8133 54.595 31.5133 55.0484 31.26C55.5017 31.0067 56.0217 30.88 56.6084 30.88ZM76.006 34.88L73.286 38.24H78.406V40H69.446L73.406 35.12C74.6327 33.64 75.4527 32.56 75.866 31.88C76.2793 31.2133 76.486 30.5933 76.486 30.02C76.486 29.3 76.246 28.7067 75.766 28.24C75.2993 27.76 74.686 27.52 73.926 27.52C73.1793 27.52 72.566 27.76 72.086 28.24C71.606 28.72 71.366 29.3267 71.366 30.06C71.366 30.3267 71.4193 30.6267 71.526 30.96C71.646 31.2933 71.786 31.54 71.946 31.7L70.366 32.6C69.7527 31.8933 69.446 31.0467 69.446 30.06C69.446 28.86 69.8727 27.84 70.726 27C71.5793 26.1733 72.646 25.76 73.926 25.76C75.206 25.76 76.2793 26.16 77.146 26.96C77.986 27.7733 78.406 28.8067 78.406 30.06C78.406 30.9667 78.1127 31.88 77.526 32.8C77.4327 32.9333 77.3327 33.08 77.226 33.24C77.1327 33.4 77.0527 33.5267 76.986 33.62C76.9193 33.7133 76.866 33.7867 76.826 33.84C76.546 34.2 76.2727 34.5467 76.006 34.88ZM82.6695 27.84C83.8161 26.4533 85.2761 25.76 87.0495 25.76C88.8228 25.76 90.2828 26.4533 91.4295 27.84C92.5628 29.2133 93.1295 30.92 93.1295 32.96C93.1295 35 92.5628 36.7067 91.4295 38.08C90.2828 39.4667 88.8228 40.16 87.0495 40.16C85.2495 40.16 83.7895 39.4667 82.6695 38.08C81.5361 36.7067 80.9695 35 80.9695 32.96C80.9695 30.92 81.5361 29.2133 82.6695 27.84ZM84.1095 36.8C84.9361 37.8667 85.9161 38.4 87.0495 38.4C88.1828 38.4 89.1628 37.8667 89.9895 36.8C90.8028 35.7467 91.2095 34.4667 91.2095 32.96C91.2095 31.44 90.8028 30.1533 89.9895 29.1C89.1761 28.0467 88.1961 27.52 87.0495 27.52C85.9028 27.52 84.9228 28.0467 84.1095 29.1C83.2961 30.1533 82.8895 31.44 82.8895 32.96C82.8895 34.4667 83.2961 35.7467 84.1095 36.8ZM95.376 29.28V27.36L99.536 25.6V40H97.616V28.34L95.376 29.28ZM108.499 37.04H102.739L107.299 25.92H109.339L105.599 35.28H108.499V32H110.419V35.28H112.339V37.04H110.419V40H108.499V37.04ZM116.655 42.24H115.215V37.76H117.455L116.655 42.24ZM133.771 32.16V25.28H135.691V40H133.771V38.88C133.038 39.7333 132.078 40.16 130.891 40.16C129.651 40.16 128.598 39.7067 127.731 38.8C126.851 37.8933 126.411 36.8 126.411 35.52C126.411 34.24 126.851 33.1467 127.731 32.24C128.598 31.3333 129.651 30.88 130.891 30.88C132.078 30.88 133.038 31.3067 133.771 32.16ZM129.131 37.56C129.651 38.12 130.291 38.4 131.051 38.4C131.798 38.4 132.445 38.12 132.991 37.56C133.511 37 133.771 36.32 133.771 35.52C133.771 34.72 133.511 34.04 132.991 33.48C132.445 32.92 131.798 32.64 131.051 32.64C130.291 32.64 129.651 32.92 129.131 33.48C128.598 34.0267 128.331 34.7067 128.331 35.52C128.331 36.3333 128.598 37.0133 129.131 37.56ZM141.971 40.16C140.824 40.16 139.944 39.78 139.331 39.02C138.718 38.26 138.411 37.1733 138.411 35.76V31.04H140.331V35.92C140.331 37.5733 140.998 38.4 142.331 38.4C142.944 38.4 143.458 38.1333 143.871 37.6C144.284 37.0667 144.491 36.3733 144.491 35.52V31.04H146.411V40H144.491V38.88C144.304 39.2267 143.984 39.5267 143.531 39.78C143.078 40.0333 142.558 40.16 141.971 40.16ZM151.374 31.04V32.46C151.974 31.4067 153.04 30.88 154.574 30.88V32.92C153.987 32.8 153.454 32.8267 152.974 33C151.907 33.3867 151.374 34.38 151.374 35.98V40H149.454V31.04H151.374ZM163.845 35.8V40H161.925V38.84C161.178 39.72 160.251 40.16 159.145 40.16C158.185 40.16 157.398 39.8733 156.785 39.3C156.158 38.74 155.845 38.02 155.845 37.14C155.845 36.3 156.151 35.6133 156.765 35.08C157.391 34.5467 158.145 34.26 159.025 34.22C159.918 34.18 160.865 34.36 161.865 34.76C161.785 33.3467 161.111 32.64 159.845 32.64C159.085 32.64 158.391 32.8333 157.765 33.22L156.965 31.84C157.805 31.2 158.791 30.88 159.925 30.88C162.538 30.88 163.845 32.52 163.845 35.8ZM161.925 36.34C161.471 36.0733 160.911 35.92 160.245 35.88C159.578 35.84 158.991 35.94 158.485 36.18C157.991 36.4067 157.751 36.7467 157.765 37.2C157.765 37.5467 157.905 37.8333 158.185 38.06C158.478 38.2867 158.858 38.4 159.325 38.4C159.938 38.4 160.505 38.2 161.025 37.8C161.545 37.4 161.845 36.9133 161.925 36.34ZM171.003 30.88C172.15 30.88 173.03 31.26 173.643 32.02C174.256 32.78 174.563 33.8667 174.563 35.28V40H172.643V35.28C172.643 34.3867 172.483 33.7267 172.163 33.3C171.856 32.86 171.35 32.64 170.643 32.64C170.03 32.64 169.516 32.9 169.103 33.42C168.69 33.9267 168.483 34.5733 168.483 35.36V40H166.563V31.04H168.483V32.16C168.67 31.8133 168.99 31.5133 169.443 31.26C169.896 31.0067 170.416 30.88 171.003 30.88ZM180.166 40H178.246V32.8H176.646V31.04H178.246V27.52L180.166 26.88V31.04H182.726V32.8H180.166V40ZM188.649 38.4C189.435 38.4 190.175 38.0533 190.869 37.36L191.969 38.76C191.075 39.6933 189.969 40.16 188.649 40.16C187.369 40.16 186.275 39.7067 185.369 38.8C184.462 37.8933 184.009 36.8 184.009 35.52C184.009 34.24 184.462 33.1467 185.369 32.24C186.275 31.3333 187.369 30.88 188.649 30.88C189.649 30.88 190.502 31.1667 191.209 31.74C191.915 32.3 192.395 33.0667 192.649 34.04L186.709 37.48C186.895 37.7467 187.169 37.9667 187.529 38.14C187.902 38.3133 188.275 38.4 188.649 38.4ZM188.649 32.64C187.929 32.64 187.295 32.9333 186.749 33.52C186.202 34.1067 185.929 34.7733 185.929 35.52C185.929 35.5467 185.942 35.72 185.969 36.04L190.409 33.48C189.982 32.92 189.395 32.64 188.649 32.64ZM205.602 38.4C206.389 38.4 207.129 38.0533 207.822 37.36L208.922 38.76C208.029 39.6933 206.922 40.16 205.602 40.16C204.322 40.16 203.229 39.7067 202.322 38.8C201.415 37.8933 200.962 36.8 200.962 35.52C200.962 34.24 201.415 33.1467 202.322 32.24C203.229 31.3333 204.322 30.88 205.602 30.88C206.602 30.88 207.455 31.1667 208.162 31.74C208.869 32.3 209.349 33.0667 209.602 34.04L203.662 37.48C203.849 37.7467 204.122 37.9667 204.482 38.14C204.855 38.3133 205.229 38.4 205.602 38.4ZM205.602 32.64C204.882 32.64 204.249 32.9333 203.702 33.52C203.155 34.1067 202.882 34.7733 202.882 35.52C202.882 35.5467 202.895 35.72 202.922 36.04L207.362 33.48C206.935 32.92 206.349 32.64 205.602 32.64ZM211.524 40V25.28H213.444V40H211.524ZM38.5648 51.6L44.6448 58.96L50.7248 51.6V66H48.8048V56.84L44.6448 61.84L40.4848 56.84V66H38.5648V51.6ZM57.1564 66.16C56.0097 66.16 55.1297 65.78 54.5164 65.02C53.9031 64.26 53.5964 63.1733 53.5964 61.76V57.04H55.5164V61.92C55.5164 63.5733 56.1831 64.4 57.5164 64.4C58.1297 64.4 58.6431 64.1333 59.0564 63.6C59.4697 63.0667 59.6764 62.3733 59.6764 61.52V57.04H61.5964V66H59.6764V64.88C59.4897 65.2267 59.1697 65.5267 58.7164 65.78C58.2631 66.0333 57.7431 66.16 57.1564 66.16ZM69.0791 56.88C70.2257 56.88 71.1057 57.26 71.7191 58.02C72.3324 58.78 72.6391 59.8667 72.6391 61.28V66H70.7191V61.28C70.7191 60.3867 70.5591 59.7267 70.2391 59.3C69.9324 58.86 69.4257 58.64 68.7191 58.64C68.1057 58.64 67.5924 58.9 67.1791 59.42C66.7657 59.9267 66.5591 60.5733 66.5591 61.36V66H64.6391V57.04H66.5591V58.16C66.7457 57.8133 67.0657 57.5133 67.5191 57.26C67.9724 57.0067 68.4924 56.88 69.0791 56.88ZM82.238 58.16V51.28H84.158V66H82.238V64.88C81.5046 65.7333 80.5446 66.16 79.358 66.16C78.118 66.16 77.0646 65.7067 76.198 64.8C75.318 63.8933 74.878 62.8 74.878 61.52C74.878 60.24 75.318 59.1467 76.198 58.24C77.0646 57.3333 78.118 56.88 79.358 56.88C80.5446 56.88 81.5046 57.3067 82.238 58.16ZM77.598 63.56C78.118 64.12 78.758 64.4 79.518 64.4C80.2646 64.4 80.9113 64.12 81.458 63.56C81.978 63 82.238 62.32 82.238 61.52C82.238 60.72 81.978 60.04 81.458 59.48C80.9113 58.92 80.2646 58.64 79.518 58.64C78.758 58.64 78.118 58.92 77.598 59.48C77.0646 60.0267 76.798 60.7067 76.798 61.52C76.798 62.3333 77.0646 63.0133 77.598 63.56ZM89.5977 54C89.5977 54.4 89.4577 54.74 89.1777 55.02C88.8977 55.3 88.5577 55.44 88.1577 55.44C87.7577 55.44 87.4177 55.3 87.1377 55.02C86.8577 54.74 86.7177 54.4 86.7177 54C86.7177 53.6 86.8577 53.26 87.1377 52.98C87.4177 52.7 87.7577 52.56 88.1577 52.56C88.5577 52.56 88.8977 52.7 89.1777 52.98C89.4577 53.26 89.5977 53.6 89.5977 54ZM89.1177 66H87.1977V57.04H89.1177V66ZM99.5186 61.8V66H97.5986V64.84C96.8519 65.72 95.9253 66.16 94.8186 66.16C93.8586 66.16 93.0719 65.8733 92.4586 65.3C91.8319 64.74 91.5186 64.02 91.5186 63.14C91.5186 62.3 91.8253 61.6133 92.4386 61.08C93.0653 60.5467 93.8186 60.26 94.6986 60.22C95.5919 60.18 96.5386 60.36 97.5386 60.76C97.4586 59.3467 96.7853 58.64 95.5186 58.64C94.7586 58.64 94.0653 58.8333 93.4386 59.22L92.6386 57.84C93.4786 57.2 94.4653 56.88 95.5986 56.88C98.2119 56.88 99.5186 58.52 99.5186 61.8ZM97.5986 62.34C97.1453 62.0733 96.5853 61.92 95.9186 61.88C95.2519 61.84 94.6653 61.94 94.1586 62.18C93.6653 62.4067 93.4253 62.7467 93.4386 63.2C93.4386 63.5467 93.5786 63.8333 93.8586 64.06C94.1519 64.2867 94.5319 64.4 94.9986 64.4C95.6119 64.4 96.1786 64.2 96.6986 63.8C97.2186 63.4 97.5186 62.9133 97.5986 62.34ZM102.237 66V51.28H104.157V66H102.237ZM120.793 58.16V51.28H122.713V66H120.793V64.88C120.059 65.7333 119.099 66.16 117.913 66.16C116.673 66.16 115.619 65.7067 114.753 64.8C113.873 63.8933 113.433 62.8 113.433 61.52C113.433 60.24 113.873 59.1467 114.753 58.24C115.619 57.3333 116.673 56.88 117.913 56.88C119.099 56.88 120.059 57.3067 120.793 58.16ZM116.153 63.56C116.673 64.12 117.313 64.4 118.073 64.4C118.819 64.4 119.466 64.12 120.013 63.56C120.533 63 120.793 62.32 120.793 61.52C120.793 60.72 120.533 60.04 120.013 59.48C119.466 58.92 118.819 58.64 118.073 58.64C117.313 58.64 116.673 58.92 116.153 59.48C115.619 60.0267 115.353 60.7067 115.353 61.52C115.353 62.3333 115.619 63.0133 116.153 63.56ZM129.596 64.4C130.383 64.4 131.123 64.0533 131.816 63.36L132.916 64.76C132.023 65.6933 130.916 66.16 129.596 66.16C128.316 66.16 127.223 65.7067 126.316 64.8C125.409 63.8933 124.956 62.8 124.956 61.52C124.956 60.24 125.409 59.1467 126.316 58.24C127.223 57.3333 128.316 56.88 129.596 56.88C130.596 56.88 131.449 57.1667 132.156 57.74C132.863 58.3 133.343 59.0667 133.596 60.04L127.656 63.48C127.843 63.7467 128.116 63.9667 128.476 64.14C128.849 64.3133 129.223 64.4 129.596 64.4ZM129.596 58.64C128.876 58.64 128.243 58.9333 127.696 59.52C127.149 60.1067 126.876 60.7733 126.876 61.52C126.876 61.5467 126.889 61.72 126.916 62.04L131.356 59.48C130.929 58.92 130.343 58.64 129.596 58.64ZM154.069 66H151.989L151.109 64H144.229L143.349 66H141.269L147.669 51.6L154.069 66ZM147.669 56.08L144.989 62.24H150.349L147.669 56.08ZM162.39 57.04L158.07 66.32L153.75 57.04H155.83L158.07 62L160.31 57.04H162.39ZM167.995 64.4C168.781 64.4 169.521 64.0533 170.215 63.36L171.315 64.76C170.421 65.6933 169.315 66.16 167.995 66.16C166.715 66.16 165.621 65.7067 164.715 64.8C163.808 63.8933 163.355 62.8 163.355 61.52C163.355 60.24 163.808 59.1467 164.715 58.24C165.621 57.3333 166.715 56.88 167.995 56.88C168.995 56.88 169.848 57.1667 170.555 57.74C171.261 58.3 171.741 59.0667 171.995 60.04L166.055 63.48C166.241 63.7467 166.515 63.9667 166.875 64.14C167.248 64.3133 167.621 64.4 167.995 64.4ZM167.995 58.64C167.275 58.64 166.641 58.9333 166.095 59.52C165.548 60.1067 165.275 60.7733 165.275 61.52C165.275 61.5467 165.288 61.72 165.315 62.04L169.755 59.48C169.328 58.92 168.741 58.64 167.995 58.64ZM178.356 56.88C179.503 56.88 180.383 57.26 180.996 58.02C181.61 58.78 181.916 59.8667 181.916 61.28V66H179.996V61.28C179.996 60.3867 179.836 59.7267 179.516 59.3C179.21 58.86 178.703 58.64 177.996 58.64C177.383 58.64 176.87 58.9 176.456 59.42C176.043 59.9267 175.836 60.5733 175.836 61.36V66H173.916V57.04H175.836V58.16C176.023 57.8133 176.343 57.5133 176.796 57.26C177.25 57.0067 177.77 56.88 178.356 56.88ZM187.519 66H185.599V58.8H183.999V57.04H185.599V53.52L187.519 52.88V57.04H190.079V58.8H187.519V66ZM195.887 66.16C194.74 66.16 193.86 65.78 193.247 65.02C192.634 64.26 192.327 63.1733 192.327 61.76V57.04H194.247V61.92C194.247 63.5733 194.914 64.4 196.247 64.4C196.86 64.4 197.374 64.1333 197.787 63.6C198.2 63.0667 198.407 62.3733 198.407 61.52V57.04H200.327V66H198.407V64.88C198.22 65.2267 197.9 65.5267 197.447 65.78C196.994 66.0333 196.474 66.16 195.887 66.16ZM205.29 57.04V58.46C205.89 57.4067 206.956 56.88 208.49 56.88V58.92C207.903 58.8 207.37 58.8267 206.89 59C205.823 59.3867 205.29 60.38 205.29 61.98V66H203.37V57.04H205.29ZM217.761 61.8V66H215.841V64.84C215.094 65.72 214.167 66.16 213.061 66.16C212.101 66.16 211.314 65.8733 210.701 65.3C210.074 64.74 209.761 64.02 209.761 63.14C209.761 62.3 210.067 61.6133 210.681 61.08C211.307 60.5467 212.061 60.26 212.941 60.22C213.834 60.18 214.781 60.36 215.781 60.76C215.701 59.3467 215.027 58.64 213.761 58.64C213.001 58.64 212.307 58.8333 211.681 59.22L210.881 57.84C211.721 57.2 212.707 56.88 213.841 56.88C216.454 56.88 217.761 58.52 217.761 61.8ZM215.841 62.34C215.387 62.0733 214.827 61.92 214.161 61.88C213.494 61.84 212.907 61.94 212.401 62.18C211.907 62.4067 211.667 62.7467 211.681 63.2C211.681 63.5467 211.821 63.8333 212.101 64.06C212.394 64.2867 212.774 64.4 213.241 64.4C213.854 64.4 214.421 64.2 214.941 63.8C215.461 63.4 215.761 62.9133 215.841 62.34ZM29.3496 84.72V77.92H31.2696V92H29.3496V86.48H24.8696V92H22.9496V77.92H24.8696V84.72H29.3496ZM37.713 92.16C36.5664 92.16 35.6864 91.78 35.073 91.02C34.4597 90.26 34.153 89.1733 34.153 87.76V83.04H36.073V87.92C36.073 89.5733 36.7397 90.4 38.073 90.4C38.6864 90.4 39.1997 90.1333 39.613 89.6C40.0264 89.0667 40.233 88.3733 40.233 87.52V83.04H42.153V92H40.233V90.88C40.0464 91.2267 39.7264 91.5267 39.273 91.78C38.8197 92.0333 38.2997 92.16 37.713 92.16ZM52.3995 87.8V92H50.4795V90.84C49.7328 91.72 48.8061 92.16 47.6995 92.16C46.7395 92.16 45.9528 91.8733 45.3395 91.3C44.7128 90.74 44.3995 90.02 44.3995 89.14C44.3995 88.3 44.7061 87.6133 45.3195 87.08C45.9461 86.5467 46.6995 86.26 47.5795 86.22C48.4728 86.18 49.4195 86.36 50.4195 86.76C50.3395 85.3467 49.6661 84.64 48.3995 84.64C47.6395 84.64 46.9461 84.8333 46.3195 85.22L45.5195 83.84C46.3595 83.2 47.3461 82.88 48.4795 82.88C51.0928 82.88 52.3995 84.52 52.3995 87.8ZM50.4795 88.34C50.0261 88.0733 49.4661 87.92 48.7995 87.88C48.1328 87.84 47.5461 87.94 47.0395 88.18C46.5461 88.4067 46.3061 88.7467 46.3195 89.2C46.3195 89.5467 46.4595 89.8333 46.7395 90.06C47.0328 90.2867 47.4128 90.4 47.8795 90.4C48.4928 90.4 49.0595 90.2 49.5795 89.8C50.0995 89.4 50.3995 88.9133 50.4795 88.34ZM57.5176 80C57.5176 80.4 57.3776 80.74 57.0976 81.02C56.8176 81.3 56.4776 81.44 56.0776 81.44C55.6776 81.44 55.3376 81.3 55.0576 81.02C54.7776 80.74 54.6376 80.4 54.6376 80C54.6376 79.6 54.7776 79.26 55.0576 78.98C55.3376 78.7 55.6776 78.56 56.0776 78.56C56.4776 78.56 56.8176 78.7 57.0976 78.98C57.3776 79.26 57.5176 79.6 57.5176 80ZM57.0376 92H55.1176V83.04H57.0376V92ZM61.9985 83.04V84.46C62.5985 83.4067 63.6652 82.88 65.1985 82.88V84.92C64.6118 84.8 64.0785 84.8267 63.5985 85C62.5318 85.3867 61.9985 86.38 61.9985 87.98V92H60.0785V83.04H61.9985ZM74.4698 87.8V92H72.5498V90.84C71.8031 91.72 70.8764 92.16 69.7698 92.16C68.8098 92.16 68.0231 91.8733 67.4098 91.3C66.7831 90.74 66.4698 90.02 66.4698 89.14C66.4698 88.3 66.7764 87.6133 67.3898 87.08C68.0164 86.5467 68.7698 86.26 69.6498 86.22C70.5431 86.18 71.4898 86.36 72.4898 86.76C72.4098 85.3467 71.7364 84.64 70.4698 84.64C69.7098 84.64 69.0164 84.8333 68.3898 85.22L67.5898 83.84C68.4298 83.2 69.4164 82.88 70.5498 82.88C73.1631 82.88 74.4698 84.52 74.4698 87.8ZM72.5498 88.34C72.0964 88.0733 71.5364 87.92 70.8698 87.88C70.2031 87.84 69.6164 87.94 69.1098 88.18C68.6164 88.4067 68.3764 88.7467 68.3898 89.2C68.3898 89.5467 68.5298 89.8333 68.8098 90.06C69.1031 90.2867 69.4831 90.4 69.9498 90.4C70.5631 90.4 71.1298 90.2 71.6498 89.8C72.1698 89.4 72.4698 88.9133 72.5498 88.34ZM80.5641 86.4C82.4708 86.84 83.4241 87.8133 83.4241 89.32C83.4241 90.16 83.1108 90.84 82.4841 91.36C81.8575 91.8933 81.1108 92.16 80.2441 92.16C78.8975 92.16 77.7175 91.6533 76.7041 90.64L77.6641 89.24C78.4375 89.9867 79.2575 90.3733 80.1241 90.4C80.5375 90.4133 80.8708 90.32 81.1241 90.12C81.3775 89.92 81.5041 89.6867 81.5041 89.42C81.5041 88.9133 81.0908 88.5467 80.2641 88.32C79.1041 88 78.2975 87.6333 77.8441 87.22C77.4041 86.8067 77.1841 86.22 77.1841 85.46C77.1841 84.74 77.4575 84.1333 78.0041 83.64C78.5641 83.1333 79.3041 82.88 80.2241 82.88C81.1708 82.88 82.0308 83.1867 82.8041 83.8L81.9041 85.2C81.4108 84.8267 80.8508 84.64 80.2241 84.64C79.8775 84.64 79.6041 84.7133 79.4041 84.86C79.2041 85.0067 79.1041 85.1867 79.1041 85.4C79.1041 85.6533 79.2041 85.8533 79.4041 86C79.6175 86.1333 80.0041 86.2667 80.5641 86.4ZM88.2207 80C88.2207 80.4 88.0807 80.74 87.8007 81.02C87.5207 81.3 87.1807 81.44 86.7807 81.44C86.3807 81.44 86.0407 81.3 85.7607 81.02C85.4807 80.74 85.3407 80.4 85.3407 80C85.3407 79.6 85.4807 79.26 85.7607 78.98C86.0407 78.7 86.3807 78.56 86.7807 78.56C87.1807 78.56 87.5207 78.7 87.8007 78.98C88.0807 79.26 88.2207 79.6 88.2207 80ZM87.7407 92H85.8207V83.04H87.7407V92ZM95.2216 82.88C96.3683 82.88 97.2483 83.26 97.8616 84.02C98.475 84.78 98.7816 85.8667 98.7816 87.28V92H96.8616V87.28C96.8616 86.3867 96.7016 85.7267 96.3816 85.3C96.075 84.86 95.5683 84.64 94.8616 84.64C94.2483 84.64 93.735 84.9 93.3216 85.42C92.9083 85.9267 92.7016 86.5733 92.7016 87.36V92H90.7816V83.04H92.7016V84.16C92.8883 83.8133 93.2083 83.5133 93.6616 83.26C94.115 83.0067 94.635 82.88 95.2216 82.88ZM105.661 90.4C106.501 90.4 107.167 90.1333 107.661 89.6L108.701 91.04C107.834 91.7867 106.821 92.16 105.661 92.16C104.381 92.16 103.287 91.7067 102.381 90.8C101.474 89.8933 101.021 88.8 101.021 87.52C101.021 86.24 101.474 85.1467 102.381 84.24C103.287 83.3333 104.381 82.88 105.661 82.88C106.821 82.88 107.834 83.2533 108.701 84L107.661 85.44C107.167 84.9067 106.501 84.64 105.661 84.64C104.941 84.64 104.307 84.92 103.761 85.48C103.214 86.0667 102.941 86.7467 102.941 87.52C102.941 88.2933 103.214 88.9667 103.761 89.54C104.294 90.1133 104.927 90.4 105.661 90.4ZM115.554 82.88C116.7 82.88 117.58 83.26 118.194 84.02C118.807 84.78 119.114 85.8667 119.114 87.28V92H117.194V87.28C117.194 86.3867 117.034 85.7267 116.714 85.3C116.407 84.86 115.9 84.64 115.194 84.64C114.58 84.64 114.067 84.9 113.654 85.42C113.24 85.9267 113.034 86.5733 113.034 87.36V92H111.114V77.28H113.034V84.16C113.22 83.8133 113.54 83.5133 113.994 83.26C114.447 83.0067 114.967 82.88 115.554 82.88ZM124.236 80C124.236 80.4 124.096 80.74 123.816 81.02C123.536 81.3 123.196 81.44 122.796 81.44C122.396 81.44 122.056 81.3 121.776 81.02C121.496 80.74 121.356 80.4 121.356 80C121.356 79.6 121.496 79.26 121.776 78.98C122.056 78.7 122.396 78.56 122.796 78.56C123.196 78.56 123.536 78.7 123.816 78.98C124.096 79.26 124.236 79.6 124.236 80ZM123.756 92H121.836V83.04H123.756V92ZM137.672 90.4C138.459 90.4 139.199 90.0533 139.892 89.36L140.992 90.76C140.099 91.6933 138.992 92.16 137.672 92.16C136.392 92.16 135.299 91.7067 134.392 90.8C133.486 89.8933 133.032 88.8 133.032 87.52C133.032 86.24 133.486 85.1467 134.392 84.24C135.299 83.3333 136.392 82.88 137.672 82.88C138.672 82.88 139.526 83.1667 140.232 83.74C140.939 84.3 141.419 85.0667 141.672 86.04L135.732 89.48C135.919 89.7467 136.192 89.9667 136.552 90.14C136.926 90.3133 137.299 90.4 137.672 90.4ZM137.672 84.64C136.952 84.64 136.319 84.9333 135.772 85.52C135.226 86.1067 134.952 86.7733 134.952 87.52C134.952 87.5467 134.966 87.72 134.992 88.04L139.432 85.48C139.006 84.92 138.419 84.64 137.672 84.64ZM148.034 82.88C149.181 82.88 150.061 83.26 150.674 84.02C151.287 84.78 151.594 85.8667 151.594 87.28V92H149.674V87.28C149.674 86.3867 149.514 85.7267 149.194 85.3C148.887 84.86 148.381 84.64 147.674 84.64C147.061 84.64 146.547 84.9 146.134 85.42C145.721 85.9267 145.514 86.5733 145.514 87.36V92H143.594V83.04H145.514V84.16C145.701 83.8133 146.021 83.5133 146.474 83.26C146.927 83.0067 147.447 82.88 148.034 82.88ZM167.912 77.92V79.68H163.112V84.72H166.632V86.48H163.112V90.24H167.912V92H161.192V77.92H167.912ZM174.801 90.4C175.641 90.4 176.308 90.1333 176.801 89.6L177.841 91.04C176.975 91.7867 175.961 92.16 174.801 92.16C173.521 92.16 172.428 91.7067 171.521 90.8C170.615 89.8933 170.161 88.8 170.161 87.52C170.161 86.24 170.615 85.1467 171.521 84.24C172.428 83.3333 173.521 82.88 174.801 82.88C175.961 82.88 176.975 83.2533 177.841 84L176.801 85.44C176.308 84.9067 175.641 84.64 174.801 84.64C174.081 84.64 173.448 84.92 172.901 85.48C172.355 86.0667 172.081 86.7467 172.081 87.52C172.081 88.2933 172.355 88.9667 172.901 89.54C173.435 90.1133 174.068 90.4 174.801 90.4ZM183.494 92.16C182.348 92.16 181.468 91.78 180.854 91.02C180.241 90.26 179.934 89.1733 179.934 87.76V83.04H181.854V87.92C181.854 89.5733 182.521 90.4 183.854 90.4C184.468 90.4 184.981 90.1333 185.394 89.6C185.808 89.0667 186.014 88.3733 186.014 87.52V83.04H187.934V92H186.014V90.88C185.828 91.2267 185.508 91.5267 185.054 91.78C184.601 92.0333 184.081 92.16 183.494 92.16ZM198.181 87.8V92H196.261V90.84C195.514 91.72 194.587 92.16 193.481 92.16C192.521 92.16 191.734 91.8733 191.121 91.3C190.494 90.74 190.181 90.02 190.181 89.14C190.181 88.3 190.487 87.6133 191.101 87.08C191.727 86.5467 192.481 86.26 193.361 86.22C194.254 86.18 195.201 86.36 196.201 86.76C196.121 85.3467 195.447 84.64 194.181 84.64C193.421 84.64 192.727 84.8333 192.101 85.22L191.301 83.84C192.141 83.2 193.127 82.88 194.261 82.88C196.874 82.88 198.181 84.52 198.181 87.8ZM196.261 88.34C195.807 88.0733 195.247 87.92 194.581 87.88C193.914 87.84 193.327 87.94 192.821 88.18C192.327 88.4067 192.087 88.7467 192.101 89.2C192.101 89.5467 192.241 89.8333 192.521 90.06C192.814 90.2867 193.194 90.4 193.661 90.4C194.274 90.4 194.841 90.2 195.361 89.8C195.881 89.4 196.181 88.9133 196.261 88.34ZM207.775 84.16V77.28H209.695V92H207.775V90.88C207.042 91.7333 206.082 92.16 204.895 92.16C203.655 92.16 202.602 91.7067 201.735 90.8C200.855 89.8933 200.415 88.8 200.415 87.52C200.415 86.24 200.855 85.1467 201.735 84.24C202.602 83.3333 203.655 82.88 204.895 82.88C206.082 82.88 207.042 83.3067 207.775 84.16ZM203.135 89.56C203.655 90.12 204.295 90.4 205.055 90.4C205.802 90.4 206.448 90.12 206.995 89.56C207.515 89 207.775 88.32 207.775 87.52C207.775 86.72 207.515 86.04 206.995 85.48C206.448 84.92 205.802 84.64 205.055 84.64C204.295 84.64 203.655 84.92 203.135 85.48C202.602 86.0267 202.335 86.7067 202.335 87.52C202.335 88.3333 202.602 89.0133 203.135 89.56ZM211.939 87.52C211.939 86.24 212.392 85.1467 213.299 84.24C214.205 83.3333 215.299 82.88 216.579 82.88C217.859 82.88 218.952 83.3333 219.859 84.24C220.765 85.1467 221.219 86.24 221.219 87.52C221.219 88.8 220.765 89.8933 219.859 90.8C218.952 91.7067 217.859 92.16 216.579 92.16C215.299 92.16 214.205 91.7067 213.299 90.8C212.392 89.8933 211.939 88.8 211.939 87.52ZM214.679 89.54C215.212 90.1133 215.845 90.4 216.579 90.4C217.325 90.4 217.965 90.1133 218.499 89.54C219.032 88.9933 219.299 88.32 219.299 87.52C219.299 86.7333 219.032 86.0533 218.499 85.48C217.965 84.92 217.325 84.64 216.579 84.64C215.859 84.64 215.225 84.92 214.679 85.48C214.132 86.0667 213.859 86.7467 213.859 87.52C213.859 88.2933 214.132 88.9667 214.679 89.54ZM225.377 83.04V84.46C225.977 83.4067 227.044 82.88 228.577 82.88V84.92C227.991 84.8 227.457 84.8267 226.977 85C225.911 85.3867 225.377 86.38 225.377 87.98V92H223.457V83.04H225.377ZM232.573 94.24H231.133V89.76H233.373L232.573 94.24ZM35.2113 111.48L41.6113 104.6V119H38.4113V112.12L35.2113 115.8L32.0113 112.12V119H28.8113V104.6L35.2113 111.48ZM47.6828 106.2C47.6828 106.733 47.4961 107.187 47.1228 107.56C46.7495 107.933 46.2961 108.12 45.7628 108.12C45.2295 108.12 44.7761 107.933 44.4028 107.56C44.0295 107.187 43.8428 106.733 43.8428 106.2C43.8428 105.667 44.0295 105.213 44.4028 104.84C44.7761 104.467 45.2295 104.28 45.7628 104.28C46.2961 104.28 46.7495 104.467 47.1228 104.84C47.4961 105.213 47.6828 105.667 47.6828 106.2ZM47.3628 119H44.1628V109.4H47.3628V119ZM55.7283 113.66L59.6883 119H55.8483L53.7483 115.96L52.9683 116.88V119H49.7683V104.28H52.9683V112.68L55.5283 109.4H59.3683L55.7283 113.66ZM69.1114 114V119H65.9114V118.2C65.2447 118.947 64.3781 119.32 63.3114 119.32C62.2314 119.32 61.3847 118.993 60.7714 118.34C60.1447 117.687 59.8314 116.9 59.8314 115.98C59.8314 115.14 60.1447 114.447 60.7714 113.9C61.3981 113.353 62.1581 113.033 63.0514 112.94C63.9714 112.86 64.9114 112.947 65.8714 113.2C65.8447 112.747 65.6781 112.387 65.3714 112.12C65.0781 111.853 64.6714 111.72 64.1514 111.72C63.3647 111.72 62.6181 111.927 61.9114 112.34L60.9514 110.04C61.9381 109.4 63.1647 109.08 64.6314 109.08C65.9114 109.08 66.9847 109.48 67.8514 110.28C68.6914 111.08 69.1114 112.32 69.1114 114ZM65.9114 115.2C65.1914 114.947 64.5247 114.893 63.9114 115.04C63.3247 115.187 63.0314 115.52 63.0314 116.04C63.0314 116.347 63.1381 116.6 63.3514 116.8C63.5781 116.987 63.8514 117.08 64.1714 117.08C64.5981 117.08 64.9781 116.913 65.3114 116.58C65.6447 116.233 65.8447 115.773 65.9114 115.2ZM75.9503 116.52C76.897 116.52 77.697 116.213 78.3503 115.6L79.9903 117.74C78.897 118.793 77.5903 119.32 76.0703 119.32C74.4436 119.32 73.1436 118.833 72.1703 117.86C71.197 116.887 70.7103 115.667 70.7103 114.2C70.7103 112.733 71.197 111.513 72.1703 110.54C73.1436 109.567 74.4436 109.08 76.0703 109.08C76.4703 109.08 76.8703 109.133 77.2703 109.24C77.6836 109.347 78.117 109.533 78.5703 109.8C79.0236 110.053 79.437 110.453 79.8103 111C80.1836 111.533 80.457 112.173 80.6303 112.92L74.9503 116.32C75.1636 116.453 75.497 116.52 75.9503 116.52ZM76.0703 111.88C75.3503 111.88 74.7636 112.12 74.3103 112.6C73.8703 113.067 73.697 113.66 73.7903 114.38L77.1103 112.4C76.8836 112.053 76.537 111.88 76.0703 111.88ZM81.9167 119V104.28H85.1167V119H81.9167ZM93.7527 119V104.92H96.9527V116.12H101.753V119H93.7527ZM107.195 106.2C107.195 106.733 107.008 107.187 106.635 107.56C106.261 107.933 105.808 108.12 105.275 108.12C104.741 108.12 104.288 107.933 103.915 107.56C103.541 107.187 103.355 106.733 103.355 106.2C103.355 105.667 103.541 105.213 103.915 104.84C104.288 104.467 104.741 104.28 105.275 104.28C105.808 104.28 106.261 104.467 106.635 104.84C107.008 105.213 107.195 105.667 107.195 106.2ZM106.875 119H103.675V109.4H106.875V119ZM115.04 109.08C116.133 109.08 117.047 109.467 117.78 110.24C118.513 111.013 118.88 112.12 118.88 113.56V119H115.68V113.88C115.68 112.6 115.147 111.96 114.08 111.96C113.64 111.96 113.26 112.16 112.94 112.56C112.633 112.947 112.48 113.493 112.48 114.2V119H109.28V109.4H112.48V110.36C113.04 109.507 113.893 109.08 115.04 109.08ZM128.156 110.36V104.28H131.356V119H128.156V118.04C127.436 118.893 126.483 119.32 125.296 119.32C123.936 119.32 122.796 118.82 121.876 117.82C120.943 116.847 120.476 115.64 120.476 114.2C120.476 112.76 120.943 111.547 121.876 110.56C122.796 109.573 123.936 109.08 125.296 109.08C126.483 109.08 127.436 109.507 128.156 110.36ZM123.676 114.2C123.676 114.813 123.896 115.34 124.336 115.78C124.776 116.22 125.303 116.44 125.916 116.44C126.529 116.44 127.056 116.22 127.496 115.78C127.936 115.34 128.156 114.813 128.156 114.2C128.156 113.587 127.936 113.06 127.496 112.62C127.056 112.18 126.529 111.96 125.916 111.96C125.303 111.96 124.776 112.18 124.336 112.62C123.896 113.06 123.676 113.587 123.676 114.2ZM139.513 109.08C140.606 109.08 141.519 109.467 142.253 110.24C142.986 111.013 143.353 112.12 143.353 113.56V119H140.153V113.88C140.153 112.6 139.619 111.96 138.553 111.96C138.113 111.96 137.733 112.16 137.413 112.56C137.106 112.947 136.953 113.493 136.953 114.2V119H133.753V109.4H136.953V110.36C137.513 109.507 138.366 109.08 139.513 109.08ZM150.389 109.08C151.895 109.08 153.182 109.573 154.249 110.56C155.302 111.56 155.829 112.773 155.829 114.2C155.829 115.64 155.309 116.847 154.269 117.82C153.202 118.82 151.909 119.32 150.389 119.32C148.815 119.32 147.515 118.827 146.489 117.84C145.462 116.853 144.949 115.64 144.949 114.2C144.949 112.733 145.455 111.513 146.469 110.54C147.482 109.567 148.789 109.08 150.389 109.08ZM148.149 114.2C148.149 114.813 148.369 115.34 148.809 115.78C149.249 116.22 149.775 116.44 150.389 116.44C151.002 116.44 151.529 116.22 151.969 115.78C152.409 115.34 152.629 114.813 152.629 114.2C152.629 113.587 152.409 113.06 151.969 112.62C151.529 112.18 151.002 111.96 150.389 111.96C149.775 111.96 149.249 112.18 148.809 112.62C148.369 113.06 148.149 113.587 148.149 114.2ZM160.644 109.4V111.18C160.977 110.5 161.417 110 161.964 109.68C162.511 109.347 163.244 109.147 164.164 109.08V112.6C163.604 112.427 163.017 112.427 162.404 112.6C161.897 112.733 161.477 113.06 161.144 113.58C160.811 114.1 160.644 114.727 160.644 115.46V119H157.444V109.4H160.644ZM173.117 110.36V104.28H176.317V119H173.117V118.04C172.397 118.893 171.444 119.32 170.257 119.32C168.897 119.32 167.757 118.82 166.837 117.82C165.904 116.847 165.437 115.64 165.437 114.2C165.437 112.76 165.904 111.547 166.837 110.56C167.757 109.573 168.897 109.08 170.257 109.08C171.444 109.08 172.397 109.507 173.117 110.36ZM168.637 114.2C168.637 114.813 168.857 115.34 169.297 115.78C169.737 116.22 170.264 116.44 170.877 116.44C171.49 116.44 172.017 116.22 172.457 115.78C172.897 115.34 173.117 114.813 173.117 114.2C173.117 113.587 172.897 113.06 172.457 112.62C172.017 112.18 171.49 111.96 170.877 111.96C170.264 111.96 169.737 112.18 169.297 112.62C168.857 113.06 168.637 113.587 168.637 114.2ZM180.63 121.24H179.19V116.76H181.43L180.63 121.24ZM191.026 119V104.28H192.946V119H191.026ZM197.267 108.76H195.987L197.267 105.56H199.187L197.267 108.76ZM197.907 119H195.987V110.04H197.907V119ZM207.668 111.16V104.28H209.588V119H207.668V117.88C206.934 118.733 205.974 119.16 204.788 119.16C203.548 119.16 202.494 118.707 201.628 117.8C200.748 116.893 200.308 115.8 200.308 114.52C200.308 113.24 200.748 112.147 201.628 111.24C202.494 110.333 203.548 109.88 204.788 109.88C205.974 109.88 206.934 110.307 207.668 111.16ZM203.028 116.56C203.548 117.12 204.188 117.4 204.948 117.4C205.694 117.4 206.341 117.12 206.888 116.56C207.408 116 207.668 115.32 207.668 114.52C207.668 113.72 207.408 113.04 206.888 112.48C206.341 111.92 205.694 111.64 204.948 111.64C204.188 111.64 203.548 111.92 203.028 112.48C202.494 113.027 202.228 113.707 202.228 114.52C202.228 115.333 202.494 116.013 203.028 116.56ZM216.471 117.4C217.258 117.4 217.998 117.053 218.691 116.36L219.791 117.76C218.898 118.693 217.791 119.16 216.471 119.16C215.191 119.16 214.098 118.707 213.191 117.8C212.284 116.893 211.831 115.8 211.831 114.52C211.831 113.24 212.284 112.147 213.191 111.24C214.098 110.333 215.191 109.88 216.471 109.88C217.471 109.88 218.324 110.167 219.031 110.74C219.738 111.3 220.218 112.067 220.471 113.04L214.531 116.48C214.718 116.747 214.991 116.967 215.351 117.14C215.724 117.313 216.098 117.4 216.471 117.4ZM216.471 111.64C215.751 111.64 215.118 111.933 214.571 112.52C214.024 113.107 213.751 113.773 213.751 114.52C213.751 114.547 213.764 114.72 213.791 115.04L218.231 112.48C217.804 111.92 217.218 111.64 216.471 111.64ZM224.313 110.04V111.46C224.913 110.407 225.98 109.88 227.513 109.88V111.92C226.926 111.8 226.393 111.827 225.913 112C224.846 112.387 224.313 113.38 224.313 114.98V119H222.393V110.04H224.313ZM35.9294 137.16V130.28H37.8494V145H35.9294V143.88C35.196 144.733 34.236 145.16 33.0494 145.16C31.8094 145.16 30.756 144.707 29.8894 143.8C29.0094 142.893 28.5694 141.8 28.5694 140.52C28.5694 139.24 29.0094 138.147 29.8894 137.24C30.756 136.333 31.8094 135.88 33.0494 135.88C34.236 135.88 35.196 136.307 35.9294 137.16ZM31.2894 142.56C31.8094 143.12 32.4494 143.4 33.2094 143.4C33.956 143.4 34.6027 143.12 35.1494 142.56C35.6694 142 35.9294 141.32 35.9294 140.52C35.9294 139.72 35.6694 139.04 35.1494 138.48C34.6027 137.92 33.956 137.64 33.2094 137.64C32.4494 137.64 31.8094 137.92 31.2894 138.48C30.756 139.027 30.4894 139.707 30.4894 140.52C30.4894 141.333 30.756 142.013 31.2894 142.56ZM44.7328 143.4C45.5195 143.4 46.2595 143.053 46.9528 142.36L48.0528 143.76C47.1595 144.693 46.0528 145.16 44.7328 145.16C43.4528 145.16 42.3595 144.707 41.4528 143.8C40.5461 142.893 40.0928 141.8 40.0928 140.52C40.0928 139.24 40.5461 138.147 41.4528 137.24C42.3595 136.333 43.4528 135.88 44.7328 135.88C45.7328 135.88 46.5861 136.167 47.2928 136.74C47.9995 137.3 48.4795 138.067 48.7328 139.04L42.7928 142.48C42.9795 142.747 43.2528 142.967 43.6128 143.14C43.9861 143.313 44.3595 143.4 44.7328 143.4ZM44.7328 137.64C44.0128 137.64 43.3795 137.933 42.8328 138.52C42.2861 139.107 42.0128 139.773 42.0128 140.52C42.0128 140.547 42.0261 140.72 42.0528 141.04L46.4928 138.48C46.0661 137.92 45.4795 137.64 44.7328 137.64ZM60.9259 145.16C59.7793 145.16 58.8993 144.78 58.2859 144.02C57.6726 143.26 57.3659 142.173 57.3659 140.76V136.04H59.2859V140.92C59.2859 142.573 59.9526 143.4 61.2859 143.4C61.8993 143.4 62.4126 143.133 62.8259 142.6C63.2393 142.067 63.4459 141.373 63.4459 140.52V136.04H65.3659V145H63.4459V143.88C63.2593 144.227 62.9393 144.527 62.4859 144.78C62.0326 145.033 61.5126 145.16 60.9259 145.16ZM72.8486 135.88C73.9953 135.88 74.8753 136.26 75.4886 137.02C76.1019 137.78 76.4086 138.867 76.4086 140.28V145H74.4886V140.28C74.4886 139.387 74.3286 138.727 74.0086 138.3C73.7019 137.86 73.1953 137.64 72.4886 137.64C71.8753 137.64 71.3619 137.9 70.9486 138.42C70.5353 138.927 70.3286 139.573 70.3286 140.36V145H68.4086V136.04H70.3286V137.16C70.5153 136.813 70.8353 136.513 71.2886 136.26C71.7419 136.007 72.2619 135.88 72.8486 135.88ZM90.0063 143.4C90.7929 143.4 91.5329 143.053 92.2263 142.36L93.3263 143.76C92.4329 144.693 91.3263 145.16 90.0063 145.16C88.7263 145.16 87.6329 144.707 86.7263 143.8C85.8196 142.893 85.3663 141.8 85.3663 140.52C85.3663 139.24 85.8196 138.147 86.7263 137.24C87.6329 136.333 88.7263 135.88 90.0063 135.88C91.0063 135.88 91.8596 136.167 92.5663 136.74C93.2729 137.3 93.7529 138.067 94.0063 139.04L88.0663 142.48C88.2529 142.747 88.5263 142.967 88.8863 143.14C89.2596 143.313 89.6329 143.4 90.0063 143.4ZM90.0063 137.64C89.2863 137.64 88.6529 137.933 88.1063 138.52C87.5596 139.107 87.2863 139.773 87.2863 140.52C87.2863 140.547 87.2996 140.72 87.3263 141.04L91.7663 138.48C91.3396 137.92 90.7529 137.64 90.0063 137.64ZM104.881 149.8H102.961V143.88C102.227 144.733 101.267 145.16 100.081 145.16C98.8406 145.16 97.7873 144.707 96.9206 143.8C96.0406 142.893 95.6006 141.8 95.6006 140.52C95.6006 139.24 96.0406 138.147 96.9206 137.24C97.7873 136.333 98.8406 135.88 100.081 135.88C101.267 135.88 102.227 136.307 102.961 137.16V136.04H104.881V149.8ZM102.181 138.48C101.634 137.92 100.987 137.64 100.241 137.64C99.4806 137.64 98.8406 137.92 98.3206 138.48C97.7873 139.027 97.5206 139.707 97.5206 140.52C97.5206 141.333 97.7873 142.013 98.3206 142.56C98.8406 143.12 99.4806 143.4 100.241 143.4C100.987 143.4 101.634 143.12 102.181 142.56C102.701 142 102.961 141.32 102.961 140.52C102.961 139.72 102.701 139.04 102.181 138.48ZM111.16 145.16C110.014 145.16 109.134 144.78 108.52 144.02C107.907 143.26 107.6 142.173 107.6 140.76V136.04H109.52V140.92C109.52 142.573 110.187 143.4 111.52 143.4C112.134 143.4 112.647 143.133 113.06 142.6C113.474 142.067 113.68 141.373 113.68 140.52V136.04H115.6V145H113.68V143.88C113.494 144.227 113.174 144.527 112.72 144.78C112.267 145.033 111.747 145.16 111.16 145.16ZM121.043 133C121.043 133.4 120.903 133.74 120.623 134.02C120.343 134.3 120.003 134.44 119.603 134.44C119.203 134.44 118.863 134.3 118.583 134.02C118.303 133.74 118.163 133.4 118.163 133C118.163 132.6 118.303 132.26 118.583 131.98C118.863 131.7 119.203 131.56 119.603 131.56C120.003 131.56 120.343 131.7 120.623 131.98C120.903 132.26 121.043 132.6 121.043 133ZM120.563 145H118.643V136.04H120.563V145ZM125.524 143.88V149.8H123.604V136.04H125.524V137.16C126.257 136.307 127.217 135.88 128.404 135.88C129.644 135.88 130.704 136.333 131.584 137.24C132.451 138.147 132.884 139.24 132.884 140.52C132.884 141.8 132.451 142.893 131.584 143.8C130.704 144.707 129.644 145.16 128.404 145.16C127.217 145.16 126.257 144.733 125.524 143.88ZM130.184 138.48C129.637 137.92 128.991 137.64 128.244 137.64C127.484 137.64 126.844 137.92 126.324 138.48C125.791 139.027 125.524 139.707 125.524 140.52C125.524 141.333 125.791 142.013 126.324 142.56C126.844 143.12 127.484 143.4 128.244 143.4C128.991 143.4 129.637 143.12 130.184 142.56C130.704 142 130.964 141.32 130.964 140.52C130.964 139.72 130.704 139.04 130.184 138.48ZM134.8 140.52C134.8 139.24 135.253 138.147 136.16 137.24C137.067 136.333 138.16 135.88 139.44 135.88C140.72 135.88 141.813 136.333 142.72 137.24C143.627 138.147 144.08 139.24 144.08 140.52C144.08 141.8 143.627 142.893 142.72 143.8C141.813 144.707 140.72 145.16 139.44 145.16C138.16 145.16 137.067 144.707 136.16 143.8C135.253 142.893 134.8 141.8 134.8 140.52ZM137.54 142.54C138.073 143.113 138.707 143.4 139.44 143.4C140.187 143.4 140.827 143.113 141.36 142.54C141.893 141.993 142.16 141.32 142.16 140.52C142.16 139.733 141.893 139.053 141.36 138.48C140.827 137.92 140.187 137.64 139.44 137.64C138.72 137.64 138.087 137.92 137.54 138.48C136.993 139.067 136.72 139.747 136.72 140.52C136.72 141.293 136.993 141.967 137.54 142.54ZM156.57 139.4C158.477 139.84 159.43 140.813 159.43 142.32C159.43 143.16 159.117 143.84 158.49 144.36C157.863 144.893 157.117 145.16 156.25 145.16C154.903 145.16 153.723 144.653 152.71 143.64L153.67 142.24C154.443 142.987 155.263 143.373 156.13 143.4C156.543 143.413 156.877 143.32 157.13 143.12C157.383 142.92 157.51 142.687 157.51 142.42C157.51 141.913 157.097 141.547 156.27 141.32C155.11 141 154.303 140.633 153.85 140.22C153.41 139.807 153.19 139.22 153.19 138.46C153.19 137.74 153.463 137.133 154.01 136.64C154.57 136.133 155.31 135.88 156.23 135.88C157.177 135.88 158.037 136.187 158.81 136.8L157.91 138.2C157.417 137.827 156.857 137.64 156.23 137.64C155.883 137.64 155.61 137.713 155.41 137.86C155.21 138.007 155.11 138.187 155.11 138.4C155.11 138.653 155.21 138.853 155.41 139C155.623 139.133 156.01 139.267 156.57 139.4ZM165.067 145.16C163.92 145.16 163.04 144.78 162.427 144.02C161.813 143.26 161.507 142.173 161.507 140.76V136.04H163.427V140.92C163.427 142.573 164.093 143.4 165.427 143.4C166.04 143.4 166.553 143.133 166.967 142.6C167.38 142.067 167.587 141.373 167.587 140.52V136.04H169.507V145H167.587V143.88C167.4 144.227 167.08 144.527 166.627 144.78C166.173 145.033 165.653 145.16 165.067 145.16ZM176.393 143.4C177.18 143.4 177.92 143.053 178.613 142.36L179.713 143.76C178.82 144.693 177.713 145.16 176.393 145.16C175.113 145.16 174.02 144.707 173.113 143.8C172.206 142.893 171.753 141.8 171.753 140.52C171.753 139.24 172.206 138.147 173.113 137.24C174.02 136.333 175.113 135.88 176.393 135.88C177.393 135.88 178.246 136.167 178.953 136.74C179.66 137.3 180.14 138.067 180.393 139.04L174.453 142.48C174.64 142.747 174.913 142.967 175.273 143.14C175.646 143.313 176.02 143.4 176.393 143.4ZM176.393 137.64C175.673 137.64 175.04 137.933 174.493 138.52C173.946 139.107 173.673 139.773 173.673 140.52C173.673 140.547 173.686 140.72 173.713 141.04L178.153 138.48C177.726 137.92 177.14 137.64 176.393 137.64ZM186.627 143.4C187.467 143.4 188.134 143.133 188.627 142.6L189.667 144.04C188.801 144.787 187.787 145.16 186.627 145.16C185.347 145.16 184.254 144.707 183.347 143.8C182.441 142.893 181.987 141.8 181.987 140.52C181.987 139.24 182.441 138.147 183.347 137.24C184.254 136.333 185.347 135.88 186.627 135.88C187.787 135.88 188.801 136.253 189.667 137L188.627 138.44C188.134 137.907 187.467 137.64 186.627 137.64C185.907 137.64 185.274 137.92 184.727 138.48C184.181 139.067 183.907 139.747 183.907 140.52C183.907 141.293 184.181 141.967 184.727 142.54C185.261 143.113 185.894 143.4 186.627 143.4ZM191.284 140.52C191.284 139.24 191.738 138.147 192.644 137.24C193.551 136.333 194.644 135.88 195.924 135.88C197.204 135.88 198.298 136.333 199.204 137.24C200.111 138.147 200.564 139.24 200.564 140.52C200.564 141.8 200.111 142.893 199.204 143.8C198.298 144.707 197.204 145.16 195.924 145.16C194.644 145.16 193.551 144.707 192.644 143.8C191.738 142.893 191.284 141.8 191.284 140.52ZM194.024 142.54C194.558 143.113 195.191 143.4 195.924 143.4C196.671 143.4 197.311 143.113 197.844 142.54C198.378 141.993 198.644 141.32 198.644 140.52C198.644 139.733 198.378 139.053 197.844 138.48C197.311 137.92 196.671 137.64 195.924 137.64C195.204 137.64 194.571 137.92 194.024 138.48C193.478 139.067 193.204 139.747 193.204 140.52C193.204 141.293 193.478 141.967 194.024 142.54ZM204.556 147.24H203.116V142.76H205.356L204.556 147.24ZM214.952 145V130.28H216.872V145H214.952ZM223.756 143.4C224.543 143.4 225.283 143.053 225.976 142.36L227.076 143.76C226.183 144.693 225.076 145.16 223.756 145.16C222.476 145.16 221.383 144.707 220.476 143.8C219.57 142.893 219.116 141.8 219.116 140.52C219.116 139.24 219.57 138.147 220.476 137.24C221.383 136.333 222.476 135.88 223.756 135.88C224.756 135.88 225.61 136.167 226.316 136.74C227.023 137.3 227.503 138.067 227.756 139.04L221.816 142.48C222.003 142.747 222.276 142.967 222.636 143.14C223.01 143.313 223.383 143.4 223.756 143.4ZM223.756 137.64C223.036 137.64 222.403 137.933 221.856 138.52C221.31 139.107 221.036 139.773 221.036 140.52C221.036 140.547 221.05 140.72 221.076 141.04L225.516 138.48C225.09 137.92 224.503 137.64 223.756 137.64ZM18.2471 166.52C18.2471 165.24 18.7004 164.147 19.6071 163.24C20.5138 162.333 21.6071 161.88 22.8871 161.88C24.1671 161.88 25.2604 162.333 26.1671 163.24C27.0738 164.147 27.5271 165.24 27.5271 166.52C27.5271 167.8 27.0738 168.893 26.1671 169.8C25.2604 170.707 24.1671 171.16 22.8871 171.16C21.6071 171.16 20.5138 170.707 19.6071 169.8C18.7004 168.893 18.2471 167.8 18.2471 166.52ZM20.9871 168.54C21.5204 169.113 22.1538 169.4 22.8871 169.4C23.6338 169.4 24.2738 169.113 24.8071 168.54C25.3404 167.993 25.6071 167.32 25.6071 166.52C25.6071 165.733 25.3404 165.053 24.8071 164.48C24.2738 163.92 23.6338 163.64 22.8871 163.64C22.1671 163.64 21.5338 163.92 20.9871 164.48C20.4404 165.067 20.1671 165.747 20.1671 166.52C20.1671 167.293 20.4404 167.967 20.9871 168.54ZM29.126 163.8V162.04H30.406V159.6C30.406 158.48 30.6593 157.62 31.166 157.02C31.686 156.42 32.3927 156.12 33.286 156.12C33.9527 156.12 34.5927 156.333 35.206 156.76L34.326 158.2C34.0593 157.987 33.7593 157.88 33.426 157.88C32.6927 157.88 32.326 158.453 32.326 159.6V162.04H35.206V163.8H32.326V171H30.406V163.8H29.126ZM39.6938 162.04V163.46C40.2938 162.407 41.3605 161.88 42.8938 161.88V163.92C42.3072 163.8 41.7738 163.827 41.2938 164C40.2272 164.387 39.6938 165.38 39.6938 166.98V171H37.7738V162.04H39.6938ZM48.8051 169.4C49.5917 169.4 50.3317 169.053 51.0251 168.36L52.1251 169.76C51.2317 170.693 50.1251 171.16 48.8051 171.16C47.5251 171.16 46.4317 170.707 45.5251 169.8C44.6184 168.893 44.1651 167.8 44.1651 166.52C44.1651 165.24 44.6184 164.147 45.5251 163.24C46.4317 162.333 47.5251 161.88 48.8051 161.88C49.8051 161.88 50.6584 162.167 51.3651 162.74C52.0717 163.3 52.5517 164.067 52.8051 165.04L46.8651 168.48C47.0517 168.747 47.3251 168.967 47.6851 169.14C48.0584 169.313 48.4317 169.4 48.8051 169.4ZM48.8051 163.64C48.0851 163.64 47.4517 163.933 46.9051 164.52C46.3584 165.107 46.0851 165.773 46.0851 166.52C46.0851 166.547 46.0984 166.72 46.1251 167.04L50.5651 164.48C50.1384 163.92 49.5517 163.64 48.8051 163.64ZM59.0395 169.4C59.8795 169.4 60.5461 169.133 61.0395 168.6L62.0795 170.04C61.2128 170.787 60.1995 171.16 59.0395 171.16C57.7595 171.16 56.6661 170.707 55.7595 169.8C54.8528 168.893 54.3995 167.8 54.3995 166.52C54.3995 165.24 54.8528 164.147 55.7595 163.24C56.6661 162.333 57.7595 161.88 59.0395 161.88C60.1995 161.88 61.2128 162.253 62.0795 163L61.0395 164.44C60.5461 163.907 59.8795 163.64 59.0395 163.64C58.3195 163.64 57.6861 163.92 57.1395 164.48C56.5928 165.067 56.3195 165.747 56.3195 166.52C56.3195 167.293 56.5928 167.967 57.1395 168.54C57.6728 169.113 58.3061 169.4 59.0395 169.4ZM66.8926 159C66.8926 159.4 66.7526 159.74 66.4726 160.02C66.1926 160.3 65.8526 160.44 65.4526 160.44C65.0526 160.44 64.7126 160.3 64.4326 160.02C64.1526 159.74 64.0126 159.4 64.0126 159C64.0126 158.6 64.1526 158.26 64.4326 157.98C64.7126 157.7 65.0526 157.56 65.4526 157.56C65.8526 157.56 66.1926 157.7 66.4726 157.98C66.7526 158.26 66.8926 158.6 66.8926 159ZM66.4126 171H64.4926V162.04H66.4126V171ZM73.6173 160.76H72.3373L73.6173 157.56H75.5373L73.6173 160.76ZM68.6573 166.52C68.6573 165.24 69.1106 164.147 70.0173 163.24C70.9239 162.333 72.0173 161.88 73.2973 161.88C74.5773 161.88 75.6706 162.333 76.5773 163.24C77.4839 164.147 77.9373 165.24 77.9373 166.52C77.9373 167.8 77.4839 168.893 76.5773 169.8C75.6706 170.707 74.5773 171.16 73.2973 171.16C72.0173 171.16 70.9239 170.707 70.0173 169.8C69.1106 168.893 68.6573 167.8 68.6573 166.52ZM71.3973 168.54C71.9306 169.113 72.5639 169.4 73.2973 169.4C74.0439 169.4 74.6839 169.113 75.2173 168.54C75.7506 167.993 76.0173 167.32 76.0173 166.52C76.0173 165.733 75.7506 165.053 75.2173 164.48C74.6839 163.92 74.0439 163.64 73.2973 163.64C72.5773 163.64 71.9439 163.92 71.3973 164.48C70.8506 165.067 70.5773 165.747 70.5773 166.52C70.5773 167.293 70.8506 167.967 71.3973 168.54ZM90.4474 171.16C89.3008 171.16 88.4208 170.78 87.8074 170.02C87.1941 169.26 86.8874 168.173 86.8874 166.76V162.04H88.8074V166.92C88.8074 168.573 89.4741 169.4 90.8074 169.4C91.4208 169.4 91.9341 169.133 92.3474 168.6C92.7608 168.067 92.9674 167.373 92.9674 166.52V162.04H94.8874V171H92.9674V169.88C92.7808 170.227 92.4608 170.527 92.0074 170.78C91.5541 171.033 91.0341 171.16 90.4474 171.16ZM102.37 161.88C103.517 161.88 104.397 162.26 105.01 163.02C105.623 163.78 105.93 164.867 105.93 166.28V171H104.01V166.28C104.01 165.387 103.85 164.727 103.53 164.3C103.223 163.86 102.717 163.64 102.01 163.64C101.397 163.64 100.883 163.9 100.47 164.42C100.057 164.927 99.8501 165.573 99.8501 166.36V171H97.9301V162.04H99.8501V163.16C100.037 162.813 100.357 162.513 100.81 162.26C101.263 162.007 101.783 161.88 102.37 161.88ZM116.169 166.8V171H114.249V169.84C113.502 170.72 112.576 171.16 111.469 171.16C110.509 171.16 109.722 170.873 109.109 170.3C108.482 169.74 108.169 169.02 108.169 168.14C108.169 167.3 108.476 166.613 109.089 166.08C109.716 165.547 110.469 165.26 111.349 165.22C112.242 165.18 113.189 165.36 114.189 165.76C114.109 164.347 113.436 163.64 112.169 163.64C111.409 163.64 110.716 163.833 110.089 164.22L109.289 162.84C110.129 162.2 111.116 161.88 112.249 161.88C114.862 161.88 116.169 163.52 116.169 166.8ZM114.249 167.34C113.796 167.073 113.236 166.92 112.569 166.88C111.902 166.84 111.316 166.94 110.809 167.18C110.316 167.407 110.076 167.747 110.089 168.2C110.089 168.547 110.229 168.833 110.509 169.06C110.802 169.287 111.182 169.4 111.649 169.4C112.262 169.4 112.829 169.2 113.349 168.8C113.869 168.4 114.169 167.913 114.249 167.34ZM133.122 166.8V171H131.202V169.84C130.455 170.72 129.529 171.16 128.422 171.16C127.462 171.16 126.675 170.873 126.062 170.3C125.435 169.74 125.122 169.02 125.122 168.14C125.122 167.3 125.429 166.613 126.042 166.08C126.669 165.547 127.422 165.26 128.302 165.22C129.195 165.18 130.142 165.36 131.142 165.76C131.062 164.347 130.389 163.64 129.122 163.64C128.362 163.64 127.669 163.833 127.042 164.22L126.242 162.84C127.082 162.2 128.069 161.88 129.202 161.88C131.815 161.88 133.122 163.52 133.122 166.8ZM131.202 167.34C130.749 167.073 130.189 166.92 129.522 166.88C128.855 166.84 128.269 166.94 127.762 167.18C127.269 167.407 127.029 167.747 127.042 168.2C127.042 168.547 127.182 168.833 127.462 169.06C127.755 169.287 128.135 169.4 128.602 169.4C129.215 169.4 129.782 169.2 130.302 168.8C130.822 168.4 131.122 167.913 131.202 167.34ZM135.84 171V156.28H137.76V171H135.84ZM140.801 156.28H142.721V163.16C143.455 162.307 144.415 161.88 145.601 161.88C146.841 161.88 147.901 162.333 148.781 163.24C149.648 164.147 150.081 165.24 150.081 166.52C150.081 167.8 149.648 168.893 148.781 169.8C147.901 170.707 146.841 171.16 145.601 171.16C144.415 171.16 143.455 170.733 142.721 169.88V171H140.801V156.28ZM143.521 168.56C144.041 169.12 144.681 169.4 145.441 169.4C146.188 169.4 146.835 169.12 147.381 168.56C147.901 168 148.161 167.32 148.161 166.52C148.161 165.72 147.901 165.04 147.381 164.48C146.835 163.92 146.188 163.64 145.441 163.64C144.681 163.64 144.041 163.92 143.521 164.48C142.988 165.027 142.721 165.707 142.721 166.52C142.721 167.333 142.988 168.013 143.521 168.56ZM156.957 160.76H155.677L156.957 157.56H158.877L156.957 160.76ZM151.997 166.52C151.997 165.24 152.45 164.147 153.357 163.24C154.264 162.333 155.357 161.88 156.637 161.88C157.917 161.88 159.01 162.333 159.917 163.24C160.824 164.147 161.277 165.24 161.277 166.52C161.277 167.8 160.824 168.893 159.917 169.8C159.01 170.707 157.917 171.16 156.637 171.16C155.357 171.16 154.264 170.707 153.357 169.8C152.45 168.893 151.997 167.8 151.997 166.52ZM154.737 168.54C155.27 169.113 155.904 169.4 156.637 169.4C157.384 169.4 158.024 169.113 158.557 168.54C159.09 167.993 159.357 167.32 159.357 166.52C159.357 165.733 159.09 165.053 158.557 164.48C158.024 163.92 157.384 163.64 156.637 163.64C155.917 163.64 155.284 163.92 154.737 164.48C154.19 165.067 153.917 165.747 153.917 166.52C153.917 167.293 154.19 167.967 154.737 168.54ZM167.956 161.88C169.103 161.88 169.983 162.26 170.596 163.02C171.209 163.78 171.516 164.867 171.516 166.28V171H169.596V166.28C169.596 165.387 169.436 164.727 169.116 164.3C168.809 163.86 168.303 163.64 167.596 163.64C166.983 163.64 166.469 163.9 166.056 164.42C165.643 164.927 165.436 165.573 165.436 166.36V171H163.516V162.04H165.436V163.16C165.623 162.813 165.943 162.513 166.396 162.26C166.849 162.007 167.369 161.88 167.956 161.88ZM181.115 163.16V156.28H183.035V171H181.115V169.88C180.382 170.733 179.422 171.16 178.235 171.16C176.995 171.16 175.942 170.707 175.075 169.8C174.195 168.893 173.755 167.8 173.755 166.52C173.755 165.24 174.195 164.147 175.075 163.24C175.942 162.333 176.995 161.88 178.235 161.88C179.422 161.88 180.382 162.307 181.115 163.16ZM176.475 168.56C176.995 169.12 177.635 169.4 178.395 169.4C179.142 169.4 179.788 169.12 180.335 168.56C180.855 168 181.115 167.32 181.115 166.52C181.115 165.72 180.855 165.04 180.335 164.48C179.788 163.92 179.142 163.64 178.395 163.64C177.635 163.64 176.995 163.92 176.475 164.48C175.942 165.027 175.675 165.707 175.675 166.52C175.675 167.333 175.942 168.013 176.475 168.56ZM188.475 159C188.475 159.4 188.335 159.74 188.055 160.02C187.775 160.3 187.435 160.44 187.035 160.44C186.635 160.44 186.295 160.3 186.015 160.02C185.735 159.74 185.595 159.4 185.595 159C185.595 158.6 185.735 158.26 186.015 157.98C186.295 157.7 186.635 157.56 187.035 157.56C187.435 157.56 187.775 157.7 188.055 157.98C188.335 158.26 188.475 158.6 188.475 159ZM187.995 171H186.075V162.04H187.995V171ZM197.756 163.16V162.04H199.676V170.48C199.676 172.347 199.216 173.733 198.296 174.64C197.376 175.52 196.182 175.96 194.716 175.96C194.116 175.96 193.476 175.847 192.796 175.62C192.156 175.407 191.676 175.14 191.356 174.82L192.216 173.26C192.922 173.887 193.756 174.2 194.716 174.2C195.689 174.2 196.436 173.9 196.956 173.3C197.489 172.7 197.756 171.853 197.756 170.76V169.88C197.022 170.733 196.062 171.16 194.876 171.16C193.636 171.16 192.582 170.707 191.716 169.8C190.836 168.893 190.396 167.8 190.396 166.52C190.396 165.24 190.836 164.147 191.716 163.24C192.582 162.333 193.636 161.88 194.876 161.88C196.062 161.88 197.022 162.307 197.756 163.16ZM193.116 168.56C193.636 169.12 194.276 169.4 195.036 169.4C195.782 169.4 196.429 169.12 196.976 168.56C197.496 168 197.756 167.32 197.756 166.52C197.756 165.72 197.496 165.04 196.976 164.48C196.429 163.92 195.782 163.64 195.036 163.64C194.276 163.64 193.636 163.92 193.116 164.48C192.582 165.027 192.316 165.707 192.316 166.52C192.316 167.333 192.582 168.013 193.116 168.56ZM209.919 166.8V171H207.999V169.84C207.252 170.72 206.326 171.16 205.219 171.16C204.259 171.16 203.472 170.873 202.859 170.3C202.232 169.74 201.919 169.02 201.919 168.14C201.919 167.3 202.226 166.613 202.839 166.08C203.466 165.547 204.219 165.26 205.099 165.22C205.992 165.18 206.939 165.36 207.939 165.76C207.859 164.347 207.186 163.64 205.919 163.64C205.159 163.64 204.466 163.833 203.839 164.22L203.039 162.84C203.879 162.2 204.866 161.88 205.999 161.88C208.612 161.88 209.919 163.52 209.919 166.8ZM207.999 167.34C207.546 167.073 206.986 166.92 206.319 166.88C205.652 166.84 205.066 166.94 204.559 167.18C204.066 167.407 203.826 167.747 203.839 168.2C203.839 168.547 203.979 168.833 204.259 169.06C204.552 169.287 204.932 169.4 205.399 169.4C206.012 169.4 206.579 169.2 207.099 168.8C207.619 168.4 207.919 167.913 207.999 167.34ZM223.512 169.4C224.299 169.4 225.039 169.053 225.732 168.36L226.832 169.76C225.939 170.693 224.832 171.16 223.512 171.16C222.232 171.16 221.139 170.707 220.232 169.8C219.325 168.893 218.872 167.8 218.872 166.52C218.872 165.24 219.325 164.147 220.232 163.24C221.139 162.333 222.232 161.88 223.512 161.88C224.512 161.88 225.365 162.167 226.072 162.74C226.779 163.3 227.259 164.067 227.512 165.04L221.572 168.48C221.759 168.747 222.032 168.967 222.392 169.14C222.765 169.313 223.139 169.4 223.512 169.4ZM223.512 163.64C222.792 163.64 222.159 163.933 221.612 164.52C221.065 165.107 220.792 165.773 220.792 166.52C220.792 166.547 220.805 166.72 220.832 167.04L225.272 164.48C224.845 163.92 224.259 163.64 223.512 163.64ZM233.874 161.88C235.021 161.88 235.901 162.26 236.514 163.02C237.127 163.78 237.434 164.867 237.434 166.28V171H235.514V166.28C235.514 165.387 235.354 164.727 235.034 164.3C234.727 163.86 234.221 163.64 233.514 163.64C232.901 163.64 232.387 163.9 231.974 164.42C231.561 164.927 231.354 165.573 231.354 166.36V171H229.434V162.04H231.354V163.16C231.541 162.813 231.861 162.513 232.314 162.26C232.767 162.007 233.287 161.88 233.874 161.88ZM21.3676 197V182.28H23.2876V197H21.3676ZM33.6885 192.8V197H31.7685V195.84C31.0218 196.72 30.0952 197.16 28.9885 197.16C28.0285 197.16 27.2418 196.873 26.6285 196.3C26.0018 195.74 25.6885 195.02 25.6885 194.14C25.6885 193.3 25.9952 192.613 26.6085 192.08C27.2352 191.547 27.9885 191.26 28.8685 191.22C29.7618 191.18 30.7085 191.36 31.7085 191.76C31.6285 190.347 30.9552 189.64 29.6885 189.64C28.9285 189.64 28.2352 189.833 27.6085 190.22L26.8085 188.84C27.6485 188.2 28.6352 187.88 29.7685 187.88C32.3818 187.88 33.6885 189.52 33.6885 192.8ZM31.7685 193.34C31.3152 193.073 30.7552 192.92 30.0885 192.88C29.4218 192.84 28.8352 192.94 28.3285 193.18C27.8352 193.407 27.5952 193.747 27.6085 194.2C27.6085 194.547 27.7485 194.833 28.0285 195.06C28.3218 195.287 28.7018 195.4 29.1685 195.4C29.7818 195.4 30.3485 195.2 30.8685 194.8C31.3885 194.4 31.6885 193.913 31.7685 193.34ZM39.2866 197H37.3666V189.8H35.7666V188.04H37.3666V184.52L39.2866 183.88V188.04H41.8466V189.8H39.2866V197ZM51.1299 192.8V197H49.2099V195.84C48.4633 196.72 47.5366 197.16 46.4299 197.16C45.4699 197.16 44.6833 196.873 44.0699 196.3C43.4433 195.74 43.1299 195.02 43.1299 194.14C43.1299 193.3 43.4366 192.613 44.0499 192.08C44.6766 191.547 45.4299 191.26 46.3099 191.22C47.2033 191.18 48.1499 191.36 49.1499 191.76C49.0699 190.347 48.3966 189.64 47.1299 189.64C46.3699 189.64 45.6766 189.833 45.0499 190.22L44.2499 188.84C45.0899 188.2 46.0766 187.88 47.2099 187.88C49.8233 187.88 51.1299 189.52 51.1299 192.8ZM49.2099 193.34C48.7566 193.073 48.1966 192.92 47.5299 192.88C46.8633 192.84 46.2766 192.94 45.7699 193.18C45.2766 193.407 45.0366 193.747 45.0499 194.2C45.0499 194.547 45.1899 194.833 45.4699 195.06C45.7633 195.287 46.1433 195.4 46.6099 195.4C47.2233 195.4 47.7899 195.2 48.3099 194.8C48.8299 194.4 49.1299 193.913 49.2099 193.34ZM68.083 192.8V197H66.163V195.84C65.4164 196.72 64.4897 197.16 63.383 197.16C62.423 197.16 61.6364 196.873 61.023 196.3C60.3964 195.74 60.083 195.02 60.083 194.14C60.083 193.3 60.3897 192.613 61.003 192.08C61.6297 191.547 62.383 191.26 63.263 191.22C64.1564 191.18 65.103 191.36 66.103 191.76C66.023 190.347 65.3497 189.64 64.083 189.64C63.323 189.64 62.6297 189.833 62.003 190.22L61.203 188.84C62.043 188.2 63.0297 187.88 64.163 187.88C66.7764 187.88 68.083 189.52 68.083 192.8ZM66.163 193.34C65.7097 193.073 65.1497 192.92 64.483 192.88C63.8164 192.84 63.2297 192.94 62.723 193.18C62.2297 193.407 61.9897 193.747 62.003 194.2C62.003 194.547 62.143 194.833 62.423 195.06C62.7164 195.287 63.0964 195.4 63.563 195.4C64.1764 195.4 64.743 195.2 65.263 194.8C65.783 194.4 66.083 193.913 66.163 193.34ZM80.9162 197.16C79.7695 197.16 78.8895 196.78 78.2762 196.02C77.6628 195.26 77.3562 194.173 77.3562 192.76V188.04H79.2762V192.92C79.2762 194.573 79.9428 195.4 81.2762 195.4C81.8895 195.4 82.4028 195.133 82.8162 194.6C83.2295 194.067 83.4362 193.373 83.4362 192.52V188.04H85.3562V197H83.4362V195.88C83.2495 196.227 82.9295 196.527 82.4762 196.78C82.0228 197.033 81.5028 197.16 80.9162 197.16ZM92.8388 187.88C93.9855 187.88 94.8655 188.26 95.4788 189.02C96.0922 189.78 96.3988 190.867 96.3988 192.28V197H94.4788V192.28C94.4788 191.387 94.3188 190.727 93.9988 190.3C93.6922 189.86 93.1855 189.64 92.4788 189.64C91.8655 189.64 91.3522 189.9 90.9388 190.42C90.5255 190.927 90.3188 191.573 90.3188 192.36V197H88.3988V188.04H90.3188V189.16C90.5055 188.813 90.8255 188.513 91.2788 188.26C91.7322 188.007 92.2522 187.88 92.8388 187.88ZM107.916 195.88V201.8H105.996V188.04H107.916V189.16C108.65 188.307 109.61 187.88 110.796 187.88C112.036 187.88 113.096 188.333 113.976 189.24C114.843 190.147 115.276 191.24 115.276 192.52C115.276 193.8 114.843 194.893 113.976 195.8C113.096 196.707 112.036 197.16 110.796 197.16C109.61 197.16 108.65 196.733 107.916 195.88ZM112.576 190.48C112.03 189.92 111.383 189.64 110.636 189.64C109.876 189.64 109.236 189.92 108.716 190.48C108.183 191.027 107.916 191.707 107.916 192.52C107.916 193.333 108.183 194.013 108.716 194.56C109.236 195.12 109.876 195.4 110.636 195.4C111.383 195.4 112.03 195.12 112.576 194.56C113.096 194 113.356 193.32 113.356 192.52C113.356 191.72 113.096 191.04 112.576 190.48ZM121.832 195.4C122.619 195.4 123.359 195.053 124.052 194.36L125.152 195.76C124.259 196.693 123.152 197.16 121.832 197.16C120.552 197.16 119.459 196.707 118.552 195.8C117.646 194.893 117.192 193.8 117.192 192.52C117.192 191.24 117.646 190.147 118.552 189.24C119.459 188.333 120.552 187.88 121.832 187.88C122.832 187.88 123.686 188.167 124.392 188.74C125.099 189.3 125.579 190.067 125.832 191.04L119.892 194.48C120.079 194.747 120.352 194.967 120.712 195.14C121.086 195.313 121.459 195.4 121.832 195.4ZM121.832 189.64C121.112 189.64 120.479 189.933 119.932 190.52C119.386 191.107 119.112 191.773 119.112 192.52C119.112 192.547 119.126 192.72 119.152 193.04L123.592 190.48C123.166 189.92 122.579 189.64 121.832 189.64ZM129.674 188.04V189.46C130.274 188.407 131.341 187.88 132.874 187.88V189.92C132.288 189.8 131.754 189.827 131.274 190C130.208 190.387 129.674 191.38 129.674 192.98V197H127.754V188.04H129.674ZM137.35 188.04V189.46C137.95 188.407 139.017 187.88 140.55 187.88V189.92C139.963 189.8 139.43 189.827 138.95 190C137.883 190.387 137.35 191.38 137.35 192.98V197H135.43V188.04H137.35ZM141.821 192.52C141.821 191.24 142.275 190.147 143.181 189.24C144.088 188.333 145.181 187.88 146.461 187.88C147.741 187.88 148.835 188.333 149.741 189.24C150.648 190.147 151.101 191.24 151.101 192.52C151.101 193.8 150.648 194.893 149.741 195.8C148.835 196.707 147.741 197.16 146.461 197.16C145.181 197.16 144.088 196.707 143.181 195.8C142.275 194.893 141.821 193.8 141.821 192.52ZM144.561 194.54C145.095 195.113 145.728 195.4 146.461 195.4C147.208 195.4 147.848 195.113 148.381 194.54C148.915 193.993 149.181 193.32 149.181 192.52C149.181 191.733 148.915 191.053 148.381 190.48C147.848 189.92 147.208 189.64 146.461 189.64C145.741 189.64 145.108 189.92 144.561 190.48C144.015 191.067 143.741 191.747 143.741 192.52C143.741 193.293 144.015 193.967 144.561 194.54ZM164.371 195.4C165.211 195.4 165.878 195.133 166.371 194.6L167.411 196.04C166.545 196.787 165.531 197.16 164.371 197.16C163.091 197.16 161.998 196.707 161.091 195.8C160.185 194.893 159.731 193.8 159.731 192.52C159.731 191.24 160.185 190.147 161.091 189.24C161.998 188.333 163.091 187.88 164.371 187.88C165.531 187.88 166.545 188.253 167.411 189L166.371 190.44C165.878 189.907 165.211 189.64 164.371 189.64C163.651 189.64 163.018 189.92 162.471 190.48C161.925 191.067 161.651 191.747 161.651 192.52C161.651 193.293 161.925 193.967 162.471 194.54C163.005 195.113 163.638 195.4 164.371 195.4ZM177.028 192.8V197H175.108V195.84C174.362 196.72 173.435 197.16 172.328 197.16C171.368 197.16 170.582 196.873 169.968 196.3C169.342 195.74 169.028 195.02 169.028 194.14C169.028 193.3 169.335 192.613 169.948 192.08C170.575 191.547 171.328 191.26 172.208 191.22C173.102 191.18 174.048 191.36 175.048 191.76C174.968 190.347 174.295 189.64 173.028 189.64C172.268 189.64 171.575 189.833 170.948 190.22L170.148 188.84C170.988 188.2 171.975 187.88 173.108 187.88C175.722 187.88 177.028 189.52 177.028 192.8ZM175.108 193.34C174.655 193.073 174.095 192.92 173.428 192.88C172.762 192.84 172.175 192.94 171.668 193.18C171.175 193.407 170.935 193.747 170.948 194.2C170.948 194.547 171.088 194.833 171.368 195.06C171.662 195.287 172.042 195.4 172.508 195.4C173.122 195.4 173.688 195.2 174.208 194.8C174.728 194.4 175.028 193.913 175.108 193.34ZM179.746 197V182.28H181.666V197H179.746ZM184.707 197V182.28H186.627V197H184.707ZM193.512 195.4C194.299 195.4 195.039 195.053 195.732 194.36L196.832 195.76C195.939 196.693 194.832 197.16 193.512 197.16C192.232 197.16 191.139 196.707 190.232 195.8C189.325 194.893 188.872 193.8 188.872 192.52C188.872 191.24 189.325 190.147 190.232 189.24C191.139 188.333 192.232 187.88 193.512 187.88C194.512 187.88 195.365 188.167 196.072 188.74C196.779 189.3 197.259 190.067 197.512 191.04L191.572 194.48C191.759 194.747 192.032 194.967 192.392 195.14C192.765 195.313 193.139 195.4 193.512 195.4ZM193.512 189.64C192.792 189.64 192.159 189.933 191.612 190.52C191.065 191.107 190.792 191.773 190.792 192.52C190.792 192.547 190.805 192.72 190.832 193.04L195.272 190.48C194.845 189.92 194.259 189.64 193.512 189.64ZM201.834 185C201.834 185.4 201.694 185.74 201.414 186.02C201.134 186.3 200.794 186.44 200.394 186.44C199.994 186.44 199.654 186.3 199.374 186.02C199.094 185.74 198.954 185.4 198.954 185C198.954 184.6 199.094 184.26 199.374 183.98C199.654 183.7 199.994 183.56 200.394 183.56C200.794 183.56 201.134 183.7 201.414 183.98C201.694 184.26 201.834 184.6 201.834 185ZM201.354 201.48L199.434 202.12V188.04H201.354V201.48ZM208.239 195.4C209.025 195.4 209.765 195.053 210.459 194.36L211.559 195.76C210.665 196.693 209.559 197.16 208.239 197.16C206.959 197.16 205.865 196.707 204.959 195.8C204.052 194.893 203.599 193.8 203.599 192.52C203.599 191.24 204.052 190.147 204.959 189.24C205.865 188.333 206.959 187.88 208.239 187.88C209.239 187.88 210.092 188.167 210.799 188.74C211.505 189.3 211.985 190.067 212.239 191.04L206.299 194.48C206.485 194.747 206.759 194.967 207.119 195.14C207.492 195.313 207.865 195.4 208.239 195.4ZM208.239 189.64C207.519 189.64 206.885 189.933 206.339 190.52C205.792 191.107 205.519 191.773 205.519 192.52C205.519 192.547 205.532 192.72 205.559 193.04L209.999 190.48C209.572 189.92 208.985 189.64 208.239 189.64ZM216.081 188.04V189.46C216.681 188.407 217.747 187.88 219.281 187.88V189.92C218.694 189.8 218.161 189.827 217.681 190C216.614 190.387 216.081 191.38 216.081 192.98V197H214.161V188.04H216.081ZM220.552 192.52C220.552 191.24 221.005 190.147 221.912 189.24C222.818 188.333 223.912 187.88 225.192 187.88C226.472 187.88 227.565 188.333 228.472 189.24C229.378 190.147 229.832 191.24 229.832 192.52C229.832 193.8 229.378 194.893 228.472 195.8C227.565 196.707 226.472 197.16 225.192 197.16C223.912 197.16 222.818 196.707 221.912 195.8C221.005 194.893 220.552 193.8 220.552 192.52ZM223.292 194.54C223.825 195.113 224.458 195.4 225.192 195.4C225.938 195.4 226.578 195.113 227.112 194.54C227.645 193.993 227.912 193.32 227.912 192.52C227.912 191.733 227.645 191.053 227.112 190.48C226.578 189.92 225.938 189.64 225.192 189.64C224.472 189.64 223.838 189.92 223.292 190.48C222.745 191.067 222.472 191.747 222.472 192.52C222.472 193.293 222.745 193.967 223.292 194.54ZM233.503 197.16C233.103 197.16 232.763 197.02 232.483 196.74C232.203 196.46 232.063 196.12 232.063 195.72C232.063 195.307 232.203 194.967 232.483 194.7C232.763 194.42 233.103 194.28 233.503 194.28C233.917 194.28 234.257 194.42 234.523 194.7C234.803 194.967 234.943 195.307 234.943 195.72C234.943 196.12 234.803 196.46 234.523 196.74C234.257 197.02 233.917 197.16 233.503 197.16Z" fill="white"/>
</svg>
