<svg width="309" height="86" viewBox="0 0 309 86" fill="none" xmlns="http://www.w3.org/2000/svg">
<rect width="309" height="86" rx="8" fill="#E91D24"/>
<path d="M34.6003 17.628C33.611 16.648 33.1163 15.4627 33.1163 14.072C33.1163 12.6813 33.611 11.4913 34.6003 10.502C35.5803 9.522 36.7657 9.032 38.1563 9.032C38.6977 9.032 39.239 9.12533 39.7803 9.312C40.331 9.48933 40.7977 9.732 41.1803 10.04L40.4523 11.048C39.827 10.5253 39.0663 10.264 38.1703 10.264C37.1437 10.264 36.271 10.6373 35.5523 11.384C34.8243 12.1307 34.4603 13.0267 34.4603 14.072C34.4603 15.1173 34.8243 16.0133 35.5523 16.76C36.271 17.5067 37.1437 17.88 38.1703 17.88C39.0663 17.88 39.827 17.6187 40.4523 17.096L41.1803 18.104C40.7977 18.412 40.331 18.6593 39.7803 18.846C39.239 19.0233 38.6977 19.112 38.1563 19.112C36.7657 19.112 35.5803 18.6173 34.6003 17.628ZM42.1945 15.864C42.1945 14.968 42.5118 14.2027 43.1465 13.568C43.7811 12.9333 44.5465 12.616 45.4425 12.616C46.3385 12.616 47.1038 12.9333 47.7385 13.568C48.3731 14.2027 48.6905 14.968 48.6905 15.864C48.6905 16.76 48.3731 17.5253 47.7385 18.16C47.1038 18.7947 46.3385 19.112 45.4425 19.112C44.5465 19.112 43.7811 18.7947 43.1465 18.16C42.5118 17.5253 42.1945 16.76 42.1945 15.864ZM44.1125 17.278C44.4858 17.6793 44.9291 17.88 45.4425 17.88C45.9651 17.88 46.4131 17.6793 46.7865 17.278C47.1598 16.8953 47.3465 16.424 47.3465 15.864C47.3465 15.3133 47.1598 14.8373 46.7865 14.436C46.4131 14.044 45.9651 13.848 45.4425 13.848C44.9385 13.848 44.4951 14.044 44.1125 14.436C43.7298 14.8467 43.5385 15.3227 43.5385 15.864C43.5385 16.4053 43.7298 16.8767 44.1125 17.278ZM53.3657 12.616C54.1684 12.616 54.7844 12.882 55.2137 13.414C55.643 13.946 55.8577 14.7067 55.8577 15.696V19H54.5137V15.696C54.5137 15.0707 54.4017 14.6087 54.1777 14.31C53.963 14.002 53.6084 13.848 53.1137 13.848C52.6844 13.848 52.325 14.03 52.0357 14.394C51.7464 14.7487 51.6017 15.2013 51.6017 15.752V19H50.2577V12.728H51.6017V13.512C51.7324 13.2693 51.9564 13.0593 52.2737 12.882C52.591 12.7047 52.955 12.616 53.3657 12.616ZM65.3761 17.88C65.9267 17.88 66.4447 17.6373 66.9301 17.152L67.7001 18.132C67.0747 18.7853 66.3001 19.112 65.3761 19.112C64.4801 19.112 63.7147 18.7947 63.0801 18.16C62.4454 17.5253 62.1281 16.76 62.1281 15.864C62.1281 14.968 62.4454 14.2027 63.0801 13.568C63.7147 12.9333 64.4801 12.616 65.3761 12.616C66.0761 12.616 66.6734 12.8167 67.1681 13.218C67.6627 13.61 67.9987 14.1467 68.1761 14.828L64.0181 17.236C64.1487 17.4227 64.3401 17.5767 64.5921 17.698C64.8534 17.8193 65.1147 17.88 65.3761 17.88ZM65.3761 13.848C64.8721 13.848 64.4287 14.0533 64.0461 14.464C63.6634 14.8747 63.4721 15.3413 63.4721 15.864C63.4721 15.8827 63.4814 16.004 63.5001 16.228L66.6081 14.436C66.3094 14.044 65.8987 13.848 65.3761 13.848ZM71.9941 15.08C73.3288 15.388 73.9961 16.0693 73.9961 17.124C73.9961 17.712 73.7768 18.188 73.3381 18.552C72.8995 18.9253 72.3768 19.112 71.7701 19.112C70.8275 19.112 70.0015 18.7573 69.2921 18.048L69.9641 17.068C70.5055 17.5907 71.0795 17.8613 71.6861 17.88C71.9755 17.8893 72.2088 17.824 72.3861 17.684C72.5635 17.544 72.6521 17.3807 72.6521 17.194C72.6521 16.8393 72.3628 16.5827 71.7841 16.424C70.9721 16.2 70.4075 15.9433 70.0901 15.654C69.7821 15.3647 69.6281 14.954 69.6281 14.422C69.6281 13.918 69.8195 13.4933 70.2021 13.148C70.5941 12.7933 71.1121 12.616 71.7561 12.616C72.4188 12.616 73.0208 12.8307 73.5621 13.26L72.9321 14.24C72.5868 13.9787 72.1948 13.848 71.7561 13.848C71.5135 13.848 71.3221 13.8993 71.1821 14.002C71.0421 14.1047 70.9721 14.2307 70.9721 14.38C70.9721 14.5573 71.0421 14.6973 71.1821 14.8C71.3315 14.8933 71.6021 14.9867 71.9941 15.08ZM77.7991 19H76.4551V13.96H75.3351V12.728H76.4551V10.264L77.7991 9.816V12.728H79.5911V13.96H77.7991V19ZM86.0894 16.06V19H84.7454V18.188C84.2227 18.804 83.574 19.112 82.7994 19.112C82.1274 19.112 81.5767 18.9113 81.1474 18.51C80.7087 18.118 80.4894 17.614 80.4894 16.998C80.4894 16.41 80.704 15.9293 81.1334 15.556C81.572 15.1827 82.0994 14.982 82.7154 14.954C83.3407 14.926 84.0034 15.052 84.7034 15.332C84.6474 14.3427 84.176 13.848 83.2894 13.848C82.7574 13.848 82.272 13.9833 81.8334 14.254L81.2734 13.288C81.8614 12.84 82.552 12.616 83.3454 12.616C85.1747 12.616 86.0894 13.764 86.0894 16.06ZM84.7454 16.438C84.428 16.2513 84.036 16.144 83.5694 16.116C83.1027 16.088 82.692 16.158 82.3374 16.326C81.992 16.4847 81.824 16.7227 81.8334 17.04C81.8334 17.2827 81.9314 17.4833 82.1274 17.642C82.3327 17.8007 82.5987 17.88 82.9254 17.88C83.3547 17.88 83.7514 17.74 84.1154 17.46C84.4794 17.18 84.6894 16.8393 84.7454 16.438ZM94.4846 10.6C94.4846 10.88 94.3866 11.118 94.1906 11.314C93.9946 11.51 93.7566 11.608 93.4766 11.608C93.1966 11.608 92.9586 11.51 92.7626 11.314C92.5666 11.118 92.4686 10.88 92.4686 10.6C92.4686 10.32 92.5666 10.082 92.7626 9.886C92.9586 9.69 93.1966 9.592 93.4766 9.592C93.7566 9.592 93.9946 9.69 94.1906 9.886C94.3866 10.082 94.4846 10.32 94.4846 10.6ZM94.1486 19H92.8046V12.728H94.1486V19ZM99.3852 12.616C100.188 12.616 100.804 12.882 101.233 13.414C101.663 13.946 101.877 14.7067 101.877 15.696V19H100.533V15.696C100.533 15.0707 100.421 14.6087 100.197 14.31C99.9826 14.002 99.6279 13.848 99.1332 13.848C98.7039 13.848 98.3446 14.03 98.0552 14.394C97.7659 14.7487 97.6212 15.2013 97.6212 15.752V19H96.2772V12.728H97.6212V13.512C97.7519 13.2693 97.9759 13.0593 98.2932 12.882C98.6106 12.7047 98.9746 12.616 99.3852 12.616ZM106.146 15.08C107.481 15.388 108.148 16.0693 108.148 17.124C108.148 17.712 107.929 18.188 107.49 18.552C107.052 18.9253 106.529 19.112 105.922 19.112C104.98 19.112 104.154 18.7573 103.444 18.048L104.116 17.068C104.658 17.5907 105.232 17.8613 105.838 17.88C106.128 17.8893 106.361 17.824 106.538 17.684C106.716 17.544 106.804 17.3807 106.804 17.194C106.804 16.8393 106.515 16.5827 105.936 16.424C105.124 16.2 104.56 15.9433 104.242 15.654C103.934 15.3647 103.78 14.954 103.78 14.422C103.78 13.918 103.972 13.4933 104.354 13.148C104.746 12.7933 105.264 12.616 105.908 12.616C106.571 12.616 107.173 12.8307 107.714 13.26L107.084 14.24C106.739 13.9787 106.347 13.848 105.908 13.848C105.666 13.848 105.474 13.8993 105.334 14.002C105.194 14.1047 105.124 14.2307 105.124 14.38C105.124 14.5573 105.194 14.6973 105.334 14.8C105.484 14.8933 105.754 14.9867 106.146 15.08ZM111.17 18.216V22.36H109.826V12.728H111.17V13.512C111.683 12.9147 112.355 12.616 113.186 12.616C114.054 12.616 114.796 12.9333 115.412 13.568C116.019 14.2027 116.322 14.968 116.322 15.864C116.322 16.76 116.019 17.5253 115.412 18.16C114.796 18.7947 114.054 19.112 113.186 19.112C112.355 19.112 111.683 18.8133 111.17 18.216ZM114.432 14.436C114.049 14.044 113.597 13.848 113.074 13.848C112.542 13.848 112.094 14.044 111.73 14.436C111.357 14.8187 111.17 15.2947 111.17 15.864C111.17 16.4333 111.357 16.9093 111.73 17.292C112.094 17.684 112.542 17.88 113.074 17.88C113.597 17.88 114.049 17.684 114.432 17.292C114.796 16.9 114.978 16.424 114.978 15.864C114.978 15.304 114.796 14.828 114.432 14.436ZM119.682 10.6C119.682 10.88 119.584 11.118 119.388 11.314C119.192 11.51 118.954 11.608 118.674 11.608C118.394 11.608 118.156 11.51 117.96 11.314C117.764 11.118 117.666 10.88 117.666 10.6C117.666 10.32 117.764 10.082 117.96 9.886C118.156 9.69 118.394 9.592 118.674 9.592C118.954 9.592 119.192 9.69 119.388 9.886C119.584 10.082 119.682 10.32 119.682 10.6ZM119.346 19H118.002V12.728H119.346V19ZM122.818 12.728V13.722C123.238 12.9847 123.985 12.616 125.058 12.616V14.044C124.648 13.96 124.274 13.9787 123.938 14.1C123.192 14.3707 122.818 15.066 122.818 16.186V19H121.474V12.728H122.818ZM131.548 16.06V19H130.204V18.188C129.682 18.804 129.033 19.112 128.258 19.112C127.586 19.112 127.036 18.9113 126.606 18.51C126.168 18.118 125.948 17.614 125.948 16.998C125.948 16.41 126.163 15.9293 126.592 15.556C127.031 15.1827 127.558 14.982 128.174 14.954C128.8 14.926 129.462 15.052 130.162 15.332C130.106 14.3427 129.635 13.848 128.748 13.848C128.216 13.848 127.731 13.9833 127.292 14.254L126.732 13.288C127.32 12.84 128.011 12.616 128.804 12.616C130.634 12.616 131.548 13.764 131.548 16.06ZM130.204 16.438C129.887 16.2513 129.495 16.144 129.028 16.116C128.562 16.088 128.151 16.158 127.796 16.326C127.451 16.4847 127.283 16.7227 127.292 17.04C127.292 17.2827 127.39 17.4833 127.586 17.642C127.792 17.8007 128.058 17.88 128.384 17.88C128.814 17.88 129.21 17.74 129.574 17.46C129.938 17.18 130.148 16.8393 130.204 16.438ZM138.264 13.512V8.696H139.608V19H138.264V18.216C137.751 18.8133 137.079 19.112 136.248 19.112C135.38 19.112 134.643 18.7947 134.036 18.16C133.42 17.5253 133.112 16.76 133.112 15.864C133.112 14.968 133.42 14.2027 134.036 13.568C134.643 12.9333 135.38 12.616 136.248 12.616C137.079 12.616 137.751 12.9147 138.264 13.512ZM135.016 17.292C135.38 17.684 135.828 17.88 136.36 17.88C136.883 17.88 137.336 17.684 137.718 17.292C138.082 16.9 138.264 16.424 138.264 15.864C138.264 15.304 138.082 14.828 137.718 14.436C137.336 14.044 136.883 13.848 136.36 13.848C135.828 13.848 135.38 14.044 135.016 14.436C134.643 14.8187 134.456 15.2947 134.456 15.864C134.456 16.4333 134.643 16.9093 135.016 17.292ZM141.179 15.864C141.179 14.968 141.496 14.2027 142.131 13.568C142.766 12.9333 143.531 12.616 144.427 12.616C145.323 12.616 146.088 12.9333 146.723 13.568C147.358 14.2027 147.675 14.968 147.675 15.864C147.675 16.76 147.358 17.5253 146.723 18.16C146.088 18.7947 145.323 19.112 144.427 19.112C143.531 19.112 142.766 18.7947 142.131 18.16C141.496 17.5253 141.179 16.76 141.179 15.864ZM143.097 17.278C143.47 17.6793 143.914 17.88 144.427 17.88C144.95 17.88 145.398 17.6793 145.771 17.278C146.144 16.8953 146.331 16.424 146.331 15.864C146.331 15.3133 146.144 14.8373 145.771 14.436C145.398 14.044 144.95 13.848 144.427 13.848C143.923 13.848 143.48 14.044 143.097 14.436C142.714 14.8467 142.523 15.3227 142.523 15.864C142.523 16.4053 142.714 16.8767 143.097 17.278ZM150.586 12.728V13.722C151.006 12.9847 151.753 12.616 152.826 12.616V14.044C152.415 13.96 152.042 13.9787 151.706 14.1C150.959 14.3707 150.586 15.066 150.586 16.186V19H149.242V12.728H150.586ZM159.316 16.06V19H157.972V18.188C157.449 18.804 156.801 19.112 156.026 19.112C155.354 19.112 154.803 18.9113 154.374 18.51C153.935 18.118 153.716 17.614 153.716 16.998C153.716 16.41 153.931 15.9293 154.36 15.556C154.799 15.1827 155.326 14.982 155.942 14.954C156.567 14.926 157.23 15.052 157.93 15.332C157.874 14.3427 157.403 13.848 156.516 13.848C155.984 13.848 155.499 13.9833 155.06 14.254L154.5 13.288C155.088 12.84 155.779 12.616 156.572 12.616C158.401 12.616 159.316 13.764 159.316 16.06ZM157.972 16.438C157.655 16.2513 157.263 16.144 156.796 16.116C156.329 16.088 155.919 16.158 155.564 16.326C155.219 16.4847 155.051 16.7227 155.06 17.04C155.06 17.2827 155.158 17.4833 155.354 17.642C155.559 17.8007 155.825 17.88 156.152 17.88C156.581 17.88 156.978 17.74 157.342 17.46C157.706 17.18 157.916 16.8393 157.972 16.438ZM169.139 12.616C169.942 12.616 170.558 12.882 170.987 13.414C171.416 13.946 171.631 14.7067 171.631 15.696V19H170.287V15.696C170.287 15.0707 170.175 14.6087 169.951 14.31C169.736 14.002 169.382 13.848 168.887 13.848C168.458 13.848 168.098 14.03 167.809 14.394C167.52 14.7487 167.375 15.2013 167.375 15.752V19H166.031V8.696H167.375V13.512C167.506 13.2693 167.73 13.0593 168.047 12.882C168.364 12.7047 168.728 12.616 169.139 12.616ZM175.217 10.6C175.217 10.88 175.119 11.118 174.923 11.314C174.727 11.51 174.489 11.608 174.209 11.608C173.929 11.608 173.691 11.51 173.495 11.314C173.299 11.118 173.201 10.88 173.201 10.6C173.201 10.32 173.299 10.082 173.495 9.886C173.691 9.69 173.929 9.592 174.209 9.592C174.489 9.592 174.727 9.69 174.923 9.886C175.119 10.082 175.217 10.32 175.217 10.6ZM174.881 19H173.537V12.728H174.881V19ZM179.264 15.08C180.598 15.388 181.266 16.0693 181.266 17.124C181.266 17.712 181.046 18.188 180.608 18.552C180.169 18.9253 179.646 19.112 179.04 19.112C178.097 19.112 177.271 18.7573 176.562 18.048L177.234 17.068C177.775 17.5907 178.349 17.8613 178.956 17.88C179.245 17.8893 179.478 17.824 179.656 17.684C179.833 17.544 179.922 17.3807 179.922 17.194C179.922 16.8393 179.632 16.5827 179.054 16.424C178.242 16.2 177.677 15.9433 177.36 15.654C177.052 15.3647 176.898 14.954 176.898 14.422C176.898 13.918 177.089 13.4933 177.472 13.148C177.864 12.7933 178.382 12.616 179.026 12.616C179.688 12.616 180.29 12.8307 180.832 13.26L180.202 14.24C179.856 13.9787 179.464 13.848 179.026 13.848C178.783 13.848 178.592 13.8993 178.452 14.002C178.312 14.1047 178.242 14.2307 178.242 14.38C178.242 14.5573 178.312 14.6973 178.452 14.8C178.601 14.8933 178.872 14.9867 179.264 15.08ZM185.069 19H183.725V13.96H182.605V12.728H183.725V10.264L185.069 9.816V12.728H186.861V13.96H185.069V19ZM187.759 15.864C187.759 14.968 188.076 14.2027 188.711 13.568C189.346 12.9333 190.111 12.616 191.007 12.616C191.903 12.616 192.668 12.9333 193.303 13.568C193.938 14.2027 194.255 14.968 194.255 15.864C194.255 16.76 193.938 17.5253 193.303 18.16C192.668 18.7947 191.903 19.112 191.007 19.112C190.111 19.112 189.346 18.7947 188.711 18.16C188.076 17.5253 187.759 16.76 187.759 15.864ZM189.677 17.278C190.05 17.6793 190.494 17.88 191.007 17.88C191.53 17.88 191.978 17.6793 192.351 17.278C192.724 16.8953 192.911 16.424 192.911 15.864C192.911 15.3133 192.724 14.8373 192.351 14.436C191.978 14.044 191.53 13.848 191.007 13.848C190.503 13.848 190.06 14.044 189.677 14.436C189.294 14.8467 189.103 15.3227 189.103 15.864C189.103 16.4053 189.294 16.8767 189.677 17.278ZM197.166 12.728V13.722C197.586 12.9847 198.333 12.616 199.406 12.616V14.044C198.995 13.96 198.622 13.9787 198.286 14.1C197.539 14.3707 197.166 15.066 197.166 16.186V19H195.822V12.728H197.166ZM202.766 10.6C202.766 10.88 202.668 11.118 202.472 11.314C202.276 11.51 202.038 11.608 201.758 11.608C201.478 11.608 201.24 11.51 201.044 11.314C200.848 11.118 200.75 10.88 200.75 10.6C200.75 10.32 200.848 10.082 201.044 9.886C201.24 9.69 201.478 9.592 201.758 9.592C202.038 9.592 202.276 9.69 202.472 9.886C202.668 10.082 202.766 10.32 202.766 10.6ZM202.43 19H201.086V12.728H202.43V19ZM209.71 16.06V19H208.366V18.188C207.844 18.804 207.195 19.112 206.42 19.112C205.748 19.112 205.198 18.9113 204.768 18.51C204.33 18.118 204.11 17.614 204.11 16.998C204.11 16.41 204.325 15.9293 204.754 15.556C205.193 15.1827 205.72 14.982 206.336 14.954C206.962 14.926 207.624 15.052 208.324 15.332C208.268 14.3427 207.797 13.848 206.91 13.848C206.378 13.848 205.893 13.9833 205.454 14.254L204.894 13.288C205.482 12.84 206.173 12.616 206.966 12.616C208.796 12.616 209.71 13.764 209.71 16.06ZM208.366 16.438C208.049 16.2513 207.657 16.144 207.19 16.116C206.724 16.088 206.313 16.158 205.958 16.326C205.613 16.4847 205.445 16.7227 205.454 17.04C205.454 17.2827 205.552 17.4833 205.748 17.642C205.954 17.8007 206.22 17.88 206.546 17.88C206.976 17.88 207.372 17.74 207.736 17.46C208.1 17.18 208.31 16.8393 208.366 16.438ZM212.731 20.568H211.723V17.432H213.291L212.731 20.568ZM222.808 17.88C223.358 17.88 223.876 17.6373 224.362 17.152L225.132 18.132C224.506 18.7853 223.732 19.112 222.808 19.112C221.912 19.112 221.146 18.7947 220.512 18.16C219.877 17.5253 219.56 16.76 219.56 15.864C219.56 14.968 219.877 14.2027 220.512 13.568C221.146 12.9333 221.912 12.616 222.808 12.616C223.508 12.616 224.105 12.8167 224.6 13.218C225.094 13.61 225.43 14.1467 225.608 14.828L221.45 17.236C221.58 17.4227 221.772 17.5767 222.024 17.698C222.285 17.8193 222.546 17.88 222.808 17.88ZM222.808 13.848C222.304 13.848 221.86 14.0533 221.478 14.464C221.095 14.8747 220.904 15.3413 220.904 15.864C220.904 15.8827 220.913 16.004 220.932 16.228L224.04 14.436C223.741 14.044 223.33 13.848 222.808 13.848ZM226.953 19V8.696H228.297V19H226.953ZM238.038 17.88C238.589 17.88 239.107 17.6373 239.592 17.152L240.362 18.132C239.737 18.7853 238.962 19.112 238.038 19.112C237.142 19.112 236.377 18.7947 235.742 18.16C235.107 17.5253 234.79 16.76 234.79 15.864C234.79 14.968 235.107 14.2027 235.742 13.568C236.377 12.9333 237.142 12.616 238.038 12.616C238.738 12.616 239.335 12.8167 239.83 13.218C240.325 13.61 240.661 14.1467 240.838 14.828L236.68 17.236C236.811 17.4227 237.002 17.5767 237.254 17.698C237.515 17.8193 237.777 17.88 238.038 17.88ZM238.038 13.848C237.534 13.848 237.091 14.0533 236.708 14.464C236.325 14.8747 236.134 15.3413 236.134 15.864C236.134 15.8827 236.143 16.004 236.162 16.228L239.27 14.436C238.971 14.044 238.561 13.848 238.038 13.848ZM248.45 22.36H247.106V18.216C246.593 18.8133 245.921 19.112 245.09 19.112C244.222 19.112 243.485 18.7947 242.878 18.16C242.262 17.5253 241.954 16.76 241.954 15.864C241.954 14.968 242.262 14.2027 242.878 13.568C243.485 12.9333 244.222 12.616 245.09 12.616C245.921 12.616 246.593 12.9147 247.106 13.512V12.728H248.45V22.36ZM246.56 14.436C246.178 14.044 245.725 13.848 245.202 13.848C244.67 13.848 244.222 14.044 243.858 14.436C243.485 14.8187 243.298 15.2947 243.298 15.864C243.298 16.4333 243.485 16.9093 243.858 17.292C244.222 17.684 244.67 17.88 245.202 17.88C245.725 17.88 246.178 17.684 246.56 17.292C246.924 16.9 247.106 16.424 247.106 15.864C247.106 15.304 246.924 14.828 246.56 14.436ZM252.846 19.112C252.043 19.112 251.427 18.846 250.998 18.314C250.569 17.782 250.354 17.0213 250.354 16.032V12.728H251.698V16.144C251.698 17.3013 252.165 17.88 253.098 17.88C253.527 17.88 253.887 17.6933 254.176 17.32C254.465 16.9467 254.61 16.4613 254.61 15.864V12.728H255.954V19H254.61V18.216C254.479 18.4587 254.255 18.6687 253.938 18.846C253.621 19.0233 253.257 19.112 252.846 19.112ZM259.764 10.6C259.764 10.88 259.666 11.118 259.47 11.314C259.274 11.51 259.036 11.608 258.756 11.608C258.476 11.608 258.238 11.51 258.042 11.314C257.846 11.118 257.748 10.88 257.748 10.6C257.748 10.32 257.846 10.082 258.042 9.886C258.238 9.69 258.476 9.592 258.756 9.592C259.036 9.592 259.274 9.69 259.47 9.886C259.666 10.082 259.764 10.32 259.764 10.6ZM259.428 19H258.084V12.728H259.428V19ZM262.901 18.216V22.36H261.557V12.728H262.901V13.512C263.414 12.9147 264.086 12.616 264.917 12.616C265.785 12.616 266.527 12.9333 267.143 13.568C267.749 14.2027 268.053 14.968 268.053 15.864C268.053 16.76 267.749 17.5253 267.143 18.16C266.527 18.7947 265.785 19.112 264.917 19.112C264.086 19.112 263.414 18.8133 262.901 18.216ZM266.163 14.436C265.78 14.044 265.327 13.848 264.805 13.848C264.273 13.848 263.825 14.044 263.461 14.436C263.087 14.8187 262.901 15.2947 262.901 15.864C262.901 16.4333 263.087 16.9093 263.461 17.292C263.825 17.684 264.273 17.88 264.805 17.88C265.327 17.88 265.78 17.684 266.163 17.292C266.527 16.9 266.709 16.424 266.709 15.864C266.709 15.304 266.527 14.828 266.163 14.436ZM269.394 15.864C269.394 14.968 269.711 14.2027 270.346 13.568C270.98 12.9333 271.746 12.616 272.642 12.616C273.538 12.616 274.303 12.9333 274.938 13.568C275.572 14.2027 275.89 14.968 275.89 15.864C275.89 16.76 275.572 17.5253 274.938 18.16C274.303 18.7947 273.538 19.112 272.642 19.112C271.746 19.112 270.98 18.7947 270.346 18.16C269.711 17.5253 269.394 16.76 269.394 15.864ZM271.312 17.278C271.685 17.6793 272.128 17.88 272.642 17.88C273.164 17.88 273.612 17.6793 273.986 17.278C274.359 16.8953 274.546 16.424 274.546 15.864C274.546 15.3133 274.359 14.8373 273.986 14.436C273.612 14.044 273.164 13.848 272.642 13.848C272.138 13.848 271.694 14.044 271.312 14.436C270.929 14.8467 270.738 15.3227 270.738 15.864C270.738 16.4053 270.929 16.8767 271.312 17.278ZM48.0333 35.88C48.6213 35.88 49.0879 35.6933 49.4333 35.32L50.1613 36.328C49.5546 36.8507 48.8453 37.112 48.0333 37.112C47.1373 37.112 46.3719 36.7947 45.7373 36.16C45.1026 35.5253 44.7853 34.76 44.7853 33.864C44.7853 32.968 45.1026 32.2027 45.7373 31.568C46.3719 30.9333 47.1373 30.616 48.0333 30.616C48.8453 30.616 49.5546 30.8773 50.1613 31.4L49.4333 32.408C49.0879 32.0347 48.6213 31.848 48.0333 31.848C47.5293 31.848 47.0859 32.044 46.7033 32.436C46.3206 32.8467 46.1293 33.3227 46.1293 33.864C46.1293 34.4053 46.3206 34.8767 46.7033 35.278C47.0766 35.6793 47.5199 35.88 48.0333 35.88ZM51.2931 33.864C51.2931 32.968 51.6104 32.2027 52.2451 31.568C52.8798 30.9333 53.6451 30.616 54.5411 30.616C55.4371 30.616 56.2024 30.9333 56.8371 31.568C57.4718 32.2027 57.7891 32.968 57.7891 33.864C57.7891 34.76 57.4718 35.5253 56.8371 36.16C56.2024 36.7947 55.4371 37.112 54.5411 37.112C53.6451 37.112 52.8798 36.7947 52.2451 36.16C51.6104 35.5253 51.2931 34.76 51.2931 33.864ZM53.2111 35.278C53.5844 35.6793 54.0278 35.88 54.5411 35.88C55.0638 35.88 55.5118 35.6793 55.8851 35.278C56.2584 34.8953 56.4451 34.424 56.4451 33.864C56.4451 33.3133 56.2584 32.8373 55.8851 32.436C55.5118 32.044 55.0638 31.848 54.5411 31.848C54.0371 31.848 53.5938 32.044 53.2111 32.436C52.8284 32.8467 52.6371 33.3227 52.6371 33.864C52.6371 34.4053 52.8284 34.8767 53.2111 35.278ZM66.3843 30.616C67.1403 30.616 67.7237 30.8867 68.1343 31.428C68.5543 31.96 68.7643 32.716 68.7643 33.696V37H67.4203V33.696C67.4203 32.464 66.991 31.848 66.1323 31.848C65.7217 31.848 65.3857 32.0253 65.1243 32.38C64.863 32.7253 64.7323 33.1827 64.7323 33.752V37H63.3883V33.696C63.3883 32.464 62.959 31.848 62.1003 31.848C61.6897 31.848 61.3537 32.0253 61.0923 32.38C60.831 32.7253 60.7003 33.1827 60.7003 33.752V37H59.3563V30.728H60.7003V31.512C60.8497 31.3067 60.9803 31.1527 61.0923 31.05C61.2043 30.9473 61.3677 30.8493 61.5823 30.756C61.797 30.6627 62.0537 30.616 62.3523 30.616C63.239 30.616 63.883 30.9707 64.2843 31.68C64.5923 31.288 64.9003 31.0127 65.2083 30.854C65.5257 30.6953 65.9177 30.616 66.3843 30.616ZM73.586 35.88C74.1367 35.88 74.6547 35.6373 75.14 35.152L75.91 36.132C75.2847 36.7853 74.51 37.112 73.586 37.112C72.69 37.112 71.9247 36.7947 71.29 36.16C70.6553 35.5253 70.338 34.76 70.338 33.864C70.338 32.968 70.6553 32.2027 71.29 31.568C71.9247 30.9333 72.69 30.616 73.586 30.616C74.286 30.616 74.8833 30.8167 75.378 31.218C75.8727 31.61 76.2087 32.1467 76.386 32.828L72.228 35.236C72.3587 35.4227 72.55 35.5767 72.802 35.698C73.0633 35.8193 73.3247 35.88 73.586 35.88ZM73.586 31.848C73.082 31.848 72.6387 32.0533 72.256 32.464C71.8733 32.8747 71.682 33.3413 71.682 33.864C71.682 33.8827 71.6913 34.004 71.71 34.228L74.818 32.436C74.5193 32.044 74.1087 31.848 73.586 31.848ZM80.8393 30.616C81.642 30.616 82.258 30.882 82.6873 31.414C83.1167 31.946 83.3313 32.7067 83.3313 33.696V37H81.9873V33.696C81.9873 33.0707 81.8753 32.6087 81.6513 32.31C81.4367 32.002 81.082 31.848 80.5873 31.848C80.158 31.848 79.7987 32.03 79.5093 32.394C79.22 32.7487 79.0753 33.2013 79.0753 33.752V37H77.7313V30.728H79.0753V31.512C79.206 31.2693 79.43 31.0593 79.7473 30.882C80.0647 30.7047 80.4287 30.616 80.8393 30.616ZM89.8266 35.768V37H84.8986L87.8106 31.96H85.1226V30.728H90.0506L87.1106 35.768H89.8266ZM94.8647 29.832H93.9687L94.8647 27.592H96.2087L94.8647 29.832ZM91.3927 33.864C91.3927 32.968 91.71 32.2027 92.3447 31.568C92.9794 30.9333 93.7447 30.616 94.6407 30.616C95.5367 30.616 96.302 30.9333 96.9367 31.568C97.5714 32.2027 97.8887 32.968 97.8887 33.864C97.8887 34.76 97.5714 35.5253 96.9367 36.16C96.302 36.7947 95.5367 37.112 94.6407 37.112C93.7447 37.112 92.9794 36.7947 92.3447 36.16C91.71 35.5253 91.3927 34.76 91.3927 33.864ZM93.3107 35.278C93.684 35.6793 94.1274 35.88 94.6407 35.88C95.1634 35.88 95.6114 35.6793 95.9847 35.278C96.358 34.8953 96.5447 34.424 96.5447 33.864C96.5447 33.3133 96.358 32.8373 95.9847 32.436C95.6114 32.044 95.1634 31.848 94.6407 31.848C94.1367 31.848 93.6934 32.044 93.3107 32.436C92.928 32.8467 92.7367 33.3227 92.7367 33.864C92.7367 34.4053 92.928 34.8767 93.3107 35.278ZM106.646 37.112C105.843 37.112 105.227 36.846 104.798 36.314C104.368 35.782 104.154 35.0213 104.154 34.032V30.728H105.498V34.144C105.498 35.3013 105.964 35.88 106.898 35.88C107.327 35.88 107.686 35.6933 107.976 35.32C108.265 34.9467 108.41 34.4613 108.41 33.864V30.728H109.754V37H108.41V36.216C108.279 36.4587 108.055 36.6687 107.738 36.846C107.42 37.0233 107.056 37.112 106.646 37.112ZM114.992 30.616C115.794 30.616 116.41 30.882 116.84 31.414C117.269 31.946 117.484 32.7067 117.484 33.696V37H116.14V33.696C116.14 33.0707 116.028 32.6087 115.804 32.31C115.589 32.002 115.234 31.848 114.74 31.848C114.31 31.848 113.951 32.03 113.662 32.394C113.372 32.7487 113.228 33.2013 113.228 33.752V37H111.884V30.728H113.228V31.512C113.358 31.2693 113.582 31.0593 113.9 30.882C114.217 30.7047 114.581 30.616 114.992 30.616ZM124.651 34.06V37H123.307V36.188C122.784 36.804 122.136 37.112 121.361 37.112C120.689 37.112 120.138 36.9113 119.709 36.51C119.27 36.118 119.051 35.614 119.051 34.998C119.051 34.41 119.266 33.9293 119.695 33.556C120.134 33.1827 120.661 32.982 121.277 32.954C121.902 32.926 122.565 33.052 123.265 33.332C123.209 32.3427 122.738 31.848 121.851 31.848C121.319 31.848 120.834 31.9833 120.395 32.254L119.835 31.288C120.423 30.84 121.114 30.616 121.907 30.616C123.736 30.616 124.651 31.764 124.651 34.06ZM123.307 34.438C122.99 34.2513 122.598 34.144 122.131 34.116C121.664 34.088 121.254 34.158 120.899 34.326C120.554 34.4847 120.386 34.7227 120.395 35.04C120.395 35.2827 120.493 35.4833 120.689 35.642C120.894 35.8007 121.16 35.88 121.487 35.88C121.916 35.88 122.313 35.74 122.677 35.46C123.041 35.18 123.251 34.8393 123.307 34.438ZM130.918 33.864C130.918 32.968 131.235 32.2027 131.87 31.568C132.505 30.9333 133.27 30.616 134.166 30.616C135.062 30.616 135.827 30.9333 136.462 31.568C137.097 32.2027 137.414 32.968 137.414 33.864C137.414 34.76 137.097 35.5253 136.462 36.16C135.827 36.7947 135.062 37.112 134.166 37.112C133.27 37.112 132.505 36.7947 131.87 36.16C131.235 35.5253 130.918 34.76 130.918 33.864ZM132.836 35.278C133.209 35.6793 133.653 35.88 134.166 35.88C134.689 35.88 135.137 35.6793 135.51 35.278C135.883 34.8953 136.07 34.424 136.07 33.864C136.07 33.3133 135.883 32.8373 135.51 32.436C135.137 32.044 134.689 31.848 134.166 31.848C133.662 31.848 133.219 32.044 132.836 32.436C132.453 32.8467 132.262 33.3227 132.262 33.864C132.262 34.4053 132.453 34.8767 132.836 35.278ZM140.325 30.728V31.722C140.745 30.9847 141.492 30.616 142.565 30.616V32.044C142.155 31.96 141.781 31.9787 141.445 32.1C140.699 32.3707 140.325 33.066 140.325 34.186V37H138.981V30.728H140.325ZM148.607 31.512V30.728H149.951V36.636C149.951 37.9427 149.629 38.9133 148.985 39.548C148.341 40.164 147.506 40.472 146.479 40.472C146.059 40.472 145.611 40.3927 145.135 40.234C144.687 40.0847 144.351 39.898 144.127 39.674L144.729 38.582C145.224 39.0207 145.807 39.24 146.479 39.24C147.161 39.24 147.683 39.03 148.047 38.61C148.421 38.19 148.607 37.5973 148.607 36.832V36.216C148.094 36.8133 147.422 37.112 146.591 37.112C145.723 37.112 144.986 36.7947 144.379 36.16C143.763 35.5253 143.455 34.76 143.455 33.864C143.455 32.968 143.763 32.2027 144.379 31.568C144.986 30.9333 145.723 30.616 146.591 30.616C147.422 30.616 148.094 30.9147 148.607 31.512ZM145.359 35.292C145.723 35.684 146.171 35.88 146.703 35.88C147.226 35.88 147.679 35.684 148.061 35.292C148.425 34.9 148.607 34.424 148.607 33.864C148.607 33.304 148.425 32.828 148.061 32.436C147.679 32.044 147.226 31.848 146.703 31.848C146.171 31.848 145.723 32.044 145.359 32.436C144.986 32.8187 144.799 33.2947 144.799 33.864C144.799 34.4333 144.986 34.9093 145.359 35.292ZM157.122 34.06V37H155.778V36.188C155.255 36.804 154.606 37.112 153.832 37.112C153.16 37.112 152.609 36.9113 152.18 36.51C151.741 36.118 151.522 35.614 151.522 34.998C151.522 34.41 151.736 33.9293 152.166 33.556C152.604 33.1827 153.132 32.982 153.748 32.954C154.373 32.926 155.036 33.052 155.736 33.332C155.68 32.3427 155.208 31.848 154.322 31.848C153.79 31.848 153.304 31.9833 152.866 32.254L152.306 31.288C152.894 30.84 153.584 30.616 154.378 30.616C156.207 30.616 157.122 31.764 157.122 34.06ZM155.778 34.438C155.46 34.2513 155.068 34.144 154.602 34.116C154.135 34.088 153.724 34.158 153.37 34.326C153.024 34.4847 152.856 34.7227 152.866 35.04C152.866 35.2827 152.964 35.4833 153.16 35.642C153.365 35.8007 153.631 35.88 153.958 35.88C154.387 35.88 154.784 35.74 155.148 35.46C155.512 35.18 155.722 34.8393 155.778 34.438ZM162.132 30.616C162.935 30.616 163.551 30.882 163.98 31.414C164.41 31.946 164.624 32.7067 164.624 33.696V37H163.28V33.696C163.28 33.0707 163.168 32.6087 162.944 32.31C162.73 32.002 162.375 31.848 161.88 31.848C161.451 31.848 161.092 32.03 160.802 32.394C160.513 32.7487 160.368 33.2013 160.368 33.752V37H159.024V30.728H160.368V31.512C160.499 31.2693 160.723 31.0593 161.04 30.882C161.358 30.7047 161.722 30.616 162.132 30.616ZM168.21 28.6C168.21 28.88 168.112 29.118 167.916 29.314C167.72 29.51 167.482 29.608 167.202 29.608C166.922 29.608 166.684 29.51 166.488 29.314C166.292 29.118 166.194 28.88 166.194 28.6C166.194 28.32 166.292 28.082 166.488 27.886C166.684 27.69 166.922 27.592 167.202 27.592C167.482 27.592 167.72 27.69 167.916 27.886C168.112 28.082 168.21 28.32 168.21 28.6ZM167.874 37H166.53V30.728H167.874V37ZM174.483 35.768V37H169.555L172.467 31.96H169.779V30.728H174.707L171.767 35.768H174.483ZM181.649 34.06V37H180.305V36.188C179.782 36.804 179.134 37.112 178.359 37.112C177.687 37.112 177.136 36.9113 176.707 36.51C176.268 36.118 176.049 35.614 176.049 34.998C176.049 34.41 176.264 33.9293 176.693 33.556C177.132 33.1827 177.659 32.982 178.275 32.954C178.9 32.926 179.563 33.052 180.263 33.332C180.207 32.3427 179.736 31.848 178.849 31.848C178.317 31.848 177.832 31.9833 177.393 32.254L176.833 31.288C177.421 30.84 178.112 30.616 178.905 30.616C180.734 30.616 181.649 31.764 181.649 34.06ZM180.305 34.438C179.988 34.2513 179.596 34.144 179.129 34.116C178.662 34.088 178.252 34.158 177.897 34.326C177.552 34.4847 177.384 34.7227 177.393 35.04C177.393 35.2827 177.491 35.4833 177.687 35.642C177.892 35.8007 178.158 35.88 178.485 35.88C178.914 35.88 179.311 35.74 179.675 35.46C180.039 35.18 180.249 34.8393 180.305 34.438ZM186.461 35.88C187.049 35.88 187.516 35.6933 187.861 35.32L188.589 36.328C187.982 36.8507 187.273 37.112 186.461 37.112C185.565 37.112 184.8 36.7947 184.165 36.16C183.53 35.5253 183.213 34.76 183.213 33.864C183.213 32.968 183.53 32.2027 184.165 31.568C184.8 30.9333 185.565 30.616 186.461 30.616C187.273 30.616 187.982 30.8773 188.589 31.4L187.861 32.408C187.516 32.0347 187.049 31.848 186.461 31.848C185.957 31.848 185.514 32.044 185.131 32.436C184.748 32.8467 184.557 33.3227 184.557 33.864C184.557 34.4053 184.748 34.8767 185.131 35.278C185.504 35.6793 185.948 35.88 186.461 35.88ZM191.958 28.6C191.958 28.88 191.86 29.118 191.664 29.314C191.468 29.51 191.23 29.608 190.95 29.608C190.67 29.608 190.432 29.51 190.236 29.314C190.04 29.118 189.942 28.88 189.942 28.6C189.942 28.32 190.04 28.082 190.236 27.886C190.432 27.69 190.67 27.592 190.95 27.592C191.23 27.592 191.468 27.69 191.664 27.886C191.86 28.082 191.958 28.32 191.958 28.6ZM191.622 37H190.278V30.728H191.622V37ZM196.665 29.832H195.769L196.665 27.592H198.009L196.665 29.832ZM193.193 33.864C193.193 32.968 193.511 32.2027 194.145 31.568C194.78 30.9333 195.545 30.616 196.441 30.616C197.337 30.616 198.103 30.9333 198.737 31.568C199.372 32.2027 199.689 32.968 199.689 33.864C199.689 34.76 199.372 35.5253 198.737 36.16C198.103 36.7947 197.337 37.112 196.441 37.112C195.545 37.112 194.78 36.7947 194.145 36.16C193.511 35.5253 193.193 34.76 193.193 33.864ZM195.111 35.278C195.485 35.6793 195.928 35.88 196.441 35.88C196.964 35.88 197.412 35.6793 197.785 35.278C198.159 34.8953 198.345 34.424 198.345 33.864C198.345 33.3133 198.159 32.8373 197.785 32.436C197.412 32.044 196.964 31.848 196.441 31.848C195.937 31.848 195.494 32.044 195.111 32.436C194.729 32.8467 194.537 33.3227 194.537 33.864C194.537 34.4053 194.729 34.8767 195.111 35.278ZM204.365 30.616C205.167 30.616 205.783 30.882 206.213 31.414C206.642 31.946 206.857 32.7067 206.857 33.696V37H205.513V33.696C205.513 33.0707 205.401 32.6087 205.177 32.31C204.962 32.002 204.607 31.848 204.113 31.848C203.683 31.848 203.324 32.03 203.035 32.394C202.745 32.7487 202.601 33.2013 202.601 33.752V37H201.257V30.728H202.601V31.512C202.731 31.2693 202.955 31.0593 203.273 30.882C203.59 30.7047 203.954 30.616 204.365 30.616ZM213.575 26.696H214.919V31.512C215.432 30.9147 216.104 30.616 216.935 30.616C217.803 30.616 218.545 30.9333 219.161 31.568C219.768 32.2027 220.071 32.968 220.071 33.864C220.071 34.76 219.768 35.5253 219.161 36.16C218.545 36.7947 217.803 37.112 216.935 37.112C216.104 37.112 215.432 36.8133 214.919 36.216V37H213.575V26.696ZM215.479 35.292C215.843 35.684 216.291 35.88 216.823 35.88C217.346 35.88 217.798 35.684 218.181 35.292C218.545 34.9 218.727 34.424 218.727 33.864C218.727 33.304 218.545 32.828 218.181 32.436C217.798 32.044 217.346 31.848 216.823 31.848C216.291 31.848 215.843 32.044 215.479 32.436C215.106 32.8187 214.919 33.2947 214.919 33.864C214.919 34.4333 215.106 34.9093 215.479 35.292ZM224.66 35.88C225.211 35.88 225.729 35.6373 226.214 35.152L226.984 36.132C226.359 36.7853 225.584 37.112 224.66 37.112C223.764 37.112 222.999 36.7947 222.364 36.16C221.73 35.5253 221.412 34.76 221.412 33.864C221.412 32.968 221.73 32.2027 222.364 31.568C222.999 30.9333 223.764 30.616 224.66 30.616C225.36 30.616 225.958 30.8167 226.452 31.218C226.947 31.61 227.283 32.1467 227.46 32.828L223.302 35.236C223.433 35.4227 223.624 35.5767 223.876 35.698C224.138 35.8193 224.399 35.88 224.66 35.88ZM224.66 31.848C224.156 31.848 223.713 32.0533 223.33 32.464C222.948 32.8747 222.756 33.3413 222.756 33.864C222.756 33.8827 222.766 34.004 222.784 34.228L225.892 32.436C225.594 32.044 225.183 31.848 224.66 31.848ZM231.914 30.616C232.716 30.616 233.332 30.882 233.762 31.414C234.191 31.946 234.406 32.7067 234.406 33.696V37H233.062V33.696C233.062 33.0707 232.95 32.6087 232.726 32.31C232.511 32.002 232.156 31.848 231.662 31.848C231.232 31.848 230.873 32.03 230.584 32.394C230.294 32.7487 230.15 33.2013 230.15 33.752V37H228.806V30.728H230.15V31.512C230.28 31.2693 230.504 31.0593 230.822 30.882C231.139 30.7047 231.503 30.616 231.914 30.616ZM239.221 29.832H238.325L239.221 27.592H240.565L239.221 29.832ZM239.221 35.88C239.771 35.88 240.289 35.6373 240.775 35.152L241.545 36.132C240.919 36.7853 240.145 37.112 239.221 37.112C238.325 37.112 237.559 36.7947 236.925 36.16C236.29 35.5253 235.973 34.76 235.973 33.864C235.973 32.968 236.29 32.2027 236.925 31.568C237.559 30.9333 238.325 30.616 239.221 30.616C239.921 30.616 240.518 30.8167 241.013 31.218C241.507 31.61 241.843 32.1467 242.021 32.828L237.863 35.236C237.993 35.4227 238.185 35.5767 238.437 35.698C238.698 35.8193 238.959 35.88 239.221 35.88ZM239.221 31.848C238.717 31.848 238.273 32.0533 237.891 32.464C237.508 32.8747 237.317 33.3413 237.317 33.864C237.317 33.8827 237.326 34.004 237.345 34.228L240.453 32.436C240.154 32.044 239.743 31.848 239.221 31.848ZM242.918 31.96V30.728H243.814V29.02C243.814 28.236 243.991 27.634 244.346 27.214C244.71 26.794 245.205 26.584 245.83 26.584C246.297 26.584 246.745 26.7333 247.174 27.032L246.558 28.04C246.371 27.8907 246.161 27.816 245.928 27.816C245.415 27.816 245.158 28.2173 245.158 29.02V30.728H247.174V31.96H245.158V37H243.814V31.96H242.918ZM250.652 28.6C250.652 28.88 250.554 29.118 250.358 29.314C250.162 29.51 249.924 29.608 249.644 29.608C249.364 29.608 249.126 29.51 248.93 29.314C248.734 29.118 248.636 28.88 248.636 28.6C248.636 28.32 248.734 28.082 248.93 27.886C249.126 27.69 249.364 27.592 249.644 27.592C249.924 27.592 250.162 27.69 250.358 27.886C250.554 28.082 250.652 28.32 250.652 28.6ZM250.316 37H248.972V30.728H250.316V37ZM255.135 35.88C255.723 35.88 256.19 35.6933 256.535 35.32L257.263 36.328C256.656 36.8507 255.947 37.112 255.135 37.112C254.239 37.112 253.474 36.7947 252.839 36.16C252.204 35.5253 251.887 34.76 251.887 33.864C251.887 32.968 252.204 32.2027 252.839 31.568C253.474 30.9333 254.239 30.616 255.135 30.616C255.947 30.616 256.656 30.8773 257.263 31.4L256.535 32.408C256.19 32.0347 255.723 31.848 255.135 31.848C254.631 31.848 254.188 32.044 253.805 32.436C253.422 32.8467 253.231 33.3227 253.231 33.864C253.231 34.4053 253.422 34.8767 253.805 35.278C254.178 35.6793 254.622 35.88 255.135 35.88ZM263.995 34.06V37H262.651V36.188C262.128 36.804 261.479 37.112 260.705 37.112C260.033 37.112 259.482 36.9113 259.053 36.51C258.614 36.118 258.395 35.614 258.395 34.998C258.395 34.41 258.609 33.9293 259.039 33.556C259.477 33.1827 260.005 32.982 260.621 32.954C261.246 32.926 261.909 33.052 262.609 33.332C262.553 32.3427 262.081 31.848 261.195 31.848C260.663 31.848 260.177 31.9833 259.739 32.254L259.179 31.288C259.767 30.84 260.457 30.616 261.251 30.616C263.08 30.616 263.995 31.764 263.995 34.06ZM262.651 34.438C262.333 34.2513 261.941 34.144 261.475 34.116C261.008 34.088 260.597 34.158 260.243 34.326C259.897 34.4847 259.729 34.7227 259.739 35.04C259.739 35.2827 259.837 35.4833 260.033 35.642C260.238 35.8007 260.504 35.88 260.831 35.88C261.26 35.88 261.657 35.74 262.021 35.46C262.385 35.18 262.595 34.8393 262.651 34.438ZM23.5223 55V44.696H24.8663V55H23.5223ZM26.995 55V44.696H28.339V55H26.995ZM35.6197 52.06V55H34.2757V54.188C33.753 54.804 33.1043 55.112 32.3297 55.112C31.6577 55.112 31.107 54.9113 30.6777 54.51C30.239 54.118 30.0197 53.614 30.0197 52.998C30.0197 52.41 30.2343 51.9293 30.6637 51.556C31.1023 51.1827 31.6297 50.982 32.2457 50.954C32.871 50.926 33.5337 51.052 34.2337 51.332C34.1777 50.3427 33.7063 49.848 32.8197 49.848C32.2877 49.848 31.8023 49.9833 31.3637 50.254L30.8037 49.288C31.3917 48.84 32.0823 48.616 32.8757 48.616C34.705 48.616 35.6197 49.764 35.6197 52.06ZM34.2757 52.438C33.9583 52.2513 33.5663 52.144 33.0997 52.116C32.633 52.088 32.2223 52.158 31.8677 52.326C31.5223 52.4847 31.3543 52.7227 31.3637 53.04C31.3637 53.2827 31.4617 53.4833 31.6577 53.642C31.863 53.8007 32.129 53.88 32.4557 53.88C32.885 53.88 33.2817 53.74 33.6457 53.46C34.0097 53.18 34.2197 52.8393 34.2757 52.438ZM44.5503 48.616C45.3063 48.616 45.8897 48.8867 46.3003 49.428C46.7203 49.96 46.9303 50.716 46.9303 51.696V55H45.5863V51.696C45.5863 50.464 45.157 49.848 44.2983 49.848C43.8877 49.848 43.5517 50.0253 43.2903 50.38C43.029 50.7253 42.8983 51.1827 42.8983 51.752V55H41.5543V51.696C41.5543 50.464 41.125 49.848 40.2663 49.848C39.8557 49.848 39.5197 50.0253 39.2583 50.38C38.997 50.7253 38.8663 51.1827 38.8663 51.752V55H37.5223V48.728H38.8663V49.512C39.0157 49.3067 39.1463 49.1527 39.2583 49.05C39.3703 48.9473 39.5337 48.8493 39.7483 48.756C39.963 48.6627 40.2197 48.616 40.5183 48.616C41.405 48.616 42.049 48.9707 42.4503 49.68C42.7583 49.288 43.0663 49.0127 43.3743 48.854C43.6917 48.6953 44.0837 48.616 44.5503 48.616ZM54.104 52.06V55H52.76V54.188C52.2374 54.804 51.5887 55.112 50.814 55.112C50.142 55.112 49.5914 54.9113 49.162 54.51C48.7234 54.118 48.504 53.614 48.504 52.998C48.504 52.41 48.7187 51.9293 49.148 51.556C49.5867 51.1827 50.114 50.982 50.73 50.954C51.3554 50.926 52.018 51.052 52.718 51.332C52.662 50.3427 52.1907 49.848 51.304 49.848C50.772 49.848 50.2867 49.9833 49.848 50.254L49.288 49.288C49.876 48.84 50.5667 48.616 51.36 48.616C53.1894 48.616 54.104 49.764 54.104 52.06ZM52.76 52.438C52.4427 52.2513 52.0507 52.144 51.584 52.116C51.1174 52.088 50.7067 52.158 50.352 52.326C50.0067 52.4847 49.8387 52.7227 49.848 53.04C49.848 53.2827 49.946 53.4833 50.142 53.642C50.3474 53.8007 50.6134 53.88 50.94 53.88C51.3694 53.88 51.766 53.74 52.13 53.46C52.494 53.18 52.704 52.8393 52.76 52.438ZM60.8201 49.512V44.696H62.1641V55H60.8201V54.216C60.3068 54.8133 59.6348 55.112 58.8041 55.112C57.9361 55.112 57.1988 54.7947 56.5921 54.16C55.9761 53.5253 55.6681 52.76 55.6681 51.864C55.6681 50.968 55.9761 50.2027 56.5921 49.568C57.1988 48.9333 57.9361 48.616 58.8041 48.616C59.6348 48.616 60.3068 48.9147 60.8201 49.512ZM57.5721 53.292C57.9361 53.684 58.3841 53.88 58.9161 53.88C59.4388 53.88 59.8914 53.684 60.2741 53.292C60.6381 52.9 60.8201 52.424 60.8201 51.864C60.8201 51.304 60.6381 50.828 60.2741 50.436C59.8914 50.044 59.4388 49.848 58.9161 49.848C58.3841 49.848 57.9361 50.044 57.5721 50.436C57.1988 50.8187 57.0121 51.2947 57.0121 51.864C57.0121 52.4333 57.1988 52.9093 57.5721 53.292ZM69.4439 52.06V55H68.0999V54.188C67.5772 54.804 66.9285 55.112 66.1539 55.112C65.4819 55.112 64.9312 54.9113 64.5019 54.51C64.0632 54.118 63.8439 53.614 63.8439 52.998C63.8439 52.41 64.0585 51.9293 64.4879 51.556C64.9265 51.1827 65.4539 50.982 66.0699 50.954C66.6952 50.926 67.3579 51.052 68.0579 51.332C68.0019 50.3427 67.5305 49.848 66.6439 49.848C66.1119 49.848 65.6265 49.9833 65.1879 50.254L64.6279 49.288C65.2159 48.84 65.9065 48.616 66.6999 48.616C68.5292 48.616 69.4439 49.764 69.4439 52.06ZM68.0999 52.438C67.7825 52.2513 67.3905 52.144 66.9239 52.116C66.4572 52.088 66.0465 52.158 65.6919 52.326C65.3465 52.4847 65.1785 52.7227 65.1879 53.04C65.1879 53.2827 65.2859 53.4833 65.4819 53.642C65.6872 53.8007 65.9532 53.88 66.2799 53.88C66.7092 53.88 67.1059 53.74 67.4699 53.46C67.8339 53.18 68.0439 52.8393 68.0999 52.438ZM81.9831 55L81.5211 53.88H77.9651L77.5031 55H75.0391L79.7431 44.92L84.4471 55H81.9831ZM78.7771 51.864H80.7091L79.7431 49.512L78.7771 51.864ZM87.5813 49.526C88.0433 48.56 88.7853 48.14 90.0453 48.056V50.52C89.6253 50.394 89.2193 50.408 88.8133 50.52C88.1693 50.702 87.5813 51.43 87.5813 52.522V55H85.3413V48.28H87.5813V49.526ZM92.1657 55V50.296H91.0457V48.28H92.1657V46.264L94.4057 45.592V48.28H96.1977V50.296H94.4057V55H92.1657ZM101.569 48.056C102.983 48.056 104.257 49.092 104.257 51.192V55H102.017V51.416C102.017 50.296 101.387 50.072 100.897 50.072C100.435 50.072 99.7766 50.492 99.7766 51.64V55H97.5366V44.696H99.7766V48.952C100.113 48.434 100.757 48.056 101.569 48.056ZM108.176 55.224C106.762 55.224 105.488 54.188 105.488 52.088V48.28H107.728V51.864C107.728 52.984 108.358 53.208 108.848 53.208C109.31 53.208 109.968 52.788 109.968 51.64V48.28H112.208V55H109.968V54.328C109.632 54.846 108.988 55.224 108.176 55.224ZM116.128 49.526C116.59 48.56 117.332 48.14 118.592 48.056V50.52C118.172 50.394 117.766 50.408 117.36 50.52C116.716 50.702 116.128 51.43 116.128 52.522V55H113.888V48.28H116.128V49.526ZM121.723 48.728H119.707V45.144H121.723V48.728ZM126.122 50.562C127.704 50.828 128.894 51.5 128.894 52.872C128.894 54.174 127.872 55.224 125.786 55.224C124.246 55.224 123.182 54.524 122.846 54.188L123.742 52.508C124.414 53.054 125.044 53.25 125.464 53.292C126.262 53.376 126.654 53.236 126.654 52.97C126.654 52.648 126.276 52.606 125.632 52.48C123.406 52.046 123.182 51.01 123.182 50.24C123.182 49.106 124.148 48.056 126.024 48.056C126.024 48.056 127.298 48.056 128.348 48.756L127.494 50.422C127.186 50.184 126.738 49.96 126.178 49.918C125.702 49.876 125.422 49.988 125.422 50.17C125.422 50.394 125.562 50.464 126.122 50.562ZM134.492 55V45.144H140.092V47.16H136.732V49.624H139.196V51.64H136.732V55H134.492ZM144.578 48.056C146.706 48.056 148.386 49.652 148.386 51.64C148.386 53.628 146.734 55.224 144.578 55.224C142.324 55.224 140.77 53.628 140.77 51.64C140.77 49.652 142.296 48.056 144.578 48.056ZM144.578 53.208C145.446 53.208 146.146 52.508 146.146 51.64C146.146 50.772 145.446 50.072 144.578 50.072C143.71 50.072 143.01 50.772 143.01 51.64C143.01 52.508 143.71 53.208 144.578 53.208ZM151.981 55.224C150.567 55.224 149.293 54.188 149.293 52.088V48.28H151.533V51.864C151.533 52.984 152.163 53.208 152.653 53.208C153.115 53.208 153.773 52.788 153.773 51.64V48.28H156.013V55H153.773V54.328C153.437 54.846 152.793 55.224 151.981 55.224ZM161.725 48.056C163.139 48.056 164.413 49.092 164.413 51.192V55H162.173V51.416C162.173 50.296 161.543 50.072 161.053 50.072C160.591 50.072 159.933 50.492 159.933 51.64V55H157.693V48.28H159.933V48.952C160.269 48.434 160.913 48.056 161.725 48.056ZM170.906 44.696H173.146V55H170.906V54.328C170.402 54.93 169.674 55.224 168.904 55.224C166.986 55.224 165.53 53.628 165.53 51.64C165.53 49.652 166.986 48.056 168.904 48.056C169.674 48.056 170.402 48.35 170.906 48.952V44.696ZM169.338 53.208C170.206 53.208 170.906 52.508 170.906 51.64C170.906 50.772 170.206 50.072 169.338 50.072C168.47 50.072 167.77 50.772 167.77 51.64C167.77 52.508 168.47 53.208 169.338 53.208ZM180.872 55H178.632V54.44C178.212 54.916 177.596 55.224 176.812 55.224C175.244 55.224 174.376 54.132 174.376 52.886C174.376 51.052 176.63 50.338 178.604 50.94C178.576 50.352 178.184 49.904 177.4 49.904C176.868 49.904 176.224 50.114 175.832 50.338L175.16 48.728C175.678 48.392 176.644 48.056 177.736 48.056C179.374 48.056 180.872 48.98 180.872 51.5V55ZM178.632 52.34C177.582 52.018 176.616 52.172 176.616 52.928C176.616 53.362 176.98 53.656 177.414 53.656C177.918 53.656 178.534 53.236 178.632 52.34ZM183.002 55V50.296H181.882V48.28H183.002V46.264L185.242 45.592V48.28H187.034V50.296H185.242V55H183.002ZM189.493 47.384C188.751 47.384 188.149 46.782 188.149 46.04C188.149 45.298 188.751 44.696 189.493 44.696C190.235 44.696 190.837 45.298 190.837 46.04C190.837 46.782 190.235 47.384 189.493 47.384ZM188.373 55V48.28H190.613V55H188.373ZM195.547 48.056C197.675 48.056 199.355 49.652 199.355 51.64C199.355 53.628 197.703 55.224 195.547 55.224C193.293 55.224 191.739 53.628 191.739 51.64C191.739 49.652 193.265 48.056 195.547 48.056ZM195.547 53.208C196.415 53.208 197.115 52.508 197.115 51.64C197.115 50.772 196.415 50.072 195.547 50.072C194.679 50.072 193.979 50.772 193.979 51.64C193.979 52.508 194.679 53.208 195.547 53.208ZM204.518 48.056C205.932 48.056 207.206 49.092 207.206 51.192V55H204.966V51.416C204.966 50.296 204.336 50.072 203.846 50.072C203.384 50.072 202.726 50.492 202.726 51.64V55H200.486V48.28H202.726V48.952C203.062 48.434 203.706 48.056 204.518 48.056ZM215.042 54.216V58.36H213.698V48.728H215.042V49.512C215.555 48.9147 216.227 48.616 217.058 48.616C217.926 48.616 218.668 48.9333 219.284 49.568C219.891 50.2027 220.194 50.968 220.194 51.864C220.194 52.76 219.891 53.5253 219.284 54.16C218.668 54.7947 217.926 55.112 217.058 55.112C216.227 55.112 215.555 54.8133 215.042 54.216ZM218.304 50.436C217.921 50.044 217.469 49.848 216.946 49.848C216.414 49.848 215.966 50.044 215.602 50.436C215.229 50.8187 215.042 51.2947 215.042 51.864C215.042 52.4333 215.229 52.9093 215.602 53.292C215.966 53.684 216.414 53.88 216.946 53.88C217.469 53.88 217.921 53.684 218.304 53.292C218.668 52.9 218.85 52.424 218.85 51.864C218.85 51.304 218.668 50.828 218.304 50.436ZM227.135 52.06V55H225.791V54.188C225.269 54.804 224.62 55.112 223.845 55.112C223.173 55.112 222.623 54.9113 222.193 54.51C221.755 54.118 221.535 53.614 221.535 52.998C221.535 52.41 221.75 51.9293 222.179 51.556C222.618 51.1827 223.145 50.982 223.761 50.954C224.387 50.926 225.049 51.052 225.749 51.332C225.693 50.3427 225.222 49.848 224.335 49.848C223.803 49.848 223.318 49.9833 222.879 50.254L222.319 49.288C222.907 48.84 223.598 48.616 224.391 48.616C226.221 48.616 227.135 49.764 227.135 52.06ZM225.791 52.438C225.474 52.2513 225.082 52.144 224.615 52.116C224.149 52.088 223.738 52.158 223.383 52.326C223.038 52.4847 222.87 52.7227 222.879 53.04C222.879 53.2827 222.977 53.4833 223.173 53.642C223.379 53.8007 223.645 53.88 223.971 53.88C224.401 53.88 224.797 53.74 225.161 53.46C225.525 53.18 225.735 52.8393 225.791 52.438ZM230.382 48.728V49.722C230.802 48.9847 231.549 48.616 232.622 48.616V50.044C232.211 49.96 231.838 49.9787 231.502 50.1C230.755 50.3707 230.382 51.066 230.382 52.186V55H229.038V48.728H230.382ZM239.112 52.06V55H237.768V54.188C237.245 54.804 236.597 55.112 235.822 55.112C235.15 55.112 234.599 54.9113 234.17 54.51C233.731 54.118 233.512 53.614 233.512 52.998C233.512 52.41 233.727 51.9293 234.156 51.556C234.595 51.1827 235.122 50.982 235.738 50.954C236.363 50.926 237.026 51.052 237.726 51.332C237.67 50.3427 237.199 49.848 236.312 49.848C235.78 49.848 235.295 49.9833 234.856 50.254L234.296 49.288C234.884 48.84 235.575 48.616 236.368 48.616C238.197 48.616 239.112 49.764 239.112 52.06ZM237.768 52.438C237.451 52.2513 237.059 52.144 236.592 52.116C236.125 52.088 235.715 52.158 235.36 52.326C235.015 52.4847 234.847 52.7227 234.856 53.04C234.856 53.2827 234.954 53.4833 235.15 53.642C235.355 53.8007 235.621 53.88 235.948 53.88C236.377 53.88 236.774 53.74 237.138 53.46C237.502 53.18 237.712 52.8393 237.768 52.438ZM250.979 52.06V55H249.635V54.188C249.112 54.804 248.464 55.112 247.689 55.112C247.017 55.112 246.466 54.9113 246.037 54.51C245.598 54.118 245.379 53.614 245.379 52.998C245.379 52.41 245.594 51.9293 246.023 51.556C246.462 51.1827 246.989 50.982 247.605 50.954C248.23 50.926 248.893 51.052 249.593 51.332C249.537 50.3427 249.066 49.848 248.179 49.848C247.647 49.848 247.162 49.9833 246.723 50.254L246.163 49.288C246.751 48.84 247.442 48.616 248.235 48.616C250.064 48.616 250.979 49.764 250.979 52.06ZM249.635 52.438C249.318 52.2513 248.926 52.144 248.459 52.116C247.992 52.088 247.582 52.158 247.227 52.326C246.882 52.4847 246.714 52.7227 246.723 53.04C246.723 53.2827 246.821 53.4833 247.017 53.642C247.222 53.8007 247.488 53.88 247.815 53.88C248.244 53.88 248.641 53.74 249.005 53.46C249.369 53.18 249.579 52.8393 249.635 52.438ZM255.245 52.97L256.911 48.728H258.367L254.461 58.36H253.033L254.559 54.636L252.095 48.728H253.551L255.245 52.97ZM261.986 55.112C261.183 55.112 260.567 54.846 260.138 54.314C259.708 53.782 259.494 53.0213 259.494 52.032V48.728H260.838V52.144C260.838 53.3013 261.304 53.88 262.238 53.88C262.667 53.88 263.026 53.6933 263.316 53.32C263.605 52.9467 263.75 52.4613 263.75 51.864V48.728H265.094V55H263.75V54.216C263.619 54.4587 263.395 54.6687 263.078 54.846C262.76 55.0233 262.396 55.112 261.986 55.112ZM271.818 49.512V44.696H273.162V55H271.818V54.216C271.305 54.8133 270.633 55.112 269.802 55.112C268.934 55.112 268.197 54.7947 267.59 54.16C266.974 53.5253 266.666 52.76 266.666 51.864C266.666 50.968 266.974 50.2027 267.59 49.568C268.197 48.9333 268.934 48.616 269.802 48.616C270.633 48.616 271.305 48.9147 271.818 49.512ZM268.57 53.292C268.934 53.684 269.382 53.88 269.914 53.88C270.437 53.88 270.889 53.684 271.272 53.292C271.636 52.9 271.818 52.424 271.818 51.864C271.818 51.304 271.636 50.828 271.272 50.436C270.889 50.044 270.437 49.848 269.914 49.848C269.382 49.848 268.934 50.044 268.57 50.436C268.197 50.8187 268.01 51.2947 268.01 51.864C268.01 52.4333 268.197 52.9093 268.57 53.292ZM280.442 52.06V55H279.098V54.188C278.575 54.804 277.927 55.112 277.152 55.112C276.48 55.112 275.929 54.9113 275.5 54.51C275.061 54.118 274.842 53.614 274.842 52.998C274.842 52.41 275.057 51.9293 275.486 51.556C275.925 51.1827 276.452 50.982 277.068 50.954C277.693 50.926 278.356 51.052 279.056 51.332C279 50.3427 278.529 49.848 277.642 49.848C277.11 49.848 276.625 49.9833 276.186 50.254L275.626 49.288C276.214 48.84 276.905 48.616 277.698 48.616C279.527 48.616 280.442 49.764 280.442 52.06ZM279.098 52.438C278.781 52.2513 278.389 52.144 277.922 52.116C277.455 52.088 277.045 52.158 276.69 52.326C276.345 52.4847 276.177 52.7227 276.186 53.04C276.186 53.2827 276.284 53.4833 276.48 53.642C276.685 53.8007 276.951 53.88 277.278 53.88C277.707 53.88 278.104 53.74 278.468 53.46C278.832 53.18 279.042 52.8393 279.098 52.438ZM283.689 48.728V49.722C284.109 48.9847 284.855 48.616 285.929 48.616V50.044C285.518 49.96 285.145 49.9787 284.809 50.1C284.062 50.3707 283.689 51.066 283.689 52.186V55H282.345V48.728H283.689ZM66.19 70.06V73H64.846V72.188C64.3233 72.804 63.6746 73.112 62.9 73.112C62.228 73.112 61.6773 72.9113 61.248 72.51C60.8093 72.118 60.59 71.614 60.59 70.998C60.59 70.41 60.8046 69.9293 61.234 69.556C61.6726 69.1827 62.2 68.982 62.816 68.954C63.4413 68.926 64.104 69.052 64.804 69.332C64.748 68.3427 64.2766 67.848 63.39 67.848C62.858 67.848 62.3726 67.9833 61.934 68.254L61.374 67.288C61.962 66.84 62.6526 66.616 63.446 66.616C65.2753 66.616 66.19 67.764 66.19 70.06ZM64.846 70.438C64.5286 70.2513 64.1366 70.144 63.67 70.116C63.2033 70.088 62.7926 70.158 62.438 70.326C62.0926 70.4847 61.9246 70.7227 61.934 71.04C61.934 71.2827 62.032 71.4833 62.228 71.642C62.4333 71.8007 62.6993 71.88 63.026 71.88C63.4553 71.88 63.852 71.74 64.216 71.46C64.58 71.18 64.79 70.8393 64.846 70.438ZM74.2492 72.216V76.36H72.9052V66.728H74.2492V67.512C74.7625 66.9147 75.4345 66.616 76.2652 66.616C77.1332 66.616 77.8752 66.9333 78.4912 67.568C79.0978 68.2027 79.4012 68.968 79.4012 69.864C79.4012 70.76 79.0978 71.5253 78.4912 72.16C77.8752 72.7947 77.1332 73.112 76.2652 73.112C75.4345 73.112 74.7625 72.8133 74.2492 72.216ZM77.5112 68.436C77.1285 68.044 76.6758 67.848 76.1532 67.848C75.6212 67.848 75.1732 68.044 74.8092 68.436C74.4358 68.8187 74.2492 69.2947 74.2492 69.864C74.2492 70.4333 74.4358 70.9093 74.8092 71.292C75.1732 71.684 75.6212 71.88 76.1532 71.88C76.6758 71.88 77.1285 71.684 77.5112 71.292C77.8752 70.9 78.0572 70.424 78.0572 69.864C78.0572 69.304 77.8752 68.828 77.5112 68.436ZM83.9903 71.88C84.541 71.88 85.059 71.6373 85.5443 71.152L86.3143 72.132C85.689 72.7853 84.9143 73.112 83.9903 73.112C83.0943 73.112 82.329 72.7947 81.6943 72.16C81.0596 71.5253 80.7423 70.76 80.7423 69.864C80.7423 68.968 81.0596 68.2027 81.6943 67.568C82.329 66.9333 83.0943 66.616 83.9903 66.616C84.6903 66.616 85.2876 66.8167 85.7823 67.218C86.277 67.61 86.613 68.1467 86.7903 68.828L82.6323 71.236C82.763 71.4227 82.9543 71.5767 83.2063 71.698C83.4676 71.8193 83.729 71.88 83.9903 71.88ZM83.9903 67.848C83.4863 67.848 83.043 68.0533 82.6603 68.464C82.2776 68.8747 82.0863 69.3413 82.0863 69.864C82.0863 69.8827 82.0956 70.004 82.1143 70.228L85.2223 68.436C84.9236 68.044 84.513 67.848 83.9903 67.848ZM89.4796 66.728V67.722C89.8996 66.9847 90.6463 66.616 91.7196 66.616V68.044C91.309 67.96 90.9356 67.9787 90.5996 68.1C89.853 68.3707 89.4796 69.066 89.4796 70.186V73H88.1356V66.728H89.4796ZM94.8527 66.728V67.722C95.2727 66.9847 96.0193 66.616 97.0927 66.616V68.044C96.682 67.96 96.3087 67.9787 95.9727 68.1C95.226 68.3707 94.8527 69.066 94.8527 70.186V73H93.5087V66.728H94.8527ZM97.9825 69.864C97.9825 68.968 98.2999 68.2027 98.9345 67.568C99.5692 66.9333 100.335 66.616 101.231 66.616C102.127 66.616 102.892 66.9333 103.527 67.568C104.161 68.2027 104.479 68.968 104.479 69.864C104.479 70.76 104.161 71.5253 103.527 72.16C102.892 72.7947 102.127 73.112 101.231 73.112C100.335 73.112 99.5692 72.7947 98.9345 72.16C98.2999 71.5253 97.9825 70.76 97.9825 69.864ZM99.9005 71.278C100.274 71.6793 100.717 71.88 101.231 71.88C101.753 71.88 102.201 71.6793 102.575 71.278C102.948 70.8953 103.135 70.424 103.135 69.864C103.135 69.3133 102.948 68.8373 102.575 68.436C102.201 68.044 101.753 67.848 101.231 67.848C100.727 67.848 100.283 68.044 99.9005 68.436C99.5179 68.8467 99.3265 69.3227 99.3265 69.864C99.3265 70.4053 99.5179 70.8767 99.9005 71.278ZM108.519 69.08C109.853 69.388 110.521 70.0693 110.521 71.124C110.521 71.712 110.301 72.188 109.863 72.552C109.424 72.9253 108.901 73.112 108.295 73.112C107.352 73.112 106.526 72.7573 105.817 72.048L106.489 71.068C107.03 71.5907 107.604 71.8613 108.211 71.88C108.5 71.8893 108.733 71.824 108.911 71.684C109.088 71.544 109.177 71.3807 109.177 71.194C109.177 70.8393 108.887 70.5827 108.309 70.424C107.497 70.2 106.932 69.9433 106.615 69.654C106.307 69.3647 106.153 68.954 106.153 68.422C106.153 67.918 106.344 67.4933 106.727 67.148C107.119 66.7933 107.637 66.616 108.281 66.616C108.943 66.616 109.545 66.8307 110.087 67.26L109.457 68.24C109.111 67.9787 108.719 67.848 108.281 67.848C108.038 67.848 107.847 67.8993 107.707 68.002C107.567 68.1047 107.497 68.2307 107.497 68.38C107.497 68.5573 107.567 68.6973 107.707 68.8C107.856 68.8933 108.127 68.9867 108.519 69.08ZM119.811 71.88C120.399 71.88 120.865 71.6933 121.211 71.32L121.939 72.328C121.332 72.8507 120.623 73.112 119.811 73.112C118.915 73.112 118.149 72.7947 117.515 72.16C116.88 71.5253 116.563 70.76 116.563 69.864C116.563 68.968 116.88 68.2027 117.515 67.568C118.149 66.9333 118.915 66.616 119.811 66.616C120.623 66.616 121.332 66.8773 121.939 67.4L121.211 68.408C120.865 68.0347 120.399 67.848 119.811 67.848C119.307 67.848 118.863 68.044 118.481 68.436C118.098 68.8467 117.907 69.3227 117.907 69.864C117.907 70.4053 118.098 70.8767 118.481 71.278C118.854 71.6793 119.297 71.88 119.811 71.88ZM128.67 70.06V73H127.326V72.188C126.804 72.804 126.155 73.112 125.38 73.112C124.708 73.112 124.158 72.9113 123.728 72.51C123.29 72.118 123.07 71.614 123.07 70.998C123.07 70.41 123.285 69.9293 123.714 69.556C124.153 69.1827 124.68 68.982 125.296 68.954C125.922 68.926 126.584 69.052 127.284 69.332C127.228 68.3427 126.757 67.848 125.87 67.848C125.338 67.848 124.853 67.9833 124.414 68.254L123.854 67.288C124.442 66.84 125.133 66.616 125.926 66.616C127.756 66.616 128.67 67.764 128.67 70.06ZM127.326 70.438C127.009 70.2513 126.617 70.144 126.15 70.116C125.684 70.088 125.273 70.158 124.918 70.326C124.573 70.4847 124.405 70.7227 124.414 71.04C124.414 71.2827 124.512 71.4833 124.708 71.642C124.914 71.8007 125.18 71.88 125.506 71.88C125.936 71.88 126.332 71.74 126.696 71.46C127.06 71.18 127.27 70.8393 127.326 70.438ZM130.573 73V62.696H131.917V73H130.573ZM134.046 73V62.696H135.39V73H134.046ZM140.209 71.88C140.76 71.88 141.278 71.6373 141.763 71.152L142.533 72.132C141.908 72.7853 141.133 73.112 140.209 73.112C139.313 73.112 138.548 72.7947 137.913 72.16C137.278 71.5253 136.961 70.76 136.961 69.864C136.961 68.968 137.278 68.2027 137.913 67.568C138.548 66.9333 139.313 66.616 140.209 66.616C140.909 66.616 141.506 66.8167 142.001 67.218C142.496 67.61 142.832 68.1467 143.009 68.828L138.851 71.236C138.982 71.4227 139.173 71.5767 139.425 71.698C139.686 71.8193 139.948 71.88 140.209 71.88ZM140.209 67.848C139.705 67.848 139.262 68.0533 138.879 68.464C138.496 68.8747 138.305 69.3413 138.305 69.864C138.305 69.8827 138.314 70.004 138.333 70.228L141.441 68.436C141.142 68.044 140.732 67.848 140.209 67.848ZM146.034 64.6C146.034 64.88 145.936 65.118 145.74 65.314C145.544 65.51 145.306 65.608 145.026 65.608C144.746 65.608 144.508 65.51 144.312 65.314C144.116 65.118 144.018 64.88 144.018 64.6C144.018 64.32 144.116 64.082 144.312 63.886C144.508 63.69 144.746 63.592 145.026 63.592C145.306 63.592 145.544 63.69 145.74 63.886C145.936 64.082 146.034 64.32 146.034 64.6ZM145.698 76.136L144.354 76.584V66.728H145.698V76.136ZM150.518 71.88C151.068 71.88 151.586 71.6373 152.072 71.152L152.842 72.132C152.216 72.7853 151.442 73.112 150.518 73.112C149.622 73.112 148.856 72.7947 148.222 72.16C147.587 71.5253 147.27 70.76 147.27 69.864C147.27 68.968 147.587 68.2027 148.222 67.568C148.856 66.9333 149.622 66.616 150.518 66.616C151.218 66.616 151.815 66.8167 152.31 67.218C152.804 67.61 153.14 68.1467 153.318 68.828L149.16 71.236C149.29 71.4227 149.482 71.5767 149.734 71.698C149.995 71.8193 150.256 71.88 150.518 71.88ZM150.518 67.848C150.014 67.848 149.57 68.0533 149.188 68.464C148.805 68.8747 148.614 69.3413 148.614 69.864C148.614 69.8827 148.623 70.004 148.642 70.228L151.75 68.436C151.451 68.044 151.04 67.848 150.518 67.848ZM156.007 66.728V67.722C156.427 66.9847 157.174 66.616 158.247 66.616V68.044C157.836 67.96 157.463 67.9787 157.127 68.1C156.38 68.3707 156.007 69.066 156.007 70.186V73H154.663V66.728H156.007ZM159.137 69.864C159.137 68.968 159.454 68.2027 160.089 67.568C160.724 66.9333 161.489 66.616 162.385 66.616C163.281 66.616 164.046 66.9333 164.681 67.568C165.316 68.2027 165.633 68.968 165.633 69.864C165.633 70.76 165.316 71.5253 164.681 72.16C164.046 72.7947 163.281 73.112 162.385 73.112C161.489 73.112 160.724 72.7947 160.089 72.16C159.454 71.5253 159.137 70.76 159.137 69.864ZM161.055 71.278C161.428 71.6793 161.872 71.88 162.385 71.88C162.908 71.88 163.356 71.6793 163.729 71.278C164.102 70.8953 164.289 70.424 164.289 69.864C164.289 69.3133 164.102 68.8373 163.729 68.436C163.356 68.044 162.908 67.848 162.385 67.848C161.881 67.848 161.438 68.044 161.055 68.436C160.672 68.8467 160.481 69.3227 160.481 69.864C160.481 70.4053 160.672 70.8767 161.055 71.278ZM169.673 69.08C171.007 69.388 171.675 70.0693 171.675 71.124C171.675 71.712 171.455 72.188 171.017 72.552C170.578 72.9253 170.055 73.112 169.449 73.112C168.506 73.112 167.68 72.7573 166.971 72.048L167.643 71.068C168.184 71.5907 168.758 71.8613 169.365 71.88C169.654 71.8893 169.887 71.824 170.065 71.684C170.242 71.544 170.331 71.3807 170.331 71.194C170.331 70.8393 170.041 70.5827 169.463 70.424C168.651 70.2 168.086 69.9433 167.769 69.654C167.461 69.3647 167.307 68.954 167.307 68.422C167.307 67.918 167.498 67.4933 167.881 67.148C168.273 66.7933 168.791 66.616 169.435 66.616C170.097 66.616 170.699 66.8307 171.241 67.26L170.611 68.24C170.265 67.9787 169.873 67.848 169.435 67.848C169.192 67.848 169.001 67.8993 168.861 68.002C168.721 68.1047 168.651 68.2307 168.651 68.38C168.651 68.5573 168.721 68.6973 168.861 68.8C169.01 68.8933 169.281 68.9867 169.673 69.08ZM180.965 71.88C181.516 71.88 182.034 71.6373 182.519 71.152L183.289 72.132C182.664 72.7853 181.889 73.112 180.965 73.112C180.069 73.112 179.304 72.7947 178.669 72.16C178.034 71.5253 177.717 70.76 177.717 69.864C177.717 68.968 178.034 68.2027 178.669 67.568C179.304 66.9333 180.069 66.616 180.965 66.616C181.665 66.616 182.262 66.8167 182.757 67.218C183.252 67.61 183.588 68.1467 183.765 68.828L179.607 71.236C179.738 71.4227 179.929 71.5767 180.181 71.698C180.442 71.8193 180.704 71.88 180.965 71.88ZM180.965 67.848C180.461 67.848 180.018 68.0533 179.635 68.464C179.252 68.8747 179.061 69.3413 179.061 69.864C179.061 69.8827 179.07 70.004 179.089 70.228L182.197 68.436C181.898 68.044 181.488 67.848 180.965 67.848ZM188.218 66.616C189.021 66.616 189.637 66.882 190.066 67.414C190.496 67.946 190.71 68.7067 190.71 69.696V73H189.366V69.696C189.366 69.0707 189.254 68.6087 189.03 68.31C188.816 68.002 188.461 67.848 187.966 67.848C187.537 67.848 187.178 68.03 186.888 68.394C186.599 68.7487 186.454 69.2013 186.454 69.752V73H185.11V66.728H186.454V67.512C186.585 67.2693 186.809 67.0593 187.126 66.882C187.444 66.7047 187.808 66.616 188.218 66.616ZM202.133 63.144V64.376H198.773V67.904H201.237V69.136H198.773V71.768H202.133V73H197.429V63.144H202.133ZM206.955 71.88C207.543 71.88 208.01 71.6933 208.355 71.32L209.083 72.328C208.476 72.8507 207.767 73.112 206.955 73.112C206.059 73.112 205.294 72.7947 204.659 72.16C204.024 71.5253 203.707 70.76 203.707 69.864C203.707 68.968 204.024 68.2027 204.659 67.568C205.294 66.9333 206.059 66.616 206.955 66.616C207.767 66.616 208.476 66.8773 209.083 67.4L208.355 68.408C208.01 68.0347 207.543 67.848 206.955 67.848C206.451 67.848 206.008 68.044 205.625 68.436C205.242 68.8467 205.051 69.3227 205.051 69.864C205.051 70.4053 205.242 70.8767 205.625 71.278C205.998 71.6793 206.442 71.88 206.955 71.88ZM213.04 73.112C212.238 73.112 211.622 72.846 211.192 72.314C210.763 71.782 210.548 71.0213 210.548 70.032V66.728H211.892V70.144C211.892 71.3013 212.359 71.88 213.292 71.88C213.722 71.88 214.081 71.6933 214.37 71.32C214.66 70.9467 214.804 70.4613 214.804 69.864V66.728H216.148V73H214.804V72.216C214.674 72.4587 214.45 72.6687 214.132 72.846C213.815 73.0233 213.451 73.112 213.04 73.112ZM223.321 70.06V73H221.977V72.188C221.454 72.804 220.805 73.112 220.031 73.112C219.359 73.112 218.808 72.9113 218.379 72.51C217.94 72.118 217.721 71.614 217.721 70.998C217.721 70.41 217.935 69.9293 218.365 69.556C218.803 69.1827 219.331 68.982 219.947 68.954C220.572 68.926 221.235 69.052 221.935 69.332C221.879 68.3427 221.407 67.848 220.521 67.848C219.989 67.848 219.503 67.9833 219.065 68.254L218.505 67.288C219.093 66.84 219.783 66.616 220.577 66.616C222.406 66.616 223.321 67.764 223.321 70.06ZM221.977 70.438C221.659 70.2513 221.267 70.144 220.801 70.116C220.334 70.088 219.923 70.158 219.569 70.326C219.223 70.4847 219.055 70.7227 219.065 71.04C219.065 71.2827 219.163 71.4833 219.359 71.642C219.564 71.8007 219.83 71.88 220.157 71.88C220.586 71.88 220.983 71.74 221.347 71.46C221.711 71.18 221.921 70.8393 221.977 70.438ZM230.037 67.512V62.696H231.381V73H230.037V72.216C229.524 72.8133 228.852 73.112 228.021 73.112C227.153 73.112 226.416 72.7947 225.809 72.16C225.193 71.5253 224.885 70.76 224.885 69.864C224.885 68.968 225.193 68.2027 225.809 67.568C226.416 66.9333 227.153 66.616 228.021 66.616C228.852 66.616 229.524 66.9147 230.037 67.512ZM226.789 71.292C227.153 71.684 227.601 71.88 228.133 71.88C228.656 71.88 229.108 71.684 229.491 71.292C229.855 70.9 230.037 70.424 230.037 69.864C230.037 69.304 229.855 68.828 229.491 68.436C229.108 68.044 228.656 67.848 228.133 67.848C227.601 67.848 227.153 68.044 226.789 68.436C226.416 68.8187 226.229 69.2947 226.229 69.864C226.229 70.4333 226.416 70.9093 226.789 71.292ZM232.951 69.864C232.951 68.968 233.269 68.2027 233.903 67.568C234.538 66.9333 235.303 66.616 236.199 66.616C237.095 66.616 237.861 66.9333 238.495 67.568C239.13 68.2027 239.447 68.968 239.447 69.864C239.447 70.76 239.13 71.5253 238.495 72.16C237.861 72.7947 237.095 73.112 236.199 73.112C235.303 73.112 234.538 72.7947 233.903 72.16C233.269 71.5253 232.951 70.76 232.951 69.864ZM234.869 71.278C235.243 71.6793 235.686 71.88 236.199 71.88C236.722 71.88 237.17 71.6793 237.543 71.278C237.917 70.8953 238.103 70.424 238.103 69.864C238.103 69.3133 237.917 68.8373 237.543 68.436C237.17 68.044 236.722 67.848 236.199 67.848C235.695 67.848 235.252 68.044 234.869 68.436C234.487 68.8467 234.295 69.3227 234.295 69.864C234.295 70.4053 234.487 70.8767 234.869 71.278ZM242.359 66.728V67.722C242.779 66.9847 243.525 66.616 244.599 66.616V68.044C244.188 67.96 243.815 67.9787 243.479 68.1C242.732 68.3707 242.359 69.066 242.359 70.186V73H241.015V66.728H242.359ZM247.172 73.112C246.892 73.112 246.654 73.014 246.458 72.818C246.262 72.622 246.164 72.384 246.164 72.104C246.164 71.8147 246.262 71.5767 246.458 71.39C246.654 71.194 246.892 71.096 247.172 71.096C247.461 71.096 247.699 71.194 247.886 71.39C248.082 71.5767 248.18 71.8147 248.18 72.104C248.18 72.384 248.082 72.622 247.886 72.818C247.699 73.014 247.461 73.112 247.172 73.112Z" fill="white"/>
</svg>
