<svg width="236" height="227" viewBox="0 0 236 227" fill="none" xmlns="http://www.w3.org/2000/svg">
<rect width="236" height="227" rx="12" fill="#E91D24"/>
<path d="M28.0082 39.42H30.7482C33.0015 39.42 34.7615 40.08 36.0282 41.4C37.2949 42.7467 37.9282 44.4333 37.9282 46.46C37.9282 48.4867 37.2882 50.1667 36.0082 51.5C34.7282 52.8333 32.9749 53.5 30.7482 53.5H28.0082V39.42ZM29.9282 51.74H31.0482C32.4615 51.74 33.6415 51.2267 34.5882 50.2C35.5349 49.1733 36.0082 47.9267 36.0082 46.46C36.0082 44.9933 35.5349 43.7467 34.5882 42.72C33.6415 41.6933 32.4615 41.18 31.0482 41.18H29.9282V51.74ZM44.4887 51.9C45.2753 51.9 46.0153 51.5533 46.7087 50.86L47.8087 52.26C46.9153 53.1933 45.8087 53.66 44.4887 53.66C43.2087 53.66 42.1153 53.2067 41.2087 52.3C40.302 51.3933 39.8487 50.3 39.8487 49.02C39.8487 47.74 40.302 46.6467 41.2087 45.74C42.1153 44.8333 43.2087 44.38 44.4887 44.38C45.4887 44.38 46.342 44.6667 47.0487 45.24C47.7553 45.8 48.2353 46.5667 48.4887 47.54L42.5487 50.98C42.7353 51.2467 43.0087 51.4667 43.3687 51.64C43.742 51.8133 44.1153 51.9 44.4887 51.9ZM44.4887 46.14C43.7687 46.14 43.1353 46.4333 42.5887 47.02C42.042 47.6067 41.7687 48.2733 41.7687 49.02C41.7687 49.0467 41.782 49.22 41.8087 49.54L46.2487 46.98C45.822 46.42 45.2353 46.14 44.4887 46.14ZM53.943 47.9C55.8497 48.34 56.803 49.3133 56.803 50.82C56.803 51.66 56.4897 52.34 55.863 52.86C55.2364 53.3933 54.4897 53.66 53.623 53.66C52.2764 53.66 51.0964 53.1533 50.083 52.14L51.043 50.74C51.8164 51.4867 52.6364 51.8733 53.503 51.9C53.9164 51.9133 54.2497 51.82 54.503 51.62C54.7564 51.42 54.883 51.1867 54.883 50.92C54.883 50.4133 54.4697 50.0467 53.643 49.82C52.483 49.5 51.6764 49.1333 51.223 48.72C50.783 48.3067 50.563 47.72 50.563 46.96C50.563 46.24 50.8364 45.6333 51.383 45.14C51.943 44.6333 52.683 44.38 53.603 44.38C54.5497 44.38 55.4097 44.6867 56.183 45.3L55.283 46.7C54.7897 46.3267 54.2297 46.14 53.603 46.14C53.2564 46.14 52.983 46.2133 52.783 46.36C52.583 46.5067 52.483 46.6867 52.483 46.9C52.483 47.1533 52.583 47.3533 52.783 47.5C52.9964 47.6333 53.383 47.7667 53.943 47.9ZM65.9196 45.66V38.78H67.8396V53.5H65.9196V52.38C65.1863 53.2333 64.2263 53.66 63.0396 53.66C61.7996 53.66 60.7463 53.2067 59.8796 52.3C58.9996 51.3933 58.5596 50.3 58.5596 49.02C58.5596 47.74 58.9996 46.6467 59.8796 45.74C60.7463 44.8333 61.7996 44.38 63.0396 44.38C64.2263 44.38 65.1863 44.8067 65.9196 45.66ZM61.2796 51.06C61.7996 51.62 62.4396 51.9 63.1996 51.9C63.9463 51.9 64.5929 51.62 65.1396 51.06C65.6596 50.5 65.9196 49.82 65.9196 49.02C65.9196 48.22 65.6596 47.54 65.1396 46.98C64.5929 46.42 63.9463 46.14 63.1996 46.14C62.4396 46.14 61.7996 46.42 61.2796 46.98C60.7463 47.5267 60.4796 48.2067 60.4796 49.02C60.4796 49.8333 60.7463 50.5133 61.2796 51.06ZM74.723 51.9C75.5097 51.9 76.2497 51.5533 76.943 50.86L78.043 52.26C77.1497 53.1933 76.043 53.66 74.723 53.66C73.443 53.66 72.3497 53.2067 71.443 52.3C70.5364 51.3933 70.083 50.3 70.083 49.02C70.083 47.74 70.5364 46.6467 71.443 45.74C72.3497 44.8333 73.443 44.38 74.723 44.38C75.723 44.38 76.5764 44.6667 77.283 45.24C77.9897 45.8 78.4697 46.5667 78.723 47.54L72.783 50.98C72.9697 51.2467 73.243 51.4667 73.603 51.64C73.9764 51.8133 74.3497 51.9 74.723 51.9ZM74.723 46.14C74.003 46.14 73.3697 46.4333 72.823 47.02C72.2764 47.6067 72.003 48.2733 72.003 49.02C72.003 49.0467 72.0164 49.22 72.043 49.54L76.483 46.98C76.0564 46.42 75.4697 46.14 74.723 46.14ZM91.6762 51.9C92.4628 51.9 93.2028 51.5533 93.8962 50.86L94.9962 52.26C94.1028 53.1933 92.9962 53.66 91.6762 53.66C90.3962 53.66 89.3028 53.2067 88.3962 52.3C87.4895 51.3933 87.0362 50.3 87.0362 49.02C87.0362 47.74 87.4895 46.6467 88.3962 45.74C89.3028 44.8333 90.3962 44.38 91.6762 44.38C92.6762 44.38 93.5295 44.6667 94.2362 45.24C94.9428 45.8 95.4228 46.5667 95.6762 47.54L89.7362 50.98C89.9228 51.2467 90.1962 51.4667 90.5562 51.64C90.9295 51.8133 91.3028 51.9 91.6762 51.9ZM91.6762 46.14C90.9562 46.14 90.3228 46.4333 89.7762 47.02C89.2295 47.6067 88.9562 48.2733 88.9562 49.02C88.9562 49.0467 88.9695 49.22 88.9962 49.54L93.4362 46.98C93.0095 46.42 92.4228 46.14 91.6762 46.14ZM101.131 47.9C103.037 48.34 103.991 49.3133 103.991 50.82C103.991 51.66 103.677 52.34 103.051 52.86C102.424 53.3933 101.677 53.66 100.811 53.66C99.4639 53.66 98.2839 53.1533 97.2705 52.14L98.2305 50.74C99.0039 51.4867 99.8239 51.8733 100.691 51.9C101.104 51.9133 101.437 51.82 101.691 51.62C101.944 51.42 102.071 51.1867 102.071 50.92C102.071 50.4133 101.657 50.0467 100.831 49.82C99.6705 49.5 98.8639 49.1333 98.4105 48.72C97.9705 48.3067 97.7505 47.72 97.7505 46.96C97.7505 46.24 98.0239 45.6333 98.5705 45.14C99.1305 44.6333 99.8705 44.38 100.791 44.38C101.737 44.38 102.597 44.6867 103.371 45.3L102.471 46.7C101.977 46.3267 101.417 46.14 100.791 46.14C100.444 46.14 100.171 46.2133 99.9705 46.36C99.7705 46.5067 99.6705 46.6867 99.6705 46.9C99.6705 47.1533 99.7705 47.3533 99.9705 47.5C100.184 47.6333 100.571 47.7667 101.131 47.9ZM110.387 51.9C111.174 51.9 111.914 51.5533 112.607 50.86L113.707 52.26C112.814 53.1933 111.707 53.66 110.387 53.66C109.107 53.66 108.014 53.2067 107.107 52.3C106.2 51.3933 105.747 50.3 105.747 49.02C105.747 47.74 106.2 46.6467 107.107 45.74C108.014 44.8333 109.107 44.38 110.387 44.38C111.387 44.38 112.24 44.6667 112.947 45.24C113.654 45.8 114.134 46.5667 114.387 47.54L108.447 50.98C108.634 51.2467 108.907 51.4667 109.267 51.64C109.64 51.8133 110.014 51.9 110.387 51.9ZM110.387 46.14C109.667 46.14 109.034 46.4333 108.487 47.02C107.94 47.6067 107.667 48.2733 107.667 49.02C107.667 49.0467 107.68 49.22 107.707 49.54L112.147 46.98C111.72 46.42 111.134 46.14 110.387 46.14ZM133.38 44.38C134.46 44.38 135.294 44.7667 135.88 45.54C136.48 46.3 136.78 47.38 136.78 48.78V53.5H134.86V48.78C134.86 47.02 134.247 46.14 133.02 46.14C132.434 46.14 131.954 46.3933 131.58 46.9C131.207 47.3933 131.02 48.0467 131.02 48.86V53.5H129.1V48.78C129.1 47.02 128.487 46.14 127.26 46.14C126.674 46.14 126.194 46.3933 125.82 46.9C125.447 47.3933 125.26 48.0467 125.26 48.86V53.5H123.34V44.54H125.26V45.66C125.474 45.3667 125.66 45.1467 125.82 45C125.98 44.8533 126.214 44.7133 126.52 44.58C126.827 44.4467 127.194 44.38 127.62 44.38C128.887 44.38 129.807 44.8867 130.38 45.9C130.82 45.34 131.26 44.9467 131.7 44.72C132.154 44.4933 132.714 44.38 133.38 44.38ZM139.028 49.02C139.028 47.74 139.482 46.6467 140.388 45.74C141.295 44.8333 142.388 44.38 143.668 44.38C144.948 44.38 146.042 44.8333 146.948 45.74C147.855 46.6467 148.308 47.74 148.308 49.02C148.308 50.3 147.855 51.3933 146.948 52.3C146.042 53.2067 144.948 53.66 143.668 53.66C142.388 53.66 141.295 53.2067 140.388 52.3C139.482 51.3933 139.028 50.3 139.028 49.02ZM141.768 51.04C142.302 51.6133 142.935 51.9 143.668 51.9C144.415 51.9 145.055 51.6133 145.588 51.04C146.122 50.4933 146.388 49.82 146.388 49.02C146.388 48.2333 146.122 47.5533 145.588 46.98C145.055 46.42 144.415 46.14 143.668 46.14C142.948 46.14 142.315 46.42 141.768 46.98C141.222 47.5667 140.948 48.2467 140.948 49.02C140.948 49.7933 141.222 50.4667 141.768 51.04ZM160.587 44.38C161.667 44.38 162.501 44.7667 163.087 45.54C163.687 46.3 163.987 47.38 163.987 48.78V53.5H162.067V48.78C162.067 47.02 161.454 46.14 160.227 46.14C159.641 46.14 159.161 46.3933 158.787 46.9C158.414 47.3933 158.227 48.0467 158.227 48.86V53.5H156.307V48.78C156.307 47.02 155.694 46.14 154.467 46.14C153.881 46.14 153.401 46.3933 153.027 46.9C152.654 47.3933 152.467 48.0467 152.467 48.86V53.5H150.547V44.54H152.467V45.66C152.681 45.3667 152.867 45.1467 153.027 45C153.187 44.8533 153.421 44.7133 153.727 44.58C154.034 44.4467 154.401 44.38 154.827 44.38C156.094 44.38 157.014 44.8867 157.587 45.9C158.027 45.34 158.467 44.9467 158.907 44.72C159.361 44.4933 159.921 44.38 160.587 44.38ZM170.875 51.9C171.662 51.9 172.402 51.5533 173.095 50.86L174.195 52.26C173.302 53.1933 172.195 53.66 170.875 53.66C169.595 53.66 168.502 53.2067 167.595 52.3C166.689 51.3933 166.235 50.3 166.235 49.02C166.235 47.74 166.689 46.6467 167.595 45.74C168.502 44.8333 169.595 44.38 170.875 44.38C171.875 44.38 172.729 44.6667 173.435 45.24C174.142 45.8 174.622 46.5667 174.875 47.54L168.935 50.98C169.122 51.2467 169.395 51.4667 169.755 51.64C170.129 51.8133 170.502 51.9 170.875 51.9ZM170.875 46.14C170.155 46.14 169.522 46.4333 168.975 47.02C168.429 47.6067 168.155 48.2733 168.155 49.02C168.155 49.0467 168.169 49.22 168.195 49.54L172.635 46.98C172.209 46.42 171.622 46.14 170.875 46.14ZM181.237 44.38C182.384 44.38 183.264 44.76 183.877 45.52C184.491 46.28 184.797 47.3667 184.797 48.78V53.5H182.877V48.78C182.877 47.8867 182.717 47.2267 182.397 46.8C182.091 46.36 181.584 46.14 180.877 46.14C180.264 46.14 179.751 46.4 179.337 46.92C178.924 47.4267 178.717 48.0733 178.717 48.86V53.5H176.797V44.54H178.717V45.66C178.904 45.3133 179.224 45.0133 179.677 44.76C180.131 44.5067 180.651 44.38 181.237 44.38ZM190.4 53.5H188.48V46.3H186.88V44.54H188.48V41.02L190.4 40.38V44.54H192.96V46.3H190.4V53.5ZM194.243 49.02C194.243 47.74 194.697 46.6467 195.603 45.74C196.51 44.8333 197.603 44.38 198.883 44.38C200.163 44.38 201.257 44.8333 202.163 45.74C203.07 46.6467 203.523 47.74 203.523 49.02C203.523 50.3 203.07 51.3933 202.163 52.3C201.257 53.2067 200.163 53.66 198.883 53.66C197.603 53.66 196.51 53.2067 195.603 52.3C194.697 51.3933 194.243 50.3 194.243 49.02ZM196.983 51.04C197.517 51.6133 198.15 51.9 198.883 51.9C199.63 51.9 200.27 51.6133 200.803 51.04C201.337 50.4933 201.603 49.82 201.603 49.02C201.603 48.2333 201.337 47.5533 200.803 46.98C200.27 46.42 199.63 46.14 198.883 46.14C198.163 46.14 197.53 46.42 196.983 46.98C196.437 47.5667 196.163 48.2467 196.163 49.02C196.163 49.7933 196.437 50.4667 196.983 51.04ZM207.515 55.74H206.075V51.26H208.315L207.515 55.74ZM58.7367 77.9C59.5234 77.9 60.2634 77.5533 60.9567 76.86L62.0567 78.26C61.1634 79.1933 60.0567 79.66 58.7367 79.66C57.4567 79.66 56.3634 79.2067 55.4567 78.3C54.5501 77.3933 54.0967 76.3 54.0967 75.02C54.0967 73.74 54.5501 72.6467 55.4567 71.74C56.3634 70.8333 57.4567 70.38 58.7367 70.38C59.7367 70.38 60.5901 70.6667 61.2967 71.24C62.0034 71.8 62.4834 72.5667 62.7367 73.54L56.7967 76.98C56.9834 77.2467 57.2567 77.4667 57.6167 77.64C57.9901 77.8133 58.3634 77.9 58.7367 77.9ZM58.7367 72.14C58.0167 72.14 57.3834 72.4333 56.8367 73.02C56.2901 73.6067 56.0167 74.2733 56.0167 75.02C56.0167 75.0467 56.0301 75.22 56.0567 75.54L60.4967 72.98C60.0701 72.42 59.4834 72.14 58.7367 72.14ZM64.6586 79.5V64.78H66.5786V79.5H64.6586ZM78.4145 78.38V84.3H76.4945V70.54H78.4145V71.66C79.1479 70.8067 80.1079 70.38 81.2945 70.38C82.5345 70.38 83.5945 70.8333 84.4745 71.74C85.3412 72.6467 85.7745 73.74 85.7745 75.02C85.7745 76.3 85.3412 77.3933 84.4745 78.3C83.5945 79.2067 82.5345 79.66 81.2945 79.66C80.1079 79.66 79.1479 79.2333 78.4145 78.38ZM83.0745 72.98C82.5279 72.42 81.8812 72.14 81.1345 72.14C80.3745 72.14 79.7345 72.42 79.2145 72.98C78.6812 73.5267 78.4145 74.2067 78.4145 75.02C78.4145 75.8333 78.6812 76.5133 79.2145 77.06C79.7345 77.62 80.3745 77.9 81.1345 77.9C81.8812 77.9 82.5279 77.62 83.0745 77.06C83.5945 76.5 83.8545 75.82 83.8545 75.02C83.8545 74.22 83.5945 73.54 83.0745 72.98ZM92.3305 77.9C93.1171 77.9 93.8571 77.5533 94.5505 76.86L95.6505 78.26C94.7571 79.1933 93.6505 79.66 92.3305 79.66C91.0505 79.66 89.9571 79.2067 89.0505 78.3C88.1438 77.3933 87.6905 76.3 87.6905 75.02C87.6905 73.74 88.1438 72.6467 89.0505 71.74C89.9571 70.8333 91.0505 70.38 92.3305 70.38C93.3305 70.38 94.1838 70.6667 94.8905 71.24C95.5971 71.8 96.0771 72.5667 96.3305 73.54L90.3905 76.98C90.5771 77.2467 90.8505 77.4667 91.2105 77.64C91.5838 77.8133 91.9571 77.9 92.3305 77.9ZM92.3305 72.14C91.6105 72.14 90.9771 72.4333 90.4305 73.02C89.8838 73.6067 89.6105 74.2733 89.6105 75.02C89.6105 75.0467 89.6238 75.22 89.6505 75.54L94.0905 72.98C93.6638 72.42 93.0771 72.14 92.3305 72.14ZM100.172 70.54V71.96C100.772 70.9067 101.839 70.38 103.372 70.38V72.42C102.786 72.3 102.252 72.3267 101.772 72.5C100.706 72.8867 100.172 73.88 100.172 75.48V79.5H98.2523V70.54H100.172ZM107.848 70.54V71.96C108.448 70.9067 109.515 70.38 111.048 70.38V72.42C110.461 72.3 109.928 72.3267 109.448 72.5C108.381 72.8867 107.848 73.88 107.848 75.48V79.5H105.928V70.54H107.848ZM112.319 75.02C112.319 73.74 112.773 72.6467 113.679 71.74C114.586 70.8333 115.679 70.38 116.959 70.38C118.239 70.38 119.333 70.8333 120.239 71.74C121.146 72.6467 121.599 73.74 121.599 75.02C121.599 76.3 121.146 77.3933 120.239 78.3C119.333 79.2067 118.239 79.66 116.959 79.66C115.679 79.66 114.586 79.2067 113.679 78.3C112.773 77.3933 112.319 76.3 112.319 75.02ZM115.059 77.04C115.593 77.6133 116.226 77.9 116.959 77.9C117.706 77.9 118.346 77.6133 118.879 77.04C119.413 76.4933 119.679 75.82 119.679 75.02C119.679 74.2333 119.413 73.5533 118.879 72.98C118.346 72.42 117.706 72.14 116.959 72.14C116.239 72.14 115.606 72.42 115.059 72.98C114.513 73.5667 114.239 74.2467 114.239 75.02C114.239 75.7933 114.513 76.4667 115.059 77.04ZM125.591 81.74H124.151V77.26H126.391L125.591 81.74ZM135.987 79.5V64.78H137.907V79.5H135.987ZM144.188 79.66C143.041 79.66 142.161 79.28 141.548 78.52C140.934 77.76 140.628 76.6733 140.628 75.26V70.54H142.548V75.42C142.548 77.0733 143.214 77.9 144.548 77.9C145.161 77.9 145.674 77.6333 146.088 77.1C146.501 76.5667 146.708 75.8733 146.708 75.02V70.54H148.628V79.5H146.708V78.38C146.521 78.7267 146.201 79.0267 145.748 79.28C145.294 79.5333 144.774 79.66 144.188 79.66ZM155.514 77.9C156.301 77.9 157.041 77.5533 157.734 76.86L158.834 78.26C157.941 79.1933 156.834 79.66 155.514 79.66C154.234 79.66 153.141 79.2067 152.234 78.3C151.327 77.3933 150.874 76.3 150.874 75.02C150.874 73.74 151.327 72.6467 152.234 71.74C153.141 70.8333 154.234 70.38 155.514 70.38C156.514 70.38 157.367 70.6667 158.074 71.24C158.781 71.8 159.261 72.5667 159.514 73.54L153.574 76.98C153.761 77.2467 154.034 77.4667 154.394 77.64C154.767 77.8133 155.141 77.9 155.514 77.9ZM155.514 72.14C154.794 72.14 154.161 72.4333 153.614 73.02C153.067 73.6067 152.794 74.2733 152.794 75.02C152.794 75.0467 152.807 75.22 152.834 75.54L157.274 72.98C156.847 72.42 156.261 72.14 155.514 72.14ZM168.468 71.66V70.54H170.388V78.98C170.388 80.8467 169.928 82.2333 169.008 83.14C168.088 84.02 166.895 84.46 165.428 84.46C164.828 84.46 164.188 84.3467 163.508 84.12C162.868 83.9067 162.388 83.64 162.068 83.32L162.928 81.76C163.635 82.3867 164.468 82.7 165.428 82.7C166.402 82.7 167.148 82.4 167.668 81.8C168.202 81.2 168.468 80.3533 168.468 79.26V78.38C167.735 79.2333 166.775 79.66 165.588 79.66C164.348 79.66 163.295 79.2067 162.428 78.3C161.548 77.3933 161.108 76.3 161.108 75.02C161.108 73.74 161.548 72.6467 162.428 71.74C163.295 70.8333 164.348 70.38 165.588 70.38C166.775 70.38 167.735 70.8067 168.468 71.66ZM163.828 77.06C164.348 77.62 164.988 77.9 165.748 77.9C166.495 77.9 167.142 77.62 167.688 77.06C168.208 76.5 168.468 75.82 168.468 75.02C168.468 74.22 168.208 73.54 167.688 72.98C167.142 72.42 166.495 72.14 165.748 72.14C164.988 72.14 164.348 72.42 163.828 72.98C163.295 73.5267 163.028 74.2067 163.028 75.02C163.028 75.8333 163.295 76.5133 163.828 77.06ZM172.632 75.02C172.632 73.74 173.085 72.6467 173.992 71.74C174.899 70.8333 175.992 70.38 177.272 70.38C178.552 70.38 179.645 70.8333 180.552 71.74C181.459 72.6467 181.912 73.74 181.912 75.02C181.912 76.3 181.459 77.3933 180.552 78.3C179.645 79.2067 178.552 79.66 177.272 79.66C175.992 79.66 174.899 79.2067 173.992 78.3C173.085 77.3933 172.632 76.3 172.632 75.02ZM175.372 77.04C175.905 77.6133 176.539 77.9 177.272 77.9C178.019 77.9 178.659 77.6133 179.192 77.04C179.725 76.4933 179.992 75.82 179.992 75.02C179.992 74.2333 179.725 73.5533 179.192 72.98C178.659 72.42 178.019 72.14 177.272 72.14C176.552 72.14 175.919 72.42 175.372 72.98C174.825 73.5667 174.552 74.2467 174.552 75.02C174.552 75.7933 174.825 76.4667 175.372 77.04ZM20.5668 105.5V90.78H22.4868V105.5H20.5668ZM25.5277 105.5V90.78H27.4477V105.5H25.5277ZM37.8487 101.3V105.5H35.9287V104.34C35.182 105.22 34.2553 105.66 33.1487 105.66C32.1887 105.66 31.402 105.373 30.7887 104.8C30.162 104.24 29.8487 103.52 29.8487 102.64C29.8487 101.8 30.1553 101.113 30.7687 100.58C31.3953 100.047 32.1487 99.76 33.0287 99.72C33.922 99.68 34.8687 99.86 35.8687 100.26C35.7887 98.8467 35.1153 98.14 33.8487 98.14C33.0887 98.14 32.3953 98.3333 31.7687 98.72L30.9687 97.34C31.8087 96.7 32.7953 96.38 33.9287 96.38C36.542 96.38 37.8487 98.02 37.8487 101.3ZM35.9287 101.84C35.4753 101.573 34.9153 101.42 34.2487 101.38C33.582 101.34 32.9953 101.44 32.4887 101.68C31.9953 101.907 31.7553 102.247 31.7687 102.7C31.7687 103.047 31.9087 103.333 32.1887 103.56C32.482 103.787 32.862 103.9 33.3287 103.9C33.942 103.9 34.5087 103.7 35.0287 103.3C35.5487 102.9 35.8487 102.413 35.9287 101.84ZM50.6068 96.38C51.6868 96.38 52.5201 96.7667 53.1068 97.54C53.7068 98.3 54.0068 99.38 54.0068 100.78V105.5H52.0868V100.78C52.0868 99.02 51.4735 98.14 50.2468 98.14C49.6601 98.14 49.1801 98.3933 48.8068 98.9C48.4335 99.3933 48.2468 100.047 48.2468 100.86V105.5H46.3268V100.78C46.3268 99.02 45.7135 98.14 44.4868 98.14C43.9001 98.14 43.4201 98.3933 43.0468 98.9C42.6735 99.3933 42.4868 100.047 42.4868 100.86V105.5H40.5668V96.54H42.4868V97.66C42.7001 97.3667 42.8868 97.1467 43.0468 97C43.2068 96.8533 43.4401 96.7133 43.7468 96.58C44.0535 96.4467 44.4201 96.38 44.8468 96.38C46.1135 96.38 47.0335 96.8867 47.6068 97.9C48.0468 97.34 48.4868 96.9467 48.9268 96.72C49.3801 96.4933 49.9401 96.38 50.6068 96.38ZM64.2549 101.3V105.5H62.3349V104.34C61.5883 105.22 60.6616 105.66 59.5549 105.66C58.5949 105.66 57.8083 105.373 57.1949 104.8C56.5683 104.24 56.2549 103.52 56.2549 102.64C56.2549 101.8 56.5616 101.113 57.1749 100.58C57.8016 100.047 58.5549 99.76 59.4349 99.72C60.3283 99.68 61.2749 99.86 62.2749 100.26C62.1949 98.8467 61.5216 98.14 60.2549 98.14C59.4949 98.14 58.8016 98.3333 58.1749 98.72L57.3749 97.34C58.2149 96.7 59.2016 96.38 60.3349 96.38C62.9483 96.38 64.2549 98.02 64.2549 101.3ZM62.3349 101.84C61.8816 101.573 61.3216 101.42 60.6549 101.38C59.9883 101.34 59.4016 101.44 58.8949 101.68C58.4016 101.907 58.1616 102.247 58.1749 102.7C58.1749 103.047 58.3149 103.333 58.5949 103.56C58.8883 103.787 59.2683 103.9 59.7349 103.9C60.3483 103.9 60.9149 103.7 61.4349 103.3C61.9549 102.9 62.2549 102.413 62.3349 101.84ZM73.8493 97.66V90.78H75.7693V105.5H73.8493V104.38C73.116 105.233 72.156 105.66 70.9693 105.66C69.7293 105.66 68.676 105.207 67.8093 104.3C66.9293 103.393 66.4893 102.3 66.4893 101.02C66.4893 99.74 66.9293 98.6467 67.8093 97.74C68.676 96.8333 69.7293 96.38 70.9693 96.38C72.156 96.38 73.116 96.8067 73.8493 97.66ZM69.2093 103.06C69.7293 103.62 70.3693 103.9 71.1293 103.9C71.876 103.9 72.5226 103.62 73.0693 103.06C73.5893 102.5 73.8493 101.82 73.8493 101.02C73.8493 100.22 73.5893 99.54 73.0693 98.98C72.5226 98.42 71.876 98.14 71.1293 98.14C70.3693 98.14 69.7293 98.42 69.2093 98.98C68.676 99.5267 68.4093 100.207 68.4093 101.02C68.4093 101.833 68.676 102.513 69.2093 103.06ZM78.0127 101.02C78.0127 99.74 78.4661 98.6467 79.3727 97.74C80.2794 96.8333 81.3727 96.38 82.6527 96.38C83.9327 96.38 85.0261 96.8333 85.9327 97.74C86.8394 98.6467 87.2927 99.74 87.2927 101.02C87.2927 102.3 86.8394 103.393 85.9327 104.3C85.0261 105.207 83.9327 105.66 82.6527 105.66C81.3727 105.66 80.2794 105.207 79.3727 104.3C78.4661 103.393 78.0127 102.3 78.0127 101.02ZM80.7527 103.04C81.2861 103.613 81.9194 103.9 82.6527 103.9C83.3994 103.9 84.0394 103.613 84.5727 103.04C85.1061 102.493 85.3727 101.82 85.3727 101.02C85.3727 100.233 85.1061 99.5533 84.5727 98.98C84.0394 98.42 83.3994 98.14 82.6527 98.14C81.9327 98.14 81.2994 98.42 80.7527 98.98C80.2061 99.5667 79.9327 100.247 79.9327 101.02C79.9327 101.793 80.2061 102.467 80.7527 103.04ZM108.083 105.5H106.003L105.123 103.5H98.2429L97.3629 105.5H95.2829L101.683 91.1L108.083 105.5ZM101.683 95.58L99.0029 101.74H104.363L101.683 95.58ZM111.92 96.54V97.96C112.52 96.9067 113.587 96.38 115.12 96.38V98.42C114.534 98.3 114 98.3267 113.52 98.5C112.454 98.8867 111.92 99.88 111.92 101.48V105.5H110V96.54H111.92ZM120.712 105.5H118.792V98.3H117.192V96.54H118.792V93.02L120.712 92.38V96.54H123.272V98.3H120.712V105.5ZM130.28 96.38C131.427 96.38 132.307 96.76 132.92 97.52C133.534 98.28 133.84 99.3667 133.84 100.78V105.5H131.92V100.78C131.92 99.8867 131.76 99.2267 131.44 98.8C131.134 98.36 130.627 98.14 129.92 98.14C129.307 98.14 128.794 98.4 128.38 98.92C127.967 99.4267 127.76 100.073 127.76 100.86V105.5H125.84V90.78H127.76V97.66C127.947 97.3133 128.267 97.0133 128.72 96.76C129.174 96.5067 129.694 96.38 130.28 96.38ZM139.803 105.66C138.656 105.66 137.776 105.28 137.163 104.52C136.55 103.76 136.243 102.673 136.243 101.26V96.54H138.163V101.42C138.163 103.073 138.83 103.9 140.163 103.9C140.776 103.9 141.29 103.633 141.703 103.1C142.116 102.567 142.323 101.873 142.323 101.02V96.54H144.243V105.5H142.323V104.38C142.136 104.727 141.816 105.027 141.363 105.28C140.91 105.533 140.39 105.66 139.803 105.66ZM149.206 96.54V97.96C149.806 96.9067 150.872 96.38 152.406 96.38V98.42C151.819 98.3 151.286 98.3267 150.806 98.5C149.739 98.8867 149.206 99.88 149.206 101.48V105.5H147.286V96.54H149.206ZM156.401 107.74H154.961V103.26H157.201L156.401 107.74ZM170.017 99.9C171.924 100.34 172.877 101.313 172.877 102.82C172.877 103.66 172.564 104.34 171.937 104.86C171.311 105.393 170.564 105.66 169.697 105.66C168.351 105.66 167.171 105.153 166.157 104.14L167.117 102.74C167.891 103.487 168.711 103.873 169.577 103.9C169.991 103.913 170.324 103.82 170.577 103.62C170.831 103.42 170.957 103.187 170.957 102.92C170.957 102.413 170.544 102.047 169.717 101.82C168.557 101.5 167.751 101.133 167.297 100.72C166.857 100.307 166.637 99.72 166.637 98.96C166.637 98.24 166.911 97.6333 167.457 97.14C168.017 96.6333 168.757 96.38 169.677 96.38C170.624 96.38 171.484 96.6867 172.257 97.3L171.357 98.7C170.864 98.3267 170.304 98.14 169.677 98.14C169.331 98.14 169.057 98.2133 168.857 98.36C168.657 98.5067 168.557 98.6867 168.557 98.9C168.557 99.1533 168.657 99.3533 168.857 99.5C169.071 99.6333 169.457 99.7667 170.017 99.9ZM177.674 93.5C177.674 93.9 177.534 94.24 177.254 94.52C176.974 94.8 176.634 94.94 176.234 94.94C175.834 94.94 175.494 94.8 175.214 94.52C174.934 94.24 174.794 93.9 174.794 93.5C174.794 93.1 174.934 92.76 175.214 92.48C175.494 92.2 175.834 92.06 176.234 92.06C176.634 92.06 176.974 92.2 177.254 92.48C177.534 92.76 177.674 93.1 177.674 93.5ZM177.194 105.5H175.274V96.54H177.194V105.5ZM186.955 97.66V96.54H188.875V104.98C188.875 106.847 188.415 108.233 187.495 109.14C186.575 110.02 185.381 110.46 183.915 110.46C183.315 110.46 182.675 110.347 181.995 110.12C181.355 109.907 180.875 109.64 180.555 109.32L181.415 107.76C182.121 108.387 182.955 108.7 183.915 108.7C184.888 108.7 185.635 108.4 186.155 107.8C186.688 107.2 186.955 106.353 186.955 105.26V104.38C186.221 105.233 185.261 105.66 184.075 105.66C182.835 105.66 181.781 105.207 180.915 104.3C180.035 103.393 179.595 102.3 179.595 101.02C179.595 99.74 180.035 98.6467 180.915 97.74C181.781 96.8333 182.835 96.38 184.075 96.38C185.261 96.38 186.221 96.8067 186.955 97.66ZM182.315 103.06C182.835 103.62 183.475 103.9 184.235 103.9C184.981 103.9 185.628 103.62 186.175 103.06C186.695 102.5 186.955 101.82 186.955 101.02C186.955 100.22 186.695 99.54 186.175 98.98C185.628 98.42 184.981 98.14 184.235 98.14C183.475 98.14 182.835 98.42 182.315 98.98C181.781 99.5267 181.515 100.207 181.515 101.02C181.515 101.833 181.781 102.513 182.315 103.06ZM195.154 105.66C194.008 105.66 193.128 105.28 192.514 104.52C191.901 103.76 191.594 102.673 191.594 101.26V96.54H193.514V101.42C193.514 103.073 194.181 103.9 195.514 103.9C196.128 103.9 196.641 103.633 197.054 103.1C197.468 102.567 197.674 101.873 197.674 101.02V96.54H199.594V105.5H197.674V104.38C197.488 104.727 197.168 105.027 196.714 105.28C196.261 105.533 195.741 105.66 195.154 105.66ZM205.037 93.5C205.037 93.9 204.897 94.24 204.617 94.52C204.337 94.8 203.997 94.94 203.597 94.94C203.197 94.94 202.857 94.8 202.577 94.52C202.297 94.24 202.157 93.9 202.157 93.5C202.157 93.1 202.297 92.76 202.577 92.48C202.857 92.2 203.197 92.06 203.597 92.06C203.997 92.06 204.337 92.2 204.617 92.48C204.897 92.76 205.037 93.1 205.037 93.5ZM204.557 105.5H202.637V96.54H204.557V105.5ZM211.762 95.26H210.482L211.762 92.06H213.682L211.762 95.26ZM206.802 101.02C206.802 99.74 207.255 98.6467 208.162 97.74C209.068 96.8333 210.162 96.38 211.442 96.38C212.722 96.38 213.815 96.8333 214.722 97.74C215.628 98.6467 216.082 99.74 216.082 101.02C216.082 102.3 215.628 103.393 214.722 104.3C213.815 105.207 212.722 105.66 211.442 105.66C210.162 105.66 209.068 105.207 208.162 104.3C207.255 103.393 206.802 102.3 206.802 101.02ZM209.542 103.04C210.075 103.613 210.708 103.9 211.442 103.9C212.188 103.9 212.828 103.613 213.362 103.04C213.895 102.493 214.162 101.82 214.162 101.02C214.162 100.233 213.895 99.5533 213.362 98.98C212.828 98.42 212.188 98.14 211.442 98.14C210.722 98.14 210.088 98.42 209.542 98.98C208.995 99.5667 208.722 100.247 208.722 101.02C208.722 101.793 208.995 102.467 209.542 103.04ZM49.4502 127.3V131.5H47.5302V130.34C46.7836 131.22 45.8569 131.66 44.7502 131.66C43.7902 131.66 43.0036 131.373 42.3902 130.8C41.7636 130.24 41.4502 129.52 41.4502 128.64C41.4502 127.8 41.7569 127.113 42.3702 126.58C42.9969 126.047 43.7502 125.76 44.6302 125.72C45.5236 125.68 46.4702 125.86 47.4702 126.26C47.3902 124.847 46.7169 124.14 45.4502 124.14C44.6902 124.14 43.9969 124.333 43.3702 124.72L42.5702 123.34C43.4102 122.7 44.3969 122.38 45.5302 122.38C48.1436 122.38 49.4502 124.02 49.4502 127.3ZM47.5302 127.84C47.0769 127.573 46.5169 127.42 45.8502 127.38C45.1836 127.34 44.5969 127.44 44.0902 127.68C43.5969 127.907 43.3569 128.247 43.3702 128.7C43.3702 129.047 43.5102 129.333 43.7902 129.56C44.0836 129.787 44.4636 129.9 44.9302 129.9C45.5436 129.9 46.1102 129.7 46.6302 129.3C47.1502 128.9 47.4502 128.413 47.5302 127.84ZM52.1684 131.5V116.78H54.0884V131.5H52.1684ZM68.0043 129.9C68.791 129.9 69.531 129.553 70.2243 128.86L71.3243 130.26C70.431 131.193 69.3243 131.66 68.0043 131.66C66.7243 131.66 65.631 131.207 64.7243 130.3C63.8176 129.393 63.3643 128.3 63.3643 127.02C63.3643 125.74 63.8176 124.647 64.7243 123.74C65.631 122.833 66.7243 122.38 68.0043 122.38C69.0043 122.38 69.8576 122.667 70.5643 123.24C71.271 123.8 71.751 124.567 72.0043 125.54L66.0643 128.98C66.251 129.247 66.5243 129.467 66.8843 129.64C67.2576 129.813 67.631 129.9 68.0043 129.9ZM68.0043 124.14C67.2843 124.14 66.651 124.433 66.1043 125.02C65.5576 125.607 65.2843 126.273 65.2843 127.02C65.2843 127.047 65.2976 127.22 65.3243 127.54L69.7643 124.98C69.3376 124.42 68.751 124.14 68.0043 124.14ZM82.8787 136.3H80.9587V130.38C80.2253 131.233 79.2653 131.66 78.0787 131.66C76.8387 131.66 75.7853 131.207 74.9187 130.3C74.0387 129.393 73.5987 128.3 73.5987 127.02C73.5987 125.74 74.0387 124.647 74.9187 123.74C75.7853 122.833 76.8387 122.38 78.0787 122.38C79.2653 122.38 80.2253 122.807 80.9587 123.66V122.54H82.8787V136.3ZM80.1787 124.98C79.632 124.42 78.9853 124.14 78.2387 124.14C77.4787 124.14 76.8387 124.42 76.3187 124.98C75.7853 125.527 75.5187 126.207 75.5187 127.02C75.5187 127.833 75.7853 128.513 76.3187 129.06C76.8387 129.62 77.4787 129.9 78.2387 129.9C78.9853 129.9 79.632 129.62 80.1787 129.06C80.6987 128.5 80.9587 127.82 80.9587 127.02C80.9587 126.22 80.6987 125.54 80.1787 124.98ZM89.1584 131.66C88.0117 131.66 87.1317 131.28 86.5184 130.52C85.905 129.76 85.5984 128.673 85.5984 127.26V122.54H87.5184V127.42C87.5184 129.073 88.185 129.9 89.5184 129.9C90.1317 129.9 90.645 129.633 91.0584 129.1C91.4717 128.567 91.6784 127.873 91.6784 127.02V122.54H93.5984V131.5H91.6784V130.38C91.4917 130.727 91.1717 131.027 90.7184 131.28C90.265 131.533 89.745 131.66 89.1584 131.66ZM99.041 119.5C99.041 119.9 98.901 120.24 98.621 120.52C98.341 120.8 98.001 120.94 97.601 120.94C97.201 120.94 96.861 120.8 96.581 120.52C96.301 120.24 96.161 119.9 96.161 119.5C96.161 119.1 96.301 118.76 96.581 118.48C96.861 118.2 97.201 118.06 97.601 118.06C98.001 118.06 98.341 118.2 98.621 118.48C98.901 118.76 99.041 119.1 99.041 119.5ZM98.561 131.5H96.641V122.54H98.561V131.5ZM103.522 130.38V136.3H101.602V122.54H103.522V123.66C104.255 122.807 105.215 122.38 106.402 122.38C107.642 122.38 108.702 122.833 109.582 123.74C110.449 124.647 110.882 125.74 110.882 127.02C110.882 128.3 110.449 129.393 109.582 130.3C108.702 131.207 107.642 131.66 106.402 131.66C105.215 131.66 104.255 131.233 103.522 130.38ZM108.182 124.98C107.635 124.42 106.989 124.14 106.242 124.14C105.482 124.14 104.842 124.42 104.322 124.98C103.789 125.527 103.522 126.207 103.522 127.02C103.522 127.833 103.789 128.513 104.322 129.06C104.842 129.62 105.482 129.9 106.242 129.9C106.989 129.9 107.635 129.62 108.182 129.06C108.702 128.5 108.962 127.82 108.962 127.02C108.962 126.22 108.702 125.54 108.182 124.98ZM112.798 127.02C112.798 125.74 113.251 124.647 114.158 123.74C115.065 122.833 116.158 122.38 117.438 122.38C118.718 122.38 119.811 122.833 120.718 123.74C121.625 124.647 122.078 125.74 122.078 127.02C122.078 128.3 121.625 129.393 120.718 130.3C119.811 131.207 118.718 131.66 117.438 131.66C116.158 131.66 115.065 131.207 114.158 130.3C113.251 129.393 112.798 128.3 112.798 127.02ZM115.538 129.04C116.071 129.613 116.705 129.9 117.438 129.9C118.185 129.9 118.825 129.613 119.358 129.04C119.891 128.493 120.158 127.82 120.158 127.02C120.158 126.233 119.891 125.553 119.358 124.98C118.825 124.42 118.185 124.14 117.438 124.14C116.718 124.14 116.085 124.42 115.538 124.98C114.991 125.567 114.718 126.247 114.718 127.02C114.718 127.793 114.991 128.467 115.538 129.04ZM126.069 133.74H124.629V129.26H126.869L126.069 133.74ZM138.865 119.5C138.865 119.9 138.725 120.24 138.445 120.52C138.165 120.8 137.825 120.94 137.425 120.94C137.025 120.94 136.685 120.8 136.405 120.52C136.125 120.24 135.985 119.9 135.985 119.5C135.985 119.1 136.125 118.76 136.405 118.48C136.685 118.2 137.025 118.06 137.425 118.06C137.825 118.06 138.165 118.2 138.445 118.48C138.725 118.76 138.865 119.1 138.865 119.5ZM138.385 131.5H136.465V122.54H138.385V131.5ZM145.866 122.38C147.013 122.38 147.893 122.76 148.506 123.52C149.12 124.28 149.426 125.367 149.426 126.78V131.5H147.506V126.78C147.506 125.887 147.346 125.227 147.026 124.8C146.72 124.36 146.213 124.14 145.506 124.14C144.893 124.14 144.38 124.4 143.966 124.92C143.553 125.427 143.346 126.073 143.346 126.86V131.5H141.426V122.54H143.346V123.66C143.533 123.313 143.853 123.013 144.306 122.76C144.76 122.507 145.28 122.38 145.866 122.38ZM156.305 129.9C157.145 129.9 157.812 129.633 158.305 129.1L159.345 130.54C158.478 131.287 157.465 131.66 156.305 131.66C155.025 131.66 153.932 131.207 153.025 130.3C152.118 129.393 151.665 128.3 151.665 127.02C151.665 125.74 152.118 124.647 153.025 123.74C153.932 122.833 155.025 122.38 156.305 122.38C157.465 122.38 158.478 122.753 159.345 123.5L158.305 124.94C157.812 124.407 157.145 124.14 156.305 124.14C155.585 124.14 154.952 124.42 154.405 124.98C153.858 125.567 153.585 126.247 153.585 127.02C153.585 127.793 153.858 128.467 154.405 129.04C154.938 129.613 155.572 129.9 156.305 129.9ZM161.758 131.5V116.78H163.678V131.5H161.758ZM169.959 131.66C168.812 131.66 167.932 131.28 167.319 130.52C166.706 129.76 166.399 128.673 166.399 127.26V122.54H168.319V127.42C168.319 129.073 168.986 129.9 170.319 129.9C170.932 129.9 171.446 129.633 171.859 129.1C172.272 128.567 172.479 127.873 172.479 127.02V122.54H174.399V131.5H172.479V130.38C172.292 130.727 171.972 131.027 171.519 131.28C171.066 131.533 170.546 131.66 169.959 131.66ZM180.662 125.9C182.568 126.34 183.522 127.313 183.522 128.82C183.522 129.66 183.208 130.34 182.582 130.86C181.955 131.393 181.208 131.66 180.342 131.66C178.995 131.66 177.815 131.153 176.802 130.14L177.762 128.74C178.535 129.487 179.355 129.873 180.222 129.9C180.635 129.913 180.968 129.82 181.222 129.62C181.475 129.42 181.602 129.187 181.602 128.92C181.602 128.413 181.188 128.047 180.362 127.82C179.202 127.5 178.395 127.133 177.942 126.72C177.502 126.307 177.282 125.72 177.282 124.96C177.282 124.24 177.555 123.633 178.102 123.14C178.662 122.633 179.402 122.38 180.322 122.38C181.268 122.38 182.128 122.687 182.902 123.3L182.002 124.7C181.508 124.327 180.948 124.14 180.322 124.14C179.975 124.14 179.702 124.213 179.502 124.36C179.302 124.507 179.202 124.687 179.202 124.9C179.202 125.153 179.302 125.353 179.502 125.5C179.715 125.633 180.102 125.767 180.662 125.9ZM185.278 127.02C185.278 125.74 185.732 124.647 186.638 123.74C187.545 122.833 188.638 122.38 189.918 122.38C191.198 122.38 192.292 122.833 193.198 123.74C194.105 124.647 194.558 125.74 194.558 127.02C194.558 128.3 194.105 129.393 193.198 130.3C192.292 131.207 191.198 131.66 189.918 131.66C188.638 131.66 187.545 131.207 186.638 130.3C185.732 129.393 185.278 128.3 185.278 127.02ZM188.018 129.04C188.552 129.613 189.185 129.9 189.918 129.9C190.665 129.9 191.305 129.613 191.838 129.04C192.372 128.493 192.638 127.82 192.638 127.02C192.638 126.233 192.372 125.553 191.838 124.98C191.305 124.42 190.665 124.14 189.918 124.14C189.198 124.14 188.565 124.42 188.018 124.98C187.472 125.567 187.198 126.247 187.198 127.02C187.198 127.793 187.472 128.467 188.018 129.04ZM42.7315 153.3V157.5H40.8115V156.34C40.0648 157.22 39.1382 157.66 38.0315 157.66C37.0715 157.66 36.2848 157.373 35.6715 156.8C35.0448 156.24 34.7315 155.52 34.7315 154.64C34.7315 153.8 35.0382 153.113 35.6515 152.58C36.2782 152.047 37.0315 151.76 37.9115 151.72C38.8048 151.68 39.7515 151.86 40.7515 152.26C40.6715 150.847 39.9982 150.14 38.7315 150.14C37.9715 150.14 37.2782 150.333 36.6515 150.72L35.8515 149.34C36.6915 148.7 37.6782 148.38 38.8115 148.38C41.4248 148.38 42.7315 150.02 42.7315 153.3ZM40.8115 153.84C40.3582 153.573 39.7982 153.42 39.1315 153.38C38.4648 153.34 37.8782 153.44 37.3715 153.68C36.8782 153.907 36.6382 154.247 36.6515 154.7C36.6515 155.047 36.7915 155.333 37.0715 155.56C37.3648 155.787 37.7448 155.9 38.2115 155.9C38.8248 155.9 39.3915 155.7 39.9115 155.3C40.4315 154.9 40.7315 154.413 40.8115 153.84ZM48.3296 157.5H46.4096V150.3H44.8096V148.54H46.4096V145.02L48.3296 144.38V148.54H50.8896V150.3H48.3296V157.5ZM55.3774 148.54V149.96C55.9774 148.907 57.0441 148.38 58.5774 148.38V150.42C57.9908 150.3 57.4574 150.327 56.9774 150.5C55.9108 150.887 55.3774 151.88 55.3774 153.48V157.5H53.4574V148.54H55.3774ZM67.8487 153.3V157.5H65.9287V156.34C65.182 157.22 64.2553 157.66 63.1487 157.66C62.1887 157.66 61.402 157.373 60.7887 156.8C60.162 156.24 59.8487 155.52 59.8487 154.64C59.8487 153.8 60.1553 153.113 60.7687 152.58C61.3953 152.047 62.1487 151.76 63.0287 151.72C63.922 151.68 64.8687 151.86 65.8687 152.26C65.7887 150.847 65.1153 150.14 63.8487 150.14C63.0887 150.14 62.3953 150.333 61.7687 150.72L60.9687 149.34C61.8087 148.7 62.7953 148.38 63.9287 148.38C66.542 148.38 67.8487 150.02 67.8487 153.3ZM65.9287 153.84C65.4753 153.573 64.9153 153.42 64.2487 153.38C63.582 153.34 62.9953 153.44 62.4887 153.68C61.9953 153.907 61.7553 154.247 61.7687 154.7C61.7687 155.047 61.9087 155.333 62.1887 155.56C62.482 155.787 62.862 155.9 63.3287 155.9C63.942 155.9 64.5087 155.7 65.0287 155.3C65.5487 154.9 65.8487 154.413 65.9287 153.84ZM78.083 148.54L73.763 157.82L69.443 148.54H71.523L73.763 153.5L76.003 148.54H78.083ZM83.6879 155.9C84.4746 155.9 85.2146 155.553 85.9079 154.86L87.0079 156.26C86.1146 157.193 85.0079 157.66 83.6879 157.66C82.4079 157.66 81.3146 157.207 80.4079 156.3C79.5012 155.393 79.0479 154.3 79.0479 153.02C79.0479 151.74 79.5012 150.647 80.4079 149.74C81.3146 148.833 82.4079 148.38 83.6879 148.38C84.6879 148.38 85.5412 148.667 86.2479 149.24C86.9546 149.8 87.4346 150.567 87.6879 151.54L81.7479 154.98C81.9346 155.247 82.2079 155.467 82.5679 155.64C82.9412 155.813 83.3146 155.9 83.6879 155.9ZM83.6879 150.14C82.9679 150.14 82.3346 150.433 81.7879 151.02C81.2412 151.607 80.9679 152.273 80.9679 153.02C80.9679 153.047 80.9812 153.22 81.0079 153.54L85.4479 150.98C85.0212 150.42 84.4346 150.14 83.6879 150.14ZM93.1423 151.9C95.0489 152.34 96.0023 153.313 96.0023 154.82C96.0023 155.66 95.6889 156.34 95.0623 156.86C94.4356 157.393 93.6889 157.66 92.8223 157.66C91.4756 157.66 90.2956 157.153 89.2823 156.14L90.2423 154.74C91.0156 155.487 91.8356 155.873 92.7023 155.9C93.1156 155.913 93.4489 155.82 93.7023 155.62C93.9556 155.42 94.0823 155.187 94.0823 154.92C94.0823 154.413 93.6689 154.047 92.8423 153.82C91.6823 153.5 90.8756 153.133 90.4223 152.72C89.9823 152.307 89.7623 151.72 89.7623 150.96C89.7623 150.24 90.0356 149.633 90.5823 149.14C91.1423 148.633 91.8823 148.38 92.8023 148.38C93.7489 148.38 94.6089 148.687 95.3823 149.3L94.4823 150.7C93.9889 150.327 93.4289 150.14 92.8023 150.14C92.4556 150.14 92.1823 150.213 91.9823 150.36C91.7823 150.507 91.6823 150.687 91.6823 150.9C91.6823 151.153 91.7823 151.353 91.9823 151.5C92.1956 151.633 92.5823 151.767 93.1423 151.9ZM105.759 153.3V157.5H103.839V156.34C103.092 157.22 102.165 157.66 101.059 157.66C100.099 157.66 99.3122 157.373 98.6988 156.8C98.0722 156.24 97.7588 155.52 97.7588 154.64C97.7588 153.8 98.0655 153.113 98.6788 152.58C99.3055 152.047 100.059 151.76 100.939 151.72C101.832 151.68 102.779 151.86 103.779 152.26C103.699 150.847 103.025 150.14 101.759 150.14C100.999 150.14 100.305 150.333 99.6788 150.72L98.8788 149.34C99.7188 148.7 100.705 148.38 101.839 148.38C104.452 148.38 105.759 150.02 105.759 153.3ZM103.839 153.84C103.385 153.573 102.825 153.42 102.159 153.38C101.492 153.34 100.905 153.44 100.399 153.68C99.9055 153.907 99.6655 154.247 99.6788 154.7C99.6788 155.047 99.8188 155.333 100.099 155.56C100.392 155.787 100.772 155.9 101.239 155.9C101.852 155.9 102.419 155.7 102.939 155.3C103.459 154.9 103.759 154.413 103.839 153.84ZM112.917 148.38C114.064 148.38 114.944 148.76 115.557 149.52C116.17 150.28 116.477 151.367 116.477 152.78V157.5H114.557V152.78C114.557 151.887 114.397 151.227 114.077 150.8C113.77 150.36 113.264 150.14 112.557 150.14C111.944 150.14 111.43 150.4 111.017 150.92C110.604 151.427 110.397 152.073 110.397 152.86V157.5H108.477V148.54H110.397V149.66C110.584 149.313 110.904 149.013 111.357 148.76C111.81 148.507 112.33 148.38 112.917 148.38ZM126.076 149.66V142.78H127.996V157.5H126.076V156.38C125.343 157.233 124.383 157.66 123.196 157.66C121.956 157.66 120.903 157.207 120.036 156.3C119.156 155.393 118.716 154.3 118.716 153.02C118.716 151.74 119.156 150.647 120.036 149.74C120.903 148.833 121.956 148.38 123.196 148.38C124.383 148.38 125.343 148.807 126.076 149.66ZM121.436 155.06C121.956 155.62 122.596 155.9 123.356 155.9C124.103 155.9 124.749 155.62 125.296 155.06C125.816 154.5 126.076 153.82 126.076 153.02C126.076 152.22 125.816 151.54 125.296 150.98C124.749 150.42 124.103 150.14 123.356 150.14C122.596 150.14 121.956 150.42 121.436 150.98C120.903 151.527 120.636 152.207 120.636 153.02C120.636 153.833 120.903 154.513 121.436 155.06ZM130.239 153.02C130.239 151.74 130.693 150.647 131.599 149.74C132.506 148.833 133.599 148.38 134.879 148.38C136.159 148.38 137.253 148.833 138.159 149.74C139.066 150.647 139.519 151.74 139.519 153.02C139.519 154.3 139.066 155.393 138.159 156.3C137.253 157.207 136.159 157.66 134.879 157.66C133.599 157.66 132.506 157.207 131.599 156.3C130.693 155.393 130.239 154.3 130.239 153.02ZM132.979 155.04C133.513 155.613 134.146 155.9 134.879 155.9C135.626 155.9 136.266 155.613 136.799 155.04C137.333 154.493 137.599 153.82 137.599 153.02C137.599 152.233 137.333 151.553 136.799 150.98C136.266 150.42 135.626 150.14 134.879 150.14C134.159 150.14 133.526 150.42 132.979 150.98C132.433 151.567 132.159 152.247 132.159 153.02C132.159 153.793 132.433 154.467 132.979 155.04ZM148.789 157.5V142.78H150.709V157.5H148.789ZM152.954 153.02C152.954 151.74 153.407 150.647 154.314 149.74C155.221 148.833 156.314 148.38 157.594 148.38C158.874 148.38 159.967 148.833 160.874 149.74C161.781 150.647 162.234 151.74 162.234 153.02C162.234 154.3 161.781 155.393 160.874 156.3C159.967 157.207 158.874 157.66 157.594 157.66C156.314 157.66 155.221 157.207 154.314 156.3C153.407 155.393 152.954 154.3 152.954 153.02ZM155.694 155.04C156.227 155.613 156.861 155.9 157.594 155.9C158.341 155.9 158.981 155.613 159.514 155.04C160.047 154.493 160.314 153.82 160.314 153.02C160.314 152.233 160.047 151.553 159.514 150.98C158.981 150.42 158.341 150.14 157.594 150.14C156.874 150.14 156.241 150.42 155.694 150.98C155.147 151.567 154.874 152.247 154.874 153.02C154.874 153.793 155.147 154.467 155.694 155.04ZM171.506 149.66V142.78H173.426V157.5H171.506V156.38C170.772 157.233 169.812 157.66 168.626 157.66C167.386 157.66 166.332 157.207 165.466 156.3C164.586 155.393 164.146 154.3 164.146 153.02C164.146 151.74 164.586 150.647 165.466 149.74C166.332 148.833 167.386 148.38 168.626 148.38C169.812 148.38 170.772 148.807 171.506 149.66ZM166.866 155.06C167.386 155.62 168.026 155.9 168.786 155.9C169.532 155.9 170.179 155.62 170.726 155.06C171.246 154.5 171.506 153.82 171.506 153.02C171.506 152.22 171.246 151.54 170.726 150.98C170.179 150.42 169.532 150.14 168.786 150.14C168.026 150.14 167.386 150.42 166.866 150.98C166.332 151.527 166.066 152.207 166.066 153.02C166.066 153.833 166.332 154.513 166.866 155.06ZM175.669 153.02C175.669 151.74 176.122 150.647 177.029 149.74C177.936 148.833 179.029 148.38 180.309 148.38C181.589 148.38 182.682 148.833 183.589 149.74C184.496 150.647 184.949 151.74 184.949 153.02C184.949 154.3 184.496 155.393 183.589 156.3C182.682 157.207 181.589 157.66 180.309 157.66C179.029 157.66 177.936 157.207 177.029 156.3C176.122 155.393 175.669 154.3 175.669 153.02ZM178.409 155.04C178.942 155.613 179.576 155.9 180.309 155.9C181.056 155.9 181.696 155.613 182.229 155.04C182.762 154.493 183.029 153.82 183.029 153.02C183.029 152.233 182.762 151.553 182.229 150.98C181.696 150.42 181.056 150.14 180.309 150.14C179.589 150.14 178.956 150.42 178.409 150.98C177.862 151.567 177.589 152.247 177.589 153.02C177.589 153.793 177.862 154.467 178.409 155.04ZM197.439 154.6L199.819 148.54H201.899L196.319 162.3H194.279L196.459 156.98L192.939 148.54H195.019L197.439 154.6ZM49.8896 174.38C51.0363 174.38 51.9163 174.76 52.5296 175.52C53.1429 176.28 53.4496 177.367 53.4496 178.78V183.5H51.5296V178.78C51.5296 177.887 51.3696 177.227 51.0496 176.8C50.7429 176.36 50.2363 176.14 49.5296 176.14C48.9163 176.14 48.4029 176.4 47.9896 176.92C47.5763 177.427 47.3696 178.073 47.3696 178.86V183.5H45.4496V174.54H47.3696V175.66C47.5563 175.313 47.8763 175.013 48.3296 174.76C48.7829 174.507 49.3029 174.38 49.8896 174.38ZM63.6885 179.3V183.5H61.7685V182.34C61.0218 183.22 60.0952 183.66 58.9885 183.66C58.0285 183.66 57.2418 183.373 56.6285 182.8C56.0018 182.24 55.6885 181.52 55.6885 180.64C55.6885 179.8 55.9952 179.113 56.6085 178.58C57.2352 178.047 57.9885 177.76 58.8685 177.72C59.7618 177.68 60.7085 177.86 61.7085 178.26C61.6285 176.847 60.9552 176.14 59.6885 176.14C58.9285 176.14 58.2352 176.333 57.6085 176.72L56.8085 175.34C57.6485 174.7 58.6352 174.38 59.7685 174.38C62.3818 174.38 63.6885 176.02 63.6885 179.3ZM61.7685 179.84C61.3152 179.573 60.7552 179.42 60.0885 179.38C59.4218 179.34 58.8352 179.44 58.3285 179.68C57.8352 179.907 57.5952 180.247 57.6085 180.7C57.6085 181.047 57.7485 181.333 58.0285 181.56C58.3218 181.787 58.7018 181.9 59.1685 181.9C59.7818 181.9 60.3485 181.7 60.8685 181.3C61.3885 180.9 61.6885 180.413 61.7685 179.84ZM73.2829 175.66V168.78H75.2029V183.5H73.2829V182.38C72.5496 183.233 71.5896 183.66 70.4029 183.66C69.1629 183.66 68.1096 183.207 67.2429 182.3C66.3629 181.393 65.9229 180.3 65.9229 179.02C65.9229 177.74 66.3629 176.647 67.2429 175.74C68.1096 174.833 69.1629 174.38 70.4029 174.38C71.5896 174.38 72.5496 174.807 73.2829 175.66ZM68.6429 181.06C69.1629 181.62 69.8029 181.9 70.5629 181.9C71.3096 181.9 71.9562 181.62 72.5029 181.06C73.0229 180.5 73.2829 179.82 73.2829 179.02C73.2829 178.22 73.0229 177.54 72.5029 176.98C71.9562 176.42 71.3096 176.14 70.5629 176.14C69.8029 176.14 69.1629 176.42 68.6429 176.98C68.1096 177.527 67.8429 178.207 67.8429 179.02C67.8429 179.833 68.1096 180.513 68.6429 181.06ZM85.6026 179.3V183.5H83.6826V182.34C82.9359 183.22 82.0092 183.66 80.9026 183.66C79.9426 183.66 79.1559 183.373 78.5426 182.8C77.9159 182.24 77.6026 181.52 77.6026 180.64C77.6026 179.8 77.9092 179.113 78.5226 178.58C79.1492 178.047 79.9026 177.76 80.7826 177.72C81.6759 177.68 82.6226 177.86 83.6226 178.26C83.5426 176.847 82.8692 176.14 81.6026 176.14C80.8426 176.14 80.1492 176.333 79.5226 176.72L78.7226 175.34C79.5626 174.7 80.5492 174.38 81.6826 174.38C84.2959 174.38 85.6026 176.02 85.6026 179.3ZM83.6826 179.84C83.2292 179.573 82.6692 179.42 82.0026 179.38C81.3359 179.34 80.7492 179.44 80.2426 179.68C79.7492 179.907 79.5092 180.247 79.5226 180.7C79.5226 181.047 79.6626 181.333 79.9426 181.56C80.2359 181.787 80.6159 181.9 81.0826 181.9C81.6959 181.9 82.2626 181.7 82.7826 181.3C83.3026 180.9 83.6026 180.413 83.6826 179.84ZM92.7607 174.38C93.9074 174.38 94.7874 174.76 95.4007 175.52C96.014 176.28 96.3207 177.367 96.3207 178.78V183.5H94.4007V178.78C94.4007 177.887 94.2407 177.227 93.9207 176.8C93.614 176.36 93.1074 176.14 92.4007 176.14C91.7874 176.14 91.274 176.4 90.8607 176.92C90.4474 177.427 90.2407 178.073 90.2407 178.86V183.5H88.3207V174.54H90.2407V175.66C90.4274 175.313 90.7474 175.013 91.2007 174.76C91.654 174.507 92.174 174.38 92.7607 174.38ZM105.92 175.66V168.78H107.84V183.5H105.92V182.38C105.186 183.233 104.226 183.66 103.04 183.66C101.8 183.66 100.746 183.207 99.8796 182.3C98.9996 181.393 98.5596 180.3 98.5596 179.02C98.5596 177.74 98.9996 176.647 99.8796 175.74C100.746 174.833 101.8 174.38 103.04 174.38C104.226 174.38 105.186 174.807 105.92 175.66ZM101.28 181.06C101.8 181.62 102.44 181.9 103.2 181.9C103.946 181.9 104.593 181.62 105.14 181.06C105.66 180.5 105.92 179.82 105.92 179.02C105.92 178.22 105.66 177.54 105.14 176.98C104.593 176.42 103.946 176.14 103.2 176.14C102.44 176.14 101.8 176.42 101.28 176.98C100.746 177.527 100.48 178.207 100.48 179.02C100.48 179.833 100.746 180.513 101.28 181.06ZM110.083 179.02C110.083 177.74 110.536 176.647 111.443 175.74C112.35 174.833 113.443 174.38 114.723 174.38C116.003 174.38 117.096 174.833 118.003 175.74C118.91 176.647 119.363 177.74 119.363 179.02C119.363 180.3 118.91 181.393 118.003 182.3C117.096 183.207 116.003 183.66 114.723 183.66C113.443 183.66 112.35 183.207 111.443 182.3C110.536 181.393 110.083 180.3 110.083 179.02ZM112.823 181.04C113.356 181.613 113.99 181.9 114.723 181.9C115.47 181.9 116.11 181.613 116.643 181.04C117.176 180.493 117.443 179.82 117.443 179.02C117.443 178.233 117.176 177.553 116.643 176.98C116.11 176.42 115.47 176.14 114.723 176.14C114.003 176.14 113.37 176.42 112.823 176.98C112.276 177.567 112.003 178.247 112.003 179.02C112.003 179.793 112.276 180.467 112.823 181.04ZM132.633 181.9C133.42 181.9 134.16 181.553 134.853 180.86L135.953 182.26C135.06 183.193 133.953 183.66 132.633 183.66C131.353 183.66 130.26 183.207 129.353 182.3C128.447 181.393 127.993 180.3 127.993 179.02C127.993 177.74 128.447 176.647 129.353 175.74C130.26 174.833 131.353 174.38 132.633 174.38C133.633 174.38 134.487 174.667 135.193 175.24C135.9 175.8 136.38 176.567 136.633 177.54L130.693 180.98C130.88 181.247 131.153 181.467 131.513 181.64C131.887 181.813 132.26 181.9 132.633 181.9ZM132.633 176.14C131.913 176.14 131.28 176.433 130.733 177.02C130.187 177.607 129.913 178.273 129.913 179.02C129.913 179.047 129.927 179.22 129.953 179.54L134.393 176.98C133.967 176.42 133.38 176.14 132.633 176.14ZM142.995 174.38C144.142 174.38 145.022 174.76 145.635 175.52C146.248 176.28 146.555 177.367 146.555 178.78V183.5H144.635V178.78C144.635 177.887 144.475 177.227 144.155 176.8C143.848 176.36 143.342 176.14 142.635 176.14C142.022 176.14 141.508 176.4 141.095 176.92C140.682 177.427 140.475 178.073 140.475 178.86V183.5H138.555V174.54H140.475V175.66C140.662 175.313 140.982 175.013 141.435 174.76C141.888 174.507 142.408 174.38 142.995 174.38ZM158.073 174.54V175.96C158.673 174.907 159.739 174.38 161.273 174.38V176.42C160.686 176.3 160.153 176.327 159.673 176.5C158.606 176.887 158.073 177.88 158.073 179.48V183.5H156.153V174.54H158.073ZM164.952 173.26H163.672L164.952 170.06H166.872L164.952 173.26ZM165.592 183.5H163.672V174.54H165.592V183.5ZM167.837 179.02C167.837 177.74 168.29 176.647 169.197 175.74C170.104 174.833 171.197 174.38 172.477 174.38C173.757 174.38 174.85 174.833 175.757 175.74C176.664 176.647 177.117 177.74 177.117 179.02C177.117 180.3 176.664 181.393 175.757 182.3C174.85 183.207 173.757 183.66 172.477 183.66C171.197 183.66 170.104 183.207 169.197 182.3C168.29 181.393 167.837 180.3 167.837 179.02ZM170.577 181.04C171.11 181.613 171.744 181.9 172.477 181.9C173.224 181.9 173.864 181.613 174.397 181.04C174.93 180.493 175.197 179.82 175.197 179.02C175.197 178.233 174.93 177.553 174.397 176.98C173.864 176.42 173.224 176.14 172.477 176.14C171.757 176.14 171.124 176.42 170.577 176.98C170.03 177.567 169.757 178.247 169.757 179.02C169.757 179.793 170.03 180.467 170.577 181.04ZM182.888 177.9C184.795 178.34 185.748 179.313 185.748 180.82C185.748 181.66 185.435 182.34 184.808 182.86C184.182 183.393 183.435 183.66 182.568 183.66C181.222 183.66 180.042 183.153 179.028 182.14L179.988 180.74C180.762 181.487 181.582 181.873 182.448 181.9C182.862 181.913 183.195 181.82 183.448 181.62C183.702 181.42 183.828 181.187 183.828 180.92C183.828 180.413 183.415 180.047 182.588 179.82C181.428 179.5 180.622 179.133 180.168 178.72C179.728 178.307 179.508 177.72 179.508 176.96C179.508 176.24 179.782 175.633 180.328 175.14C180.888 174.633 181.628 174.38 182.548 174.38C183.495 174.38 184.355 174.687 185.128 175.3L184.228 176.7C183.735 176.327 183.175 176.14 182.548 176.14C182.202 176.14 181.928 176.213 181.728 176.36C181.528 176.507 181.428 176.687 181.428 176.9C181.428 177.153 181.528 177.353 181.728 177.5C181.942 177.633 182.328 177.767 182.888 177.9ZM189.421 183.66C189.021 183.66 188.681 183.52 188.401 183.24C188.121 182.96 187.981 182.62 187.981 182.22C187.981 181.807 188.121 181.467 188.401 181.2C188.681 180.92 189.021 180.78 189.421 180.78C189.835 180.78 190.175 180.92 190.441 181.2C190.721 181.467 190.861 181.807 190.861 182.22C190.861 182.62 190.721 182.96 190.441 183.24C190.175 183.52 189.835 183.66 189.421 183.66Z" fill="white"/>
</svg>
