<svg width="304" height="74" viewBox="0 0 304 74" fill="none" xmlns="http://www.w3.org/2000/svg">
<rect width="304" height="74" rx="8" fill="#E91D24"/>
<path d="M39.2499 12.144H41.1679C42.7452 12.144 43.9772 12.606 44.8639 13.53C45.7505 14.4727 46.1939 15.6533 46.1939 17.072C46.1939 18.4907 45.7459 19.6667 44.8499 20.6C43.9539 21.5333 42.7265 22 41.1679 22H39.2499V12.144ZM40.5939 20.768H41.3779C42.3672 20.768 43.1932 20.4087 43.8559 19.69C44.5185 18.9713 44.8499 18.0987 44.8499 17.072C44.8499 16.0453 44.5185 15.1727 43.8559 14.454C43.1932 13.7353 42.3672 13.376 41.3779 13.376H40.5939V20.768ZM50.7862 20.88C51.3369 20.88 51.8549 20.6373 52.3402 20.152L53.1102 21.132C52.4849 21.7853 51.7102 22.112 50.7862 22.112C49.8902 22.112 49.1249 21.7947 48.4902 21.16C47.8555 20.5253 47.5382 19.76 47.5382 18.864C47.5382 17.968 47.8555 17.2027 48.4902 16.568C49.1249 15.9333 49.8902 15.616 50.7862 15.616C51.4862 15.616 52.0835 15.8167 52.5782 16.218C53.0729 16.61 53.4089 17.1467 53.5862 17.828L49.4282 20.236C49.5589 20.4227 49.7502 20.5767 50.0022 20.698C50.2635 20.8193 50.5249 20.88 50.7862 20.88ZM50.7862 16.848C50.2822 16.848 49.8389 17.0533 49.4562 17.464C49.0735 17.8747 48.8822 18.3413 48.8822 18.864C48.8822 18.8827 48.8915 19.004 48.9102 19.228L52.0182 17.436C51.7195 17.044 51.3089 16.848 50.7862 16.848ZM57.4043 18.08C58.7389 18.388 59.4063 19.0693 59.4063 20.124C59.4063 20.712 59.1869 21.188 58.7483 21.552C58.3096 21.9253 57.7869 22.112 57.1803 22.112C56.2376 22.112 55.4116 21.7573 54.7023 21.048L55.3743 20.068C55.9156 20.5907 56.4896 20.8613 57.0963 20.88C57.3856 20.8893 57.6189 20.824 57.7963 20.684C57.9736 20.544 58.0623 20.3807 58.0623 20.194C58.0623 19.8393 57.7729 19.5827 57.1943 19.424C56.3823 19.2 55.8176 18.9433 55.5003 18.654C55.1923 18.3647 55.0383 17.954 55.0383 17.422C55.0383 16.918 55.2296 16.4933 55.6123 16.148C56.0043 15.7933 56.5223 15.616 57.1663 15.616C57.8289 15.616 58.4309 15.8307 58.9723 16.26L58.3423 17.24C57.9969 16.9787 57.6049 16.848 57.1663 16.848C56.9236 16.848 56.7323 16.8993 56.5923 17.002C56.4523 17.1047 56.3823 17.2307 56.3823 17.38C56.3823 17.5573 56.4523 17.6973 56.5923 17.8C56.7416 17.8933 57.0123 17.9867 57.4043 18.08ZM65.7879 16.512V11.696H67.1319V22H65.7879V21.216C65.2745 21.8133 64.6025 22.112 63.7719 22.112C62.9039 22.112 62.1665 21.7947 61.5599 21.16C60.9439 20.5253 60.6359 19.76 60.6359 18.864C60.6359 17.968 60.9439 17.2027 61.5599 16.568C62.1665 15.9333 62.9039 15.616 63.7719 15.616C64.6025 15.616 65.2745 15.9147 65.7879 16.512ZM62.5399 20.292C62.9039 20.684 63.3519 20.88 63.8839 20.88C64.4065 20.88 64.8592 20.684 65.2419 20.292C65.6059 19.9 65.7879 19.424 65.7879 18.864C65.7879 18.304 65.6059 17.828 65.2419 17.436C64.8592 17.044 64.4065 16.848 63.8839 16.848C63.3519 16.848 62.9039 17.044 62.5399 17.436C62.1665 17.8187 61.9799 18.2947 61.9799 18.864C61.9799 19.4333 62.1665 19.9093 62.5399 20.292ZM71.9503 20.88C72.5009 20.88 73.0189 20.6373 73.5043 20.152L74.2743 21.132C73.6489 21.7853 72.8743 22.112 71.9503 22.112C71.0543 22.112 70.2889 21.7947 69.6543 21.16C69.0196 20.5253 68.7023 19.76 68.7023 18.864C68.7023 17.968 69.0196 17.2027 69.6543 16.568C70.2889 15.9333 71.0543 15.616 71.9503 15.616C72.6503 15.616 73.2476 15.8167 73.7423 16.218C74.2369 16.61 74.5729 17.1467 74.7503 17.828L70.5923 20.236C70.7229 20.4227 70.9143 20.5767 71.1663 20.698C71.4276 20.8193 71.6889 20.88 71.9503 20.88ZM71.9503 16.848C71.4463 16.848 71.0029 17.0533 70.6203 17.464C70.2376 17.8747 70.0463 18.3413 70.0463 18.864C70.0463 18.8827 70.0556 19.004 70.0743 19.228L73.1823 17.436C72.8836 17.044 72.4729 16.848 71.9503 16.848ZM83.8175 20.88C84.3681 20.88 84.8861 20.6373 85.3715 20.152L86.1415 21.132C85.5161 21.7853 84.7415 22.112 83.8175 22.112C82.9215 22.112 82.1561 21.7947 81.5215 21.16C80.8868 20.5253 80.5695 19.76 80.5695 18.864C80.5695 17.968 80.8868 17.2027 81.5215 16.568C82.1561 15.9333 82.9215 15.616 83.8175 15.616C84.5175 15.616 85.1148 15.8167 85.6095 16.218C86.1041 16.61 86.4401 17.1467 86.6175 17.828L82.4595 20.236C82.5901 20.4227 82.7815 20.5767 83.0335 20.698C83.2948 20.8193 83.5561 20.88 83.8175 20.88ZM83.8175 16.848C83.3135 16.848 82.8701 17.0533 82.4875 17.464C82.1048 17.8747 81.9135 18.3413 81.9135 18.864C81.9135 18.8827 81.9228 19.004 81.9415 19.228L85.0495 17.436C84.7508 17.044 84.3401 16.848 83.8175 16.848ZM90.4355 18.08C91.7702 18.388 92.4375 19.0693 92.4375 20.124C92.4375 20.712 92.2182 21.188 91.7795 21.552C91.3409 21.9253 90.8182 22.112 90.2115 22.112C89.2689 22.112 88.4429 21.7573 87.7335 21.048L88.4055 20.068C88.9469 20.5907 89.5209 20.8613 90.1275 20.88C90.4169 20.8893 90.6502 20.824 90.8275 20.684C91.0049 20.544 91.0935 20.3807 91.0935 20.194C91.0935 19.8393 90.8042 19.5827 90.2255 19.424C89.4135 19.2 88.8489 18.9433 88.5315 18.654C88.2235 18.3647 88.0695 17.954 88.0695 17.422C88.0695 16.918 88.2609 16.4933 88.6435 16.148C89.0355 15.7933 89.5535 15.616 90.1975 15.616C90.8602 15.616 91.4622 15.8307 92.0035 16.26L91.3735 17.24C91.0282 16.9787 90.6362 16.848 90.1975 16.848C89.9549 16.848 89.7635 16.8993 89.6235 17.002C89.4835 17.1047 89.4135 17.2307 89.4135 17.38C89.4135 17.5573 89.4835 17.6973 89.6235 17.8C89.7729 17.8933 90.0435 17.9867 90.4355 18.08ZM96.9151 20.88C97.4658 20.88 97.9838 20.6373 98.4691 20.152L99.2391 21.132C98.6138 21.7853 97.8391 22.112 96.9151 22.112C96.0191 22.112 95.2538 21.7947 94.6191 21.16C93.9845 20.5253 93.6671 19.76 93.6671 18.864C93.6671 17.968 93.9845 17.2027 94.6191 16.568C95.2538 15.9333 96.0191 15.616 96.9151 15.616C97.6151 15.616 98.2125 15.8167 98.7071 16.218C99.2018 16.61 99.5378 17.1467 99.7151 17.828L95.5571 20.236C95.6878 20.4227 95.8791 20.5767 96.1311 20.698C96.3925 20.8193 96.6538 20.88 96.9151 20.88ZM96.9151 16.848C96.4111 16.848 95.9678 17.0533 95.5851 17.464C95.2025 17.8747 95.0111 18.3413 95.0111 18.864C95.0111 18.8827 95.0205 19.004 95.0391 19.228L98.1471 17.436C97.8485 17.044 97.4378 16.848 96.9151 16.848ZM113.01 15.616C113.766 15.616 114.35 15.8867 114.76 16.428C115.18 16.96 115.39 17.716 115.39 18.696V22H114.046V18.696C114.046 17.464 113.617 16.848 112.758 16.848C112.348 16.848 112.012 17.0253 111.75 17.38C111.489 17.7253 111.358 18.1827 111.358 18.752V22H110.014V18.696C110.014 17.464 109.585 16.848 108.726 16.848C108.316 16.848 107.98 17.0253 107.718 17.38C107.457 17.7253 107.326 18.1827 107.326 18.752V22H105.982V15.728H107.326V16.512C107.476 16.3067 107.606 16.1527 107.718 16.05C107.83 15.9473 107.994 15.8493 108.208 15.756C108.423 15.6627 108.68 15.616 108.978 15.616C109.865 15.616 110.509 15.9707 110.91 16.68C111.218 16.288 111.526 16.0127 111.834 15.854C112.152 15.6953 112.544 15.616 113.01 15.616ZM116.964 18.864C116.964 17.968 117.281 17.2027 117.916 16.568C118.551 15.9333 119.316 15.616 120.212 15.616C121.108 15.616 121.873 15.9333 122.508 16.568C123.143 17.2027 123.46 17.968 123.46 18.864C123.46 19.76 123.143 20.5253 122.508 21.16C121.873 21.7947 121.108 22.112 120.212 22.112C119.316 22.112 118.551 21.7947 117.916 21.16C117.281 20.5253 116.964 19.76 116.964 18.864ZM118.882 20.278C119.255 20.6793 119.699 20.88 120.212 20.88C120.735 20.88 121.183 20.6793 121.556 20.278C121.929 19.8953 122.116 19.424 122.116 18.864C122.116 18.3133 121.929 17.8373 121.556 17.436C121.183 17.044 120.735 16.848 120.212 16.848C119.708 16.848 119.265 17.044 118.882 17.436C118.499 17.8467 118.308 18.3227 118.308 18.864C118.308 19.4053 118.499 19.8767 118.882 20.278ZM132.055 15.616C132.811 15.616 133.395 15.8867 133.805 16.428C134.225 16.96 134.435 17.716 134.435 18.696V22H133.091V18.696C133.091 17.464 132.662 16.848 131.803 16.848C131.393 16.848 131.057 17.0253 130.795 17.38C130.534 17.7253 130.403 18.1827 130.403 18.752V22H129.059V18.696C129.059 17.464 128.63 16.848 127.771 16.848C127.361 16.848 127.025 17.0253 126.763 17.38C126.502 17.7253 126.371 18.1827 126.371 18.752V22H125.027V15.728H126.371V16.512C126.521 16.3067 126.651 16.1527 126.763 16.05C126.875 15.9473 127.039 15.8493 127.253 15.756C127.468 15.6627 127.725 15.616 128.023 15.616C128.91 15.616 129.554 15.9707 129.955 16.68C130.263 16.288 130.571 16.0127 130.879 15.854C131.197 15.6953 131.589 15.616 132.055 15.616ZM139.257 20.88C139.808 20.88 140.326 20.6373 140.811 20.152L141.581 21.132C140.956 21.7853 140.181 22.112 139.257 22.112C138.361 22.112 137.596 21.7947 136.961 21.16C136.326 20.5253 136.009 19.76 136.009 18.864C136.009 17.968 136.326 17.2027 136.961 16.568C137.596 15.9333 138.361 15.616 139.257 15.616C139.957 15.616 140.554 15.8167 141.049 16.218C141.544 16.61 141.88 17.1467 142.057 17.828L137.899 20.236C138.03 20.4227 138.221 20.5767 138.473 20.698C138.734 20.8193 138.996 20.88 139.257 20.88ZM139.257 16.848C138.753 16.848 138.31 17.0533 137.927 17.464C137.544 17.8747 137.353 18.3413 137.353 18.864C137.353 18.8827 137.362 19.004 137.381 19.228L140.489 17.436C140.19 17.044 139.78 16.848 139.257 16.848ZM146.51 15.616C147.313 15.616 147.929 15.882 148.358 16.414C148.788 16.946 149.002 17.7067 149.002 18.696V22H147.658V18.696C147.658 18.0707 147.546 17.6087 147.322 17.31C147.108 17.002 146.753 16.848 146.258 16.848C145.829 16.848 145.47 17.03 145.18 17.394C144.891 17.7487 144.746 18.2013 144.746 18.752V22H143.402V15.728H144.746V16.512C144.877 16.2693 145.101 16.0593 145.418 15.882C145.736 15.7047 146.1 15.616 146.51 15.616ZM152.924 22H151.58V16.96H150.46V15.728H151.58V13.264L152.924 12.816V15.728H154.716V16.96H152.924V22ZM155.614 18.864C155.614 17.968 155.932 17.2027 156.566 16.568C157.201 15.9333 157.966 15.616 158.862 15.616C159.758 15.616 160.524 15.9333 161.158 16.568C161.793 17.2027 162.11 17.968 162.11 18.864C162.11 19.76 161.793 20.5253 161.158 21.16C160.524 21.7947 159.758 22.112 158.862 22.112C157.966 22.112 157.201 21.7947 156.566 21.16C155.932 20.5253 155.614 19.76 155.614 18.864ZM157.532 20.278C157.906 20.6793 158.349 20.88 158.862 20.88C159.385 20.88 159.833 20.6793 160.206 20.278C160.58 19.8953 160.766 19.424 160.766 18.864C160.766 18.3133 160.58 17.8373 160.206 17.436C159.833 17.044 159.385 16.848 158.862 16.848C158.358 16.848 157.915 17.044 157.532 17.436C157.15 17.8467 156.958 18.3227 156.958 18.864C156.958 19.4053 157.15 19.8767 157.532 20.278ZM164.904 23.568H163.896V20.432H165.464L164.904 23.568ZM174.982 20.88C175.532 20.88 176.05 20.6373 176.536 20.152L177.306 21.132C176.68 21.7853 175.906 22.112 174.982 22.112C174.086 22.112 173.32 21.7947 172.686 21.16C172.051 20.5253 171.734 19.76 171.734 18.864C171.734 17.968 172.051 17.2027 172.686 16.568C173.32 15.9333 174.086 15.616 174.982 15.616C175.682 15.616 176.279 15.8167 176.774 16.218C177.268 16.61 177.604 17.1467 177.782 17.828L173.624 20.236C173.754 20.4227 173.946 20.5767 174.198 20.698C174.459 20.8193 174.72 20.88 174.982 20.88ZM174.982 16.848C174.478 16.848 174.034 17.0533 173.652 17.464C173.269 17.8747 173.078 18.3413 173.078 18.864C173.078 18.8827 173.087 19.004 173.106 19.228L176.214 17.436C175.915 17.044 175.504 16.848 174.982 16.848ZM179.127 22V11.696H180.471V22H179.127ZM188.756 21.216V25.36H187.412V15.728H188.756V16.512C189.269 15.9147 189.941 15.616 190.772 15.616C191.64 15.616 192.382 15.9333 192.998 16.568C193.605 17.2027 193.908 17.968 193.908 18.864C193.908 19.76 193.605 20.5253 192.998 21.16C192.382 21.7947 191.64 22.112 190.772 22.112C189.941 22.112 189.269 21.8133 188.756 21.216ZM192.018 17.436C191.635 17.044 191.183 16.848 190.66 16.848C190.128 16.848 189.68 17.044 189.316 17.436C188.943 17.8187 188.756 18.2947 188.756 18.864C188.756 19.4333 188.943 19.9093 189.316 20.292C189.68 20.684 190.128 20.88 190.66 20.88C191.183 20.88 191.635 20.684 192.018 20.292C192.382 19.9 192.564 19.424 192.564 18.864C192.564 18.304 192.382 17.828 192.018 17.436ZM198.497 20.88C199.048 20.88 199.566 20.6373 200.051 20.152L200.821 21.132C200.196 21.7853 199.421 22.112 198.497 22.112C197.601 22.112 196.836 21.7947 196.201 21.16C195.566 20.5253 195.249 19.76 195.249 18.864C195.249 17.968 195.566 17.2027 196.201 16.568C196.836 15.9333 197.601 15.616 198.497 15.616C199.197 15.616 199.794 15.8167 200.289 16.218C200.784 16.61 201.12 17.1467 201.297 17.828L197.139 20.236C197.27 20.4227 197.461 20.5767 197.713 20.698C197.974 20.8193 198.236 20.88 198.497 20.88ZM198.497 16.848C197.993 16.848 197.55 17.0533 197.167 17.464C196.784 17.8747 196.593 18.3413 196.593 18.864C196.593 18.8827 196.602 19.004 196.621 19.228L199.729 17.436C199.43 17.044 199.02 16.848 198.497 16.848ZM203.986 15.728V16.722C204.406 15.9847 205.153 15.616 206.226 15.616V17.044C205.816 16.96 205.442 16.9787 205.106 17.1C204.36 17.3707 203.986 18.066 203.986 19.186V22H202.642V15.728H203.986ZM209.36 15.728V16.722C209.78 15.9847 210.526 15.616 211.6 15.616V17.044C211.189 16.96 210.816 16.9787 210.48 17.1C209.733 17.3707 209.36 18.066 209.36 19.186V22H208.016V15.728H209.36ZM212.489 18.864C212.489 17.968 212.807 17.2027 213.441 16.568C214.076 15.9333 214.841 15.616 215.737 15.616C216.633 15.616 217.399 15.9333 218.033 16.568C218.668 17.2027 218.985 17.968 218.985 18.864C218.985 19.76 218.668 20.5253 218.033 21.16C217.399 21.7947 216.633 22.112 215.737 22.112C214.841 22.112 214.076 21.7947 213.441 21.16C212.807 20.5253 212.489 19.76 212.489 18.864ZM214.407 20.278C214.781 20.6793 215.224 20.88 215.737 20.88C216.26 20.88 216.708 20.6793 217.081 20.278C217.455 19.8953 217.641 19.424 217.641 18.864C217.641 18.3133 217.455 17.8373 217.081 17.436C216.708 17.044 216.26 16.848 215.737 16.848C215.233 16.848 214.79 17.044 214.407 17.436C214.025 17.8467 213.833 18.3227 213.833 18.864C213.833 19.4053 214.025 19.8767 214.407 20.278ZM221.779 23.568H220.771V20.432H222.339L221.779 23.568ZM229.057 22V11.696H230.401V22H229.057ZM234.797 22.112C233.995 22.112 233.379 21.846 232.949 21.314C232.52 20.782 232.305 20.0213 232.305 19.032V15.728H233.649V19.144C233.649 20.3013 234.116 20.88 235.049 20.88C235.479 20.88 235.838 20.6933 236.127 20.32C236.417 19.9467 236.561 19.4613 236.561 18.864V15.728H237.905V22H236.561V21.216C236.431 21.4587 236.207 21.6687 235.889 21.846C235.572 22.0233 235.208 22.112 234.797 22.112ZM242.726 20.88C243.276 20.88 243.794 20.6373 244.28 20.152L245.05 21.132C244.424 21.7853 243.65 22.112 242.726 22.112C241.83 22.112 241.064 21.7947 240.43 21.16C239.795 20.5253 239.478 19.76 239.478 18.864C239.478 17.968 239.795 17.2027 240.43 16.568C241.064 15.9333 241.83 15.616 242.726 15.616C243.426 15.616 244.023 15.8167 244.518 16.218C245.012 16.61 245.348 17.1467 245.526 17.828L241.368 20.236C241.498 20.4227 241.69 20.5767 241.942 20.698C242.203 20.8193 242.464 20.88 242.726 20.88ZM242.726 16.848C242.222 16.848 241.778 17.0533 241.396 17.464C241.013 17.8747 240.822 18.3413 240.822 18.864C240.822 18.8827 240.831 19.004 240.85 19.228L243.958 17.436C243.659 17.044 243.248 16.848 242.726 16.848ZM251.794 16.512V15.728H253.138V21.636C253.138 22.9427 252.816 23.9133 252.172 24.548C251.528 25.164 250.692 25.472 249.666 25.472C249.246 25.472 248.798 25.3927 248.322 25.234C247.874 25.0847 247.538 24.898 247.314 24.674L247.916 23.582C248.41 24.0207 248.994 24.24 249.666 24.24C250.347 24.24 250.87 24.03 251.234 23.61C251.607 23.19 251.794 22.5973 251.794 21.832V21.216C251.28 21.8133 250.608 22.112 249.778 22.112C248.91 22.112 248.172 21.7947 247.566 21.16C246.95 20.5253 246.642 19.76 246.642 18.864C246.642 17.968 246.95 17.2027 247.566 16.568C248.172 15.9333 248.91 15.616 249.778 15.616C250.608 15.616 251.28 15.9147 251.794 16.512ZM248.546 20.292C248.91 20.684 249.358 20.88 249.89 20.88C250.412 20.88 250.865 20.684 251.248 20.292C251.612 19.9 251.794 19.424 251.794 18.864C251.794 18.304 251.612 17.828 251.248 17.436C250.865 17.044 250.412 16.848 249.89 16.848C249.358 16.848 248.91 17.044 248.546 17.436C248.172 17.8187 247.986 18.2947 247.986 18.864C247.986 19.4333 248.172 19.9093 248.546 20.292ZM254.708 18.864C254.708 17.968 255.025 17.2027 255.66 16.568C256.295 15.9333 257.06 15.616 257.956 15.616C258.852 15.616 259.617 15.9333 260.252 16.568C260.887 17.2027 261.204 17.968 261.204 18.864C261.204 19.76 260.887 20.5253 260.252 21.16C259.617 21.7947 258.852 22.112 257.956 22.112C257.06 22.112 256.295 21.7947 255.66 21.16C255.025 20.5253 254.708 19.76 254.708 18.864ZM256.626 20.278C256.999 20.6793 257.443 20.88 257.956 20.88C258.479 20.88 258.927 20.6793 259.3 20.278C259.673 19.8953 259.86 19.424 259.86 18.864C259.86 18.3133 259.673 17.8373 259.3 17.436C258.927 17.044 258.479 16.848 257.956 16.848C257.452 16.848 257.009 17.044 256.626 17.436C256.243 17.8467 256.052 18.3227 256.052 18.864C256.052 19.4053 256.243 19.8767 256.626 20.278ZM25.1884 40V29.696H26.5324V40H25.1884ZM28.661 40V29.696H30.005V40H28.661ZM37.2857 37.06V40H35.9417V39.188C35.419 39.804 34.7703 40.112 33.9957 40.112C33.3237 40.112 32.773 39.9113 32.3437 39.51C31.905 39.118 31.6857 38.614 31.6857 37.998C31.6857 37.41 31.9003 36.9293 32.3297 36.556C32.7683 36.1827 33.2957 35.982 33.9117 35.954C34.537 35.926 35.1997 36.052 35.8997 36.332C35.8437 35.3427 35.3723 34.848 34.4857 34.848C33.9537 34.848 33.4683 34.9833 33.0297 35.254L32.4697 34.288C33.0577 33.84 33.7483 33.616 34.5417 33.616C36.371 33.616 37.2857 34.764 37.2857 37.06ZM35.9417 37.438C35.6243 37.2513 35.2323 37.144 34.7657 37.116C34.299 37.088 33.8883 37.158 33.5337 37.326C33.1883 37.4847 33.0203 37.7227 33.0297 38.04C33.0297 38.2827 33.1277 38.4833 33.3237 38.642C33.529 38.8007 33.795 38.88 34.1217 38.88C34.551 38.88 34.9477 38.74 35.3117 38.46C35.6757 38.18 35.8857 37.8393 35.9417 37.438ZM46.2164 33.616C46.9724 33.616 47.5557 33.8867 47.9664 34.428C48.3864 34.96 48.5964 35.716 48.5964 36.696V40H47.2524V36.696C47.2524 35.464 46.823 34.848 45.9644 34.848C45.5537 34.848 45.2177 35.0253 44.9564 35.38C44.695 35.7253 44.5644 36.1827 44.5644 36.752V40H43.2204V36.696C43.2204 35.464 42.791 34.848 41.9324 34.848C41.5217 34.848 41.1857 35.0253 40.9244 35.38C40.663 35.7253 40.5324 36.1827 40.5324 36.752V40H39.1884V33.728H40.5324V34.512C40.6817 34.3067 40.8124 34.1527 40.9244 34.05C41.0364 33.9473 41.1997 33.8493 41.4144 33.756C41.629 33.6627 41.8857 33.616 42.1844 33.616C43.071 33.616 43.715 33.9707 44.1164 34.68C44.4244 34.288 44.7324 34.0127 45.0404 33.854C45.3577 33.6953 45.7497 33.616 46.2164 33.616ZM55.77 37.06V40H54.426V39.188C53.9034 39.804 53.2547 40.112 52.48 40.112C51.808 40.112 51.2574 39.9113 50.828 39.51C50.3894 39.118 50.17 38.614 50.17 37.998C50.17 37.41 50.3847 36.9293 50.814 36.556C51.2527 36.1827 51.78 35.982 52.396 35.954C53.0214 35.926 53.684 36.052 54.384 36.332C54.328 35.3427 53.8567 34.848 52.97 34.848C52.438 34.848 51.9527 34.9833 51.514 35.254L50.954 34.288C51.542 33.84 52.2327 33.616 53.026 33.616C54.8554 33.616 55.77 34.764 55.77 37.06ZM54.426 37.438C54.1087 37.2513 53.7167 37.144 53.25 37.116C52.7834 37.088 52.3727 37.158 52.018 37.326C51.6727 37.4847 51.5047 37.7227 51.514 38.04C51.514 38.2827 51.612 38.4833 51.808 38.642C52.0134 38.8007 52.2794 38.88 52.606 38.88C53.0354 38.88 53.432 38.74 53.796 38.46C54.16 38.18 54.37 37.8393 54.426 37.438ZM62.4861 34.512V29.696H63.8301V40H62.4861V39.216C61.9728 39.8133 61.3008 40.112 60.4701 40.112C59.6021 40.112 58.8648 39.7947 58.2581 39.16C57.6421 38.5253 57.3341 37.76 57.3341 36.864C57.3341 35.968 57.6421 35.2027 58.2581 34.568C58.8648 33.9333 59.6021 33.616 60.4701 33.616C61.3008 33.616 61.9728 33.9147 62.4861 34.512ZM59.2381 38.292C59.6021 38.684 60.0501 38.88 60.5821 38.88C61.1048 38.88 61.5574 38.684 61.9401 38.292C62.3041 37.9 62.4861 37.424 62.4861 36.864C62.4861 36.304 62.3041 35.828 61.9401 35.436C61.5574 35.044 61.1048 34.848 60.5821 34.848C60.0501 34.848 59.6021 35.044 59.2381 35.436C58.8648 35.8187 58.6781 36.2947 58.6781 36.864C58.6781 37.4333 58.8648 37.9093 59.2381 38.292ZM65.4005 36.864C65.4005 35.968 65.7178 35.2027 66.3525 34.568C66.9872 33.9333 67.7525 33.616 68.6485 33.616C69.5445 33.616 70.3098 33.9333 70.9445 34.568C71.5792 35.2027 71.8965 35.968 71.8965 36.864C71.8965 37.76 71.5792 38.5253 70.9445 39.16C70.3098 39.7947 69.5445 40.112 68.6485 40.112C67.7525 40.112 66.9872 39.7947 66.3525 39.16C65.7178 38.5253 65.4005 37.76 65.4005 36.864ZM67.3185 38.278C67.6918 38.6793 68.1352 38.88 68.6485 38.88C69.1712 38.88 69.6192 38.6793 69.9925 38.278C70.3658 37.8953 70.5525 37.424 70.5525 36.864C70.5525 36.3133 70.3658 35.8373 69.9925 35.436C69.6192 35.044 69.1712 34.848 68.6485 34.848C68.1445 34.848 67.7012 35.044 67.3185 35.436C66.9358 35.8467 66.7445 36.3227 66.7445 36.864C66.7445 37.4053 66.9358 37.8767 67.3185 38.278ZM86.4496 40H84.9936L84.3776 38.6H79.5616L78.9456 40H77.4896L81.9696 29.92L86.4496 40ZM81.9696 33.056L80.0936 37.368H83.8456L81.9696 33.056ZM89.1359 33.728V34.722C89.5559 33.9847 90.3025 33.616 91.3759 33.616V35.044C90.9652 34.96 90.5919 34.9787 90.2559 35.1C89.5092 35.3707 89.1359 36.066 89.1359 37.186V40H87.7919V33.728H89.1359ZM95.2903 40H93.9463V34.96H92.8263V33.728H93.9463V31.264L95.2903 30.816V33.728H97.0823V34.96H95.2903V40ZM101.988 33.616C102.79 33.616 103.406 33.882 103.836 34.414C104.265 34.946 104.48 35.7067 104.48 36.696V40H103.136V36.696C103.136 36.0707 103.024 35.6087 102.8 35.31C102.585 35.002 102.23 34.848 101.736 34.848C101.306 34.848 100.947 35.03 100.658 35.394C100.368 35.7487 100.224 36.2013 100.224 36.752V40H98.8798V29.696H100.224V34.512C100.354 34.2693 100.578 34.0593 100.896 33.882C101.213 33.7047 101.577 33.616 101.988 33.616ZM108.654 40.112C107.851 40.112 107.235 39.846 106.806 39.314C106.376 38.782 106.162 38.0213 106.162 37.032V33.728H107.506V37.144C107.506 38.3013 107.972 38.88 108.906 38.88C109.335 38.88 109.694 38.6933 109.984 38.32C110.273 37.9467 110.418 37.4613 110.418 36.864V33.728H111.762V40H110.418V39.216C110.287 39.4587 110.063 39.6687 109.746 39.846C109.428 40.0233 109.064 40.112 108.654 40.112ZM115.235 33.728V34.722C115.655 33.9847 116.402 33.616 117.475 33.616V35.044C117.065 34.96 116.691 34.9787 116.355 35.1C115.609 35.3707 115.235 36.066 115.235 37.186V40H113.891V33.728H115.235ZM120.273 41.568H119.265V38.432H120.833L120.273 41.568ZM129.804 36.08C131.138 36.388 131.806 37.0693 131.806 38.124C131.806 38.712 131.586 39.188 131.148 39.552C130.709 39.9253 130.186 40.112 129.58 40.112C128.637 40.112 127.811 39.7573 127.102 39.048L127.774 38.068C128.315 38.5907 128.889 38.8613 129.496 38.88C129.785 38.8893 130.018 38.824 130.196 38.684C130.373 38.544 130.462 38.3807 130.462 38.194C130.462 37.8393 130.172 37.5827 129.594 37.424C128.782 37.2 128.217 36.9433 127.9 36.654C127.592 36.3647 127.438 35.954 127.438 35.422C127.438 34.918 127.629 34.4933 128.012 34.148C128.404 33.7933 128.922 33.616 129.566 33.616C130.228 33.616 130.83 33.8307 131.372 34.26L130.742 35.24C130.396 34.9787 130.004 34.848 129.566 34.848C129.323 34.848 129.132 34.8993 128.992 35.002C128.852 35.1047 128.782 35.2307 128.782 35.38C128.782 35.5573 128.852 35.6973 128.992 35.8C129.141 35.8933 129.412 35.9867 129.804 36.08ZM135.163 31.6C135.163 31.88 135.065 32.118 134.869 32.314C134.673 32.51 134.435 32.608 134.155 32.608C133.875 32.608 133.637 32.51 133.441 32.314C133.245 32.118 133.147 31.88 133.147 31.6C133.147 31.32 133.245 31.082 133.441 30.886C133.637 30.69 133.875 30.592 134.155 30.592C134.435 30.592 134.673 30.69 134.869 30.886C135.065 31.082 135.163 31.32 135.163 31.6ZM134.827 40H133.483V33.728H134.827V40ZM141.66 34.512V33.728H143.004V39.636C143.004 40.9427 142.682 41.9133 142.038 42.548C141.394 43.164 140.559 43.472 139.532 43.472C139.112 43.472 138.664 43.3927 138.188 43.234C137.74 43.0847 137.404 42.898 137.18 42.674L137.782 41.582C138.277 42.0207 138.86 42.24 139.532 42.24C140.213 42.24 140.736 42.03 141.1 41.61C141.473 41.19 141.66 40.5973 141.66 39.832V39.216C141.147 39.8133 140.475 40.112 139.644 40.112C138.776 40.112 138.039 39.7947 137.432 39.16C136.816 38.5253 136.508 37.76 136.508 36.864C136.508 35.968 136.816 35.2027 137.432 34.568C138.039 33.9333 138.776 33.616 139.644 33.616C140.475 33.616 141.147 33.9147 141.66 34.512ZM138.412 38.292C138.776 38.684 139.224 38.88 139.756 38.88C140.279 38.88 140.731 38.684 141.114 38.292C141.478 37.9 141.66 37.424 141.66 36.864C141.66 36.304 141.478 35.828 141.114 35.436C140.731 35.044 140.279 34.848 139.756 34.848C139.224 34.848 138.776 35.044 138.412 35.436C138.039 35.8187 137.852 36.2947 137.852 36.864C137.852 37.4333 138.039 37.9093 138.412 38.292ZM147.4 40.112C146.597 40.112 145.981 39.846 145.552 39.314C145.122 38.782 144.908 38.0213 144.908 37.032V33.728H146.252V37.144C146.252 38.3013 146.718 38.88 147.652 38.88C148.081 38.88 148.44 38.6933 148.73 38.32C149.019 37.9467 149.164 37.4613 149.164 36.864V33.728H150.508V40H149.164V39.216C149.033 39.4587 148.809 39.6687 148.492 39.846C148.174 40.0233 147.81 40.112 147.4 40.112ZM154.318 31.6C154.318 31.88 154.22 32.118 154.024 32.314C153.828 32.51 153.59 32.608 153.31 32.608C153.03 32.608 152.792 32.51 152.596 32.314C152.4 32.118 152.302 31.88 152.302 31.6C152.302 31.32 152.4 31.082 152.596 30.886C152.792 30.69 153.03 30.592 153.31 30.592C153.59 30.592 153.828 30.69 154.024 30.886C154.22 31.082 154.318 31.32 154.318 31.6ZM153.982 40H152.638V33.728H153.982V40ZM159.025 32.832H158.129L159.025 30.592H160.369L159.025 32.832ZM155.553 36.864C155.553 35.968 155.87 35.2027 156.505 34.568C157.14 33.9333 157.905 33.616 158.801 33.616C159.697 33.616 160.462 33.9333 161.097 34.568C161.732 35.2027 162.049 35.968 162.049 36.864C162.049 37.76 161.732 38.5253 161.097 39.16C160.462 39.7947 159.697 40.112 158.801 40.112C157.905 40.112 157.14 39.7947 156.505 39.16C155.87 38.5253 155.553 37.76 155.553 36.864ZM157.471 38.278C157.844 38.6793 158.288 38.88 158.801 38.88C159.324 38.88 159.772 38.6793 160.145 38.278C160.518 37.8953 160.705 37.424 160.705 36.864C160.705 36.3133 160.518 35.8373 160.145 35.436C159.772 35.044 159.324 34.848 158.801 34.848C158.297 34.848 157.854 35.044 157.471 35.436C157.088 35.8467 156.897 36.3227 156.897 36.864C156.897 37.4053 157.088 37.8767 157.471 38.278ZM173.69 37.06V40H172.346V39.188C171.823 39.804 171.175 40.112 170.4 40.112C169.728 40.112 169.177 39.9113 168.748 39.51C168.309 39.118 168.09 38.614 168.09 37.998C168.09 37.41 168.305 36.9293 168.734 36.556C169.173 36.1827 169.7 35.982 170.316 35.954C170.941 35.926 171.604 36.052 172.304 36.332C172.248 35.3427 171.777 34.848 170.89 34.848C170.358 34.848 169.873 34.9833 169.434 35.254L168.874 34.288C169.462 33.84 170.153 33.616 170.946 33.616C172.775 33.616 173.69 34.764 173.69 37.06ZM172.346 37.438C172.029 37.2513 171.637 37.144 171.17 37.116C170.703 37.088 170.293 37.158 169.938 37.326C169.593 37.4847 169.425 37.7227 169.434 38.04C169.434 38.2827 169.532 38.4833 169.728 38.642C169.933 38.8007 170.199 38.88 170.526 38.88C170.955 38.88 171.352 38.74 171.716 38.46C172.08 38.18 172.29 37.8393 172.346 37.438ZM175.593 40V29.696H176.937V40H175.593ZM186.678 38.88C187.228 38.88 187.746 38.6373 188.232 38.152L189.002 39.132C188.376 39.7853 187.602 40.112 186.678 40.112C185.782 40.112 185.016 39.7947 184.382 39.16C183.747 38.5253 183.43 37.76 183.43 36.864C183.43 35.968 183.747 35.2027 184.382 34.568C185.016 33.9333 185.782 33.616 186.678 33.616C187.378 33.616 187.975 33.8167 188.47 34.218C188.964 34.61 189.3 35.1467 189.478 35.828L185.32 38.236C185.45 38.4227 185.642 38.5767 185.894 38.698C186.155 38.8193 186.416 38.88 186.678 38.88ZM186.678 34.848C186.174 34.848 185.73 35.0533 185.348 35.464C184.965 35.8747 184.774 36.3413 184.774 36.864C184.774 36.8827 184.783 37.004 184.802 37.228L187.91 35.436C187.611 35.044 187.2 34.848 186.678 34.848ZM197.09 43.36H195.746V39.216C195.233 39.8133 194.561 40.112 193.73 40.112C192.862 40.112 192.125 39.7947 191.518 39.16C190.902 38.5253 190.594 37.76 190.594 36.864C190.594 35.968 190.902 35.2027 191.518 34.568C192.125 33.9333 192.862 33.616 193.73 33.616C194.561 33.616 195.233 33.9147 195.746 34.512V33.728H197.09V43.36ZM195.2 35.436C194.817 35.044 194.365 34.848 193.842 34.848C193.31 34.848 192.862 35.044 192.498 35.436C192.125 35.8187 191.938 36.2947 191.938 36.864C191.938 37.4333 192.125 37.9093 192.498 38.292C192.862 38.684 193.31 38.88 193.842 38.88C194.365 38.88 194.817 38.684 195.2 38.292C195.564 37.9 195.746 37.424 195.746 36.864C195.746 36.304 195.564 35.828 195.2 35.436ZM201.486 40.112C200.683 40.112 200.067 39.846 199.638 39.314C199.208 38.782 198.994 38.0213 198.994 37.032V33.728H200.338V37.144C200.338 38.3013 200.804 38.88 201.738 38.88C202.167 38.88 202.526 38.6933 202.816 38.32C203.105 37.9467 203.25 37.4613 203.25 36.864V33.728H204.594V40H203.25V39.216C203.119 39.4587 202.895 39.6687 202.578 39.846C202.26 40.0233 201.896 40.112 201.486 40.112ZM208.404 31.6C208.404 31.88 208.306 32.118 208.11 32.314C207.914 32.51 207.676 32.608 207.396 32.608C207.116 32.608 206.878 32.51 206.682 32.314C206.486 32.118 206.388 31.88 206.388 31.6C206.388 31.32 206.486 31.082 206.682 30.886C206.878 30.69 207.116 30.592 207.396 30.592C207.676 30.592 207.914 30.69 208.11 30.886C208.306 31.082 208.404 31.32 208.404 31.6ZM208.068 40H206.724V33.728H208.068V40ZM211.54 39.216V43.36H210.196V33.728H211.54V34.512C212.054 33.9147 212.726 33.616 213.556 33.616C214.424 33.616 215.166 33.9333 215.782 34.568C216.389 35.2027 216.692 35.968 216.692 36.864C216.692 37.76 216.389 38.5253 215.782 39.16C215.166 39.7947 214.424 40.112 213.556 40.112C212.726 40.112 212.054 39.8133 211.54 39.216ZM214.802 35.436C214.42 35.044 213.967 34.848 213.444 34.848C212.912 34.848 212.464 35.044 212.1 35.436C211.727 35.8187 211.54 36.2947 211.54 36.864C211.54 37.4333 211.727 37.9093 212.1 38.292C212.464 38.684 212.912 38.88 213.444 38.88C213.967 38.88 214.42 38.684 214.802 38.292C215.166 37.9 215.348 37.424 215.348 36.864C215.348 36.304 215.166 35.828 214.802 35.436ZM218.033 36.864C218.033 35.968 218.351 35.2027 218.985 34.568C219.62 33.9333 220.385 33.616 221.281 33.616C222.177 33.616 222.943 33.9333 223.577 34.568C224.212 35.2027 224.529 35.968 224.529 36.864C224.529 37.76 224.212 38.5253 223.577 39.16C222.943 39.7947 222.177 40.112 221.281 40.112C220.385 40.112 219.62 39.7947 218.985 39.16C218.351 38.5253 218.033 37.76 218.033 36.864ZM219.951 38.278C220.325 38.6793 220.768 38.88 221.281 38.88C221.804 38.88 222.252 38.6793 222.625 38.278C222.999 37.8953 223.185 37.424 223.185 36.864C223.185 36.3133 222.999 35.8373 222.625 35.436C222.252 35.044 221.804 34.848 221.281 34.848C220.777 34.848 220.334 35.044 219.951 35.436C219.569 35.8467 219.377 36.3227 219.377 36.864C219.377 37.4053 219.569 37.8767 219.951 38.278ZM227.323 41.568H226.315V38.432H227.883L227.323 41.568ZM236.28 31.6C236.28 31.88 236.182 32.118 235.986 32.314C235.79 32.51 235.552 32.608 235.272 32.608C234.992 32.608 234.754 32.51 234.558 32.314C234.362 32.118 234.264 31.88 234.264 31.6C234.264 31.32 234.362 31.082 234.558 30.886C234.754 30.69 234.992 30.592 235.272 30.592C235.552 30.592 235.79 30.69 235.986 30.886C236.182 31.082 236.28 31.32 236.28 31.6ZM235.944 40H234.6V33.728H235.944V40ZM241.181 33.616C241.984 33.616 242.6 33.882 243.029 34.414C243.458 34.946 243.673 35.7067 243.673 36.696V40H242.329V36.696C242.329 36.0707 242.217 35.6087 241.993 35.31C241.778 35.002 241.424 34.848 240.929 34.848C240.5 34.848 240.14 35.03 239.851 35.394C239.562 35.7487 239.417 36.2013 239.417 36.752V40H238.073V33.728H239.417V34.512C239.548 34.2693 239.772 34.0593 240.089 33.882C240.406 33.7047 240.77 33.616 241.181 33.616ZM248.488 38.88C249.076 38.88 249.543 38.6933 249.888 38.32L250.616 39.328C250.01 39.8507 249.3 40.112 248.488 40.112C247.592 40.112 246.827 39.7947 246.192 39.16C245.558 38.5253 245.24 37.76 245.24 36.864C245.24 35.968 245.558 35.2027 246.192 34.568C246.827 33.9333 247.592 33.616 248.488 33.616C249.3 33.616 250.01 33.8773 250.616 34.4L249.888 35.408C249.543 35.0347 249.076 34.848 248.488 34.848C247.984 34.848 247.541 35.044 247.158 35.436C246.776 35.8467 246.584 36.3227 246.584 36.864C246.584 37.4053 246.776 37.8767 247.158 38.278C247.532 38.6793 247.975 38.88 248.488 38.88ZM252.306 40V29.696H253.65V40H252.306ZM258.046 40.112C257.244 40.112 256.628 39.846 256.198 39.314C255.769 38.782 255.554 38.0213 255.554 37.032V33.728H256.898V37.144C256.898 38.3013 257.365 38.88 258.298 38.88C258.728 38.88 259.087 38.6933 259.376 38.32C259.666 37.9467 259.81 37.4613 259.81 36.864V33.728H261.154V40H259.81V39.216C259.68 39.4587 259.456 39.6687 259.138 39.846C258.821 40.0233 258.457 40.112 258.046 40.112ZM265.538 36.08C266.873 36.388 267.54 37.0693 267.54 38.124C267.54 38.712 267.321 39.188 266.882 39.552C266.443 39.9253 265.921 40.112 265.314 40.112C264.371 40.112 263.545 39.7573 262.836 39.048L263.508 38.068C264.049 38.5907 264.623 38.8613 265.23 38.88C265.519 38.8893 265.753 38.824 265.93 38.684C266.107 38.544 266.196 38.3807 266.196 38.194C266.196 37.8393 265.907 37.5827 265.328 37.424C264.516 37.2 263.951 36.9433 263.634 36.654C263.326 36.3647 263.172 35.954 263.172 35.422C263.172 34.918 263.363 34.4933 263.746 34.148C264.138 33.7933 264.656 33.616 265.3 33.616C265.963 33.616 266.565 33.8307 267.106 34.26L266.476 35.24C266.131 34.9787 265.739 34.848 265.3 34.848C265.057 34.848 264.866 34.8993 264.726 35.002C264.586 35.1047 264.516 35.2307 264.516 35.38C264.516 35.5573 264.586 35.6973 264.726 35.8C264.875 35.8933 265.146 35.9867 265.538 36.08ZM268.77 36.864C268.77 35.968 269.087 35.2027 269.722 34.568C270.356 33.9333 271.122 33.616 272.018 33.616C272.914 33.616 273.679 33.9333 274.314 34.568C274.948 35.2027 275.266 35.968 275.266 36.864C275.266 37.76 274.948 38.5253 274.314 39.16C273.679 39.7947 272.914 40.112 272.018 40.112C271.122 40.112 270.356 39.7947 269.722 39.16C269.087 38.5253 268.77 37.76 268.77 36.864ZM270.688 38.278C271.061 38.6793 271.504 38.88 272.018 38.88C272.54 38.88 272.988 38.6793 273.362 38.278C273.735 37.8953 273.922 37.424 273.922 36.864C273.922 36.3133 273.735 35.8373 273.362 35.436C272.988 35.044 272.54 34.848 272.018 34.848C271.514 34.848 271.07 35.044 270.688 35.436C270.305 35.8467 270.114 36.3227 270.114 36.864C270.114 37.4053 270.305 37.8767 270.688 38.278ZM43.0552 55.06V58H41.7112V57.188C41.1885 57.804 40.5399 58.112 39.7652 58.112C39.0932 58.112 38.5425 57.9113 38.1132 57.51C37.6745 57.118 37.4552 56.614 37.4552 55.998C37.4552 55.41 37.6699 54.9293 38.0992 54.556C38.5379 54.1827 39.0652 53.982 39.6812 53.954C40.3065 53.926 40.9692 54.052 41.6692 54.332C41.6132 53.3427 41.1419 52.848 40.2552 52.848C39.7232 52.848 39.2379 52.9833 38.7992 53.254L38.2392 52.288C38.8272 51.84 39.5179 51.616 40.3112 51.616C42.1405 51.616 43.0552 52.764 43.0552 55.06ZM41.7112 55.438C41.3939 55.2513 41.0019 55.144 40.5352 55.116C40.0685 55.088 39.6579 55.158 39.3032 55.326C38.9579 55.4847 38.7899 55.7227 38.7992 56.04C38.7992 56.2827 38.8972 56.4833 39.0932 56.642C39.2985 56.8007 39.5645 56.88 39.8912 56.88C40.3205 56.88 40.7172 56.74 41.0812 56.46C41.4452 56.18 41.6552 55.8393 41.7112 55.438ZM46.9739 58H45.6299V52.96H44.5099V51.728H45.6299V49.264L46.9739 48.816V51.728H48.7659V52.96H46.9739V58ZM51.9074 51.728V52.722C52.3274 51.9847 53.074 51.616 54.1474 51.616V53.044C53.7367 52.96 53.3634 52.9787 53.0274 53.1C52.2807 53.3707 51.9074 54.066 51.9074 55.186V58H50.5634V51.728H51.9074ZM60.6372 55.06V58H59.2932V57.188C58.7706 57.804 58.1219 58.112 57.3472 58.112C56.6752 58.112 56.1246 57.9113 55.6952 57.51C55.2566 57.118 55.0372 56.614 55.0372 55.998C55.0372 55.41 55.2519 54.9293 55.6812 54.556C56.1199 54.1827 56.6472 53.982 57.2632 53.954C57.8886 53.926 58.5512 54.052 59.2512 54.332C59.1952 53.3427 58.7239 52.848 57.8372 52.848C57.3052 52.848 56.8199 52.9833 56.3812 53.254L55.8212 52.288C56.4092 51.84 57.0999 51.616 57.8932 51.616C59.7226 51.616 60.6372 52.764 60.6372 55.06ZM59.2932 55.438C58.9759 55.2513 58.5839 55.144 58.1172 55.116C57.6506 55.088 57.2399 55.158 56.8852 55.326C56.5399 55.4847 56.3719 55.7227 56.3812 56.04C56.3812 56.2827 56.4792 56.4833 56.6752 56.642C56.8806 56.8007 57.1466 56.88 57.4732 56.88C57.9026 56.88 58.2992 56.74 58.6632 56.46C59.0272 56.18 59.2372 55.8393 59.2932 55.438ZM67.8013 51.728L64.7773 58.224L61.7533 51.728H63.2093L64.7773 55.2L66.3453 51.728H67.8013ZM71.7247 56.88C72.2754 56.88 72.7934 56.6373 73.2787 56.152L74.0487 57.132C73.4234 57.7853 72.6487 58.112 71.7247 58.112C70.8287 58.112 70.0634 57.7947 69.4287 57.16C68.794 56.5253 68.4767 55.76 68.4767 54.864C68.4767 53.968 68.794 53.2027 69.4287 52.568C70.0634 51.9333 70.8287 51.616 71.7247 51.616C72.4247 51.616 73.022 51.8167 73.5167 52.218C74.0114 52.61 74.3474 53.1467 74.5247 53.828L70.3667 56.236C70.4974 56.4227 70.6887 56.5767 70.9407 56.698C71.202 56.8193 71.4634 56.88 71.7247 56.88ZM71.7247 52.848C71.2207 52.848 70.7774 53.0533 70.3947 53.464C70.012 53.8747 69.8207 54.3413 69.8207 54.864C69.8207 54.8827 69.83 55.004 69.8487 55.228L72.9567 53.436C72.658 53.044 72.2474 52.848 71.7247 52.848ZM78.3428 54.08C79.6774 54.388 80.3448 55.0693 80.3448 56.124C80.3448 56.712 80.1254 57.188 79.6868 57.552C79.2481 57.9253 78.7254 58.112 78.1188 58.112C77.1761 58.112 76.3501 57.7573 75.6408 57.048L76.3128 56.068C76.8541 56.5907 77.4281 56.8613 78.0348 56.88C78.3241 56.8893 78.5574 56.824 78.7348 56.684C78.9121 56.544 79.0008 56.3807 79.0008 56.194C79.0008 55.8393 78.7114 55.5827 78.1328 55.424C77.3208 55.2 76.7561 54.9433 76.4388 54.654C76.1308 54.3647 75.9768 53.954 75.9768 53.422C75.9768 52.918 76.1681 52.4933 76.5508 52.148C76.9428 51.7933 77.4608 51.616 78.1048 51.616C78.7674 51.616 79.3694 51.8307 79.9108 52.26L79.2808 53.24C78.9354 52.9787 78.5434 52.848 78.1048 52.848C77.8621 52.848 77.6708 52.8993 77.5308 53.002C77.3908 53.1047 77.3208 53.2307 77.3208 53.38C77.3208 53.5573 77.3908 53.6973 77.5308 53.8C77.6801 53.8933 77.9508 53.9867 78.3428 54.08ZM87.1743 55.06V58H85.8303V57.188C85.3077 57.804 84.659 58.112 83.8843 58.112C83.2123 58.112 82.6617 57.9113 82.2323 57.51C81.7937 57.118 81.5743 56.614 81.5743 55.998C81.5743 55.41 81.789 54.9293 82.2183 54.556C82.657 54.1827 83.1843 53.982 83.8003 53.954C84.4257 53.926 85.0883 54.052 85.7883 54.332C85.7323 53.3427 85.261 52.848 84.3743 52.848C83.8423 52.848 83.357 52.9833 82.9183 53.254L82.3583 52.288C82.9463 51.84 83.637 51.616 84.4303 51.616C86.2597 51.616 87.1743 52.764 87.1743 55.06ZM85.8303 55.438C85.513 55.2513 85.121 55.144 84.6543 55.116C84.1877 55.088 83.777 55.158 83.4223 55.326C83.077 55.4847 82.909 55.7227 82.9183 56.04C82.9183 56.2827 83.0163 56.4833 83.2123 56.642C83.4177 56.8007 83.6837 56.88 84.0103 56.88C84.4397 56.88 84.8363 56.74 85.2003 56.46C85.5643 56.18 85.7743 55.8393 85.8303 55.438ZM92.185 51.616C92.9877 51.616 93.6037 51.882 94.033 52.414C94.4624 52.946 94.677 53.7067 94.677 54.696V58H93.333V54.696C93.333 54.0707 93.221 53.6087 92.997 53.31C92.7824 53.002 92.4277 52.848 91.933 52.848C91.5037 52.848 91.1444 53.03 90.855 53.394C90.5657 53.7487 90.421 54.2013 90.421 54.752V58H89.077V51.728H90.421V52.512C90.5517 52.2693 90.7757 52.0593 91.093 51.882C91.4104 51.7047 91.7744 51.616 92.185 51.616ZM101.396 52.512V47.696H102.74V58H101.396V57.216C100.883 57.8133 100.211 58.112 99.3803 58.112C98.5123 58.112 97.7749 57.7947 97.1683 57.16C96.5523 56.5253 96.2443 55.76 96.2443 54.864C96.2443 53.968 96.5523 53.2027 97.1683 52.568C97.7749 51.9333 98.5123 51.616 99.3803 51.616C100.211 51.616 100.883 51.9147 101.396 52.512ZM98.1483 56.292C98.5123 56.684 98.9603 56.88 99.4923 56.88C100.015 56.88 100.468 56.684 100.85 56.292C101.214 55.9 101.396 55.424 101.396 54.864C101.396 54.304 101.214 53.828 100.85 53.436C100.468 53.044 100.015 52.848 99.4923 52.848C98.9603 52.848 98.5123 53.044 98.1483 53.436C97.7749 53.8187 97.5883 54.2947 97.5883 54.864C97.5883 55.4333 97.7749 55.9093 98.1483 56.292ZM104.311 54.864C104.311 53.968 104.628 53.2027 105.263 52.568C105.897 51.9333 106.663 51.616 107.559 51.616C108.455 51.616 109.22 51.9333 109.855 52.568C110.489 53.2027 110.807 53.968 110.807 54.864C110.807 55.76 110.489 56.5253 109.855 57.16C109.22 57.7947 108.455 58.112 107.559 58.112C106.663 58.112 105.897 57.7947 105.263 57.16C104.628 56.5253 104.311 55.76 104.311 54.864ZM106.229 56.278C106.602 56.6793 107.045 56.88 107.559 56.88C108.081 56.88 108.529 56.6793 108.903 56.278C109.276 55.8953 109.463 55.424 109.463 54.864C109.463 54.3133 109.276 53.8373 108.903 53.436C108.529 53.044 108.081 52.848 107.559 52.848C107.055 52.848 106.611 53.044 106.229 53.436C105.846 53.8467 105.655 54.3227 105.655 54.864C105.655 55.4053 105.846 55.8767 106.229 56.278ZM117.296 58V47.696H118.64V58H117.296ZM120.211 54.864C120.211 53.968 120.528 53.2027 121.163 52.568C121.798 51.9333 122.563 51.616 123.459 51.616C124.355 51.616 125.12 51.9333 125.755 52.568C126.39 53.2027 126.707 53.968 126.707 54.864C126.707 55.76 126.39 56.5253 125.755 57.16C125.12 57.7947 124.355 58.112 123.459 58.112C122.563 58.112 121.798 57.7947 121.163 57.16C120.528 56.5253 120.211 55.76 120.211 54.864ZM122.129 56.278C122.502 56.6793 122.946 56.88 123.459 56.88C123.982 56.88 124.43 56.6793 124.803 56.278C125.176 55.8953 125.363 55.424 125.363 54.864C125.363 54.3133 125.176 53.8373 124.803 53.436C124.43 53.044 123.982 52.848 123.459 52.848C122.955 52.848 122.512 53.044 122.129 53.436C121.746 53.8467 121.555 54.3227 121.555 54.864C121.555 55.4053 121.746 55.8767 122.129 56.278ZM133.197 52.512V47.696H134.541V58H133.197V57.216C132.684 57.8133 132.012 58.112 131.181 58.112C130.313 58.112 129.576 57.7947 128.969 57.16C128.353 56.5253 128.045 55.76 128.045 54.864C128.045 53.968 128.353 53.2027 128.969 52.568C129.576 51.9333 130.313 51.616 131.181 51.616C132.012 51.616 132.684 51.9147 133.197 52.512ZM129.949 56.292C130.313 56.684 130.761 56.88 131.293 56.88C131.816 56.88 132.268 56.684 132.651 56.292C133.015 55.9 133.197 55.424 133.197 54.864C133.197 54.304 133.015 53.828 132.651 53.436C132.268 53.044 131.816 52.848 131.293 52.848C130.761 52.848 130.313 53.044 129.949 53.436C129.576 53.8187 129.389 54.2947 129.389 54.864C129.389 55.4333 129.576 55.9093 129.949 56.292ZM136.111 54.864C136.111 53.968 136.429 53.2027 137.063 52.568C137.698 51.9333 138.463 51.616 139.359 51.616C140.255 51.616 141.021 51.9333 141.655 52.568C142.29 53.2027 142.607 53.968 142.607 54.864C142.607 55.76 142.29 56.5253 141.655 57.16C141.021 57.7947 140.255 58.112 139.359 58.112C138.463 58.112 137.698 57.7947 137.063 57.16C136.429 56.5253 136.111 55.76 136.111 54.864ZM138.029 56.278C138.403 56.6793 138.846 56.88 139.359 56.88C139.882 56.88 140.33 56.6793 140.703 56.278C141.077 55.8953 141.263 55.424 141.263 54.864C141.263 54.3133 141.077 53.8373 140.703 53.436C140.33 53.044 139.882 52.848 139.359 52.848C138.855 52.848 138.412 53.044 138.029 53.436C137.647 53.8467 137.455 54.3227 137.455 54.864C137.455 55.4053 137.647 55.8767 138.029 56.278ZM151.351 55.97L153.017 51.728H154.473L150.567 61.36H149.139L150.665 57.636L148.201 51.728H149.657L151.351 55.97ZM163.634 51.616C164.437 51.616 165.053 51.882 165.482 52.414C165.912 52.946 166.126 53.7067 166.126 54.696V58H164.782V54.696C164.782 54.0707 164.67 53.6087 164.446 53.31C164.232 53.002 163.877 52.848 163.382 52.848C162.953 52.848 162.594 53.03 162.304 53.394C162.015 53.7487 161.87 54.2013 161.87 54.752V58H160.526V51.728H161.87V52.512C162.001 52.2693 162.225 52.0593 162.542 51.882C162.86 51.7047 163.224 51.616 163.634 51.616ZM173.293 55.06V58H171.949V57.188C171.427 57.804 170.778 58.112 170.003 58.112C169.331 58.112 168.781 57.9113 168.351 57.51C167.913 57.118 167.693 56.614 167.693 55.998C167.693 55.41 167.908 54.9293 168.337 54.556C168.776 54.1827 169.303 53.982 169.919 53.954C170.545 53.926 171.207 54.052 171.907 54.332C171.851 53.3427 171.38 52.848 170.493 52.848C169.961 52.848 169.476 52.9833 169.037 53.254L168.477 52.288C169.065 51.84 169.756 51.616 170.549 51.616C172.379 51.616 173.293 52.764 173.293 55.06ZM171.949 55.438C171.632 55.2513 171.24 55.144 170.773 55.116C170.307 55.088 169.896 55.158 169.541 55.326C169.196 55.4847 169.028 55.7227 169.037 56.04C169.037 56.2827 169.135 56.4833 169.331 56.642C169.537 56.8007 169.803 56.88 170.129 56.88C170.559 56.88 170.955 56.74 171.319 56.46C171.683 56.18 171.893 55.8393 171.949 55.438ZM180.01 52.512V47.696H181.354V58H180.01V57.216C179.496 57.8133 178.824 58.112 177.994 58.112C177.126 58.112 176.388 57.7947 175.782 57.16C175.166 56.5253 174.858 55.76 174.858 54.864C174.858 53.968 175.166 53.2027 175.782 52.568C176.388 51.9333 177.126 51.616 177.994 51.616C178.824 51.616 179.496 51.9147 180.01 52.512ZM176.762 56.292C177.126 56.684 177.574 56.88 178.106 56.88C178.628 56.88 179.081 56.684 179.464 56.292C179.828 55.9 180.01 55.424 180.01 54.864C180.01 54.304 179.828 53.828 179.464 53.436C179.081 53.044 178.628 52.848 178.106 52.848C177.574 52.848 177.126 53.044 176.762 53.436C176.388 53.8187 176.202 54.2947 176.202 54.864C176.202 55.4333 176.388 55.9093 176.762 56.292ZM188.633 55.06V58H187.289V57.188C186.767 57.804 186.118 58.112 185.343 58.112C184.671 58.112 184.121 57.9113 183.691 57.51C183.253 57.118 183.033 56.614 183.033 55.998C183.033 55.41 183.248 54.9293 183.677 54.556C184.116 54.1827 184.643 53.982 185.259 53.954C185.885 53.926 186.547 54.052 187.247 54.332C187.191 53.3427 186.72 52.848 185.833 52.848C185.301 52.848 184.816 52.9833 184.377 53.254L183.817 52.288C184.405 51.84 185.096 51.616 185.889 51.616C187.719 51.616 188.633 52.764 188.633 55.06ZM187.289 55.438C186.972 55.2513 186.58 55.144 186.113 55.116C185.647 55.088 185.236 55.158 184.881 55.326C184.536 55.4847 184.368 55.7227 184.377 56.04C184.377 56.2827 184.475 56.4833 184.671 56.642C184.877 56.8007 185.143 56.88 185.469 56.88C185.899 56.88 186.295 56.74 186.659 56.46C187.023 56.18 187.233 55.8393 187.289 55.438ZM193.644 51.616C194.447 51.616 195.063 51.882 195.492 52.414C195.921 52.946 196.136 53.7067 196.136 54.696V58H194.792V54.696C194.792 54.0707 194.68 53.6087 194.456 53.31C194.241 53.002 193.887 52.848 193.392 52.848C192.963 52.848 192.603 53.03 192.314 53.394C192.025 53.7487 191.88 54.2013 191.88 54.752V58H190.536V51.728H191.88V52.512C192.011 52.2693 192.235 52.0593 192.552 51.882C192.869 51.7047 193.233 51.616 193.644 51.616ZM202.855 52.512V47.696H204.199V58H202.855V57.216C202.342 57.8133 201.67 58.112 200.839 58.112C199.971 58.112 199.234 57.7947 198.627 57.16C198.011 56.5253 197.703 55.76 197.703 54.864C197.703 53.968 198.011 53.2027 198.627 52.568C199.234 51.9333 199.971 51.616 200.839 51.616C201.67 51.616 202.342 51.9147 202.855 52.512ZM199.607 56.292C199.971 56.684 200.419 56.88 200.951 56.88C201.474 56.88 201.927 56.684 202.309 56.292C202.673 55.9 202.855 55.424 202.855 54.864C202.855 54.304 202.673 53.828 202.309 53.436C201.927 53.044 201.474 52.848 200.951 52.848C200.419 52.848 199.971 53.044 199.607 53.436C199.234 53.8187 199.047 54.2947 199.047 54.864C199.047 55.4333 199.234 55.9093 199.607 56.292ZM205.77 54.864C205.77 53.968 206.087 53.2027 206.722 52.568C207.356 51.9333 208.122 51.616 209.018 51.616C209.914 51.616 210.679 51.9333 211.314 52.568C211.948 53.2027 212.266 53.968 212.266 54.864C212.266 55.76 211.948 56.5253 211.314 57.16C210.679 57.7947 209.914 58.112 209.018 58.112C208.122 58.112 207.356 57.7947 206.722 57.16C206.087 56.5253 205.77 55.76 205.77 54.864ZM207.688 56.278C208.061 56.6793 208.504 56.88 209.018 56.88C209.54 56.88 209.988 56.6793 210.362 56.278C210.735 55.8953 210.922 55.424 210.922 54.864C210.922 54.3133 210.735 53.8373 210.362 53.436C209.988 53.044 209.54 52.848 209.018 52.848C208.514 52.848 208.07 53.044 207.688 53.436C207.305 53.8467 207.114 54.3227 207.114 54.864C207.114 55.4053 207.305 55.8767 207.688 56.278ZM221.555 56.88C222.105 56.88 222.623 56.6373 223.109 56.152L223.879 57.132C223.253 57.7853 222.479 58.112 221.555 58.112C220.659 58.112 219.893 57.7947 219.259 57.16C218.624 56.5253 218.307 55.76 218.307 54.864C218.307 53.968 218.624 53.2027 219.259 52.568C219.893 51.9333 220.659 51.616 221.555 51.616C222.255 51.616 222.852 51.8167 223.347 52.218C223.841 52.61 224.177 53.1467 224.355 53.828L220.197 56.236C220.327 56.4227 220.519 56.5767 220.771 56.698C221.032 56.8193 221.293 56.88 221.555 56.88ZM221.555 52.848C221.051 52.848 220.607 53.0533 220.225 53.464C219.842 53.8747 219.651 54.3413 219.651 54.864C219.651 54.8827 219.66 55.004 219.679 55.228L222.787 53.436C222.488 53.044 222.077 52.848 221.555 52.848ZM228.808 51.616C229.611 51.616 230.227 51.882 230.656 52.414C231.085 52.946 231.3 53.7067 231.3 54.696V58H229.956V54.696C229.956 54.0707 229.844 53.6087 229.62 53.31C229.405 53.002 229.051 52.848 228.556 52.848C228.127 52.848 227.767 53.03 227.478 53.394C227.189 53.7487 227.044 54.2013 227.044 54.752V58H225.7V51.728H227.044V52.512C227.175 52.2693 227.399 52.0593 227.716 51.882C228.033 51.7047 228.397 51.616 228.808 51.616ZM239.362 51.728V52.722C239.782 51.9847 240.529 51.616 241.602 51.616V53.044C241.192 52.96 240.818 52.9787 240.482 53.1C239.736 53.3707 239.362 54.066 239.362 55.186V58H238.018V51.728H239.362ZM244.178 50.832H243.282L244.178 48.592H245.522L244.178 50.832ZM244.626 58H243.282V51.728H244.626V58ZM246.197 54.864C246.197 53.968 246.515 53.2027 247.149 52.568C247.784 51.9333 248.549 51.616 249.445 51.616C250.341 51.616 251.107 51.9333 251.741 52.568C252.376 53.2027 252.693 53.968 252.693 54.864C252.693 55.76 252.376 56.5253 251.741 57.16C251.107 57.7947 250.341 58.112 249.445 58.112C248.549 58.112 247.784 57.7947 247.149 57.16C246.515 56.5253 246.197 55.76 246.197 54.864ZM248.115 56.278C248.489 56.6793 248.932 56.88 249.445 56.88C249.968 56.88 250.416 56.6793 250.789 56.278C251.163 55.8953 251.349 55.424 251.349 54.864C251.349 54.3133 251.163 53.8373 250.789 53.436C250.416 53.044 249.968 52.848 249.445 52.848C248.941 52.848 248.498 53.044 248.115 53.436C247.733 53.8467 247.541 54.3227 247.541 54.864C247.541 55.4053 247.733 55.8767 248.115 56.278ZM256.733 54.08C258.068 54.388 258.735 55.0693 258.735 56.124C258.735 56.712 258.516 57.188 258.077 57.552C257.639 57.9253 257.116 58.112 256.509 58.112C255.567 58.112 254.741 57.7573 254.031 57.048L254.703 56.068C255.245 56.5907 255.819 56.8613 256.425 56.88C256.715 56.8893 256.948 56.824 257.125 56.684C257.303 56.544 257.391 56.3807 257.391 56.194C257.391 55.8393 257.102 55.5827 256.523 55.424C255.711 55.2 255.147 54.9433 254.829 54.654C254.521 54.3647 254.367 53.954 254.367 53.422C254.367 52.918 254.559 52.4933 254.941 52.148C255.333 51.7933 255.851 51.616 256.495 51.616C257.158 51.616 257.76 51.8307 258.301 52.26L257.671 53.24C257.326 52.9787 256.934 52.848 256.495 52.848C256.253 52.848 256.061 52.8993 255.921 53.002C255.781 53.1047 255.711 53.2307 255.711 53.38C255.711 53.5573 255.781 53.6973 255.921 53.8C256.071 53.8933 256.341 53.9867 256.733 54.08ZM261.306 58.112C261.026 58.112 260.788 58.014 260.592 57.818C260.396 57.622 260.298 57.384 260.298 57.104C260.298 56.8147 260.396 56.5767 260.592 56.39C260.788 56.194 261.026 56.096 261.306 56.096C261.596 56.096 261.834 56.194 262.02 56.39C262.216 56.5767 262.314 56.8147 262.314 57.104C262.314 57.384 262.216 57.622 262.02 57.818C261.834 58.014 261.596 58.112 261.306 58.112Z" fill="white"/>
</svg>
