<svg width="266" height="227" viewBox="0 0 266 227" fill="none" xmlns="http://www.w3.org/2000/svg">
<rect width="266" height="227" rx="12" fill="#E91D24"/>
<path d="M44.8202 37.54C43.4069 36.14 42.7002 34.4467 42.7002 32.46C42.7002 30.4733 43.4069 28.7733 44.8202 27.36C46.2202 25.96 47.9136 25.26 49.9002 25.26C50.6736 25.26 51.4469 25.3933 52.2202 25.66C53.0069 25.9133 53.6736 26.26 54.2202 26.7L53.1802 28.14C52.2869 27.3933 51.2002 27.02 49.9202 27.02C48.4536 27.02 47.2069 27.5533 46.1802 28.62C45.1402 29.6867 44.6202 30.9667 44.6202 32.46C44.6202 33.9533 45.1402 35.2333 46.1802 36.3C47.2069 37.3667 48.4536 37.9 49.9202 37.9C51.2002 37.9 52.2869 37.5267 53.1802 36.78L54.2202 38.22C53.6736 38.66 53.0069 39.0133 52.2202 39.28C51.4469 39.5333 50.6736 39.66 49.9002 39.66C47.9136 39.66 46.2202 38.9533 44.8202 37.54ZM55.669 35.02C55.669 33.74 56.1223 32.6467 57.029 31.74C57.9357 30.8333 59.029 30.38 60.309 30.38C61.589 30.38 62.6823 30.8333 63.589 31.74C64.4957 32.6467 64.949 33.74 64.949 35.02C64.949 36.3 64.4957 37.3933 63.589 38.3C62.6823 39.2067 61.589 39.66 60.309 39.66C59.029 39.66 57.9357 39.2067 57.029 38.3C56.1223 37.3933 55.669 36.3 55.669 35.02ZM58.409 37.04C58.9423 37.6133 59.5757 37.9 60.309 37.9C61.0557 37.9 61.6957 37.6133 62.229 37.04C62.7623 36.4933 63.029 35.82 63.029 35.02C63.029 34.2333 62.7623 33.5533 62.229 32.98C61.6957 32.42 61.0557 32.14 60.309 32.14C59.589 32.14 58.9557 32.42 58.409 32.98C57.8623 33.5667 57.589 34.2467 57.589 35.02C57.589 35.7933 57.8623 36.4667 58.409 37.04ZM71.6279 30.38C72.7746 30.38 73.6546 30.76 74.2679 31.52C74.8812 32.28 75.1879 33.3667 75.1879 34.78V39.5H73.2679V34.78C73.2679 33.8867 73.1079 33.2267 72.7879 32.8C72.4812 32.36 71.9746 32.14 71.2679 32.14C70.6546 32.14 70.1412 32.4 69.7279 32.92C69.3146 33.4267 69.1079 34.0733 69.1079 34.86V39.5H67.1879V30.54H69.1079V31.66C69.2946 31.3133 69.6146 31.0133 70.0679 30.76C70.5212 30.5067 71.0412 30.38 71.6279 30.38ZM88.7855 37.9C89.5722 37.9 90.3122 37.5533 91.0055 36.86L92.1055 38.26C91.2122 39.1933 90.1055 39.66 88.7855 39.66C87.5055 39.66 86.4122 39.2067 85.5055 38.3C84.5989 37.3933 84.1455 36.3 84.1455 35.02C84.1455 33.74 84.5989 32.6467 85.5055 31.74C86.4122 30.8333 87.5055 30.38 88.7855 30.38C89.7855 30.38 90.6389 30.6667 91.3455 31.24C92.0522 31.8 92.5322 32.5667 92.7855 33.54L86.8455 36.98C87.0322 37.2467 87.3055 37.4667 87.6655 37.64C88.0389 37.8133 88.4122 37.9 88.7855 37.9ZM88.7855 32.14C88.0655 32.14 87.4322 32.4333 86.8855 33.02C86.3389 33.6067 86.0655 34.2733 86.0655 35.02C86.0655 35.0467 86.0789 35.22 86.1055 35.54L90.5455 32.98C90.1189 32.42 89.5322 32.14 88.7855 32.14ZM98.2399 33.9C100.147 34.34 101.1 35.3133 101.1 36.82C101.1 37.66 100.787 38.34 100.16 38.86C99.5333 39.3933 98.7866 39.66 97.9199 39.66C96.5733 39.66 95.3933 39.1533 94.3799 38.14L95.3399 36.74C96.1133 37.4867 96.9333 37.8733 97.7999 37.9C98.2133 37.9133 98.5466 37.82 98.7999 37.62C99.0533 37.42 99.1799 37.1867 99.1799 36.92C99.1799 36.4133 98.7666 36.0467 97.9399 35.82C96.7799 35.5 95.9733 35.1333 95.5199 34.72C95.0799 34.3067 94.8599 33.72 94.8599 32.96C94.8599 32.24 95.1333 31.6333 95.6799 31.14C96.2399 30.6333 96.9799 30.38 97.8999 30.38C98.8466 30.38 99.7066 30.6867 100.48 31.3L99.5799 32.7C99.0866 32.3267 98.5266 32.14 97.8999 32.14C97.5533 32.14 97.2799 32.2133 97.0799 32.36C96.8799 32.5067 96.7799 32.6867 96.7799 32.9C96.7799 33.1533 96.8799 33.3533 97.0799 33.5C97.2933 33.6333 97.6799 33.7667 98.2399 33.9ZM106.533 39.5H104.613V32.3H103.013V30.54H104.613V27.02L106.533 26.38V30.54H109.093V32.3H106.533V39.5ZM118.376 35.3V39.5H116.456V38.34C115.709 39.22 114.783 39.66 113.676 39.66C112.716 39.66 111.929 39.3733 111.316 38.8C110.689 38.24 110.376 37.52 110.376 36.64C110.376 35.8 110.683 35.1133 111.296 34.58C111.923 34.0467 112.676 33.76 113.556 33.72C114.449 33.68 115.396 33.86 116.396 34.26C116.316 32.8467 115.643 32.14 114.376 32.14C113.616 32.14 112.923 32.3333 112.296 32.72L111.496 31.34C112.336 30.7 113.323 30.38 114.456 30.38C117.069 30.38 118.376 32.02 118.376 35.3ZM116.456 35.84C116.003 35.5733 115.443 35.42 114.776 35.38C114.109 35.34 113.523 35.44 113.016 35.68C112.523 35.9067 112.283 36.2467 112.296 36.7C112.296 37.0467 112.436 37.3333 112.716 37.56C113.009 37.7867 113.389 37.9 113.856 37.9C114.469 37.9 115.036 37.7 115.556 37.3C116.076 36.9 116.376 36.4133 116.456 35.84ZM130.369 27.5C130.369 27.9 130.229 28.24 129.949 28.52C129.669 28.8 129.329 28.94 128.929 28.94C128.529 28.94 128.189 28.8 127.909 28.52C127.629 28.24 127.489 27.9 127.489 27.5C127.489 27.1 127.629 26.76 127.909 26.48C128.189 26.2 128.529 26.06 128.929 26.06C129.329 26.06 129.669 26.2 129.949 26.48C130.229 26.76 130.369 27.1 130.369 27.5ZM129.889 39.5H127.969V30.54H129.889V39.5ZM137.37 30.38C138.517 30.38 139.397 30.76 140.01 31.52C140.623 32.28 140.93 33.3667 140.93 34.78V39.5H139.01V34.78C139.01 33.8867 138.85 33.2267 138.53 32.8C138.223 32.36 137.717 32.14 137.01 32.14C136.397 32.14 135.883 32.4 135.47 32.92C135.057 33.4267 134.85 34.0733 134.85 34.86V39.5H132.93V30.54H134.85V31.66C135.037 31.3133 135.357 31.0133 135.81 30.76C136.263 30.5067 136.783 30.38 137.37 30.38ZM147.029 33.9C148.936 34.34 149.889 35.3133 149.889 36.82C149.889 37.66 149.576 38.34 148.949 38.86C148.322 39.3933 147.576 39.66 146.709 39.66C145.362 39.66 144.182 39.1533 143.169 38.14L144.129 36.74C144.902 37.4867 145.722 37.8733 146.589 37.9C147.002 37.9133 147.336 37.82 147.589 37.62C147.842 37.42 147.969 37.1867 147.969 36.92C147.969 36.4133 147.556 36.0467 146.729 35.82C145.569 35.5 144.762 35.1333 144.309 34.72C143.869 34.3067 143.649 33.72 143.649 32.96C143.649 32.24 143.922 31.6333 144.469 31.14C145.029 30.6333 145.769 30.38 146.689 30.38C147.636 30.38 148.496 30.6867 149.269 31.3L148.369 32.7C147.876 32.3267 147.316 32.14 146.689 32.14C146.342 32.14 146.069 32.2133 145.869 32.36C145.669 32.5067 145.569 32.6867 145.569 32.9C145.569 33.1533 145.669 33.3533 145.869 33.5C146.082 33.6333 146.469 33.7667 147.029 33.9ZM154.206 38.38V44.3H152.286V30.54H154.206V31.66C154.939 30.8067 155.899 30.38 157.086 30.38C158.326 30.38 159.386 30.8333 160.266 31.74C161.132 32.6467 161.566 33.74 161.566 35.02C161.566 36.3 161.132 37.3933 160.266 38.3C159.386 39.2067 158.326 39.66 157.086 39.66C155.899 39.66 154.939 39.2333 154.206 38.38ZM158.866 32.98C158.319 32.42 157.672 32.14 156.926 32.14C156.166 32.14 155.526 32.42 155.006 32.98C154.472 33.5267 154.206 34.2067 154.206 35.02C154.206 35.8333 154.472 36.5133 155.006 37.06C155.526 37.62 156.166 37.9 156.926 37.9C157.672 37.9 158.319 37.62 158.866 37.06C159.386 36.5 159.646 35.82 159.646 35.02C159.646 34.22 159.386 33.54 158.866 32.98ZM166.365 27.5C166.365 27.9 166.225 28.24 165.945 28.52C165.665 28.8 165.325 28.94 164.925 28.94C164.525 28.94 164.185 28.8 163.905 28.52C163.625 28.24 163.485 27.9 163.485 27.5C163.485 27.1 163.625 26.76 163.905 26.48C164.185 26.2 164.525 26.06 164.925 26.06C165.325 26.06 165.665 26.2 165.945 26.48C166.225 26.76 166.365 27.1 166.365 27.5ZM165.885 39.5H163.965V30.54H165.885V39.5ZM170.846 30.54V31.96C171.446 30.9067 172.513 30.38 174.046 30.38V32.42C173.46 32.3 172.926 32.3267 172.446 32.5C171.38 32.8867 170.846 33.88 170.846 35.48V39.5H168.926V30.54H170.846ZM183.317 35.3V39.5H181.397V38.34C180.651 39.22 179.724 39.66 178.617 39.66C177.657 39.66 176.871 39.3733 176.257 38.8C175.631 38.24 175.317 37.52 175.317 36.64C175.317 35.8 175.624 35.1133 176.237 34.58C176.864 34.0467 177.617 33.76 178.497 33.72C179.391 33.68 180.337 33.86 181.337 34.26C181.257 32.8467 180.584 32.14 179.317 32.14C178.557 32.14 177.864 32.3333 177.237 32.72L176.437 31.34C177.277 30.7 178.264 30.38 179.397 30.38C182.011 30.38 183.317 32.02 183.317 35.3ZM181.397 35.84C180.944 35.5733 180.384 35.42 179.717 35.38C179.051 35.34 178.464 35.44 177.957 35.68C177.464 35.9067 177.224 36.2467 177.237 36.7C177.237 37.0467 177.377 37.3333 177.657 37.56C177.951 37.7867 178.331 37.9 178.797 37.9C179.411 37.9 179.977 37.7 180.497 37.3C181.017 36.9 181.317 36.4133 181.397 35.84ZM192.912 31.66V24.78H194.832V39.5H192.912V38.38C192.178 39.2333 191.218 39.66 190.032 39.66C188.792 39.66 187.738 39.2067 186.872 38.3C185.992 37.3933 185.552 36.3 185.552 35.02C185.552 33.74 185.992 32.6467 186.872 31.74C187.738 30.8333 188.792 30.38 190.032 30.38C191.218 30.38 192.178 30.8067 192.912 31.66ZM188.272 37.06C188.792 37.62 189.432 37.9 190.192 37.9C190.938 37.9 191.585 37.62 192.132 37.06C192.652 36.5 192.912 35.82 192.912 35.02C192.912 34.22 192.652 33.54 192.132 32.98C191.585 32.42 190.938 32.14 190.192 32.14C189.432 32.14 188.792 32.42 188.272 32.98C187.738 33.5267 187.472 34.2067 187.472 35.02C187.472 35.8333 187.738 36.5133 188.272 37.06ZM197.075 35.02C197.075 33.74 197.529 32.6467 198.435 31.74C199.342 30.8333 200.435 30.38 201.715 30.38C202.995 30.38 204.089 30.8333 204.995 31.74C205.902 32.6467 206.355 33.74 206.355 35.02C206.355 36.3 205.902 37.3933 204.995 38.3C204.089 39.2067 202.995 39.66 201.715 39.66C200.435 39.66 199.342 39.2067 198.435 38.3C197.529 37.3933 197.075 36.3 197.075 35.02ZM199.815 37.04C200.349 37.6133 200.982 37.9 201.715 37.9C202.462 37.9 203.102 37.6133 203.635 37.04C204.169 36.4933 204.435 35.82 204.435 35.02C204.435 34.2333 204.169 33.5533 203.635 32.98C203.102 32.42 202.462 32.14 201.715 32.14C200.995 32.14 200.362 32.42 199.815 32.98C199.269 33.5667 198.995 34.2467 198.995 35.02C198.995 35.7933 199.269 36.4667 199.815 37.04ZM210.514 30.54V31.96C211.114 30.9067 212.181 30.38 213.714 30.38V32.42C213.127 32.3 212.594 32.3267 212.114 32.5C211.047 32.8867 210.514 33.88 210.514 35.48V39.5H208.594V30.54H210.514ZM222.985 35.3V39.5H221.065V38.34C220.319 39.22 219.392 39.66 218.285 39.66C217.325 39.66 216.539 39.3733 215.925 38.8C215.299 38.24 214.985 37.52 214.985 36.64C214.985 35.8 215.292 35.1133 215.905 34.58C216.532 34.0467 217.285 33.76 218.165 33.72C219.059 33.68 220.005 33.86 221.005 34.26C220.925 32.8467 220.252 32.14 218.985 32.14C218.225 32.14 217.532 32.3333 216.905 32.72L216.105 31.34C216.945 30.7 217.932 30.38 219.065 30.38C221.679 30.38 222.985 32.02 222.985 35.3ZM221.065 35.84C220.612 35.5733 220.052 35.42 219.385 35.38C218.719 35.34 218.132 35.44 217.625 35.68C217.132 35.9067 216.892 36.2467 216.905 36.7C216.905 37.0467 217.045 37.3333 217.325 37.56C217.619 37.7867 217.999 37.9 218.465 37.9C219.079 37.9 219.645 37.7 220.165 37.3C220.685 36.9 220.985 36.4133 221.065 35.84ZM59.2939 56.38C60.4406 56.38 61.3206 56.76 61.9339 57.52C62.5472 58.28 62.8539 59.3667 62.8539 60.78V65.5H60.9339V60.78C60.9339 59.8867 60.7739 59.2267 60.4539 58.8C60.1472 58.36 59.6406 58.14 58.9339 58.14C58.3206 58.14 57.8072 58.4 57.3939 58.92C56.9806 59.4267 56.7739 60.0733 56.7739 60.86V65.5H54.8539V50.78H56.7739V57.66C56.9606 57.3133 57.2806 57.0133 57.7339 56.76C58.1872 56.5067 58.7072 56.38 59.2939 56.38ZM67.9766 53.5C67.9766 53.9 67.8366 54.24 67.5566 54.52C67.2766 54.8 66.9366 54.94 66.5366 54.94C66.1366 54.94 65.7966 54.8 65.5166 54.52C65.2366 54.24 65.0966 53.9 65.0966 53.5C65.0966 53.1 65.2366 52.76 65.5166 52.48C65.7966 52.2 66.1366 52.06 66.5366 52.06C66.9366 52.06 67.2766 52.2 67.5566 52.48C67.8366 52.76 67.9766 53.1 67.9766 53.5ZM67.4966 65.5H65.5766V56.54H67.4966V65.5ZM73.7575 59.9C75.6642 60.34 76.6175 61.3133 76.6175 62.82C76.6175 63.66 76.3042 64.34 75.6775 64.86C75.0508 65.3933 74.3042 65.66 73.4375 65.66C72.0908 65.66 70.9108 65.1533 69.8975 64.14L70.8575 62.74C71.6308 63.4867 72.4508 63.8733 73.3175 63.9C73.7308 63.9133 74.0642 63.82 74.3175 63.62C74.5708 63.42 74.6975 63.1867 74.6975 62.92C74.6975 62.4133 74.2842 62.0467 73.4575 61.82C72.2975 61.5 71.4908 61.1333 71.0375 60.72C70.5975 60.3067 70.3775 59.72 70.3775 58.96C70.3775 58.24 70.6508 57.6333 71.1975 57.14C71.7575 56.6333 72.4975 56.38 73.4175 56.38C74.3642 56.38 75.2242 56.6867 75.9975 57.3L75.0975 58.7C74.6042 58.3267 74.0442 58.14 73.4175 58.14C73.0708 58.14 72.7975 58.2133 72.5975 58.36C72.3975 58.5067 72.2975 58.6867 72.2975 58.9C72.2975 59.1533 72.3975 59.3533 72.5975 59.5C72.8108 59.6333 73.1975 59.7667 73.7575 59.9ZM82.0503 65.5H80.1303V58.3H78.5303V56.54H80.1303V53.02L82.0503 52.38V56.54H84.6103V58.3H82.0503V65.5ZM85.8936 61.02C85.8936 59.74 86.3469 58.6467 87.2536 57.74C88.1603 56.8333 89.2536 56.38 90.5336 56.38C91.8136 56.38 92.9069 56.8333 93.8136 57.74C94.7203 58.6467 95.1736 59.74 95.1736 61.02C95.1736 62.3 94.7203 63.3933 93.8136 64.3C92.9069 65.2067 91.8136 65.66 90.5336 65.66C89.2536 65.66 88.1603 65.2067 87.2536 64.3C86.3469 63.3933 85.8936 62.3 85.8936 61.02ZM88.6336 63.04C89.1669 63.6133 89.8003 63.9 90.5336 63.9C91.2803 63.9 91.9203 63.6133 92.4536 63.04C92.9869 62.4933 93.2536 61.82 93.2536 61.02C93.2536 60.2333 92.9869 59.5533 92.4536 58.98C91.9203 58.42 91.2803 58.14 90.5336 58.14C89.8136 58.14 89.1803 58.42 88.6336 58.98C88.0869 59.5667 87.8136 60.2467 87.8136 61.02C87.8136 61.7933 88.0869 62.4667 88.6336 63.04ZM99.3325 56.54V57.96C99.9325 56.9067 100.999 56.38 102.533 56.38V58.42C101.946 58.3 101.413 58.3267 100.933 58.5C99.8658 58.8867 99.3325 59.88 99.3325 61.48V65.5H97.4125V56.54H99.3325ZM107.332 53.5C107.332 53.9 107.192 54.24 106.912 54.52C106.632 54.8 106.292 54.94 105.892 54.94C105.492 54.94 105.152 54.8 104.872 54.52C104.592 54.24 104.452 53.9 104.452 53.5C104.452 53.1 104.592 52.76 104.872 52.48C105.152 52.2 105.492 52.06 105.892 52.06C106.292 52.06 106.632 52.2 106.912 52.48C107.192 52.76 107.332 53.1 107.332 53.5ZM106.852 65.5H104.932V56.54H106.852V65.5ZM117.253 61.3V65.5H115.333V64.34C114.586 65.22 113.66 65.66 112.553 65.66C111.593 65.66 110.806 65.3733 110.193 64.8C109.566 64.24 109.253 63.52 109.253 62.64C109.253 61.8 109.56 61.1133 110.173 60.58C110.8 60.0467 111.553 59.76 112.433 59.72C113.326 59.68 114.273 59.86 115.273 60.26C115.193 58.8467 114.52 58.14 113.253 58.14C112.493 58.14 111.8 58.3333 111.173 58.72L110.373 57.34C111.213 56.7 112.2 56.38 113.333 56.38C115.946 56.38 117.253 58.02 117.253 61.3ZM115.333 61.84C114.88 61.5733 114.32 61.42 113.653 61.38C112.986 61.34 112.4 61.44 111.893 61.68C111.4 61.9067 111.16 62.2467 111.173 62.7C111.173 63.0467 111.313 63.3333 111.593 63.56C111.886 63.7867 112.266 63.9 112.733 63.9C113.346 63.9 113.913 63.7 114.433 63.3C114.953 62.9 115.253 62.4133 115.333 61.84ZM121.567 67.74H120.127V63.26H122.367L121.567 67.74ZM135.963 63.9C136.75 63.9 137.49 63.5533 138.183 62.86L139.283 64.26C138.39 65.1933 137.283 65.66 135.963 65.66C134.683 65.66 133.59 65.2067 132.683 64.3C131.777 63.3933 131.323 62.3 131.323 61.02C131.323 59.74 131.777 58.6467 132.683 57.74C133.59 56.8333 134.683 56.38 135.963 56.38C136.963 56.38 137.817 56.6667 138.523 57.24C139.23 57.8 139.71 58.5667 139.963 59.54L134.023 62.98C134.21 63.2467 134.483 63.4667 134.843 63.64C135.217 63.8133 135.59 63.9 135.963 63.9ZM135.963 58.14C135.243 58.14 134.61 58.4333 134.063 59.02C133.517 59.6067 133.243 60.2733 133.243 61.02C133.243 61.0467 133.257 61.22 133.283 61.54L137.723 58.98C137.297 58.42 136.71 58.14 135.963 58.14ZM141.885 65.5V50.78H143.805V65.5H141.885ZM157.721 63.9C158.508 63.9 159.248 63.5533 159.941 62.86L161.041 64.26C160.148 65.1933 159.041 65.66 157.721 65.66C156.441 65.66 155.348 65.2067 154.441 64.3C153.534 63.3933 153.081 62.3 153.081 61.02C153.081 59.74 153.534 58.6467 154.441 57.74C155.348 56.8333 156.441 56.38 157.721 56.38C158.721 56.38 159.574 56.6667 160.281 57.24C160.988 57.8 161.468 58.5667 161.721 59.54L155.781 62.98C155.968 63.2467 156.241 63.4667 156.601 63.64C156.974 63.8133 157.348 63.9 157.721 63.9ZM157.721 58.14C157.001 58.14 156.368 58.4333 155.821 59.02C155.274 59.6067 155.001 60.2733 155.001 61.02C155.001 61.0467 155.014 61.22 155.041 61.54L159.481 58.98C159.054 58.42 158.468 58.14 157.721 58.14ZM172.595 70.3H170.675V64.38C169.942 65.2333 168.982 65.66 167.795 65.66C166.555 65.66 165.502 65.2067 164.635 64.3C163.755 63.3933 163.315 62.3 163.315 61.02C163.315 59.74 163.755 58.6467 164.635 57.74C165.502 56.8333 166.555 56.38 167.795 56.38C168.982 56.38 169.942 56.8067 170.675 57.66V56.54H172.595V70.3ZM169.895 58.98C169.349 58.42 168.702 58.14 167.955 58.14C167.195 58.14 166.555 58.42 166.035 58.98C165.502 59.5267 165.235 60.2067 165.235 61.02C165.235 61.8333 165.502 62.5133 166.035 63.06C166.555 63.62 167.195 63.9 167.955 63.9C168.702 63.9 169.349 63.62 169.895 63.06C170.415 62.5 170.675 61.82 170.675 61.02C170.675 60.22 170.415 59.54 169.895 58.98ZM178.875 65.66C177.728 65.66 176.848 65.28 176.235 64.52C175.622 63.76 175.315 62.6733 175.315 61.26V56.54H177.235V61.42C177.235 63.0733 177.902 63.9 179.235 63.9C179.848 63.9 180.362 63.6333 180.775 63.1C181.188 62.5667 181.395 61.8733 181.395 61.02V56.54H183.315V65.5H181.395V64.38C181.208 64.7267 180.888 65.0267 180.435 65.28C179.982 65.5333 179.462 65.66 178.875 65.66ZM188.758 53.5C188.758 53.9 188.618 54.24 188.338 54.52C188.058 54.8 187.718 54.94 187.318 54.94C186.918 54.94 186.578 54.8 186.298 54.52C186.018 54.24 185.878 53.9 185.878 53.5C185.878 53.1 186.018 52.76 186.298 52.48C186.578 52.2 186.918 52.06 187.318 52.06C187.718 52.06 188.058 52.2 188.338 52.48C188.618 52.76 188.758 53.1 188.758 53.5ZM188.278 65.5H186.358V56.54H188.278V65.5ZM193.239 64.38V70.3H191.319V56.54H193.239V57.66C193.972 56.8067 194.932 56.38 196.119 56.38C197.359 56.38 198.419 56.8333 199.299 57.74C200.165 58.6467 200.599 59.74 200.599 61.02C200.599 62.3 200.165 63.3933 199.299 64.3C198.419 65.2067 197.359 65.66 196.119 65.66C194.932 65.66 193.972 65.2333 193.239 64.38ZM197.899 58.98C197.352 58.42 196.705 58.14 195.959 58.14C195.199 58.14 194.559 58.42 194.039 58.98C193.505 59.5267 193.239 60.2067 193.239 61.02C193.239 61.8333 193.505 62.5133 194.039 63.06C194.559 63.62 195.199 63.9 195.959 63.9C196.705 63.9 197.352 63.62 197.899 63.06C198.419 62.5 198.679 61.82 198.679 61.02C198.679 60.22 198.419 59.54 197.899 58.98ZM202.515 61.02C202.515 59.74 202.968 58.6467 203.875 57.74C204.781 56.8333 205.875 56.38 207.155 56.38C208.435 56.38 209.528 56.8333 210.435 57.74C211.341 58.6467 211.795 59.74 211.795 61.02C211.795 62.3 211.341 63.3933 210.435 64.3C209.528 65.2067 208.435 65.66 207.155 65.66C205.875 65.66 204.781 65.2067 203.875 64.3C202.968 63.3933 202.515 62.3 202.515 61.02ZM205.255 63.04C205.788 63.6133 206.421 63.9 207.155 63.9C207.901 63.9 208.541 63.6133 209.075 63.04C209.608 62.4933 209.875 61.82 209.875 61.02C209.875 60.2333 209.608 59.5533 209.075 58.98C208.541 58.42 207.901 58.14 207.155 58.14C206.435 58.14 205.801 58.42 205.255 58.98C204.708 59.5667 204.435 60.2467 204.435 61.02C204.435 61.7933 204.708 62.4667 205.255 63.04ZM21.7152 89.9C22.5552 89.9 23.2219 89.6333 23.7152 89.1L24.7552 90.54C23.8886 91.2867 22.8752 91.66 21.7152 91.66C20.4352 91.66 19.3419 91.2067 18.4352 90.3C17.5286 89.3933 17.0752 88.3 17.0752 87.02C17.0752 85.74 17.5286 84.6467 18.4352 83.74C19.3419 82.8333 20.4352 82.38 21.7152 82.38C22.8752 82.38 23.8886 82.7533 24.7552 83.5L23.7152 84.94C23.2219 84.4067 22.5552 84.14 21.7152 84.14C20.9952 84.14 20.3619 84.42 19.8152 84.98C19.2686 85.5667 18.9952 86.2467 18.9952 87.02C18.9952 87.7933 19.2686 88.4667 19.8152 89.04C20.3486 89.6133 20.9819 89.9 21.7152 89.9ZM26.3721 87.02C26.3721 85.74 26.8254 84.6467 27.7321 83.74C28.6388 82.8333 29.7321 82.38 31.0121 82.38C32.2921 82.38 33.3854 82.8333 34.2921 83.74C35.1988 84.6467 35.6521 85.74 35.6521 87.02C35.6521 88.3 35.1988 89.3933 34.2921 90.3C33.3854 91.2067 32.2921 91.66 31.0121 91.66C29.7321 91.66 28.6388 91.2067 27.7321 90.3C26.8254 89.3933 26.3721 88.3 26.3721 87.02ZM29.1121 89.04C29.6454 89.6133 30.2788 89.9 31.0121 89.9C31.7588 89.9 32.3988 89.6133 32.9321 89.04C33.4654 88.4933 33.7321 87.82 33.7321 87.02C33.7321 86.2333 33.4654 85.5533 32.9321 84.98C32.3988 84.42 31.7588 84.14 31.0121 84.14C30.2921 84.14 29.6588 84.42 29.1121 84.98C28.5654 85.5667 28.2921 86.2467 28.2921 87.02C28.2921 87.7933 28.5654 88.4667 29.1121 89.04ZM47.931 82.38C49.011 82.38 49.8443 82.7667 50.431 83.54C51.031 84.3 51.331 85.38 51.331 86.78V91.5H49.411V86.78C49.411 85.02 48.7977 84.14 47.571 84.14C46.9843 84.14 46.5043 84.3933 46.131 84.9C45.7577 85.3933 45.571 86.0467 45.571 86.86V91.5H43.651V86.78C43.651 85.02 43.0377 84.14 41.811 84.14C41.2243 84.14 40.7443 84.3933 40.371 84.9C39.9977 85.3933 39.811 86.0467 39.811 86.86V91.5H37.891V82.54H39.811V83.66C40.0243 83.3667 40.211 83.1467 40.371 83C40.531 82.8533 40.7643 82.7133 41.071 82.58C41.3777 82.4467 41.7443 82.38 42.171 82.38C43.4377 82.38 44.3577 82.8867 44.931 83.9C45.371 83.34 45.811 82.9467 46.251 82.72C46.7043 82.4933 47.2643 82.38 47.931 82.38ZM58.2191 89.9C59.0058 89.9 59.7458 89.5533 60.4391 88.86L61.5391 90.26C60.6458 91.1933 59.5391 91.66 58.2191 91.66C56.9391 91.66 55.8458 91.2067 54.9391 90.3C54.0325 89.3933 53.5791 88.3 53.5791 87.02C53.5791 85.74 54.0325 84.6467 54.9391 83.74C55.8458 82.8333 56.9391 82.38 58.2191 82.38C59.2191 82.38 60.0725 82.6667 60.7791 83.24C61.4858 83.8 61.9658 84.5667 62.2191 85.54L56.2791 88.98C56.4658 89.2467 56.7391 89.4667 57.0991 89.64C57.4725 89.8133 57.8458 89.9 58.2191 89.9ZM58.2191 84.14C57.4991 84.14 56.8658 84.4333 56.3191 85.02C55.7725 85.6067 55.4991 86.2733 55.4991 87.02C55.4991 87.0467 55.5125 87.22 55.5391 87.54L59.9791 84.98C59.5525 84.42 58.9658 84.14 58.2191 84.14ZM68.581 82.38C69.7277 82.38 70.6077 82.76 71.221 83.52C71.8343 84.28 72.141 85.3667 72.141 86.78V91.5H70.221V86.78C70.221 85.8867 70.061 85.2267 69.741 84.8C69.4343 84.36 68.9277 84.14 68.221 84.14C67.6077 84.14 67.0943 84.4 66.681 84.92C66.2677 85.4267 66.061 86.0733 66.061 86.86V91.5H64.141V82.54H66.061V83.66C66.2477 83.3133 66.5677 83.0133 67.021 82.76C67.4743 82.5067 67.9943 82.38 68.581 82.38ZM81.4199 89.74V91.5H74.3799L78.5399 84.3H74.6999V82.54H81.7399L77.5399 89.74H81.4199ZM88.6173 81.26H87.3373L88.6173 78.06H90.5373L88.6173 81.26ZM83.6573 87.02C83.6573 85.74 84.1106 84.6467 85.0173 83.74C85.9239 82.8333 87.0173 82.38 88.2973 82.38C89.5773 82.38 90.6706 82.8333 91.5773 83.74C92.4839 84.6467 92.9373 85.74 92.9373 87.02C92.9373 88.3 92.4839 89.3933 91.5773 90.3C90.6706 91.2067 89.5773 91.66 88.2973 91.66C87.0173 91.66 85.9239 91.2067 85.0173 90.3C84.1106 89.3933 83.6573 88.3 83.6573 87.02ZM86.3973 89.04C86.9306 89.6133 87.5639 89.9 88.2973 89.9C89.0439 89.9 89.6839 89.6133 90.2173 89.04C90.7506 88.4933 91.0173 87.82 91.0173 87.02C91.0173 86.2333 90.7506 85.5533 90.2173 84.98C89.6839 84.42 89.0439 84.14 88.2973 84.14C87.5773 84.14 86.9439 84.42 86.3973 84.98C85.8506 85.5667 85.5773 86.2467 85.5773 87.02C85.5773 87.7933 85.8506 88.4667 86.3973 89.04ZM105.447 91.66C104.301 91.66 103.421 91.28 102.807 90.52C102.194 89.76 101.887 88.6733 101.887 87.26V82.54H103.807V87.42C103.807 89.0733 104.474 89.9 105.807 89.9C106.421 89.9 106.934 89.6333 107.347 89.1C107.761 88.5667 107.967 87.8733 107.967 87.02V82.54H109.887V91.5H107.967V90.38C107.781 90.7267 107.461 91.0267 107.007 91.28C106.554 91.5333 106.034 91.66 105.447 91.66ZM117.37 82.38C118.517 82.38 119.397 82.76 120.01 83.52C120.623 84.28 120.93 85.3667 120.93 86.78V91.5H119.01V86.78C119.01 85.8867 118.85 85.2267 118.53 84.8C118.223 84.36 117.717 84.14 117.01 84.14C116.397 84.14 115.883 84.4 115.47 84.92C115.057 85.4267 114.85 86.0733 114.85 86.86V91.5H112.93V82.54H114.85V83.66C115.037 83.3133 115.357 83.0133 115.81 82.76C116.263 82.5067 116.783 82.38 117.37 82.38ZM131.169 87.3V91.5H129.249V90.34C128.502 91.22 127.576 91.66 126.469 91.66C125.509 91.66 124.722 91.3733 124.109 90.8C123.482 90.24 123.169 89.52 123.169 88.64C123.169 87.8 123.476 87.1133 124.089 86.58C124.716 86.0467 125.469 85.76 126.349 85.72C127.242 85.68 128.189 85.86 129.189 86.26C129.109 84.8467 128.436 84.14 127.169 84.14C126.409 84.14 125.716 84.3333 125.089 84.72L124.289 83.34C125.129 82.7 126.116 82.38 127.249 82.38C129.862 82.38 131.169 84.02 131.169 87.3ZM129.249 87.84C128.796 87.5733 128.236 87.42 127.569 87.38C126.902 87.34 126.316 87.44 125.809 87.68C125.316 87.9067 125.076 88.2467 125.089 88.7C125.089 89.0467 125.229 89.3333 125.509 89.56C125.802 89.7867 126.182 89.9 126.649 89.9C127.262 89.9 127.829 89.7 128.349 89.3C128.869 88.9 129.169 88.4133 129.249 87.84ZM140.122 87.02C140.122 85.74 140.575 84.6467 141.482 83.74C142.389 82.8333 143.482 82.38 144.762 82.38C146.042 82.38 147.135 82.8333 148.042 83.74C148.949 84.6467 149.402 85.74 149.402 87.02C149.402 88.3 148.949 89.3933 148.042 90.3C147.135 91.2067 146.042 91.66 144.762 91.66C143.482 91.66 142.389 91.2067 141.482 90.3C140.575 89.3933 140.122 88.3 140.122 87.02ZM142.862 89.04C143.395 89.6133 144.029 89.9 144.762 89.9C145.509 89.9 146.149 89.6133 146.682 89.04C147.215 88.4933 147.482 87.82 147.482 87.02C147.482 86.2333 147.215 85.5533 146.682 84.98C146.149 84.42 145.509 84.14 144.762 84.14C144.042 84.14 143.409 84.42 142.862 84.98C142.315 85.5667 142.042 86.2467 142.042 87.02C142.042 87.7933 142.315 88.4667 142.862 89.04ZM153.561 82.54V83.96C154.161 82.9067 155.228 82.38 156.761 82.38V84.42C156.174 84.3 155.641 84.3267 155.161 84.5C154.094 84.8867 153.561 85.88 153.561 87.48V91.5H151.641V82.54H153.561ZM165.392 83.66V82.54H167.312V90.98C167.312 92.8467 166.852 94.2333 165.932 95.14C165.012 96.02 163.819 96.46 162.352 96.46C161.752 96.46 161.112 96.3467 160.432 96.12C159.792 95.9067 159.312 95.64 158.992 95.32L159.852 93.76C160.559 94.3867 161.392 94.7 162.352 94.7C163.326 94.7 164.072 94.4 164.592 93.8C165.126 93.2 165.392 92.3533 165.392 91.26V90.38C164.659 91.2333 163.699 91.66 162.512 91.66C161.272 91.66 160.219 91.2067 159.352 90.3C158.472 89.3933 158.032 88.3 158.032 87.02C158.032 85.74 158.472 84.6467 159.352 83.74C160.219 82.8333 161.272 82.38 162.512 82.38C163.699 82.38 164.659 82.8067 165.392 83.66ZM160.752 89.06C161.272 89.62 161.912 89.9 162.672 89.9C163.419 89.9 164.066 89.62 164.612 89.06C165.132 88.5 165.392 87.82 165.392 87.02C165.392 86.22 165.132 85.54 164.612 84.98C164.066 84.42 163.419 84.14 162.672 84.14C161.912 84.14 161.272 84.42 160.752 84.98C160.219 85.5267 159.952 86.2067 159.952 87.02C159.952 87.8333 160.219 88.5133 160.752 89.06ZM177.556 87.3V91.5H175.636V90.34C174.889 91.22 173.962 91.66 172.856 91.66C171.896 91.66 171.109 91.3733 170.496 90.8C169.869 90.24 169.556 89.52 169.556 88.64C169.556 87.8 169.862 87.1133 170.476 86.58C171.102 86.0467 171.856 85.76 172.736 85.72C173.629 85.68 174.576 85.86 175.576 86.26C175.496 84.8467 174.822 84.14 173.556 84.14C172.796 84.14 172.102 84.3333 171.476 84.72L170.676 83.34C171.516 82.7 172.502 82.38 173.636 82.38C176.249 82.38 177.556 84.02 177.556 87.3ZM175.636 87.84C175.182 87.5733 174.622 87.42 173.956 87.38C173.289 87.34 172.702 87.44 172.196 87.68C171.702 87.9067 171.462 88.2467 171.476 88.7C171.476 89.0467 171.616 89.3333 171.896 89.56C172.189 89.7867 172.569 89.9 173.036 89.9C173.649 89.9 174.216 89.7 174.736 89.3C175.256 88.9 175.556 88.4133 175.636 87.84ZM184.714 82.38C185.86 82.38 186.74 82.76 187.354 83.52C187.967 84.28 188.274 85.3667 188.274 86.78V91.5H186.354V86.78C186.354 85.8867 186.194 85.2267 185.874 84.8C185.567 84.36 185.06 84.14 184.354 84.14C183.74 84.14 183.227 84.4 182.814 84.92C182.4 85.4267 182.194 86.0733 182.194 86.86V91.5H180.274V82.54H182.194V83.66C182.38 83.3133 182.7 83.0133 183.154 82.76C183.607 82.5067 184.127 82.38 184.714 82.38ZM193.396 79.5C193.396 79.9 193.256 80.24 192.976 80.52C192.696 80.8 192.356 80.94 191.956 80.94C191.556 80.94 191.216 80.8 190.936 80.52C190.656 80.24 190.516 79.9 190.516 79.5C190.516 79.1 190.656 78.76 190.936 78.48C191.216 78.2 191.556 78.06 191.956 78.06C192.356 78.06 192.696 78.2 192.976 78.48C193.256 78.76 193.396 79.1 193.396 79.5ZM192.916 91.5H190.996V82.54H192.916V91.5ZM202.357 89.74V91.5H195.317L199.477 84.3H195.637V82.54H202.677L198.477 89.74H202.357ZM212.595 87.3V91.5H210.675V90.34C209.928 91.22 209.001 91.66 207.895 91.66C206.935 91.66 206.148 91.3733 205.535 90.8C204.908 90.24 204.595 89.52 204.595 88.64C204.595 87.8 204.901 87.1133 205.515 86.58C206.141 86.0467 206.895 85.76 207.775 85.72C208.668 85.68 209.615 85.86 210.615 86.26C210.535 84.8467 209.861 84.14 208.595 84.14C207.835 84.14 207.141 84.3333 206.515 84.72L205.715 83.34C206.555 82.7 207.541 82.38 208.675 82.38C211.288 82.38 212.595 84.02 212.595 87.3ZM210.675 87.84C210.221 87.5733 209.661 87.42 208.995 87.38C208.328 87.34 207.741 87.44 207.235 87.68C206.741 87.9067 206.501 88.2467 206.515 88.7C206.515 89.0467 206.655 89.3333 206.935 89.56C207.228 89.7867 207.608 89.9 208.075 89.9C208.688 89.9 209.255 89.7 209.775 89.3C210.295 88.9 210.595 88.4133 210.675 87.84ZM219.469 89.9C220.309 89.9 220.976 89.6333 221.469 89.1L222.509 90.54C221.642 91.2867 220.629 91.66 219.469 91.66C218.189 91.66 217.096 91.2067 216.189 90.3C215.282 89.3933 214.829 88.3 214.829 87.02C214.829 85.74 215.282 84.6467 216.189 83.74C217.096 82.8333 218.189 82.38 219.469 82.38C220.629 82.38 221.642 82.7533 222.509 83.5L221.469 84.94C220.976 84.4067 220.309 84.14 219.469 84.14C218.749 84.14 218.116 84.42 217.569 84.98C217.022 85.5667 216.749 86.2467 216.749 87.02C216.749 87.7933 217.022 88.4667 217.569 89.04C218.102 89.6133 218.736 89.9 219.469 89.9ZM227.322 79.5C227.322 79.9 227.182 80.24 226.902 80.52C226.622 80.8 226.282 80.94 225.882 80.94C225.482 80.94 225.142 80.8 224.862 80.52C224.582 80.24 224.442 79.9 224.442 79.5C224.442 79.1 224.582 78.76 224.862 78.48C225.142 78.2 225.482 78.06 225.882 78.06C226.282 78.06 226.622 78.2 226.902 78.48C227.182 78.76 227.322 79.1 227.322 79.5ZM226.842 91.5H224.922V82.54H226.842V91.5ZM234.047 81.26H232.767L234.047 78.06H235.967L234.047 81.26ZM229.087 87.02C229.087 85.74 229.54 84.6467 230.447 83.74C231.354 82.8333 232.447 82.38 233.727 82.38C235.007 82.38 236.1 82.8333 237.007 83.74C237.914 84.6467 238.367 85.74 238.367 87.02C238.367 88.3 237.914 89.3933 237.007 90.3C236.1 91.2067 235.007 91.66 233.727 91.66C232.447 91.66 231.354 91.2067 230.447 90.3C229.54 89.3933 229.087 88.3 229.087 87.02ZM231.827 89.04C232.36 89.6133 232.994 89.9 233.727 89.9C234.474 89.9 235.114 89.6133 235.647 89.04C236.18 88.4933 236.447 87.82 236.447 87.02C236.447 86.2333 236.18 85.5533 235.647 84.98C235.114 84.42 234.474 84.14 233.727 84.14C233.007 84.14 232.374 84.42 231.827 84.98C231.28 85.5667 231.007 86.2467 231.007 87.02C231.007 87.7933 231.28 88.4667 231.827 89.04ZM245.046 82.38C246.193 82.38 247.073 82.76 247.686 83.52C248.299 84.28 248.606 85.3667 248.606 86.78V91.5H246.686V86.78C246.686 85.8867 246.526 85.2267 246.206 84.8C245.899 84.36 245.393 84.14 244.686 84.14C244.073 84.14 243.559 84.4 243.146 84.92C242.733 85.4267 242.526 86.0733 242.526 86.86V91.5H240.606V82.54H242.526V83.66C242.713 83.3133 243.033 83.0133 243.486 82.76C243.939 82.5067 244.459 82.38 245.046 82.38ZM17.4027 103.78H19.3227V110.66C20.0561 109.807 21.0161 109.38 22.2027 109.38C23.4427 109.38 24.5027 109.833 25.3827 110.74C26.2494 111.647 26.6827 112.74 26.6827 114.02C26.6827 115.3 26.2494 116.393 25.3827 117.3C24.5027 118.207 23.4427 118.66 22.2027 118.66C21.0161 118.66 20.0561 118.233 19.3227 117.38V118.5H17.4027V103.78ZM20.1227 116.06C20.6427 116.62 21.2827 116.9 22.0427 116.9C22.7894 116.9 23.4361 116.62 23.9827 116.06C24.5027 115.5 24.7627 114.82 24.7627 114.02C24.7627 113.22 24.5027 112.54 23.9827 111.98C23.4361 111.42 22.7894 111.14 22.0427 111.14C21.2827 111.14 20.6427 111.42 20.1227 111.98C19.5894 112.527 19.3227 113.207 19.3227 114.02C19.3227 114.833 19.5894 115.513 20.1227 116.06ZM33.2387 116.9C34.0253 116.9 34.7653 116.553 35.4587 115.86L36.5587 117.26C35.6653 118.193 34.5587 118.66 33.2387 118.66C31.9587 118.66 30.8653 118.207 29.9587 117.3C29.052 116.393 28.5987 115.3 28.5987 114.02C28.5987 112.74 29.052 111.647 29.9587 110.74C30.8653 109.833 31.9587 109.38 33.2387 109.38C34.2387 109.38 35.092 109.667 35.7987 110.24C36.5053 110.8 36.9853 111.567 37.2387 112.54L31.2987 115.98C31.4853 116.247 31.7587 116.467 32.1187 116.64C32.492 116.813 32.8653 116.9 33.2387 116.9ZM33.2387 111.14C32.5187 111.14 31.8853 111.433 31.3387 112.02C30.792 112.607 30.5187 113.273 30.5187 114.02C30.5187 114.047 30.532 114.22 30.5587 114.54L34.9987 111.98C34.572 111.42 33.9853 111.14 33.2387 111.14ZM43.6005 109.38C44.7472 109.38 45.6272 109.76 46.2405 110.52C46.8539 111.28 47.1605 112.367 47.1605 113.78V118.5H45.2405V113.78C45.2405 112.887 45.0805 112.227 44.7605 111.8C44.4539 111.36 43.9472 111.14 43.2405 111.14C42.6272 111.14 42.1139 111.4 41.7005 111.92C41.2872 112.427 41.0805 113.073 41.0805 113.86V118.5H39.1605V109.54H41.0805V110.66C41.2672 110.313 41.5872 110.013 42.0405 109.76C42.4939 109.507 43.0139 109.38 43.6005 109.38ZM54.0395 108.26H52.7595L54.0395 105.06H55.9595L54.0395 108.26ZM54.0395 116.9C54.8261 116.9 55.5661 116.553 56.2595 115.86L57.3595 117.26C56.4661 118.193 55.3595 118.66 54.0395 118.66C52.7595 118.66 51.6661 118.207 50.7595 117.3C49.8528 116.393 49.3995 115.3 49.3995 114.02C49.3995 112.74 49.8528 111.647 50.7595 110.74C51.6661 109.833 52.7595 109.38 54.0395 109.38C55.0395 109.38 55.8928 109.667 56.5995 110.24C57.3061 110.8 57.7861 111.567 58.0395 112.54L52.0995 115.98C52.2861 116.247 52.5595 116.467 52.9195 116.64C53.2928 116.813 53.6661 116.9 54.0395 116.9ZM54.0395 111.14C53.3195 111.14 52.6861 111.433 52.1395 112.02C51.5928 112.607 51.3195 113.273 51.3195 114.02C51.3195 114.047 51.3328 114.22 51.3595 114.54L55.7995 111.98C55.3728 111.42 54.7861 111.14 54.0395 111.14ZM59.3213 111.3V109.54H60.6013V107.1C60.6013 105.98 60.8547 105.12 61.3613 104.52C61.8813 103.92 62.588 103.62 63.4813 103.62C64.148 103.62 64.788 103.833 65.4013 104.26L64.5213 105.7C64.2547 105.487 63.9547 105.38 63.6213 105.38C62.888 105.38 62.5213 105.953 62.5213 107.1V109.54H65.4013V111.3H62.5213V118.5H60.6013V111.3H59.3213ZM70.3691 106.5C70.3691 106.9 70.2291 107.24 69.9491 107.52C69.6691 107.8 69.3291 107.94 68.9291 107.94C68.5291 107.94 68.1891 107.8 67.9091 107.52C67.6291 107.24 67.4891 106.9 67.4891 106.5C67.4891 106.1 67.6291 105.76 67.9091 105.48C68.1891 105.2 68.5291 105.06 68.9291 105.06C69.3291 105.06 69.6691 105.2 69.9491 105.48C70.2291 105.76 70.3691 106.1 70.3691 106.5ZM69.8891 118.5H67.9691V109.54H69.8891V118.5ZM76.7738 116.9C77.6138 116.9 78.2805 116.633 78.7738 116.1L79.8138 117.54C78.9472 118.287 77.9338 118.66 76.7738 118.66C75.4938 118.66 74.4005 118.207 73.4938 117.3C72.5872 116.393 72.1338 115.3 72.1338 114.02C72.1338 112.74 72.5872 111.647 73.4938 110.74C74.4005 109.833 75.4938 109.38 76.7738 109.38C77.9338 109.38 78.9472 109.753 79.8138 110.5L78.7738 111.94C78.2805 111.407 77.6138 111.14 76.7738 111.14C76.0538 111.14 75.4205 111.42 74.8738 111.98C74.3272 112.567 74.0538 113.247 74.0538 114.02C74.0538 114.793 74.3272 115.467 74.8738 116.04C75.4072 116.613 76.0405 116.9 76.7738 116.9ZM89.4307 114.3V118.5H87.5107V117.34C86.764 118.22 85.8374 118.66 84.7307 118.66C83.7707 118.66 82.984 118.373 82.3707 117.8C81.744 117.24 81.4307 116.52 81.4307 115.64C81.4307 114.8 81.7374 114.113 82.3507 113.58C82.9774 113.047 83.7307 112.76 84.6107 112.72C85.504 112.68 86.4507 112.86 87.4507 113.26C87.3707 111.847 86.6974 111.14 85.4307 111.14C84.6707 111.14 83.9774 111.333 83.3507 111.72L82.5507 110.34C83.3907 109.7 84.3774 109.38 85.5107 109.38C88.124 109.38 89.4307 111.02 89.4307 114.3ZM87.5107 114.84C87.0574 114.573 86.4974 114.42 85.8307 114.38C85.164 114.34 84.5774 114.44 84.0707 114.68C83.5774 114.907 83.3374 115.247 83.3507 115.7C83.3507 116.047 83.4907 116.333 83.7707 116.56C84.064 116.787 84.444 116.9 84.9107 116.9C85.524 116.9 86.0907 116.7 86.6107 116.3C87.1307 115.9 87.4307 115.413 87.5107 114.84ZM99.0238 118.5V103.78H100.944V118.5H99.0238ZM103.985 118.5V103.78H105.905V118.5H103.985ZM116.306 114.3V118.5H114.386V117.34C113.639 118.22 112.712 118.66 111.606 118.66C110.646 118.66 109.859 118.373 109.246 117.8C108.619 117.24 108.306 116.52 108.306 115.64C108.306 114.8 108.612 114.113 109.226 113.58C109.852 113.047 110.606 112.76 111.486 112.72C112.379 112.68 113.326 112.86 114.326 113.26C114.246 111.847 113.572 111.14 112.306 111.14C111.546 111.14 110.852 111.333 110.226 111.72L109.426 110.34C110.266 109.7 111.252 109.38 112.386 109.38C114.999 109.38 116.306 111.02 116.306 114.3ZM114.386 114.84C113.932 114.573 113.372 114.42 112.706 114.38C112.039 114.34 111.452 114.44 110.946 114.68C110.452 114.907 110.212 115.247 110.226 115.7C110.226 116.047 110.366 116.333 110.646 116.56C110.939 116.787 111.319 116.9 111.786 116.9C112.399 116.9 112.966 116.7 113.486 116.3C114.006 115.9 114.306 115.413 114.386 114.84ZM129.064 109.38C130.144 109.38 130.977 109.767 131.564 110.54C132.164 111.3 132.464 112.38 132.464 113.78V118.5H130.544V113.78C130.544 112.02 129.93 111.14 128.704 111.14C128.117 111.14 127.637 111.393 127.264 111.9C126.89 112.393 126.704 113.047 126.704 113.86V118.5H124.784V113.78C124.784 112.02 124.17 111.14 122.944 111.14C122.357 111.14 121.877 111.393 121.504 111.9C121.13 112.393 120.944 113.047 120.944 113.86V118.5H119.024V109.54H120.944V110.66C121.157 110.367 121.344 110.147 121.504 110C121.664 109.853 121.897 109.713 122.204 109.58C122.51 109.447 122.877 109.38 123.304 109.38C124.57 109.38 125.49 109.887 126.064 110.9C126.504 110.34 126.944 109.947 127.384 109.72C127.837 109.493 128.397 109.38 129.064 109.38ZM142.712 114.3V118.5H140.792V117.34C140.045 118.22 139.119 118.66 138.012 118.66C137.052 118.66 136.265 118.373 135.652 117.8C135.025 117.24 134.712 116.52 134.712 115.64C134.712 114.8 135.019 114.113 135.632 113.58C136.259 113.047 137.012 112.76 137.892 112.72C138.785 112.68 139.732 112.86 140.732 113.26C140.652 111.847 139.979 111.14 138.712 111.14C137.952 111.14 137.259 111.333 136.632 111.72L135.832 110.34C136.672 109.7 137.659 109.38 138.792 109.38C141.405 109.38 142.712 111.02 142.712 114.3ZM140.792 114.84C140.339 114.573 139.779 114.42 139.112 114.38C138.445 114.34 137.859 114.44 137.352 114.68C136.859 114.907 136.619 115.247 136.632 115.7C136.632 116.047 136.772 116.333 137.052 116.56C137.345 116.787 137.725 116.9 138.192 116.9C138.805 116.9 139.372 116.7 139.892 116.3C140.412 115.9 140.712 115.413 140.792 114.84ZM152.306 110.66V103.78H154.226V118.5H152.306V117.38C151.573 118.233 150.613 118.66 149.426 118.66C148.186 118.66 147.133 118.207 146.266 117.3C145.386 116.393 144.946 115.3 144.946 114.02C144.946 112.74 145.386 111.647 146.266 110.74C147.133 109.833 148.186 109.38 149.426 109.38C150.613 109.38 151.573 109.807 152.306 110.66ZM147.666 116.06C148.186 116.62 148.826 116.9 149.586 116.9C150.333 116.9 150.98 116.62 151.526 116.06C152.046 115.5 152.306 114.82 152.306 114.02C152.306 113.22 152.046 112.54 151.526 111.98C150.98 111.42 150.333 111.14 149.586 111.14C148.826 111.14 148.186 111.42 147.666 111.98C147.133 112.527 146.866 113.207 146.866 114.02C146.866 114.833 147.133 115.513 147.666 116.06ZM164.626 114.3V118.5H162.706V117.34C161.959 118.22 161.033 118.66 159.926 118.66C158.966 118.66 158.179 118.373 157.566 117.8C156.939 117.24 156.626 116.52 156.626 115.64C156.626 114.8 156.933 114.113 157.546 113.58C158.173 113.047 158.926 112.76 159.806 112.72C160.699 112.68 161.646 112.86 162.646 113.26C162.566 111.847 161.893 111.14 160.626 111.14C159.866 111.14 159.173 111.333 158.546 111.72L157.746 110.34C158.586 109.7 159.573 109.38 160.706 109.38C163.319 109.38 164.626 111.02 164.626 114.3ZM162.706 114.84C162.253 114.573 161.693 114.42 161.026 114.38C160.359 114.34 159.773 114.44 159.266 114.68C158.773 114.907 158.533 115.247 158.546 115.7C158.546 116.047 158.686 116.333 158.966 116.56C159.259 116.787 159.639 116.9 160.106 116.9C160.719 116.9 161.286 116.7 161.806 116.3C162.326 115.9 162.626 115.413 162.706 114.84ZM186.059 118.5H182.539L181.879 116.9H176.799L176.139 118.5H172.619L179.339 104.1L186.059 118.5ZM179.339 110.66L177.959 114.02H180.719L179.339 110.66ZM190.537 108.9V110.68C190.87 110 191.31 109.5 191.857 109.18C192.403 108.847 193.137 108.647 194.057 108.58V112.1C193.497 111.927 192.91 111.927 192.297 112.1C191.79 112.233 191.37 112.56 191.037 113.08C190.703 113.6 190.537 114.227 190.537 114.96V118.5H187.337V108.9H190.537ZM200.286 118.5H197.086V111.78H195.486V108.9H197.086V106.02L200.286 105.06V108.9H202.846V111.78H200.286V118.5ZM210.519 108.58C211.612 108.58 212.525 108.967 213.259 109.74C213.992 110.513 214.359 111.62 214.359 113.06V118.5H211.159V113.38C211.159 112.1 210.625 111.46 209.559 111.46C209.119 111.46 208.739 111.66 208.419 112.06C208.112 112.447 207.959 112.993 207.959 113.7V118.5H204.759V103.78H207.959V109.86C208.519 109.007 209.372 108.58 210.519 108.58ZM219.958 118.82C218.892 118.82 217.985 118.427 217.238 117.64C216.492 116.853 216.118 115.753 216.118 114.34V108.9H219.318V114.02C219.318 115.3 219.852 115.94 220.918 115.94C221.358 115.94 221.732 115.747 222.038 115.36C222.358 114.96 222.518 114.407 222.518 113.7V108.9H225.718V118.5H222.518V117.54C221.958 118.393 221.105 118.82 219.958 118.82ZM231.318 108.9V110.68C231.651 110 232.091 109.5 232.638 109.18C233.185 108.847 233.918 108.647 234.838 108.58V112.1C234.278 111.927 233.691 111.927 233.078 112.1C232.571 112.233 232.151 112.56 231.818 113.08C231.485 113.6 231.318 114.227 231.318 114.96V118.5H228.118V108.9H231.318ZM239.311 104.42V109.54H236.431V104.42H239.311ZM245.595 112.16C248.235 112.6 249.555 113.7 249.555 115.46C249.555 116.46 249.162 117.273 248.375 117.9C247.602 118.513 246.515 118.82 245.115 118.82C244.222 118.82 243.395 118.673 242.635 118.38C241.889 118.087 241.315 117.74 240.915 117.34L242.195 114.94C243.022 115.607 243.842 115.98 244.655 116.06C245.789 116.18 246.355 116.027 246.355 115.6C246.355 115.4 246.262 115.26 246.075 115.18C245.889 115.1 245.569 115.02 245.115 114.94C245.089 114.94 245.049 114.933 244.995 114.92C244.955 114.907 244.922 114.9 244.895 114.9C243.389 114.593 242.409 114.113 241.955 113.46C241.582 112.913 241.395 112.327 241.395 111.7C241.395 110.847 241.755 110.107 242.475 109.48C243.169 108.88 244.162 108.58 245.455 108.58C245.909 108.58 246.502 108.68 247.235 108.88C247.862 109.08 248.375 109.313 248.775 109.58L247.555 111.96C247.022 111.547 246.395 111.307 245.675 111.24C244.955 111.173 244.595 111.293 244.595 111.6C244.595 111.76 244.662 111.88 244.795 111.96C244.929 112.027 245.195 112.093 245.595 112.16ZM19.7163 145.5H16.5163V131.42H24.5163V134.3H19.7163V137.82H23.2363V140.7H19.7163V145.5ZM30.9257 135.58C32.4324 135.58 33.719 136.073 34.7857 137.06C35.839 138.06 36.3657 139.273 36.3657 140.7C36.3657 142.14 35.8457 143.347 34.8057 144.32C33.739 145.32 32.4457 145.82 30.9257 145.82C29.3524 145.82 28.0524 145.327 27.0257 144.34C25.999 143.353 25.4857 142.14 25.4857 140.7C25.4857 139.233 25.9924 138.013 27.0057 137.04C28.019 136.067 29.3257 135.58 30.9257 135.58ZM28.6857 140.7C28.6857 141.313 28.9057 141.84 29.3457 142.28C29.7857 142.72 30.3124 142.94 30.9257 142.94C31.539 142.94 32.0657 142.72 32.5057 142.28C32.9457 141.84 33.1657 141.313 33.1657 140.7C33.1657 140.087 32.9457 139.56 32.5057 139.12C32.0657 138.68 31.539 138.46 30.9257 138.46C30.3124 138.46 29.7857 138.68 29.3457 139.12C28.9057 139.56 28.6857 140.087 28.6857 140.7ZM41.5012 145.82C40.4345 145.82 39.5278 145.427 38.7812 144.64C38.0345 143.853 37.6612 142.753 37.6612 141.34V135.9H40.8612V141.02C40.8612 142.3 41.3945 142.94 42.4612 142.94C42.9012 142.94 43.2745 142.747 43.5812 142.36C43.9012 141.96 44.0612 141.407 44.0612 140.7V135.9H47.2612V145.5H44.0612V144.54C43.5012 145.393 42.6478 145.82 41.5012 145.82ZM55.4209 135.58C56.5142 135.58 57.4275 135.967 58.1609 136.74C58.8942 137.513 59.2609 138.62 59.2609 140.06V145.5H56.0609V140.38C56.0609 139.1 55.5275 138.46 54.4609 138.46C54.0209 138.46 53.6409 138.66 53.3209 139.06C53.0142 139.447 52.8609 139.993 52.8609 140.7V145.5H49.6609V135.9H52.8609V136.86C53.4209 136.007 54.2742 135.58 55.4209 135.58ZM68.5368 136.86V130.78H71.7368V145.5H68.5368V144.54C67.8168 145.393 66.8635 145.82 65.6768 145.82C64.3168 145.82 63.1768 145.32 62.2568 144.32C61.3235 143.347 60.8568 142.14 60.8568 140.7C60.8568 139.26 61.3235 138.047 62.2568 137.06C63.1768 136.073 64.3168 135.58 65.6768 135.58C66.8635 135.58 67.8168 136.007 68.5368 136.86ZM64.0568 140.7C64.0568 141.313 64.2768 141.84 64.7168 142.28C65.1568 142.72 65.6835 142.94 66.2968 142.94C66.9101 142.94 67.4368 142.72 67.8768 142.28C68.3168 141.84 68.5368 141.313 68.5368 140.7C68.5368 140.087 68.3168 139.56 67.8768 139.12C67.4368 138.68 66.9101 138.46 66.2968 138.46C65.6835 138.46 65.1568 138.68 64.7168 139.12C64.2768 139.56 64.0568 140.087 64.0568 140.7ZM82.7735 140.5V145.5H79.5735V144.7C78.9068 145.447 78.0402 145.82 76.9735 145.82C75.8935 145.82 75.0468 145.493 74.4335 144.84C73.8068 144.187 73.4935 143.4 73.4935 142.48C73.4935 141.64 73.8068 140.947 74.4335 140.4C75.0602 139.853 75.8202 139.533 76.7135 139.44C77.6335 139.36 78.5735 139.447 79.5335 139.7C79.5068 139.247 79.3402 138.887 79.0335 138.62C78.7402 138.353 78.3335 138.22 77.8135 138.22C77.0268 138.22 76.2802 138.427 75.5735 138.84L74.6135 136.54C75.6002 135.9 76.8268 135.58 78.2935 135.58C79.5735 135.58 80.6468 135.98 81.5135 136.78C82.3535 137.58 82.7735 138.82 82.7735 140.5ZM79.5735 141.7C78.8535 141.447 78.1868 141.393 77.5735 141.54C76.9868 141.687 76.6935 142.02 76.6935 142.54C76.6935 142.847 76.8002 143.1 77.0135 143.3C77.2402 143.487 77.5135 143.58 77.8335 143.58C78.2602 143.58 78.6402 143.413 78.9735 143.08C79.3068 142.733 79.5068 142.273 79.5735 141.7ZM89.0162 145.5H85.8162V138.78H84.2162V135.9H85.8162V133.02L89.0162 132.06V135.9H91.5762V138.78H89.0162V145.5ZM97.009 132.7C97.009 133.233 96.8223 133.687 96.449 134.06C96.0757 134.433 95.6223 134.62 95.089 134.62C94.5557 134.62 94.1023 134.433 93.729 134.06C93.3557 133.687 93.169 133.233 93.169 132.7C93.169 132.167 93.3557 131.713 93.729 131.34C94.1023 130.967 94.5557 130.78 95.089 130.78C95.6223 130.78 96.0757 130.967 96.449 131.34C96.8223 131.713 97.009 132.167 97.009 132.7ZM96.689 145.5H93.489V135.9H96.689V145.5ZM103.738 135.58C105.245 135.58 106.532 136.073 107.598 137.06C108.652 138.06 109.178 139.273 109.178 140.7C109.178 142.14 108.658 143.347 107.618 144.32C106.552 145.32 105.258 145.82 103.738 145.82C102.165 145.82 100.865 145.327 99.8382 144.34C98.8115 143.353 98.2982 142.14 98.2982 140.7C98.2982 139.233 98.8049 138.013 99.8182 137.04C100.832 136.067 102.138 135.58 103.738 135.58ZM101.498 140.7C101.498 141.313 101.718 141.84 102.158 142.28C102.598 142.72 103.125 142.94 103.738 142.94C104.352 142.94 104.878 142.72 105.318 142.28C105.758 141.84 105.978 141.313 105.978 140.7C105.978 140.087 105.758 139.56 105.318 139.12C104.878 138.68 104.352 138.46 103.738 138.46C103.125 138.46 102.598 138.68 102.158 139.12C101.718 139.56 101.498 140.087 101.498 140.7ZM116.554 135.58C117.647 135.58 118.56 135.967 119.294 136.74C120.027 137.513 120.394 138.62 120.394 140.06V145.5H117.194V140.38C117.194 139.1 116.66 138.46 115.594 138.46C115.154 138.46 114.774 138.66 114.454 139.06C114.147 139.447 113.994 139.993 113.994 140.7V145.5H110.794V135.9H113.994V136.86C114.554 136.007 115.407 135.58 116.554 135.58ZM131.588 144.38V150.3H129.668V136.54H131.588V137.66C132.322 136.807 133.282 136.38 134.468 136.38C135.708 136.38 136.768 136.833 137.648 137.74C138.515 138.647 138.948 139.74 138.948 141.02C138.948 142.3 138.515 143.393 137.648 144.3C136.768 145.207 135.708 145.66 134.468 145.66C133.282 145.66 132.322 145.233 131.588 144.38ZM136.248 138.98C135.702 138.42 135.055 138.14 134.308 138.14C133.548 138.14 132.908 138.42 132.388 138.98C131.855 139.527 131.588 140.207 131.588 141.02C131.588 141.833 131.855 142.513 132.388 143.06C132.908 143.62 133.548 143.9 134.308 143.9C135.055 143.9 135.702 143.62 136.248 143.06C136.768 142.5 137.028 141.82 137.028 141.02C137.028 140.22 136.768 139.54 136.248 138.98ZM148.864 141.3V145.5H146.944V144.34C146.198 145.22 145.271 145.66 144.164 145.66C143.204 145.66 142.418 145.373 141.804 144.8C141.178 144.24 140.864 143.52 140.864 142.64C140.864 141.8 141.171 141.113 141.784 140.58C142.411 140.047 143.164 139.76 144.044 139.72C144.938 139.68 145.884 139.86 146.884 140.26C146.804 138.847 146.131 138.14 144.864 138.14C144.104 138.14 143.411 138.333 142.784 138.72L141.984 137.34C142.824 136.7 143.811 136.38 144.944 136.38C147.558 136.38 148.864 138.02 148.864 141.3ZM146.944 141.84C146.491 141.573 145.931 141.42 145.264 141.38C144.598 141.34 144.011 141.44 143.504 141.68C143.011 141.907 142.771 142.247 142.784 142.7C142.784 143.047 142.924 143.333 143.204 143.56C143.498 143.787 143.878 143.9 144.344 143.9C144.958 143.9 145.524 143.7 146.044 143.3C146.564 142.9 146.864 142.413 146.944 141.84ZM153.502 136.54V137.96C154.102 136.907 155.169 136.38 156.702 136.38V138.42C156.116 138.3 155.582 138.327 155.102 138.5C154.036 138.887 153.502 139.88 153.502 141.48V145.5H151.582V136.54H153.502ZM165.974 141.3V145.5H164.054V144.34C163.307 145.22 162.38 145.66 161.274 145.66C160.314 145.66 159.527 145.373 158.914 144.8C158.287 144.24 157.974 143.52 157.974 142.64C157.974 141.8 158.28 141.113 158.894 140.58C159.52 140.047 160.274 139.76 161.154 139.72C162.047 139.68 162.994 139.86 163.994 140.26C163.914 138.847 163.24 138.14 161.974 138.14C161.214 138.14 160.52 138.333 159.894 138.72L159.094 137.34C159.934 136.7 160.92 136.38 162.054 136.38C164.667 136.38 165.974 138.02 165.974 141.3ZM164.054 141.84C163.6 141.573 163.04 141.42 162.374 141.38C161.707 141.34 161.12 141.44 160.614 141.68C160.12 141.907 159.88 142.247 159.894 142.7C159.894 143.047 160.034 143.333 160.314 143.56C160.607 143.787 160.987 143.9 161.454 143.9C162.067 143.9 162.634 143.7 163.154 143.3C163.674 142.9 163.974 142.413 164.054 141.84ZM182.927 141.3V145.5H181.007V144.34C180.26 145.22 179.333 145.66 178.227 145.66C177.267 145.66 176.48 145.373 175.867 144.8C175.24 144.24 174.927 143.52 174.927 142.64C174.927 141.8 175.233 141.113 175.847 140.58C176.473 140.047 177.227 139.76 178.107 139.72C179 139.68 179.947 139.86 180.947 140.26C180.867 138.847 180.193 138.14 178.927 138.14C178.167 138.14 177.473 138.333 176.847 138.72L176.047 137.34C176.887 136.7 177.873 136.38 179.007 136.38C181.62 136.38 182.927 138.02 182.927 141.3ZM181.007 141.84C180.553 141.573 179.993 141.42 179.327 141.38C178.66 141.34 178.073 141.44 177.567 141.68C177.073 141.907 176.833 142.247 176.847 142.7C176.847 143.047 176.987 143.333 177.267 143.56C177.56 143.787 177.94 143.9 178.407 143.9C179.02 143.9 179.587 143.7 180.107 143.3C180.627 142.9 180.927 142.413 181.007 141.84ZM189.021 142.6L191.401 136.54H193.481L187.901 150.3H185.861L188.041 144.98L184.521 136.54H186.601L189.021 142.6ZM198.651 145.66C197.504 145.66 196.624 145.28 196.011 144.52C195.397 143.76 195.091 142.673 195.091 141.26V136.54H197.011V141.42C197.011 143.073 197.677 143.9 199.011 143.9C199.624 143.9 200.137 143.633 200.551 143.1C200.964 142.567 201.171 141.873 201.171 141.02V136.54H203.091V145.5H201.171V144.38C200.984 144.727 200.664 145.027 200.211 145.28C199.757 145.533 199.237 145.66 198.651 145.66ZM212.697 137.66V130.78H214.617V145.5H212.697V144.38C211.964 145.233 211.004 145.66 209.817 145.66C208.577 145.66 207.524 145.207 206.657 144.3C205.777 143.393 205.337 142.3 205.337 141.02C205.337 139.74 205.777 138.647 206.657 137.74C207.524 136.833 208.577 136.38 209.817 136.38C211.004 136.38 211.964 136.807 212.697 137.66ZM208.057 143.06C208.577 143.62 209.217 143.9 209.977 143.9C210.724 143.9 211.37 143.62 211.917 143.06C212.437 142.5 212.697 141.82 212.697 141.02C212.697 140.22 212.437 139.54 211.917 138.98C211.37 138.42 210.724 138.14 209.977 138.14C209.217 138.14 208.577 138.42 208.057 138.98C207.524 139.527 207.257 140.207 207.257 141.02C207.257 141.833 207.524 142.513 208.057 143.06ZM225.017 141.3V145.5H223.097V144.34C222.35 145.22 221.423 145.66 220.317 145.66C219.357 145.66 218.57 145.373 217.957 144.8C217.33 144.24 217.017 143.52 217.017 142.64C217.017 141.8 217.323 141.113 217.937 140.58C218.563 140.047 219.317 139.76 220.197 139.72C221.09 139.68 222.037 139.86 223.037 140.26C222.957 138.847 222.283 138.14 221.017 138.14C220.257 138.14 219.563 138.333 218.937 138.72L218.137 137.34C218.977 136.7 219.963 136.38 221.097 136.38C223.71 136.38 225.017 138.02 225.017 141.3ZM223.097 141.84C222.643 141.573 222.083 141.42 221.417 141.38C220.75 141.34 220.163 141.44 219.657 141.68C219.163 141.907 218.923 142.247 218.937 142.7C218.937 143.047 219.077 143.333 219.357 143.56C219.65 143.787 220.03 143.9 220.497 143.9C221.11 143.9 221.677 143.7 222.197 143.3C222.717 142.9 223.017 142.413 223.097 141.84ZM229.655 136.54V137.96C230.255 136.907 231.321 136.38 232.855 136.38V138.42C232.268 138.3 231.735 138.327 231.255 138.5C230.188 138.887 229.655 139.88 229.655 141.48V145.5H227.735V136.54H229.655ZM249.489 141.3V145.5H247.569V144.34C246.823 145.22 245.896 145.66 244.789 145.66C243.829 145.66 243.043 145.373 242.429 144.8C241.803 144.24 241.489 143.52 241.489 142.64C241.489 141.8 241.796 141.113 242.409 140.58C243.036 140.047 243.789 139.76 244.669 139.72C245.563 139.68 246.509 139.86 247.509 140.26C247.429 138.847 246.756 138.14 245.489 138.14C244.729 138.14 244.036 138.333 243.409 138.72L242.609 137.34C243.449 136.7 244.436 136.38 245.569 136.38C248.183 136.38 249.489 138.02 249.489 141.3ZM247.569 141.84C247.116 141.573 246.556 141.42 245.889 141.38C245.223 141.34 244.636 141.44 244.129 141.68C243.636 141.907 243.396 142.247 243.409 142.7C243.409 143.047 243.549 143.333 243.829 143.56C244.123 143.787 244.503 143.9 244.969 143.9C245.583 143.9 246.149 143.7 246.669 143.3C247.189 142.9 247.489 142.413 247.569 141.84ZM50.9341 170.38V176.3H49.0141V162.54H50.9341V163.66C51.6674 162.807 52.6274 162.38 53.8141 162.38C55.0541 162.38 56.1141 162.833 56.9941 163.74C57.8607 164.647 58.2941 165.74 58.2941 167.02C58.2941 168.3 57.8607 169.393 56.9941 170.3C56.1141 171.207 55.0541 171.66 53.8141 171.66C52.6274 171.66 51.6674 171.233 50.9341 170.38ZM55.5941 164.98C55.0474 164.42 54.4007 164.14 53.6541 164.14C52.8941 164.14 52.2541 164.42 51.7341 164.98C51.2007 165.527 50.9341 166.207 50.9341 167.02C50.9341 167.833 51.2007 168.513 51.7341 169.06C52.2541 169.62 52.8941 169.9 53.6541 169.9C54.4007 169.9 55.0474 169.62 55.5941 169.06C56.1141 168.5 56.3741 167.82 56.3741 167.02C56.3741 166.22 56.1141 165.54 55.5941 164.98ZM64.85 169.9C65.6367 169.9 66.3767 169.553 67.07 168.86L68.17 170.26C67.2767 171.193 66.17 171.66 64.85 171.66C63.57 171.66 62.4767 171.207 61.57 170.3C60.6633 169.393 60.21 168.3 60.21 167.02C60.21 165.74 60.6633 164.647 61.57 163.74C62.4767 162.833 63.57 162.38 64.85 162.38C65.85 162.38 66.7033 162.667 67.41 163.24C68.1167 163.8 68.5967 164.567 68.85 165.54L62.91 168.98C63.0967 169.247 63.37 169.467 63.73 169.64C64.1033 169.813 64.4767 169.9 64.85 169.9ZM64.85 164.14C64.13 164.14 63.4967 164.433 62.95 165.02C62.4033 165.607 62.13 166.273 62.13 167.02C62.13 167.047 62.1433 167.22 62.17 167.54L66.61 164.98C66.1833 164.42 65.5967 164.14 64.85 164.14ZM72.6919 162.54V163.96C73.2919 162.907 74.3585 162.38 75.8919 162.38V164.42C75.3052 164.3 74.7719 164.327 74.2919 164.5C73.2252 164.887 72.6919 165.88 72.6919 167.48V171.5H70.7719V162.54H72.6919ZM80.3677 162.54V163.96C80.9677 162.907 82.0343 162.38 83.5677 162.38V164.42C82.981 164.3 82.4477 164.327 81.9677 164.5C80.901 164.887 80.3677 165.88 80.3677 167.48V171.5H78.4477V162.54H80.3677ZM84.8389 167.02C84.8389 165.74 85.2922 164.647 86.1989 163.74C87.1056 162.833 88.1989 162.38 89.4789 162.38C90.7589 162.38 91.8522 162.833 92.7589 163.74C93.6656 164.647 94.1189 165.74 94.1189 167.02C94.1189 168.3 93.6656 169.393 92.7589 170.3C91.8522 171.207 90.7589 171.66 89.4789 171.66C88.1989 171.66 87.1056 171.207 86.1989 170.3C85.2922 169.393 84.8389 168.3 84.8389 167.02ZM87.5789 169.04C88.1122 169.613 88.7456 169.9 89.4789 169.9C90.2256 169.9 90.8656 169.613 91.3989 169.04C91.9322 168.493 92.1989 167.82 92.1989 167.02C92.1989 166.233 91.9322 165.553 91.3989 164.98C90.8656 164.42 90.2256 164.14 89.4789 164.14C88.7589 164.14 88.1256 164.42 87.5789 164.98C87.0322 165.567 86.7589 166.247 86.7589 167.02C86.7589 167.793 87.0322 168.467 87.5789 169.04ZM99.8903 165.9C101.797 166.34 102.75 167.313 102.75 168.82C102.75 169.66 102.437 170.34 101.81 170.86C101.184 171.393 100.437 171.66 99.5703 171.66C98.2236 171.66 97.0436 171.153 96.0303 170.14L96.9903 168.74C97.7636 169.487 98.5836 169.873 99.4503 169.9C99.8636 169.913 100.197 169.82 100.45 169.62C100.704 169.42 100.83 169.187 100.83 168.92C100.83 168.413 100.417 168.047 99.5903 167.82C98.4303 167.5 97.6236 167.133 97.1703 166.72C96.7303 166.307 96.5103 165.72 96.5103 164.96C96.5103 164.24 96.7836 163.633 97.3303 163.14C97.8903 162.633 98.6303 162.38 99.5503 162.38C100.497 162.38 101.357 162.687 102.13 163.3L101.23 164.7C100.737 164.327 100.177 164.14 99.5503 164.14C99.2036 164.14 98.9303 164.213 98.7303 164.36C98.5303 164.507 98.4303 164.687 98.4303 164.9C98.4303 165.153 98.5303 165.353 98.7303 165.5C98.9436 165.633 99.3303 165.767 99.8903 165.9ZM116.022 169.9C116.862 169.9 117.529 169.633 118.022 169.1L119.062 170.54C118.195 171.287 117.182 171.66 116.022 171.66C114.742 171.66 113.649 171.207 112.742 170.3C111.835 169.393 111.382 168.3 111.382 167.02C111.382 165.74 111.835 164.647 112.742 163.74C113.649 162.833 114.742 162.38 116.022 162.38C117.182 162.38 118.195 162.753 119.062 163.5L118.022 164.94C117.529 164.407 116.862 164.14 116.022 164.14C115.302 164.14 114.669 164.42 114.122 164.98C113.575 165.567 113.302 166.247 113.302 167.02C113.302 167.793 113.575 168.467 114.122 169.04C114.655 169.613 115.289 169.9 116.022 169.9ZM128.679 167.3V171.5H126.759V170.34C126.012 171.22 125.085 171.66 123.979 171.66C123.019 171.66 122.232 171.373 121.619 170.8C120.992 170.24 120.679 169.52 120.679 168.64C120.679 167.8 120.985 167.113 121.599 166.58C122.225 166.047 122.979 165.76 123.859 165.72C124.752 165.68 125.699 165.86 126.699 166.26C126.619 164.847 125.945 164.14 124.679 164.14C123.919 164.14 123.225 164.333 122.599 164.72L121.799 163.34C122.639 162.7 123.625 162.38 124.759 162.38C127.372 162.38 128.679 164.02 128.679 167.3ZM126.759 167.84C126.305 167.573 125.745 167.42 125.079 167.38C124.412 167.34 123.825 167.44 123.319 167.68C122.825 167.907 122.585 168.247 122.599 168.7C122.599 169.047 122.739 169.333 123.019 169.56C123.312 169.787 123.692 169.9 124.159 169.9C124.772 169.9 125.339 169.7 125.859 169.3C126.379 168.9 126.679 168.413 126.759 167.84ZM131.397 171.5V156.78H133.317V171.5H131.397ZM136.358 171.5V156.78H138.278V171.5H136.358ZM145.163 169.9C145.949 169.9 146.689 169.553 147.383 168.86L148.483 170.26C147.589 171.193 146.483 171.66 145.163 171.66C143.883 171.66 142.789 171.207 141.883 170.3C140.976 169.393 140.523 168.3 140.523 167.02C140.523 165.74 140.976 164.647 141.883 163.74C142.789 162.833 143.883 162.38 145.163 162.38C146.163 162.38 147.016 162.667 147.723 163.24C148.429 163.8 148.909 164.567 149.163 165.54L143.223 168.98C143.409 169.247 143.683 169.467 144.043 169.64C144.416 169.813 144.789 169.9 145.163 169.9ZM145.163 164.14C144.443 164.14 143.809 164.433 143.263 165.02C142.716 165.607 142.443 166.273 142.443 167.02C142.443 167.047 142.456 167.22 142.483 167.54L146.923 164.98C146.496 164.42 145.909 164.14 145.163 164.14ZM153.484 159.5C153.484 159.9 153.344 160.24 153.064 160.52C152.784 160.8 152.444 160.94 152.044 160.94C151.644 160.94 151.304 160.8 151.024 160.52C150.744 160.24 150.604 159.9 150.604 159.5C150.604 159.1 150.744 158.76 151.024 158.48C151.304 158.2 151.644 158.06 152.044 158.06C152.444 158.06 152.784 158.2 153.064 158.48C153.344 158.76 153.484 159.1 153.484 159.5ZM153.004 175.98L151.084 176.62V162.54H153.004V175.98ZM159.889 169.9C160.676 169.9 161.416 169.553 162.109 168.86L163.209 170.26C162.316 171.193 161.209 171.66 159.889 171.66C158.609 171.66 157.516 171.207 156.609 170.3C155.702 169.393 155.249 168.3 155.249 167.02C155.249 165.74 155.702 164.647 156.609 163.74C157.516 162.833 158.609 162.38 159.889 162.38C160.889 162.38 161.742 162.667 162.449 163.24C163.156 163.8 163.636 164.567 163.889 165.54L157.949 168.98C158.136 169.247 158.409 169.467 158.769 169.64C159.142 169.813 159.516 169.9 159.889 169.9ZM159.889 164.14C159.169 164.14 158.536 164.433 157.989 165.02C157.442 165.607 157.169 166.273 157.169 167.02C157.169 167.047 157.182 167.22 157.209 167.54L161.649 164.98C161.222 164.42 160.636 164.14 159.889 164.14ZM167.731 162.54V163.96C168.331 162.907 169.398 162.38 170.931 162.38V164.42C170.344 164.3 169.811 164.327 169.331 164.5C168.264 164.887 167.731 165.88 167.731 167.48V171.5H165.811V162.54H167.731ZM172.202 167.02C172.202 165.74 172.656 164.647 173.562 163.74C174.469 162.833 175.562 162.38 176.842 162.38C178.122 162.38 179.216 162.833 180.122 163.74C181.029 164.647 181.482 165.74 181.482 167.02C181.482 168.3 181.029 169.393 180.122 170.3C179.216 171.207 178.122 171.66 176.842 171.66C175.562 171.66 174.469 171.207 173.562 170.3C172.656 169.393 172.202 168.3 172.202 167.02ZM174.942 169.04C175.476 169.613 176.109 169.9 176.842 169.9C177.589 169.9 178.229 169.613 178.762 169.04C179.296 168.493 179.562 167.82 179.562 167.02C179.562 166.233 179.296 165.553 178.762 164.98C178.229 164.42 177.589 164.14 176.842 164.14C176.122 164.14 175.489 164.42 174.942 164.98C174.396 165.567 174.122 166.247 174.122 167.02C174.122 167.793 174.396 168.467 174.942 169.04ZM187.254 165.9C189.16 166.34 190.114 167.313 190.114 168.82C190.114 169.66 189.8 170.34 189.174 170.86C188.547 171.393 187.8 171.66 186.934 171.66C185.587 171.66 184.407 171.153 183.394 170.14L184.354 168.74C185.127 169.487 185.947 169.873 186.814 169.9C187.227 169.913 187.56 169.82 187.814 169.62C188.067 169.42 188.194 169.187 188.194 168.92C188.194 168.413 187.78 168.047 186.954 167.82C185.794 167.5 184.987 167.133 184.534 166.72C184.094 166.307 183.874 165.72 183.874 164.96C183.874 164.24 184.147 163.633 184.694 163.14C185.254 162.633 185.994 162.38 186.914 162.38C187.86 162.38 188.72 162.687 189.494 163.3L188.594 164.7C188.1 164.327 187.54 164.14 186.914 164.14C186.567 164.14 186.294 164.213 186.094 164.36C185.894 164.507 185.794 164.687 185.794 164.9C185.794 165.153 185.894 165.353 186.094 165.5C186.307 165.633 186.694 165.767 187.254 165.9ZM203.385 169.9C204.172 169.9 204.912 169.553 205.605 168.86L206.705 170.26C205.812 171.193 204.705 171.66 203.385 171.66C202.105 171.66 201.012 171.207 200.105 170.3C199.198 169.393 198.745 168.3 198.745 167.02C198.745 165.74 199.198 164.647 200.105 163.74C201.012 162.833 202.105 162.38 203.385 162.38C204.385 162.38 205.238 162.667 205.945 163.24C206.652 163.8 207.132 164.567 207.385 165.54L201.445 168.98C201.632 169.247 201.905 169.467 202.265 169.64C202.638 169.813 203.012 169.9 203.385 169.9ZM203.385 164.14C202.665 164.14 202.032 164.433 201.485 165.02C200.938 165.607 200.665 166.273 200.665 167.02C200.665 167.047 200.678 167.22 200.705 167.54L205.145 164.98C204.718 164.42 204.132 164.14 203.385 164.14ZM213.747 162.38C214.894 162.38 215.774 162.76 216.387 163.52C217 164.28 217.307 165.367 217.307 166.78V171.5H215.387V166.78C215.387 165.887 215.227 165.227 214.907 164.8C214.6 164.36 214.094 164.14 213.387 164.14C212.774 164.14 212.26 164.4 211.847 164.92C211.434 165.427 211.227 166.073 211.227 166.86V171.5H209.307V162.54H211.227V163.66C211.414 163.313 211.734 163.013 212.187 162.76C212.64 162.507 213.16 162.38 213.747 162.38ZM103.625 183.42V185.18H98.8247V190.22H102.345V191.98H98.8247V195.74H103.625V197.5H96.9047V183.42H103.625ZM110.514 195.9C111.354 195.9 112.021 195.633 112.514 195.1L113.554 196.54C112.687 197.287 111.674 197.66 110.514 197.66C109.234 197.66 108.141 197.207 107.234 196.3C106.327 195.393 105.874 194.3 105.874 193.02C105.874 191.74 106.327 190.647 107.234 189.74C108.141 188.833 109.234 188.38 110.514 188.38C111.674 188.38 112.687 188.753 113.554 189.5L112.514 190.94C112.021 190.407 111.354 190.14 110.514 190.14C109.794 190.14 109.161 190.42 108.614 190.98C108.067 191.567 107.794 192.247 107.794 193.02C107.794 193.793 108.067 194.467 108.614 195.04C109.147 195.613 109.781 195.9 110.514 195.9ZM119.207 197.66C118.061 197.66 117.181 197.28 116.567 196.52C115.954 195.76 115.647 194.673 115.647 193.26V188.54H117.567V193.42C117.567 195.073 118.234 195.9 119.567 195.9C120.181 195.9 120.694 195.633 121.107 195.1C121.521 194.567 121.727 193.873 121.727 193.02V188.54H123.647V197.5H121.727V196.38C121.541 196.727 121.221 197.027 120.767 197.28C120.314 197.533 119.794 197.66 119.207 197.66ZM133.894 193.3V197.5H131.974V196.34C131.227 197.22 130.3 197.66 129.194 197.66C128.234 197.66 127.447 197.373 126.834 196.8C126.207 196.24 125.894 195.52 125.894 194.64C125.894 193.8 126.2 193.113 126.814 192.58C127.44 192.047 128.194 191.76 129.074 191.72C129.967 191.68 130.914 191.86 131.914 192.26C131.834 190.847 131.16 190.14 129.894 190.14C129.134 190.14 128.44 190.333 127.814 190.72L127.014 189.34C127.854 188.7 128.84 188.38 129.974 188.38C132.587 188.38 133.894 190.02 133.894 193.3ZM131.974 193.84C131.52 193.573 130.96 193.42 130.294 193.38C129.627 193.34 129.04 193.44 128.534 193.68C128.04 193.907 127.8 194.247 127.814 194.7C127.814 195.047 127.954 195.333 128.234 195.56C128.527 195.787 128.907 195.9 129.374 195.9C129.987 195.9 130.554 195.7 131.074 195.3C131.594 194.9 131.894 194.413 131.974 193.84ZM143.488 189.66V182.78H145.408V197.5H143.488V196.38C142.755 197.233 141.795 197.66 140.608 197.66C139.368 197.66 138.315 197.207 137.448 196.3C136.568 195.393 136.128 194.3 136.128 193.02C136.128 191.74 136.568 190.647 137.448 189.74C138.315 188.833 139.368 188.38 140.608 188.38C141.795 188.38 142.755 188.807 143.488 189.66ZM138.848 195.06C139.368 195.62 140.008 195.9 140.768 195.9C141.515 195.9 142.161 195.62 142.708 195.06C143.228 194.5 143.488 193.82 143.488 193.02C143.488 192.22 143.228 191.54 142.708 190.98C142.161 190.42 141.515 190.14 140.768 190.14C140.008 190.14 139.368 190.42 138.848 190.98C138.315 191.527 138.048 192.207 138.048 193.02C138.048 193.833 138.315 194.513 138.848 195.06ZM147.651 193.02C147.651 191.74 148.105 190.647 149.011 189.74C149.918 188.833 151.011 188.38 152.291 188.38C153.571 188.38 154.665 188.833 155.571 189.74C156.478 190.647 156.931 191.74 156.931 193.02C156.931 194.3 156.478 195.393 155.571 196.3C154.665 197.207 153.571 197.66 152.291 197.66C151.011 197.66 149.918 197.207 149.011 196.3C148.105 195.393 147.651 194.3 147.651 193.02ZM150.391 195.04C150.925 195.613 151.558 195.9 152.291 195.9C153.038 195.9 153.678 195.613 154.211 195.04C154.745 194.493 155.011 193.82 155.011 193.02C155.011 192.233 154.745 191.553 154.211 190.98C153.678 190.42 153.038 190.14 152.291 190.14C151.571 190.14 150.938 190.42 150.391 190.98C149.845 191.567 149.571 192.247 149.571 193.02C149.571 193.793 149.845 194.467 150.391 195.04ZM161.09 188.54V189.96C161.69 188.907 162.757 188.38 164.29 188.38V190.42C163.704 190.3 163.17 190.327 162.69 190.5C161.624 190.887 161.09 191.88 161.09 193.48V197.5H159.17V188.54H161.09ZM167.966 197.66C167.566 197.66 167.226 197.52 166.946 197.24C166.666 196.96 166.526 196.62 166.526 196.22C166.526 195.807 166.666 195.467 166.946 195.2C167.226 194.92 167.566 194.78 167.966 194.78C168.379 194.78 168.719 194.92 168.986 195.2C169.266 195.467 169.406 195.807 169.406 196.22C169.406 196.62 169.266 196.96 168.986 197.24C168.719 197.52 168.379 197.66 167.966 197.66Z" fill="white"/>
</svg>
