<svg width="611" height="302" viewBox="0 0 611 302" fill="none" xmlns="http://www.w3.org/2000/svg">
<rect width="611" height="302" rx="17" fill="#E91D24"/>
<path d="M115.967 40.792C118.1 41.688 119.753 42.6907 120.927 43.8C122.036 44.888 122.591 46.3707 122.591 48.248C122.591 50.0613 121.951 51.6827 120.671 53.112C119.369 54.5413 117.663 55.256 115.551 55.256C113.481 55.256 111.807 54.6693 110.527 53.496C109.524 52.6427 108.767 51.7787 108.255 50.904L110.047 48.568C111.647 51.1493 113.503 52.44 115.615 52.44C116.745 52.44 117.684 52.0347 118.431 51.224C119.156 50.4347 119.519 49.4853 119.519 48.376C119.519 47.3733 119.199 46.552 118.559 45.912C117.94 45.2507 116.969 44.6107 115.647 43.992C113.385 42.9893 111.849 42.008 111.039 41.048C110.207 40.0667 109.791 38.8293 109.791 37.336C109.791 35.9707 110.377 34.776 111.551 33.752C112.703 32.728 114.111 32.216 115.775 32.216C116.969 32.216 117.951 32.3973 118.719 32.76C119.487 33.1013 120.265 33.688 121.055 34.52L119.263 36.792C118.217 35.6187 117.033 35.032 115.711 35.032C114.964 35.032 114.303 35.2667 113.727 35.736C113.151 36.2053 112.863 36.76 112.863 37.4C112.863 38.808 113.897 39.9387 115.967 40.792ZM130.525 35.8C130.525 36.44 130.301 36.984 129.853 37.432C129.405 37.88 128.861 38.104 128.221 38.104C127.581 38.104 127.037 37.88 126.589 37.432C126.141 36.984 125.917 36.44 125.917 35.8C125.917 35.16 126.141 34.616 126.589 34.168C127.037 33.72 127.581 33.496 128.221 33.496C128.861 33.496 129.405 33.72 129.853 34.168C130.301 34.616 130.525 35.16 130.525 35.8ZM129.757 55H126.685V40.664H129.757V55ZM159.447 62.68H156.375V53.208C155.201 54.5733 153.665 55.256 151.767 55.256C149.783 55.256 148.097 54.5307 146.711 53.08C145.303 51.6293 144.599 49.88 144.599 47.832C144.599 45.784 145.303 44.0347 146.711 42.584C148.097 41.1333 149.783 40.408 151.767 40.408C153.665 40.408 155.201 41.0907 156.375 42.456V40.664H159.447V62.68ZM155.127 44.568C154.252 43.672 153.217 43.224 152.023 43.224C150.807 43.224 149.783 43.672 148.951 44.568C148.097 45.4427 147.671 46.5307 147.671 47.832C147.671 49.1333 148.097 50.2213 148.951 51.096C149.783 51.992 150.807 52.44 152.023 52.44C153.217 52.44 154.252 51.992 155.127 51.096C155.959 50.2 156.375 49.112 156.375 47.832C156.375 46.552 155.959 45.464 155.127 44.568ZM169.494 55.256C167.659 55.256 166.251 54.648 165.27 53.432C164.289 52.216 163.798 50.4773 163.798 48.216V40.664H166.87V48.472C166.87 51.1173 167.937 52.44 170.07 52.44C171.051 52.44 171.873 52.0133 172.534 51.16C173.195 50.3067 173.526 49.1973 173.526 47.832V40.664H176.598V55H173.526V53.208C173.227 53.7627 172.715 54.2427 171.99 54.648C171.265 55.0533 170.433 55.256 169.494 55.256ZM185.306 35.8C185.306 36.44 185.082 36.984 184.634 37.432C184.186 37.88 183.642 38.104 183.002 38.104C182.362 38.104 181.818 37.88 181.37 37.432C180.922 36.984 180.698 36.44 180.698 35.8C180.698 35.16 180.922 34.616 181.37 34.168C181.818 33.72 182.362 33.496 183.002 33.496C183.642 33.496 184.186 33.72 184.634 34.168C185.082 34.616 185.306 35.16 185.306 35.8ZM184.538 55H181.466V40.664H184.538V55ZM195.554 52.44C196.812 52.44 197.996 51.8853 199.106 50.776L200.866 53.016C199.436 54.5093 197.666 55.256 195.554 55.256C193.506 55.256 191.756 54.5307 190.306 53.08C188.855 51.6293 188.13 49.88 188.13 47.832C188.13 45.784 188.855 44.0347 190.306 42.584C191.756 41.1333 193.506 40.408 195.554 40.408C197.154 40.408 198.519 40.8667 199.65 41.784C200.78 42.68 201.548 43.9067 201.954 45.464L192.45 50.968C192.748 51.3947 193.186 51.7467 193.762 52.024C194.359 52.3013 194.956 52.44 195.554 52.44ZM195.554 43.224C194.402 43.224 193.388 43.6933 192.514 44.632C191.639 45.5707 191.202 46.6373 191.202 47.832C191.202 47.8747 191.223 48.152 191.266 48.664L198.37 44.568C197.687 43.672 196.748 43.224 195.554 43.224ZM208.101 40.664V42.936C209.061 41.2507 210.767 40.408 213.221 40.408V43.672C212.282 43.48 211.429 43.5227 210.661 43.8C208.954 44.4187 208.101 46.008 208.101 48.568V55H205.029V40.664H208.101ZM222.679 52.44C223.937 52.44 225.121 51.8853 226.231 50.776L227.991 53.016C226.561 54.5093 224.791 55.256 222.679 55.256C220.631 55.256 218.881 54.5307 217.431 53.08C215.98 51.6293 215.255 49.88 215.255 47.832C215.255 45.784 215.98 44.0347 217.431 42.584C218.881 41.1333 220.631 40.408 222.679 40.408C224.279 40.408 225.644 40.8667 226.775 41.784C227.905 42.68 228.673 43.9067 229.079 45.464L219.575 50.968C219.873 51.3947 220.311 51.7467 220.887 52.024C221.484 52.3013 222.081 52.44 222.679 52.44ZM222.679 43.224C221.527 43.224 220.513 43.6933 219.639 44.632C218.764 45.5707 218.327 46.6373 218.327 47.832C218.327 47.8747 218.348 48.152 218.391 48.664L225.495 44.568C224.812 43.672 223.873 43.224 222.679 43.224ZM237.806 46.04C240.856 46.744 242.382 48.3013 242.382 50.712C242.382 52.056 241.88 53.144 240.878 53.976C239.875 54.8293 238.68 55.256 237.294 55.256C235.139 55.256 233.251 54.4453 231.63 52.824L233.166 50.584C234.403 51.7787 235.715 52.3973 237.102 52.44C237.763 52.4613 238.296 52.312 238.702 51.992C239.107 51.672 239.31 51.2987 239.31 50.872C239.31 50.0613 238.648 49.4747 237.326 49.112C235.47 48.6 234.179 48.0133 233.454 47.352C232.75 46.6907 232.398 45.752 232.398 44.536C232.398 43.384 232.835 42.4133 233.71 41.624C234.606 40.8133 235.79 40.408 237.262 40.408C238.776 40.408 240.152 40.8987 241.39 41.88L239.95 44.12C239.16 43.5227 238.264 43.224 237.262 43.224C236.707 43.224 236.27 43.3413 235.95 43.576C235.63 43.8107 235.47 44.0987 235.47 44.44C235.47 44.8453 235.63 45.1653 235.95 45.4C236.291 45.6133 236.91 45.8267 237.806 46.04ZM267.968 42.456V31.448H271.04V55H267.968V53.208C266.795 54.5733 265.259 55.256 263.36 55.256C261.376 55.256 259.691 54.5307 258.304 53.08C256.896 51.6293 256.192 49.88 256.192 47.832C256.192 45.784 256.896 44.0347 258.304 42.584C259.691 41.1333 261.376 40.408 263.36 40.408C265.259 40.408 266.795 41.0907 267.968 42.456ZM260.544 51.096C261.376 51.992 262.4 52.44 263.616 52.44C264.811 52.44 265.846 51.992 266.72 51.096C267.552 50.2 267.968 49.112 267.968 47.832C267.968 46.552 267.552 45.464 266.72 44.568C265.846 43.672 264.811 43.224 263.616 43.224C262.4 43.224 261.376 43.672 260.544 44.568C259.691 45.4427 259.264 46.5307 259.264 47.832C259.264 49.1333 259.691 50.2213 260.544 51.096ZM282.054 52.44C283.312 52.44 284.496 51.8853 285.606 50.776L287.366 53.016C285.936 54.5093 284.166 55.256 282.054 55.256C280.006 55.256 278.256 54.5307 276.806 53.08C275.355 51.6293 274.63 49.88 274.63 47.832C274.63 45.784 275.355 44.0347 276.806 42.584C278.256 41.1333 280.006 40.408 282.054 40.408C283.654 40.408 285.019 40.8667 286.15 41.784C287.28 42.68 288.048 43.9067 288.454 45.464L278.95 50.968C279.248 51.3947 279.686 51.7467 280.262 52.024C280.859 52.3013 281.456 52.44 282.054 52.44ZM282.054 43.224C280.902 43.224 279.888 43.6933 279.014 44.632C278.139 45.5707 277.702 46.6373 277.702 47.832C277.702 47.8747 277.723 48.152 277.766 48.664L284.87 44.568C284.187 43.672 283.248 43.224 282.054 43.224ZM295.369 35.8C295.369 36.44 295.145 36.984 294.697 37.432C294.249 37.88 293.705 38.104 293.065 38.104C292.425 38.104 291.881 37.88 291.433 37.432C290.985 36.984 290.761 36.44 290.761 35.8C290.761 35.16 290.985 34.616 291.433 34.168C291.881 33.72 292.425 33.496 293.065 33.496C293.705 33.496 294.249 33.72 294.697 34.168C295.145 34.616 295.369 35.16 295.369 35.8ZM294.601 62.168L291.529 63.192V40.664H294.601V62.168ZM311.242 48.28V55H308.17V53.144C306.976 54.552 305.493 55.256 303.722 55.256C302.186 55.256 300.928 54.7973 299.946 53.88C298.944 52.984 298.442 51.832 298.442 50.424C298.442 49.08 298.933 47.9813 299.914 47.128C300.917 46.2747 302.122 45.816 303.53 45.752C304.96 45.688 306.474 45.976 308.074 46.616C307.946 44.3547 306.869 43.224 304.842 43.224C303.626 43.224 302.517 43.5333 301.514 44.152L300.234 41.944C301.578 40.92 303.157 40.408 304.97 40.408C309.152 40.408 311.242 43.032 311.242 48.28ZM308.17 49.144C307.445 48.7173 306.549 48.472 305.482 48.408C304.416 48.344 303.477 48.504 302.666 48.888C301.877 49.2507 301.493 49.7947 301.514 50.52C301.514 51.0747 301.738 51.5333 302.186 51.896C302.656 52.2587 303.264 52.44 304.01 52.44C304.992 52.44 305.898 52.12 306.73 51.48C307.562 50.84 308.042 50.0613 308.17 49.144ZM318.663 40.664V42.936C319.623 41.2507 321.33 40.408 323.783 40.408V43.672C322.845 43.48 321.991 43.5227 321.223 43.8C319.517 44.4187 318.663 46.008 318.663 48.568V55H315.591V40.664H318.663ZM343.231 55H340.159V43.48H337.599V40.664H340.159V35.032L343.231 34.008V40.664H347.327V43.48H343.231V55ZM356.619 55.256C354.784 55.256 353.376 54.648 352.395 53.432C351.414 52.216 350.923 50.4773 350.923 48.216V40.664H353.995V48.472C353.995 51.1173 355.062 52.44 357.195 52.44C358.176 52.44 358.998 52.0133 359.659 51.16C360.32 50.3067 360.651 49.1973 360.651 47.832V40.664H363.723V55H360.651V53.208C360.352 53.7627 359.84 54.2427 359.115 54.648C358.39 55.0533 357.558 55.256 356.619 55.256ZM390.343 42.456V31.448H393.415V55H390.343V53.208C389.17 54.5733 387.634 55.256 385.735 55.256C383.751 55.256 382.066 54.5307 380.679 53.08C379.271 51.6293 378.567 49.88 378.567 47.832C378.567 45.784 379.271 44.0347 380.679 42.584C382.066 41.1333 383.751 40.408 385.735 40.408C387.634 40.408 389.17 41.0907 390.343 42.456ZM382.919 51.096C383.751 51.992 384.775 52.44 385.991 52.44C387.186 52.44 388.221 51.992 389.095 51.096C389.927 50.2 390.343 49.112 390.343 47.832C390.343 46.552 389.927 45.464 389.095 44.568C388.221 43.672 387.186 43.224 385.991 43.224C384.775 43.224 383.751 43.672 382.919 44.568C382.066 45.4427 381.639 46.5307 381.639 47.832C381.639 49.1333 382.066 50.2213 382.919 51.096ZM397.005 47.832C397.005 45.784 397.73 44.0347 399.181 42.584C400.631 41.1333 402.381 40.408 404.429 40.408C406.477 40.408 408.226 41.1333 409.677 42.584C411.127 44.0347 411.853 45.784 411.853 47.832C411.853 49.88 411.127 51.6293 409.677 53.08C408.226 54.5307 406.477 55.256 404.429 55.256C402.381 55.256 400.631 54.5307 399.181 53.08C397.73 51.6293 397.005 49.88 397.005 47.832ZM401.389 51.064C402.242 51.9813 403.255 52.44 404.429 52.44C405.623 52.44 406.647 51.9813 407.501 51.064C408.354 50.1893 408.781 49.112 408.781 47.832C408.781 46.5733 408.354 45.4853 407.501 44.568C406.647 43.672 405.623 43.224 404.429 43.224C403.277 43.224 402.263 43.672 401.389 44.568C400.514 45.5067 400.077 46.5947 400.077 47.832C400.077 49.0693 400.514 50.1467 401.389 51.064ZM422.539 40.408C424.374 40.408 425.782 41.016 426.763 42.232C427.744 43.448 428.235 45.1867 428.235 47.448V55H425.163V47.448C425.163 46.0187 424.907 44.9627 424.395 44.28C423.904 43.576 423.094 43.224 421.963 43.224C420.982 43.224 420.16 43.64 419.499 44.472C418.838 45.2827 418.507 46.3173 418.507 47.576V55H415.435V40.664H418.507V42.456C418.806 41.9013 419.318 41.4213 420.043 41.016C420.768 40.6107 421.6 40.408 422.539 40.408ZM444.617 48.28V55H441.545V53.144C440.351 54.552 438.868 55.256 437.097 55.256C435.561 55.256 434.303 54.7973 433.321 53.88C432.319 52.984 431.817 51.832 431.817 50.424C431.817 49.08 432.308 47.9813 433.289 47.128C434.292 46.2747 435.497 45.816 436.905 45.752C438.335 45.688 439.849 45.976 441.449 46.616C441.321 44.3547 440.244 43.224 438.217 43.224C437.001 43.224 435.892 43.5333 434.889 44.152L433.609 41.944C434.953 40.92 436.532 40.408 438.345 40.408C442.527 40.408 444.617 43.032 444.617 48.28ZM441.545 49.144C440.82 48.7173 439.924 48.472 438.857 48.408C437.791 48.344 436.852 48.504 436.041 48.888C435.252 49.2507 434.868 49.7947 434.889 50.52C434.889 51.0747 435.113 51.5333 435.561 51.896C436.031 52.2587 436.639 52.44 437.385 52.44C438.367 52.44 439.273 52.12 440.105 51.48C440.937 50.84 441.417 50.0613 441.545 49.144ZM455.616 52.44C456.96 52.44 458.027 52.0133 458.816 51.16L460.48 53.464C459.094 54.6587 457.472 55.256 455.616 55.256C453.568 55.256 451.819 54.5307 450.368 53.08C448.918 51.6293 448.192 49.88 448.192 47.832C448.192 45.784 448.918 44.0347 450.368 42.584C451.819 41.1333 453.568 40.408 455.616 40.408C457.472 40.408 459.094 41.0053 460.48 42.2L458.816 44.504C458.027 43.6507 456.96 43.224 455.616 43.224C454.464 43.224 453.451 43.672 452.576 44.568C451.702 45.5067 451.264 46.5947 451.264 47.832C451.264 49.0693 451.702 50.1467 452.576 51.064C453.43 51.9813 454.443 52.44 455.616 52.44ZM468.181 35.8C468.181 36.44 467.957 36.984 467.509 37.432C467.061 37.88 466.517 38.104 465.877 38.104C465.237 38.104 464.693 37.88 464.245 37.432C463.797 36.984 463.573 36.44 463.573 35.8C463.573 35.16 463.797 34.616 464.245 34.168C464.693 33.72 465.237 33.496 465.877 33.496C466.517 33.496 467.061 33.72 467.509 34.168C467.957 34.616 468.181 35.16 468.181 35.8ZM467.413 55H464.341V40.664H467.413V55ZM478.941 38.616H476.893L478.941 33.496H482.013L478.941 38.616ZM471.005 47.832C471.005 45.784 471.73 44.0347 473.181 42.584C474.631 41.1333 476.381 40.408 478.429 40.408C480.477 40.408 482.226 41.1333 483.677 42.584C485.127 44.0347 485.853 45.784 485.853 47.832C485.853 49.88 485.127 51.6293 483.677 53.08C482.226 54.5307 480.477 55.256 478.429 55.256C476.381 55.256 474.631 54.5307 473.181 53.08C471.73 51.6293 471.005 49.88 471.005 47.832ZM475.389 51.064C476.242 51.9813 477.255 52.44 478.429 52.44C479.623 52.44 480.647 51.9813 481.501 51.064C482.354 50.1893 482.781 49.112 482.781 47.832C482.781 46.5733 482.354 45.4853 481.501 44.568C480.647 43.672 479.623 43.224 478.429 43.224C477.277 43.224 476.263 43.672 475.389 44.568C474.514 45.5067 474.077 46.5947 474.077 47.832C474.077 49.0693 474.514 50.1467 475.389 51.064ZM496.539 40.408C498.374 40.408 499.782 41.016 500.763 42.232C501.744 43.448 502.235 45.1867 502.235 47.448V55H499.163V47.448C499.163 46.0187 498.907 44.9627 498.395 44.28C497.904 43.576 497.094 43.224 495.963 43.224C494.982 43.224 494.16 43.64 493.499 44.472C492.838 45.2827 492.507 46.3173 492.507 47.576V55H489.435V40.664H492.507V42.456C492.806 41.9013 493.318 41.4213 494.043 41.016C494.768 40.6107 495.6 40.408 496.539 40.408ZM169.179 94.44C170.437 94.44 171.621 93.8853 172.731 92.776L174.491 95.016C173.061 96.5093 171.291 97.256 169.179 97.256C167.131 97.256 165.381 96.5307 163.931 95.08C162.48 93.6293 161.755 91.88 161.755 89.832C161.755 87.784 162.48 86.0347 163.931 84.584C165.381 83.1333 167.131 82.408 169.179 82.408C170.779 82.408 172.144 82.8667 173.275 83.784C174.405 84.68 175.173 85.9067 175.579 87.464L166.075 92.968C166.373 93.3947 166.811 93.7467 167.387 94.024C167.984 94.3013 168.581 94.44 169.179 94.44ZM169.179 85.224C168.027 85.224 167.013 85.6933 166.139 86.632C165.264 87.5707 164.827 88.6373 164.827 89.832C164.827 89.8747 164.848 90.152 164.891 90.664L171.995 86.568C171.312 85.672 170.373 85.224 169.179 85.224ZM185.758 82.408C187.592 82.408 189 83.016 189.982 84.232C190.963 85.448 191.454 87.1867 191.454 89.448V97H188.382V89.448C188.382 88.0187 188.126 86.9627 187.614 86.28C187.123 85.576 186.312 85.224 185.182 85.224C184.2 85.224 183.379 85.64 182.718 86.472C182.056 87.2827 181.726 88.3173 181.726 89.576V97H178.654V82.664H181.726V84.456C182.024 83.9013 182.536 83.4213 183.262 83.016C183.987 82.6107 184.819 82.408 185.758 82.408ZM218.586 90.28V97H215.514V95.144C214.319 96.552 212.837 97.256 211.066 97.256C209.53 97.256 208.271 96.7973 207.29 95.88C206.287 94.984 205.786 93.832 205.786 92.424C205.786 91.08 206.277 89.9813 207.258 89.128C208.261 88.2747 209.466 87.816 210.874 87.752C212.303 87.688 213.818 87.976 215.418 88.616C215.29 86.3547 214.213 85.224 212.186 85.224C210.97 85.224 209.861 85.5333 208.858 86.152L207.578 83.944C208.922 82.92 210.501 82.408 212.314 82.408C216.495 82.408 218.586 85.032 218.586 90.28ZM215.514 91.144C214.789 90.7173 213.893 90.472 212.826 90.408C211.759 90.344 210.821 90.504 210.01 90.888C209.221 91.2507 208.837 91.7947 208.858 92.52C208.858 93.0747 209.082 93.5333 209.53 93.896C209.999 94.2587 210.607 94.44 211.354 94.44C212.335 94.44 213.242 94.12 214.074 93.48C214.906 92.84 215.386 92.0613 215.514 91.144ZM222.935 97V73.448H226.007V97H222.935ZM234.713 77.8C234.713 78.44 234.489 78.984 234.041 79.432C233.593 79.88 233.049 80.104 232.409 80.104C231.769 80.104 231.225 79.88 230.777 79.432C230.329 78.984 230.105 78.44 230.105 77.8C230.105 77.16 230.329 76.616 230.777 76.168C231.225 75.72 231.769 75.496 232.409 75.496C233.049 75.496 233.593 75.72 234.041 76.168C234.489 76.616 234.713 77.16 234.713 77.8ZM233.945 97H230.873V82.664H233.945V97ZM254.874 82.408C256.602 82.408 257.935 83.0267 258.874 84.264C259.834 85.48 260.314 87.208 260.314 89.448V97H257.242V89.448C257.242 86.632 256.261 85.224 254.298 85.224C253.359 85.224 252.591 85.6293 251.994 86.44C251.397 87.2293 251.098 88.2747 251.098 89.576V97H248.026V89.448C248.026 86.632 247.045 85.224 245.082 85.224C244.143 85.224 243.375 85.6293 242.778 86.44C242.181 87.2293 241.882 88.2747 241.882 89.576V97H238.81V82.664H241.882V84.456C242.223 83.9867 242.522 83.6347 242.778 83.4C243.034 83.1653 243.407 82.9413 243.898 82.728C244.389 82.5147 244.975 82.408 245.658 82.408C247.685 82.408 249.157 83.2187 250.074 84.84C250.778 83.944 251.482 83.3147 252.186 82.952C252.911 82.5893 253.807 82.408 254.874 82.408ZM271.335 94.44C272.594 94.44 273.778 93.8853 274.887 92.776L276.647 95.016C275.218 96.5093 273.447 97.256 271.335 97.256C269.287 97.256 267.538 96.5307 266.087 95.08C264.636 93.6293 263.911 91.88 263.911 89.832C263.911 87.784 264.636 86.0347 266.087 84.584C267.538 83.1333 269.287 82.408 271.335 82.408C272.935 82.408 274.3 82.8667 275.431 83.784C276.562 84.68 277.33 85.9067 277.735 87.464L268.231 92.968C268.53 93.3947 268.967 93.7467 269.543 94.024C270.14 94.3013 270.738 94.44 271.335 94.44ZM271.335 85.224C270.183 85.224 269.17 85.6933 268.295 86.632C267.42 87.5707 266.983 88.6373 266.983 89.832C266.983 89.8747 267.004 90.152 267.047 90.664L274.151 86.568C273.468 85.672 272.53 85.224 271.335 85.224ZM287.914 82.408C289.749 82.408 291.157 83.016 292.138 84.232C293.119 85.448 293.61 87.1867 293.61 89.448V97H290.538V89.448C290.538 88.0187 290.282 86.9627 289.77 86.28C289.279 85.576 288.469 85.224 287.338 85.224C286.357 85.224 285.535 85.64 284.874 86.472C284.213 87.2827 283.882 88.3173 283.882 89.576V97H280.81V82.664H283.882V84.456C284.181 83.9013 284.693 83.4213 285.418 83.016C286.143 82.6107 286.975 82.408 287.914 82.408ZM302.574 97H299.502V85.48H296.942V82.664H299.502V77.032L302.574 76.008V82.664H306.67V85.48H302.574V97ZM308.724 89.832C308.724 87.784 309.449 86.0347 310.9 84.584C312.35 83.1333 314.1 82.408 316.148 82.408C318.196 82.408 319.945 83.1333 321.396 84.584C322.846 86.0347 323.572 87.784 323.572 89.832C323.572 91.88 322.846 93.6293 321.396 95.08C319.945 96.5307 318.196 97.256 316.148 97.256C314.1 97.256 312.35 96.5307 310.9 95.08C309.449 93.6293 308.724 91.88 308.724 89.832ZM313.108 93.064C313.961 93.9813 314.974 94.44 316.148 94.44C317.342 94.44 318.366 93.9813 319.22 93.064C320.073 92.1893 320.5 91.112 320.5 89.832C320.5 88.5733 320.073 87.4853 319.22 86.568C318.366 85.672 317.342 85.224 316.148 85.224C314.996 85.224 313.982 85.672 313.108 86.568C312.233 87.5067 311.796 88.5947 311.796 89.832C311.796 91.0693 312.233 92.1467 313.108 93.064ZM338.404 74.472H342.5C345.145 74.472 347.182 75.1653 348.612 76.552C349.998 77.9813 350.692 79.7627 350.692 81.896C350.692 83.9867 349.988 85.7467 348.58 87.176C347.15 88.6053 345.273 89.32 342.948 89.32H341.476V97H338.404V74.472ZM341.476 86.504H343.044C344.26 86.504 345.326 86.0773 346.244 85.224C347.161 84.392 347.62 83.2827 347.62 81.896C347.62 80.4027 347.14 79.2507 346.18 78.44C345.22 77.672 344.11 77.288 342.852 77.288H341.476V86.504ZM357.851 82.664V84.936C358.811 83.2507 360.517 82.408 362.971 82.408V85.672C362.032 85.48 361.179 85.5227 360.411 85.8C358.704 86.4187 357.851 88.008 357.851 90.568V97H354.779V82.664H357.851ZM365.005 89.832C365.005 87.784 365.73 86.0347 367.181 84.584C368.631 83.1333 370.381 82.408 372.429 82.408C374.477 82.408 376.226 83.1333 377.677 84.584C379.127 86.0347 379.853 87.784 379.853 89.832C379.853 91.88 379.127 93.6293 377.677 95.08C376.226 96.5307 374.477 97.256 372.429 97.256C370.381 97.256 368.631 96.5307 367.181 95.08C365.73 93.6293 365.005 91.88 365.005 89.832ZM369.389 93.064C370.242 93.9813 371.255 94.44 372.429 94.44C373.623 94.44 374.647 93.9813 375.501 93.064C376.354 92.1893 376.781 91.112 376.781 89.832C376.781 88.5733 376.354 87.4853 375.501 86.568C374.647 85.672 373.623 85.224 372.429 85.224C371.277 85.224 370.263 85.672 369.389 86.568C368.514 87.5067 368.077 88.5947 368.077 89.832C368.077 91.0693 368.514 92.1467 369.389 93.064ZM392.127 87.528V90.088H383.423V87.528H392.127ZM403.148 94.44C404.492 94.44 405.558 94.0133 406.348 93.16L408.012 95.464C406.625 96.6587 405.004 97.256 403.148 97.256C401.1 97.256 399.35 96.5307 397.9 95.08C396.449 93.6293 395.724 91.88 395.724 89.832C395.724 87.784 396.449 86.0347 397.9 84.584C399.35 83.1333 401.1 82.408 403.148 82.408C405.004 82.408 406.625 83.0053 408.012 84.2L406.348 86.504C405.558 85.6507 404.492 85.224 403.148 85.224C401.996 85.224 400.982 85.672 400.108 86.568C399.233 87.5067 398.796 88.5947 398.796 89.832C398.796 91.0693 399.233 92.1467 400.108 93.064C400.961 93.9813 401.974 94.44 403.148 94.44ZM423.399 90.28V97H420.327V95.144C419.132 96.552 417.649 97.256 415.879 97.256C414.343 97.256 413.084 96.7973 412.103 95.88C411.1 94.984 410.599 93.832 410.599 92.424C410.599 91.08 411.089 89.9813 412.071 89.128C413.073 88.2747 414.279 87.816 415.687 87.752C417.116 87.688 418.631 87.976 420.231 88.616C420.103 86.3547 419.025 85.224 416.999 85.224C415.783 85.224 414.673 85.5333 413.671 86.152L412.391 83.944C413.735 82.92 415.313 82.408 417.127 82.408C421.308 82.408 423.399 85.032 423.399 90.28ZM420.327 91.144C419.601 90.7173 418.705 90.472 417.639 90.408C416.572 90.344 415.633 90.504 414.823 90.888C414.033 91.2507 413.649 91.7947 413.671 92.52C413.671 93.0747 413.895 93.5333 414.343 93.896C414.812 94.2587 415.42 94.44 416.167 94.44C417.148 94.44 418.055 94.12 418.887 93.48C419.719 92.84 420.199 92.0613 420.327 91.144ZM434.852 82.408C436.686 82.408 438.094 83.016 439.076 84.232C440.057 85.448 440.548 87.1867 440.548 89.448V97H437.476V89.448C437.476 88.0187 437.22 86.9627 436.708 86.28C436.217 85.576 435.406 85.224 434.276 85.224C433.294 85.224 432.473 85.64 431.812 86.472C431.15 87.2827 430.82 88.3173 430.82 89.576V97H427.748V82.664H430.82V84.456C431.118 83.9013 431.63 83.4213 432.356 83.016C433.081 82.6107 433.913 82.408 434.852 82.408ZM447.458 100.584H445.154V93.416H448.738L447.458 100.584Z" fill="white"/>
<path d="M12.2397 146.64C12.2397 145.653 12.5864 144.827 13.2797 144.16C13.973 143.493 14.813 143.16 15.7997 143.16C16.7864 143.16 17.613 143.493 18.2797 144.16C18.9464 144.827 19.2797 145.653 19.2797 146.64C19.2797 147.627 18.9464 148.467 18.2797 149.16C17.613 149.853 16.7864 150.2 15.7997 150.2C14.813 150.2 13.973 149.853 13.2797 149.16C12.5864 148.467 12.2397 147.627 12.2397 146.64ZM12.5597 171.96L13.1997 152.76H18.3197L18.9597 171.96H12.5597ZM23.1081 140.6V134.84H41.0281V140.6H35.2681V163H28.8681V140.6H23.1081ZM50.6078 163.64C48.4745 163.64 46.6611 162.853 45.1678 161.28C43.6745 159.707 42.9278 157.507 42.9278 154.68V143.8H49.3278V154.04C49.3278 156.6 50.3945 157.88 52.5278 157.88C53.4078 157.88 54.1545 157.493 54.7678 156.72C55.4078 155.92 55.7278 154.813 55.7278 153.4V143.8H62.1278V163H55.7278V161.08C54.6078 162.787 52.9011 163.64 50.6078 163.64ZM87.7081 163H81.3081V149.56H78.1081V143.8H81.3081V138.04L87.7081 136.12V143.8H92.8281V149.56H87.7081V163ZM112.645 153V163H106.245V161.4C104.911 162.893 103.178 163.64 101.045 163.64C98.8847 163.64 97.1914 162.987 95.9647 161.68C94.7114 160.373 94.0847 158.8 94.0847 156.96C94.0847 155.28 94.7114 153.893 95.9647 152.8C97.218 151.707 98.738 151.067 100.525 150.88C102.365 150.72 104.245 150.893 106.165 151.4C106.111 150.493 105.778 149.773 105.165 149.24C104.578 148.707 103.765 148.44 102.725 148.44C101.151 148.44 99.658 148.853 98.2447 149.68L96.3247 145.08C98.298 143.8 100.751 143.16 103.685 143.16C106.245 143.16 108.391 143.96 110.125 145.56C111.805 147.16 112.645 149.64 112.645 153ZM106.245 155.4C104.805 154.893 103.471 154.787 102.245 155.08C101.071 155.373 100.485 156.04 100.485 157.08C100.485 157.693 100.698 158.2 101.125 158.6C101.578 158.973 102.125 159.16 102.765 159.16C103.618 159.16 104.378 158.827 105.045 158.16C105.711 157.467 106.111 156.547 106.245 155.4ZM139.37 143.16C141.503 143.16 143.29 143.933 144.73 145.48C146.17 147.027 146.89 149.24 146.89 152.12V163H140.49V152.76C140.49 151.373 140.277 150.387 139.85 149.8C139.423 149.213 138.783 148.92 137.93 148.92C137.077 148.92 136.383 149.28 135.85 150C135.317 150.72 135.05 151.853 135.05 153.4V163H128.65V152.76C128.65 151.373 128.437 150.387 128.01 149.8C127.583 149.213 126.943 148.92 126.09 148.92C125.237 148.92 124.543 149.28 124.01 150C123.477 150.72 123.21 151.853 123.21 153.4V163H116.81V143.8H123.21V145.72C123.983 144.813 124.73 144.16 125.45 143.76C126.197 143.36 127.103 143.16 128.17 143.16C130.357 143.16 132.077 144.027 133.33 145.76C134.85 144.027 136.863 143.16 139.37 143.16ZM151.068 133.56H157.468V145.72C158.908 144.013 160.814 143.16 163.188 143.16C165.881 143.16 168.174 144.147 170.068 146.12C171.908 148.12 172.828 150.547 172.828 153.4C172.828 156.28 171.908 158.693 170.068 160.64C168.174 162.64 165.881 163.64 163.188 163.64C160.814 163.64 158.908 162.787 157.468 161.08V163H151.068V133.56ZM157.468 153.4C157.468 154.627 157.908 155.68 158.788 156.56C159.668 157.44 160.721 157.88 161.948 157.88C163.174 157.88 164.228 157.44 165.108 156.56C165.988 155.68 166.428 154.627 166.428 153.4C166.428 152.173 165.988 151.12 165.108 150.24C164.228 149.36 163.174 148.92 161.948 148.92C160.721 148.92 159.668 149.36 158.788 150.24C157.908 151.12 157.468 152.173 157.468 153.4ZM183.381 137.4C183.381 138.467 183.008 139.373 182.261 140.12C181.515 140.867 180.608 141.24 179.541 141.24C178.475 141.24 177.568 140.867 176.821 140.12C176.075 139.373 175.701 138.467 175.701 137.4C175.701 136.333 176.075 135.427 176.821 134.68C177.568 133.933 178.475 133.56 179.541 133.56C180.608 133.56 181.515 133.933 182.261 134.68C183.008 135.427 183.381 136.333 183.381 137.4ZM182.741 163H176.341V143.8H182.741V163ZM196.84 141.24H193L195.56 134.84H200.68L196.84 141.24ZM196.44 158.04C198.333 158.04 199.933 157.427 201.24 156.2L204.52 160.48C202.333 162.587 199.72 163.64 196.68 163.64C193.426 163.64 190.826 162.667 188.88 160.72C186.933 158.773 185.96 156.333 185.96 153.4C185.96 150.467 186.933 148.027 188.88 146.08C190.826 144.133 193.426 143.16 196.68 143.16C197.48 143.16 198.28 143.267 199.08 143.48C199.906 143.693 200.773 144.067 201.68 144.6C202.586 145.107 203.413 145.907 204.16 147C204.906 148.067 205.453 149.347 205.8 150.84L194.44 157.64C194.866 157.907 195.533 158.04 196.44 158.04ZM196.68 148.76C195.24 148.76 194.066 149.24 193.16 150.2C192.28 151.133 191.933 152.32 192.12 153.76L198.76 149.8C198.306 149.107 197.613 148.76 196.68 148.76ZM219.893 143.16C222.079 143.16 223.906 143.933 225.373 145.48C226.839 147.027 227.573 149.24 227.573 152.12V163H221.173V152.76C221.173 150.2 220.106 148.92 217.973 148.92C217.093 148.92 216.333 149.32 215.693 150.12C215.079 150.893 214.773 151.987 214.773 153.4V163H208.373V143.8H214.773V145.72C215.893 144.013 217.599 143.16 219.893 143.16ZM244.193 143.8H250.593V145.72C252.033 144.013 253.939 143.16 256.313 143.16C259.006 143.16 261.299 144.147 263.193 146.12C265.033 148.12 265.953 150.547 265.953 153.4C265.953 156.28 265.033 158.693 263.193 160.64C261.299 162.64 259.006 163.64 256.313 163.64C253.939 163.64 252.033 162.787 250.593 161.08V173.24H244.193V143.8ZM250.593 153.4C250.593 154.627 251.033 155.68 251.913 156.56C252.793 157.44 253.846 157.88 255.073 157.88C256.299 157.88 257.353 157.44 258.233 156.56C259.113 155.68 259.553 154.627 259.553 153.4C259.553 152.173 259.113 151.12 258.233 150.24C257.353 149.36 256.299 148.92 255.073 148.92C253.846 148.92 252.793 149.36 251.913 150.24C251.033 151.12 250.593 152.173 250.593 153.4ZM276.506 163.64C274.373 163.64 272.56 162.853 271.066 161.28C269.573 159.707 268.826 157.507 268.826 154.68V143.8H275.226V154.04C275.226 156.6 276.293 157.88 278.426 157.88C279.306 157.88 280.053 157.493 280.666 156.72C281.306 155.92 281.626 154.813 281.626 153.4V143.8H288.026V163H281.626V161.08C280.506 162.787 278.8 163.64 276.506 163.64ZM301.713 158.04C303.606 158.04 305.206 157.427 306.513 156.2L309.793 160.48C307.606 162.587 304.993 163.64 301.953 163.64C298.7 163.64 296.1 162.667 294.153 160.72C292.206 158.773 291.233 156.333 291.233 153.4C291.233 150.467 292.206 148.027 294.153 146.08C296.1 144.133 298.7 143.16 301.953 143.16C302.753 143.16 303.553 143.267 304.353 143.48C305.18 143.693 306.046 144.067 306.953 144.6C307.86 145.107 308.686 145.907 309.433 147C310.18 148.067 310.726 149.347 311.073 150.84L299.713 157.64C300.14 157.907 300.806 158.04 301.713 158.04ZM301.953 148.76C300.513 148.76 299.34 149.24 298.433 150.2C297.553 151.133 297.206 152.32 297.393 153.76L304.033 149.8C303.58 149.107 302.886 148.76 301.953 148.76ZM328.351 145.72V133.56H334.751V163H328.351V161.08C326.911 162.787 325.004 163.64 322.631 163.64C319.911 163.64 317.631 162.64 315.791 160.64C313.924 158.693 312.991 156.28 312.991 153.4C312.991 150.52 313.924 148.093 315.791 146.12C317.631 144.147 319.911 143.16 322.631 143.16C325.004 143.16 326.911 144.013 328.351 145.72ZM319.391 153.4C319.391 154.627 319.831 155.68 320.711 156.56C321.591 157.44 322.644 157.88 323.871 157.88C325.098 157.88 326.151 157.44 327.031 156.56C327.911 155.68 328.351 154.627 328.351 153.4C328.351 152.173 327.911 151.12 327.031 150.24C326.151 149.36 325.098 148.92 323.871 148.92C322.644 148.92 321.591 149.36 320.711 150.24C319.831 151.12 319.391 152.173 319.391 153.4ZM348.432 158.04C350.325 158.04 351.925 157.427 353.232 156.2L356.512 160.48C354.325 162.587 351.712 163.64 348.672 163.64C345.419 163.64 342.819 162.667 340.872 160.72C338.925 158.773 337.952 156.333 337.952 153.4C337.952 150.467 338.925 148.027 340.872 146.08C342.819 144.133 345.419 143.16 348.672 143.16C349.472 143.16 350.272 143.267 351.072 143.48C351.899 143.693 352.765 144.067 353.672 144.6C354.579 145.107 355.405 145.907 356.152 147C356.899 148.067 357.445 149.347 357.792 150.84L346.432 157.64C346.859 157.907 347.525 158.04 348.432 158.04ZM348.672 148.76C347.232 148.76 346.059 149.24 345.152 150.2C344.272 151.133 343.925 152.32 344.112 153.76L350.752 149.8C350.299 149.107 349.605 148.76 348.672 148.76ZM369.07 150.32C374.35 151.2 376.99 153.4 376.99 156.92C376.99 158.92 376.203 160.547 374.63 161.8C373.083 163.027 370.91 163.64 368.11 163.64C366.323 163.64 364.67 163.347 363.15 162.76C361.656 162.173 360.51 161.48 359.71 160.68L362.27 155.88C363.923 157.213 365.563 157.96 367.19 158.12C369.456 158.36 370.59 158.053 370.59 157.2C370.59 156.8 370.403 156.52 370.03 156.36C369.656 156.2 369.016 156.04 368.11 155.88C368.056 155.88 367.976 155.867 367.87 155.84C367.79 155.813 367.723 155.8 367.67 155.8C364.656 155.187 362.696 154.227 361.79 152.92C361.043 151.827 360.67 150.653 360.67 149.4C360.67 147.693 361.39 146.213 362.83 144.96C364.216 143.76 366.203 143.16 368.79 143.16C369.696 143.16 370.883 143.36 372.35 143.76C373.603 144.16 374.63 144.627 375.43 145.16L372.99 149.92C371.923 149.093 370.67 148.613 369.23 148.48C367.79 148.347 367.07 148.587 367.07 149.2C367.07 149.52 367.203 149.76 367.47 149.92C367.736 150.053 368.27 150.187 369.07 150.32ZM410.262 153V163H403.862V161.4C402.529 162.893 400.795 163.64 398.662 163.64C396.502 163.64 394.809 162.987 393.582 161.68C392.329 160.373 391.702 158.8 391.702 156.96C391.702 155.28 392.329 153.893 393.582 152.8C394.835 151.707 396.355 151.067 398.142 150.88C399.982 150.72 401.862 150.893 403.782 151.4C403.729 150.493 403.395 149.773 402.782 149.24C402.195 148.707 401.382 148.44 400.342 148.44C398.769 148.44 397.275 148.853 395.862 149.68L393.942 145.08C395.915 143.8 398.369 143.16 401.302 143.16C403.862 143.16 406.009 143.96 407.742 145.56C409.422 147.16 410.262 149.64 410.262 153ZM403.862 155.4C402.422 154.893 401.089 154.787 399.862 155.08C398.689 155.373 398.102 156.04 398.102 157.08C398.102 157.693 398.315 158.2 398.742 158.6C399.195 158.973 399.742 159.16 400.382 159.16C401.235 159.16 401.995 158.827 402.662 158.16C403.329 157.467 403.729 156.547 403.862 155.4ZM414.427 143.8H420.827V145.72C422.267 144.013 424.174 143.16 426.547 143.16C429.241 143.16 431.534 144.147 433.427 146.12C435.267 148.12 436.187 150.547 436.187 153.4C436.187 156.28 435.267 158.693 433.427 160.64C431.534 162.64 429.241 163.64 426.547 163.64C424.174 163.64 422.267 162.787 420.827 161.08V173.24H414.427V143.8ZM420.827 153.4C420.827 154.627 421.267 155.68 422.147 156.56C423.027 157.44 424.081 157.88 425.307 157.88C426.534 157.88 427.587 157.44 428.467 156.56C429.347 155.68 429.787 154.627 429.787 153.4C429.787 152.173 429.347 151.12 428.467 150.24C427.587 149.36 426.534 148.92 425.307 148.92C424.081 148.92 423.027 149.36 422.147 150.24C421.267 151.12 420.827 152.173 420.827 153.4ZM449.613 143.16C452.626 143.16 455.2 144.147 457.333 146.12C459.44 148.12 460.493 150.547 460.493 153.4C460.493 156.28 459.453 158.693 457.373 160.64C455.24 162.64 452.653 163.64 449.613 163.64C446.466 163.64 443.866 162.653 441.813 160.68C439.76 158.707 438.733 156.28 438.733 153.4C438.733 150.467 439.746 148.027 441.773 146.08C443.8 144.133 446.413 143.16 449.613 143.16ZM445.133 153.4C445.133 154.627 445.573 155.68 446.453 156.56C447.333 157.44 448.386 157.88 449.613 157.88C450.84 157.88 451.893 157.44 452.773 156.56C453.653 155.68 454.093 154.627 454.093 153.4C454.093 152.173 453.653 151.12 452.773 150.24C451.893 149.36 450.84 148.92 449.613 148.92C448.386 148.92 447.333 149.36 446.453 150.24C445.573 151.12 445.133 152.173 445.133 153.4ZM472.044 154.44L475.884 143.8H482.924L470.764 173.24H463.724L468.884 161.8L461.164 143.8H468.204L472.044 154.44ZM502.449 153V163H496.049V161.4C494.716 162.893 492.983 163.64 490.849 163.64C488.689 163.64 486.996 162.987 485.769 161.68C484.516 160.373 483.889 158.8 483.889 156.96C483.889 155.28 484.516 153.893 485.769 152.8C487.023 151.707 488.543 151.067 490.329 150.88C492.169 150.72 494.049 150.893 495.969 151.4C495.916 150.493 495.583 149.773 494.969 149.24C494.383 148.707 493.569 148.44 492.529 148.44C490.956 148.44 489.463 148.853 488.049 149.68L486.129 145.08C488.103 143.8 490.556 143.16 493.489 143.16C496.049 143.16 498.196 143.96 499.929 145.56C501.609 147.16 502.449 149.64 502.449 153ZM496.049 155.4C494.609 154.893 493.276 154.787 492.049 155.08C490.876 155.373 490.289 156.04 490.289 157.08C490.289 157.693 490.503 158.2 490.929 158.6C491.383 158.973 491.929 159.16 492.569 159.16C493.423 159.16 494.183 158.827 494.849 158.16C495.516 157.467 495.916 156.547 496.049 155.4ZM513.015 143.8V147.36C513.681 146 514.561 145 515.655 144.36C516.748 143.693 518.215 143.293 520.055 143.16V150.2C518.935 149.853 517.761 149.853 516.535 150.2C515.521 150.467 514.681 151.12 514.015 152.16C513.348 153.2 513.015 154.453 513.015 155.92V163H506.615V143.8H513.015ZM535.4 143.16C537.587 143.16 539.414 143.933 540.88 145.48C542.347 147.027 543.08 149.24 543.08 152.12V163H536.68V152.76C536.68 150.2 535.614 148.92 533.48 148.92C532.6 148.92 531.84 149.32 531.2 150.12C530.587 150.893 530.28 151.987 530.28 153.4V163H523.88V143.8H530.28V145.72C531.4 144.013 533.107 143.16 535.4 143.16ZM557.152 143.16C560.166 143.16 562.739 144.147 564.872 146.12C566.979 148.12 568.032 150.547 568.032 153.4C568.032 156.28 566.992 158.693 564.912 160.64C562.779 162.64 560.192 163.64 557.152 163.64C554.006 163.64 551.406 162.653 549.352 160.68C547.299 158.707 546.272 156.28 546.272 153.4C546.272 150.467 547.286 148.027 549.312 146.08C551.339 144.133 553.952 143.16 557.152 143.16ZM552.672 153.4C552.672 154.627 553.112 155.68 553.992 156.56C554.872 157.44 555.926 157.88 557.152 157.88C558.379 157.88 559.432 157.44 560.312 156.56C561.192 155.68 561.632 154.627 561.632 153.4C561.632 152.173 561.192 151.12 560.312 150.24C559.432 149.36 558.379 148.92 557.152 148.92C555.926 148.92 554.872 149.36 553.992 150.24C553.112 151.12 552.672 152.173 552.672 153.4ZM579.968 150.32C585.248 151.2 587.888 153.4 587.888 156.92C587.888 158.92 587.101 160.547 585.528 161.8C583.981 163.027 581.808 163.64 579.008 163.64C577.221 163.64 575.568 163.347 574.048 162.76C572.555 162.173 571.408 161.48 570.608 160.68L573.168 155.88C574.821 157.213 576.461 157.96 578.088 158.12C580.355 158.36 581.488 158.053 581.488 157.2C581.488 156.8 581.301 156.52 580.928 156.36C580.555 156.2 579.915 156.04 579.008 155.88C578.955 155.88 578.875 155.867 578.768 155.84C578.688 155.813 578.621 155.8 578.568 155.8C575.555 155.187 573.595 154.227 572.688 152.92C571.941 151.827 571.568 150.653 571.568 149.4C571.568 147.693 572.288 146.213 573.728 144.96C575.115 143.76 577.101 143.16 579.688 143.16C580.595 143.16 581.781 143.36 583.248 143.76C584.501 144.16 585.528 144.627 586.328 145.16L583.888 149.92C582.821 149.093 581.568 148.613 580.128 148.48C578.688 148.347 577.968 148.587 577.968 149.2C577.968 149.52 578.101 149.76 578.368 149.92C578.635 150.053 579.168 150.187 579.968 150.32ZM597.812 154.04H592.692L592.052 134.84H598.452L597.812 154.04ZM598.772 160.08C598.772 161.067 598.439 161.907 597.772 162.6C597.105 163.293 596.279 163.64 595.292 163.64C594.305 163.64 593.465 163.293 592.772 162.6C592.079 161.907 591.732 161.067 591.732 160.08C591.732 159.093 592.079 158.267 592.772 157.6C593.465 156.933 594.305 156.6 595.292 156.6C596.279 156.6 597.105 156.933 597.772 157.6C598.439 158.267 598.772 159.093 598.772 160.08Z" fill="white"/>
<line x1="91" y1="196" x2="520" y2="196" stroke="white" stroke-width="2"/>
<path d="M115.428 235H112.932L111.876 232.6H103.62L102.564 235H100.068L107.748 217.72L115.428 235ZM107.748 223.096L104.532 230.488H110.964L107.748 223.096ZM122.154 233.08C123.162 233.08 123.962 232.76 124.554 232.12L125.802 233.848C124.762 234.744 123.546 235.192 122.154 235.192C120.618 235.192 119.306 234.648 118.218 233.56C117.13 232.472 116.586 231.16 116.586 229.624C116.586 228.088 117.13 226.776 118.218 225.688C119.306 224.6 120.618 224.056 122.154 224.056C123.546 224.056 124.762 224.504 125.802 225.4L124.554 227.128C123.962 226.488 123.162 226.168 122.154 226.168C121.29 226.168 120.53 226.504 119.874 227.176C119.218 227.88 118.89 228.696 118.89 229.624C118.89 230.552 119.218 231.36 119.874 232.048C120.514 232.736 121.274 233.08 122.154 233.08ZM133.31 222.712H131.774L133.31 218.872H135.614L133.31 222.712ZM133.31 233.08C134.254 233.08 135.142 232.664 135.974 231.832L137.294 233.512C136.222 234.632 134.894 235.192 133.31 235.192C131.774 235.192 130.462 234.648 129.374 233.56C128.286 232.472 127.742 231.16 127.742 229.624C127.742 228.088 128.286 226.776 129.374 225.688C130.462 224.6 131.774 224.056 133.31 224.056C134.51 224.056 135.534 224.4 136.382 225.088C137.23 225.76 137.806 226.68 138.11 227.848L130.982 231.976C131.206 232.296 131.534 232.56 131.966 232.768C132.414 232.976 132.862 233.08 133.31 233.08ZM133.31 226.168C132.446 226.168 131.686 226.52 131.03 227.224C130.374 227.928 130.046 228.728 130.046 229.624C130.046 229.656 130.062 229.864 130.094 230.248L135.422 227.176C134.91 226.504 134.206 226.168 133.31 226.168ZM142.72 224.248V225.952C143.44 224.688 144.72 224.056 146.56 224.056V226.504C145.856 226.36 145.216 226.392 144.64 226.6C143.36 227.064 142.72 228.256 142.72 230.176V235H140.416V224.248H142.72ZM153.654 233.08C154.662 233.08 155.462 232.76 156.054 232.12L157.302 233.848C156.262 234.744 155.046 235.192 153.654 235.192C152.118 235.192 150.806 234.648 149.718 233.56C148.63 232.472 148.086 231.16 148.086 229.624C148.086 228.088 148.63 226.776 149.718 225.688C150.806 224.6 152.118 224.056 153.654 224.056C155.046 224.056 156.262 224.504 157.302 225.4L156.054 227.128C155.462 226.488 154.662 226.168 153.654 226.168C152.79 226.168 152.03 226.504 151.374 227.176C150.718 227.88 150.39 228.696 150.39 229.624C150.39 230.552 150.718 231.36 151.374 232.048C152.014 232.736 152.774 233.08 153.654 233.08ZM168.842 229.96V235H166.538V233.608C165.642 234.664 164.53 235.192 163.202 235.192C162.05 235.192 161.106 234.848 160.37 234.16C159.618 233.488 159.242 232.624 159.242 231.568C159.242 230.56 159.61 229.736 160.346 229.096C161.098 228.456 162.002 228.112 163.058 228.064C164.13 228.016 165.266 228.232 166.466 228.712C166.37 227.016 165.562 226.168 164.042 226.168C163.13 226.168 162.298 226.4 161.546 226.864L160.586 225.208C161.594 224.44 162.778 224.056 164.138 224.056C167.274 224.056 168.842 226.024 168.842 229.96ZM166.538 230.608C165.994 230.288 165.322 230.104 164.522 230.056C163.722 230.008 163.018 230.128 162.41 230.416C161.818 230.688 161.53 231.096 161.546 231.64C161.546 232.056 161.714 232.4 162.05 232.672C162.402 232.944 162.858 233.08 163.418 233.08C164.154 233.08 164.834 232.84 165.458 232.36C166.082 231.88 166.442 231.296 166.538 230.608ZM175.56 235H173.256V226.36H171.336V224.248H173.256V220.024L175.56 219.256V224.248H178.632V226.36H175.56V235ZM185.74 233.08C186.684 233.08 187.572 232.664 188.404 231.832L189.724 233.512C188.652 234.632 187.324 235.192 185.74 235.192C184.204 235.192 182.892 234.648 181.804 233.56C180.716 232.472 180.172 231.16 180.172 229.624C180.172 228.088 180.716 226.776 181.804 225.688C182.892 224.6 184.204 224.056 185.74 224.056C186.94 224.056 187.964 224.4 188.812 225.088C189.66 225.76 190.236 226.68 190.54 227.848L183.412 231.976C183.636 232.296 183.964 232.56 184.396 232.768C184.844 232.976 185.292 233.08 185.74 233.08ZM185.74 226.168C184.876 226.168 184.116 226.52 183.46 227.224C182.804 227.928 182.476 228.728 182.476 229.624C182.476 229.656 182.492 229.864 182.524 230.248L187.852 227.176C187.34 226.504 186.636 226.168 185.74 226.168ZM210.115 229.96V235H207.811V233.608C206.915 234.664 205.803 235.192 204.475 235.192C203.323 235.192 202.379 234.848 201.643 234.16C200.891 233.488 200.515 232.624 200.515 231.568C200.515 230.56 200.883 229.736 201.619 229.096C202.371 228.456 203.275 228.112 204.331 228.064C205.403 228.016 206.539 228.232 207.739 228.712C207.643 227.016 206.835 226.168 205.315 226.168C204.403 226.168 203.571 226.4 202.819 226.864L201.859 225.208C202.867 224.44 204.051 224.056 205.411 224.056C208.547 224.056 210.115 226.024 210.115 229.96ZM207.811 230.608C207.267 230.288 206.595 230.104 205.795 230.056C204.995 230.008 204.291 230.128 203.683 230.416C203.091 230.688 202.803 231.096 202.819 231.64C202.819 232.056 202.987 232.4 203.323 232.672C203.675 232.944 204.131 233.08 204.691 233.08C205.427 233.08 206.107 232.84 206.731 232.36C207.355 231.88 207.715 231.296 207.811 230.608ZM225.515 235.192C224.139 235.192 223.083 234.736 222.347 233.824C221.611 232.912 221.243 231.608 221.243 229.912V224.248H223.547V230.104C223.547 232.088 224.347 233.08 225.947 233.08C226.683 233.08 227.299 232.76 227.795 232.12C228.291 231.48 228.539 230.648 228.539 229.624V224.248H230.843V235H228.539V233.656C228.315 234.072 227.931 234.432 227.387 234.736C226.843 235.04 226.219 235.192 225.515 235.192ZM239.822 224.056C241.198 224.056 242.254 224.512 242.99 225.424C243.726 226.336 244.094 227.64 244.094 229.336V235H241.79V229.336C241.79 228.264 241.598 227.472 241.214 226.96C240.846 226.432 240.238 226.168 239.39 226.168C238.654 226.168 238.038 226.48 237.542 227.104C237.046 227.712 236.798 228.488 236.798 229.432V235H234.494V224.248H236.798V225.592C237.022 225.176 237.406 224.816 237.95 224.512C238.494 224.208 239.118 224.056 239.822 224.056ZM246.781 229.624C246.781 228.088 247.325 226.776 248.413 225.688C249.501 224.6 250.813 224.056 252.349 224.056C253.885 224.056 255.197 224.6 256.285 225.688C257.373 226.776 257.917 228.088 257.917 229.624C257.917 231.16 257.373 232.472 256.285 233.56C255.197 234.648 253.885 235.192 252.349 235.192C250.813 235.192 249.501 234.648 248.413 233.56C247.325 232.472 246.781 231.16 246.781 229.624ZM250.069 232.048C250.709 232.736 251.469 233.08 252.349 233.08C253.245 233.08 254.013 232.736 254.653 232.048C255.293 231.392 255.613 230.584 255.613 229.624C255.613 228.68 255.293 227.864 254.653 227.176C254.013 226.504 253.245 226.168 252.349 226.168C251.485 226.168 250.725 226.504 250.069 227.176C249.413 227.88 249.085 228.696 249.085 229.624C249.085 230.552 249.413 231.36 250.069 232.048ZM277.105 225.592V217.336H279.409V235H277.105V233.656C276.225 234.68 275.073 235.192 273.649 235.192C272.161 235.192 270.897 234.648 269.857 233.56C268.801 232.472 268.273 231.16 268.273 229.624C268.273 228.088 268.801 226.776 269.857 225.688C270.897 224.6 272.161 224.056 273.649 224.056C275.073 224.056 276.225 224.568 277.105 225.592ZM271.537 232.072C272.161 232.744 272.929 233.08 273.841 233.08C274.737 233.08 275.513 232.744 276.169 232.072C276.793 231.4 277.105 230.584 277.105 229.624C277.105 228.664 276.793 227.848 276.169 227.176C275.513 226.504 274.737 226.168 273.841 226.168C272.929 226.168 272.161 226.504 271.537 227.176C270.897 227.832 270.577 228.648 270.577 229.624C270.577 230.6 270.897 231.416 271.537 232.072ZM287.669 233.08C288.613 233.08 289.501 232.664 290.333 231.832L291.653 233.512C290.581 234.632 289.253 235.192 287.669 235.192C286.133 235.192 284.821 234.648 283.733 233.56C282.645 232.472 282.101 231.16 282.101 229.624C282.101 228.088 282.645 226.776 283.733 225.688C284.821 224.6 286.133 224.056 287.669 224.056C288.869 224.056 289.893 224.4 290.741 225.088C291.589 225.76 292.165 226.68 292.469 227.848L285.341 231.976C285.565 232.296 285.893 232.56 286.325 232.768C286.773 232.976 287.221 233.08 287.669 233.08ZM287.669 226.168C286.805 226.168 286.045 226.52 285.389 227.224C284.733 227.928 284.405 228.728 284.405 229.624C284.405 229.656 284.421 229.864 284.453 230.248L289.781 227.176C289.269 226.504 288.565 226.168 287.669 226.168ZM308.541 224.056C309.917 224.056 310.973 224.512 311.709 225.424C312.445 226.336 312.813 227.64 312.813 229.336V235H310.509V229.336C310.509 228.264 310.317 227.472 309.933 226.96C309.565 226.432 308.957 226.168 308.109 226.168C307.373 226.168 306.757 226.48 306.261 227.104C305.765 227.712 305.517 228.488 305.517 229.432V235H303.213V224.248H305.517V225.592C305.741 225.176 306.125 224.816 306.669 224.512C307.213 224.208 307.837 224.056 308.541 224.056ZM319.968 235.192C318.592 235.192 317.536 234.736 316.8 233.824C316.064 232.912 315.696 231.608 315.696 229.912V224.248H318V230.104C318 232.088 318.8 233.08 320.4 233.08C321.136 233.08 321.752 232.76 322.248 232.12C322.744 231.48 322.992 230.648 322.992 229.624V224.248H325.296V235H322.992V233.656C322.768 234.072 322.384 234.432 321.84 234.736C321.296 235.04 320.672 235.192 319.968 235.192ZM333.56 233.08C334.504 233.08 335.392 232.664 336.224 231.832L337.544 233.512C336.472 234.632 335.144 235.192 333.56 235.192C332.024 235.192 330.712 234.648 329.624 233.56C328.536 232.472 327.992 231.16 327.992 229.624C327.992 228.088 328.536 226.776 329.624 225.688C330.712 224.6 332.024 224.056 333.56 224.056C334.76 224.056 335.784 224.4 336.632 225.088C337.48 225.76 338.056 226.68 338.36 227.848L331.232 231.976C331.456 232.296 331.784 232.56 332.216 232.768C332.664 232.976 333.112 233.08 333.56 233.08ZM333.56 226.168C332.696 226.168 331.936 226.52 331.28 227.224C330.624 227.928 330.296 228.728 330.296 229.624C330.296 229.656 330.312 229.864 330.344 230.248L335.672 227.176C335.16 226.504 334.456 226.168 333.56 226.168ZM344.905 228.28C347.193 228.808 348.337 229.976 348.337 231.784C348.337 232.792 347.961 233.608 347.209 234.232C346.457 234.872 345.561 235.192 344.521 235.192C342.905 235.192 341.489 234.584 340.273 233.368L341.425 231.688C342.353 232.584 343.337 233.048 344.377 233.08C344.873 233.096 345.273 232.984 345.577 232.744C345.881 232.504 346.033 232.224 346.033 231.904C346.033 231.296 345.537 230.856 344.545 230.584C343.153 230.2 342.185 229.76 341.641 229.264C341.113 228.768 340.849 228.064 340.849 227.152C340.849 226.288 341.177 225.56 341.833 224.968C342.505 224.36 343.393 224.056 344.497 224.056C345.633 224.056 346.665 224.424 347.593 225.16L346.513 226.84C345.921 226.392 345.249 226.168 344.497 226.168C344.081 226.168 343.753 226.256 343.513 226.432C343.273 226.608 343.153 226.824 343.153 227.08C343.153 227.384 343.273 227.624 343.513 227.8C343.769 227.96 344.233 228.12 344.905 228.28ZM354.856 235H352.552V226.36H350.632V224.248H352.552V220.024L354.856 219.256V224.248H357.928V226.36H354.856V235ZM363.314 224.248V225.952C364.034 224.688 365.314 224.056 367.154 224.056V226.504C366.45 226.36 365.81 226.392 365.234 226.6C363.954 227.064 363.314 228.256 363.314 230.176V235H361.01V224.248H363.314ZM368.679 229.624C368.679 228.088 369.223 226.776 370.311 225.688C371.399 224.6 372.711 224.056 374.247 224.056C375.783 224.056 377.095 224.6 378.183 225.688C379.271 226.776 379.815 228.088 379.815 229.624C379.815 231.16 379.271 232.472 378.183 233.56C377.095 234.648 375.783 235.192 374.247 235.192C372.711 235.192 371.399 234.648 370.311 233.56C369.223 232.472 368.679 231.16 368.679 229.624ZM371.967 232.048C372.607 232.736 373.367 233.08 374.247 233.08C375.143 233.08 375.911 232.736 376.551 232.048C377.191 231.392 377.511 230.584 377.511 229.624C377.511 228.68 377.191 227.864 376.551 227.176C375.911 226.504 375.143 226.168 374.247 226.168C373.383 226.168 372.623 226.504 371.967 227.176C371.311 227.88 370.983 228.696 370.983 229.624C370.983 230.552 371.311 231.36 371.967 232.048ZM386.741 228.28C389.029 228.808 390.173 229.976 390.173 231.784C390.173 232.792 389.797 233.608 389.045 234.232C388.293 234.872 387.397 235.192 386.357 235.192C384.741 235.192 383.325 234.584 382.109 233.368L383.261 231.688C384.189 232.584 385.173 233.048 386.213 233.08C386.709 233.096 387.109 232.984 387.413 232.744C387.717 232.504 387.869 232.224 387.869 231.904C387.869 231.296 387.373 230.856 386.381 230.584C384.989 230.2 384.021 229.76 383.477 229.264C382.949 228.768 382.685 228.064 382.685 227.152C382.685 226.288 383.013 225.56 383.669 224.968C384.341 224.36 385.229 224.056 386.333 224.056C387.469 224.056 388.501 224.424 389.429 225.16L388.349 226.84C387.757 226.392 387.085 226.168 386.333 226.168C385.917 226.168 385.589 226.256 385.349 226.432C385.109 226.608 384.989 226.824 384.989 227.08C384.989 227.384 385.109 227.624 385.349 227.8C385.605 227.96 386.069 228.12 386.741 228.28ZM406.099 233.08C407.107 233.08 407.907 232.76 408.499 232.12L409.747 233.848C408.707 234.744 407.491 235.192 406.099 235.192C404.563 235.192 403.251 234.648 402.163 233.56C401.075 232.472 400.531 231.16 400.531 229.624C400.531 228.088 401.075 226.776 402.163 225.688C403.251 224.6 404.563 224.056 406.099 224.056C407.491 224.056 408.707 224.504 409.747 225.4L408.499 227.128C407.907 226.488 407.107 226.168 406.099 226.168C405.235 226.168 404.475 226.504 403.819 227.176C403.163 227.88 402.835 228.696 402.835 229.624C402.835 230.552 403.163 231.36 403.819 232.048C404.459 232.736 405.219 233.08 406.099 233.08ZM417.255 233.08C418.199 233.08 419.087 232.664 419.919 231.832L421.239 233.512C420.167 234.632 418.839 235.192 417.255 235.192C415.719 235.192 414.407 234.648 413.319 233.56C412.231 232.472 411.687 231.16 411.687 229.624C411.687 228.088 412.231 226.776 413.319 225.688C414.407 224.6 415.719 224.056 417.255 224.056C418.455 224.056 419.479 224.4 420.327 225.088C421.175 225.76 421.751 226.68 422.055 227.848L414.927 231.976C415.151 232.296 415.479 232.56 415.911 232.768C416.359 232.976 416.807 233.08 417.255 233.08ZM417.255 226.168C416.391 226.168 415.631 226.52 414.975 227.224C414.319 227.928 413.991 228.728 413.991 229.624C413.991 229.656 414.007 229.864 414.039 230.248L419.367 227.176C418.855 226.504 418.151 226.168 417.255 226.168ZM429.689 224.056C431.065 224.056 432.121 224.512 432.857 225.424C433.593 226.336 433.961 227.64 433.961 229.336V235H431.657V229.336C431.657 228.264 431.465 227.472 431.081 226.96C430.713 226.432 430.105 226.168 429.257 226.168C428.521 226.168 427.905 226.48 427.409 227.104C426.913 227.712 426.665 228.488 426.665 229.432V235H424.361V224.248H426.665V225.592C426.889 225.176 427.273 224.816 427.817 224.512C428.361 224.208 428.985 224.056 429.689 224.056ZM440.685 235H438.381V226.36H436.461V224.248H438.381V220.024L440.685 219.256V224.248H443.757V226.36H440.685V235ZM449.142 224.248V225.952C449.862 224.688 451.142 224.056 452.982 224.056V226.504C452.278 226.36 451.638 226.392 451.062 226.6C449.782 227.064 449.142 228.256 449.142 230.176V235H446.838V224.248H449.142ZM454.507 229.624C454.507 228.088 455.051 226.776 456.139 225.688C457.227 224.6 458.539 224.056 460.075 224.056C461.611 224.056 462.923 224.6 464.011 225.688C465.099 226.776 465.643 228.088 465.643 229.624C465.643 231.16 465.099 232.472 464.011 233.56C462.923 234.648 461.611 235.192 460.075 235.192C458.539 235.192 457.227 234.648 456.139 233.56C455.051 232.472 454.507 231.16 454.507 229.624ZM457.795 232.048C458.435 232.736 459.195 233.08 460.075 233.08C460.971 233.08 461.739 232.736 462.379 232.048C463.019 231.392 463.339 230.584 463.339 229.624C463.339 228.68 463.019 227.864 462.379 227.176C461.739 226.504 460.971 226.168 460.075 226.168C459.211 226.168 458.451 226.504 457.795 227.176C457.139 227.88 456.811 228.696 456.811 229.624C456.811 230.552 457.139 231.36 457.795 232.048ZM472.569 228.28C474.857 228.808 476.001 229.976 476.001 231.784C476.001 232.792 475.625 233.608 474.873 234.232C474.121 234.872 473.225 235.192 472.185 235.192C470.569 235.192 469.153 234.584 467.937 233.368L469.089 231.688C470.017 232.584 471.001 233.048 472.041 233.08C472.537 233.096 472.937 232.984 473.241 232.744C473.545 232.504 473.697 232.224 473.697 231.904C473.697 231.296 473.201 230.856 472.209 230.584C470.817 230.2 469.849 229.76 469.305 229.264C468.777 228.768 468.513 228.064 468.513 227.152C468.513 226.288 468.841 225.56 469.497 224.968C470.169 224.36 471.057 224.056 472.161 224.056C473.297 224.056 474.329 224.424 475.257 225.16L474.177 226.84C473.585 226.392 472.913 226.168 472.161 226.168C471.745 226.168 471.417 226.256 471.177 226.432C470.937 226.608 470.817 226.824 470.817 227.08C470.817 227.384 470.937 227.624 471.177 227.8C471.433 227.96 471.897 228.12 472.569 228.28ZM495.191 225.592V217.336H497.495V235H495.191V233.656C494.311 234.68 493.159 235.192 491.735 235.192C490.247 235.192 488.983 234.648 487.943 233.56C486.887 232.472 486.359 231.16 486.359 229.624C486.359 228.088 486.887 226.776 487.943 225.688C488.983 224.6 490.247 224.056 491.735 224.056C493.159 224.056 494.311 224.568 495.191 225.592ZM489.623 232.072C490.247 232.744 491.015 233.08 491.927 233.08C492.823 233.08 493.599 232.744 494.255 232.072C494.879 231.4 495.191 230.584 495.191 229.624C495.191 228.664 494.879 227.848 494.255 227.176C493.599 226.504 492.823 226.168 491.927 226.168C491.015 226.168 490.247 226.504 489.623 227.176C488.983 227.832 488.663 228.648 488.663 229.624C488.663 230.6 488.983 231.416 489.623 232.072ZM505.755 233.08C506.699 233.08 507.587 232.664 508.419 231.832L509.739 233.512C508.667 234.632 507.339 235.192 505.755 235.192C504.219 235.192 502.907 234.648 501.819 233.56C500.731 232.472 500.187 231.16 500.187 229.624C500.187 228.088 500.731 226.776 501.819 225.688C502.907 224.6 504.219 224.056 505.755 224.056C506.955 224.056 507.979 224.4 508.827 225.088C509.675 225.76 510.251 226.68 510.555 227.848L503.427 231.976C503.651 232.296 503.979 232.56 504.411 232.768C504.859 232.976 505.307 233.08 505.755 233.08ZM505.755 226.168C504.891 226.168 504.131 226.52 503.475 227.224C502.819 227.928 502.491 228.728 502.491 229.624C502.491 229.656 502.507 229.864 502.539 230.248L507.867 227.176C507.355 226.504 506.651 226.168 505.755 226.168ZM129.15 260.96V266H126.846V264.608C125.95 265.664 124.838 266.192 123.51 266.192C122.358 266.192 121.414 265.848 120.678 265.16C119.926 264.488 119.55 263.624 119.55 262.568C119.55 261.56 119.918 260.736 120.654 260.096C121.406 259.456 122.31 259.112 123.366 259.064C124.438 259.016 125.574 259.232 126.774 259.712C126.678 258.016 125.87 257.168 124.35 257.168C123.438 257.168 122.606 257.4 121.854 257.864L120.894 256.208C121.902 255.44 123.086 255.056 124.446 255.056C127.582 255.056 129.15 257.024 129.15 260.96ZM126.846 261.608C126.302 261.288 125.63 261.104 124.83 261.056C124.03 261.008 123.326 261.128 122.718 261.416C122.126 261.688 121.838 262.096 121.854 262.64C121.854 263.056 122.022 263.4 122.358 263.672C122.71 263.944 123.166 264.08 123.726 264.08C124.462 264.08 125.142 263.84 125.766 263.36C126.39 262.88 126.75 262.296 126.846 261.608ZM137.4 264.08C138.408 264.08 139.208 263.76 139.8 263.12L141.048 264.848C140.008 265.744 138.792 266.192 137.4 266.192C135.864 266.192 134.552 265.648 133.464 264.56C132.376 263.472 131.832 262.16 131.832 260.624C131.832 259.088 132.376 257.776 133.464 256.688C134.552 255.6 135.864 255.056 137.4 255.056C138.792 255.056 140.008 255.504 141.048 256.4L139.8 258.128C139.208 257.488 138.408 257.168 137.4 257.168C136.536 257.168 135.776 257.504 135.12 258.176C134.464 258.88 134.136 259.696 134.136 260.624C134.136 261.552 134.464 262.36 135.12 263.048C135.76 263.736 136.52 264.08 137.4 264.08ZM142.988 260.624C142.988 259.088 143.532 257.776 144.62 256.688C145.708 255.6 147.02 255.056 148.556 255.056C150.092 255.056 151.404 255.6 152.492 256.688C153.58 257.776 154.124 259.088 154.124 260.624C154.124 262.16 153.58 263.472 152.492 264.56C151.404 265.648 150.092 266.192 148.556 266.192C147.02 266.192 145.708 265.648 144.62 264.56C143.532 263.472 142.988 262.16 142.988 260.624ZM146.276 263.048C146.916 263.736 147.676 264.08 148.556 264.08C149.452 264.08 150.22 263.736 150.86 263.048C151.5 262.392 151.82 261.584 151.82 260.624C151.82 259.68 151.5 258.864 150.86 258.176C150.22 257.504 149.452 257.168 148.556 257.168C147.692 257.168 146.932 257.504 146.276 258.176C145.62 258.88 145.292 259.696 145.292 260.624C145.292 261.552 145.62 262.36 146.276 263.048ZM159.115 264.656V271.76H156.811V255.248H159.115V256.592C159.995 255.568 161.147 255.056 162.571 255.056C164.059 255.056 165.331 255.6 166.387 256.688C167.427 257.776 167.947 259.088 167.947 260.624C167.947 262.16 167.427 263.472 166.387 264.56C165.331 265.648 164.059 266.192 162.571 266.192C161.147 266.192 159.995 265.68 159.115 264.656ZM164.707 258.176C164.051 257.504 163.275 257.168 162.379 257.168C161.467 257.168 160.699 257.504 160.075 258.176C159.435 258.832 159.115 259.648 159.115 260.624C159.115 261.6 159.435 262.416 160.075 263.072C160.699 263.744 161.467 264.08 162.379 264.08C163.275 264.08 164.051 263.744 164.707 263.072C165.331 262.4 165.643 261.584 165.643 260.624C165.643 259.664 165.331 258.848 164.707 258.176ZM173.706 251.6C173.706 252.08 173.538 252.488 173.202 252.824C172.866 253.16 172.458 253.328 171.978 253.328C171.498 253.328 171.09 253.16 170.754 252.824C170.418 252.488 170.25 252.08 170.25 251.6C170.25 251.12 170.418 250.712 170.754 250.376C171.09 250.04 171.498 249.872 171.978 249.872C172.458 249.872 172.866 250.04 173.202 250.376C173.538 250.712 173.706 251.12 173.706 251.6ZM173.13 266H170.826V255.248H173.13V266ZM175.824 260.624C175.824 259.088 176.368 257.776 177.456 256.688C178.544 255.6 179.856 255.056 181.392 255.056C182.928 255.056 184.24 255.6 185.328 256.688C186.416 257.776 186.96 259.088 186.96 260.624C186.96 262.16 186.416 263.472 185.328 264.56C184.24 265.648 182.928 266.192 181.392 266.192C179.856 266.192 178.544 265.648 177.456 264.56C176.368 263.472 175.824 262.16 175.824 260.624ZM179.112 263.048C179.752 263.736 180.512 264.08 181.392 264.08C182.288 264.08 183.056 263.736 183.696 263.048C184.336 262.392 184.656 261.584 184.656 260.624C184.656 259.68 184.336 258.864 183.696 258.176C183.056 257.504 182.288 257.168 181.392 257.168C180.528 257.168 179.768 257.504 179.112 258.176C178.456 258.88 178.128 259.696 178.128 260.624C178.128 261.552 178.456 262.36 179.112 263.048ZM201.948 262.52L204.804 255.248H207.3L200.604 271.76H198.156L200.772 265.376L196.548 255.248H199.044L201.948 262.52ZM222.478 264.08C223.422 264.08 224.31 263.664 225.142 262.832L226.462 264.512C225.39 265.632 224.062 266.192 222.478 266.192C220.942 266.192 219.63 265.648 218.542 264.56C217.454 263.472 216.91 262.16 216.91 260.624C216.91 259.088 217.454 257.776 218.542 256.688C219.63 255.6 220.942 255.056 222.478 255.056C223.678 255.056 224.702 255.4 225.55 256.088C226.398 256.76 226.974 257.68 227.278 258.848L220.15 262.976C220.374 263.296 220.702 263.56 221.134 263.768C221.582 263.976 222.03 264.08 222.478 264.08ZM222.478 257.168C221.614 257.168 220.854 257.52 220.198 258.224C219.542 258.928 219.214 259.728 219.214 260.624C219.214 260.656 219.23 260.864 219.262 261.248L224.59 258.176C224.078 257.504 223.374 257.168 222.478 257.168ZM234.912 255.056C236.288 255.056 237.344 255.512 238.08 256.424C238.816 257.336 239.184 258.64 239.184 260.336V266H236.88V260.336C236.88 259.264 236.688 258.472 236.304 257.96C235.936 257.432 235.328 257.168 234.48 257.168C233.744 257.168 233.128 257.48 232.632 258.104C232.136 258.712 231.888 259.488 231.888 260.432V266H229.584V255.248H231.888V256.592C232.112 256.176 232.496 255.816 233.04 255.512C233.584 255.208 234.208 255.056 234.912 255.056ZM247.439 264.08C248.447 264.08 249.247 263.76 249.839 263.12L251.087 264.848C250.047 265.744 248.831 266.192 247.439 266.192C245.903 266.192 244.591 265.648 243.503 264.56C242.415 263.472 241.871 262.16 241.871 260.624C241.871 259.088 242.415 257.776 243.503 256.688C244.591 255.6 245.903 255.056 247.439 255.056C248.831 255.056 250.047 255.504 251.087 256.4L249.839 258.128C249.247 257.488 248.447 257.168 247.439 257.168C246.575 257.168 245.815 257.504 245.159 258.176C244.503 258.88 244.175 259.696 244.175 260.624C244.175 261.552 244.503 262.36 245.159 263.048C245.799 263.736 246.559 264.08 247.439 264.08ZM262.627 260.96V266H260.323V264.608C259.427 265.664 258.315 266.192 256.987 266.192C255.835 266.192 254.891 265.848 254.155 265.16C253.403 264.488 253.027 263.624 253.027 262.568C253.027 261.56 253.395 260.736 254.131 260.096C254.883 259.456 255.787 259.112 256.843 259.064C257.915 259.016 259.051 259.232 260.251 259.712C260.155 258.016 259.347 257.168 257.827 257.168C256.915 257.168 256.083 257.4 255.331 257.864L254.371 256.208C255.379 255.44 256.563 255.056 257.923 255.056C261.059 255.056 262.627 257.024 262.627 260.96ZM260.323 261.608C259.779 261.288 259.107 261.104 258.307 261.056C257.507 261.008 256.803 261.128 256.195 261.416C255.603 261.688 255.315 262.096 255.331 262.64C255.331 263.056 255.499 263.4 255.835 263.672C256.187 263.944 256.643 264.08 257.203 264.08C257.939 264.08 258.619 263.84 259.243 263.36C259.867 262.88 260.227 262.296 260.323 261.608ZM271.217 255.056C272.593 255.056 273.649 255.512 274.385 256.424C275.121 257.336 275.489 258.64 275.489 260.336V266H273.185V260.336C273.185 259.264 272.993 258.472 272.609 257.96C272.241 257.432 271.633 257.168 270.785 257.168C270.049 257.168 269.433 257.48 268.937 258.104C268.441 258.712 268.193 259.488 268.193 260.432V266H265.889V255.248H268.193V256.592C268.417 256.176 268.801 255.816 269.345 255.512C269.889 255.208 270.513 255.056 271.217 255.056ZM282.212 266H279.908V257.36H277.988V255.248H279.908V251.024L282.212 250.256V255.248H285.284V257.36H282.212V266ZM296.424 260.96V266H294.12V264.608C293.224 265.664 292.112 266.192 290.784 266.192C289.632 266.192 288.688 265.848 287.952 265.16C287.2 264.488 286.824 263.624 286.824 262.568C286.824 261.56 287.192 260.736 287.928 260.096C288.68 259.456 289.584 259.112 290.64 259.064C291.712 259.016 292.848 259.232 294.048 259.712C293.952 258.016 293.144 257.168 291.624 257.168C290.712 257.168 289.88 257.4 289.128 257.864L288.168 256.208C289.176 255.44 290.36 255.056 291.72 255.056C294.856 255.056 296.424 257.024 296.424 260.96ZM294.12 261.608C293.576 261.288 292.904 261.104 292.104 261.056C291.304 261.008 290.6 261.128 289.992 261.416C289.4 261.688 289.112 262.096 289.128 262.64C289.128 263.056 289.296 263.4 289.632 263.672C289.984 263.944 290.44 264.08 291 264.08C291.736 264.08 292.416 263.84 293.04 263.36C293.664 262.88 294.024 262.296 294.12 261.608ZM307.937 256.592V248.336H310.241V266H307.937V264.656C307.057 265.68 305.905 266.192 304.481 266.192C302.993 266.192 301.729 265.648 300.689 264.56C299.633 263.472 299.105 262.16 299.105 260.624C299.105 259.088 299.633 257.776 300.689 256.688C301.729 255.6 302.993 255.056 304.481 255.056C305.905 255.056 307.057 255.568 307.937 256.592ZM302.369 263.072C302.993 263.744 303.761 264.08 304.673 264.08C305.569 264.08 306.345 263.744 307.001 263.072C307.625 262.4 307.937 261.584 307.937 260.624C307.937 259.664 307.625 258.848 307.001 258.176C306.345 257.504 305.569 257.168 304.673 257.168C303.761 257.168 302.993 257.504 302.369 258.176C301.729 258.832 301.409 259.648 301.409 260.624C301.409 261.6 301.729 262.416 302.369 263.072ZM312.933 260.624C312.933 259.088 313.477 257.776 314.565 256.688C315.653 255.6 316.965 255.056 318.501 255.056C320.037 255.056 321.349 255.6 322.437 256.688C323.525 257.776 324.069 259.088 324.069 260.624C324.069 262.16 323.525 263.472 322.437 264.56C321.349 265.648 320.037 266.192 318.501 266.192C316.965 266.192 315.653 265.648 314.565 264.56C313.477 263.472 312.933 262.16 312.933 260.624ZM316.221 263.048C316.861 263.736 317.621 264.08 318.501 264.08C319.397 264.08 320.165 263.736 320.805 263.048C321.445 262.392 321.765 261.584 321.765 260.624C321.765 259.68 321.445 258.864 320.805 258.176C320.165 257.504 319.397 257.168 318.501 257.168C317.637 257.168 316.877 257.504 316.221 258.176C315.565 258.88 315.237 259.696 315.237 260.624C315.237 261.552 315.565 262.36 316.221 263.048ZM330.995 259.28C333.283 259.808 334.427 260.976 334.427 262.784C334.427 263.792 334.051 264.608 333.299 265.232C332.547 265.872 331.651 266.192 330.611 266.192C328.995 266.192 327.579 265.584 326.363 264.368L327.515 262.688C328.443 263.584 329.427 264.048 330.467 264.08C330.963 264.096 331.363 263.984 331.667 263.744C331.971 263.504 332.123 263.224 332.123 262.904C332.123 262.296 331.627 261.856 330.635 261.584C329.243 261.2 328.275 260.76 327.731 260.264C327.203 259.768 326.939 259.064 326.939 258.152C326.939 257.288 327.267 256.56 327.923 255.968C328.595 255.36 329.483 255.056 330.587 255.056C331.723 255.056 332.755 255.424 333.683 256.16L332.603 257.84C332.011 257.392 331.339 257.168 330.587 257.168C330.171 257.168 329.843 257.256 329.603 257.432C329.363 257.608 329.243 257.824 329.243 258.08C329.243 258.384 329.363 258.624 329.603 258.8C329.859 258.96 330.323 259.12 330.995 259.28ZM345.553 266V248.336H347.857V266H345.553ZM350.55 260.624C350.55 259.088 351.094 257.776 352.182 256.688C353.27 255.6 354.582 255.056 356.118 255.056C357.654 255.056 358.966 255.6 360.054 256.688C361.142 257.776 361.686 259.088 361.686 260.624C361.686 262.16 361.142 263.472 360.054 264.56C358.966 265.648 357.654 266.192 356.118 266.192C354.582 266.192 353.27 265.648 352.182 264.56C351.094 263.472 350.55 262.16 350.55 260.624ZM353.838 263.048C354.478 263.736 355.238 264.08 356.118 264.08C357.014 264.08 357.782 263.736 358.422 263.048C359.062 262.392 359.382 261.584 359.382 260.624C359.382 259.68 359.062 258.864 358.422 258.176C357.782 257.504 357.014 257.168 356.118 257.168C355.254 257.168 354.494 257.504 353.838 258.176C353.182 258.88 352.854 259.696 352.854 260.624C352.854 261.552 353.182 262.36 353.838 263.048ZM375.115 255.248V256.952C375.835 255.688 377.115 255.056 378.955 255.056V257.504C378.251 257.36 377.611 257.392 377.035 257.6C375.755 258.064 375.115 259.256 375.115 261.176V266H372.811V255.248H375.115ZM386.048 264.08C386.992 264.08 387.88 263.664 388.712 262.832L390.032 264.512C388.96 265.632 387.632 266.192 386.048 266.192C384.512 266.192 383.2 265.648 382.112 264.56C381.024 263.472 380.48 262.16 380.48 260.624C380.48 259.088 381.024 257.776 382.112 256.688C383.2 255.6 384.512 255.056 386.048 255.056C387.248 255.056 388.272 255.4 389.12 256.088C389.968 256.76 390.544 257.68 390.848 258.848L383.72 262.976C383.944 263.296 384.272 263.56 384.704 263.768C385.152 263.976 385.6 264.08 386.048 264.08ZM386.048 257.168C385.184 257.168 384.424 257.52 383.768 258.224C383.112 258.928 382.784 259.728 382.784 260.624C382.784 260.656 382.8 260.864 382.832 261.248L388.16 258.176C387.648 257.504 386.944 257.168 386.048 257.168ZM398.329 264.08C399.337 264.08 400.137 263.76 400.729 263.12L401.977 264.848C400.937 265.744 399.721 266.192 398.329 266.192C396.793 266.192 395.481 265.648 394.393 264.56C393.305 263.472 392.761 262.16 392.761 260.624C392.761 259.088 393.305 257.776 394.393 256.688C395.481 255.6 396.793 255.056 398.329 255.056C399.721 255.056 400.937 255.504 401.977 256.4L400.729 258.128C400.137 257.488 399.337 257.168 398.329 257.168C397.465 257.168 396.705 257.504 396.049 258.176C395.393 258.88 395.065 259.696 395.065 260.624C395.065 261.552 395.393 262.36 396.049 263.048C396.689 263.736 397.449 264.08 398.329 264.08ZM407.753 251.6C407.753 252.08 407.585 252.488 407.249 252.824C406.913 253.16 406.505 253.328 406.025 253.328C405.545 253.328 405.137 253.16 404.801 252.824C404.465 252.488 404.297 252.08 404.297 251.6C404.297 251.12 404.465 250.712 404.801 250.376C405.137 250.04 405.545 249.872 406.025 249.872C406.505 249.872 406.913 250.04 407.249 250.376C407.585 250.712 407.753 251.12 407.753 251.6ZM407.177 266H404.873V255.248H407.177V266ZM410.826 248.336H413.13V256.592C414.01 255.568 415.162 255.056 416.586 255.056C418.074 255.056 419.346 255.6 420.402 256.688C421.442 257.776 421.962 259.088 421.962 260.624C421.962 262.16 421.442 263.472 420.402 264.56C419.346 265.648 418.074 266.192 416.586 266.192C415.162 266.192 414.01 265.68 413.13 264.656V266H410.826V248.336ZM414.09 263.072C414.714 263.744 415.482 264.08 416.394 264.08C417.29 264.08 418.066 263.744 418.722 263.072C419.346 262.4 419.658 261.584 419.658 260.624C419.658 259.664 419.346 258.848 418.722 258.176C418.066 257.504 417.29 257.168 416.394 257.168C415.482 257.168 414.714 257.504 414.09 258.176C413.45 258.832 413.13 259.648 413.13 260.624C413.13 261.6 413.45 262.416 414.09 263.072ZM427.722 251.6C427.722 252.08 427.554 252.488 427.218 252.824C426.882 253.16 426.474 253.328 425.994 253.328C425.514 253.328 425.106 253.16 424.77 252.824C424.434 252.488 424.266 252.08 424.266 251.6C424.266 251.12 424.434 250.712 424.77 250.376C425.106 250.04 425.514 249.872 425.994 249.872C426.474 249.872 426.882 250.04 427.218 250.376C427.554 250.712 427.722 251.12 427.722 251.6ZM427.146 266H424.842V255.248H427.146V266ZM433.099 255.248V256.952C433.819 255.688 435.099 255.056 436.939 255.056V257.504C436.235 257.36 435.595 257.392 435.019 257.6C433.739 258.064 433.099 259.256 433.099 261.176V266H430.795V255.248H433.099ZM444.033 264.08C444.977 264.08 445.865 263.664 446.697 262.832L448.017 264.512C446.945 265.632 445.617 266.192 444.033 266.192C442.497 266.192 441.185 265.648 440.097 264.56C439.009 263.472 438.465 262.16 438.465 260.624C438.465 259.088 439.009 257.776 440.097 256.688C441.185 255.6 442.497 255.056 444.033 255.056C445.233 255.056 446.257 255.4 447.105 256.088C447.953 256.76 448.529 257.68 448.833 258.848L441.705 262.976C441.929 263.296 442.257 263.56 442.689 263.768C443.137 263.976 443.585 264.08 444.033 264.08ZM444.033 257.168C443.169 257.168 442.409 257.52 441.753 258.224C441.097 258.928 440.769 259.728 440.769 260.624C440.769 260.656 440.785 260.864 440.817 261.248L446.145 258.176C445.633 257.504 444.929 257.168 444.033 257.168ZM463.187 255.056C464.483 255.056 465.483 255.52 466.187 256.448C466.907 257.36 467.267 258.656 467.267 260.336V266H464.963V260.336C464.963 258.224 464.227 257.168 462.755 257.168C462.051 257.168 461.475 257.472 461.027 258.08C460.579 258.672 460.355 259.456 460.355 260.432V266H458.051V260.336C458.051 258.224 457.315 257.168 455.843 257.168C455.139 257.168 454.563 257.472 454.115 258.08C453.667 258.672 453.443 259.456 453.443 260.432V266H451.139V255.248H453.443V256.592C453.699 256.24 453.923 255.976 454.115 255.8C454.307 255.624 454.587 255.456 454.955 255.296C455.323 255.136 455.763 255.056 456.275 255.056C457.795 255.056 458.899 255.664 459.587 256.88C460.115 256.208 460.643 255.736 461.171 255.464C461.715 255.192 462.387 255.056 463.187 255.056ZM469.965 260.624C469.965 259.088 470.509 257.776 471.597 256.688C472.685 255.6 473.997 255.056 475.533 255.056C477.069 255.056 478.381 255.6 479.469 256.688C480.557 257.776 481.101 259.088 481.101 260.624C481.101 262.16 480.557 263.472 479.469 264.56C478.381 265.648 477.069 266.192 475.533 266.192C473.997 266.192 472.685 265.648 471.597 264.56C470.509 263.472 469.965 262.16 469.965 260.624ZM473.253 263.048C473.893 263.736 474.653 264.08 475.533 264.08C476.429 264.08 477.197 263.736 477.837 263.048C478.477 262.392 478.797 261.584 478.797 260.624C478.797 259.68 478.477 258.864 477.837 258.176C477.197 257.504 476.429 257.168 475.533 257.168C474.669 257.168 473.909 257.504 473.253 258.176C472.597 258.88 472.269 259.696 472.269 260.624C472.269 261.552 472.597 262.36 473.253 263.048ZM488.026 259.28C490.314 259.808 491.458 260.976 491.458 262.784C491.458 263.792 491.082 264.608 490.33 265.232C489.578 265.872 488.682 266.192 487.642 266.192C486.026 266.192 484.61 265.584 483.394 264.368L484.546 262.688C485.474 263.584 486.458 264.048 487.498 264.08C487.994 264.096 488.394 263.984 488.698 263.744C489.002 263.504 489.154 263.224 489.154 262.904C489.154 262.296 488.658 261.856 487.666 261.584C486.274 261.2 485.306 260.76 484.762 260.264C484.234 259.768 483.97 259.064 483.97 258.152C483.97 257.288 484.298 256.56 484.954 255.968C485.626 255.36 486.514 255.056 487.618 255.056C488.754 255.056 489.786 255.424 490.714 256.16L489.634 257.84C489.042 257.392 488.37 257.168 487.618 257.168C487.202 257.168 486.874 257.256 486.634 257.432C486.394 257.608 486.274 257.824 486.274 258.08C486.274 258.384 486.394 258.624 486.634 258.8C486.89 258.96 487.354 259.12 488.026 259.28Z" fill="white"/>
</svg>
