<svg width="341" height="231" viewBox="0 0 341 231" fill="none" xmlns="http://www.w3.org/2000/svg">
<g clip-path="url(#clip0_37_113)">
<rect width="341" height="231" rx="17" fill="#E91D24"/>
<path d="M28.3501 36.344C29.9501 37.016 31.1901 37.768 32.0701 38.6C32.9021 39.416 33.3181 40.528 33.3181 41.936C33.3181 43.296 32.8381 44.512 31.8781 45.584C30.9021 46.656 29.6221 47.192 28.0381 47.192C26.4861 47.192 25.2301 46.752 24.2701 45.872C23.5181 45.232 22.9501 44.584 22.5661 43.928L23.9101 42.176C25.1101 44.112 26.5021 45.08 28.0861 45.08C28.9341 45.08 29.6381 44.776 30.1981 44.168C30.7421 43.576 31.0141 42.864 31.0141 42.032C31.0141 41.28 30.7741 40.664 30.2941 40.184C29.8301 39.688 29.1021 39.208 28.1101 38.744C26.4141 37.992 25.2621 37.256 24.6541 36.536C24.0301 35.8 23.7181 34.872 23.7181 33.752C23.7181 32.728 24.1581 31.832 25.0381 31.064C25.9021 30.296 26.9581 29.912 28.2061 29.912C29.1021 29.912 29.8381 30.048 30.4141 30.32C30.9901 30.576 31.5741 31.016 32.1661 31.64L30.8221 33.344C30.0381 32.464 29.1501 32.024 28.1581 32.024C27.5981 32.024 27.1021 32.2 26.6701 32.552C26.2381 32.904 26.0221 33.32 26.0221 33.8C26.0221 34.856 26.7981 35.704 28.3501 36.344ZM39.2688 32.6C39.2688 33.08 39.1008 33.488 38.7648 33.824C38.4288 34.16 38.0208 34.328 37.5408 34.328C37.0608 34.328 36.6528 34.16 36.3168 33.824C35.9808 33.488 35.8128 33.08 35.8128 32.6C35.8128 32.12 35.9808 31.712 36.3168 31.376C36.6528 31.04 37.0608 30.872 37.5408 30.872C38.0208 30.872 38.4288 31.04 38.7648 31.376C39.1008 31.712 39.2688 32.12 39.2688 32.6ZM38.6928 47H36.3888V36.248H38.6928V47ZM60.9599 52.76H58.6559V45.656C57.7759 46.68 56.6239 47.192 55.1999 47.192C53.7119 47.192 52.4479 46.648 51.4079 45.56C50.3519 44.472 49.8239 43.16 49.8239 41.624C49.8239 40.088 50.3519 38.776 51.4079 37.688C52.4479 36.6 53.7119 36.056 55.1999 36.056C56.6239 36.056 57.7759 36.568 58.6559 37.592V36.248H60.9599V52.76ZM57.7199 39.176C57.0639 38.504 56.2879 38.168 55.3919 38.168C54.4799 38.168 53.7119 38.504 53.0879 39.176C52.4479 39.832 52.1279 40.648 52.1279 41.624C52.1279 42.6 52.4479 43.416 53.0879 44.072C53.7119 44.744 54.4799 45.08 55.3919 45.08C56.2879 45.08 57.0639 44.744 57.7199 44.072C58.3439 43.4 58.6559 42.584 58.6559 41.624C58.6559 40.664 58.3439 39.848 57.7199 39.176ZM68.4955 47.192C67.1195 47.192 66.0635 46.736 65.3275 45.824C64.5915 44.912 64.2235 43.608 64.2235 41.912V36.248H66.5275V42.104C66.5275 44.088 67.3275 45.08 68.9275 45.08C69.6635 45.08 70.2795 44.76 70.7755 44.12C71.2715 43.48 71.5195 42.648 71.5195 41.624V36.248H73.8235V47H71.5195V45.656C71.2955 46.072 70.9115 46.432 70.3675 46.736C69.8235 47.04 69.1995 47.192 68.4955 47.192ZM80.3547 32.6C80.3547 33.08 80.1867 33.488 79.8507 33.824C79.5147 34.16 79.1067 34.328 78.6267 34.328C78.1467 34.328 77.7387 34.16 77.4027 33.824C77.0667 33.488 76.8987 33.08 76.8987 32.6C76.8987 32.12 77.0667 31.712 77.4027 31.376C77.7387 31.04 78.1467 30.872 78.6267 30.872C79.1067 30.872 79.5147 31.04 79.8507 31.376C80.1867 31.712 80.3547 32.12 80.3547 32.6ZM79.7787 47H77.4747V36.248H79.7787V47ZM88.0403 45.08C88.9843 45.08 89.8723 44.664 90.7043 43.832L92.0243 45.512C90.9523 46.632 89.6243 47.192 88.0403 47.192C86.5043 47.192 85.1923 46.648 84.1043 45.56C83.0163 44.472 82.4723 43.16 82.4723 41.624C82.4723 40.088 83.0163 38.776 84.1043 37.688C85.1923 36.6 86.5043 36.056 88.0403 36.056C89.2403 36.056 90.2643 36.4 91.1123 37.088C91.9603 37.76 92.5363 38.68 92.8403 39.848L85.7123 43.976C85.9363 44.296 86.2643 44.56 86.6963 44.768C87.1443 44.976 87.5923 45.08 88.0403 45.08ZM88.0403 38.168C87.1763 38.168 86.4163 38.52 85.7603 39.224C85.1043 39.928 84.7763 40.728 84.7763 41.624C84.7763 41.656 84.7923 41.864 84.8243 42.248L90.1523 39.176C89.6403 38.504 88.9363 38.168 88.0403 38.168ZM97.4506 36.248V37.952C98.1706 36.688 99.4506 36.056 101.291 36.056V38.504C100.587 38.36 99.9466 38.392 99.3706 38.6C98.0906 39.064 97.4506 40.256 97.4506 42.176V47H95.1466V36.248H97.4506ZM108.384 45.08C109.328 45.08 110.216 44.664 111.048 43.832L112.368 45.512C111.296 46.632 109.968 47.192 108.384 47.192C106.848 47.192 105.536 46.648 104.448 45.56C103.36 44.472 102.816 43.16 102.816 41.624C102.816 40.088 103.36 38.776 104.448 37.688C105.536 36.6 106.848 36.056 108.384 36.056C109.584 36.056 110.608 36.4 111.456 37.088C112.304 37.76 112.88 38.68 113.184 39.848L106.056 43.976C106.28 44.296 106.608 44.56 107.04 44.768C107.488 44.976 107.936 45.08 108.384 45.08ZM108.384 38.168C107.52 38.168 106.76 38.52 106.104 39.224C105.448 39.928 105.12 40.728 105.12 41.624C105.12 41.656 105.136 41.864 105.168 42.248L110.496 39.176C109.984 38.504 109.28 38.168 108.384 38.168ZM119.729 40.28C122.017 40.808 123.161 41.976 123.161 43.784C123.161 44.792 122.785 45.608 122.033 46.232C121.281 46.872 120.385 47.192 119.345 47.192C117.729 47.192 116.313 46.584 115.097 45.368L116.249 43.688C117.177 44.584 118.161 45.048 119.201 45.08C119.697 45.096 120.097 44.984 120.401 44.744C120.705 44.504 120.857 44.224 120.857 43.904C120.857 43.296 120.361 42.856 119.369 42.584C117.977 42.2 117.009 41.76 116.465 41.264C115.937 40.768 115.673 40.064 115.673 39.152C115.673 38.288 116.001 37.56 116.657 36.968C117.329 36.36 118.217 36.056 119.321 36.056C120.457 36.056 121.489 36.424 122.417 37.16L121.337 38.84C120.745 38.392 120.073 38.168 119.321 38.168C118.905 38.168 118.577 38.256 118.337 38.432C118.097 38.608 117.977 38.824 117.977 39.08C117.977 39.384 118.097 39.624 118.337 39.8C118.593 39.96 119.057 40.12 119.729 40.28ZM142.351 37.592V29.336H144.655V47H142.351V45.656C141.471 46.68 140.319 47.192 138.895 47.192C137.407 47.192 136.143 46.648 135.103 45.56C134.047 44.472 133.519 43.16 133.519 41.624C133.519 40.088 134.047 38.776 135.103 37.688C136.143 36.6 137.407 36.056 138.895 36.056C140.319 36.056 141.471 36.568 142.351 37.592ZM136.783 44.072C137.407 44.744 138.175 45.08 139.087 45.08C139.983 45.08 140.759 44.744 141.415 44.072C142.039 43.4 142.351 42.584 142.351 41.624C142.351 40.664 142.039 39.848 141.415 39.176C140.759 38.504 139.983 38.168 139.087 38.168C138.175 38.168 137.407 38.504 136.783 39.176C136.143 39.832 135.823 40.648 135.823 41.624C135.823 42.6 136.143 43.416 136.783 44.072ZM152.915 45.08C153.859 45.08 154.747 44.664 155.579 43.832L156.899 45.512C155.827 46.632 154.499 47.192 152.915 47.192C151.379 47.192 150.067 46.648 148.979 45.56C147.891 44.472 147.347 43.16 147.347 41.624C147.347 40.088 147.891 38.776 148.979 37.688C150.067 36.6 151.379 36.056 152.915 36.056C154.115 36.056 155.139 36.4 155.987 37.088C156.835 37.76 157.411 38.68 157.715 39.848L150.587 43.976C150.811 44.296 151.139 44.56 151.571 44.768C152.019 44.976 152.467 45.08 152.915 45.08ZM152.915 38.168C152.051 38.168 151.291 38.52 150.635 39.224C149.979 39.928 149.651 40.728 149.651 41.624C149.651 41.656 149.667 41.864 149.699 42.248L155.027 39.176C154.515 38.504 153.811 38.168 152.915 38.168ZM162.902 32.6C162.902 33.08 162.734 33.488 162.398 33.824C162.062 34.16 161.654 34.328 161.174 34.328C160.694 34.328 160.286 34.16 159.95 33.824C159.614 33.488 159.446 33.08 159.446 32.6C159.446 32.12 159.614 31.712 159.95 31.376C160.286 31.04 160.694 30.872 161.174 30.872C161.654 30.872 162.062 31.04 162.398 31.376C162.734 31.712 162.902 32.12 162.902 32.6ZM162.326 52.376L160.022 53.144V36.248H162.326V52.376ZM174.807 41.96V47H172.503V45.608C171.607 46.664 170.495 47.192 169.167 47.192C168.015 47.192 167.071 46.848 166.335 46.16C165.583 45.488 165.207 44.624 165.207 43.568C165.207 42.56 165.575 41.736 166.311 41.096C167.063 40.456 167.967 40.112 169.023 40.064C170.095 40.016 171.231 40.232 172.431 40.712C172.335 39.016 171.527 38.168 170.007 38.168C169.095 38.168 168.263 38.4 167.511 38.864L166.551 37.208C167.559 36.44 168.743 36.056 170.103 36.056C173.239 36.056 174.807 38.024 174.807 41.96ZM172.503 42.608C171.959 42.288 171.287 42.104 170.487 42.056C169.687 42.008 168.983 42.128 168.375 42.416C167.783 42.688 167.495 43.096 167.511 43.64C167.511 44.056 167.679 44.4 168.015 44.672C168.367 44.944 168.823 45.08 169.383 45.08C170.119 45.08 170.799 44.84 171.423 44.36C172.047 43.88 172.407 43.296 172.503 42.608ZM180.372 36.248V37.952C181.092 36.688 182.372 36.056 184.212 36.056V38.504C183.508 38.36 182.868 38.392 182.292 38.6C181.012 39.064 180.372 40.256 180.372 42.176V47H178.068V36.248H180.372ZM198.798 47H196.494V38.36H194.574V36.248H196.494V32.024L198.798 31.256V36.248H201.87V38.36H198.798V47ZM208.839 47.192C207.463 47.192 206.407 46.736 205.671 45.824C204.935 44.912 204.567 43.608 204.567 41.912V36.248H206.871V42.104C206.871 44.088 207.671 45.08 209.271 45.08C210.007 45.08 210.623 44.76 211.119 44.12C211.615 43.48 211.863 42.648 211.863 41.624V36.248H214.167V47H211.863V45.656C211.639 46.072 211.255 46.432 210.711 46.736C210.167 47.04 209.543 47.192 208.839 47.192ZM234.132 37.592V29.336H236.436V47H234.132V45.656C233.252 46.68 232.1 47.192 230.676 47.192C229.188 47.192 227.924 46.648 226.884 45.56C225.828 44.472 225.3 43.16 225.3 41.624C225.3 40.088 225.828 38.776 226.884 37.688C227.924 36.6 229.188 36.056 230.676 36.056C232.1 36.056 233.252 36.568 234.132 37.592ZM228.564 44.072C229.188 44.744 229.956 45.08 230.868 45.08C231.764 45.08 232.54 44.744 233.196 44.072C233.82 43.4 234.132 42.584 234.132 41.624C234.132 40.664 233.82 39.848 233.196 39.176C232.54 38.504 231.764 38.168 230.868 38.168C229.956 38.168 229.188 38.504 228.564 39.176C227.924 39.832 227.604 40.648 227.604 41.624C227.604 42.6 227.924 43.416 228.564 44.072ZM239.129 41.624C239.129 40.088 239.673 38.776 240.761 37.688C241.849 36.6 243.161 36.056 244.697 36.056C246.233 36.056 247.545 36.6 248.633 37.688C249.721 38.776 250.265 40.088 250.265 41.624C250.265 43.16 249.721 44.472 248.633 45.56C247.545 46.648 246.233 47.192 244.697 47.192C243.161 47.192 241.849 46.648 240.761 45.56C239.673 44.472 239.129 43.16 239.129 41.624ZM242.417 44.048C243.057 44.736 243.817 45.08 244.697 45.08C245.593 45.08 246.361 44.736 247.001 44.048C247.641 43.392 247.961 42.584 247.961 41.624C247.961 40.68 247.641 39.864 247.001 39.176C246.361 38.504 245.593 38.168 244.697 38.168C243.833 38.168 243.073 38.504 242.417 39.176C241.761 39.88 241.433 40.696 241.433 41.624C241.433 42.552 241.761 43.36 242.417 44.048ZM258.279 36.056C259.655 36.056 260.711 36.512 261.447 37.424C262.183 38.336 262.551 39.64 262.551 41.336V47H260.247V41.336C260.247 40.264 260.055 39.472 259.671 38.96C259.303 38.432 258.695 38.168 257.847 38.168C257.111 38.168 256.495 38.48 255.999 39.104C255.503 39.712 255.255 40.488 255.255 41.432V47H252.951V36.248H255.255V37.592C255.479 37.176 255.863 36.816 256.407 36.512C256.951 36.208 257.575 36.056 258.279 36.056ZM274.838 41.96V47H272.534V45.608C271.638 46.664 270.526 47.192 269.198 47.192C268.046 47.192 267.102 46.848 266.366 46.16C265.614 45.488 265.238 44.624 265.238 43.568C265.238 42.56 265.606 41.736 266.342 41.096C267.094 40.456 267.998 40.112 269.054 40.064C270.126 40.016 271.262 40.232 272.462 40.712C272.366 39.016 271.558 38.168 270.038 38.168C269.126 38.168 268.294 38.4 267.542 38.864L266.582 37.208C267.59 36.44 268.774 36.056 270.134 36.056C273.27 36.056 274.838 38.024 274.838 41.96ZM272.534 42.608C271.99 42.288 271.318 42.104 270.518 42.056C269.718 42.008 269.014 42.128 268.406 42.416C267.814 42.688 267.526 43.096 267.542 43.64C267.542 44.056 267.71 44.4 268.046 44.672C268.398 44.944 268.854 45.08 269.414 45.08C270.15 45.08 270.83 44.84 271.454 44.36C272.078 43.88 272.438 43.296 272.534 42.608ZM283.087 45.08C284.095 45.08 284.895 44.76 285.487 44.12L286.735 45.848C285.695 46.744 284.479 47.192 283.087 47.192C281.551 47.192 280.239 46.648 279.151 45.56C278.063 44.472 277.519 43.16 277.519 41.624C277.519 40.088 278.063 38.776 279.151 37.688C280.239 36.6 281.551 36.056 283.087 36.056C284.479 36.056 285.695 36.504 286.735 37.4L285.487 39.128C284.895 38.488 284.095 38.168 283.087 38.168C282.223 38.168 281.463 38.504 280.807 39.176C280.151 39.88 279.823 40.696 279.823 41.624C279.823 42.552 280.151 43.36 280.807 44.048C281.447 44.736 282.207 45.08 283.087 45.08ZM292.511 32.6C292.511 33.08 292.343 33.488 292.007 33.824C291.671 34.16 291.263 34.328 290.783 34.328C290.303 34.328 289.895 34.16 289.559 33.824C289.223 33.488 289.055 33.08 289.055 32.6C289.055 32.12 289.223 31.712 289.559 31.376C289.895 31.04 290.303 30.872 290.783 30.872C291.263 30.872 291.671 31.04 292.007 31.376C292.343 31.712 292.511 32.12 292.511 32.6ZM291.935 47H289.631V36.248H291.935V47ZM300.581 34.712H299.045L300.581 30.872H302.885L300.581 34.712ZM294.629 41.624C294.629 40.088 295.173 38.776 296.261 37.688C297.349 36.6 298.661 36.056 300.197 36.056C301.733 36.056 303.045 36.6 304.133 37.688C305.221 38.776 305.765 40.088 305.765 41.624C305.765 43.16 305.221 44.472 304.133 45.56C303.045 46.648 301.733 47.192 300.197 47.192C298.661 47.192 297.349 46.648 296.261 45.56C295.173 44.472 294.629 43.16 294.629 41.624ZM297.917 44.048C298.557 44.736 299.317 45.08 300.197 45.08C301.093 45.08 301.861 44.736 302.501 44.048C303.141 43.392 303.461 42.584 303.461 41.624C303.461 40.68 303.141 39.864 302.501 39.176C301.861 38.504 301.093 38.168 300.197 38.168C299.333 38.168 298.573 38.504 297.917 39.176C297.261 39.88 296.933 40.696 296.933 41.624C296.933 42.552 297.261 43.36 297.917 44.048ZM313.779 36.056C315.155 36.056 316.211 36.512 316.947 37.424C317.683 38.336 318.051 39.64 318.051 41.336V47H315.747V41.336C315.747 40.264 315.555 39.472 315.171 38.96C314.803 38.432 314.195 38.168 313.347 38.168C312.611 38.168 311.995 38.48 311.499 39.104C311.003 39.712 310.755 40.488 310.755 41.432V47H308.451V36.248H310.755V37.592C310.979 37.176 311.363 36.816 311.907 36.512C312.451 36.208 313.075 36.056 313.779 36.056ZM68.2591 76.08C69.2031 76.08 70.0911 75.664 70.9231 74.832L72.2431 76.512C71.1711 77.632 69.8431 78.192 68.2591 78.192C66.7231 78.192 65.4111 77.648 64.3231 76.56C63.2351 75.472 62.6911 74.16 62.6911 72.624C62.6911 71.088 63.2351 69.776 64.3231 68.688C65.4111 67.6 66.7231 67.056 68.2591 67.056C69.4591 67.056 70.4831 67.4 71.3311 68.088C72.1791 68.76 72.7551 69.68 73.0591 70.848L65.9311 74.976C66.1551 75.296 66.4831 75.56 66.9151 75.768C67.3631 75.976 67.8111 76.08 68.2591 76.08ZM68.2591 69.168C67.3951 69.168 66.6351 69.52 65.9791 70.224C65.3231 70.928 64.9951 71.728 64.9951 72.624C64.9951 72.656 65.0111 72.864 65.0431 73.248L70.3711 70.176C69.8591 69.504 69.1551 69.168 68.2591 69.168ZM80.6933 67.056C82.0693 67.056 83.1253 67.512 83.8613 68.424C84.5973 69.336 84.9653 70.64 84.9653 72.336V78H82.6613V72.336C82.6613 71.264 82.4693 70.472 82.0853 69.96C81.7173 69.432 81.1093 69.168 80.2613 69.168C79.5253 69.168 78.9093 69.48 78.4133 70.104C77.9173 70.712 77.6693 71.488 77.6693 72.432V78H75.3653V67.248H77.6693V68.592C77.8933 68.176 78.2773 67.816 78.8213 67.512C79.3653 67.208 79.9893 67.056 80.6933 67.056ZM105.315 72.96V78H103.011V76.608C102.115 77.664 101.003 78.192 99.6745 78.192C98.5225 78.192 97.5785 77.848 96.8425 77.16C96.0905 76.488 95.7145 75.624 95.7145 74.568C95.7145 73.56 96.0825 72.736 96.8185 72.096C97.5705 71.456 98.4745 71.112 99.5305 71.064C100.603 71.016 101.739 71.232 102.939 71.712C102.843 70.016 102.035 69.168 100.515 69.168C99.6025 69.168 98.7705 69.4 98.0185 69.864L97.0585 68.208C98.0665 67.44 99.2505 67.056 100.611 67.056C103.747 67.056 105.315 69.024 105.315 72.96ZM103.011 73.608C102.467 73.288 101.795 73.104 100.995 73.056C100.195 73.008 99.4905 73.128 98.8825 73.416C98.2905 73.688 98.0025 74.096 98.0185 74.64C98.0185 75.056 98.1865 75.4 98.5225 75.672C98.8745 75.944 99.3305 76.08 99.8905 76.08C100.627 76.08 101.307 75.84 101.931 75.36C102.555 74.88 102.915 74.296 103.011 73.608ZM108.576 78V60.336H110.88V78H108.576ZM117.409 63.6C117.409 64.08 117.241 64.488 116.905 64.824C116.569 65.16 116.161 65.328 115.681 65.328C115.201 65.328 114.793 65.16 114.457 64.824C114.121 64.488 113.953 64.08 113.953 63.6C113.953 63.12 114.121 62.712 114.457 62.376C114.793 62.04 115.201 61.872 115.681 61.872C116.161 61.872 116.569 62.04 116.905 62.376C117.241 62.712 117.409 63.12 117.409 63.6ZM116.833 78H114.529V67.248H116.833V78ZM132.531 67.056C133.827 67.056 134.827 67.52 135.531 68.448C136.251 69.36 136.611 70.656 136.611 72.336V78H134.307V72.336C134.307 70.224 133.571 69.168 132.099 69.168C131.395 69.168 130.819 69.472 130.371 70.08C129.923 70.672 129.699 71.456 129.699 72.432V78H127.395V72.336C127.395 70.224 126.659 69.168 125.187 69.168C124.483 69.168 123.907 69.472 123.459 70.08C123.011 70.672 122.787 71.456 122.787 72.432V78H120.483V67.248H122.787V68.592C123.043 68.24 123.267 67.976 123.459 67.8C123.651 67.624 123.931 67.456 124.299 67.296C124.667 67.136 125.107 67.056 125.618 67.056C127.139 67.056 128.243 67.664 128.931 68.88C129.459 68.208 129.987 67.736 130.515 67.464C131.059 67.192 131.731 67.056 132.531 67.056ZM144.876 76.08C145.82 76.08 146.708 75.664 147.54 74.832L148.86 76.512C147.788 77.632 146.46 78.192 144.876 78.192C143.34 78.192 142.028 77.648 140.94 76.56C139.852 75.472 139.308 74.16 139.308 72.624C139.308 71.088 139.852 69.776 140.94 68.688C142.028 67.6 143.34 67.056 144.876 67.056C146.076 67.056 147.1 67.4 147.948 68.088C148.796 68.76 149.372 69.68 149.676 70.848L142.548 74.976C142.772 75.296 143.1 75.56 143.532 75.768C143.98 75.976 144.428 76.08 144.876 76.08ZM144.876 69.168C144.012 69.168 143.252 69.52 142.596 70.224C141.94 70.928 141.612 71.728 141.612 72.624C141.612 72.656 141.628 72.864 141.66 73.248L146.988 70.176C146.476 69.504 145.772 69.168 144.876 69.168ZM157.311 67.056C158.687 67.056 159.743 67.512 160.479 68.424C161.215 69.336 161.583 70.64 161.583 72.336V78H159.279V72.336C159.279 71.264 159.087 70.472 158.703 69.96C158.335 69.432 157.727 69.168 156.879 69.168C156.143 69.168 155.527 69.48 155.031 70.104C154.535 70.712 154.287 71.488 154.287 72.432V78H151.983V67.248H154.287V68.592C154.511 68.176 154.895 67.816 155.439 67.512C155.983 67.208 156.607 67.056 157.311 67.056ZM168.306 78H166.002V69.36H164.082V67.248H166.002V63.024L168.306 62.256V67.248H171.378V69.36H168.306V78ZM172.918 72.624C172.918 71.088 173.462 69.776 174.55 68.688C175.638 67.6 176.95 67.056 178.486 67.056C180.022 67.056 181.334 67.6 182.422 68.688C183.51 69.776 184.054 71.088 184.054 72.624C184.054 74.16 183.51 75.472 182.422 76.56C181.334 77.648 180.022 78.192 178.486 78.192C176.95 78.192 175.638 77.648 174.55 76.56C173.462 75.472 172.918 74.16 172.918 72.624ZM176.206 75.048C176.846 75.736 177.606 76.08 178.486 76.08C179.382 76.08 180.15 75.736 180.79 75.048C181.43 74.392 181.75 73.584 181.75 72.624C181.75 71.68 181.43 70.864 180.79 70.176C180.15 69.504 179.382 69.168 178.486 69.168C177.622 69.168 176.862 69.504 176.206 70.176C175.55 70.88 175.222 71.696 175.222 72.624C175.222 73.552 175.55 74.36 176.206 75.048ZM195.178 61.104H198.25C200.234 61.104 201.762 61.624 202.834 62.664C203.874 63.736 204.394 65.072 204.394 66.672C204.394 68.24 203.866 69.56 202.81 70.632C201.738 71.704 200.33 72.24 198.586 72.24H197.482V78H195.178V61.104ZM197.482 70.128H198.658C199.57 70.128 200.37 69.808 201.058 69.168C201.746 68.544 202.09 67.712 202.09 66.672C202.09 65.552 201.73 64.688 201.01 64.08C200.29 63.504 199.458 63.216 198.514 63.216H197.482V70.128ZM209.763 67.248V68.952C210.483 67.688 211.763 67.056 213.603 67.056V69.504C212.899 69.36 212.259 69.392 211.683 69.6C210.403 70.064 209.763 71.256 209.763 73.176V78H207.459V67.248H209.763ZM215.129 72.624C215.129 71.088 215.673 69.776 216.761 68.688C217.849 67.6 219.161 67.056 220.697 67.056C222.233 67.056 223.545 67.6 224.633 68.688C225.721 69.776 226.265 71.088 226.265 72.624C226.265 74.16 225.721 75.472 224.633 76.56C223.545 77.648 222.233 78.192 220.697 78.192C219.161 78.192 217.849 77.648 216.761 76.56C215.673 75.472 215.129 74.16 215.129 72.624ZM218.417 75.048C219.057 75.736 219.817 76.08 220.697 76.08C221.593 76.08 222.361 75.736 223.001 75.048C223.641 74.392 223.961 73.584 223.961 72.624C223.961 71.68 223.641 70.864 223.001 70.176C222.361 69.504 221.593 69.168 220.697 69.168C219.833 69.168 219.073 69.504 218.417 70.176C217.761 70.88 217.433 71.696 217.433 72.624C217.433 73.552 217.761 74.36 218.417 75.048ZM235.47 70.896V72.816H228.942V70.896H235.47ZM243.736 76.08C244.744 76.08 245.544 75.76 246.136 75.12L247.384 76.848C246.344 77.744 245.128 78.192 243.736 78.192C242.2 78.192 240.888 77.648 239.8 76.56C238.712 75.472 238.168 74.16 238.168 72.624C238.168 71.088 238.712 69.776 239.8 68.688C240.888 67.6 242.2 67.056 243.736 67.056C245.128 67.056 246.344 67.504 247.384 68.4L246.136 70.128C245.544 69.488 244.744 69.168 243.736 69.168C242.872 69.168 242.112 69.504 241.456 70.176C240.8 70.88 240.472 71.696 240.472 72.624C240.472 73.552 240.8 74.36 241.456 75.048C242.096 75.736 242.856 76.08 243.736 76.08ZM258.924 72.96V78H256.62V76.608C255.724 77.664 254.612 78.192 253.284 78.192C252.132 78.192 251.188 77.848 250.452 77.16C249.7 76.488 249.324 75.624 249.324 74.568C249.324 73.56 249.692 72.736 250.428 72.096C251.18 71.456 252.084 71.112 253.14 71.064C254.212 71.016 255.348 71.232 256.548 71.712C256.452 70.016 255.644 69.168 254.124 69.168C253.212 69.168 252.38 69.4 251.628 69.864L250.668 68.208C251.676 67.44 252.86 67.056 254.22 67.056C257.356 67.056 258.924 69.024 258.924 72.96ZM256.62 73.608C256.076 73.288 255.404 73.104 254.604 73.056C253.804 73.008 253.1 73.128 252.492 73.416C251.9 73.688 251.612 74.096 251.628 74.64C251.628 75.056 251.796 75.4 252.132 75.672C252.484 75.944 252.94 76.08 253.5 76.08C254.236 76.08 254.916 75.84 255.54 75.36C256.164 74.88 256.524 74.296 256.62 73.608ZM267.514 67.056C268.89 67.056 269.946 67.512 270.682 68.424C271.418 69.336 271.786 70.64 271.786 72.336V78H269.482V72.336C269.482 71.264 269.29 70.472 268.906 69.96C268.538 69.432 267.93 69.168 267.082 69.168C266.346 69.168 265.73 69.48 265.234 70.104C264.738 70.712 264.49 71.488 264.49 72.432V78H262.186V67.248H264.49V68.592C264.714 68.176 265.098 67.816 265.642 67.512C266.186 67.208 266.81 67.056 267.514 67.056ZM276.968 80.688H275.24V75.312H277.928L276.968 80.688Z" fill="white"/>
<path d="M23.8698 114.82C23.8698 114.327 24.0432 113.913 24.3898 113.58C24.7365 113.247 25.1565 113.08 25.6498 113.08C26.1432 113.08 26.5565 113.247 26.8898 113.58C27.2232 113.913 27.3898 114.327 27.3898 114.82C27.3898 115.313 27.2232 115.733 26.8898 116.08C26.5565 116.427 26.1432 116.6 25.6498 116.6C25.1565 116.6 24.7365 116.427 24.3898 116.08C24.0432 115.733 23.8698 115.313 23.8698 114.82ZM24.0298 127.48L24.3498 117.88H26.9098L27.2298 127.48H24.0298ZM29.3041 111.8V108.92H38.2641V111.8H35.3841V123H32.1841V111.8H29.3041ZM43.0539 123.32C41.9872 123.32 41.0806 122.927 40.3339 122.14C39.5872 121.353 39.2139 120.253 39.2139 118.84V113.4H42.4139V118.52C42.4139 119.8 42.9472 120.44 44.0139 120.44C44.4539 120.44 44.8272 120.247 45.1339 119.86C45.4539 119.46 45.6139 118.907 45.6139 118.2V113.4H48.8139V123H45.6139V122.04C45.0539 122.893 44.2006 123.32 43.0539 123.32ZM61.6041 123H58.4041V116.28H56.8041V113.4H58.4041V110.52L61.6041 109.56V113.4H64.1641V116.28H61.6041V123ZM74.0723 118V123H70.8723V122.2C70.2057 122.947 69.339 123.32 68.2723 123.32C67.1923 123.32 66.3457 122.993 65.7323 122.34C65.1057 121.687 64.7923 120.9 64.7923 119.98C64.7923 119.14 65.1057 118.447 65.7323 117.9C66.359 117.353 67.119 117.033 68.0123 116.94C68.9323 116.86 69.8723 116.947 70.8323 117.2C70.8057 116.747 70.639 116.387 70.3323 116.12C70.039 115.853 69.6323 115.72 69.1123 115.72C68.3257 115.72 67.579 115.927 66.8723 116.34L65.9123 114.04C66.899 113.4 68.1257 113.08 69.5923 113.08C70.8723 113.08 71.9457 113.48 72.8123 114.28C73.6523 115.08 74.0723 116.32 74.0723 118ZM70.8723 119.2C70.1523 118.947 69.4857 118.893 68.8723 119.04C68.2857 119.187 67.9923 119.52 67.9923 120.04C67.9923 120.347 68.099 120.6 68.3123 120.8C68.539 120.987 68.8123 121.08 69.1323 121.08C69.559 121.08 69.939 120.913 70.2723 120.58C70.6057 120.233 70.8057 119.773 70.8723 119.2ZM87.435 113.08C88.5017 113.08 89.395 113.467 90.115 114.24C90.835 115.013 91.195 116.12 91.195 117.56V123H87.995V117.88C87.995 117.187 87.8883 116.693 87.675 116.4C87.4617 116.107 87.1417 115.96 86.715 115.96C86.2883 115.96 85.9417 116.14 85.675 116.5C85.4083 116.86 85.275 117.427 85.275 118.2V123H82.075V117.88C82.075 117.187 81.9683 116.693 81.755 116.4C81.5417 116.107 81.2217 115.96 80.795 115.96C80.3683 115.96 80.0217 116.14 79.755 116.5C79.4883 116.86 79.355 117.427 79.355 118.2V123H76.155V113.4H79.355V114.36C79.7417 113.907 80.115 113.58 80.475 113.38C80.8483 113.18 81.3017 113.08 81.835 113.08C82.9283 113.08 83.7883 113.513 84.415 114.38C85.175 113.513 86.1817 113.08 87.435 113.08ZM93.2839 108.28H96.4839V114.36C97.2039 113.507 98.1572 113.08 99.3439 113.08C100.691 113.08 101.837 113.573 102.784 114.56C103.704 115.56 104.164 116.773 104.164 118.2C104.164 119.64 103.704 120.847 102.784 121.82C101.837 122.82 100.691 123.32 99.3439 123.32C98.1572 123.32 97.2039 122.893 96.4839 122.04V123H93.2839V108.28ZM96.4839 118.2C96.4839 118.813 96.7039 119.34 97.1439 119.78C97.5839 120.22 98.1106 120.44 98.7239 120.44C99.3372 120.44 99.8639 120.22 100.304 119.78C100.744 119.34 100.964 118.813 100.964 118.2C100.964 117.587 100.744 117.06 100.304 116.62C99.8639 116.18 99.3372 115.96 98.7239 115.96C98.1106 115.96 97.5839 116.18 97.1439 116.62C96.7039 117.06 96.4839 117.587 96.4839 118.2ZM109.441 110.2C109.441 110.733 109.254 111.187 108.881 111.56C108.507 111.933 108.054 112.12 107.521 112.12C106.987 112.12 106.534 111.933 106.161 111.56C105.787 111.187 105.601 110.733 105.601 110.2C105.601 109.667 105.787 109.213 106.161 108.84C106.534 108.467 106.987 108.28 107.521 108.28C108.054 108.28 108.507 108.467 108.881 108.84C109.254 109.213 109.441 109.667 109.441 110.2ZM109.121 123H105.921V113.4H109.121V123ZM116.17 112.12H114.25L115.53 108.92H118.09L116.17 112.12ZM115.97 120.52C116.917 120.52 117.717 120.213 118.37 119.6L120.01 121.74C118.917 122.793 117.61 123.32 116.09 123.32C114.463 123.32 113.163 122.833 112.19 121.86C111.217 120.887 110.73 119.667 110.73 118.2C110.73 116.733 111.217 115.513 112.19 114.54C113.163 113.567 114.463 113.08 116.09 113.08C116.49 113.08 116.89 113.133 117.29 113.24C117.703 113.347 118.137 113.533 118.59 113.8C119.043 114.053 119.457 114.453 119.83 115C120.203 115.533 120.477 116.173 120.65 116.92L114.97 120.32C115.183 120.453 115.517 120.52 115.97 120.52ZM116.09 115.88C115.37 115.88 114.783 116.12 114.33 116.6C113.89 117.067 113.717 117.66 113.81 118.38L117.13 116.4C116.903 116.053 116.557 115.88 116.09 115.88ZM127.696 113.08C128.79 113.08 129.703 113.467 130.436 114.24C131.17 115.013 131.536 116.12 131.536 117.56V123H128.336V117.88C128.336 116.6 127.803 115.96 126.736 115.96C126.296 115.96 125.916 116.16 125.596 116.56C125.29 116.947 125.136 117.493 125.136 118.2V123H121.936V113.4H125.136V114.36C125.696 113.507 126.55 113.08 127.696 113.08ZM139.846 113.4H143.046V114.36C143.766 113.507 144.72 113.08 145.906 113.08C147.253 113.08 148.4 113.573 149.346 114.56C150.266 115.56 150.726 116.773 150.726 118.2C150.726 119.64 150.266 120.847 149.346 121.82C148.4 122.82 147.253 123.32 145.906 123.32C144.72 123.32 143.766 122.893 143.046 122.04V128.12H139.846V113.4ZM143.046 118.2C143.046 118.813 143.266 119.34 143.706 119.78C144.146 120.22 144.673 120.44 145.286 120.44C145.9 120.44 146.426 120.22 146.866 119.78C147.306 119.34 147.526 118.813 147.526 118.2C147.526 117.587 147.306 117.06 146.866 116.62C146.426 116.18 145.9 115.96 145.286 115.96C144.673 115.96 144.146 116.18 143.706 116.62C143.266 117.06 143.046 117.587 143.046 118.2ZM156.003 123.32C154.936 123.32 154.03 122.927 153.283 122.14C152.536 121.353 152.163 120.253 152.163 118.84V113.4H155.363V118.52C155.363 119.8 155.896 120.44 156.963 120.44C157.403 120.44 157.776 120.247 158.083 119.86C158.403 119.46 158.563 118.907 158.563 118.2V113.4H161.763V123H158.563V122.04C158.003 122.893 157.15 123.32 156.003 123.32ZM168.607 120.52C169.553 120.52 170.353 120.213 171.007 119.6L172.647 121.74C171.553 122.793 170.247 123.32 168.727 123.32C167.1 123.32 165.8 122.833 164.827 121.86C163.853 120.887 163.367 119.667 163.367 118.2C163.367 116.733 163.853 115.513 164.827 114.54C165.8 113.567 167.1 113.08 168.727 113.08C169.127 113.08 169.527 113.133 169.927 113.24C170.34 113.347 170.773 113.533 171.227 113.8C171.68 114.053 172.093 114.453 172.467 115C172.84 115.533 173.113 116.173 173.287 116.92L167.607 120.32C167.82 120.453 168.153 120.52 168.607 120.52ZM168.727 115.88C168.007 115.88 167.42 116.12 166.967 116.6C166.527 117.067 166.353 117.66 166.447 118.38L169.767 116.4C169.54 116.053 169.193 115.88 168.727 115.88ZM181.925 114.36V108.28H185.125V123H181.925V122.04C181.205 122.893 180.252 123.32 179.065 123.32C177.705 123.32 176.565 122.82 175.645 121.82C174.712 120.847 174.245 119.64 174.245 118.2C174.245 116.76 174.712 115.547 175.645 114.56C176.565 113.573 177.705 113.08 179.065 113.08C180.252 113.08 181.205 113.507 181.925 114.36ZM177.445 118.2C177.445 118.813 177.665 119.34 178.105 119.78C178.545 120.22 179.072 120.44 179.685 120.44C180.299 120.44 180.825 120.22 181.265 119.78C181.705 119.34 181.925 118.813 181.925 118.2C181.925 117.587 181.705 117.06 181.265 116.62C180.825 116.18 180.299 115.96 179.685 115.96C179.072 115.96 178.545 116.18 178.105 116.62C177.665 117.06 177.445 117.587 177.445 118.2ZM191.966 120.52C192.913 120.52 193.713 120.213 194.366 119.6L196.006 121.74C194.913 122.793 193.606 123.32 192.086 123.32C190.459 123.32 189.159 122.833 188.186 121.86C187.213 120.887 186.726 119.667 186.726 118.2C186.726 116.733 187.213 115.513 188.186 114.54C189.159 113.567 190.459 113.08 192.086 113.08C192.486 113.08 192.886 113.133 193.286 113.24C193.699 113.347 194.133 113.533 194.586 113.8C195.039 114.053 195.453 114.453 195.826 115C196.199 115.533 196.473 116.173 196.646 116.92L190.966 120.32C191.179 120.453 191.513 120.52 191.966 120.52ZM192.086 115.88C191.366 115.88 190.779 116.12 190.326 116.6C189.886 117.067 189.713 117.66 189.806 118.38L193.126 116.4C192.899 116.053 192.553 115.88 192.086 115.88ZM202.285 116.66C204.925 117.1 206.245 118.2 206.245 119.96C206.245 120.96 205.852 121.773 205.065 122.4C204.292 123.013 203.205 123.32 201.805 123.32C200.912 123.32 200.085 123.173 199.325 122.88C198.578 122.587 198.005 122.24 197.605 121.84L198.885 119.44C199.712 120.107 200.532 120.48 201.345 120.56C202.478 120.68 203.045 120.527 203.045 120.1C203.045 119.9 202.952 119.76 202.765 119.68C202.578 119.6 202.258 119.52 201.805 119.44C201.778 119.44 201.738 119.433 201.685 119.42C201.645 119.407 201.612 119.4 201.585 119.4C200.078 119.093 199.098 118.613 198.645 117.96C198.272 117.413 198.085 116.827 198.085 116.2C198.085 115.347 198.445 114.607 199.165 113.98C199.858 113.38 200.852 113.08 202.145 113.08C202.598 113.08 203.192 113.18 203.925 113.38C204.552 113.58 205.065 113.813 205.465 114.08L204.245 116.46C203.712 116.047 203.085 115.807 202.365 115.74C201.645 115.673 201.285 115.793 201.285 116.1C201.285 116.26 201.352 116.38 201.485 116.46C201.618 116.527 201.885 116.593 202.285 116.66ZM222.881 118V123H219.681V122.2C219.014 122.947 218.148 123.32 217.081 123.32C216.001 123.32 215.154 122.993 214.541 122.34C213.914 121.687 213.601 120.9 213.601 119.98C213.601 119.14 213.914 118.447 214.541 117.9C215.168 117.353 215.928 117.033 216.821 116.94C217.741 116.86 218.681 116.947 219.641 117.2C219.614 116.747 219.448 116.387 219.141 116.12C218.848 115.853 218.441 115.72 217.921 115.72C217.134 115.72 216.388 115.927 215.681 116.34L214.721 114.04C215.708 113.4 216.934 113.08 218.401 113.08C219.681 113.08 220.754 113.48 221.621 114.28C222.461 115.08 222.881 116.32 222.881 118ZM219.681 119.2C218.961 118.947 218.294 118.893 217.681 119.04C217.094 119.187 216.801 119.52 216.801 120.04C216.801 120.347 216.908 120.6 217.121 120.8C217.348 120.987 217.621 121.08 217.941 121.08C218.368 121.08 218.748 120.913 219.081 120.58C219.414 120.233 219.614 119.773 219.681 119.2ZM224.964 113.4H228.164V114.36C228.884 113.507 229.837 113.08 231.024 113.08C232.37 113.08 233.517 113.573 234.464 114.56C235.384 115.56 235.844 116.773 235.844 118.2C235.844 119.64 235.384 120.847 234.464 121.82C233.517 122.82 232.37 123.32 231.024 123.32C229.837 123.32 228.884 122.893 228.164 122.04V128.12H224.964V113.4ZM228.164 118.2C228.164 118.813 228.384 119.34 228.824 119.78C229.264 120.22 229.79 120.44 230.404 120.44C231.017 120.44 231.544 120.22 231.984 119.78C232.424 119.34 232.644 118.813 232.644 118.2C232.644 117.587 232.424 117.06 231.984 116.62C231.544 116.18 231.017 115.96 230.404 115.96C229.79 115.96 229.264 116.18 228.824 116.62C228.384 117.06 228.164 117.587 228.164 118.2ZM242.557 113.08C244.063 113.08 245.35 113.573 246.417 114.56C247.47 115.56 247.997 116.773 247.997 118.2C247.997 119.64 247.477 120.847 246.437 121.82C245.37 122.82 244.077 123.32 242.557 123.32C240.983 123.32 239.683 122.827 238.657 121.84C237.63 120.853 237.117 119.64 237.117 118.2C237.117 116.733 237.623 115.513 238.637 114.54C239.65 113.567 240.957 113.08 242.557 113.08ZM240.317 118.2C240.317 118.813 240.537 119.34 240.977 119.78C241.417 120.22 241.943 120.44 242.557 120.44C243.17 120.44 243.697 120.22 244.137 119.78C244.577 119.34 244.797 118.813 244.797 118.2C244.797 117.587 244.577 117.06 244.137 116.62C243.697 116.18 243.17 115.96 242.557 115.96C241.943 115.96 241.417 116.18 240.977 116.62C240.537 117.06 240.317 117.587 240.317 118.2ZM253.772 118.72L255.692 113.4H259.212L253.132 128.12H249.612L252.192 122.4L248.332 113.4H251.852L253.772 118.72ZM268.975 118V123H265.775V122.2C265.108 122.947 264.241 123.32 263.175 123.32C262.095 123.32 261.248 122.993 260.635 122.34C260.008 121.687 259.695 120.9 259.695 119.98C259.695 119.14 260.008 118.447 260.635 117.9C261.261 117.353 262.021 117.033 262.915 116.94C263.835 116.86 264.775 116.947 265.735 117.2C265.708 116.747 265.541 116.387 265.235 116.12C264.941 115.853 264.535 115.72 264.015 115.72C263.228 115.72 262.481 115.927 261.775 116.34L260.815 114.04C261.801 113.4 263.028 113.08 264.495 113.08C265.775 113.08 266.848 113.48 267.715 114.28C268.555 115.08 268.975 116.32 268.975 118ZM265.775 119.2C265.055 118.947 264.388 118.893 263.775 119.04C263.188 119.187 262.895 119.52 262.895 120.04C262.895 120.347 263.001 120.6 263.215 120.8C263.441 120.987 263.715 121.08 264.035 121.08C264.461 121.08 264.841 120.913 265.175 120.58C265.508 120.233 265.708 119.773 265.775 119.2ZM274.257 113.4V115.18C274.591 114.5 275.031 114 275.577 113.68C276.124 113.347 276.857 113.147 277.777 113.08V116.6C277.217 116.427 276.631 116.427 276.017 116.6C275.511 116.733 275.091 117.06 274.757 117.58C274.424 118.1 274.257 118.727 274.257 119.46V123H271.057V113.4H274.257ZM285.45 113.08C286.543 113.08 287.457 113.467 288.19 114.24C288.923 115.013 289.29 116.12 289.29 117.56V123H286.09V117.88C286.09 116.6 285.557 115.96 284.49 115.96C284.05 115.96 283.67 116.16 283.35 116.56C283.043 116.947 282.89 117.493 282.89 118.2V123H279.69V113.4H282.89V114.36C283.45 113.507 284.303 113.08 285.45 113.08ZM296.326 113.08C297.833 113.08 299.119 113.573 300.186 114.56C301.239 115.56 301.766 116.773 301.766 118.2C301.766 119.64 301.246 120.847 300.206 121.82C299.139 122.82 297.846 123.32 296.326 123.32C294.753 123.32 293.453 122.827 292.426 121.84C291.399 120.853 290.886 119.64 290.886 118.2C290.886 116.733 291.393 115.513 292.406 114.54C293.419 113.567 294.726 113.08 296.326 113.08ZM294.086 118.2C294.086 118.813 294.306 119.34 294.746 119.78C295.186 120.22 295.713 120.44 296.326 120.44C296.939 120.44 297.466 120.22 297.906 119.78C298.346 119.34 298.566 118.813 298.566 118.2C298.566 117.587 298.346 117.06 297.906 116.62C297.466 116.18 296.939 115.96 296.326 115.96C295.713 115.96 295.186 116.18 294.746 116.62C294.306 117.06 294.086 117.587 294.086 118.2ZM307.734 116.66C310.374 117.1 311.694 118.2 311.694 119.96C311.694 120.96 311.301 121.773 310.514 122.4C309.741 123.013 308.654 123.32 307.254 123.32C306.361 123.32 305.534 123.173 304.774 122.88C304.027 122.587 303.454 122.24 303.054 121.84L304.334 119.44C305.161 120.107 305.981 120.48 306.794 120.56C307.927 120.68 308.494 120.527 308.494 120.1C308.494 119.9 308.401 119.76 308.214 119.68C308.027 119.6 307.707 119.52 307.254 119.44C307.227 119.44 307.187 119.433 307.134 119.42C307.094 119.407 307.061 119.4 307.034 119.4C305.527 119.093 304.547 118.613 304.094 117.96C303.721 117.413 303.534 116.827 303.534 116.2C303.534 115.347 303.894 114.607 304.614 113.98C305.307 113.38 306.301 113.08 307.594 113.08C308.047 113.08 308.641 113.18 309.374 113.38C310.001 113.58 310.514 113.813 310.914 114.08L309.694 116.46C309.161 116.047 308.534 115.807 307.814 115.74C307.094 115.673 306.734 115.793 306.734 116.1C306.734 116.26 306.801 116.38 306.934 116.46C307.067 116.527 307.334 116.593 307.734 116.66ZM316.656 118.52H314.096L313.776 108.92H316.976L316.656 118.52ZM317.136 121.54C317.136 122.033 316.969 122.453 316.636 122.8C316.303 123.147 315.889 123.32 315.396 123.32C314.903 123.32 314.483 123.147 314.136 122.8C313.789 122.453 313.616 122.033 313.616 121.54C313.616 121.047 313.789 120.633 314.136 120.3C314.483 119.967 314.903 119.8 315.396 119.8C315.889 119.8 316.303 119.967 316.636 120.3C316.969 120.633 317.136 121.047 317.136 121.54Z" fill="white"/>
<line x1="28.5" y1="148" x2="312.5" y2="148" stroke="white" stroke-width="2"/>
<path d="M43.7851 180H42.1211L41.4171 178.4H35.9131L35.2091 180H33.5451L38.6651 168.48L43.7851 180ZM38.6651 172.064L36.5211 176.992H40.8091L38.6651 172.064ZM48.2691 178.72C48.9411 178.72 49.4744 178.507 49.8691 178.08L50.7011 179.232C50.0077 179.829 49.1971 180.128 48.2691 180.128C47.2451 180.128 46.3704 179.765 45.6451 179.04C44.9197 178.315 44.5571 177.44 44.5571 176.416C44.5571 175.392 44.9197 174.517 45.6451 173.792C46.3704 173.067 47.2451 172.704 48.2691 172.704C49.1971 172.704 50.0077 173.003 50.7011 173.6L49.8691 174.752C49.4744 174.325 48.9411 174.112 48.2691 174.112C47.6931 174.112 47.1864 174.336 46.7491 174.784C46.3117 175.253 46.0931 175.797 46.0931 176.416C46.0931 177.035 46.3117 177.573 46.7491 178.032C47.1757 178.491 47.6824 178.72 48.2691 178.72ZM55.7066 171.808H54.6826L55.7066 169.248H57.2426L55.7066 171.808ZM55.7066 178.72C56.3359 178.72 56.9279 178.443 57.4826 177.888L58.3626 179.008C57.6479 179.755 56.7626 180.128 55.7066 180.128C54.6826 180.128 53.8079 179.765 53.0826 179.04C52.3572 178.315 51.9946 177.44 51.9946 176.416C51.9946 175.392 52.3572 174.517 53.0826 173.792C53.8079 173.067 54.6826 172.704 55.7066 172.704C56.5066 172.704 57.1892 172.933 57.7546 173.392C58.3199 173.84 58.7039 174.453 58.9066 175.232L54.1546 177.984C54.3039 178.197 54.5226 178.373 54.8106 178.512C55.1092 178.651 55.4079 178.72 55.7066 178.72ZM55.7066 174.112C55.1306 174.112 54.6239 174.347 54.1866 174.816C53.7492 175.285 53.5306 175.819 53.5306 176.416C53.5306 176.437 53.5412 176.576 53.5626 176.832L57.1146 174.784C56.7732 174.336 56.3039 174.112 55.7066 174.112ZM61.9801 172.832V173.968C62.4601 173.125 63.3134 172.704 64.5401 172.704V174.336C64.0707 174.24 63.6441 174.261 63.2601 174.4C62.4067 174.709 61.9801 175.504 61.9801 176.784V180H60.4441V172.832H61.9801ZM69.2691 178.72C69.9411 178.72 70.4744 178.507 70.8691 178.08L71.7011 179.232C71.0077 179.829 70.1971 180.128 69.2691 180.128C68.2451 180.128 67.3704 179.765 66.6451 179.04C65.9197 178.315 65.5571 177.44 65.5571 176.416C65.5571 175.392 65.9197 174.517 66.6451 173.792C67.3704 173.067 68.2451 172.704 69.2691 172.704C70.1971 172.704 71.0077 173.003 71.7011 173.6L70.8691 174.752C70.4744 174.325 69.9411 174.112 69.2691 174.112C68.6931 174.112 68.1864 174.336 67.7491 174.784C67.3117 175.253 67.0931 175.797 67.0931 176.416C67.0931 177.035 67.3117 177.573 67.7491 178.032C68.1757 178.491 68.6824 178.72 69.2691 178.72ZM79.3946 176.64V180H77.8586V179.072C77.2612 179.776 76.5199 180.128 75.6346 180.128C74.8666 180.128 74.2372 179.899 73.7466 179.44C73.2452 178.992 72.9946 178.416 72.9946 177.712C72.9946 177.04 73.2399 176.491 73.7306 176.064C74.2319 175.637 74.8346 175.408 75.5386 175.376C76.2532 175.344 77.0106 175.488 77.8106 175.808C77.7466 174.677 77.2079 174.112 76.1946 174.112C75.5866 174.112 75.0319 174.267 74.5306 174.576L73.8906 173.472C74.5626 172.96 75.3519 172.704 76.2586 172.704C78.3492 172.704 79.3946 174.016 79.3946 176.64ZM77.8586 177.072C77.4959 176.859 77.0479 176.736 76.5146 176.704C75.9812 176.672 75.5119 176.752 75.1066 176.944C74.7119 177.125 74.5199 177.397 74.5306 177.76C74.5306 178.037 74.6426 178.267 74.8666 178.448C75.1012 178.629 75.4052 178.72 75.7786 178.72C76.2692 178.72 76.7226 178.56 77.1386 178.24C77.5546 177.92 77.7946 177.531 77.8586 177.072ZM83.8731 180H82.3371V174.24H81.0571V172.832H82.3371V170.016L83.8731 169.504V172.832H85.9211V174.24H83.8731V180ZM90.6597 178.72C91.289 178.72 91.881 178.443 92.4357 177.888L93.3157 179.008C92.601 179.755 91.7157 180.128 90.6597 180.128C89.6357 180.128 88.761 179.765 88.0357 179.04C87.3104 178.315 86.9477 177.44 86.9477 176.416C86.9477 175.392 87.3104 174.517 88.0357 173.792C88.761 173.067 89.6357 172.704 90.6597 172.704C91.4597 172.704 92.1424 172.933 92.7077 173.392C93.273 173.84 93.657 174.453 93.8597 175.232L89.1077 177.984C89.257 178.197 89.4757 178.373 89.7637 178.512C90.0624 178.651 90.361 178.72 90.6597 178.72ZM90.6597 174.112C90.0837 174.112 89.577 174.347 89.1397 174.816C88.7024 175.285 88.4837 175.819 88.4837 176.416C88.4837 176.437 88.4944 176.576 88.5157 176.832L92.0677 174.784C91.7264 174.336 91.257 174.112 90.6597 174.112ZM106.91 176.64V180H105.374V179.072C104.777 179.776 104.036 180.128 103.15 180.128C102.382 180.128 101.753 179.899 101.262 179.44C100.761 178.992 100.51 178.416 100.51 177.712C100.51 177.04 100.756 176.491 101.246 176.064C101.748 175.637 102.35 175.408 103.054 175.376C103.769 175.344 104.526 175.488 105.326 175.808C105.262 174.677 104.724 174.112 103.71 174.112C103.102 174.112 102.548 174.267 102.046 174.576L101.406 173.472C102.078 172.96 102.868 172.704 103.774 172.704C105.865 172.704 106.91 174.016 106.91 176.64ZM105.374 177.072C105.012 176.859 104.564 176.736 104.03 176.704C103.497 176.672 103.028 176.752 102.622 176.944C102.228 177.125 102.036 177.397 102.046 177.76C102.046 178.037 102.158 178.267 102.382 178.448C102.617 178.629 102.921 178.72 103.294 178.72C103.785 178.72 104.238 178.56 104.654 178.24C105.07 177.92 105.31 177.531 105.374 177.072ZM117.177 180.128C116.259 180.128 115.555 179.824 115.065 179.216C114.574 178.608 114.329 177.739 114.329 176.608V172.832H115.865V176.736C115.865 178.059 116.398 178.72 117.465 178.72C117.955 178.72 118.366 178.507 118.697 178.08C119.027 177.653 119.193 177.099 119.193 176.416V172.832H120.729V180H119.193V179.104C119.043 179.381 118.787 179.621 118.425 179.824C118.062 180.027 117.646 180.128 117.177 180.128ZM126.715 172.704C127.632 172.704 128.336 173.008 128.827 173.616C129.317 174.224 129.563 175.093 129.563 176.224V180H128.027V176.224C128.027 175.509 127.899 174.981 127.643 174.64C127.397 174.288 126.992 174.112 126.427 174.112C125.936 174.112 125.525 174.32 125.195 174.736C124.864 175.141 124.699 175.659 124.699 176.288V180H123.163V172.832H124.699V173.728C124.848 173.451 125.104 173.211 125.467 173.008C125.829 172.805 126.245 172.704 126.715 172.704ZM131.354 176.416C131.354 175.392 131.717 174.517 132.442 173.792C133.167 173.067 134.042 172.704 135.066 172.704C136.09 172.704 136.965 173.067 137.69 173.792C138.415 174.517 138.778 175.392 138.778 176.416C138.778 177.44 138.415 178.315 137.69 179.04C136.965 179.765 136.09 180.128 135.066 180.128C134.042 180.128 133.167 179.765 132.442 179.04C131.717 178.315 131.354 177.44 131.354 176.416ZM133.546 178.032C133.973 178.491 134.479 178.72 135.066 178.72C135.663 178.72 136.175 178.491 136.602 178.032C137.029 177.595 137.242 177.056 137.242 176.416C137.242 175.787 137.029 175.243 136.602 174.784C136.175 174.336 135.663 174.112 135.066 174.112C134.49 174.112 133.983 174.336 133.546 174.784C133.109 175.253 132.89 175.797 132.89 176.416C132.89 177.035 133.109 177.573 133.546 178.032ZM151.57 173.728V168.224H153.106V180H151.57V179.104C150.983 179.787 150.215 180.128 149.266 180.128C148.274 180.128 147.431 179.765 146.738 179.04C146.034 178.315 145.682 177.44 145.682 176.416C145.682 175.392 146.034 174.517 146.738 173.792C147.431 173.067 148.274 172.704 149.266 172.704C150.215 172.704 150.983 173.045 151.57 173.728ZM147.858 178.048C148.274 178.496 148.786 178.72 149.394 178.72C149.991 178.72 150.509 178.496 150.946 178.048C151.362 177.6 151.57 177.056 151.57 176.416C151.57 175.776 151.362 175.232 150.946 174.784C150.509 174.336 149.991 174.112 149.394 174.112C148.786 174.112 148.274 174.336 147.858 174.784C147.431 175.221 147.218 175.765 147.218 176.416C147.218 177.067 147.431 177.611 147.858 178.048ZM158.613 178.72C159.242 178.72 159.834 178.443 160.389 177.888L161.269 179.008C160.554 179.755 159.669 180.128 158.613 180.128C157.589 180.128 156.714 179.765 155.989 179.04C155.263 178.315 154.901 177.44 154.901 176.416C154.901 175.392 155.263 174.517 155.989 173.792C156.714 173.067 157.589 172.704 158.613 172.704C159.413 172.704 160.095 172.933 160.661 173.392C161.226 173.84 161.61 174.453 161.813 175.232L157.061 177.984C157.21 178.197 157.429 178.373 157.717 178.512C158.015 178.651 158.314 178.72 158.613 178.72ZM158.613 174.112C158.037 174.112 157.53 174.347 157.093 174.816C156.655 175.285 156.437 175.819 156.437 176.416C156.437 176.437 156.447 176.576 156.469 176.832L160.021 174.784C159.679 174.336 159.21 174.112 158.613 174.112ZM172.527 172.704C173.445 172.704 174.149 173.008 174.639 173.616C175.13 174.224 175.375 175.093 175.375 176.224V180H173.839V176.224C173.839 175.509 173.711 174.981 173.455 174.64C173.21 174.288 172.805 174.112 172.239 174.112C171.749 174.112 171.338 174.32 171.007 174.736C170.677 175.141 170.511 175.659 170.511 176.288V180H168.975V172.832H170.511V173.728C170.661 173.451 170.917 173.211 171.279 173.008C171.642 172.805 172.058 172.704 172.527 172.704ZM180.145 180.128C179.228 180.128 178.524 179.824 178.033 179.216C177.543 178.608 177.297 177.739 177.297 176.608V172.832H178.833V176.736C178.833 178.059 179.367 178.72 180.433 178.72C180.924 178.72 181.335 178.507 181.665 178.08C181.996 177.653 182.161 177.099 182.161 176.416V172.832H183.697V180H182.161V179.104C182.012 179.381 181.756 179.621 181.393 179.824C181.031 180.027 180.615 180.128 180.145 180.128ZM189.207 178.72C189.836 178.72 190.428 178.443 190.983 177.888L191.863 179.008C191.148 179.755 190.263 180.128 189.207 180.128C188.183 180.128 187.308 179.765 186.583 179.04C185.857 178.315 185.495 177.44 185.495 176.416C185.495 175.392 185.857 174.517 186.583 173.792C187.308 173.067 188.183 172.704 189.207 172.704C190.007 172.704 190.689 172.933 191.255 173.392C191.82 173.84 192.204 174.453 192.407 175.232L187.655 177.984C187.804 178.197 188.023 178.373 188.311 178.512C188.609 178.651 188.908 178.72 189.207 178.72ZM189.207 174.112C188.631 174.112 188.124 174.347 187.687 174.816C187.249 175.285 187.031 175.819 187.031 176.416C187.031 176.437 187.041 176.576 187.063 176.832L190.615 174.784C190.273 174.336 189.804 174.112 189.207 174.112ZM196.77 175.52C198.295 175.872 199.058 176.651 199.058 177.856C199.058 178.528 198.807 179.072 198.306 179.488C197.805 179.915 197.207 180.128 196.514 180.128C195.437 180.128 194.493 179.723 193.682 178.912L194.45 177.792C195.069 178.389 195.725 178.699 196.418 178.72C196.749 178.731 197.015 178.656 197.218 178.496C197.421 178.336 197.522 178.149 197.522 177.936C197.522 177.531 197.191 177.237 196.53 177.056C195.602 176.8 194.957 176.507 194.594 176.176C194.242 175.845 194.066 175.376 194.066 174.768C194.066 174.192 194.285 173.707 194.722 173.312C195.17 172.907 195.762 172.704 196.498 172.704C197.255 172.704 197.943 172.949 198.562 173.44L197.842 174.56C197.447 174.261 196.999 174.112 196.498 174.112C196.221 174.112 196.002 174.171 195.842 174.288C195.682 174.405 195.602 174.549 195.602 174.72C195.602 174.923 195.682 175.083 195.842 175.2C196.013 175.307 196.322 175.413 196.77 175.52ZM203.404 180H201.868V174.24H200.588V172.832H201.868V170.016L203.404 169.504V172.832H205.452V174.24H203.404V180ZM209.043 172.832V173.968C209.523 173.125 210.376 172.704 211.603 172.704V174.336C211.133 174.24 210.707 174.261 210.323 174.4C209.469 174.709 209.043 175.504 209.043 176.784V180H207.507V172.832H209.043ZM212.62 176.416C212.62 175.392 212.982 174.517 213.708 173.792C214.433 173.067 215.308 172.704 216.332 172.704C217.356 172.704 218.23 173.067 218.956 173.792C219.681 174.517 220.044 175.392 220.044 176.416C220.044 177.44 219.681 178.315 218.956 179.04C218.23 179.765 217.356 180.128 216.332 180.128C215.308 180.128 214.433 179.765 213.708 179.04C212.982 178.315 212.62 177.44 212.62 176.416ZM214.812 178.032C215.238 178.491 215.745 178.72 216.332 178.72C216.929 178.72 217.441 178.491 217.868 178.032C218.294 177.595 218.508 177.056 218.508 176.416C218.508 175.787 218.294 175.243 217.868 174.784C217.441 174.336 216.929 174.112 216.332 174.112C215.756 174.112 215.249 174.336 214.812 174.784C214.374 175.253 214.156 175.797 214.156 176.416C214.156 177.035 214.374 177.573 214.812 178.032ZM224.661 175.52C226.186 175.872 226.949 176.651 226.949 177.856C226.949 178.528 226.698 179.072 226.197 179.488C225.695 179.915 225.098 180.128 224.405 180.128C223.327 180.128 222.383 179.723 221.573 178.912L222.341 177.792C222.959 178.389 223.615 178.699 224.309 178.72C224.639 178.731 224.906 178.656 225.109 178.496C225.311 178.336 225.413 178.149 225.413 177.936C225.413 177.531 225.082 177.237 224.421 177.056C223.493 176.8 222.847 176.507 222.485 176.176C222.133 175.845 221.957 175.376 221.957 174.768C221.957 174.192 222.175 173.707 222.613 173.312C223.061 172.907 223.653 172.704 224.389 172.704C225.146 172.704 225.834 172.949 226.453 173.44L225.733 174.56C225.338 174.261 224.89 174.112 224.389 174.112C224.111 174.112 223.893 174.171 223.733 174.288C223.573 174.405 223.493 174.549 223.493 174.72C223.493 174.923 223.573 175.083 223.733 175.2C223.903 175.307 224.213 175.413 224.661 175.52ZM237.566 178.72C238.238 178.72 238.771 178.507 239.166 178.08L239.998 179.232C239.305 179.829 238.494 180.128 237.566 180.128C236.542 180.128 235.667 179.765 234.942 179.04C234.217 178.315 233.854 177.44 233.854 176.416C233.854 175.392 234.217 174.517 234.942 173.792C235.667 173.067 236.542 172.704 237.566 172.704C238.494 172.704 239.305 173.003 239.998 173.6L239.166 174.752C238.771 174.325 238.238 174.112 237.566 174.112C236.99 174.112 236.483 174.336 236.046 174.784C235.609 175.253 235.39 175.797 235.39 176.416C235.39 177.035 235.609 177.573 236.046 178.032C236.473 178.491 236.979 178.72 237.566 178.72ZM245.003 178.72C245.633 178.72 246.225 178.443 246.779 177.888L247.659 179.008C246.945 179.755 246.059 180.128 245.003 180.128C243.979 180.128 243.105 179.765 242.379 179.04C241.654 178.315 241.291 177.44 241.291 176.416C241.291 175.392 241.654 174.517 242.379 173.792C243.105 173.067 243.979 172.704 245.003 172.704C245.803 172.704 246.486 172.933 247.051 173.392C247.617 173.84 248.001 174.453 248.203 175.232L243.451 177.984C243.601 178.197 243.819 178.373 244.107 178.512C244.406 178.651 244.705 178.72 245.003 178.72ZM245.003 174.112C244.427 174.112 243.921 174.347 243.483 174.816C243.046 175.285 242.827 175.819 242.827 176.416C242.827 176.437 242.838 176.576 242.859 176.832L246.411 174.784C246.07 174.336 245.601 174.112 245.003 174.112ZM253.293 172.704C254.21 172.704 254.914 173.008 255.405 173.616C255.896 174.224 256.141 175.093 256.141 176.224V180H254.605V176.224C254.605 175.509 254.477 174.981 254.221 174.64C253.976 174.288 253.57 174.112 253.005 174.112C252.514 174.112 252.104 174.32 251.773 174.736C251.442 175.141 251.277 175.659 251.277 176.288V180H249.741V172.832H251.277V173.728C251.426 173.451 251.682 173.211 252.045 173.008C252.408 172.805 252.824 172.704 253.293 172.704ZM260.623 180H259.087V174.24H257.807V172.832H259.087V170.016L260.623 169.504V172.832H262.671V174.24H260.623V180ZM266.261 172.832V173.968C266.741 173.125 267.595 172.704 268.821 172.704V174.336C268.352 174.24 267.925 174.261 267.541 174.4C266.688 174.709 266.261 175.504 266.261 176.784V180H264.725V172.832H266.261ZM269.838 176.416C269.838 175.392 270.201 174.517 270.926 173.792C271.652 173.067 272.526 172.704 273.55 172.704C274.574 172.704 275.449 173.067 276.174 173.792C276.9 174.517 277.262 175.392 277.262 176.416C277.262 177.44 276.9 178.315 276.174 179.04C275.449 179.765 274.574 180.128 273.55 180.128C272.526 180.128 271.652 179.765 270.926 179.04C270.201 178.315 269.838 177.44 269.838 176.416ZM272.03 178.032C272.457 178.491 272.964 178.72 273.55 178.72C274.148 178.72 274.66 178.491 275.086 178.032C275.513 177.595 275.726 177.056 275.726 176.416C275.726 175.787 275.513 175.243 275.086 174.784C274.66 174.336 274.148 174.112 273.55 174.112C272.974 174.112 272.468 174.336 272.03 174.784C271.593 175.253 271.374 175.797 271.374 176.416C271.374 177.035 271.593 177.573 272.03 178.032ZM281.879 175.52C283.405 175.872 284.167 176.651 284.167 177.856C284.167 178.528 283.917 179.072 283.415 179.488C282.914 179.915 282.317 180.128 281.623 180.128C280.546 180.128 279.602 179.723 278.791 178.912L279.559 177.792C280.178 178.389 280.834 178.699 281.527 178.72C281.858 178.731 282.125 178.656 282.327 178.496C282.53 178.336 282.631 178.149 282.631 177.936C282.631 177.531 282.301 177.237 281.639 177.056C280.711 176.8 280.066 176.507 279.703 176.176C279.351 175.845 279.175 175.376 279.175 174.768C279.175 174.192 279.394 173.707 279.831 173.312C280.279 172.907 280.871 172.704 281.607 172.704C282.365 172.704 283.053 172.949 283.671 173.44L282.951 174.56C282.557 174.261 282.109 174.112 281.607 174.112C281.33 174.112 281.111 174.171 280.951 174.288C280.791 174.405 280.711 174.549 280.711 174.72C280.711 174.923 280.791 175.083 280.951 175.2C281.122 175.307 281.431 175.413 281.879 175.52ZM296.961 173.728V168.224H298.497V180H296.961V179.104C296.374 179.787 295.606 180.128 294.657 180.128C293.665 180.128 292.822 179.765 292.129 179.04C291.425 178.315 291.073 177.44 291.073 176.416C291.073 175.392 291.425 174.517 292.129 173.792C292.822 173.067 293.665 172.704 294.657 172.704C295.606 172.704 296.374 173.045 296.961 173.728ZM293.249 178.048C293.665 178.496 294.177 178.72 294.785 178.72C295.382 178.72 295.899 178.496 296.337 178.048C296.753 177.6 296.961 177.056 296.961 176.416C296.961 175.776 296.753 175.232 296.337 174.784C295.899 174.336 295.382 174.112 294.785 174.112C294.177 174.112 293.665 174.336 293.249 174.784C292.822 175.221 292.609 175.765 292.609 176.416C292.609 177.067 292.822 177.611 293.249 178.048ZM304.003 178.72C304.633 178.72 305.225 178.443 305.779 177.888L306.659 179.008C305.945 179.755 305.059 180.128 304.003 180.128C302.979 180.128 302.105 179.765 301.379 179.04C300.654 178.315 300.291 177.44 300.291 176.416C300.291 175.392 300.654 174.517 301.379 173.792C302.105 173.067 302.979 172.704 304.003 172.704C304.803 172.704 305.486 172.933 306.051 173.392C306.617 173.84 307.001 174.453 307.203 175.232L302.451 177.984C302.601 178.197 302.819 178.373 303.107 178.512C303.406 178.651 303.705 178.72 304.003 178.72ZM304.003 174.112C303.427 174.112 302.921 174.347 302.483 174.816C302.046 175.285 301.827 175.819 301.827 176.416C301.827 176.437 301.838 176.576 301.859 176.832L305.411 174.784C305.07 174.336 304.601 174.112 304.003 174.112ZM52.9336 197.64V201H51.3976V200.072C50.8003 200.776 50.059 201.128 49.1736 201.128C48.4056 201.128 47.7763 200.899 47.2856 200.44C46.7843 199.992 46.5336 199.416 46.5336 198.712C46.5336 198.04 46.779 197.491 47.2696 197.064C47.771 196.637 48.3736 196.408 49.0776 196.376C49.7923 196.344 50.5496 196.488 51.3496 196.808C51.2856 195.677 50.747 195.112 49.7336 195.112C49.1256 195.112 48.571 195.267 48.0696 195.576L47.4296 194.472C48.1016 193.96 48.891 193.704 49.7976 193.704C51.8883 193.704 52.9336 195.016 52.9336 197.64ZM51.3976 198.072C51.035 197.859 50.587 197.736 50.0536 197.704C49.5203 197.672 49.051 197.752 48.6456 197.944C48.251 198.125 48.059 198.397 48.0696 198.76C48.0696 199.037 48.1816 199.267 48.4056 199.448C48.6403 199.629 48.9443 199.72 49.3176 199.72C49.8083 199.72 50.2616 199.56 50.6776 199.24C51.0936 198.92 51.3336 198.531 51.3976 198.072ZM58.4331 199.72C59.1051 199.72 59.6385 199.507 60.0331 199.08L60.8651 200.232C60.1718 200.829 59.3611 201.128 58.4331 201.128C57.4091 201.128 56.5345 200.765 55.8091 200.04C55.0838 199.315 54.7211 198.44 54.7211 197.416C54.7211 196.392 55.0838 195.517 55.8091 194.792C56.5345 194.067 57.4091 193.704 58.4331 193.704C59.3611 193.704 60.1718 194.003 60.8651 194.6L60.0331 195.752C59.6385 195.325 59.1051 195.112 58.4331 195.112C57.8571 195.112 57.3505 195.336 56.9131 195.784C56.4758 196.253 56.2571 196.797 56.2571 197.416C56.2571 198.035 56.4758 198.573 56.9131 199.032C57.3398 199.491 57.8465 199.72 58.4331 199.72ZM62.1586 197.416C62.1586 196.392 62.5213 195.517 63.2466 194.792C63.972 194.067 64.8466 193.704 65.8706 193.704C66.8946 193.704 67.7693 194.067 68.4946 194.792C69.22 195.517 69.5826 196.392 69.5826 197.416C69.5826 198.44 69.22 199.315 68.4946 200.04C67.7693 200.765 66.8946 201.128 65.8706 201.128C64.8466 201.128 63.972 200.765 63.2466 200.04C62.5213 199.315 62.1586 198.44 62.1586 197.416ZM64.3506 199.032C64.7773 199.491 65.284 199.72 65.8706 199.72C66.468 199.72 66.98 199.491 67.4066 199.032C67.8333 198.595 68.0466 198.056 68.0466 197.416C68.0466 196.787 67.8333 196.243 67.4066 195.784C66.98 195.336 66.468 195.112 65.8706 195.112C65.2946 195.112 64.788 195.336 64.3506 195.784C63.9133 196.253 63.6946 196.797 63.6946 197.416C63.6946 198.035 63.9133 198.573 64.3506 199.032ZM72.9098 200.104V204.84H71.3738V193.832H72.9098V194.728C73.4964 194.045 74.2644 193.704 75.2138 193.704C76.2058 193.704 77.0538 194.067 77.7578 194.792C78.4511 195.517 78.7978 196.392 78.7978 197.416C78.7978 198.44 78.4511 199.315 77.7578 200.04C77.0538 200.765 76.2058 201.128 75.2138 201.128C74.2644 201.128 73.4964 200.787 72.9098 200.104ZM76.6378 195.784C76.2004 195.336 75.6831 195.112 75.0858 195.112C74.4778 195.112 73.9658 195.336 73.5498 195.784C73.1231 196.221 72.9098 196.765 72.9098 197.416C72.9098 198.067 73.1231 198.611 73.5498 199.048C73.9658 199.496 74.4778 199.72 75.0858 199.72C75.6831 199.72 76.2004 199.496 76.6378 199.048C77.0538 198.6 77.2618 198.056 77.2618 197.416C77.2618 196.776 77.0538 196.232 76.6378 195.784ZM82.6375 191.4C82.6375 191.72 82.5255 191.992 82.3015 192.216C82.0775 192.44 81.8055 192.552 81.4855 192.552C81.1655 192.552 80.8935 192.44 80.6695 192.216C80.4455 191.992 80.3335 191.72 80.3335 191.4C80.3335 191.08 80.4455 190.808 80.6695 190.584C80.8935 190.36 81.1655 190.248 81.4855 190.248C81.8055 190.248 82.0775 190.36 82.3015 190.584C82.5255 190.808 82.6375 191.08 82.6375 191.4ZM82.2535 201H80.7175V193.832H82.2535V201ZM84.0493 197.416C84.0493 196.392 84.4119 195.517 85.1373 194.792C85.8626 194.067 86.7373 193.704 87.7613 193.704C88.7853 193.704 89.6599 194.067 90.3853 194.792C91.1106 195.517 91.4733 196.392 91.4733 197.416C91.4733 198.44 91.1106 199.315 90.3853 200.04C89.6599 200.765 88.7853 201.128 87.7613 201.128C86.7373 201.128 85.8626 200.765 85.1373 200.04C84.4119 199.315 84.0493 198.44 84.0493 197.416ZM86.2413 199.032C86.6679 199.491 87.1746 199.72 87.7613 199.72C88.3586 199.72 88.8706 199.491 89.2973 199.032C89.7239 198.595 89.9373 198.056 89.9373 197.416C89.9373 196.787 89.7239 196.243 89.2973 195.784C88.8706 195.336 88.3586 195.112 87.7613 195.112C87.1853 195.112 86.6786 195.336 86.2413 195.784C85.8039 196.253 85.5853 196.797 85.5853 197.416C85.5853 198.035 85.8039 198.573 86.2413 199.032ZM101.465 198.68L103.369 193.832H105.033L100.569 204.84H98.9374L100.681 200.584L97.8654 193.832H99.5294L101.465 198.68ZM115.152 199.72C115.781 199.72 116.373 199.443 116.928 198.888L117.808 200.008C117.093 200.755 116.208 201.128 115.152 201.128C114.128 201.128 113.253 200.765 112.528 200.04C111.803 199.315 111.44 198.44 111.44 197.416C111.44 196.392 111.803 195.517 112.528 194.792C113.253 194.067 114.128 193.704 115.152 193.704C115.952 193.704 116.635 193.933 117.2 194.392C117.765 194.84 118.149 195.453 118.352 196.232L113.6 198.984C113.749 199.197 113.968 199.373 114.256 199.512C114.555 199.651 114.853 199.72 115.152 199.72ZM115.152 195.112C114.576 195.112 114.069 195.347 113.632 195.816C113.195 196.285 112.976 196.819 112.976 197.416C112.976 197.437 112.987 197.576 113.008 197.832L116.56 195.784C116.219 195.336 115.749 195.112 115.152 195.112ZM123.441 193.704C124.359 193.704 125.063 194.008 125.553 194.616C126.044 195.224 126.289 196.093 126.289 197.224V201H124.753V197.224C124.753 196.509 124.625 195.981 124.369 195.64C124.124 195.288 123.719 195.112 123.153 195.112C122.663 195.112 122.252 195.32 121.921 195.736C121.591 196.141 121.425 196.659 121.425 197.288V201H119.889V193.832H121.425V194.728C121.575 194.451 121.831 194.211 122.193 194.008C122.556 193.805 122.972 193.704 123.441 193.704ZM131.793 199.72C132.465 199.72 132.998 199.507 133.393 199.08L134.225 200.232C133.531 200.829 132.721 201.128 131.793 201.128C130.769 201.128 129.894 200.765 129.169 200.04C128.443 199.315 128.081 198.44 128.081 197.416C128.081 196.392 128.443 195.517 129.169 194.792C129.894 194.067 130.769 193.704 131.793 193.704C132.721 193.704 133.531 194.003 134.225 194.6L133.393 195.752C132.998 195.325 132.465 195.112 131.793 195.112C131.217 195.112 130.71 195.336 130.273 195.784C129.835 196.253 129.617 196.797 129.617 197.416C129.617 198.035 129.835 198.573 130.273 199.032C130.699 199.491 131.206 199.72 131.793 199.72ZM141.918 197.64V201H140.382V200.072C139.785 200.776 139.043 201.128 138.158 201.128C137.39 201.128 136.761 200.899 136.27 200.44C135.769 199.992 135.518 199.416 135.518 198.712C135.518 198.04 135.763 197.491 136.254 197.064C136.755 196.637 137.358 196.408 138.062 196.376C138.777 196.344 139.534 196.488 140.334 196.808C140.27 195.677 139.731 195.112 138.718 195.112C138.11 195.112 137.555 195.267 137.054 195.576L136.414 194.472C137.086 193.96 137.875 193.704 138.782 193.704C140.873 193.704 141.918 195.016 141.918 197.64ZM140.382 198.072C140.019 197.859 139.571 197.736 139.038 197.704C138.505 197.672 138.035 197.752 137.63 197.944C137.235 198.125 137.043 198.397 137.054 198.76C137.054 199.037 137.166 199.267 137.39 199.448C137.625 199.629 137.929 199.72 138.302 199.72C138.793 199.72 139.246 199.56 139.662 199.24C140.078 198.92 140.318 198.531 140.382 198.072ZM147.645 193.704C148.562 193.704 149.266 194.008 149.757 194.616C150.247 195.224 150.493 196.093 150.493 197.224V201H148.957V197.224C148.957 196.509 148.829 195.981 148.573 195.64C148.327 195.288 147.922 195.112 147.357 195.112C146.866 195.112 146.455 195.32 146.125 195.736C145.794 196.141 145.629 196.659 145.629 197.288V201H144.093V193.832H145.629V194.728C145.778 194.451 146.034 194.211 146.397 194.008C146.759 193.805 147.175 193.704 147.645 193.704ZM154.975 201H153.439V195.24H152.159V193.832H153.439V191.016L154.975 190.504V193.832H157.023V195.24H154.975V201ZM164.449 197.64V201H162.913V200.072C162.316 200.776 161.575 201.128 160.689 201.128C159.921 201.128 159.292 200.899 158.801 200.44C158.3 199.992 158.049 199.416 158.049 198.712C158.049 198.04 158.295 197.491 158.785 197.064C159.287 196.637 159.889 196.408 160.593 196.376C161.308 196.344 162.065 196.488 162.865 196.808C162.801 195.677 162.263 195.112 161.249 195.112C160.641 195.112 160.087 195.267 159.585 195.576L158.945 194.472C159.617 193.96 160.407 193.704 161.313 193.704C163.404 193.704 164.449 195.016 164.449 197.64ZM162.913 198.072C162.551 197.859 162.103 197.736 161.569 197.704C161.036 197.672 160.567 197.752 160.161 197.944C159.767 198.125 159.575 198.397 159.585 198.76C159.585 199.037 159.697 199.267 159.921 199.448C160.156 199.629 160.46 199.72 160.833 199.72C161.324 199.72 161.777 199.56 162.193 199.24C162.609 198.92 162.849 198.531 162.913 198.072ZM172.125 194.728V189.224H173.661V201H172.125V200.104C171.538 200.787 170.77 201.128 169.821 201.128C168.829 201.128 167.986 200.765 167.293 200.04C166.589 199.315 166.237 198.44 166.237 197.416C166.237 196.392 166.589 195.517 167.293 194.792C167.986 194.067 168.829 193.704 169.821 193.704C170.77 193.704 171.538 194.045 172.125 194.728ZM168.413 199.048C168.829 199.496 169.341 199.72 169.949 199.72C170.546 199.72 171.063 199.496 171.501 199.048C171.917 198.6 172.125 198.056 172.125 197.416C172.125 196.776 171.917 196.232 171.501 195.784C171.063 195.336 170.546 195.112 169.949 195.112C169.341 195.112 168.829 195.336 168.413 195.784C167.986 196.221 167.773 196.765 167.773 197.416C167.773 198.067 167.986 198.611 168.413 199.048ZM175.456 197.416C175.456 196.392 175.818 195.517 176.544 194.792C177.269 194.067 178.144 193.704 179.168 193.704C180.192 193.704 181.066 194.067 181.792 194.792C182.517 195.517 182.88 196.392 182.88 197.416C182.88 198.44 182.517 199.315 181.792 200.04C181.066 200.765 180.192 201.128 179.168 201.128C178.144 201.128 177.269 200.765 176.544 200.04C175.818 199.315 175.456 198.44 175.456 197.416ZM177.648 199.032C178.074 199.491 178.581 199.72 179.168 199.72C179.765 199.72 180.277 199.491 180.704 199.032C181.13 198.595 181.344 198.056 181.344 197.416C181.344 196.787 181.13 196.243 180.704 195.784C180.277 195.336 179.765 195.112 179.168 195.112C178.592 195.112 178.085 195.336 177.648 195.784C177.21 196.253 176.992 196.797 176.992 197.416C176.992 198.035 177.21 198.573 177.648 199.032ZM187.497 196.52C189.022 196.872 189.785 197.651 189.785 198.856C189.785 199.528 189.534 200.072 189.033 200.488C188.531 200.915 187.934 201.128 187.241 201.128C186.163 201.128 185.219 200.723 184.409 199.912L185.177 198.792C185.795 199.389 186.451 199.699 187.145 199.72C187.475 199.731 187.742 199.656 187.945 199.496C188.147 199.336 188.249 199.149 188.249 198.936C188.249 198.531 187.918 198.237 187.257 198.056C186.329 197.8 185.683 197.507 185.321 197.176C184.969 196.845 184.793 196.376 184.793 195.768C184.793 195.192 185.011 194.707 185.449 194.312C185.897 193.907 186.489 193.704 187.225 193.704C187.982 193.704 188.67 193.949 189.289 194.44L188.569 195.56C188.174 195.261 187.726 195.112 187.225 195.112C186.947 195.112 186.729 195.171 186.569 195.288C186.409 195.405 186.329 195.549 186.329 195.72C186.329 195.923 186.409 196.083 186.569 196.2C186.739 196.307 187.049 196.413 187.497 196.52ZM197.202 201V189.224H198.738V201H197.202ZM200.534 197.416C200.534 196.392 200.896 195.517 201.622 194.792C202.347 194.067 203.222 193.704 204.246 193.704C205.27 193.704 206.144 194.067 206.87 194.792C207.595 195.517 207.958 196.392 207.958 197.416C207.958 198.44 207.595 199.315 206.87 200.04C206.144 200.765 205.27 201.128 204.246 201.128C203.222 201.128 202.347 200.765 201.622 200.04C200.896 199.315 200.534 198.44 200.534 197.416ZM202.726 199.032C203.152 199.491 203.659 199.72 204.246 199.72C204.843 199.72 205.355 199.491 205.782 199.032C206.208 198.595 206.422 198.056 206.422 197.416C206.422 196.787 206.208 196.243 205.782 195.784C205.355 195.336 204.843 195.112 204.246 195.112C203.67 195.112 203.163 195.336 202.726 195.784C202.288 196.253 202.07 196.797 202.07 197.416C202.07 198.035 202.288 198.573 202.726 199.032ZM216.91 193.832V194.968C217.39 194.125 218.243 193.704 219.47 193.704V195.336C219 195.24 218.574 195.261 218.19 195.4C217.336 195.709 216.91 196.504 216.91 197.784V201H215.374V193.832H216.91ZM224.199 199.72C224.828 199.72 225.42 199.443 225.975 198.888L226.855 200.008C226.14 200.755 225.255 201.128 224.199 201.128C223.175 201.128 222.3 200.765 221.575 200.04C220.849 199.315 220.487 198.44 220.487 197.416C220.487 196.392 220.849 195.517 221.575 194.792C222.3 194.067 223.175 193.704 224.199 193.704C224.999 193.704 225.681 193.933 226.247 194.392C226.812 194.84 227.196 195.453 227.399 196.232L222.647 198.984C222.796 199.197 223.015 199.373 223.303 199.512C223.601 199.651 223.9 199.72 224.199 199.72ZM224.199 195.112C223.623 195.112 223.116 195.347 222.679 195.816C222.241 196.285 222.023 196.819 222.023 197.416C222.023 197.437 222.033 197.576 222.055 197.832L225.607 195.784C225.265 195.336 224.796 195.112 224.199 195.112ZM232.386 199.72C233.058 199.72 233.592 199.507 233.986 199.08L234.818 200.232C234.125 200.829 233.314 201.128 232.386 201.128C231.362 201.128 230.488 200.765 229.762 200.04C229.037 199.315 228.674 198.44 228.674 197.416C228.674 196.392 229.037 195.517 229.762 194.792C230.488 194.067 231.362 193.704 232.386 193.704C233.314 193.704 234.125 194.003 234.818 194.6L233.986 195.752C233.592 195.325 233.058 195.112 232.386 195.112C231.81 195.112 231.304 195.336 230.866 195.784C230.429 196.253 230.21 196.797 230.21 197.416C230.21 198.035 230.429 198.573 230.866 199.032C231.293 199.491 231.8 199.72 232.386 199.72ZM238.669 191.4C238.669 191.72 238.557 191.992 238.333 192.216C238.109 192.44 237.837 192.552 237.517 192.552C237.197 192.552 236.925 192.44 236.701 192.216C236.477 191.992 236.365 191.72 236.365 191.4C236.365 191.08 236.477 190.808 236.701 190.584C236.925 190.36 237.197 190.248 237.517 190.248C237.837 190.248 238.109 190.36 238.333 190.584C238.557 190.808 238.669 191.08 238.669 191.4ZM238.285 201H236.749V193.832H238.285V201ZM240.718 189.224H242.254V194.728C242.84 194.045 243.608 193.704 244.558 193.704C245.55 193.704 246.398 194.067 247.102 194.792C247.795 195.517 248.142 196.392 248.142 197.416C248.142 198.44 247.795 199.315 247.102 200.04C246.398 200.765 245.55 201.128 244.558 201.128C243.608 201.128 242.84 200.787 242.254 200.104V201H240.718V189.224ZM242.894 199.048C243.31 199.496 243.822 199.72 244.43 199.72C245.027 199.72 245.544 199.496 245.982 199.048C246.398 198.6 246.606 198.056 246.606 197.416C246.606 196.776 246.398 196.232 245.982 195.784C245.544 195.336 245.027 195.112 244.43 195.112C243.822 195.112 243.31 195.336 242.894 195.784C242.467 196.221 242.254 196.765 242.254 197.416C242.254 198.067 242.467 198.611 242.894 199.048ZM251.981 191.4C251.981 191.72 251.869 191.992 251.645 192.216C251.421 192.44 251.149 192.552 250.829 192.552C250.509 192.552 250.237 192.44 250.013 192.216C249.789 191.992 249.677 191.72 249.677 191.4C249.677 191.08 249.789 190.808 250.013 190.584C250.237 190.36 250.509 190.248 250.829 190.248C251.149 190.248 251.421 190.36 251.645 190.584C251.869 190.808 251.981 191.08 251.981 191.4ZM251.597 201H250.061V193.832H251.597V201ZM255.566 193.832V194.968C256.046 194.125 256.899 193.704 258.126 193.704V195.336C257.657 195.24 257.23 195.261 256.846 195.4C255.993 195.709 255.566 196.504 255.566 197.784V201H254.03V193.832H255.566ZM262.855 199.72C263.484 199.72 264.076 199.443 264.631 198.888L265.511 200.008C264.796 200.755 263.911 201.128 262.855 201.128C261.831 201.128 260.956 200.765 260.231 200.04C259.506 199.315 259.143 198.44 259.143 197.416C259.143 196.392 259.506 195.517 260.231 194.792C260.956 194.067 261.831 193.704 262.855 193.704C263.655 193.704 264.338 193.933 264.903 194.392C265.468 194.84 265.852 195.453 266.055 196.232L261.303 198.984C261.452 199.197 261.671 199.373 261.959 199.512C262.258 199.651 262.556 199.72 262.855 199.72ZM262.855 195.112C262.279 195.112 261.772 195.347 261.335 195.816C260.898 196.285 260.679 196.819 260.679 197.416C260.679 197.437 260.69 197.576 260.711 197.832L264.263 195.784C263.922 195.336 263.452 195.112 262.855 195.112ZM275.625 193.704C276.489 193.704 277.155 194.013 277.625 194.632C278.105 195.24 278.345 196.104 278.345 197.224V201H276.809V197.224C276.809 195.816 276.318 195.112 275.337 195.112C274.867 195.112 274.483 195.315 274.185 195.72C273.886 196.115 273.737 196.637 273.737 197.288V201H272.201V197.224C272.201 195.816 271.71 195.112 270.729 195.112C270.259 195.112 269.875 195.315 269.577 195.72C269.278 196.115 269.129 196.637 269.129 197.288V201H267.593V193.832H269.129V194.728C269.299 194.493 269.449 194.317 269.577 194.2C269.705 194.083 269.891 193.971 270.137 193.864C270.382 193.757 270.675 193.704 271.016 193.704C272.03 193.704 272.766 194.109 273.225 194.92C273.577 194.472 273.929 194.157 274.281 193.976C274.643 193.795 275.091 193.704 275.625 193.704ZM280.143 197.416C280.143 196.392 280.506 195.517 281.231 194.792C281.956 194.067 282.831 193.704 283.855 193.704C284.879 193.704 285.754 194.067 286.479 194.792C287.204 195.517 287.567 196.392 287.567 197.416C287.567 198.44 287.204 199.315 286.479 200.04C285.754 200.765 284.879 201.128 283.855 201.128C282.831 201.128 281.956 200.765 281.231 200.04C280.506 199.315 280.143 198.44 280.143 197.416ZM282.335 199.032C282.762 199.491 283.268 199.72 283.855 199.72C284.452 199.72 284.964 199.491 285.391 199.032C285.818 198.595 286.031 198.056 286.031 197.416C286.031 196.787 285.818 196.243 285.391 195.784C284.964 195.336 284.452 195.112 283.855 195.112C283.279 195.112 282.772 195.336 282.335 195.784C281.898 196.253 281.679 196.797 281.679 197.416C281.679 198.035 281.898 198.573 282.335 199.032ZM292.184 196.52C293.709 196.872 294.472 197.651 294.472 198.856C294.472 199.528 294.221 200.072 293.72 200.488C293.219 200.915 292.621 201.128 291.928 201.128C290.851 201.128 289.907 200.723 289.096 199.912L289.864 198.792C290.483 199.389 291.139 199.699 291.832 199.72C292.163 199.731 292.429 199.656 292.632 199.496C292.835 199.336 292.936 199.149 292.936 198.936C292.936 198.531 292.605 198.237 291.944 198.056C291.016 197.8 290.371 197.507 290.008 197.176C289.656 196.845 289.48 196.376 289.48 195.768C289.48 195.192 289.699 194.707 290.136 194.312C290.584 193.907 291.176 193.704 291.912 193.704C292.669 193.704 293.357 193.949 293.976 194.44L293.256 195.56C292.861 195.261 292.413 195.112 291.912 195.112C291.635 195.112 291.416 195.171 291.256 195.288C291.096 195.405 291.016 195.549 291.016 195.72C291.016 195.923 291.096 196.083 291.256 196.2C291.427 196.307 291.736 196.413 292.184 196.52Z" fill="white"/>
</g>
<defs>
<clipPath id="clip0_37_113">
<rect width="341" height="231" rx="17" fill="white"/>
</clipPath>
</defs>
</svg>
